<svg xmlns="http://www.w3.org/2000/svg" width="63.471" height="63.471" viewBox="0 0 63.471 63.471">
  <g id="Grupo_136768" data-name="Grupo 136768" transform="translate(-306.529 -18178.529)">
    <path id="Trazado_197811" data-name="Trazado 197811" d="M48.687,54.411,37.878,52.384V50.163h-.006a10.67,10.67,0,0,0,.863-.719,10.235,10.235,0,0,0,2.386-3.394,5.115,5.115,0,0,0,4.947-5.1V28.578a6.235,6.235,0,0,0-4.3-5.923l-.111-.141A13.618,13.618,0,0,0,17.4,31.021v9.928a5.12,5.12,0,0,0,5.04,5.111,10.565,10.565,0,0,0,3.226,4.1h-.076v2.221L14.785,54.411a9.216,9.216,0,0,0-7.042,6.141l-.974,2.919H56.7l-.974-2.919A9.216,9.216,0,0,0,48.687,54.411ZM39.925,35.831H23.546a1.024,1.024,0,0,1,1.024-1.024h4.095a8.381,8.381,0,0,0,5.966-2.471l.176-.176.176.176a8.432,8.432,0,0,0,4.14,2.272,1.012,1.012,0,0,1,.8.992Zm-16.38,5.826V37.878h16.38v4.095H23.56C23.557,41.867,23.546,41.763,23.546,41.656Zm18.237,2.235a10.168,10.168,0,0,0,.19-1.918V38.066a3.053,3.053,0,0,1-.19,5.825ZM31.021,19.451a11.516,11.516,0,0,1,9.035,4.342l.524.656.326.087a4.186,4.186,0,0,1,3.114,4.043v8.3a5.068,5.068,0,0,0-2.047-.946V35.6a3.051,3.051,0,0,0-2.408-2.992,6.362,6.362,0,0,1-3.135-1.72l-1.624-1.624-1.624,1.624a6.348,6.348,0,0,1-4.519,1.872H24.569A3.075,3.075,0,0,0,21.5,35.831v.1a5.08,5.08,0,0,0-2.047.946V31.02A11.583,11.583,0,0,1,31.021,19.451Zm-11.57,21.5A3.067,3.067,0,0,1,21.5,38.066v3.59a10.87,10.87,0,0,0,.242,2.25A3.067,3.067,0,0,1,19.451,40.949Zm4.418,3.071H39.66a8.176,8.176,0,0,1-8.472,6.125A8.25,8.25,0,0,1,23.869,44.02Zm7.188,8.168c.23.014.461.021.689.021a10.156,10.156,0,0,0,4.085-.858v1.685a4.182,4.182,0,0,1-4.095,2.244,4.2,4.2,0,0,1-4.095-2.248V51.326A9.853,9.853,0,0,0,31.057,52.189ZM9.611,61.424l.074-.223a7.173,7.173,0,0,1,5.479-4.778l10.885-2.041a6.239,6.239,0,0,0,5.687,2.947,6.241,6.241,0,0,0,5.687-2.946l10.885,2.041A7.175,7.175,0,0,1,53.787,61.2l.074.222Zm4.721-30.712H0V53.234H14.332ZM12.285,51.186H2.047V32.759H12.285ZM10.237,36.854H4.095V34.807h6.142Zm0,4.095H4.095V38.9h6.142Zm0,4.095H4.095V43h6.142Zm0,4.095H4.095V47.092h6.142Zm16.38-35.831H24.569V7.166H18.427v6.142H16.38V3.071H10.237V13.308H8.19V0H2.047V13.308H0v2.047H26.617ZM20.475,9.214h2.047v4.095H20.475Zm-8.19-4.095h2.047v8.19H12.285ZM4.095,2.047H6.142V13.308H4.095ZM49.739,0H63.471V2.047H50.587L37.578,15.056,36.13,13.608Zm1.448,4.095H63.471V6.142H51.186Zm0,4.095H63.471v2.047H51.186Zm10.237,4.095h2.047v2.047H61.424Zm-10.237,0h8.19v2.047h-8.19Zm5.119,11.261h2.047v3.071H56.305Zm-.424,3.247-1.448,1.448-2.171-2.171,1.448-1.448Zm-4.695,1.872h3.071v2.047H51.186Zm3.247,2.471,1.448,1.448L53.71,34.755l-1.448-1.448Zm1.872,1.624h2.047v3.071H56.305Zm3.919-1.624L62.4,33.307l-1.448,1.448-2.171-2.171Zm.176-2.471h3.071v2.047H60.4Zm-1.624-1.872,2.171-2.171L62.4,26.069l-2.171,2.171ZM56.305,37.878h2.047v7.166H56.305Zm0,9.214h2.047v2.047H56.305Z" transform="translate(306.529 18178.529)" fill="#fff"/>
  </g>
</svg>
