<svg xmlns="http://www.w3.org/2000/svg" xmlns:xlink="http://www.w3.org/1999/xlink" width="101" height="101" viewBox="0 0 101 101">
  <defs>
    <linearGradient id="linear-gradient" x1="0.5" y1="1" x2="0.5" gradientUnits="objectBoundingBox">
      <stop offset="0" stop-color="#9f2fff"/>
      <stop offset="1" stop-color="#0bb1d3"/>
    </linearGradient>
  </defs>
  <g id="Grupo_136134" data-name="Grupo 136134" transform="translate(-750 -1457)">
    <circle id="Elipse_1142" data-name="Elipse 1142" cx="50.5" cy="50.5" r="50.5" transform="translate(750 1457)" fill="#63f2e4"/>
    <path id="airplane" d="M32,22a4,4,0,0,0-4,4v4a4,4,0,0,0,8,0V26A4,4,0,0,0,32,22Zm0,2a2,2,0,0,1,2,2v1H30V26A2,2,0,0,1,32,24Zm0,8a2,2,0,0,1-2-2V29h4v1A2,2,0,0,1,32,32ZM58,18a3,3,0,0,0-6,0v3H50V20a3,3,0,0,0-6,0v1H41.926c.046-1.667.074-3.334.074-5v-.362l-5-6V8.1l8.776.878A3.411,3.411,0,0,0,46.125,9H46.5a3.5,3.5,0,0,0,0-7h-.253a3.54,3.54,0,0,0-.687.068l-9.051,1.81a4.972,4.972,0,0,0-9.019,0L18.438,2.067A3.582,3.582,0,0,0,17.753,2H17.5a3.5,3.5,0,0,0,0,7h.375a3.411,3.411,0,0,0,.349-.017L27,8.1V9.637l-5,6V16c0,1.666.028,3.333.074,5H20V20a3,3,0,0,0-6,0v1H12V18a3,3,0,0,0-6,0v3H1v8.731l22.2,7.064q.719,6.283,1.87,12.5L10,55.323V61H28.556a3.965,3.965,0,0,0,6.888,0H54V55.323L38.928,49.294q1.149-6.21,1.87-12.5L63,29.731V21H58Zm-4,0a1,1,0,0,1,2,0v3H54Zm-8,2a1,1,0,0,1,2,0v1H46ZM33.8,49H30.2l-.889,4H27.82l-.31-1.546A181.351,181.351,0,0,1,24.009,17H35V15H25.135l3.334-4h7.062l3.334,4H37v2h2.991a181.271,181.271,0,0,1-3.5,34.454L36.18,53h-1.5ZM45.952,4.029a1.545,1.545,0,0,1,.3-.029H46.5a1.5,1.5,0,0,1,0,3h-.375a1.472,1.472,0,0,1-.149-.007L37,6.095V6c0-.06-.016-.117-.018-.177ZM32,3a3,3,0,0,1,3,3V9H29V6A3,3,0,0,1,32,3ZM18.024,6.993A1.472,1.472,0,0,1,17.875,7H17.5a1.5,1.5,0,0,1,0-3h.253a1.526,1.526,0,0,1,.294.029l8.971,1.794c0,.06-.018.117-.018.177v.095ZM16,20a1,1,0,0,1,2,0v1H16ZM8,18a1,1,0,0,1,2,0v3H8Zm14.149,5c.026.667.041,1.333.074,2H3V23ZM15,27v5.087L9,30.178V27ZM3,27H7v2.541L3,28.268Zm14,5.723V27h5.347c.154,2.543.353,5.084.613,7.619ZM18,59V57H16v2H12V56.677L25.447,51.3c.036.182.066.366.1.548L26.18,55h2.685l-.841,3.783L28,59Zm14,2a2,2,0,0,1-2-1.9L31.8,51h.4L34,59.1A2,2,0,0,1,32,61Zm20-4.323V59H48V57H46v2H36l-.879-4h2.7l.63-3.153c.036-.182.067-.366.1-.548ZM41.654,27H47v5.723l-5.96,1.9C41.3,32.084,41.5,29.543,41.654,27ZM55,27v3.178l-6,1.909V27Zm2,2.541V27h4v1.269ZM61,25H41.777c.033-.667.049-1.333.074-2H61Z" transform="translate(769 1476)" fill="url(#linear-gradient)"/>
  </g>
</svg>
