<svg xmlns="http://www.w3.org/2000/svg" width="53.474" height="69.752" viewBox="0 0 53.474 69.752">
  <g id="book-school-elearning-education-language" transform="translate(-72 -16)">
    <path id="Trazado_197830" data-name="Trazado 197830" d="M121.162,120.55a1.163,1.163,0,0,0,1.162-1.162V89.162a1.162,1.162,0,1,0-2.325,0v30.225A1.163,1.163,0,0,0,121.162,120.55Z" transform="translate(-41.025 -61.538)" fill="#262626"/>
    <path id="Trazado_197831" data-name="Trazado 197831" d="M124.312,16H80.137A8.147,8.147,0,0,0,72,24.137V74.124A6.975,6.975,0,0,0,78.975,81.1H109.2v3.487a1.144,1.144,0,0,0,.616,1.023A1.119,1.119,0,0,0,111,85.551l2.848-1.895,2.848,1.895a1.163,1.163,0,0,0,1.8-.965V81.1h5.812a1.163,1.163,0,0,0,1.162-1.162V17.162A1.163,1.163,0,0,0,124.312,16Zm-8.137,66.413L114.489,81.3a1.133,1.133,0,0,0-1.279,0l-1.686,1.116V75.287h4.65Zm6.975-3.639H118.5V75.287h4.65Zm0-5.812H84.787a1.162,1.162,0,1,0,0,2.325H109.2v3.487H78.975a4.65,4.65,0,1,1,0-9.3h44.174Zm0-5.812H78.975a6.955,6.955,0,0,0-4.65,1.779V24.137a5.812,5.812,0,0,1,5.812-5.812h43.012Z" fill="#262626"/>
    <path id="Trazado_197832" data-name="Trazado 197832" d="M107.487,408h-2.325a1.162,1.162,0,1,0,0,2.325h2.325a1.162,1.162,0,1,0,0-2.325Z" transform="translate(-27.35 -335.038)" fill="#262626"/>
    <path id="Trazado_197833" data-name="Trazado 197833" d="M121.162,51.487a1.163,1.163,0,0,0,1.162-1.162V49.162a1.162,1.162,0,1,0-2.325,0v1.162A1.163,1.163,0,0,0,121.162,51.487Z" transform="translate(-41.025 -27.35)" fill="#262626"/>
    <path id="Trazado_197834" data-name="Trazado 197834" d="M121.162,331.487a1.163,1.163,0,0,0,1.162-1.163v-1.162a1.162,1.162,0,0,0-2.325,0v1.162A1.163,1.163,0,0,0,121.162,331.487Z" transform="translate(-41.025 -266.663)" fill="#262626"/>
    <path id="Trazado_197835" data-name="Trazado 197835" d="M160.713,128.182a1.163,1.163,0,0,0,1.521-.625h0l1.639-3.935h6.2l1.639,3.935a1.163,1.163,0,0,0,2.146-.9l-5.812-13.95a1.162,1.162,0,0,0-2.146,0l-5.812,13.95a1.163,1.163,0,0,0,.625,1.521Zm6.26-12L169.1,121.3h-4.262Z" transform="translate(-75.21 -82.047)" fill="#262626"/>
    <path id="Trazado_197836" data-name="Trazado 197836" d="M313.161,114.325h7.128l-8.1,12.142a1.162,1.162,0,0,0,.967,1.808h9.3a1.162,1.162,0,1,0,0-2.325h-7.128l8.1-12.142a1.162,1.162,0,0,0-.967-1.808h-9.3a1.162,1.162,0,1,0,0,2.325Z" transform="translate(-205.124 -82.05)" fill="#262626"/>
    <path id="Trazado_197837" data-name="Trazado 197837" d="M265.162,162.325h3.487a1.162,1.162,0,0,0,0-2.325h-3.487a1.162,1.162,0,0,0,0,2.325Z" transform="translate(-164.1 -123.075)" fill="#262626"/>
  </g>
</svg>
