<svg xmlns="http://www.w3.org/2000/svg" xmlns:xlink="http://www.w3.org/1999/xlink" width="101" height="101" viewBox="0 0 101 101">
  <defs>
    <linearGradient id="linear-gradient" x1="0.5" y1="1" x2="0.5" gradientUnits="objectBoundingBox">
      <stop offset="0" stop-color="#9f2fff"/>
      <stop offset="1" stop-color="#0bb1d3"/>
    </linearGradient>
  </defs>
  <g id="Grupo_136135" data-name="Grupo 136135" transform="translate(-750 -1618)">
    <circle id="Elipse_1146" data-name="Elipse 1146" cx="50.5" cy="50.5" r="50.5" transform="translate(750 1618)" fill="#63f2e4"/>
    <path id="cockpit" d="M55.431,23.971,51,23.165v-.445l2.356-.785A9.718,9.718,0,0,0,53,3.386V2a2,2,0,0,0-2-2H49a2,2,0,0,0-2,2V3H44a5,5,0,1,0-5.7,7.7A2.98,2.98,0,0,0,38,12v5a6.01,6.01,0,0,0,5,5.917v.329l-5.665,1.618-5.966-6.818A3.063,3.063,0,0,0,26,20.063v.249a3.083,3.083,0,0,0,.613,1.838L33.4,31.2a7.018,7.018,0,0,0,3.007,2.295A2.982,2.982,0,0,0,36,35v4a11.035,11.035,0,0,0,8,10.583V54H42V50H36v4H34V50H28v4H26V50H20v4H18V49.583a11.046,11.046,0,0,0,7.59-7.626A2,2,0,0,0,26,42h1a3,3,0,0,0,3-3V31.842a8,8,0,0,0-6.569-7.871L19,23.165v-.63A6.722,6.722,0,0,0,22,17h1a3,3,0,0,0,3-3V11A11,11,0,0,0,4,11v3a3,3,0,0,0,3,3H8a6.721,6.721,0,0,0,3,5.535v.63l-4.431.806A8,8,0,0,0,0,31.842V39a3,3,0,0,0,3,3H4a2.008,2.008,0,0,0,.409-.042A11.043,11.043,0,0,0,12,49.583V54H0v8H62V54H50V49.583a11.046,11.046,0,0,0,7.59-7.626A2,2,0,0,0,58,42h1a3,3,0,0,0,3-3V31.842a8,8,0,0,0-6.569-7.871Zm-4.2,1.268-1.495,3.737L48.32,27.094l2.016-2.016ZM50,13a2,2,0,1,1-2,2A2,2,0,0,1,50,13Zm8-.283a7.707,7.707,0,0,1-5.277,7.321L51,20.613V18.873a4,4,0,0,0,2-6.515V5.493a7.74,7.74,0,0,1,5,7.224ZM51,2v9.127a4.012,4.012,0,0,0-2,0V2ZM37,6a3,3,0,0,1,6,0V7h2V6a5,5,0,0,0-.1-1H47V9H40A3,3,0,0,1,37,6Zm3,11V12a1,1,0,0,1,1-1h6v1.358a4,4,0,0,0,2,6.515v4.712l-2,2-2-2V21H44A4,4,0,0,1,40,17Zm3.709,8.123,1.971,1.971-1.412,1.883-1.44-3.6ZM28,20.312v-.249a1.064,1.064,0,0,1,1.864-.7l1.975,2.257-2,1.5-1.627-2.17A1.07,1.07,0,0,1,28,20.312ZM38,39V35a1,1,0,1,1,2,0v4a7.014,7.014,0,0,0,4,6.325v2.162A9.032,9.032,0,0,1,38,39Zm.382,17,2,4H21.618l2-4ZM38,52h2v2H38Zm-8,0h2v2H30Zm-8,0h2v2H22Zm-4-4.513V45.325A7.014,7.014,0,0,0,22,39V35a1,1,0,0,1,2,0v4A9.035,9.035,0,0,1,18,47.487ZM28,39a1,1,0,0,1-1,1H26V36h1a1,1,0,0,1,1,1v2Zm-8.773-13.76-1.495,3.737L16.32,27.094l2.016-2.016ZM19.828,11a5.791,5.791,0,0,1-4.121-1.707L15,8.586l-.707.707A5.791,5.791,0,0,1,10.172,11H10a5,5,0,1,1,10,0ZM23,15H22V13h1a1,1,0,0,1,0,2ZM15,2a9.01,9.01,0,0,1,9,9v.172A2.986,2.986,0,0,0,23,11H22A7,7,0,0,0,8,11H7a2.986,2.986,0,0,0-1,.172V11A9.01,9.01,0,0,1,15,2ZM6,14a1,1,0,0,1,1-1H8v2H7A1,1,0,0,1,6,14Zm4,2.93V13h.172A7.768,7.768,0,0,0,15,11.335,7.768,7.768,0,0,0,19.828,13H20v3.93a4.728,4.728,0,0,1-2.109,3.941A2,2,0,0,0,17,22.535v1.051l-2,2-2-2V22.535a2,2,0,0,0-.891-1.664A4.728,4.728,0,0,1,10,16.93Zm1.663,8.148,2.016,2.016-1.412,1.883L10.773,25.24Zm-4.737.861L8.765,25.6l2.967,7.419L14,30v8h2V30l2.268,3.024L21.235,25.6l1.838.334A6,6,0,0,1,28,31.842v2.33A2.986,2.986,0,0,0,27,34H26c-.057,0-.113,0-.169.009A3.014,3.014,0,0,0,24,32.172V30H22v2.172A3,3,0,0,0,20,35v4a5.011,5.011,0,0,1-2,4V42a2,2,0,0,0-2-2H14a2,2,0,0,0-2,2v1a5.011,5.011,0,0,1-2-4V35a3,3,0,0,0-2-2.828V30H6v2.172a3.014,3.014,0,0,0-1.831,1.836C4.113,34,4.057,34,4,34H3a2.986,2.986,0,0,0-1,.172v-2.33a6,6,0,0,1,4.927-5.9ZM4,40H3a1,1,0,0,1-1-1V37a1,1,0,0,1,1-1H4v3c0,.014,0,.028,0,.042Zm2-1V35a1,1,0,0,1,2,0v4a7.014,7.014,0,0,0,4,6.325v2.162A9.032,9.032,0,0,1,6,39Zm8,3h2V54H14ZM2,56H21.382l-2,4H2Zm58,4H42.618l-2-4H60ZM46,54V42h2V54Zm4-6.513V45.325A7.014,7.014,0,0,0,54,39V35a1,1,0,1,1,2,0v4A9.035,9.035,0,0,1,50,47.487ZM60,39a1,1,0,0,1-1,1H58V36h1a1,1,0,0,1,1,1v2Zm0-4.828A2.986,2.986,0,0,0,59,34H58c-.057,0-.113,0-.169.009A3.014,3.014,0,0,0,56,32.172V30H54v2.172A3,3,0,0,0,52,35v4a5.011,5.011,0,0,1-2,4V42a2,2,0,0,0-2-2H46a2,2,0,0,0-2,2v1a5.011,5.011,0,0,1-2-4V35a3,3,0,0,0-2-2.828V30H38v1.9A5.025,5.025,0,0,1,35,30l-3.96-5.28,2.12-1.59L36,26.376V28h2V26.754l2.894-.827,2.838,7.1L46,30v8h2V30l2.268,3.024L53.235,25.6l1.838.334A6,6,0,0,1,60,31.842Z" transform="translate(770 1638)" fill="url(#linear-gradient)"/>
  </g>
</svg>
