<svg xmlns="http://www.w3.org/2000/svg" width="818.746" height="370.102" viewBox="0 0 818.746 370.102">
  <g id="Grupo_137335" data-name="Grupo 137335" transform="translate(-399.627 -1503.398)">
    <path id="Trazado_200342" data-name="Trazado 200342" d="M0,0V224.581" transform="translate(1047.629 1589.142)" fill="none" stroke="#b5a7e9" stroke-linecap="round" stroke-width="3"/>
    <path id="Trazado_200343" data-name="Trazado 200343" d="M0,0V306.158" transform="translate(948.189 1548.194)" fill="none" stroke="#b5a7e9" stroke-linecap="round" stroke-width="3"/>
    <path id="Trazado_200344" data-name="Trazado 200344" d="M0,0V331.257" transform="translate(864.645 1535.545)" fill="none" stroke="#b5a7e9" stroke-linecap="round" stroke-width="3"/>
    <path id="Trazado_200345" data-name="Trazado 200345" d="M0,0V331.257" transform="translate(791.83 1535.545)" fill="none" stroke="#b5a7e9" stroke-linecap="round" stroke-width="3"/>
    <path id="Trazado_200346" data-name="Trazado 200346" d="M0,0V306.158" transform="translate(722.354 1548.194)" fill="none" stroke="#b5a7e9" stroke-linecap="round" stroke-width="3"/>
    <path id="Trazado_200347" data-name="Trazado 200347" d="M0,0V230.277" transform="translate(636.593 1583.445)" fill="none" stroke="#b5a7e9" stroke-linecap="round" stroke-width="3"/>
    <path id="Trazado_200348" data-name="Trazado 200348" d="M278.911,0C432.95,0,557.823,75.657,557.823,168.984S432.95,337.968,278.911,337.968,0,262.311,0,168.984,124.873,0,278.911,0Z" transform="translate(617.614 1534.032)" fill="none" stroke="#d100c9" stroke-width="3"/>
    <path id="Trazado_200349" data-name="Trazado 200349" d="M6.233,0A6.233,6.233,0,1,1,0,6.233,6.233,6.233,0,0,1,6.233,0Z" transform="translate(696.399 1621.142)" fill="none" stroke="#d100c9" stroke-linecap="round" stroke-width="3"/>
    <path id="Trazado_200350" data-name="Trazado 200350" d="M-94.478-3.3a1.545,1.545,0,0,0-.593-1.3,7.138,7.138,0,0,0-2.14-.923,10.335,10.335,0,0,1-2.461-1.037,3.284,3.284,0,0,1-1.749-2.865,3.118,3.118,0,0,1,1.261-2.549,5.1,5.1,0,0,1,3.274-1,5.53,5.53,0,0,1,2.382.492,3.909,3.909,0,0,1,1.644,1.4,3.6,3.6,0,0,1,.6,2.017h-2.215a2.005,2.005,0,0,0-.628-1.569,2.594,2.594,0,0,0-1.8-.567,2.709,2.709,0,0,0-1.692.466,1.551,1.551,0,0,0-.6,1.3,1.4,1.4,0,0,0,.65,1.173,7.493,7.493,0,0,0,2.145.914A9.865,9.865,0,0,1-94-6.333a3.816,3.816,0,0,1,1.327,1.3,3.388,3.388,0,0,1,.422,1.718A3.045,3.045,0,0,1-93.48-.769a5.318,5.318,0,0,1-3.327.945A6.251,6.251,0,0,1-99.36-.338a4.289,4.289,0,0,1-1.811-1.419,3.537,3.537,0,0,1-.646-2.109h2.224a2.07,2.07,0,0,0,.721,1.688,3.156,3.156,0,0,0,2.065.6,2.742,2.742,0,0,0,1.745-.47A1.517,1.517,0,0,0-94.478-3.3ZM-86.322.176A4.419,4.419,0,0,1-89.613-1.1a4.639,4.639,0,0,1-1.261-3.406v-.264a5.706,5.706,0,0,1,.549-2.544,4.181,4.181,0,0,1,1.542-1.745,4.078,4.078,0,0,1,2.215-.624,3.733,3.733,0,0,1,3,1.239,5.24,5.24,0,0,1,1.059,3.507v.861h-6.214a2.856,2.856,0,0,0,.787,1.863,2.362,2.362,0,0,0,1.736.686,2.892,2.892,0,0,0,2.391-1.187l1.151,1.1A3.845,3.845,0,0,1-84.182-.294,4.774,4.774,0,0,1-86.322.176Zm-.255-8.147A1.8,1.8,0,0,0-88-7.356a3.189,3.189,0,0,0-.69,1.714h4.069V-5.8a2.6,2.6,0,0,0-.571-1.622A1.785,1.785,0,0,0-86.577-7.972ZM-75.52-2.584a.968.968,0,0,0-.47-.87,5,5,0,0,0-1.56-.527,8.02,8.02,0,0,1-1.819-.58,2.428,2.428,0,0,1-1.6-2.241,2.531,2.531,0,0,1,1.037-2.057A4.1,4.1,0,0,1-77.3-9.686a4.266,4.266,0,0,1,2.755.844,2.677,2.677,0,0,1,1.05,2.188h-2.136a1.316,1.316,0,0,0-.457-1.024A1.752,1.752,0,0,0-77.3-8.086a1.893,1.893,0,0,0-1.147.325,1.025,1.025,0,0,0-.444.87.866.866,0,0,0,.413.765,5.68,5.68,0,0,0,1.67.549,7.9,7.9,0,0,1,1.973.659A2.794,2.794,0,0,1-73.767-4a2.342,2.342,0,0,1,.347,1.3A2.478,2.478,0,0,1-74.483-.62a4.535,4.535,0,0,1-2.786.8,4.917,4.917,0,0,1-2.083-.422,3.428,3.428,0,0,1-1.424-1.16A2.746,2.746,0,0,1-81.286-3h2.074a1.5,1.5,0,0,0,.571,1.165,2.22,2.22,0,0,0,1.4.409,2.16,2.16,0,0,0,1.283-.321A.993.993,0,0,0-75.52-2.584ZM-69.289,0h-2.136V-9.51h2.136Zm-2.268-11.979a1.133,1.133,0,0,1,.312-.817,1.179,1.179,0,0,1,.892-.325,1.193,1.193,0,0,1,.9.325,1.125,1.125,0,0,1,.316.817,1.1,1.1,0,0,1-.316.8,1.2,1.2,0,0,1-.9.321,1.188,1.188,0,0,1-.892-.321A1.107,1.107,0,0,1-71.556-11.979Zm4.192,7.137a5.607,5.607,0,0,1,.554-2.518,4.044,4.044,0,0,1,1.556-1.723,4.383,4.383,0,0,1,2.3-.6,4.154,4.154,0,0,1,3.125,1.239,4.874,4.874,0,0,1,1.3,3.287l.009.5a5.658,5.658,0,0,1-.541,2.514A4,4,0,0,1-60.609-.431a4.415,4.415,0,0,1-2.325.606,4.125,4.125,0,0,1-3.221-1.34,5.133,5.133,0,0,1-1.208-3.573Zm2.136.185a3.832,3.832,0,0,0,.606,2.3,1.971,1.971,0,0,0,1.688.831,1.95,1.95,0,0,0,1.683-.844,4.232,4.232,0,0,0,.6-2.47,3.782,3.782,0,0,0-.62-2.285,1.979,1.979,0,0,0-1.683-.844,1.96,1.96,0,0,0-1.661.831A4.152,4.152,0,0,0-65.228-4.658Zm2.865-8.842h2.435l-2.435,2.663-1.714,0Zm7.629,3.99.062,1.1A3.419,3.419,0,0,1-51.9-9.686q2.971,0,3.023,3.4V0h-2.136V-6.161a1.958,1.958,0,0,0-.391-1.34,1.645,1.645,0,0,0-1.279-.435,2.058,2.058,0,0,0-1.925,1.169V0h-2.136V-9.51ZM-39.951,0h-2.136V-9.51h2.136Zm-2.268-11.979a1.133,1.133,0,0,1,.312-.817,1.179,1.179,0,0,1,.892-.325,1.193,1.193,0,0,1,.9.325,1.125,1.125,0,0,1,.316.817,1.1,1.1,0,0,1-.316.8,1.2,1.2,0,0,1-.9.321,1.188,1.188,0,0,1-.892-.321A1.107,1.107,0,0,1-42.218-11.979Zm6.574,2.47.062,1.1a3.419,3.419,0,0,1,2.769-1.274q2.971,0,3.023,3.4V0h-2.136V-6.161a1.958,1.958,0,0,0-.391-1.34A1.645,1.645,0,0,0-33.6-7.937a2.058,2.058,0,0,0-1.925,1.169V0h-2.136V-9.51ZM-26.864,0V-7.928h-1.45V-9.51h1.45v-.87a3.266,3.266,0,0,1,.879-2.443,3.367,3.367,0,0,1,2.461-.861,4.936,4.936,0,0,1,1.2.158l-.053,1.67a4.207,4.207,0,0,0-.817-.07,1.371,1.371,0,0,0-1.529,1.573v.844h1.934v1.582h-1.934V0Zm5.229-4.843a5.607,5.607,0,0,1,.554-2.518,4.044,4.044,0,0,1,1.556-1.723,4.383,4.383,0,0,1,2.3-.6A4.154,4.154,0,0,1-14.1-8.446a4.874,4.874,0,0,1,1.3,3.287l.009.5a5.658,5.658,0,0,1-.541,2.514A4,4,0,0,1-14.88-.431,4.415,4.415,0,0,1-17.2.176a4.125,4.125,0,0,1-3.221-1.34,5.133,5.133,0,0,1-1.208-3.573Zm2.136.185a3.832,3.832,0,0,0,.606,2.3,1.971,1.971,0,0,0,1.688.831,1.95,1.95,0,0,0,1.683-.844,4.232,4.232,0,0,0,.6-2.47,3.782,3.782,0,0,0-.62-2.285,1.979,1.979,0,0,0-1.683-.844,1.96,1.96,0,0,0-1.661.831A4.152,4.152,0,0,0-19.5-4.658Zm13.491-2.9a5.285,5.285,0,0,0-.87-.07A1.959,1.959,0,0,0-8.855-6.5V0h-2.136V-9.51h2.039L-8.9-8.446A2.406,2.406,0,0,1-6.754-9.686,2,2,0,0,1-6-9.562ZM-2.65-9.51l.062.993A3.422,3.422,0,0,1,.154-9.686a2.629,2.629,0,0,1,2.61,1.459A3.373,3.373,0,0,1,5.682-9.686a2.965,2.965,0,0,1,2.342.87,3.831,3.831,0,0,1,.787,2.566V0H6.675V-6.187a1.891,1.891,0,0,0-.4-1.327,1.731,1.731,0,0,0-1.31-.422,1.778,1.778,0,0,0-1.191.391,2.063,2.063,0,0,0-.646,1.024L3.142,0H1.006V-6.258A1.523,1.523,0,0,0-.708-7.937,1.88,1.88,0,0,0-2.527-6.891V0H-4.663V-9.51ZM16.686,0a3.3,3.3,0,0,1-.246-.888,3.325,3.325,0,0,1-2.5,1.063,3.355,3.355,0,0,1-2.338-.817A2.615,2.615,0,0,1,10.7-2.663,2.7,2.7,0,0,1,11.83-5a5.473,5.473,0,0,1,3.23-.813h1.31v-.624a1.666,1.666,0,0,0-.413-1.182A1.638,1.638,0,0,0,14.7-8.06a1.881,1.881,0,0,0-1.2.365,1.129,1.129,0,0,0-.466.927H10.9a2.37,2.37,0,0,1,.519-1.463A3.455,3.455,0,0,1,12.832-9.3a4.955,4.955,0,0,1,1.991-.387,3.99,3.99,0,0,1,2.663.839,2.993,2.993,0,0,1,1.02,2.36V-2.2a4.861,4.861,0,0,0,.36,2.048V0ZM14.339-1.538a2.429,2.429,0,0,0,1.191-.308,2.055,2.055,0,0,0,.839-.826V-4.465H15.218a3.148,3.148,0,0,0-1.784.413,1.338,1.338,0,0,0-.6,1.169,1.248,1.248,0,0,0,.409.98A1.583,1.583,0,0,0,14.339-1.538Zm9.079-10.283V-9.51H25.1v1.582H23.418v5.309a1.169,1.169,0,0,0,.215.787,1,1,0,0,0,.769.242,3.29,3.29,0,0,0,.747-.088V-.026a5.26,5.26,0,0,1-1.406.2q-2.461,0-2.461-2.716V-7.928H19.718V-9.51h1.564v-2.312ZM29,0H26.864V-9.51H29ZM26.732-11.979a1.133,1.133,0,0,1,.312-.817,1.179,1.179,0,0,1,.892-.325,1.193,1.193,0,0,1,.9.325,1.125,1.125,0,0,1,.316.817,1.1,1.1,0,0,1-.316.8,1.2,1.2,0,0,1-.9.321,1.188,1.188,0,0,1-.892-.321A1.107,1.107,0,0,1,26.732-11.979Zm7.945,9.272,2.013-6.8H38.9L35.6,0H33.746L30.423-9.51h2.215ZM45.778,0a3.3,3.3,0,0,1-.246-.888,3.325,3.325,0,0,1-2.5,1.063A3.355,3.355,0,0,1,40.7-.642a2.615,2.615,0,0,1-.905-2.021A2.7,2.7,0,0,1,40.922-5a5.473,5.473,0,0,1,3.23-.813h1.31v-.624a1.666,1.666,0,0,0-.413-1.182,1.638,1.638,0,0,0-1.257-.444,1.881,1.881,0,0,0-1.2.365,1.129,1.129,0,0,0-.466.927H39.995a2.37,2.37,0,0,1,.519-1.463A3.455,3.455,0,0,1,41.924-9.3a4.955,4.955,0,0,1,1.991-.387,3.99,3.99,0,0,1,2.663.839,2.993,2.993,0,0,1,1.02,2.36V-2.2a4.861,4.861,0,0,0,.36,2.048V0ZM43.431-1.538a2.429,2.429,0,0,0,1.191-.308,2.055,2.055,0,0,0,.839-.826V-4.465H44.31a3.148,3.148,0,0,0-1.784.413,1.338,1.338,0,0,0-.6,1.169,1.248,1.248,0,0,0,.409.98A1.583,1.583,0,0,0,43.431-1.538Zm19.213-3.12a5.662,5.662,0,0,1-1,3.52A3.209,3.209,0,0,1,58.953.176a3.23,3.23,0,0,1-2.5-1.028V3.656H54.312V-9.51h1.969l.088.967a3.137,3.137,0,0,1,2.558-1.143,3.242,3.242,0,0,1,2.729,1.3,5.813,5.813,0,0,1,.989,3.6Zm-2.127-.185A3.966,3.966,0,0,0,59.95-7.1a1.843,1.843,0,0,0-1.622-.835,1.965,1.965,0,0,0-1.881,1.081v4.219a1.983,1.983,0,0,0,1.9,1.107,1.841,1.841,0,0,0,1.6-.822A4.366,4.366,0,0,0,60.517-4.843Zm8.912-2.716a5.285,5.285,0,0,0-.87-.07A1.959,1.959,0,0,0,66.582-6.5V0H64.446V-9.51h2.039l.053,1.063a2.406,2.406,0,0,1,2.145-1.239,2,2,0,0,1,.756.123ZM74.966.176A4.419,4.419,0,0,1,71.675-1.1a4.639,4.639,0,0,1-1.261-3.406v-.264a5.706,5.706,0,0,1,.549-2.544,4.181,4.181,0,0,1,1.542-1.745,4.078,4.078,0,0,1,2.215-.624,3.733,3.733,0,0,1,3,1.239,5.24,5.24,0,0,1,1.059,3.507v.861H72.567a2.856,2.856,0,0,0,.787,1.863,2.362,2.362,0,0,0,1.736.686A2.892,2.892,0,0,0,77.48-2.716l1.151,1.1A3.845,3.845,0,0,1,77.106-.294,4.774,4.774,0,0,1,74.966.176Zm-.255-8.147a1.8,1.8,0,0,0-1.419.615,3.189,3.189,0,0,0-.69,1.714h4.069V-5.8A2.6,2.6,0,0,0,76.1-7.422,1.785,1.785,0,0,0,74.711-7.972Zm8.965,5.265,2.013-6.8H87.9L84.6,0H82.745L79.422-9.51h2.215ZM91.5,0H89.363V-9.51H91.5ZM89.231-11.979a1.133,1.133,0,0,1,.312-.817,1.179,1.179,0,0,1,.892-.325,1.193,1.193,0,0,1,.9.325,1.125,1.125,0,0,1,.316.817,1.1,1.1,0,0,1-.316.8,1.2,1.2,0,0,1-.9.321,1.188,1.188,0,0,1-.892-.321A1.107,1.107,0,0,1,89.231-11.979ZM99.505,0a3.3,3.3,0,0,1-.246-.888,3.325,3.325,0,0,1-2.5,1.063,3.355,3.355,0,0,1-2.338-.817,2.615,2.615,0,0,1-.905-2.021A2.7,2.7,0,0,1,94.649-5a5.473,5.473,0,0,1,3.23-.813h1.31v-.624a1.666,1.666,0,0,0-.413-1.182,1.638,1.638,0,0,0-1.257-.444,1.881,1.881,0,0,0-1.2.365,1.129,1.129,0,0,0-.466.927H93.722a2.37,2.37,0,0,1,.519-1.463A3.455,3.455,0,0,1,95.651-9.3a4.955,4.955,0,0,1,1.991-.387,3.99,3.99,0,0,1,2.663.839,2.993,2.993,0,0,1,1.02,2.36V-2.2a4.861,4.861,0,0,0,.36,2.048V0ZM97.159-1.538a2.429,2.429,0,0,0,1.191-.308,2.055,2.055,0,0,0,.839-.826V-4.465H98.038a3.148,3.148,0,0,0-1.784.413,1.338,1.338,0,0,0-.6,1.169,1.248,1.248,0,0,0,.409.98A1.583,1.583,0,0,0,97.159-1.538Z" transform="translate(502.789 1593.581) rotate(-53.853)"/>
    <path id="Trazado_200351" data-name="Trazado 200351" d="M-33.908-2.979h-4.957L-39.9,0h-2.312l4.834-12.8h2L-30.542,0h-2.32Zm-4.333-1.793h3.709l-1.854-5.309Zm17.271.114a5.662,5.662,0,0,1-1,3.52A3.209,3.209,0,0,1-24.662.176a3.23,3.23,0,0,1-2.5-1.028V3.656H-29.3V-9.51h1.969l.088.967a3.137,3.137,0,0,1,2.558-1.143,3.242,3.242,0,0,1,2.729,1.3,5.813,5.813,0,0,1,.989,3.6ZM-23.1-4.843A3.966,3.966,0,0,0-23.665-7.1a1.843,1.843,0,0,0-1.622-.835,1.965,1.965,0,0,0-1.881,1.081v4.219a1.983,1.983,0,0,0,1.9,1.107,1.841,1.841,0,0,0,1.6-.822A4.366,4.366,0,0,0-23.1-4.843ZM-16.893,0h-2.136V-13.5h2.136Zm4.6,0h-2.136V-9.51H-12.3Zm-2.268-11.979a1.133,1.133,0,0,1,.312-.817,1.179,1.179,0,0,1,.892-.325,1.193,1.193,0,0,1,.9.325,1.125,1.125,0,0,1,.316.817,1.1,1.1,0,0,1-.316.8,1.2,1.2,0,0,1-.9.321,1.188,1.188,0,0,1-.892-.321A1.107,1.107,0,0,1-14.563-11.979Zm8.5,10.45A1.931,1.931,0,0,0-4.737-2a1.591,1.591,0,0,0,.563-1.151h2.013A3.137,3.137,0,0,1-2.716-1.49,3.632,3.632,0,0,1-4.122-.272,4.191,4.191,0,0,1-6.038.176,4.055,4.055,0,0,1-9.2-1.116a5.124,5.124,0,0,1-1.169-3.568V-4.9A5.039,5.039,0,0,1-9.211-8.38,4.018,4.018,0,0,1-6.047-9.686,3.907,3.907,0,0,1-3.283-8.7,3.542,3.542,0,0,1-2.162-6.1H-4.175a1.956,1.956,0,0,0-.558-1.345,1.8,1.8,0,0,0-1.332-.527,1.879,1.879,0,0,0-1.6.751,3.834,3.834,0,0,0-.571,2.281V-4.6A3.9,3.9,0,0,0-7.677-2.29,1.878,1.878,0,0,0-6.064-1.529ZM5.133,0a3.3,3.3,0,0,1-.246-.888A3.325,3.325,0,0,1,2.391.176,3.355,3.355,0,0,1,.053-.642,2.615,2.615,0,0,1-.853-2.663,2.7,2.7,0,0,1,.277-5a5.473,5.473,0,0,1,3.23-.813h1.31v-.624A1.666,1.666,0,0,0,4.4-7.616,1.638,1.638,0,0,0,3.146-8.06a1.881,1.881,0,0,0-1.2.365,1.129,1.129,0,0,0-.466.927H-.65A2.37,2.37,0,0,1-.132-8.231,3.455,3.455,0,0,1,1.279-9.3,4.955,4.955,0,0,1,3.27-9.686a3.99,3.99,0,0,1,2.663.839,2.993,2.993,0,0,1,1.02,2.36V-2.2a4.861,4.861,0,0,0,.36,2.048V0ZM2.786-1.538a2.429,2.429,0,0,0,1.191-.308,2.055,2.055,0,0,0,.839-.826V-4.465H3.665a3.148,3.148,0,0,0-1.784.413,1.338,1.338,0,0,0-.6,1.169,1.248,1.248,0,0,0,.409.98A1.583,1.583,0,0,0,2.786-1.538Zm10.31.009A1.931,1.931,0,0,0,14.423-2a1.591,1.591,0,0,0,.563-1.151H17a3.137,3.137,0,0,1-.554,1.657A3.632,3.632,0,0,1,15.038-.272a4.191,4.191,0,0,1-1.916.448A4.055,4.055,0,0,1,9.958-1.116,5.124,5.124,0,0,1,8.789-4.685V-4.9A5.039,5.039,0,0,1,9.949-8.38a4.018,4.018,0,0,1,3.164-1.305,3.907,3.907,0,0,1,2.764.989A3.542,3.542,0,0,1,17-6.1H14.985a1.956,1.956,0,0,0-.558-1.345A1.8,1.8,0,0,0,13.1-7.972a1.879,1.879,0,0,0-1.6.751,3.834,3.834,0,0,0-.571,2.281V-4.6a3.9,3.9,0,0,0,.558,2.307A1.878,1.878,0,0,0,13.1-1.529ZM20.883,0H18.747V-9.51h2.136ZM18.615-11.979a1.133,1.133,0,0,1,.312-.817,1.179,1.179,0,0,1,.892-.325,1.193,1.193,0,0,1,.9.325,1.125,1.125,0,0,1,.316.817,1.1,1.1,0,0,1-.316.8,1.2,1.2,0,0,1-.9.321,1.188,1.188,0,0,1-.892-.321A1.107,1.107,0,0,1,18.615-11.979Zm4.192,7.137a5.607,5.607,0,0,1,.554-2.518,4.044,4.044,0,0,1,1.556-1.723,4.383,4.383,0,0,1,2.3-.6,4.154,4.154,0,0,1,3.125,1.239,4.874,4.874,0,0,1,1.3,3.287l.009.5a5.658,5.658,0,0,1-.541,2.514A4,4,0,0,1,29.562-.431a4.415,4.415,0,0,1-2.325.606,4.125,4.125,0,0,1-3.221-1.34,5.133,5.133,0,0,1-1.208-3.573Zm2.136.185a3.832,3.832,0,0,0,.606,2.3,1.971,1.971,0,0,0,1.688.831,1.95,1.95,0,0,0,1.683-.844,4.232,4.232,0,0,0,.6-2.47,3.782,3.782,0,0,0-.62-2.285,1.979,1.979,0,0,0-1.683-.844,1.96,1.96,0,0,0-1.661.831A4.152,4.152,0,0,0,24.943-4.658ZM27.809-13.5h2.435l-2.435,2.663-1.714,0Zm7.629,3.99.062,1.1a3.419,3.419,0,0,1,2.769-1.274q2.971,0,3.023,3.4V0H39.155V-6.161a1.958,1.958,0,0,0-.391-1.34,1.645,1.645,0,0,0-1.279-.435,2.058,2.058,0,0,0-1.925,1.169V0H33.425V-9.51Z" transform="translate(1186.266 1579.824) rotate(-53.853)"/>
    <path id="Trazado_200352" data-name="Trazado 200352" d="M-40.21-4.746-41.036,0h-2.171l2.224-12.8,4.43.009a4.359,4.359,0,0,1,3.146,1.1,3.411,3.411,0,0,1,.993,2.9,4.069,4.069,0,0,1-1.521,2.961,5.521,5.521,0,0,1-3.568,1.1Zm.308-1.793,2.487.018a3,3,0,0,0,1.929-.6,2.475,2.475,0,0,0,.9-1.67,1.979,1.979,0,0,0-.365-1.569A1.913,1.913,0,0,0-36.422-11L-39.129-11Zm13.966-1.02a3.837,3.837,0,0,0-.817-.088,2.439,2.439,0,0,0-2.18,1.134L-30.076,0h-2.083l1.644-9.51,1.978-.009-.211,1.081A2.721,2.721,0,0,1-26.5-9.7a3.419,3.419,0,0,1,.8.132ZM-21.63.176a3.984,3.984,0,0,1-2.149-.624,3.55,3.55,0,0,1-1.345-1.635,4.86,4.86,0,0,1-.33-2.312l.026-.36a6.365,6.365,0,0,1,.848-2.606A4.84,4.84,0,0,1-22.86-9.114a4.178,4.178,0,0,1,2.232-.571,3.115,3.115,0,0,1,2.676,1.329,4.879,4.879,0,0,1,.672,3.372l-.123.915h-5.985a2.583,2.583,0,0,0,.457,1.822,1.811,1.811,0,0,0,1.477.71,3.2,3.2,0,0,0,2.479-1.169L-17.921-1.6A4.009,4.009,0,0,1-19.494-.277,4.686,4.686,0,0,1-21.63.176Zm.888-8.156q-1.652-.053-2.479,2.338l3.946.009.035-.185a2.757,2.757,0,0,0,.009-.791,1.617,1.617,0,0,0-.492-.984A1.558,1.558,0,0,0-20.742-7.98Zm13.184,3.27a7.737,7.737,0,0,1-.778,2.624A4.3,4.3,0,0,1-9.831-.352a3.524,3.524,0,0,1-2.008.536,2.8,2.8,0,0,1-2.4-1.222L-14.572,0h-1.907l2.338-13.5h2.092L-13-8.587a3.231,3.231,0,0,1,2.522-1.1A2.7,2.7,0,0,1-8.319-8.675,4.363,4.363,0,0,1-7.5-6,12.253,12.253,0,0,1-7.559-4.711Zm-2-1.178a2.5,2.5,0,0,0-.4-1.5A1.372,1.372,0,0,0-11.1-7.945a2.451,2.451,0,0,0-2.127,1.213l-.686,3.938a1.659,1.659,0,0,0,1.661,1.239,2.071,2.071,0,0,0,1.736-.809A4.584,4.584,0,0,0-9.642-4.72Q-9.571-5.467-9.562-5.889Zm9.22-1.67a3.837,3.837,0,0,0-.817-.088A2.439,2.439,0,0,0-3.34-6.513L-4.482,0H-6.565l1.644-9.51,1.978-.009-.211,1.081A2.721,2.721,0,0,1-.905-9.7a3.419,3.419,0,0,1,.8.132ZM1.872,0H-.211L1.441-9.51H3.524ZM1.74-11.944a1.175,1.175,0,0,1,.316-.826,1.159,1.159,0,0,1,.853-.36,1.108,1.108,0,0,1,.848.312,1.08,1.08,0,0,1,.338.8,1.111,1.111,0,0,1-.33.826,1.208,1.208,0,0,1-.839.343,1.127,1.127,0,0,1-.844-.3A1.045,1.045,0,0,1,1.74-11.944ZM8.508.176A3.984,3.984,0,0,1,6.359-.448,3.55,3.55,0,0,1,5.014-2.083a4.86,4.86,0,0,1-.33-2.312l.026-.36a6.365,6.365,0,0,1,.848-2.606A4.84,4.84,0,0,1,7.277-9.114,4.178,4.178,0,0,1,9.51-9.686a3.115,3.115,0,0,1,2.676,1.329,4.879,4.879,0,0,1,.672,3.372l-.123.915H6.75a2.583,2.583,0,0,0,.457,1.822,1.811,1.811,0,0,0,1.477.71,3.2,3.2,0,0,0,2.479-1.169L12.217-1.6A4.009,4.009,0,0,1,10.644-.277,4.686,4.686,0,0,1,8.508.176ZM9.4-7.98Q7.743-8.033,6.917-5.643l3.946.009.035-.185a2.757,2.757,0,0,0,.009-.791,1.617,1.617,0,0,0-.492-.984A1.558,1.558,0,0,0,9.4-7.98ZM14.212,0l1.371-7.928H14.177l.281-1.582,1.336.009.123-.712a4.24,4.24,0,0,1,1.415-2.593,4.119,4.119,0,0,1,2.821-.888,5.7,5.7,0,0,1,1.34.176q.655.167,1.305.369l-.5,1.758a5.585,5.585,0,0,0-2.092-.448,2,2,0,0,0-2.215,1.758l-.114.58,1.89-.009-.281,1.582H17.675L16.295,0Zm7.33,0H19.45L21.1-9.51h2.083Zm5.941-9.519L27.272-8.4a3.629,3.629,0,0,1,2.821-1.283,2.3,2.3,0,0,1,1.978.954,3.806,3.806,0,0,1,.475,2.588L31.518,0H29.435l1.037-6.17a3.157,3.157,0,0,0,.009-.7,1.121,1.121,0,0,0-1.248-1.072,2.532,2.532,0,0,0-2.083,1.169L25.963,0H23.88l1.644-9.51Zm6.7,4.755a7.356,7.356,0,0,1,.769-2.575A4.652,4.652,0,0,1,36.466-9.1a3.577,3.577,0,0,1,2.092-.593,2.806,2.806,0,0,1,2.364,1.151l.325-.976,1.9.009L41.572-.264A4.568,4.568,0,0,1,40,2.7a4.547,4.547,0,0,1-3.177,1.05,4.439,4.439,0,0,1-1.9-.457,3.947,3.947,0,0,1-1.441-1.16L34.594.879a2.668,2.668,0,0,0,2.18,1.187,2.554,2.554,0,0,0,1.753-.558,2.908,2.908,0,0,0,.98-1.692l.149-.668A3.365,3.365,0,0,1,37.16.176,2.663,2.663,0,0,1,35.02-.835a4.471,4.471,0,0,1-.883-2.672A8.782,8.782,0,0,1,34.181-4.764Zm2.065.185a6.427,6.427,0,0,0-.035.967,2.509,2.509,0,0,0,.422,1.477,1.415,1.415,0,0,0,1.151.571,2.459,2.459,0,0,0,2.074-1.1l.747-4.2a1.7,1.7,0,0,0-1.626-1.081,2.17,2.17,0,0,0-1.775.817,4.58,4.58,0,0,0-.94,2.364Z" transform="translate(561.178 1788.203)"/>
    <path id="Trazado_200353" data-name="Trazado 200353" d="M-44.285,0h-1.594V-12.086h1.594Zm4.125-8.981.05,1.129A3.273,3.273,0,0,1-37.42-9.147q2.847,0,2.872,3.212V0h-1.536V-5.943a2.068,2.068,0,0,0-.444-1.436,1.78,1.78,0,0,0-1.357-.465,2.216,2.216,0,0,0-1.312.4,2.706,2.706,0,0,0-.88,1.046V0h-1.536V-8.981Zm10.011-2.175v2.175h1.677v1.187h-1.677v5.577a1.247,1.247,0,0,0,.224.81.943.943,0,0,0,.764.27,3.718,3.718,0,0,0,.73-.1V0a4.478,4.478,0,0,1-1.179.165,1.912,1.912,0,0,1-1.552-.623,2.675,2.675,0,0,1-.523-1.768v-5.57h-1.635V-8.981h1.635v-2.175ZM-22.337-7.6a4.6,4.6,0,0,0-.755-.058,2.024,2.024,0,0,0-2.05,1.287V0h-1.536V-8.981h1.494l.025,1.038a2.391,2.391,0,0,1,2.142-1.2,1.569,1.569,0,0,1,.681.116Zm.838,3.03a5.3,5.3,0,0,1,.519-2.374,3.87,3.87,0,0,1,1.444-1.627,3.932,3.932,0,0,1,2.113-.573,3.788,3.788,0,0,1,2.968,1.27A4.886,4.886,0,0,1-13.323-4.5v.108a5.351,5.351,0,0,1-.5,2.353A3.813,3.813,0,0,1-15.261-.415a3.977,3.977,0,0,1-2.146.581A3.778,3.778,0,0,1-20.366-1.1,4.861,4.861,0,0,1-21.5-4.466Zm1.544.183a3.842,3.842,0,0,0,.693,2.4,2.218,2.218,0,0,0,1.855.9A2.2,2.2,0,0,0-15.547-2a4.2,4.2,0,0,0,.689-2.569,3.836,3.836,0,0,0-.7-2.395,2.23,2.23,0,0,0-1.864-.917,2.205,2.205,0,0,0-1.834.9A4.17,4.17,0,0,0-19.955-4.391Zm8.185-.174a5.261,5.261,0,0,1,.979-3.324A3.1,3.1,0,0,1-8.226-9.147a3.115,3.115,0,0,1,2.5,1.079V-12.75h1.536V0H-5.6l-.075-.963A3.127,3.127,0,0,1-8.243.166a3.068,3.068,0,0,1-2.544-1.278,5.321,5.321,0,0,1-.984-3.337Zm1.536.174A3.984,3.984,0,0,0-9.6-2a2.039,2.039,0,0,0,1.743.863A2.24,2.24,0,0,0-5.728-2.449V-6.574a2.257,2.257,0,0,0-2.117-1.27,2.049,2.049,0,0,0-1.76.872A4.386,4.386,0,0,0-10.235-4.391Zm13.97,3.5A3.262,3.262,0,0,1,1.1.166,2.792,2.792,0,0,1-1.083-.668a3.611,3.611,0,0,1-.76-2.469V-8.981H-.307v5.8q0,2.042,1.66,2.042A2.3,2.3,0,0,0,3.694-2.449V-8.981H5.229V0H3.769Zm7.429-.2a2.212,2.212,0,0,0,1.436-.5,1.752,1.752,0,0,0,.681-1.245h1.453A2.785,2.785,0,0,1,14.2-1.361,3.5,3.5,0,0,1,12.9-.249a3.772,3.772,0,0,1-1.731.415A3.7,3.7,0,0,1,8.247-1.058,4.877,4.877,0,0,1,7.164-4.408v-.257A5.407,5.407,0,0,1,7.645-7,3.667,3.667,0,0,1,9.027-8.583a3.926,3.926,0,0,1,2.129-.564,3.6,3.6,0,0,1,2.511.9,3.234,3.234,0,0,1,1.067,2.349H13.281a2.116,2.116,0,0,0-.66-1.432,2.053,2.053,0,0,0-1.465-.56,2.149,2.149,0,0,0-1.814.843A3.957,3.957,0,0,0,8.7-4.607v.291a3.878,3.878,0,0,0,.639,2.391A2.16,2.16,0,0,0,11.165-1.087Zm8.9,0a2.212,2.212,0,0,0,1.436-.5,1.752,1.752,0,0,0,.681-1.245h1.453A2.785,2.785,0,0,1,23.1-1.361,3.5,3.5,0,0,1,21.794-.249a3.772,3.772,0,0,1-1.731.415,3.7,3.7,0,0,1-2.918-1.224,4.877,4.877,0,0,1-1.083-3.349v-.257A5.407,5.407,0,0,1,16.543-7a3.667,3.667,0,0,1,1.382-1.585,3.926,3.926,0,0,1,2.129-.564,3.6,3.6,0,0,1,2.511.9,3.234,3.234,0,0,1,1.067,2.349H22.18a2.116,2.116,0,0,0-.66-1.432,2.053,2.053,0,0,0-1.465-.56,2.149,2.149,0,0,0-1.814.843A3.957,3.957,0,0,0,17.6-4.607v.291a3.878,3.878,0,0,0,.639,2.391A2.16,2.16,0,0,0,20.063-1.087ZM27.027,0H25.492V-8.981h1.536Zm-1.66-11.364a.917.917,0,0,1,.228-.631.857.857,0,0,1,.677-.257.87.87,0,0,1,.681.257.907.907,0,0,1,.232.631.877.877,0,0,1-.232.623.886.886,0,0,1-.681.249.872.872,0,0,1-.677-.249A.886.886,0,0,1,25.367-11.364Zm3.71,6.79A5.3,5.3,0,0,1,29.6-6.948a3.87,3.87,0,0,1,1.444-1.627,3.932,3.932,0,0,1,2.113-.573,3.788,3.788,0,0,1,2.968,1.27A4.886,4.886,0,0,1,37.254-4.5v.108a5.351,5.351,0,0,1-.5,2.353A3.813,3.813,0,0,1,35.316-.415,3.977,3.977,0,0,1,33.17.166,3.778,3.778,0,0,1,30.211-1.1a4.861,4.861,0,0,1-1.133-3.362Zm1.544.183a3.842,3.842,0,0,0,.693,2.4,2.218,2.218,0,0,0,1.855.9A2.2,2.2,0,0,0,35.029-2a4.2,4.2,0,0,0,.689-2.569,3.836,3.836,0,0,0-.7-2.395,2.23,2.23,0,0,0-1.864-.917,2.205,2.205,0,0,0-1.834.9A4.17,4.17,0,0,0,30.622-4.391Zm3.229-8.359H35.71l-2.225,2.44-1.237,0Zm6.782,3.769.05,1.129a3.273,3.273,0,0,1,2.689-1.295q2.847,0,2.872,3.212V0H44.708V-5.943a2.068,2.068,0,0,0-.444-1.436,1.78,1.78,0,0,0-1.357-.465,2.216,2.216,0,0,0-1.312.4,2.706,2.706,0,0,0-.88,1.046V0H39.18V-8.981ZM-37.461,20a3.226,3.226,0,0,1-.216-.946,3.426,3.426,0,0,1-2.557,1.112,3.17,3.17,0,0,1-2.179-.751,2.43,2.43,0,0,1-.851-1.905A2.539,2.539,0,0,1-42.2,15.331a5.029,5.029,0,0,1,3-.776H-37.7v-.706a1.725,1.725,0,0,0-.481-1.282,1.935,1.935,0,0,0-1.419-.477,2.239,2.239,0,0,0-1.378.415,1.223,1.223,0,0,0-.556,1h-1.544a2.119,2.119,0,0,1,.477-1.3,3.258,3.258,0,0,1,1.295-.992,4.356,4.356,0,0,1,1.8-.365,3.551,3.551,0,0,1,2.432.776,2.8,2.8,0,0,1,.913,2.137V17.9a5.054,5.054,0,0,0,.315,1.967V20Zm-2.548-1.17a2.7,2.7,0,0,0,1.37-.374,2.259,2.259,0,0,0,.938-.971V15.642h-1.2q-2.822,0-2.822,1.652a1.4,1.4,0,0,0,.481,1.129A1.85,1.85,0,0,0-40.01,18.83ZM-32.091,20h-1.536V7.25h1.536Zm12.21,0a3.226,3.226,0,0,1-.216-.946,3.426,3.426,0,0,1-2.557,1.112,3.17,3.17,0,0,1-2.179-.751,2.43,2.43,0,0,1-.851-1.905,2.539,2.539,0,0,1,1.067-2.179,5.029,5.029,0,0,1,3-.776h1.494v-.706a1.725,1.725,0,0,0-.481-1.282,1.935,1.935,0,0,0-1.419-.477A2.239,2.239,0,0,0-23.4,12.5a1.223,1.223,0,0,0-.556,1H-25.5a2.119,2.119,0,0,1,.477-1.3,3.258,3.258,0,0,1,1.295-.992,4.356,4.356,0,0,1,1.8-.365,3.551,3.551,0,0,1,2.432.776,2.8,2.8,0,0,1,.913,2.137V17.9a5.054,5.054,0,0,0,.315,1.967V20Zm-2.548-1.17a2.7,2.7,0,0,0,1.37-.374,2.259,2.259,0,0,0,.938-.971V15.642h-1.2q-2.822,0-2.822,1.652a1.4,1.4,0,0,0,.481,1.129A1.85,1.85,0,0,0-22.429,18.83Zm7.695-7.811.042,1a3.317,3.317,0,0,1,2.665-1.162A2.568,2.568,0,0,1-9.463,12.3,3.4,3.4,0,0,1-8.3,11.251a3.445,3.445,0,0,1,1.7-.4q2.955,0,3,3.129V20H-5.13V14.073a2.062,2.062,0,0,0-.44-1.44,1.937,1.937,0,0,0-1.478-.477,2.036,2.036,0,0,0-1.419.51,2.071,2.071,0,0,0-.656,1.374V20h-1.544V14.115a1.713,1.713,0,0,0-1.917-1.959,2.055,2.055,0,0,0-2.067,1.287V20h-1.536V11.019Zm21.059,4.59a5.34,5.34,0,0,1-.946,3.308,3.024,3.024,0,0,1-2.54,1.249,3.131,3.131,0,0,1-2.631-1.2L.133,20H-1.278V7.25H.257v4.756a3.113,3.113,0,0,1,2.565-1.154,3.042,3.042,0,0,1,2.569,1.237,5.5,5.5,0,0,1,.934,3.387ZM4.79,15.435a4.15,4.15,0,0,0-.606-2.424,2.006,2.006,0,0,0-1.743-.855A2.255,2.255,0,0,0,.257,13.567v3.885a2.318,2.318,0,0,0,2.2,1.411,2,2,0,0,0,1.718-.855A4.413,4.413,0,0,0,4.79,15.435ZM9.928,20H8.392V11.019H9.928ZM8.268,8.636A.917.917,0,0,1,8.5,8.005a.857.857,0,0,1,.677-.257.87.87,0,0,1,.681.257.907.907,0,0,1,.232.631.877.877,0,0,1-.232.623.886.886,0,0,1-.681.249A.872.872,0,0,1,8.5,9.259.886.886,0,0,1,8.268,8.636Zm7.844,11.53a3.924,3.924,0,0,1-2.972-1.2,4.452,4.452,0,0,1-1.146-3.208v-.282a5.39,5.39,0,0,1,.51-2.386,3.982,3.982,0,0,1,1.428-1.644,3.59,3.59,0,0,1,1.988-.594,3.364,3.364,0,0,1,2.723,1.154,5,5,0,0,1,.971,3.3v.639H13.53a3.193,3.193,0,0,0,.776,2.146,2.44,2.44,0,0,0,1.888.818,2.675,2.675,0,0,0,1.378-.332,3.462,3.462,0,0,0,.988-.88l.938.73A3.772,3.772,0,0,1,16.112,20.166Zm-.191-8.052a2.048,2.048,0,0,0-1.561.677,3.288,3.288,0,0,0-.78,1.9h4.5v-.116a2.925,2.925,0,0,0-.631-1.814A1.928,1.928,0,0,0,15.921,12.114Zm6.923-1.1.05,1.129a3.273,3.273,0,0,1,2.689-1.295q2.847,0,2.872,3.212V20H26.919V14.057a2.068,2.068,0,0,0-.444-1.436,1.78,1.78,0,0,0-1.357-.465,2.216,2.216,0,0,0-1.312.4,2.706,2.706,0,0,0-.88,1.046V20H21.391V11.019ZM32.854,8.844v2.175h1.677v1.187H32.854v5.577a1.247,1.247,0,0,0,.224.81.943.943,0,0,0,.764.27,3.718,3.718,0,0,0,.73-.1V20a4.478,4.478,0,0,1-1.179.165,1.912,1.912,0,0,1-1.552-.623,2.675,2.675,0,0,1-.523-1.768v-5.57H29.684V11.019h1.635V8.844Zm7.2,11.322a3.924,3.924,0,0,1-2.972-1.2,4.452,4.452,0,0,1-1.146-3.208v-.282a5.39,5.39,0,0,1,.51-2.386,3.982,3.982,0,0,1,1.428-1.644,3.59,3.59,0,0,1,1.988-.594,3.364,3.364,0,0,1,2.723,1.154,5,5,0,0,1,.971,3.3v.639H37.47a3.193,3.193,0,0,0,.776,2.146,2.44,2.44,0,0,0,1.888.818,2.675,2.675,0,0,0,1.378-.332,3.462,3.462,0,0,0,.988-.88l.938.73A3.772,3.772,0,0,1,40.051,20.166Zm-.191-8.052a2.048,2.048,0,0,0-1.561.677,3.288,3.288,0,0,0-.78,1.9h4.5v-.116a2.925,2.925,0,0,0-.631-1.814A1.928,1.928,0,0,0,39.86,12.114Z" transform="translate(563.208 1689.767)"/>
    <path id="Trazado_200354" data-name="Trazado 200354" d="M-24.877-4.889h-2.839V0h-1.6V-12.086h4a4.736,4.736,0,0,1,3.142.93,3.345,3.345,0,0,1,1.1,2.706,3.254,3.254,0,0,1-.61,1.967,3.642,3.642,0,0,1-1.7,1.253L-20.544-.1V0h-1.71Zm-2.839-1.3h2.449a2.762,2.762,0,0,0,1.888-.615,2.081,2.081,0,0,0,.7-1.647,2.191,2.191,0,0,0-.668-1.721,2.829,2.829,0,0,0-1.93-.607h-2.44ZM-15.356.166a3.924,3.924,0,0,1-2.972-1.2,4.452,4.452,0,0,1-1.146-3.208v-.282a5.39,5.39,0,0,1,.51-2.386,3.982,3.982,0,0,1,1.428-1.644,3.59,3.59,0,0,1,1.988-.594,3.364,3.364,0,0,1,2.723,1.154,5,5,0,0,1,.971,3.3v.639h-6.084a3.193,3.193,0,0,0,.776,2.146,2.44,2.44,0,0,0,1.888.818A2.675,2.675,0,0,0-13.9-1.419a3.462,3.462,0,0,0,.988-.88l.938.73A3.772,3.772,0,0,1-15.356.166Zm-.191-8.052a2.048,2.048,0,0,0-1.561.677,3.288,3.288,0,0,0-.78,1.9h4.5v-.116a2.925,2.925,0,0,0-.631-1.814A1.928,1.928,0,0,0-15.547-7.886Zm11.015,7A3.262,3.262,0,0,1-7.164.166,2.792,2.792,0,0,1-9.351-.668a3.611,3.611,0,0,1-.76-2.469V-8.981h1.536v5.8q0,2.042,1.66,2.042A2.3,2.3,0,0,0-4.574-2.449V-8.981h1.536V0H-4.5ZM.747-8.981.8-7.853A3.273,3.273,0,0,1,3.486-9.147q2.847,0,2.872,3.212V0H4.823V-5.943a2.068,2.068,0,0,0-.444-1.436,1.78,1.78,0,0,0-1.357-.465,2.216,2.216,0,0,0-1.312.4A2.706,2.706,0,0,0,.83-6.4V0H-.706V-8.981ZM10.343,0H8.807V-8.981h1.536ZM8.683-11.364a.917.917,0,0,1,.228-.631.857.857,0,0,1,.677-.257.87.87,0,0,1,.681.257.907.907,0,0,1,.232.631.877.877,0,0,1-.232.623.886.886,0,0,1-.681.249.872.872,0,0,1-.677-.249A.886.886,0,0,1,8.683-11.364Zm3.71,6.79a5.3,5.3,0,0,1,.519-2.374,3.87,3.87,0,0,1,1.444-1.627,3.932,3.932,0,0,1,2.113-.573,3.788,3.788,0,0,1,2.968,1.27A4.886,4.886,0,0,1,20.569-4.5v.108a5.351,5.351,0,0,1-.5,2.353A3.813,3.813,0,0,1,18.631-.415a3.977,3.977,0,0,1-2.146.581A3.778,3.778,0,0,1,13.526-1.1a4.861,4.861,0,0,1-1.133-3.362Zm1.544.183a3.842,3.842,0,0,0,.693,2.4,2.218,2.218,0,0,0,1.855.9A2.2,2.2,0,0,0,18.345-2a4.2,4.2,0,0,0,.689-2.569,3.836,3.836,0,0,0-.7-2.395,2.23,2.23,0,0,0-1.864-.917,2.205,2.205,0,0,0-1.834.9A4.17,4.17,0,0,0,13.937-4.391Zm3.229-8.359h1.859L16.8-10.31l-1.237,0Zm6.782,3.769L24-7.853a3.273,3.273,0,0,1,2.689-1.295q2.847,0,2.872,3.212V0H28.023V-5.943a2.068,2.068,0,0,0-.444-1.436,1.78,1.78,0,0,0-1.357-.465,2.216,2.216,0,0,0-1.312.4,2.706,2.706,0,0,0-.88,1.046V0H22.5V-8.981Zm-47.6,26.6a1.131,1.131,0,0,0-.469-.967,4.514,4.514,0,0,0-1.635-.594,7.731,7.731,0,0,1-1.851-.6,2.633,2.633,0,0,1-1.013-.83,1.986,1.986,0,0,1-.328-1.146,2.33,2.33,0,0,1,.934-1.868,3.647,3.647,0,0,1,2.386-.764,3.753,3.753,0,0,1,2.478.789,2.5,2.5,0,0,1,.95,2.017h-1.544a1.386,1.386,0,0,0-.535-1.087,2.006,2.006,0,0,0-1.349-.457,2.1,2.1,0,0,0-1.312.365,1.15,1.15,0,0,0-.473.955.932.932,0,0,0,.44.838,5.413,5.413,0,0,0,1.59.54,8.283,8.283,0,0,1,1.864.614,2.718,2.718,0,0,1,1.058.859,2.112,2.112,0,0,1,.344,1.224,2.3,2.3,0,0,1-.963,1.93,4.039,4.039,0,0,1-2.5.726,4.523,4.523,0,0,1-1.909-.382,3.105,3.105,0,0,1-1.3-1.067,2.571,2.571,0,0,1-.469-1.482h1.536a1.59,1.59,0,0,0,.618,1.224,2.4,2.4,0,0,0,1.523.452,2.476,2.476,0,0,0,1.4-.353A1.084,1.084,0,0,0-23.657,17.618Zm3.129-2.191a5.3,5.3,0,0,1,.519-2.374,3.87,3.87,0,0,1,1.444-1.627,3.932,3.932,0,0,1,2.113-.573,3.788,3.788,0,0,1,2.968,1.27A4.886,4.886,0,0,1-12.352,15.5v.108a5.351,5.351,0,0,1-.5,2.353,3.813,3.813,0,0,1-1.436,1.623,3.977,3.977,0,0,1-2.146.581,3.778,3.778,0,0,1-2.959-1.27,4.861,4.861,0,0,1-1.133-3.362Zm1.544.183a3.842,3.842,0,0,0,.693,2.4,2.218,2.218,0,0,0,1.855.9A2.2,2.2,0,0,0-14.576,18a4.2,4.2,0,0,0,.689-2.569,3.836,3.836,0,0,0-.7-2.395,2.23,2.23,0,0,0-1.864-.917,2.205,2.205,0,0,0-1.834.9A4.17,4.17,0,0,0-18.984,15.609Zm16.162,0a5.34,5.34,0,0,1-.946,3.308,3.024,3.024,0,0,1-2.54,1.249,3.131,3.131,0,0,1-2.631-1.2L-9.015,20h-1.411V7.25H-8.89v4.756a3.113,3.113,0,0,1,2.565-1.154,3.042,3.042,0,0,1,2.569,1.237,5.5,5.5,0,0,1,.934,3.387Zm-1.536-.174a4.15,4.15,0,0,0-.606-2.424,2.006,2.006,0,0,0-1.743-.855A2.255,2.255,0,0,0-8.89,13.567v3.885a2.318,2.318,0,0,0,2.2,1.411,2,2,0,0,0,1.718-.855A4.413,4.413,0,0,0-4.358,15.435ZM3.453,12.4a4.6,4.6,0,0,0-.755-.058,2.024,2.024,0,0,0-2.05,1.287V20H-.888V11.019H.606l.025,1.038a2.391,2.391,0,0,1,2.142-1.2,1.569,1.569,0,0,1,.681.116Zm5.138,7.77a3.924,3.924,0,0,1-2.972-1.2,4.452,4.452,0,0,1-1.146-3.208v-.282a5.39,5.39,0,0,1,.51-2.386,3.982,3.982,0,0,1,1.428-1.644A3.59,3.59,0,0,1,8.4,10.853a3.364,3.364,0,0,1,2.723,1.154,5,5,0,0,1,.971,3.3v.639H6.01a3.193,3.193,0,0,0,.776,2.146,2.44,2.44,0,0,0,1.888.818,2.675,2.675,0,0,0,1.378-.332,3.462,3.462,0,0,0,.988-.88l.938.73A3.772,3.772,0,0,1,8.591,20.166ZM8.4,12.114a2.048,2.048,0,0,0-1.561.677,3.288,3.288,0,0,0-.78,1.9h4.5v-.116a2.925,2.925,0,0,0-.631-1.814A1.928,1.928,0,0,0,8.4,12.114Zm13.406,8.052a3.924,3.924,0,0,1-2.972-1.2,4.452,4.452,0,0,1-1.146-3.208v-.282a5.39,5.39,0,0,1,.51-2.386,3.982,3.982,0,0,1,1.428-1.644,3.59,3.59,0,0,1,1.988-.594,3.364,3.364,0,0,1,2.723,1.154,5,5,0,0,1,.971,3.3v.639H19.225A3.193,3.193,0,0,0,20,18.095a2.44,2.44,0,0,0,1.888.818,2.675,2.675,0,0,0,1.378-.332,3.462,3.462,0,0,0,.988-.88l.938.73A3.772,3.772,0,0,1,21.806,20.166Zm-.191-8.052a2.048,2.048,0,0,0-1.561.677,3.288,3.288,0,0,0-.78,1.9h4.5v-.116a2.925,2.925,0,0,0-.631-1.814A1.928,1.928,0,0,0,21.615,12.114ZM28.754,20H27.218V7.25h1.536ZM-31.394,37.618a1.131,1.131,0,0,0-.469-.967,4.514,4.514,0,0,0-1.635-.594,7.731,7.731,0,0,1-1.851-.6,2.633,2.633,0,0,1-1.013-.83,1.986,1.986,0,0,1-.328-1.146,2.33,2.33,0,0,1,.934-1.868,3.647,3.647,0,0,1,2.386-.764,3.753,3.753,0,0,1,2.478.789,2.5,2.5,0,0,1,.95,2.017h-1.544a1.386,1.386,0,0,0-.535-1.087,2.006,2.006,0,0,0-1.349-.457,2.1,2.1,0,0,0-1.312.365,1.15,1.15,0,0,0-.473.955.932.932,0,0,0,.44.838,5.413,5.413,0,0,0,1.59.54,8.283,8.283,0,0,1,1.864.614,2.718,2.718,0,0,1,1.058.859,2.112,2.112,0,0,1,.344,1.224,2.3,2.3,0,0,1-.963,1.93,4.039,4.039,0,0,1-2.5.726,4.523,4.523,0,0,1-1.909-.382,3.105,3.105,0,0,1-1.3-1.067A2.571,2.571,0,0,1-37,37.236h1.536a1.59,1.59,0,0,0,.618,1.224,2.4,2.4,0,0,0,1.523.452,2.476,2.476,0,0,0,1.4-.353A1.084,1.084,0,0,0-31.394,37.618Zm5.2,2.382h-1.536V31.019h1.536Zm-1.66-11.364a.917.917,0,0,1,.228-.631.857.857,0,0,1,.677-.257.87.87,0,0,1,.681.257.907.907,0,0,1,.232.631.877.877,0,0,1-.232.623.886.886,0,0,1-.681.249.872.872,0,0,1-.677-.249A.886.886,0,0,1-27.849,28.636Zm5.562,2.382.042,1a3.317,3.317,0,0,1,2.665-1.162A2.568,2.568,0,0,1-17.017,32.3a3.4,3.4,0,0,1,1.166-1.046,3.445,3.445,0,0,1,1.7-.4q2.955,0,3,3.129V40h-1.536V34.073a2.062,2.062,0,0,0-.44-1.44,1.937,1.937,0,0,0-1.478-.477,2.036,2.036,0,0,0-1.419.51,2.071,2.071,0,0,0-.656,1.374V40H-18.22V34.115a1.713,1.713,0,0,0-1.917-1.959A2.055,2.055,0,0,0-22.2,33.442V40H-23.74V31.019Zm19,8.093a3.262,3.262,0,0,1-2.631,1.054,2.792,2.792,0,0,1-2.187-.834,3.611,3.611,0,0,1-.76-2.469V31.019H-7.33v5.8q0,2.042,1.66,2.042a2.3,2.3,0,0,0,2.341-1.312V31.019h1.536V40H-3.254Zm5.5.888H.672V27.25H2.208Zm8,0a3.226,3.226,0,0,1-.216-.946,3.426,3.426,0,0,1-2.557,1.112,3.17,3.17,0,0,1-2.179-.751,2.43,2.43,0,0,1-.851-1.905,2.539,2.539,0,0,1,1.067-2.179,5.029,5.029,0,0,1,3-.776H9.969v-.706a1.725,1.725,0,0,0-.481-1.282,1.935,1.935,0,0,0-1.419-.477A2.239,2.239,0,0,0,6.69,32.5a1.223,1.223,0,0,0-.556,1H4.59a2.119,2.119,0,0,1,.477-1.3,3.258,3.258,0,0,1,1.295-.992,4.356,4.356,0,0,1,1.8-.365,3.551,3.551,0,0,1,2.432.776,2.8,2.8,0,0,1,.913,2.137V37.9a5.054,5.054,0,0,0,.315,1.967V40ZM7.662,38.83a2.7,2.7,0,0,0,1.37-.374,2.259,2.259,0,0,0,.938-.971V35.642h-1.2q-2.822,0-2.822,1.652a1.4,1.4,0,0,0,.481,1.129A1.85,1.85,0,0,0,7.662,38.83Zm5.877-3.4a5.261,5.261,0,0,1,.979-3.324,3.1,3.1,0,0,1,2.565-1.258,3.115,3.115,0,0,1,2.5,1.079V27.25h1.536V40H19.706l-.075-.963a3.127,3.127,0,0,1-2.565,1.129,3.068,3.068,0,0,1-2.544-1.278,5.321,5.321,0,0,1-.984-3.337Zm1.536.174A3.984,3.984,0,0,0,15.705,38a2.039,2.039,0,0,0,1.743.863,2.24,2.24,0,0,0,2.133-1.312V33.426a2.257,2.257,0,0,0-2.117-1.27,2.049,2.049,0,0,0-1.76.872A4.386,4.386,0,0,0,15.074,35.609Zm8.019-.183a5.3,5.3,0,0,1,.519-2.374,3.87,3.87,0,0,1,1.444-1.627,3.932,3.932,0,0,1,2.113-.573,3.788,3.788,0,0,1,2.968,1.27A4.886,4.886,0,0,1,31.269,35.5v.108a5.351,5.351,0,0,1-.5,2.353,3.813,3.813,0,0,1-1.436,1.623,3.977,3.977,0,0,1-2.146.581,3.778,3.778,0,0,1-2.959-1.27,4.861,4.861,0,0,1-1.133-3.362Zm1.544.183a3.842,3.842,0,0,0,.693,2.4A2.349,2.349,0,0,0,29.044,38a4.2,4.2,0,0,0,.689-2.569,3.836,3.836,0,0,0-.7-2.395,2.23,2.23,0,0,0-1.864-.917,2.205,2.205,0,0,0-1.834.9A4.17,4.17,0,0,0,24.637,35.609Zm12.9-3.212a4.6,4.6,0,0,0-.755-.058,2.024,2.024,0,0,0-2.05,1.287V40H33.195V31.019h1.494l.025,1.038a2.391,2.391,0,0,1,2.142-1.2,1.569,1.569,0,0,1,.681.116Z" transform="translate(680.948 1685.793)"/>
    <path id="Trazado_200355" data-name="Trazado 200355" d="M-13.43-10.148h-3.656V0h-1.492V-10.148h-3.648v-1.227h8.8ZM-8.461.156a3.693,3.693,0,0,1-2.8-1.129,4.19,4.19,0,0,1-1.078-3.02v-.266a5.073,5.073,0,0,1,.48-2.246,3.748,3.748,0,0,1,1.344-1.547,3.378,3.378,0,0,1,1.871-.559A3.166,3.166,0,0,1-6.078-7.523a4.7,4.7,0,0,1,.914,3.109v.6h-5.727a3,3,0,0,0,.73,2.02,2.3,2.3,0,0,0,1.777.77,2.517,2.517,0,0,0,1.3-.312,3.259,3.259,0,0,0,.93-.828l.883.688A3.55,3.55,0,0,1-8.461.156Zm-.18-7.578a1.928,1.928,0,0,0-1.469.637A3.1,3.1,0,0,0-10.844-5h4.234v-.109A2.753,2.753,0,0,0-7.2-6.816,1.815,1.815,0,0,0-8.641-7.422ZM-3.875-4.3a4.993,4.993,0,0,1,.488-2.234A3.643,3.643,0,0,1-2.027-8.07,3.7,3.7,0,0,1-.039-8.609a3.565,3.565,0,0,1,2.793,1.2A4.6,4.6,0,0,1,3.82-4.234v.1a5.036,5.036,0,0,1-.473,2.215A3.589,3.589,0,0,1,2-.391,3.743,3.743,0,0,1-.023.156a3.556,3.556,0,0,1-2.785-1.2A4.575,4.575,0,0,1-3.875-4.2Zm1.453.172A3.616,3.616,0,0,0-1.77-1.875a2.088,2.088,0,0,0,1.746.852,2.075,2.075,0,0,0,1.75-.863A3.955,3.955,0,0,0,2.375-4.3a3.61,3.61,0,0,0-.66-2.254A2.1,2.1,0,0,0-.039-7.422a2.075,2.075,0,0,0-1.727.852A3.925,3.925,0,0,0-2.422-4.133ZM9.719-7.156a4.331,4.331,0,0,0-.711-.055A1.9,1.9,0,0,0,7.078-6V0H5.633V-8.453H7.039l.023.977A2.251,2.251,0,0,1,9.078-8.609a1.477,1.477,0,0,1,.641.109ZM12.617,0H11.164V-8.453h1.453Zm.016-11.992h1.75L12.289-9.7l-1.164,0ZM20.219,0a3.036,3.036,0,0,1-.2-.891A3.225,3.225,0,0,1,17.609.156a2.984,2.984,0,0,1-2.051-.707,2.287,2.287,0,0,1-.8-1.793,2.39,2.39,0,0,1,1-2.051,4.733,4.733,0,0,1,2.824-.73h1.406v-.664A1.623,1.623,0,0,0,19.539-7,1.821,1.821,0,0,0,18.2-7.445a2.108,2.108,0,0,0-1.3.391,1.151,1.151,0,0,0-.523.945H14.93a2,2,0,0,1,.449-1.223A3.066,3.066,0,0,1,16.6-8.266a4.1,4.1,0,0,1,1.691-.344,3.342,3.342,0,0,1,2.289.73,2.635,2.635,0,0,1,.859,2.012v3.891a4.757,4.757,0,0,0,.3,1.852V0Zm-2.4-1.1a2.54,2.54,0,0,0,1.289-.352,2.127,2.127,0,0,0,.883-.914V-4.1H18.859Q16.2-4.1,16.2-2.547a1.316,1.316,0,0,0,.453,1.063A1.742,1.742,0,0,0,17.82-1.1Z" transform="translate(756.965 1684.793)"/>
    <path id="Trazado_200356" data-name="Trazado 200356" d="M-24.877-4.889h-2.839V0h-1.6V-12.086h4a4.736,4.736,0,0,1,3.142.93,3.345,3.345,0,0,1,1.1,2.706,3.254,3.254,0,0,1-.61,1.967,3.642,3.642,0,0,1-1.7,1.253L-20.544-.1V0h-1.71Zm-2.839-1.3h2.449a2.762,2.762,0,0,0,1.888-.615,2.081,2.081,0,0,0,.7-1.647,2.191,2.191,0,0,0-.668-1.721,2.829,2.829,0,0,0-1.93-.607h-2.44ZM-15.356.166a3.924,3.924,0,0,1-2.972-1.2,4.452,4.452,0,0,1-1.146-3.208v-.282a5.39,5.39,0,0,1,.51-2.386,3.982,3.982,0,0,1,1.428-1.644,3.59,3.59,0,0,1,1.988-.594,3.364,3.364,0,0,1,2.723,1.154,5,5,0,0,1,.971,3.3v.639h-6.084a3.193,3.193,0,0,0,.776,2.146,2.44,2.44,0,0,0,1.888.818A2.675,2.675,0,0,0-13.9-1.419a3.462,3.462,0,0,0,.988-.88l.938.73A3.772,3.772,0,0,1-15.356.166Zm-.191-8.052a2.048,2.048,0,0,0-1.561.677,3.288,3.288,0,0,0-.78,1.9h4.5v-.116a2.925,2.925,0,0,0-.631-1.814A1.928,1.928,0,0,0-15.547-7.886Zm11.015,7A3.262,3.262,0,0,1-7.164.166,2.792,2.792,0,0,1-9.351-.668a3.611,3.611,0,0,1-.76-2.469V-8.981h1.536v5.8q0,2.042,1.66,2.042A2.3,2.3,0,0,0-4.574-2.449V-8.981h1.536V0H-4.5ZM.747-8.981.8-7.853A3.273,3.273,0,0,1,3.486-9.147q2.847,0,2.872,3.212V0H4.823V-5.943a2.068,2.068,0,0,0-.444-1.436,1.78,1.78,0,0,0-1.357-.465,2.216,2.216,0,0,0-1.312.4A2.706,2.706,0,0,0,.83-6.4V0H-.706V-8.981ZM10.343,0H8.807V-8.981h1.536ZM8.683-11.364a.917.917,0,0,1,.228-.631.857.857,0,0,1,.677-.257.87.87,0,0,1,.681.257.907.907,0,0,1,.232.631.877.877,0,0,1-.232.623.886.886,0,0,1-.681.249.872.872,0,0,1-.677-.249A.886.886,0,0,1,8.683-11.364Zm3.71,6.79a5.3,5.3,0,0,1,.519-2.374,3.87,3.87,0,0,1,1.444-1.627,3.932,3.932,0,0,1,2.113-.573,3.788,3.788,0,0,1,2.968,1.27A4.886,4.886,0,0,1,20.569-4.5v.108a5.351,5.351,0,0,1-.5,2.353A3.813,3.813,0,0,1,18.631-.415a3.977,3.977,0,0,1-2.146.581A3.778,3.778,0,0,1,13.526-1.1a4.861,4.861,0,0,1-1.133-3.362Zm1.544.183a3.842,3.842,0,0,0,.693,2.4,2.218,2.218,0,0,0,1.855.9A2.2,2.2,0,0,0,18.345-2a4.2,4.2,0,0,0,.689-2.569,3.836,3.836,0,0,0-.7-2.395,2.23,2.23,0,0,0-1.864-.917,2.205,2.205,0,0,0-1.834.9A4.17,4.17,0,0,0,13.937-4.391Zm3.229-8.359h1.859L16.8-10.31l-1.237,0Zm6.782,3.769L24-7.853a3.273,3.273,0,0,1,2.689-1.295q2.847,0,2.872,3.212V0H28.023V-5.943a2.068,2.068,0,0,0-.444-1.436,1.78,1.78,0,0,0-1.357-.465,2.216,2.216,0,0,0-1.312.4,2.706,2.706,0,0,0-.88,1.046V0H22.5V-8.981Zm-47.6,26.6a1.131,1.131,0,0,0-.469-.967,4.514,4.514,0,0,0-1.635-.594,7.731,7.731,0,0,1-1.851-.6,2.633,2.633,0,0,1-1.013-.83,1.986,1.986,0,0,1-.328-1.146,2.33,2.33,0,0,1,.934-1.868,3.647,3.647,0,0,1,2.386-.764,3.753,3.753,0,0,1,2.478.789,2.5,2.5,0,0,1,.95,2.017h-1.544a1.386,1.386,0,0,0-.535-1.087,2.006,2.006,0,0,0-1.349-.457,2.1,2.1,0,0,0-1.312.365,1.15,1.15,0,0,0-.473.955.932.932,0,0,0,.44.838,5.413,5.413,0,0,0,1.59.54,8.283,8.283,0,0,1,1.864.614,2.718,2.718,0,0,1,1.058.859,2.112,2.112,0,0,1,.344,1.224,2.3,2.3,0,0,1-.963,1.93,4.039,4.039,0,0,1-2.5.726,4.523,4.523,0,0,1-1.909-.382,3.105,3.105,0,0,1-1.3-1.067,2.571,2.571,0,0,1-.469-1.482h1.536a1.59,1.59,0,0,0,.618,1.224,2.4,2.4,0,0,0,1.523.452,2.476,2.476,0,0,0,1.4-.353A1.084,1.084,0,0,0-23.657,17.618Zm3.129-2.191a5.3,5.3,0,0,1,.519-2.374,3.87,3.87,0,0,1,1.444-1.627,3.932,3.932,0,0,1,2.113-.573,3.788,3.788,0,0,1,2.968,1.27A4.886,4.886,0,0,1-12.352,15.5v.108a5.351,5.351,0,0,1-.5,2.353,3.813,3.813,0,0,1-1.436,1.623,3.977,3.977,0,0,1-2.146.581,3.778,3.778,0,0,1-2.959-1.27,4.861,4.861,0,0,1-1.133-3.362Zm1.544.183a3.842,3.842,0,0,0,.693,2.4,2.218,2.218,0,0,0,1.855.9A2.2,2.2,0,0,0-14.576,18a4.2,4.2,0,0,0,.689-2.569,3.836,3.836,0,0,0-.7-2.395,2.23,2.23,0,0,0-1.864-.917,2.205,2.205,0,0,0-1.834.9A4.17,4.17,0,0,0-18.984,15.609Zm16.162,0a5.34,5.34,0,0,1-.946,3.308,3.024,3.024,0,0,1-2.54,1.249,3.131,3.131,0,0,1-2.631-1.2L-9.015,20h-1.411V7.25H-8.89v4.756a3.113,3.113,0,0,1,2.565-1.154,3.042,3.042,0,0,1,2.569,1.237,5.5,5.5,0,0,1,.934,3.387Zm-1.536-.174a4.15,4.15,0,0,0-.606-2.424,2.006,2.006,0,0,0-1.743-.855A2.255,2.255,0,0,0-8.89,13.567v3.885a2.318,2.318,0,0,0,2.2,1.411,2,2,0,0,0,1.718-.855A4.413,4.413,0,0,0-4.358,15.435ZM3.453,12.4a4.6,4.6,0,0,0-.755-.058,2.024,2.024,0,0,0-2.05,1.287V20H-.888V11.019H.606l.025,1.038a2.391,2.391,0,0,1,2.142-1.2,1.569,1.569,0,0,1,.681.116Zm5.138,7.77a3.924,3.924,0,0,1-2.972-1.2,4.452,4.452,0,0,1-1.146-3.208v-.282a5.39,5.39,0,0,1,.51-2.386,3.982,3.982,0,0,1,1.428-1.644A3.59,3.59,0,0,1,8.4,10.853a3.364,3.364,0,0,1,2.723,1.154,5,5,0,0,1,.971,3.3v.639H6.01a3.193,3.193,0,0,0,.776,2.146,2.44,2.44,0,0,0,1.888.818,2.675,2.675,0,0,0,1.378-.332,3.462,3.462,0,0,0,.988-.88l.938.73A3.772,3.772,0,0,1,8.591,20.166ZM8.4,12.114a2.048,2.048,0,0,0-1.561.677,3.288,3.288,0,0,0-.78,1.9h4.5v-.116a2.925,2.925,0,0,0-.631-1.814A1.928,1.928,0,0,0,8.4,12.114Zm13.406,8.052a3.924,3.924,0,0,1-2.972-1.2,4.452,4.452,0,0,1-1.146-3.208v-.282a5.39,5.39,0,0,1,.51-2.386,3.982,3.982,0,0,1,1.428-1.644,3.59,3.59,0,0,1,1.988-.594,3.364,3.364,0,0,1,2.723,1.154,5,5,0,0,1,.971,3.3v.639H19.225A3.193,3.193,0,0,0,20,18.095a2.44,2.44,0,0,0,1.888.818,2.675,2.675,0,0,0,1.378-.332,3.462,3.462,0,0,0,.988-.88l.938.73A3.772,3.772,0,0,1,21.806,20.166Zm-.191-8.052a2.048,2.048,0,0,0-1.561.677,3.288,3.288,0,0,0-.78,1.9h4.5v-.116a2.925,2.925,0,0,0-.631-1.814A1.928,1.928,0,0,0,21.615,12.114ZM28.754,20H27.218V7.25h1.536ZM-13.539,38.913a2.212,2.212,0,0,0,1.436-.5,1.752,1.752,0,0,0,.681-1.245h1.453a2.785,2.785,0,0,1-.531,1.469,3.5,3.5,0,0,1-1.307,1.112,3.772,3.772,0,0,1-1.731.415,3.7,3.7,0,0,1-2.918-1.224,4.877,4.877,0,0,1-1.083-3.349v-.257A5.407,5.407,0,0,1-17.058,33a3.667,3.667,0,0,1,1.382-1.585,3.926,3.926,0,0,1,2.129-.564,3.6,3.6,0,0,1,2.511.9,3.234,3.234,0,0,1,1.067,2.349h-1.453a2.116,2.116,0,0,0-.66-1.432,2.053,2.053,0,0,0-1.465-.56,2.149,2.149,0,0,0-1.814.843A3.957,3.957,0,0,0-16,35.393v.291a3.878,3.878,0,0,0,.639,2.391A2.16,2.16,0,0,0-13.539,38.913ZM-2.7,40a3.226,3.226,0,0,1-.216-.946A3.426,3.426,0,0,1-5.47,40.166a3.17,3.17,0,0,1-2.179-.751A2.43,2.43,0,0,1-8.5,37.51a2.539,2.539,0,0,1,1.067-2.179,5.029,5.029,0,0,1,3-.776h1.494v-.706a1.725,1.725,0,0,0-.481-1.282,1.935,1.935,0,0,0-1.419-.477,2.239,2.239,0,0,0-1.378.415,1.223,1.223,0,0,0-.556,1H-8.317a2.119,2.119,0,0,1,.477-1.3,3.258,3.258,0,0,1,1.295-.992,4.356,4.356,0,0,1,1.8-.365,3.551,3.551,0,0,1,2.432.776A2.8,2.8,0,0,1-1.4,33.766V37.9a5.054,5.054,0,0,0,.315,1.967V40Zm-2.548-1.17a2.7,2.7,0,0,0,1.37-.374,2.259,2.259,0,0,0,.938-.971V35.642h-1.2q-2.822,0-2.822,1.652a1.4,1.4,0,0,0,.481,1.129A1.85,1.85,0,0,0-5.246,38.83Zm11.48-1.212a1.131,1.131,0,0,0-.469-.967,4.514,4.514,0,0,0-1.635-.594,7.731,7.731,0,0,1-1.851-.6,2.633,2.633,0,0,1-1.013-.83,1.986,1.986,0,0,1-.328-1.146,2.33,2.33,0,0,1,.934-1.868,3.647,3.647,0,0,1,2.386-.764,3.753,3.753,0,0,1,2.478.789,2.5,2.5,0,0,1,.95,2.017H6.143a1.386,1.386,0,0,0-.535-1.087,2.006,2.006,0,0,0-1.349-.457,2.1,2.1,0,0,0-1.312.365,1.15,1.15,0,0,0-.473.955.932.932,0,0,0,.44.838,5.413,5.413,0,0,0,1.59.54,8.283,8.283,0,0,1,1.864.614,2.718,2.718,0,0,1,1.058.859A2.112,2.112,0,0,1,7.77,37.51a2.3,2.3,0,0,1-.963,1.93,4.039,4.039,0,0,1-2.5.726A4.523,4.523,0,0,1,2.4,39.784a3.105,3.105,0,0,1-1.3-1.067,2.571,2.571,0,0,1-.469-1.482H2.167a1.59,1.59,0,0,0,.618,1.224,2.4,2.4,0,0,0,1.523.452,2.476,2.476,0,0,0,1.4-.353A1.084,1.084,0,0,0,6.234,37.618Zm3.129-2.191a5.3,5.3,0,0,1,.519-2.374,3.87,3.87,0,0,1,1.444-1.627,3.932,3.932,0,0,1,2.113-.573,3.788,3.788,0,0,1,2.968,1.27A4.886,4.886,0,0,1,17.54,35.5v.108a5.351,5.351,0,0,1-.5,2.353A3.813,3.813,0,0,1,15.6,39.585a3.977,3.977,0,0,1-2.146.581A3.778,3.778,0,0,1,10.5,38.9a4.861,4.861,0,0,1-1.133-3.362Zm1.544.183a3.842,3.842,0,0,0,.693,2.4,2.218,2.218,0,0,0,1.855.9A2.2,2.2,0,0,0,15.315,38,4.2,4.2,0,0,0,16,35.426a3.836,3.836,0,0,0-.7-2.395,2.23,2.23,0,0,0-1.864-.917,2.205,2.205,0,0,0-1.834.9A4.17,4.17,0,0,0,10.907,35.609Z" transform="translate(829.107 1685.793)"/>
    <path id="Trazado_200357" data-name="Trazado 200357" d="M-27.324-5.258h-4.93v4.031h5.727V0h-7.227V-11.375h7.148v1.227h-5.648v3.664h4.93Zm7.359,3.016a1.064,1.064,0,0,0-.441-.91,4.249,4.249,0,0,0-1.539-.559,7.277,7.277,0,0,1-1.742-.562,2.479,2.479,0,0,1-.953-.781,1.869,1.869,0,0,1-.309-1.078,2.193,2.193,0,0,1,.879-1.758,3.432,3.432,0,0,1,2.246-.719,3.532,3.532,0,0,1,2.332.742,2.357,2.357,0,0,1,.895,1.9h-1.453a1.3,1.3,0,0,0-.5-1.023,1.888,1.888,0,0,0-1.27-.43,1.976,1.976,0,0,0-1.234.344,1.082,1.082,0,0,0-.445.9.877.877,0,0,0,.414.789,5.1,5.1,0,0,0,1.5.508A7.8,7.8,0,0,1-19.84-4.3a2.558,2.558,0,0,1,1,.809,1.988,1.988,0,0,1,.324,1.152,2.163,2.163,0,0,1-.906,1.816,3.8,3.8,0,0,1-2.352.684,4.257,4.257,0,0,1-1.8-.359,2.922,2.922,0,0,1-1.223-1A2.42,2.42,0,0,1-25.238-2.6h1.445a1.5,1.5,0,0,0,.582,1.152,2.258,2.258,0,0,0,1.434.426,2.331,2.331,0,0,0,1.316-.332A1.02,1.02,0,0,0-19.965-2.242Zm6.719,1.219a2.082,2.082,0,0,0,1.352-.469,1.649,1.649,0,0,0,.641-1.172h1.367a2.621,2.621,0,0,1-.5,1.383,3.293,3.293,0,0,1-1.23,1.047,3.55,3.55,0,0,1-1.629.391A3.482,3.482,0,0,1-15.992-1a4.59,4.59,0,0,1-1.02-3.152v-.242a5.089,5.089,0,0,1,.453-2.2,3.451,3.451,0,0,1,1.3-1.492,3.7,3.7,0,0,1,2-.531,3.39,3.39,0,0,1,2.363.852,3.043,3.043,0,0,1,1,2.211h-1.367a1.992,1.992,0,0,0-.621-1.348,1.932,1.932,0,0,0-1.379-.527,2.023,2.023,0,0,0-1.707.793,3.724,3.724,0,0,0-.605,2.293v.273a3.65,3.65,0,0,0,.6,2.25A2.033,2.033,0,0,0-13.246-1.023ZM-4.754.156a3.693,3.693,0,0,1-2.8-1.129,4.19,4.19,0,0,1-1.078-3.02v-.266A5.073,5.073,0,0,1-8.148-6.5,3.748,3.748,0,0,1-6.8-8.051a3.378,3.378,0,0,1,1.871-.559A3.166,3.166,0,0,1-2.371-7.523a4.7,4.7,0,0,1,.914,3.109v.6H-7.184a3,3,0,0,0,.73,2.02,2.3,2.3,0,0,0,1.777.77,2.517,2.517,0,0,0,1.3-.312,3.259,3.259,0,0,0,.93-.828l.883.688A3.55,3.55,0,0,1-4.754.156Zm-.18-7.578A1.928,1.928,0,0,0-6.4-6.785,3.1,3.1,0,0,0-7.137-5H-2.9v-.109A2.753,2.753,0,0,0-3.5-6.816,1.815,1.815,0,0,0-4.934-7.422ZM1.582-8.453l.047,1.063A3.08,3.08,0,0,1,4.16-8.609q2.68,0,2.7,3.023V0H5.418V-5.594A1.946,1.946,0,0,0,5-6.945a1.675,1.675,0,0,0-1.277-.437,2.086,2.086,0,0,0-1.234.375,2.546,2.546,0,0,0-.828.984V0H.215V-8.453ZM14.262,0a3.036,3.036,0,0,1-.2-.891A3.225,3.225,0,0,1,11.652.156,2.984,2.984,0,0,1,9.6-.551a2.287,2.287,0,0,1-.8-1.793,2.39,2.39,0,0,1,1-2.051,4.733,4.733,0,0,1,2.824-.73h1.406v-.664A1.623,1.623,0,0,0,13.582-7a1.821,1.821,0,0,0-1.336-.449,2.107,2.107,0,0,0-1.3.391,1.151,1.151,0,0,0-.523.945H8.973a2,2,0,0,1,.449-1.223,3.066,3.066,0,0,1,1.219-.934,4.1,4.1,0,0,1,1.691-.344,3.342,3.342,0,0,1,2.289.73,2.635,2.635,0,0,1,.859,2.012v3.891a4.757,4.757,0,0,0,.3,1.852V0Zm-2.4-1.1a2.54,2.54,0,0,0,1.289-.352,2.127,2.127,0,0,0,.883-.914V-4.1H12.9q-2.656,0-2.656,1.555A1.316,1.316,0,0,0,10.7-1.484,1.742,1.742,0,0,0,11.863-1.1Zm9.969-6.055a4.331,4.331,0,0,0-.711-.055A1.9,1.9,0,0,0,19.191-6V0H17.746V-8.453h1.406l.023.977a2.251,2.251,0,0,1,2.016-1.133,1.477,1.477,0,0,1,.641.109ZM24.73,0H23.285V-8.453H24.73ZM23.168-10.7a.863.863,0,0,1,.215-.594.807.807,0,0,1,.637-.242.819.819,0,0,1,.641.242.854.854,0,0,1,.219.594.826.826,0,0,1-.219.586.834.834,0,0,1-.641.234.821.821,0,0,1-.637-.234A.834.834,0,0,1,23.168-10.7ZM26.66-4.3a4.993,4.993,0,0,1,.488-2.234A3.643,3.643,0,0,1,28.508-8.07,3.7,3.7,0,0,1,30.5-8.609a3.565,3.565,0,0,1,2.793,1.2,4.6,4.6,0,0,1,1.066,3.18v.1a5.036,5.036,0,0,1-.473,2.215A3.589,3.589,0,0,1,32.531-.391a3.743,3.743,0,0,1-2.02.547,3.556,3.556,0,0,1-2.785-1.2A4.575,4.575,0,0,1,26.66-4.2Zm1.453.172a3.616,3.616,0,0,0,.652,2.258,2.088,2.088,0,0,0,1.746.852,2.075,2.075,0,0,0,1.75-.863A3.955,3.955,0,0,0,32.91-4.3a3.61,3.61,0,0,0-.66-2.254A2.1,2.1,0,0,0,30.5-7.422a2.075,2.075,0,0,0-1.727.852A3.925,3.925,0,0,0,28.113-4.133Z" transform="translate(908.084 1684.793)"/>
    <path id="Trazado_200358" data-name="Trazado 200358" d="M-34.871,0V-11.375h3.211a5.169,5.169,0,0,1,2.625.656,4.438,4.438,0,0,1,1.762,1.867,6.078,6.078,0,0,1,.629,2.781v.727a6.1,6.1,0,0,1-.621,2.82A4.369,4.369,0,0,1-29.039-.664,5.5,5.5,0,0,1-31.723,0Zm1.5-10.148v8.922h1.578a3.434,3.434,0,0,0,2.7-1.079,4.458,4.458,0,0,0,.965-3.073v-.665a4.529,4.529,0,0,0-.91-3.014,3.239,3.239,0,0,0-2.582-1.091ZM-21.1.156a3.693,3.693,0,0,1-2.8-1.129,4.19,4.19,0,0,1-1.078-3.02v-.266a5.073,5.073,0,0,1,.48-2.246,3.748,3.748,0,0,1,1.344-1.547,3.378,3.378,0,0,1,1.871-.559,3.166,3.166,0,0,1,2.563,1.086A4.7,4.7,0,0,1-17.8-4.414v.6h-5.727a3,3,0,0,0,.73,2.02,2.3,2.3,0,0,0,1.777.77,2.517,2.517,0,0,0,1.3-.312,3.259,3.259,0,0,0,.93-.828l.883.688A3.55,3.55,0,0,1-21.1.156Zm-.18-7.578a1.928,1.928,0,0,0-1.469.637A3.1,3.1,0,0,0-23.48-5h4.234v-.109a2.753,2.753,0,0,0-.594-1.707A1.815,1.815,0,0,0-21.277-7.422Zm12.3,3.289A5.026,5.026,0,0,1-9.863-1.02,2.846,2.846,0,0,1-12.254.156,2.947,2.947,0,0,1-14.73-.977L-14.8,0h-1.328V-12h1.445v4.477A2.93,2.93,0,0,1-12.27-8.609,2.863,2.863,0,0,1-9.852-7.445a5.177,5.177,0,0,1,.879,3.188ZM-10.418-4.3a3.906,3.906,0,0,0-.57-2.281,1.888,1.888,0,0,0-1.641-.8,2.122,2.122,0,0,0-2.055,1.328V-2.4a2.181,2.181,0,0,0,2.07,1.328A1.878,1.878,0,0,0-11-1.875,4.153,4.153,0,0,0-10.418-4.3Zm7.352-2.859a4.331,4.331,0,0,0-.711-.055A1.9,1.9,0,0,0-5.707-6V0H-7.152V-8.453h1.406l.023.977A2.251,2.251,0,0,1-3.707-8.609a1.477,1.477,0,0,1,.641.109ZM-.168,0H-1.613V-8.453H-.168ZM-1.73-10.7a.863.863,0,0,1,.215-.594.807.807,0,0,1,.637-.242.819.819,0,0,1,.641.242A.854.854,0,0,1-.02-10.7a.826.826,0,0,1-.219.586.834.834,0,0,1-.641.234.821.821,0,0,1-.637-.234A.834.834,0,0,1-1.73-10.7ZM5.652.156a3.693,3.693,0,0,1-2.8-1.129,4.19,4.19,0,0,1-1.078-3.02v-.266A5.073,5.073,0,0,1,2.258-6.5,3.748,3.748,0,0,1,3.6-8.051a3.378,3.378,0,0,1,1.871-.559A3.166,3.166,0,0,1,8.035-7.523a4.7,4.7,0,0,1,.914,3.109v.6H3.223a3,3,0,0,0,.73,2.02,2.3,2.3,0,0,0,1.777.77,2.517,2.517,0,0,0,1.3-.312,3.259,3.259,0,0,0,.93-.828l.883.688A3.55,3.55,0,0,1,5.652.156Zm-.18-7.578A1.928,1.928,0,0,0,4-6.785,3.1,3.1,0,0,0,3.27-5H7.5v-.109A2.753,2.753,0,0,0,6.91-6.816,1.815,1.815,0,0,0,5.473-7.422ZM11.105,0V-7.336H9.77V-8.453h1.336v-.719a2.937,2.937,0,0,1,.809-2.2,3.136,3.136,0,0,1,2.285-.789,6.881,6.881,0,0,1,2.211.477l-.242,1.219a5.008,5.008,0,0,0-1.859-.391,1.819,1.819,0,0,0-1.34.418,1.723,1.723,0,0,0-.41,1.254v.734h1.727v1.117H12.559V0Zm6.023,0H15.676V-8.453h1.453Zm3.719-8.453.047,1.063a3.08,3.08,0,0,1,2.531-1.219q2.68,0,2.7,3.023V0H24.684V-5.594a1.946,1.946,0,0,0-.418-1.352,1.675,1.675,0,0,0-1.277-.437,2.086,2.086,0,0,0-1.234.375,2.546,2.546,0,0,0-.828.984V0H19.48V-8.453ZM27.965-4.3a4.968,4.968,0,0,1,.914-3.145A2.923,2.923,0,0,1,31.3-8.609a2.908,2.908,0,0,1,2.414,1.094l.07-.937h1.32V-.2a3.439,3.439,0,0,1-.973,2.586,3.589,3.589,0,0,1-2.613.945,4.348,4.348,0,0,1-1.789-.391,3.08,3.08,0,0,1-1.336-1.07L29.145,1a2.826,2.826,0,0,0,2.273,1.148,2.214,2.214,0,0,0,1.645-.594,2.269,2.269,0,0,0,.59-1.672V-.844a2.971,2.971,0,0,1-2.367,1,2.887,2.887,0,0,1-2.4-1.2A5.224,5.224,0,0,1,27.965-4.3Zm1.453.164A3.79,3.79,0,0,0,30-1.887a1.9,1.9,0,0,0,1.641.816,2.117,2.117,0,0,0,2.008-1.242V-6.172A2.142,2.142,0,0,0,31.66-7.383a1.921,1.921,0,0,0-1.648.82A4.128,4.128,0,0,0,29.418-4.133Z" transform="translate(1001.656 1684.793)"/>
    <path id="Trazado_200359" data-name="Trazado 200359" d="M-34.84-5.023h-4.773V0h-1.5V-11.375h7.047v1.227h-5.547v3.9h4.773ZM-30.926,0h-1.445V-8.453h1.445Zm-1.562-10.7a.863.863,0,0,1,.215-.594.807.807,0,0,1,.637-.242.819.819,0,0,1,.641.242.854.854,0,0,1,.219.594.826.826,0,0,1-.219.586.834.834,0,0,1-.641.234.821.821,0,0,1-.637-.234A.834.834,0,0,1-32.488-10.7Zm5.242,2.242.047,1.063a3.08,3.08,0,0,1,2.531-1.219q2.68,0,2.7,3.023V0H-23.41V-5.594a1.946,1.946,0,0,0-.418-1.352,1.675,1.675,0,0,0-1.277-.437,2.086,2.086,0,0,0-1.234.375,2.546,2.546,0,0,0-.828.984V0h-1.445V-8.453ZM-14.566,0a3.036,3.036,0,0,1-.2-.891A3.225,3.225,0,0,1-17.176.156a2.984,2.984,0,0,1-2.051-.707,2.287,2.287,0,0,1-.8-1.793,2.39,2.39,0,0,1,1-2.051,4.733,4.733,0,0,1,2.824-.73h1.406v-.664A1.623,1.623,0,0,0-15.246-7a1.821,1.821,0,0,0-1.336-.449,2.108,2.108,0,0,0-1.3.391,1.151,1.151,0,0,0-.523.945h-1.453a2,2,0,0,1,.449-1.223,3.066,3.066,0,0,1,1.219-.934A4.1,4.1,0,0,1-16.5-8.609a3.342,3.342,0,0,1,2.289.73,2.635,2.635,0,0,1,.859,2.012v3.891a4.757,4.757,0,0,0,.3,1.852V0Zm-2.4-1.1a2.54,2.54,0,0,0,1.289-.352,2.127,2.127,0,0,0,.883-.914V-4.1h-1.133q-2.656,0-2.656,1.555a1.316,1.316,0,0,0,.453,1.063A1.742,1.742,0,0,0-16.965-1.1ZM-9.512,0h-1.445V-12h1.445Zm3.883,0H-7.074V-8.453h1.445ZM-7.191-10.7a.863.863,0,0,1,.215-.594.807.807,0,0,1,.637-.242.819.819,0,0,1,.641.242.854.854,0,0,1,.219.594.826.826,0,0,1-.219.586.834.834,0,0,1-.641.234.821.821,0,0,1-.637-.234A.834.834,0,0,1-7.191-10.7ZM-1.957-1.18H2.988V0H-3.723V-1.062l4.664-6.2H-3.652v-1.2H2.754V-7.43ZM9.832,0a3.036,3.036,0,0,1-.2-.891A3.225,3.225,0,0,1,7.223.156,2.984,2.984,0,0,1,5.172-.551a2.287,2.287,0,0,1-.8-1.793,2.39,2.39,0,0,1,1-2.051A4.733,4.733,0,0,1,8.2-5.125H9.605v-.664A1.623,1.623,0,0,0,9.152-7a1.821,1.821,0,0,0-1.336-.449,2.107,2.107,0,0,0-1.3.391A1.151,1.151,0,0,0,6-6.109H4.543a2,2,0,0,1,.449-1.223,3.066,3.066,0,0,1,1.219-.934A4.1,4.1,0,0,1,7.9-8.609a3.342,3.342,0,0,1,2.289.73,2.635,2.635,0,0,1,.859,2.012v3.891a4.757,4.757,0,0,0,.3,1.852V0Zm-2.4-1.1a2.54,2.54,0,0,0,1.289-.352,2.127,2.127,0,0,0,.883-.914V-4.1H8.473q-2.656,0-2.656,1.555A1.316,1.316,0,0,0,6.27-1.484,1.742,1.742,0,0,0,7.434-1.1Zm9.273.078a2.082,2.082,0,0,0,1.352-.469A1.649,1.649,0,0,0,18.7-2.664h1.367a2.621,2.621,0,0,1-.5,1.383,3.293,3.293,0,0,1-1.23,1.047,3.55,3.55,0,0,1-1.629.391A3.482,3.482,0,0,1,13.961-1a4.59,4.59,0,0,1-1.02-3.152v-.242a5.089,5.089,0,0,1,.453-2.2,3.451,3.451,0,0,1,1.3-1.492,3.7,3.7,0,0,1,2-.531,3.39,3.39,0,0,1,2.363.852,3.043,3.043,0,0,1,1,2.211H18.7a1.992,1.992,0,0,0-.621-1.348A1.932,1.932,0,0,0,16.7-7.422a2.023,2.023,0,0,0-1.707.793,3.724,3.724,0,0,0-.605,2.293v.273a3.65,3.65,0,0,0,.6,2.25A2.033,2.033,0,0,0,16.707-1.023ZM23.262,0H21.816V-8.453h1.445ZM21.7-10.7a.863.863,0,0,1,.215-.594.807.807,0,0,1,.637-.242.819.819,0,0,1,.641.242.854.854,0,0,1,.219.594.826.826,0,0,1-.219.586.834.834,0,0,1-.641.234.821.821,0,0,1-.637-.234A.834.834,0,0,1,21.7-10.7ZM25.191-4.3a4.993,4.993,0,0,1,.488-2.234A3.643,3.643,0,0,1,27.039-8.07a3.7,3.7,0,0,1,1.988-.539,3.565,3.565,0,0,1,2.793,1.2,4.6,4.6,0,0,1,1.066,3.18v.1a5.036,5.036,0,0,1-.473,2.215A3.589,3.589,0,0,1,31.063-.391a3.743,3.743,0,0,1-2.02.547,3.556,3.556,0,0,1-2.785-1.2A4.575,4.575,0,0,1,25.191-4.2Zm1.453.172A3.616,3.616,0,0,0,27.3-1.875a2.088,2.088,0,0,0,1.746.852,2.075,2.075,0,0,0,1.75-.863A3.955,3.955,0,0,0,31.441-4.3a3.61,3.61,0,0,0-.66-2.254,2.1,2.1,0,0,0-1.754-.863A2.075,2.075,0,0,0,27.3-6.57,3.925,3.925,0,0,0,26.645-4.133ZM29.684-12h1.75L29.34-9.7l-1.164,0Zm6.383,3.547.047,1.063a3.08,3.08,0,0,1,2.531-1.219q2.68,0,2.7,3.023V0H39.9V-5.594a1.946,1.946,0,0,0-.418-1.352,1.675,1.675,0,0,0-1.277-.437,2.086,2.086,0,0,0-1.234.375,2.546,2.546,0,0,0-.828.984V0H34.7V-8.453Z" transform="translate(1110.356 1684.793)"/>
    <path id="Trazado_200360" data-name="Trazado 200360" d="M183.931,0H0" transform="translate(708.864 1627.369)" fill="none" stroke="#d100c9" stroke-linecap="round" stroke-width="3"/>
    <path id="Trazado_198972" data-name="Trazado 198972" d="M249.4,181.055l17.323,17.323L249.4,215.7" transform="translate(629.785 1428.996)" fill="none" stroke="#d100c9" stroke-linecap="round" stroke-linejoin="round" stroke-width="3"/>
    <path id="Trazado_200361" data-name="Trazado 200361" d="M6.233,0A6.233,6.233,0,1,1,0,6.233,6.233,6.233,0,0,1,6.233,0Z" transform="translate(626.614 1777.136)" fill="none" stroke="#d100c9" stroke-linecap="round" stroke-width="3"/>
    <path id="Trazado_200362" data-name="Trazado 200362" d="M340.158,0H0" transform="translate(639.079 1783.361)" fill="none" stroke="#d100c9" stroke-linecap="round" stroke-width="3"/>
    <path id="Trazado_198973" data-name="Trazado 198973" d="M285.9,249.884l17.323,17.323L285.9,284.53" transform="translate(676.013 1516.161)" fill="none" stroke="#d100c9" stroke-linecap="round" stroke-linejoin="round" stroke-width="3"/>
    <path id="Trazado_200363" data-name="Trazado 200363" d="M6.233,0A6.233,6.233,0,1,1,0,6.233,6.233,6.233,0,0,1,6.233,0Z" transform="translate(896.507 1644.697)" fill="none" stroke="#d100c9" stroke-linecap="round" stroke-width="3"/>
    <path id="Trazado_200364" data-name="Trazado 200364" d="M83.352,0H0" transform="translate(908.972 1650.927)" fill="none" stroke="#d100c9" stroke-linecap="round" stroke-width="3"/>
    <path id="Trazado_198974" data-name="Trazado 198974" d="M293.545,191.448l17.323,17.323-17.323,17.323" transform="translate(685.692 1442.158)" fill="none" stroke="#d100c9" stroke-linecap="round" stroke-linejoin="round" stroke-width="3"/>
    <path id="Trazado_198975" data-name="Trazado 198975" d="M37.8,219.627V251.9H117.08V264.05l26.618-27.2L117.658,206.3v13.323Z" transform="translate(361.823 1460.971)" fill="#4747ff"/>
    <path id="Trazado_200365" data-name="Trazado 200365" d="M0,0H391.942V10.548H0Z" transform="translate(476.164 1755.497)" fill="#4747ff"/>
    <path id="Trazado_198976" data-name="Trazado 198976" d="M382.4,222.657v32.271h11.142V267.08l26.618-27.2-26.039-30.55v13.323Z" transform="translate(798.215 1464.809)" fill="#4747ff"/>
  </g>
</svg>
