<svg xmlns="http://www.w3.org/2000/svg" width="611" height="333.927" viewBox="0 0 611 333.927">
  <g id="Grupo_137306" data-name="Grupo 137306" transform="translate(-494.5 -2634)">
    <g id="Grupo_136931" data-name="Grupo 136931" transform="translate(0 31)">
      <g id="Grupo_136930" data-name="Grupo 136930" transform="translate(442.044 2369.993)">
        <line id="Línea_455" data-name="Línea 455" y1="34.103" transform="translate(337.651 366.117)" fill="none" stroke="#d100c9" stroke-linecap="round" stroke-linejoin="round" stroke-width="3"/>
        <line id="Línea_456" data-name="Línea 456" x2="34.103" transform="translate(465.94 277.3)" fill="none" stroke="#d100c9" stroke-linecap="round" stroke-linejoin="round" stroke-width="3"/>
        <line id="Línea_457" data-name="Línea 457" x2="34.103" transform="translate(465.94 522.46)" fill="none" stroke="#d100c9" stroke-linecap="round" stroke-linejoin="round" stroke-width="3"/>
        <line id="Línea_458" data-name="Línea 458" y2="245.16" transform="translate(465.927 277.301)" fill="none" stroke="#d100c9" stroke-linecap="round" stroke-linejoin="round" stroke-width="3"/>
        <line id="Línea_459" data-name="Línea 459" x2="284.972" transform="translate(215.071 400.22)" fill="none" stroke="#d100c9" stroke-linecap="round" stroke-linejoin="round" stroke-width="3"/>
        <path id="Trazado_198977" data-name="Trazado 198977" d="M79.556,385.8a3.377,3.377,0,0,1-2.918-1.686l-23.731-41.1a3.384,3.384,0,0,1,0-3.372l23.731-41.1a3.377,3.377,0,0,1,2.918-1.686H188.77a3.379,3.379,0,0,1,2.918,1.686l23.731,41.1a3.38,3.38,0,0,1,0,3.372l-23.73,41.1a3.379,3.379,0,0,1-2.918,1.686Z" transform="translate(0 58.896)" fill="#3838cc"/>
        <text id="Fitts_y_Posner" data-name="Fitts y Posner" transform="translate(131.254 404.951)" fill="#fff" font-size="16" font-family="Roboto-Regular, Roboto"><tspan x="-48.504" y="0">Fitts y Posner</tspan></text>
        <path id="Trazado_198978" data-name="Trazado 198978" d="M312.37,321.956a3.376,3.376,0,0,1-2.918-1.684l-23.733-41.1a3.389,3.389,0,0,1,0-3.372l23.731-41.1a3.38,3.38,0,0,1,2.92-1.686H421.582a3.374,3.374,0,0,1,2.918,1.686l23.733,41.1a3.385,3.385,0,0,1,0,3.372l-23.73,41.1a3.379,3.379,0,0,1-2.92,1.686Z" transform="translate(214.773 0)" fill="#3838cc"/>
        <text id="Cognitiva" transform="translate(578.221 282.213)" fill="#fff" font-size="16" font-family="Roboto-Regular, Roboto"><tspan x="-33.336" y="0">Cognitiva</tspan></text>
        <path id="Trazado_198979" data-name="Trazado 198979" d="M312.37,385.8a3.374,3.374,0,0,1-2.918-1.686l-23.733-41.1a3.389,3.389,0,0,1,0-3.372l23.731-41.1a3.38,3.38,0,0,1,2.92-1.686H421.582a3.374,3.374,0,0,1,2.918,1.686l23.733,41.1a3.385,3.385,0,0,1,0,3.372l-23.73,41.1a3.379,3.379,0,0,1-2.92,1.686Z" transform="translate(214.773 58.896)" fill="#3838cc"/>
        <text id="Consciente_Asociativa" data-name="Consciente
Asociativa" transform="translate(579.453 396.882)" fill="#fff" font-size="16" font-family="Roboto-Regular, Roboto"><tspan x="-39.941" y="0">Consciente</tspan><tspan x="-37.109" y="19">Asociativa</tspan></text>
        <path id="Trazado_198980" data-name="Trazado 198980" d="M312.37,449.381a3.373,3.373,0,0,1-2.918-1.684l-23.733-41.1a3.389,3.389,0,0,1,0-3.372l23.731-41.1a3.38,3.38,0,0,1,2.92-1.686H421.582a3.377,3.377,0,0,1,2.918,1.684l23.733,41.1a3.385,3.385,0,0,1,0,3.372l-23.73,41.1a3.376,3.376,0,0,1-2.92,1.686Z" transform="translate(214.773 117.553)" fill="#3838cc"/>
        <text id="Autónoma" transform="translate(578.376 527.192)" fill="#fff" font-size="16" font-family="Roboto-Regular, Roboto"><tspan x="-37.102" y="0">Autónoma</tspan></text>
        <path id="Trazado_198981" data-name="Trazado 198981" d="M185.4,327.851a3.379,3.379,0,0,1-2.918-1.686L158.751,301.41a3.385,3.385,0,0,1,0-3.372l23.731-24.752A3.379,3.379,0,0,1,185.4,271.6H294.615a3.379,3.379,0,0,1,2.918,1.686l23.731,24.752a3.384,3.384,0,0,1,0,3.372l-23.731,24.754a3.379,3.379,0,0,1-2.918,1.686Z" transform="translate(97.643 35.602)" fill="#3838cc"/>
        <text id="_3_Etapas" data-name="3 Etapas" transform="translate(335.967 340.059)" fill="#fff" font-size="16" font-family="Roboto-Regular, Roboto"><tspan x="-30.949" y="0">3 Etapas</tspan></text>
      </g>
    </g>
  </g>
</svg>
