<svg xmlns="http://www.w3.org/2000/svg" width="1030.057" height="439.048" viewBox="0 0 1030.057 439.048">
  <g id="Grupo_136893" data-name="Grupo 136893" transform="translate(-52.456 -71.526)">
    <line id="Línea_438" data-name="Línea 438" y1="46.642" transform="translate(164.204 204.616)" fill="none" stroke="#d100c9" stroke-linecap="round" stroke-linejoin="round" stroke-width="3"/>
    <line id="Línea_439" data-name="Línea 439" y1="46.642" transform="translate(164.204 382.057)" fill="none" stroke="#d100c9" stroke-linecap="round" stroke-linejoin="round" stroke-width="3"/>
    <line id="Línea_440" data-name="Línea 440" y1="46.642" transform="translate(499.51 382.057)" fill="none" stroke="#d100c9" stroke-linecap="round" stroke-linejoin="round" stroke-width="2"/>
    <line id="Línea_441" data-name="Línea 441" x2="335.306" transform="translate(164.205 428.717)" fill="none" stroke="#d100c9" stroke-linecap="round" stroke-linejoin="round" stroke-width="3"/>
    <path id="Trazado_198854" data-name="Trazado 198854" d="M89.52,264.286a4.621,4.621,0,0,1-3.991-2.3L53.071,205.766a4.629,4.629,0,0,1,0-4.612l32.458-56.217a4.621,4.621,0,0,1,3.991-2.3H238.893a4.624,4.624,0,0,1,3.991,2.3l32.458,56.217a4.623,4.623,0,0,1,0,4.612L242.884,261.98a4.621,4.621,0,0,1-3.991,2.306Z" transform="translate(0.001 115.863)" fill="#bebeff"/>
    <path id="Trazado_198855" data-name="Trazado 198855" d="M217.041,264.286a4.618,4.618,0,0,1-3.992-2.3l-32.46-56.217a4.635,4.635,0,0,1,0-4.612l32.458-56.217a4.625,4.625,0,0,1,3.994-2.3h149.37a4.618,4.618,0,0,1,3.991,2.3l32.46,56.217a4.629,4.629,0,0,1,0,4.612L370.405,261.98a4.622,4.622,0,0,1-3.994,2.306Z" transform="translate(207.784 115.863)" fill="#4747ff"/>
    <path id="Trazado_198856" data-name="Trazado 198856" d="M344.559,264.286a4.625,4.625,0,0,1-3.992-2.3L308.11,205.766a4.629,4.629,0,0,1,0-4.612l32.458-56.217a4.625,4.625,0,0,1,3.992-2.3H493.932a4.621,4.621,0,0,1,3.991,2.3l32.458,56.217a4.622,4.622,0,0,1,0,4.612L497.926,261.98a4.625,4.625,0,0,1-3.994,2.306Z" transform="translate(415.568 115.863)" fill="#3838cc"/>
    <text id="Memoria_sensorial" data-name="Memoria
sensorial" transform="translate(157.876 309.407)" font-size="20" font-family="Roboto-Regular, Roboto"><tspan x="-39.746" y="0">Memoria</tspan><tspan x="-40.508" y="24">sensorial</tspan></text>
    <text id="Memoria_de_trabajo" data-name="Memoria
de trabajo" transform="translate(493.922 310.407)" fill="#fff" font-size="21" font-family="Roboto-Regular, Roboto"><tspan x="-41.733" y="0">Memoria</tspan><tspan x="-46.671" y="25">de trabajo</tspan></text>
    <text id="Memoria_de_largo_plazo" data-name="Memoria de
largo plazo" transform="translate(829.706 311.407)" fill="#fff" font-size="22" font-family="Roboto-Regular, Roboto"><tspan x="-58.475" y="0">Memoria de</tspan><tspan x="-54.006" y="26">largo plazo</tspan></text>
    <text id="Puede_permanecer_el_resto_de_nuestra_vida" data-name="Puede permanecer
el resto de nuestra vida" transform="translate(968.512 161.622)" font-size="22" font-family="Roboto-Regular, Roboto"><tspan x="-92.136" y="0">Puede permanecer</tspan><tspan x="-113.303" y="26">el resto de nuestra vida</tspan></text>
    <text id="Repaso" transform="translate(496.996 187.894)" font-size="20" font-family="Roboto-Regular, Roboto"><tspan x="-33.364" y="0">Repaso</tspan></text>
    <ellipse id="Elipse_4945" data-name="Elipse 4945" cx="111.751" cy="60.955" rx="111.751" ry="60.955" transform="translate(52.456 71.526)" fill="#bebeff"/>
    <text id="Información_del_exterior" data-name="Información
del exterior" transform="translate(155.097 122.566)" font-size="20" font-family="Roboto-Regular, Roboto"><tspan x="-53.882" y="0">Información</tspan><tspan x="-49.556" y="24">del exterior</tspan></text>
    <text id="Olvido" transform="translate(324.677 505.574)" font-size="19" font-family="Roboto-Regular, Roboto"><tspan x="-26.519" y="0">Olvido</tspan></text>
    <text id="_1_seg" data-name="1 seg" transform="translate(326.935 370.962)" font-size="20" font-family="Roboto-Regular, Roboto"><tspan x="-24.155" y="0">1 seg</tspan></text>
    <path id="Trazado_198857" data-name="Trazado 198857" d="M127.507,132.237l-20.1,20.1-20.1-20.1" transform="translate(56.795 98.924)" fill="none" stroke="#d100c9" stroke-linecap="round" stroke-linejoin="round" stroke-width="3"/>
    <line id="Línea_442" data-name="Línea 442" y1="84.38" transform="translate(331.859 395.565)" fill="none" stroke="#d100c9" stroke-linecap="round" stroke-linejoin="round" stroke-width="3"/>
    <path id="Trazado_198858" data-name="Trazado 198858" d="M191.268,219.209l-20.1,20.1-20.1-20.1" transform="translate(160.688 240.638)" fill="none" stroke="#d100c9" stroke-linecap="round" stroke-linejoin="round" stroke-width="3"/>
    <line id="Línea_443" data-name="Línea 443" y1="46.642" transform="translate(499.51 204.616)" fill="none" stroke="#d100c9" stroke-linecap="round" stroke-linejoin="round" stroke-width="2"/>
    <path id="Trazado_198859" data-name="Trazado 198859" d="M255.028,132.237l-20.1,20.1-20.1-20.1" transform="translate(264.58 98.924)" fill="none" stroke="#d100c9" stroke-linecap="round" stroke-linejoin="round" stroke-width="3"/>
    <line id="Línea_444" data-name="Línea 444" y1="46.642" transform="translate(834.814 204.616)" fill="none" stroke="#d100c9" stroke-linecap="round" stroke-linejoin="round" stroke-width="2"/>
    <path id="Trazado_198860" data-name="Trazado 198860" d="M382.548,132.237l-20.1,20.1-20.1-20.1" transform="translate(472.364 98.924)" fill="none" stroke="#d100c9" stroke-linecap="round" stroke-linejoin="round" stroke-width="3"/>
    <path id="Trazado_198861" data-name="Trazado 198861" d="M421.163,156.413V127.99h28.423" transform="translate(601.781 94.004)" fill="none" stroke="#d100c9" stroke-linecap="round" stroke-linejoin="round" stroke-width="3"/>
    <path id="Trazado_198862" data-name="Trazado 198862" d="M198.912,143.124l-20.1,20.1-20.1-20.1" transform="translate(173.143 116.664)" fill="none" stroke="#d100c9" stroke-linecap="round" stroke-linejoin="round" stroke-width="3"/>
    <path id="Trazado_198863" data-name="Trazado 198863" d="M308.949,143.124l-20.1,20.1-20.1-20.1" transform="translate(352.441 116.664)" fill="none" stroke="#d100c9" stroke-linecap="round" stroke-linejoin="round" stroke-width="3"/>
    <path id="Trazado_198864" data-name="Trazado 198864" d="M166.359,239.3a144.668,144.668,0,1,1,289.337,0" transform="translate(185.597 37.649)" fill="none" stroke="#d100c9" stroke-miterlimit="10" stroke-width="3"/>
    <path id="Trazado_198865" data-name="Trazado 198865" d="M276.4,165.781" transform="translate(364.896 153.581)" fill="none" stroke="#d100c9" stroke-miterlimit="10" stroke-width="2"/>
    <line id="Línea_445" data-name="Línea 445" x2="335.303" transform="translate(499.51 204.625)" fill="none" stroke="#d100c9" stroke-linecap="round" stroke-linejoin="round" stroke-width="3"/>
    <path id="Trazado_198866" data-name="Trazado 198866" d="M422.48,129.649" transform="translate(602.927 94.707)" fill="none" stroke="#d100c9" stroke-linecap="round" stroke-linejoin="round" stroke-width="2"/>
    <path id="Trazado_198867" data-name="Trazado 198867" d="M481.046,129.649A88.131,88.131,0,0,1,386.537,276.81" transform="translate(544.361 94.707)" fill="none" stroke="#d100c9" stroke-linecap="round" stroke-linejoin="round" stroke-width="3"/>
  </g>
</svg>
