<svg xmlns="http://www.w3.org/2000/svg" width="962.953" height="406.83" viewBox="0 0 962.953 406.83">
  <g id="Grupo_137334" data-name="Grupo 137334" transform="translate(-348.078 -16313.947)">
    <path id="Trazado_200322" data-name="Trazado 200322" d="M0,43.442V0" transform="translate(452.158 16437.904)" fill="none" stroke="#d100c9" stroke-linecap="round" stroke-width="3"/>
    <path id="Trazado_200323" data-name="Trazado 200323" d="M0,43.442V0" transform="translate(452.158 16603.168)" fill="none" stroke="#d100c9" stroke-linecap="round" stroke-width="3"/>
    <path id="Trazado_200324" data-name="Trazado 200324" d="M0,43.442V0" transform="translate(764.455 16603.168)" fill="none" stroke="#d100c9" stroke-linecap="round" stroke-width="2"/>
    <path id="Trazado_200325" data-name="Trazado 200325" d="M0,0H312.3" transform="translate(452.159 16646.627)" fill="none" stroke="#d100c9" stroke-linecap="round" stroke-width="3"/>
    <path id="Trazado_200185" data-name="Trazado 200185" d="M86.977,255.938a4.3,4.3,0,0,1-3.718-2.145l-30.23-52.359a4.311,4.311,0,0,1,0-4.3l30.23-52.359a4.3,4.3,0,0,1,3.718-2.145H226.1a4.307,4.307,0,0,1,3.718,2.145l30.23,52.359a4.305,4.305,0,0,1,0,4.3L229.816,253.79a4.3,4.3,0,0,1-3.718,2.148Z" transform="translate(295.623 16345.453)" fill="#bebeff"/>
    <path id="Trazado_200186" data-name="Trazado 200186" d="M214.5,255.938a4.3,4.3,0,0,1-3.718-2.145l-30.233-52.359a4.317,4.317,0,0,1,0-4.3l30.23-52.359a4.308,4.308,0,0,1,3.72-2.145h139.12a4.3,4.3,0,0,1,3.718,2.145l30.233,52.359a4.311,4.311,0,0,1,0,4.3L357.337,253.79a4.305,4.305,0,0,1-3.72,2.148Z" transform="translate(480.397 16345.453)" fill="#4747ff"/>
    <path id="Trazado_200187" data-name="Trazado 200187" d="M342.016,255.938a4.307,4.307,0,0,1-3.718-2.145l-30.23-52.359a4.311,4.311,0,0,1,0-4.3l30.23-52.359a4.307,4.307,0,0,1,3.718-2.145H481.138a4.3,4.3,0,0,1,3.718,2.145l30.23,52.359a4.305,4.305,0,0,1,0,4.3L484.858,253.79a4.308,4.308,0,0,1-3.72,2.148Z" transform="translate(665.171 16345.453)" fill="#3838cc"/>
    <path id="Trazado_200326" data-name="Trazado 200326" d="M-37.458-14.93l4.881,12.182L-27.7-14.93h2.553V0h-1.969V-5.814l.185-6.275L-31.828,0h-1.507l-4.891-12.059.195,6.245V0H-40V-14.93ZM-17.36.205a4.848,4.848,0,0,1-3.671-1.482A5.5,5.5,0,0,1-22.446-5.24v-.349a6.658,6.658,0,0,1,.631-2.948,4.919,4.919,0,0,1,1.764-2.03A4.434,4.434,0,0,1-17.6-11.3a4.155,4.155,0,0,1,3.363,1.425,6.171,6.171,0,0,1,1.2,4.081V-5h-7.516a3.944,3.944,0,0,0,.959,2.651,3.014,3.014,0,0,0,2.333,1.01,3.3,3.3,0,0,0,1.7-.41,4.277,4.277,0,0,0,1.22-1.087l1.159.9A4.659,4.659,0,0,1-17.36.205ZM-17.6-9.741a2.53,2.53,0,0,0-1.928.836,4.062,4.062,0,0,0-.964,2.343h5.558v-.144a3.613,3.613,0,0,0-.779-2.24A2.382,2.382,0,0,0-17.6-9.741Zm8.542-1.354L-9-9.864A4.1,4.1,0,0,1-5.711-11.3,3.172,3.172,0,0,1-2.543-9.516,4.2,4.2,0,0,1-1.1-10.808a4.255,4.255,0,0,1,2.1-.492q3.65,0,3.712,3.866V0H2.81V-7.321A2.548,2.548,0,0,0,2.266-9.1,2.393,2.393,0,0,0,.441-9.69a2.515,2.515,0,0,0-1.753.631,2.558,2.558,0,0,0-.81,1.7V0H-4.03V-7.27A2.117,2.117,0,0,0-6.4-9.69,2.538,2.538,0,0,0-8.952-8.1V0h-1.9V-11.095ZM7.065-5.65a6.553,6.553,0,0,1,.641-2.933,4.781,4.781,0,0,1,1.784-2.01A4.857,4.857,0,0,1,12.1-11.3a4.679,4.679,0,0,1,3.666,1.569,6.036,6.036,0,0,1,1.4,4.173v.133a6.61,6.61,0,0,1-.62,2.907,4.71,4.71,0,0,1-1.774,2A4.913,4.913,0,0,1,12.12.205,4.667,4.667,0,0,1,8.465-1.364a6.005,6.005,0,0,1-1.4-4.153Zm1.907.226a4.746,4.746,0,0,0,.856,2.963A2.74,2.74,0,0,0,12.12-1.343a2.724,2.724,0,0,0,2.3-1.133,5.19,5.19,0,0,0,.851-3.174A4.738,4.738,0,0,0,14.4-8.608a2.755,2.755,0,0,0-2.3-1.133A2.724,2.724,0,0,0,9.833-8.624,5.152,5.152,0,0,0,8.972-5.424ZM24.907-9.393a5.685,5.685,0,0,0-.933-.072,2.5,2.5,0,0,0-2.533,1.589V0h-1.9V-11.095H21.39l.031,1.282A2.954,2.954,0,0,1,24.066-11.3a1.938,1.938,0,0,1,.841.144ZM28.711,0h-1.9V-11.095h1.9ZM26.66-14.038a1.132,1.132,0,0,1,.282-.779,1.059,1.059,0,0,1,.836-.318,1.075,1.075,0,0,1,.841.318,1.12,1.12,0,0,1,.287.779,1.084,1.084,0,0,1-.287.769,1.1,1.1,0,0,1-.841.308,1.078,1.078,0,0,1-.836-.308A1.1,1.1,0,0,1,26.66-14.038ZM38.6,0a3.985,3.985,0,0,1-.267-1.169A4.233,4.233,0,0,1,35.171.205a3.916,3.916,0,0,1-2.692-.928,3,3,0,0,1-1.051-2.353,3.136,3.136,0,0,1,1.318-2.692,6.212,6.212,0,0,1,3.707-.959H38.3V-7.6A2.131,2.131,0,0,0,37.7-9.182a2.39,2.39,0,0,0-1.753-.59,2.766,2.766,0,0,0-1.7.513,1.511,1.511,0,0,0-.687,1.241H31.654a2.618,2.618,0,0,1,.59-1.6,4.024,4.024,0,0,1,1.6-1.225,5.381,5.381,0,0,1,2.22-.451,4.386,4.386,0,0,1,3,.959A3.458,3.458,0,0,1,40.2-7.7v5.106a6.243,6.243,0,0,0,.39,2.43V0ZM35.448-1.446a3.334,3.334,0,0,0,1.692-.461,2.791,2.791,0,0,0,1.159-1.2V-5.383H36.812q-3.486,0-3.486,2.041a1.727,1.727,0,0,0,.595,1.395A2.286,2.286,0,0,0,35.448-1.446Zm-70.085,23.5a1.4,1.4,0,0,0-.579-1.195,5.576,5.576,0,0,0-2.02-.733,9.551,9.551,0,0,1-2.287-.738,3.253,3.253,0,0,1-1.251-1.025,2.453,2.453,0,0,1-.405-1.415,2.878,2.878,0,0,1,1.154-2.307,4.505,4.505,0,0,1,2.948-.943,4.636,4.636,0,0,1,3.061.974,3.094,3.094,0,0,1,1.174,2.492H-34.75a1.713,1.713,0,0,0-.661-1.343,2.478,2.478,0,0,0-1.666-.564,2.593,2.593,0,0,0-1.62.451,1.42,1.42,0,0,0-.584,1.179,1.151,1.151,0,0,0,.543,1.036,6.687,6.687,0,0,0,1.964.667,10.231,10.231,0,0,1,2.3.759,3.358,3.358,0,0,1,1.307,1.061,2.609,2.609,0,0,1,.426,1.512,2.839,2.839,0,0,1-1.189,2.384,4.989,4.989,0,0,1-3.086.9,5.587,5.587,0,0,1-2.358-.472,3.836,3.836,0,0,1-1.6-1.318,3.176,3.176,0,0,1-.579-1.83h1.9A1.964,1.964,0,0,0-38.9,23.1a2.964,2.964,0,0,0,1.882.559,3.059,3.059,0,0,0,1.728-.436A1.339,1.339,0,0,0-34.638,22.057Zm8.972,3.148a4.848,4.848,0,0,1-3.671-1.482,5.5,5.5,0,0,1-1.415-3.963v-.349a6.658,6.658,0,0,1,.631-2.948,4.919,4.919,0,0,1,1.764-2.03A4.434,4.434,0,0,1-25.9,13.7a4.155,4.155,0,0,1,3.363,1.425,6.171,6.171,0,0,1,1.2,4.081V20h-7.516a3.944,3.944,0,0,0,.959,2.651,3.014,3.014,0,0,0,2.333,1.01,3.3,3.3,0,0,0,1.7-.41,4.277,4.277,0,0,0,1.22-1.087l1.159.9A4.659,4.659,0,0,1-25.666,25.205Zm-.236-9.946a2.53,2.53,0,0,0-1.928.836,4.062,4.062,0,0,0-.964,2.343h5.558v-.144a3.613,3.613,0,0,0-.779-2.24A2.382,2.382,0,0,0-25.9,15.259Zm8.552-1.354.062,1.395a4.043,4.043,0,0,1,3.322-1.6q3.517,0,3.548,3.968V25h-1.9V17.658a2.554,2.554,0,0,0-.549-1.774,2.2,2.2,0,0,0-1.677-.574,2.738,2.738,0,0,0-1.62.492,3.342,3.342,0,0,0-1.087,1.292V25h-1.9V13.905ZM-1.1,22.057a1.4,1.4,0,0,0-.579-1.195,5.576,5.576,0,0,0-2.02-.733,9.551,9.551,0,0,1-2.287-.738,3.253,3.253,0,0,1-1.251-1.025,2.453,2.453,0,0,1-.405-1.415,2.878,2.878,0,0,1,1.154-2.307A4.505,4.505,0,0,1-3.538,13.7a4.636,4.636,0,0,1,3.061.974A3.094,3.094,0,0,1,.7,17.166H-1.21a1.713,1.713,0,0,0-.661-1.343,2.478,2.478,0,0,0-1.666-.564,2.593,2.593,0,0,0-1.62.451,1.42,1.42,0,0,0-.584,1.179A1.151,1.151,0,0,0-5.2,17.925a6.687,6.687,0,0,0,1.964.667,10.231,10.231,0,0,1,2.3.759A3.358,3.358,0,0,1,.374,20.411,2.609,2.609,0,0,1,.8,21.924,2.839,2.839,0,0,1-.39,24.308a4.989,4.989,0,0,1-3.086.9,5.587,5.587,0,0,1-2.358-.472,3.836,3.836,0,0,1-1.6-1.318,3.176,3.176,0,0,1-.579-1.83h1.9A1.964,1.964,0,0,0-5.358,23.1a2.964,2.964,0,0,0,1.882.559,3.059,3.059,0,0,0,1.728-.436A1.339,1.339,0,0,0-1.1,22.057ZM2.769,19.35a6.553,6.553,0,0,1,.641-2.933,4.781,4.781,0,0,1,1.784-2.01A4.857,4.857,0,0,1,7.8,13.7a4.679,4.679,0,0,1,3.666,1.569,6.036,6.036,0,0,1,1.4,4.173v.133a6.61,6.61,0,0,1-.62,2.907,4.71,4.71,0,0,1-1.774,2,4.913,4.913,0,0,1-2.651.718,4.667,4.667,0,0,1-3.656-1.569,6.005,6.005,0,0,1-1.4-4.153Zm1.907.226a4.746,4.746,0,0,0,.856,2.963,2.74,2.74,0,0,0,2.292,1.118,2.724,2.724,0,0,0,2.3-1.133,5.19,5.19,0,0,0,.851-3.174,4.738,4.738,0,0,0-.866-2.958,2.755,2.755,0,0,0-2.3-1.133,2.724,2.724,0,0,0-2.266,1.118A5.152,5.152,0,0,0,4.676,19.576ZM20.61,15.607a5.685,5.685,0,0,0-.933-.072,2.5,2.5,0,0,0-2.533,1.589V25h-1.9V13.905h1.846l.031,1.282A2.954,2.954,0,0,1,19.77,13.7a1.938,1.938,0,0,1,.841.144ZM24.415,25h-1.9V13.905h1.9ZM22.364,10.962a1.132,1.132,0,0,1,.282-.779,1.059,1.059,0,0,1,.836-.318,1.075,1.075,0,0,1,.841.318,1.12,1.12,0,0,1,.287.779,1.084,1.084,0,0,1-.287.769,1.1,1.1,0,0,1-.841.308,1.078,1.078,0,0,1-.836-.308A1.1,1.1,0,0,1,22.364,10.962ZM34.3,25a3.985,3.985,0,0,1-.267-1.169,4.233,4.233,0,0,1-3.158,1.374,3.916,3.916,0,0,1-2.692-.928,3,3,0,0,1-1.051-2.353,3.136,3.136,0,0,1,1.318-2.692,6.212,6.212,0,0,1,3.707-.959H34V17.4a2.131,2.131,0,0,0-.595-1.584,2.39,2.39,0,0,0-1.753-.59,2.766,2.766,0,0,0-1.7.513,1.511,1.511,0,0,0-.687,1.241H27.357a2.618,2.618,0,0,1,.59-1.6,4.024,4.024,0,0,1,1.6-1.225,5.381,5.381,0,0,1,2.22-.451,4.386,4.386,0,0,1,3,.959A3.458,3.458,0,0,1,35.9,17.3v5.106a6.243,6.243,0,0,0,.39,2.43V25Zm-3.148-1.446a3.334,3.334,0,0,0,1.692-.461A2.791,2.791,0,0,0,34,21.893V19.617H32.515q-3.486,0-3.486,2.041a1.727,1.727,0,0,0,.595,1.395A2.286,2.286,0,0,0,31.151,23.554ZM40.934,25h-1.9V9.25h1.9Z" transform="translate(451.078 16537.945)"/>
    <path id="Trazado_200327" data-name="Trazado 200327" d="M-37.458-14.93l4.881,12.182L-27.7-14.93h2.553V0h-1.969V-5.814l.185-6.275L-31.828,0h-1.507l-4.891-12.059.195,6.245V0H-40V-14.93ZM-17.36.205a4.848,4.848,0,0,1-3.671-1.482A5.5,5.5,0,0,1-22.446-5.24v-.349a6.658,6.658,0,0,1,.631-2.948,4.919,4.919,0,0,1,1.764-2.03A4.434,4.434,0,0,1-17.6-11.3a4.155,4.155,0,0,1,3.363,1.425,6.171,6.171,0,0,1,1.2,4.081V-5h-7.516a3.944,3.944,0,0,0,.959,2.651,3.014,3.014,0,0,0,2.333,1.01,3.3,3.3,0,0,0,1.7-.41,4.277,4.277,0,0,0,1.22-1.087l1.159.9A4.659,4.659,0,0,1-17.36.205ZM-17.6-9.741a2.53,2.53,0,0,0-1.928.836,4.062,4.062,0,0,0-.964,2.343h5.558v-.144a3.613,3.613,0,0,0-.779-2.24A2.382,2.382,0,0,0-17.6-9.741Zm8.542-1.354L-9-9.864A4.1,4.1,0,0,1-5.711-11.3,3.172,3.172,0,0,1-2.543-9.516,4.2,4.2,0,0,1-1.1-10.808a4.255,4.255,0,0,1,2.1-.492q3.65,0,3.712,3.866V0H2.81V-7.321A2.548,2.548,0,0,0,2.266-9.1,2.393,2.393,0,0,0,.441-9.69a2.515,2.515,0,0,0-1.753.631,2.558,2.558,0,0,0-.81,1.7V0H-4.03V-7.27A2.117,2.117,0,0,0-6.4-9.69,2.538,2.538,0,0,0-8.952-8.1V0h-1.9V-11.095ZM7.065-5.65a6.553,6.553,0,0,1,.641-2.933,4.781,4.781,0,0,1,1.784-2.01A4.857,4.857,0,0,1,12.1-11.3a4.679,4.679,0,0,1,3.666,1.569,6.036,6.036,0,0,1,1.4,4.173v.133a6.61,6.61,0,0,1-.62,2.907,4.71,4.71,0,0,1-1.774,2A4.913,4.913,0,0,1,12.12.205,4.667,4.667,0,0,1,8.465-1.364a6.005,6.005,0,0,1-1.4-4.153Zm1.907.226a4.746,4.746,0,0,0,.856,2.963A2.74,2.74,0,0,0,12.12-1.343a2.724,2.724,0,0,0,2.3-1.133,5.19,5.19,0,0,0,.851-3.174A4.738,4.738,0,0,0,14.4-8.608a2.755,2.755,0,0,0-2.3-1.133A2.724,2.724,0,0,0,9.833-8.624,5.152,5.152,0,0,0,8.972-5.424ZM24.907-9.393a5.685,5.685,0,0,0-.933-.072,2.5,2.5,0,0,0-2.533,1.589V0h-1.9V-11.095H21.39l.031,1.282A2.954,2.954,0,0,1,24.066-11.3a1.938,1.938,0,0,1,.841.144ZM28.711,0h-1.9V-11.095h1.9ZM26.66-14.038a1.132,1.132,0,0,1,.282-.779,1.059,1.059,0,0,1,.836-.318,1.075,1.075,0,0,1,.841.318,1.12,1.12,0,0,1,.287.779,1.084,1.084,0,0,1-.287.769,1.1,1.1,0,0,1-.841.308,1.078,1.078,0,0,1-.836-.308A1.1,1.1,0,0,1,26.66-14.038ZM38.6,0a3.985,3.985,0,0,1-.267-1.169A4.233,4.233,0,0,1,35.171.205a3.916,3.916,0,0,1-2.692-.928,3,3,0,0,1-1.051-2.353,3.136,3.136,0,0,1,1.318-2.692,6.212,6.212,0,0,1,3.707-.959H38.3V-7.6A2.131,2.131,0,0,0,37.7-9.182a2.39,2.39,0,0,0-1.753-.59,2.766,2.766,0,0,0-1.7.513,1.511,1.511,0,0,0-.687,1.241H31.654a2.618,2.618,0,0,1,.59-1.6,4.024,4.024,0,0,1,1.6-1.225,5.381,5.381,0,0,1,2.22-.451,4.386,4.386,0,0,1,3,.959A3.458,3.458,0,0,1,40.2-7.7v5.106a6.243,6.243,0,0,0,.39,2.43V0ZM35.448-1.446a3.334,3.334,0,0,0,1.692-.461,2.791,2.791,0,0,0,1.159-1.2V-5.383H36.812q-3.486,0-3.486,2.041a1.727,1.727,0,0,0,.595,1.395A2.286,2.286,0,0,0,35.448-1.446ZM-45.7,19.36a6.5,6.5,0,0,1,1.21-4.107A3.826,3.826,0,0,1-41.318,13.7a3.848,3.848,0,0,1,3.086,1.333V9.25h1.9V25h-1.743l-.092-1.189a3.863,3.863,0,0,1-3.168,1.395,3.789,3.789,0,0,1-3.143-1.579A6.573,6.573,0,0,1-45.7,19.5Zm1.9.215a4.921,4.921,0,0,0,.779,2.953A2.519,2.519,0,0,0-40.867,23.6a2.767,2.767,0,0,0,2.635-1.62v-5.1a2.789,2.789,0,0,0-2.615-1.569,2.531,2.531,0,0,0-2.174,1.077A5.418,5.418,0,0,0-43.8,19.576Zm15.012,5.629a4.848,4.848,0,0,1-3.671-1.482,5.5,5.5,0,0,1-1.415-3.963v-.349a6.658,6.658,0,0,1,.631-2.948,4.919,4.919,0,0,1,1.764-2.03,4.434,4.434,0,0,1,2.456-.733,4.155,4.155,0,0,1,3.363,1.425,6.171,6.171,0,0,1,1.2,4.081V20h-7.516a3.944,3.944,0,0,0,.959,2.651,3.014,3.014,0,0,0,2.333,1.01,3.3,3.3,0,0,0,1.7-.41,4.277,4.277,0,0,0,1.22-1.087l1.159.9A4.659,4.659,0,0,1-28.788,25.205Zm-.236-9.946a2.53,2.53,0,0,0-1.928.836,4.062,4.062,0,0,0-.964,2.343h5.558v-.144a3.613,3.613,0,0,0-.779-2.24A2.382,2.382,0,0,0-29.024,15.259Zm14.53-4.04v2.687h2.071v1.466h-2.071v6.889a1.54,1.54,0,0,0,.277,1,1.165,1.165,0,0,0,.943.334,4.593,4.593,0,0,0,.9-.123V25a5.532,5.532,0,0,1-1.456.2,2.362,2.362,0,0,1-1.917-.769,3.3,3.3,0,0,1-.646-2.184v-6.88h-2.02V13.905h2.02V11.219Zm9.649,4.389a5.685,5.685,0,0,0-.933-.072,2.5,2.5,0,0,0-2.533,1.589V25h-1.9V13.905h1.846l.031,1.282A2.954,2.954,0,0,1-5.686,13.7a1.938,1.938,0,0,1,.841.144ZM3.338,25a3.985,3.985,0,0,1-.267-1.169A4.233,4.233,0,0,1-.087,25.205a3.916,3.916,0,0,1-2.692-.928A3,3,0,0,1-3.83,21.924a3.136,3.136,0,0,1,1.318-2.692,6.212,6.212,0,0,1,3.707-.959H3.04V17.4a2.131,2.131,0,0,0-.595-1.584,2.39,2.39,0,0,0-1.753-.59,2.766,2.766,0,0,0-1.7.513A1.511,1.511,0,0,0-1.7,16.981H-3.6a2.618,2.618,0,0,1,.59-1.6,4.024,4.024,0,0,1,1.6-1.225A5.381,5.381,0,0,1,.8,13.7a4.386,4.386,0,0,1,3,.959A3.458,3.458,0,0,1,4.937,17.3v5.106a6.243,6.243,0,0,0,.39,2.43V25ZM.19,23.554a3.334,3.334,0,0,0,1.692-.461,2.791,2.791,0,0,0,1.159-1.2V19.617H1.553q-3.486,0-3.486,2.041a1.727,1.727,0,0,0,.595,1.395A2.286,2.286,0,0,0,.19,23.554ZM17.3,19.576a6.6,6.6,0,0,1-1.169,4.086A3.735,3.735,0,0,1,13,25.205a3.868,3.868,0,0,1-3.25-1.487L9.654,25H7.911V9.25h1.9v5.875A3.846,3.846,0,0,1,12.976,13.7a3.758,3.758,0,0,1,3.174,1.528A6.8,6.8,0,0,1,17.3,19.412Zm-1.9-.215a5.126,5.126,0,0,0-.749-2.994A2.478,2.478,0,0,0,12.5,15.31a2.785,2.785,0,0,0-2.7,1.743v4.8A2.863,2.863,0,0,0,12.525,23.6a2.464,2.464,0,0,0,2.123-1.056A5.451,5.451,0,0,0,15.406,19.36ZM26.542,25a3.985,3.985,0,0,1-.267-1.169,4.233,4.233,0,0,1-3.158,1.374,3.916,3.916,0,0,1-2.692-.928,3,3,0,0,1-1.051-2.353,3.136,3.136,0,0,1,1.318-2.692,6.212,6.212,0,0,1,3.707-.959h1.846V17.4a2.131,2.131,0,0,0-.595-1.584,2.39,2.39,0,0,0-1.753-.59,2.766,2.766,0,0,0-1.7.513,1.511,1.511,0,0,0-.687,1.241H19.6a2.618,2.618,0,0,1,.59-1.6,4.024,4.024,0,0,1,1.6-1.225,5.381,5.381,0,0,1,2.22-.451,4.386,4.386,0,0,1,3,.959,3.458,3.458,0,0,1,1.128,2.64v5.106a6.243,6.243,0,0,0,.39,2.43V25Zm-3.148-1.446a3.334,3.334,0,0,0,1.692-.461,2.791,2.791,0,0,0,1.159-1.2V19.617H24.758q-3.486,0-3.486,2.041a1.727,1.727,0,0,0,.595,1.395A2.286,2.286,0,0,0,23.394,23.554Zm9.68-9.649V26.282q0,3.2-2.9,3.2a3.54,3.54,0,0,1-1.159-.183V27.789a3.667,3.667,0,0,0,.861.082,1.289,1.289,0,0,0,.969-.344,1.7,1.7,0,0,0,.333-1.2V13.905Zm-2.092-2.943a1.137,1.137,0,0,1,.282-.774,1.037,1.037,0,0,1,.825-.323,1.075,1.075,0,0,1,.841.318,1.12,1.12,0,0,1,.287.779,1.084,1.084,0,0,1-.287.769,1.1,1.1,0,0,1-.841.308,1.061,1.061,0,0,1-.831-.308A1.107,1.107,0,0,1,30.982,10.962Zm4.645,8.388a6.553,6.553,0,0,1,.641-2.933,4.781,4.781,0,0,1,1.784-2.01,4.857,4.857,0,0,1,2.61-.708,4.679,4.679,0,0,1,3.666,1.569,6.036,6.036,0,0,1,1.4,4.173v.133a6.61,6.61,0,0,1-.62,2.907,4.71,4.71,0,0,1-1.774,2,4.913,4.913,0,0,1-2.651.718,4.667,4.667,0,0,1-3.656-1.569,6.005,6.005,0,0,1-1.4-4.153Zm1.907.226a4.746,4.746,0,0,0,.856,2.963,2.9,2.9,0,0,0,4.589-.015,5.19,5.19,0,0,0,.851-3.174,4.738,4.738,0,0,0-.866-2.958,2.755,2.755,0,0,0-2.3-1.133A2.724,2.724,0,0,0,38.4,16.376,5.152,5.152,0,0,0,37.534,19.576Z" transform="translate(762.475 16537.945)" fill="#fff"/>
    <path id="Trazado_200328" data-name="Trazado 200328" d="M-51.541-14.93-46.66-2.748-41.78-14.93h2.553V0H-41.2V-5.814l.185-6.275L-45.912,0h-1.507L-52.31-12.059l.195,6.245V0h-1.969V-14.93ZM-31.444.205a4.848,4.848,0,0,1-3.671-1.482A5.5,5.5,0,0,1-36.53-5.24v-.349A6.658,6.658,0,0,1-35.9-8.536a4.919,4.919,0,0,1,1.764-2.03,4.434,4.434,0,0,1,2.456-.733,4.155,4.155,0,0,1,3.363,1.425,6.171,6.171,0,0,1,1.2,4.081V-5h-7.516a3.944,3.944,0,0,0,.959,2.651,3.014,3.014,0,0,0,2.333,1.01,3.3,3.3,0,0,0,1.7-.41,4.277,4.277,0,0,0,1.22-1.087l1.159.9A4.659,4.659,0,0,1-31.444.205Zm-.236-9.946a2.53,2.53,0,0,0-1.928.836,4.062,4.062,0,0,0-.964,2.343h5.558v-.144a3.613,3.613,0,0,0-.779-2.24A2.382,2.382,0,0,0-31.679-9.741Zm8.542-1.354.051,1.23A4.1,4.1,0,0,1-19.8-11.3a3.172,3.172,0,0,1,3.168,1.784,4.2,4.2,0,0,1,1.441-1.292,4.255,4.255,0,0,1,2.1-.492q3.65,0,3.712,3.866V0h-1.9V-7.321A2.548,2.548,0,0,0-11.818-9.1a2.393,2.393,0,0,0-1.825-.59,2.515,2.515,0,0,0-1.753.631,2.558,2.558,0,0,0-.81,1.7V0h-1.907V-7.27a2.117,2.117,0,0,0-2.369-2.42A2.538,2.538,0,0,0-23.035-8.1V0h-1.9V-11.095ZM-7.019-5.65a6.553,6.553,0,0,1,.641-2.933,4.781,4.781,0,0,1,1.784-2.01,4.857,4.857,0,0,1,2.61-.708A4.679,4.679,0,0,1,1.682-9.731a6.036,6.036,0,0,1,1.4,4.173v.133a6.61,6.61,0,0,1-.62,2.907,4.71,4.71,0,0,1-1.774,2A4.913,4.913,0,0,1-1.964.205,4.667,4.667,0,0,1-5.619-1.364a6.005,6.005,0,0,1-1.4-4.153Zm1.907.226a4.746,4.746,0,0,0,.856,2.963A2.74,2.74,0,0,0-1.964-1.343a2.724,2.724,0,0,0,2.3-1.133A5.19,5.19,0,0,0,1.184-5.65,4.738,4.738,0,0,0,.318-8.608a2.755,2.755,0,0,0-2.3-1.133A2.724,2.724,0,0,0-4.25-8.624,5.152,5.152,0,0,0-5.112-5.424ZM10.823-9.393a5.685,5.685,0,0,0-.933-.072A2.5,2.5,0,0,0,7.357-7.875V0H5.46V-11.095H7.306l.031,1.282A2.954,2.954,0,0,1,9.982-11.3a1.938,1.938,0,0,1,.841.144ZM14.627,0h-1.9V-11.095h1.9ZM12.576-14.038a1.132,1.132,0,0,1,.282-.779,1.059,1.059,0,0,1,.836-.318,1.075,1.075,0,0,1,.841.318,1.12,1.12,0,0,1,.287.779,1.084,1.084,0,0,1-.287.769,1.1,1.1,0,0,1-.841.308,1.078,1.078,0,0,1-.836-.308A1.1,1.1,0,0,1,12.576-14.038ZM24.512,0a3.985,3.985,0,0,1-.267-1.169A4.233,4.233,0,0,1,21.087.205,3.916,3.916,0,0,1,18.4-.723a3,3,0,0,1-1.051-2.353,3.136,3.136,0,0,1,1.318-2.692,6.212,6.212,0,0,1,3.707-.959h1.846V-7.6a2.131,2.131,0,0,0-.595-1.584,2.39,2.39,0,0,0-1.753-.59,2.766,2.766,0,0,0-1.7.513,1.511,1.511,0,0,0-.687,1.241H17.57a2.618,2.618,0,0,1,.59-1.6,4.024,4.024,0,0,1,1.6-1.225,5.381,5.381,0,0,1,2.22-.451,4.386,4.386,0,0,1,3,.959A3.458,3.458,0,0,1,26.112-7.7v5.106a6.243,6.243,0,0,0,.39,2.43V0ZM21.364-1.446a3.334,3.334,0,0,0,1.692-.461,2.791,2.791,0,0,0,1.159-1.2V-5.383H22.728q-3.486,0-3.486,2.041a1.727,1.727,0,0,0,.595,1.395A2.286,2.286,0,0,0,21.364-1.446ZM33.823-5.64a6.5,6.5,0,0,1,1.21-4.107A3.826,3.826,0,0,1,38.2-11.3a3.848,3.848,0,0,1,3.086,1.333V-15.75h1.9V0H41.441l-.092-1.189A3.863,3.863,0,0,1,38.18.205a3.789,3.789,0,0,1-3.143-1.579A6.573,6.573,0,0,1,33.823-5.5Zm1.9.215A4.921,4.921,0,0,0,36.5-2.471,2.519,2.519,0,0,0,38.652-1.4a2.767,2.767,0,0,0,2.635-1.62v-5.1A2.789,2.789,0,0,0,38.673-9.69,2.531,2.531,0,0,0,36.5-8.613,5.418,5.418,0,0,0,35.719-5.424ZM50.731.205A4.848,4.848,0,0,1,47.06-1.277,5.5,5.5,0,0,1,45.645-5.24v-.349a6.658,6.658,0,0,1,.631-2.948,4.919,4.919,0,0,1,1.764-2.03A4.434,4.434,0,0,1,50.5-11.3a4.155,4.155,0,0,1,3.363,1.425,6.171,6.171,0,0,1,1.2,4.081V-5H47.542A3.944,3.944,0,0,0,48.5-2.353a3.014,3.014,0,0,0,2.333,1.01,3.3,3.3,0,0,0,1.7-.41,4.277,4.277,0,0,0,1.22-1.087l1.159.9A4.659,4.659,0,0,1,50.731.205ZM50.5-9.741a2.53,2.53,0,0,0-1.928.836A4.062,4.062,0,0,0,47.6-6.562h5.558v-.144a3.613,3.613,0,0,0-.779-2.24A2.382,2.382,0,0,0,50.5-9.741ZM-48.055,25h-1.9V9.25h1.9Zm9.885,0a3.985,3.985,0,0,1-.267-1.169,4.233,4.233,0,0,1-3.158,1.374,3.916,3.916,0,0,1-2.692-.928,3,3,0,0,1-1.051-2.353,3.136,3.136,0,0,1,1.318-2.692,6.212,6.212,0,0,1,3.707-.959h1.846V17.4a2.131,2.131,0,0,0-.595-1.584,2.39,2.39,0,0,0-1.753-.59,2.766,2.766,0,0,0-1.7.513,1.511,1.511,0,0,0-.687,1.241h-1.907a2.618,2.618,0,0,1,.59-1.6,4.024,4.024,0,0,1,1.6-1.225A5.381,5.381,0,0,1-40.7,13.7a4.386,4.386,0,0,1,3,.959,3.458,3.458,0,0,1,1.128,2.64v5.106a6.243,6.243,0,0,0,.39,2.43V25Zm-3.148-1.446a3.334,3.334,0,0,0,1.692-.461,2.791,2.791,0,0,0,1.159-1.2V19.617h-1.487q-3.486,0-3.486,2.041a1.727,1.727,0,0,0,.595,1.395A2.286,2.286,0,0,0-41.318,23.554Zm13.084-7.947a5.685,5.685,0,0,0-.933-.072A2.5,2.5,0,0,0-31.7,17.125V25h-1.9V13.905h1.846l.031,1.282A2.954,2.954,0,0,1-29.075,13.7a1.938,1.938,0,0,1,.841.144Zm1.292,3.753a6.521,6.521,0,0,1,1.2-4.127A3.837,3.837,0,0,1-22.564,13.7,3.817,3.817,0,0,1-19.4,15.136l.092-1.23h1.733V24.733a4.514,4.514,0,0,1-1.277,3.394,4.711,4.711,0,0,1-3.43,1.241,5.706,5.706,0,0,1-2.348-.513,4.042,4.042,0,0,1-1.753-1.4l.984-1.138A3.71,3.71,0,0,0-22.41,27.82a2.906,2.906,0,0,0,2.158-.779,2.979,2.979,0,0,0,.774-2.194v-.954a3.9,3.9,0,0,1-3.107,1.313,3.79,3.79,0,0,1-3.153-1.569A6.856,6.856,0,0,1-26.942,19.36Zm1.907.215a4.975,4.975,0,0,0,.769,2.948A2.5,2.5,0,0,0-22.113,23.6a2.779,2.779,0,0,0,2.635-1.63V16.9a2.811,2.811,0,0,0-2.615-1.589,2.521,2.521,0,0,0-2.164,1.077A5.418,5.418,0,0,0-25.035,19.576Zm9.823-.226a6.553,6.553,0,0,1,.641-2.933,4.781,4.781,0,0,1,1.784-2.01,4.857,4.857,0,0,1,2.61-.708,4.679,4.679,0,0,1,3.666,1.569,6.036,6.036,0,0,1,1.4,4.173v.133a6.61,6.61,0,0,1-.62,2.907,4.71,4.71,0,0,1-1.774,2,4.913,4.913,0,0,1-2.651.718,4.667,4.667,0,0,1-3.656-1.569,6.005,6.005,0,0,1-1.4-4.153Zm1.907.226a4.746,4.746,0,0,0,.856,2.963,2.74,2.74,0,0,0,2.292,1.118,2.724,2.724,0,0,0,2.3-1.133,5.19,5.19,0,0,0,.851-3.174,4.738,4.738,0,0,0-.866-2.958,2.755,2.755,0,0,0-2.3-1.133,2.724,2.724,0,0,0-2.266,1.118A5.152,5.152,0,0,0-13.3,19.576Zm25.143,0a6.643,6.643,0,0,1-1.159,4.081,3.714,3.714,0,0,1-3.138,1.548,4.069,4.069,0,0,1-3.179-1.282v5.342h-1.9V13.905H4.2l.092,1.23A3.908,3.908,0,0,1,7.511,13.7a3.783,3.783,0,0,1,3.163,1.507A6.716,6.716,0,0,1,11.838,19.4Zm-1.9-.215a4.9,4.9,0,0,0-.8-2.963A2.576,2.576,0,0,0,6.947,15.31a2.789,2.789,0,0,0-2.584,1.528v5.3a2.794,2.794,0,0,0,2.6,1.518,2.564,2.564,0,0,0,2.169-1.082A5.351,5.351,0,0,0,9.941,19.36ZM16.309,25h-1.9V9.25h1.9Zm9.885,0a3.985,3.985,0,0,1-.267-1.169,4.233,4.233,0,0,1-3.158,1.374,3.916,3.916,0,0,1-2.692-.928,3,3,0,0,1-1.051-2.353,3.136,3.136,0,0,1,1.318-2.692,6.212,6.212,0,0,1,3.707-.959H25.9V17.4a2.131,2.131,0,0,0-.595-1.584,2.39,2.39,0,0,0-1.753-.59,2.766,2.766,0,0,0-1.7.513,1.511,1.511,0,0,0-.687,1.241H19.252a2.618,2.618,0,0,1,.59-1.6,4.024,4.024,0,0,1,1.6-1.225,5.381,5.381,0,0,1,2.22-.451,4.386,4.386,0,0,1,3,.959,3.458,3.458,0,0,1,1.128,2.64v5.106a6.243,6.243,0,0,0,.39,2.43V25Zm-3.148-1.446a3.334,3.334,0,0,0,1.692-.461,2.791,2.791,0,0,0,1.159-1.2V19.617H24.409q-3.486,0-3.486,2.041a1.727,1.727,0,0,0,.595,1.395A2.286,2.286,0,0,0,23.046,23.554Zm9.505-.1h6.491V25H30.234V23.605l6.122-8.131H30.326V13.905h8.408v1.343Zm7.957-4.1a6.553,6.553,0,0,1,.641-2.933,4.781,4.781,0,0,1,1.784-2.01,4.857,4.857,0,0,1,2.61-.708,4.679,4.679,0,0,1,3.666,1.569,6.036,6.036,0,0,1,1.4,4.173v.133a6.61,6.61,0,0,1-.62,2.907,4.71,4.71,0,0,1-1.774,2,4.913,4.913,0,0,1-2.651.718,4.667,4.667,0,0,1-3.656-1.569,6.005,6.005,0,0,1-1.4-4.153Zm1.907.226a4.746,4.746,0,0,0,.856,2.963,2.9,2.9,0,0,0,4.589-.015,5.19,5.19,0,0,0,.851-3.174,4.738,4.738,0,0,0-.866-2.958,2.755,2.755,0,0,0-2.3-1.133,2.724,2.724,0,0,0-2.266,1.118A5.152,5.152,0,0,0,42.415,19.576Z" transform="translate(1073.972 16537.945)" fill="#fff"/>
    <path id="Trazado_200329" data-name="Trazado 200329" d="M-84.246-5.845V0h-1.969V-14.93h5.506a5.532,5.532,0,0,1,3.84,1.251,4.241,4.241,0,0,1,1.389,3.312,4.185,4.185,0,0,1-1.359,3.348,5.779,5.779,0,0,1-3.891,1.174Zm0-1.61h3.538a3.537,3.537,0,0,0,2.42-.745,2.723,2.723,0,0,0,.841-2.152,2.813,2.813,0,0,0-.841-2.136A3.314,3.314,0,0,0-80.6-13.32h-3.65ZM-66.415-1.1a4.029,4.029,0,0,1-3.25,1.3,3.449,3.449,0,0,1-2.7-1.031,4.461,4.461,0,0,1-.938-3.051v-7.219h1.9v7.167q0,2.522,2.051,2.522a2.84,2.84,0,0,0,2.892-1.62v-8.07h1.9V0h-1.8Zm9.331,1.3a4.848,4.848,0,0,1-3.671-1.482A5.5,5.5,0,0,1-62.169-5.24v-.349a6.658,6.658,0,0,1,.631-2.948,4.919,4.919,0,0,1,1.764-2.03,4.434,4.434,0,0,1,2.456-.733,4.155,4.155,0,0,1,3.363,1.425,6.171,6.171,0,0,1,1.2,4.081V-5h-7.516a3.944,3.944,0,0,0,.959,2.651,3.014,3.014,0,0,0,2.333,1.01,3.3,3.3,0,0,0,1.7-.41,4.277,4.277,0,0,0,1.22-1.087l1.159.9A4.659,4.659,0,0,1-57.083.205Zm-.236-9.946a2.53,2.53,0,0,0-1.928.836,4.062,4.062,0,0,0-.964,2.343h5.558v-.144a3.613,3.613,0,0,0-.779-2.24A2.382,2.382,0,0,0-57.319-9.741Zm6.3,4.1a6.5,6.5,0,0,1,1.21-4.107A3.826,3.826,0,0,1-46.645-11.3a3.848,3.848,0,0,1,3.086,1.333V-15.75h1.9V0H-43.4L-43.5-1.189A3.863,3.863,0,0,1-46.666.205a3.789,3.789,0,0,1-3.143-1.579A6.573,6.573,0,0,1-51.023-5.5Zm1.9.215a4.921,4.921,0,0,0,.779,2.953A2.519,2.519,0,0,0-46.194-1.4a2.767,2.767,0,0,0,2.635-1.62v-5.1A2.789,2.789,0,0,0-46.173-9.69a2.531,2.531,0,0,0-2.174,1.077A5.418,5.418,0,0,0-49.126-5.424ZM-34.115.205a4.848,4.848,0,0,1-3.671-1.482A5.5,5.5,0,0,1-39.2-5.24v-.349a6.658,6.658,0,0,1,.631-2.948,4.919,4.919,0,0,1,1.764-2.03,4.434,4.434,0,0,1,2.456-.733,4.155,4.155,0,0,1,3.363,1.425,6.171,6.171,0,0,1,1.2,4.081V-5H-37.3a3.944,3.944,0,0,0,.959,2.651,3.014,3.014,0,0,0,2.333,1.01,3.3,3.3,0,0,0,1.7-.41A4.277,4.277,0,0,0-31.09-2.84l1.159.9A4.659,4.659,0,0,1-34.115.205Zm-.236-9.946a2.53,2.53,0,0,0-1.928.836,4.062,4.062,0,0,0-.964,2.343h5.558v-.144a3.613,3.613,0,0,0-.779-2.24A2.382,2.382,0,0,0-34.351-9.741Zm21.328,4.317a6.643,6.643,0,0,1-1.159,4.081A3.714,3.714,0,0,1-17.319.205,4.069,4.069,0,0,1-20.5-1.077V4.266h-1.9v-15.36h1.733l.092,1.23A3.908,3.908,0,0,1-17.35-11.3a3.783,3.783,0,0,1,3.163,1.507A6.716,6.716,0,0,1-13.022-5.6Zm-1.9-.215a4.9,4.9,0,0,0-.8-2.963A2.576,2.576,0,0,0-17.914-9.69,2.789,2.789,0,0,0-20.5-8.162v5.3a2.794,2.794,0,0,0,2.6,1.518,2.564,2.564,0,0,0,2.169-1.082A5.351,5.351,0,0,0-14.919-5.64ZM-6.009.205A4.848,4.848,0,0,1-9.68-1.277,5.5,5.5,0,0,1-11.095-5.24v-.349a6.658,6.658,0,0,1,.631-2.948A4.919,4.919,0,0,1-8.7-10.567,4.434,4.434,0,0,1-6.245-11.3,4.155,4.155,0,0,1-2.881-9.875a6.171,6.171,0,0,1,1.2,4.081V-5H-9.2a3.944,3.944,0,0,0,.959,2.651,3.014,3.014,0,0,0,2.333,1.01,3.3,3.3,0,0,0,1.7-.41A4.277,4.277,0,0,0-2.984-2.84l1.159.9A4.659,4.659,0,0,1-6.009.205Zm-.236-9.946a2.53,2.53,0,0,0-1.928.836,4.062,4.062,0,0,0-.964,2.343h5.558v-.144a3.613,3.613,0,0,0-.779-2.24A2.382,2.382,0,0,0-6.245-9.741Zm12.12.349a5.685,5.685,0,0,0-.933-.072A2.5,2.5,0,0,0,2.41-7.875V0H.513V-11.095H2.358l.031,1.282A2.954,2.954,0,0,1,5.035-11.3a1.938,1.938,0,0,1,.841.144Zm3.527-1.7.051,1.23A4.1,4.1,0,0,1,12.746-11.3a3.172,3.172,0,0,1,3.168,1.784,4.2,4.2,0,0,1,1.441-1.292,4.255,4.255,0,0,1,2.1-.492q3.65,0,3.712,3.866V0h-1.9V-7.321A2.548,2.548,0,0,0,20.723-9.1,2.393,2.393,0,0,0,18.9-9.69a2.515,2.515,0,0,0-1.753.631,2.558,2.558,0,0,0-.81,1.7V0H14.427V-7.27a2.117,2.117,0,0,0-2.369-2.42A2.538,2.538,0,0,0,9.505-8.1V0h-1.9V-11.095ZM32.874,0a3.985,3.985,0,0,1-.267-1.169A4.233,4.233,0,0,1,29.449.205a3.916,3.916,0,0,1-2.692-.928,3,3,0,0,1-1.051-2.353,3.136,3.136,0,0,1,1.318-2.692,6.212,6.212,0,0,1,3.707-.959h1.846V-7.6a2.131,2.131,0,0,0-.595-1.584,2.39,2.39,0,0,0-1.753-.59,2.766,2.766,0,0,0-1.7.513,1.511,1.511,0,0,0-.687,1.241H25.932a2.618,2.618,0,0,1,.59-1.6,4.024,4.024,0,0,1,1.6-1.225,5.381,5.381,0,0,1,2.22-.451,4.386,4.386,0,0,1,3,.959A3.458,3.458,0,0,1,34.474-7.7v5.106a6.243,6.243,0,0,0,.39,2.43V0ZM29.726-1.446a3.334,3.334,0,0,0,1.692-.461,2.791,2.791,0,0,0,1.159-1.2V-5.383H31.09q-3.486,0-3.486,2.041A1.727,1.727,0,0,0,28.2-1.948,2.286,2.286,0,0,0,29.726-1.446Zm9.516-9.649L39.3-9.7a4.043,4.043,0,0,1,3.322-1.6q3.517,0,3.548,3.968V0h-1.9V-7.342a2.554,2.554,0,0,0-.549-1.774,2.2,2.2,0,0,0-1.677-.574,2.738,2.738,0,0,0-1.62.492,3.342,3.342,0,0,0-1.087,1.292V0h-1.9V-11.095Zm14.4,11.3a4.848,4.848,0,0,1-3.671-1.482A5.5,5.5,0,0,1,48.552-5.24v-.349a6.658,6.658,0,0,1,.631-2.948,4.919,4.919,0,0,1,1.764-2.03A4.434,4.434,0,0,1,53.4-11.3a4.155,4.155,0,0,1,3.363,1.425,6.171,6.171,0,0,1,1.2,4.081V-5H50.449a3.944,3.944,0,0,0,.959,2.651,3.014,3.014,0,0,0,2.333,1.01,3.3,3.3,0,0,0,1.7-.41,4.277,4.277,0,0,0,1.22-1.087l1.159.9A4.659,4.659,0,0,1,53.638.205ZM53.4-9.741a2.53,2.53,0,0,0-1.928.836,4.062,4.062,0,0,0-.964,2.343h5.558v-.144a3.613,3.613,0,0,0-.779-2.24A2.382,2.382,0,0,0,53.4-9.741Zm11.208,8.4a2.732,2.732,0,0,0,1.774-.615A2.164,2.164,0,0,0,67.225-3.5h1.794a3.44,3.44,0,0,1-.656,1.815A4.322,4.322,0,0,1,66.748-.308,4.66,4.66,0,0,1,64.61.205a4.57,4.57,0,0,1-3.6-1.512,6.024,6.024,0,0,1-1.338-4.137v-.318a6.679,6.679,0,0,1,.595-2.881A4.53,4.53,0,0,1,61.969-10.6a4.85,4.85,0,0,1,2.63-.7,4.45,4.45,0,0,1,3.1,1.118,3.994,3.994,0,0,1,1.318,2.9H67.225a2.614,2.614,0,0,0-.815-1.769,2.536,2.536,0,0,0-1.81-.692A2.655,2.655,0,0,0,62.359-8.7a4.888,4.888,0,0,0-.795,3.01v.359a4.79,4.79,0,0,0,.79,2.953A2.668,2.668,0,0,0,64.61-1.343ZM75.756.205a4.848,4.848,0,0,1-3.671-1.482A5.5,5.5,0,0,1,70.67-5.24v-.349A6.658,6.658,0,0,1,71.3-8.536a4.919,4.919,0,0,1,1.764-2.03A4.434,4.434,0,0,1,75.52-11.3a4.155,4.155,0,0,1,3.363,1.425,6.171,6.171,0,0,1,1.2,4.081V-5H72.567a3.944,3.944,0,0,0,.959,2.651,3.014,3.014,0,0,0,2.333,1.01,3.3,3.3,0,0,0,1.7-.41,4.277,4.277,0,0,0,1.22-1.087l1.159.9A4.659,4.659,0,0,1,75.756.205ZM75.52-9.741a2.53,2.53,0,0,0-1.928.836,4.062,4.062,0,0,0-.964,2.343h5.558v-.144a3.613,3.613,0,0,0-.779-2.24A2.382,2.382,0,0,0,75.52-9.741Zm12.12.349a5.685,5.685,0,0,0-.933-.072,2.5,2.5,0,0,0-2.533,1.589V0h-1.9V-11.095h1.846l.031,1.282A2.954,2.954,0,0,1,86.8-11.3a1.938,1.938,0,0,1,.841.144Zm-189.754,34.6a4.848,4.848,0,0,1-3.671-1.482A5.5,5.5,0,0,1-107.2,19.76v-.349a6.658,6.658,0,0,1,.631-2.948,4.919,4.919,0,0,1,1.764-2.03,4.434,4.434,0,0,1,2.456-.733,4.155,4.155,0,0,1,3.363,1.425,6.171,6.171,0,0,1,1.2,4.081V20H-105.3a3.944,3.944,0,0,0,.959,2.651,3.014,3.014,0,0,0,2.333,1.01,3.3,3.3,0,0,0,1.7-.41,4.277,4.277,0,0,0,1.22-1.087l1.159.9A4.659,4.659,0,0,1-102.114,25.205Zm-.236-9.946a2.53,2.53,0,0,0-1.928.836,4.062,4.062,0,0,0-.964,2.343h5.558v-.144a3.613,3.613,0,0,0-.779-2.24A2.382,2.382,0,0,0-102.349,15.259ZM-93.531,25h-1.9V9.25h1.9Zm13.6-9.393a5.685,5.685,0,0,0-.933-.072A2.5,2.5,0,0,0-83.4,17.125V25h-1.9V13.905h1.846l.031,1.282A2.954,2.954,0,0,1-80.775,13.7a1.938,1.938,0,0,1,.841.144Zm6.347,9.6a4.848,4.848,0,0,1-3.671-1.482,5.5,5.5,0,0,1-1.415-3.963v-.349a6.658,6.658,0,0,1,.631-2.948,4.919,4.919,0,0,1,1.764-2.03,4.434,4.434,0,0,1,2.456-.733,4.155,4.155,0,0,1,3.363,1.425,6.171,6.171,0,0,1,1.2,4.081V20h-7.516a3.944,3.944,0,0,0,.959,2.651,3.014,3.014,0,0,0,2.333,1.01,3.3,3.3,0,0,0,1.7-.41,4.277,4.277,0,0,0,1.22-1.087l1.159.9A4.659,4.659,0,0,1-73.587,25.205Zm-.236-9.946a2.53,2.53,0,0,0-1.928.836,4.062,4.062,0,0,0-.964,2.343h5.558v-.144a3.613,3.613,0,0,0-.779-2.24A2.382,2.382,0,0,0-73.823,15.259Zm13.217,6.8a1.4,1.4,0,0,0-.579-1.195,5.576,5.576,0,0,0-2.02-.733,9.551,9.551,0,0,1-2.287-.738,3.253,3.253,0,0,1-1.251-1.025,2.453,2.453,0,0,1-.405-1.415,2.878,2.878,0,0,1,1.154-2.307,4.505,4.505,0,0,1,2.948-.943,4.636,4.636,0,0,1,3.061.974,3.094,3.094,0,0,1,1.174,2.492h-1.907a1.713,1.713,0,0,0-.661-1.343,2.478,2.478,0,0,0-1.666-.564,2.593,2.593,0,0,0-1.62.451,1.42,1.42,0,0,0-.584,1.179,1.151,1.151,0,0,0,.543,1.036,6.687,6.687,0,0,0,1.964.667,10.231,10.231,0,0,1,2.3.759,3.358,3.358,0,0,1,1.307,1.061,2.609,2.609,0,0,1,.426,1.512A2.839,2.839,0,0,1-59.9,24.308a4.989,4.989,0,0,1-3.086.9,5.587,5.587,0,0,1-2.358-.472,3.836,3.836,0,0,1-1.6-1.318,3.176,3.176,0,0,1-.579-1.83h1.9a1.964,1.964,0,0,0,.764,1.512,2.964,2.964,0,0,0,1.882.559,3.059,3.059,0,0,0,1.728-.436A1.339,1.339,0,0,0-60.606,22.057Zm6.942-10.838v2.687h2.071v1.466h-2.071v6.889a1.54,1.54,0,0,0,.277,1,1.165,1.165,0,0,0,.943.334,4.593,4.593,0,0,0,.9-.123V25a5.532,5.532,0,0,1-1.456.2,2.362,2.362,0,0,1-1.917-.769,3.3,3.3,0,0,1-.646-2.184v-6.88h-2.02V13.905h2.02V11.219Zm3.579,8.131a6.553,6.553,0,0,1,.641-2.933,4.781,4.781,0,0,1,1.784-2.01,4.857,4.857,0,0,1,2.61-.708,4.679,4.679,0,0,1,3.666,1.569,6.036,6.036,0,0,1,1.4,4.173v.133a6.61,6.61,0,0,1-.62,2.907,4.71,4.71,0,0,1-1.774,2,4.913,4.913,0,0,1-2.651.718,4.667,4.667,0,0,1-3.656-1.569,6.005,6.005,0,0,1-1.4-4.153Zm1.907.226a4.746,4.746,0,0,0,.856,2.963,2.74,2.74,0,0,0,2.292,1.118,2.724,2.724,0,0,0,2.3-1.133,5.19,5.19,0,0,0,.851-3.174,4.738,4.738,0,0,0-.866-2.958,2.755,2.755,0,0,0-2.3-1.133,2.724,2.724,0,0,0-2.266,1.118A5.152,5.152,0,0,0-48.178,19.576Zm15.309-.215a6.5,6.5,0,0,1,1.21-4.107A3.826,3.826,0,0,1-28.49,13.7,3.848,3.848,0,0,1-25.4,15.033V9.25h1.9V25H-25.25l-.092-1.189a3.863,3.863,0,0,1-3.168,1.395,3.789,3.789,0,0,1-3.143-1.579A6.573,6.573,0,0,1-32.869,19.5Zm1.9.215a4.921,4.921,0,0,0,.779,2.953A2.519,2.519,0,0,0-28.039,23.6a2.767,2.767,0,0,0,2.635-1.62v-5.1a2.789,2.789,0,0,0-2.615-1.569,2.531,2.531,0,0,0-2.174,1.077A5.418,5.418,0,0,0-30.972,19.576Zm15.012,5.629a4.848,4.848,0,0,1-3.671-1.482,5.5,5.5,0,0,1-1.415-3.963v-.349a6.658,6.658,0,0,1,.631-2.948,4.919,4.919,0,0,1,1.764-2.03A4.434,4.434,0,0,1-16.2,13.7a4.155,4.155,0,0,1,3.363,1.425,6.171,6.171,0,0,1,1.2,4.081V20h-7.516a3.944,3.944,0,0,0,.959,2.651,3.014,3.014,0,0,0,2.333,1.01,3.3,3.3,0,0,0,1.7-.41,4.277,4.277,0,0,0,1.22-1.087l1.159.9A4.659,4.659,0,0,1-15.96,25.205Zm-.236-9.946a2.53,2.53,0,0,0-1.928.836,4.062,4.062,0,0,0-.964,2.343h5.558v-.144a3.613,3.613,0,0,0-.779-2.24A2.382,2.382,0,0,0-16.2,15.259Zm13.75-1.354.062,1.395A4.043,4.043,0,0,1,.938,13.7q3.517,0,3.548,3.968V25h-1.9V17.658a2.554,2.554,0,0,0-.549-1.774A2.2,2.2,0,0,0,.364,15.31a2.738,2.738,0,0,0-1.62.492,3.342,3.342,0,0,0-1.087,1.292V25h-1.9V13.905ZM14.2,23.9a4.029,4.029,0,0,1-3.25,1.3,3.449,3.449,0,0,1-2.7-1.031,4.461,4.461,0,0,1-.938-3.051V13.905H9.2v7.167q0,2.522,2.051,2.522a2.84,2.84,0,0,0,2.892-1.62v-8.07h1.9V25h-1.8Zm9.331,1.3a4.848,4.848,0,0,1-3.671-1.482,5.5,5.5,0,0,1-1.415-3.963v-.349a6.658,6.658,0,0,1,.631-2.948,4.919,4.919,0,0,1,1.764-2.03,4.434,4.434,0,0,1,2.456-.733,4.155,4.155,0,0,1,3.363,1.425,6.171,6.171,0,0,1,1.2,4.081V20H20.339a3.944,3.944,0,0,0,.959,2.651,3.014,3.014,0,0,0,2.333,1.01,3.3,3.3,0,0,0,1.7-.41,4.277,4.277,0,0,0,1.22-1.087l1.159.9A4.659,4.659,0,0,1,23.528,25.205Zm-.236-9.946a2.53,2.53,0,0,0-1.928.836,4.062,4.062,0,0,0-.964,2.343h5.558v-.144a3.613,3.613,0,0,0-.779-2.24A2.382,2.382,0,0,0,23.292,15.259Zm13.217,6.8a1.4,1.4,0,0,0-.579-1.195,5.576,5.576,0,0,0-2.02-.733,9.551,9.551,0,0,1-2.287-.738,3.253,3.253,0,0,1-1.251-1.025,2.453,2.453,0,0,1-.405-1.415,2.878,2.878,0,0,1,1.154-2.307,4.505,4.505,0,0,1,2.948-.943,4.636,4.636,0,0,1,3.061.974A3.094,3.094,0,0,1,38.3,17.166H36.4a1.713,1.713,0,0,0-.661-1.343,2.478,2.478,0,0,0-1.666-.564,2.593,2.593,0,0,0-1.62.451,1.42,1.42,0,0,0-.584,1.179,1.151,1.151,0,0,0,.543,1.036,6.687,6.687,0,0,0,1.964.667,10.231,10.231,0,0,1,2.3.759,3.358,3.358,0,0,1,1.307,1.061,2.609,2.609,0,0,1,.426,1.512,2.839,2.839,0,0,1-1.189,2.384,4.989,4.989,0,0,1-3.086.9,5.587,5.587,0,0,1-2.358-.472,3.836,3.836,0,0,1-1.6-1.318,3.176,3.176,0,0,1-.579-1.83h1.9a1.964,1.964,0,0,0,.764,1.512,2.964,2.964,0,0,0,1.882.559,3.059,3.059,0,0,0,1.728-.436A1.339,1.339,0,0,0,36.509,22.057Zm6.942-10.838v2.687h2.071v1.466H43.451v6.889a1.54,1.54,0,0,0,.277,1,1.165,1.165,0,0,0,.943.334,4.593,4.593,0,0,0,.9-.123V25a5.532,5.532,0,0,1-1.456.2,2.362,2.362,0,0,1-1.917-.769,3.3,3.3,0,0,1-.646-2.184v-6.88h-2.02V13.905h2.02V11.219ZM53.1,15.607a5.685,5.685,0,0,0-.933-.072,2.5,2.5,0,0,0-2.533,1.589V25h-1.9V13.905h1.846l.031,1.282A2.954,2.954,0,0,1,52.259,13.7a1.938,1.938,0,0,1,.841.144ZM61.282,25a3.985,3.985,0,0,1-.267-1.169,4.233,4.233,0,0,1-3.158,1.374,3.916,3.916,0,0,1-2.692-.928,3,3,0,0,1-1.051-2.353,3.136,3.136,0,0,1,1.318-2.692,6.212,6.212,0,0,1,3.707-.959h1.846V17.4a2.131,2.131,0,0,0-.595-1.584,2.39,2.39,0,0,0-1.753-.59,2.766,2.766,0,0,0-1.7.513,1.511,1.511,0,0,0-.687,1.241H54.341a2.618,2.618,0,0,1,.59-1.6,4.024,4.024,0,0,1,1.6-1.225,5.381,5.381,0,0,1,2.22-.451,4.386,4.386,0,0,1,3,.959,3.458,3.458,0,0,1,1.128,2.64v5.106a6.243,6.243,0,0,0,.39,2.43V25Zm-3.148-1.446a3.334,3.334,0,0,0,1.692-.461,2.791,2.791,0,0,0,1.159-1.2V19.617H59.5q-3.486,0-3.486,2.041a1.727,1.727,0,0,0,.595,1.395A2.286,2.286,0,0,0,58.135,23.554Zm16.581-1.128,2.748-8.521H79.4L75.423,25H73.977l-4.02-11.095H71.9ZM83.287,25h-1.9V13.905h1.9ZM81.237,10.962a1.132,1.132,0,0,1,.282-.779,1.059,1.059,0,0,1,.836-.318,1.075,1.075,0,0,1,.841.318,1.12,1.12,0,0,1,.287.779,1.084,1.084,0,0,1-.287.769,1.1,1.1,0,0,1-.841.308,1.078,1.078,0,0,1-.836-.308A1.1,1.1,0,0,1,81.237,10.962Zm4.625,8.4a6.5,6.5,0,0,1,1.21-4.107,4.117,4.117,0,0,1,6.255-.22V9.25h1.9V25H93.48l-.092-1.189a3.863,3.863,0,0,1-3.168,1.395,3.789,3.789,0,0,1-3.143-1.579A6.573,6.573,0,0,1,85.861,19.5Zm1.9.215a4.921,4.921,0,0,0,.779,2.953A2.519,2.519,0,0,0,90.691,23.6a2.767,2.767,0,0,0,2.635-1.62v-5.1a2.789,2.789,0,0,0-2.615-1.569,2.531,2.531,0,0,0-2.174,1.077A5.418,5.418,0,0,0,87.758,19.576ZM105.015,25a3.985,3.985,0,0,1-.267-1.169,4.233,4.233,0,0,1-3.158,1.374,3.916,3.916,0,0,1-2.692-.928,3,3,0,0,1-1.051-2.353,3.136,3.136,0,0,1,1.318-2.692,6.212,6.212,0,0,1,3.707-.959h1.846V17.4a2.131,2.131,0,0,0-.595-1.584,2.39,2.39,0,0,0-1.753-.59,2.766,2.766,0,0,0-1.7.513,1.511,1.511,0,0,0-.687,1.241H98.073a2.618,2.618,0,0,1,.59-1.6,4.024,4.024,0,0,1,1.6-1.225,5.381,5.381,0,0,1,2.22-.451,4.386,4.386,0,0,1,3,.959,3.458,3.458,0,0,1,1.128,2.64v5.106a6.243,6.243,0,0,0,.39,2.43V25Zm-3.148-1.446a3.334,3.334,0,0,0,1.692-.461,2.791,2.791,0,0,0,1.159-1.2V19.617h-1.487q-3.486,0-3.486,2.041a1.727,1.727,0,0,0,.595,1.395A2.286,2.286,0,0,0,101.867,23.554Z" transform="translate(1204.027 16398.438)"/>
    <path id="Trazado_200330" data-name="Trazado 200330" d="M-26.5-5.752h-3.34V0h-1.885V-14.219h4.707a5.571,5.571,0,0,1,3.7,1.094,3.935,3.935,0,0,1,1.294,3.184,3.828,3.828,0,0,1-.718,2.314,4.285,4.285,0,0,1-2,1.475L-21.4-.117V0h-2.012Zm-3.34-1.533h2.881a3.249,3.249,0,0,0,2.222-.724,2.448,2.448,0,0,0,.825-1.937,2.578,2.578,0,0,0-.786-2.025,3.329,3.329,0,0,0-2.271-.714h-2.871ZM-15.3.2a4.617,4.617,0,0,1-3.5-1.411A5.237,5.237,0,0,1-20.142-4.99v-.332a6.341,6.341,0,0,1,.6-2.808,4.685,4.685,0,0,1,1.68-1.934,4.223,4.223,0,0,1,2.339-.7,3.957,3.957,0,0,1,3.2,1.357,5.877,5.877,0,0,1,1.143,3.887v.752h-7.158a3.756,3.756,0,0,0,.913,2.524,2.87,2.87,0,0,0,2.222.962,3.147,3.147,0,0,0,1.621-.391,4.073,4.073,0,0,0,1.162-1.035l1.1.859A4.437,4.437,0,0,1-15.3.2Zm-.225-9.473a2.41,2.41,0,0,0-1.836.8,3.868,3.868,0,0,0-.918,2.231h5.293v-.137a3.441,3.441,0,0,0-.742-2.134A2.269,2.269,0,0,0-15.522-9.277ZM-.161-5.166a6.327,6.327,0,0,1-1.1,3.887A3.537,3.537,0,0,1-4.253.2,3.875,3.875,0,0,1-7.28-1.025V4.063H-9.087V-10.566h1.65l.088,1.172a3.722,3.722,0,0,1,3.066-1.367A3.6,3.6,0,0,1-1.27-9.326,6.4,6.4,0,0,1-.161-5.332Zm-1.807-.205a4.669,4.669,0,0,0-.762-2.822,2.454,2.454,0,0,0-2.09-1.035A2.656,2.656,0,0,0-7.28-7.773v5.049A2.661,2.661,0,0,0-4.8-1.279,2.442,2.442,0,0,0-2.734-2.31,5.1,5.1,0,0,0-1.968-5.371ZM8.657,0A3.8,3.8,0,0,1,8.4-1.113,4.031,4.031,0,0,1,5.4.2,3.73,3.73,0,0,1,2.832-.688a2.859,2.859,0,0,1-1-2.241A2.987,2.987,0,0,1,3.086-5.493a5.916,5.916,0,0,1,3.53-.913H8.374v-.83a2.029,2.029,0,0,0-.566-1.509,2.276,2.276,0,0,0-1.67-.562,2.634,2.634,0,0,0-1.621.488,1.439,1.439,0,0,0-.654,1.182H2.046a2.493,2.493,0,0,1,.562-1.528,3.832,3.832,0,0,1,1.523-1.167,5.125,5.125,0,0,1,2.114-.43,4.177,4.177,0,0,1,2.861.913,3.294,3.294,0,0,1,1.074,2.515v4.863a5.946,5.946,0,0,0,.371,2.314V0Zm-3-1.377a3.175,3.175,0,0,0,1.611-.439,2.658,2.658,0,0,0,1.1-1.143V-5.127H6.958q-3.32,0-3.32,1.943A1.645,1.645,0,0,0,4.2-1.855,2.177,2.177,0,0,0,5.659-1.377ZM19.165-2.8a1.33,1.33,0,0,0-.552-1.138,5.311,5.311,0,0,0-1.924-.7,9.1,9.1,0,0,1-2.178-.7,3.1,3.1,0,0,1-1.191-.977,2.336,2.336,0,0,1-.386-1.348,2.741,2.741,0,0,1,1.1-2.2,4.291,4.291,0,0,1,2.808-.9,4.415,4.415,0,0,1,2.915.928,2.947,2.947,0,0,1,1.118,2.373H19.058a1.631,1.631,0,0,0-.63-1.279,2.36,2.36,0,0,0-1.587-.537,2.47,2.47,0,0,0-1.543.43,1.353,1.353,0,0,0-.557,1.123,1.1,1.1,0,0,0,.518.986,6.368,6.368,0,0,0,1.87.635,9.744,9.744,0,0,1,2.192.723A3.2,3.2,0,0,1,20.566-4.37a2.485,2.485,0,0,1,.405,1.44A2.7,2.7,0,0,1,19.839-.659,4.752,4.752,0,0,1,16.9.2a5.321,5.321,0,0,1-2.246-.449,3.653,3.653,0,0,1-1.528-1.255,3.025,3.025,0,0,1-.552-1.743H14.38a1.87,1.87,0,0,0,.728,1.44,2.822,2.822,0,0,0,1.792.532,2.913,2.913,0,0,0,1.646-.415A1.275,1.275,0,0,0,19.165-2.8Zm3.682-2.578a6.241,6.241,0,0,1,.61-2.793,4.553,4.553,0,0,1,1.7-1.914,4.626,4.626,0,0,1,2.485-.674,4.456,4.456,0,0,1,3.491,1.494,5.748,5.748,0,0,1,1.333,3.975v.127A6.3,6.3,0,0,1,31.875-2.4,4.486,4.486,0,0,1,30.186-.488,4.679,4.679,0,0,1,27.661.2,4.445,4.445,0,0,1,24.18-1.3a5.719,5.719,0,0,1-1.333-3.955Zm1.816.215a4.52,4.52,0,0,0,.815,2.822,2.61,2.61,0,0,0,2.183,1.064,2.594,2.594,0,0,0,2.188-1.079,4.943,4.943,0,0,0,.811-3.022A4.513,4.513,0,0,0,29.834-8.2a2.623,2.623,0,0,0-2.192-1.079,2.594,2.594,0,0,0-2.158,1.064A4.906,4.906,0,0,0,24.663-5.166Z" transform="translate(764.377 16423.771)"/>
    <path id="Trazado_200331" data-name="Trazado 200331" d="M104.082,0c57.483,0,104.082,25.418,104.082,56.772s-46.6,56.772-104.082,56.772S0,88.126,0,56.772,46.6,0,104.082,0Z" transform="translate(348.078 16313.947)" fill="#bebeff"/>
    <path id="Trazado_200332" data-name="Trazado 200332" d="M-52.731,0H-54.7V-14.93h1.969Zm5.1-11.095.062,1.395a4.043,4.043,0,0,1,3.322-1.6q3.517,0,3.548,3.968V0h-1.9V-7.342a2.554,2.554,0,0,0-.549-1.774,2.2,2.2,0,0,0-1.677-.574,2.738,2.738,0,0,0-1.62.492,3.342,3.342,0,0,0-1.087,1.292V0h-1.9V-11.095ZM-36.909,0V-9.628h-1.753v-1.466h1.753v-1.138a3.778,3.778,0,0,1,.954-2.758,3.6,3.6,0,0,1,2.7-.974,5.009,5.009,0,0,1,1.3.173l-.1,1.529a5.448,5.448,0,0,0-1.025-.092,1.851,1.851,0,0,0-1.425.54,2.19,2.19,0,0,0-.5,1.548v1.173h2.369v1.466h-2.369V0Zm5.855-5.65a6.553,6.553,0,0,1,.641-2.933,4.781,4.781,0,0,1,1.784-2.01,4.857,4.857,0,0,1,2.61-.708,4.679,4.679,0,0,1,3.666,1.569,6.036,6.036,0,0,1,1.4,4.173v.133a6.61,6.61,0,0,1-.62,2.907,4.71,4.71,0,0,1-1.774,2A4.913,4.913,0,0,1-26,.205a4.667,4.667,0,0,1-3.656-1.569,6.005,6.005,0,0,1-1.4-4.153Zm1.907.226a4.746,4.746,0,0,0,.856,2.963A2.74,2.74,0,0,0-26-1.343a2.724,2.724,0,0,0,2.3-1.133,5.19,5.19,0,0,0,.851-3.174,4.738,4.738,0,0,0-.866-2.958,2.755,2.755,0,0,0-2.3-1.133,2.724,2.724,0,0,0-2.266,1.118A5.152,5.152,0,0,0-29.147-5.424Zm15.935-3.968a5.685,5.685,0,0,0-.933-.072,2.5,2.5,0,0,0-2.533,1.589V0h-1.9V-11.095h1.846l.031,1.282A2.954,2.954,0,0,1-14.053-11.3a1.938,1.938,0,0,1,.841.144Zm3.527-1.7.051,1.23A4.1,4.1,0,0,1-6.342-11.3,3.172,3.172,0,0,1-3.174-9.516a4.2,4.2,0,0,1,1.441-1.292,4.255,4.255,0,0,1,2.1-.492q3.65,0,3.712,3.866V0h-1.9V-7.321A2.548,2.548,0,0,0,1.635-9.1,2.393,2.393,0,0,0-.19-9.69a2.515,2.515,0,0,0-1.753.631,2.558,2.558,0,0,0-.81,1.7V0H-4.66V-7.27A2.117,2.117,0,0,0-7.029-9.69,2.538,2.538,0,0,0-9.582-8.1V0h-1.9V-11.095ZM13.786,0a3.985,3.985,0,0,1-.267-1.169A4.233,4.233,0,0,1,10.362.205,3.916,3.916,0,0,1,7.67-.723,3,3,0,0,1,6.619-3.076,3.136,3.136,0,0,1,7.937-5.768a6.212,6.212,0,0,1,3.707-.959h1.846V-7.6a2.131,2.131,0,0,0-.595-1.584,2.39,2.39,0,0,0-1.753-.59,2.766,2.766,0,0,0-1.7.513,1.511,1.511,0,0,0-.687,1.241H6.844a2.618,2.618,0,0,1,.59-1.6,4.024,4.024,0,0,1,1.6-1.225,5.381,5.381,0,0,1,2.22-.451,4.386,4.386,0,0,1,3,.959A3.459,3.459,0,0,1,15.386-7.7v5.106a6.243,6.243,0,0,0,.39,2.43V0ZM10.638-1.446a3.334,3.334,0,0,0,1.692-.461,2.791,2.791,0,0,0,1.159-1.2V-5.383H12q-3.486,0-3.486,2.041a1.727,1.727,0,0,0,.595,1.395A2.286,2.286,0,0,0,10.638-1.446Zm12.171.1a2.732,2.732,0,0,0,1.774-.615A2.164,2.164,0,0,0,25.425-3.5h1.794a3.44,3.44,0,0,1-.656,1.815A4.322,4.322,0,0,1,24.948-.308,4.66,4.66,0,0,1,22.81.205a4.57,4.57,0,0,1-3.6-1.512,6.024,6.024,0,0,1-1.338-4.137v-.318a6.679,6.679,0,0,1,.595-2.881A4.53,4.53,0,0,1,20.169-10.6a4.85,4.85,0,0,1,2.63-.7,4.45,4.45,0,0,1,3.1,1.118,3.994,3.994,0,0,1,1.318,2.9H25.425a2.614,2.614,0,0,0-.815-1.769,2.536,2.536,0,0,0-1.81-.692A2.655,2.655,0,0,0,20.559-8.7a4.888,4.888,0,0,0-.795,3.01v.359a4.79,4.79,0,0,0,.79,2.953A2.668,2.668,0,0,0,22.81-1.343ZM31.413,0h-1.9V-11.095h1.9ZM29.362-14.038a1.132,1.132,0,0,1,.282-.779,1.059,1.059,0,0,1,.836-.318,1.075,1.075,0,0,1,.841.318,1.12,1.12,0,0,1,.287.779,1.084,1.084,0,0,1-.287.769,1.1,1.1,0,0,1-.841.308,1.078,1.078,0,0,1-.836-.308A1.1,1.1,0,0,1,29.362-14.038ZM33.946-5.65a6.553,6.553,0,0,1,.641-2.933,4.781,4.781,0,0,1,1.784-2.01,4.857,4.857,0,0,1,2.61-.708,4.679,4.679,0,0,1,3.666,1.569,6.036,6.036,0,0,1,1.4,4.173v.133a6.61,6.61,0,0,1-.62,2.907,4.71,4.71,0,0,1-1.774,2A4.913,4.913,0,0,1,39,.205a4.667,4.667,0,0,1-3.656-1.569,6.005,6.005,0,0,1-1.4-4.153Zm1.907.226a4.746,4.746,0,0,0,.856,2.963A2.74,2.74,0,0,0,39-1.343a2.724,2.724,0,0,0,2.3-1.133,5.19,5.19,0,0,0,.851-3.174,4.738,4.738,0,0,0-.866-2.958,2.755,2.755,0,0,0-2.3-1.133,2.724,2.724,0,0,0-2.266,1.118A5.152,5.152,0,0,0,35.853-5.424ZM39.842-15.75h2.3L39.39-12.735l-1.528-.005Zm8.377,4.655L48.281-9.7A4.043,4.043,0,0,1,51.6-11.3q3.517,0,3.548,3.968V0h-1.9V-7.342a2.554,2.554,0,0,0-.549-1.774,2.2,2.2,0,0,0-1.677-.574,2.738,2.738,0,0,0-1.62.492,3.342,3.342,0,0,0-1.087,1.292V0h-1.9V-11.095ZM-51.059,19.36a6.5,6.5,0,0,1,1.21-4.107A3.826,3.826,0,0,1-46.681,13.7a3.848,3.848,0,0,1,3.086,1.333V9.25h1.9V25h-1.743l-.092-1.189A3.863,3.863,0,0,1-46.7,25.205a3.789,3.789,0,0,1-3.143-1.579A6.573,6.573,0,0,1-51.059,19.5Zm1.9.215a4.921,4.921,0,0,0,.779,2.953A2.519,2.519,0,0,0-46.23,23.6a2.767,2.767,0,0,0,2.635-1.62v-5.1a2.789,2.789,0,0,0-2.615-1.569,2.531,2.531,0,0,0-2.174,1.077A5.418,5.418,0,0,0-49.162,19.576Zm15.012,5.629a4.848,4.848,0,0,1-3.671-1.482,5.5,5.5,0,0,1-1.415-3.963v-.349a6.658,6.658,0,0,1,.631-2.948,4.919,4.919,0,0,1,1.764-2.03,4.434,4.434,0,0,1,2.456-.733,4.155,4.155,0,0,1,3.363,1.425,6.171,6.171,0,0,1,1.2,4.081V20H-37.34a3.944,3.944,0,0,0,.959,2.651,3.014,3.014,0,0,0,2.333,1.01,3.3,3.3,0,0,0,1.7-.41,4.277,4.277,0,0,0,1.22-1.087l1.159.9A4.659,4.659,0,0,1-34.151,25.205Zm-.236-9.946a2.53,2.53,0,0,0-1.928.836,4.062,4.062,0,0,0-.964,2.343h5.558v-.144a3.613,3.613,0,0,0-.779-2.24A2.382,2.382,0,0,0-34.386,15.259ZM-25.568,25h-1.9V9.25h1.9Zm12.838.205A4.848,4.848,0,0,1-16.4,23.723a5.5,5.5,0,0,1-1.415-3.963v-.349a6.658,6.658,0,0,1,.631-2.948,4.919,4.919,0,0,1,1.764-2.03,4.434,4.434,0,0,1,2.456-.733A4.155,4.155,0,0,1-9.6,15.125a6.171,6.171,0,0,1,1.2,4.081V20h-7.516a3.944,3.944,0,0,0,.959,2.651,3.014,3.014,0,0,0,2.333,1.01,3.3,3.3,0,0,0,1.7-.41,4.277,4.277,0,0,0,1.22-1.087l1.159.9A4.659,4.659,0,0,1-12.73,25.205Zm-.236-9.946a2.53,2.53,0,0,0-1.928.836,4.062,4.062,0,0,0-.964,2.343H-10.3v-.144a3.613,3.613,0,0,0-.779-2.24A2.382,2.382,0,0,0-12.966,15.259Zm10.479,2.7,2.461-4.05H2.189l-3.63,5.486L2.3,25H.108l-2.563-4.153L-5.019,25h-2.2l3.743-5.609-3.63-5.486h2.194Zm9.259-6.737v2.687H8.844v1.466H6.773v6.889a1.54,1.54,0,0,0,.277,1,1.165,1.165,0,0,0,.943.334,4.593,4.593,0,0,0,.9-.123V25a5.532,5.532,0,0,1-1.456.2,2.362,2.362,0,0,1-1.917-.769,3.3,3.3,0,0,1-.646-2.184v-6.88H2.856V13.905h2.02V11.219Zm8.89,13.986a4.848,4.848,0,0,1-3.671-1.482,5.5,5.5,0,0,1-1.415-3.963v-.349a6.658,6.658,0,0,1,.631-2.948,4.919,4.919,0,0,1,1.764-2.03,4.434,4.434,0,0,1,2.456-.733,4.155,4.155,0,0,1,3.363,1.425,6.171,6.171,0,0,1,1.2,4.081V20H12.474a3.944,3.944,0,0,0,.959,2.651,3.014,3.014,0,0,0,2.333,1.01,3.3,3.3,0,0,0,1.7-.41,4.277,4.277,0,0,0,1.22-1.087l1.159.9A4.659,4.659,0,0,1,15.663,25.205Zm-.236-9.946a2.53,2.53,0,0,0-1.928.836,4.062,4.062,0,0,0-.964,2.343h5.558v-.144a3.613,3.613,0,0,0-.779-2.24A2.382,2.382,0,0,0,15.427,15.259Zm12.12.349a5.685,5.685,0,0,0-.933-.072,2.5,2.5,0,0,0-2.533,1.589V25h-1.9V13.905H24.03l.031,1.282A2.954,2.954,0,0,1,26.706,13.7a1.938,1.938,0,0,1,.841.144ZM31.351,25h-1.9V13.905h1.9ZM29.3,10.962a1.132,1.132,0,0,1,.282-.779,1.059,1.059,0,0,1,.836-.318,1.075,1.075,0,0,1,.841.318,1.12,1.12,0,0,1,.287.779,1.084,1.084,0,0,1-.287.769,1.1,1.1,0,0,1-.841.308,1.078,1.078,0,0,1-.836-.308A1.1,1.1,0,0,1,29.3,10.962Zm4.583,8.388a6.553,6.553,0,0,1,.641-2.933,4.781,4.781,0,0,1,1.784-2.01,4.857,4.857,0,0,1,2.61-.708,4.679,4.679,0,0,1,3.666,1.569,6.036,6.036,0,0,1,1.4,4.173v.133a6.61,6.61,0,0,1-.62,2.907,4.71,4.71,0,0,1-1.774,2,4.913,4.913,0,0,1-2.651.718,4.667,4.667,0,0,1-3.656-1.569,6.005,6.005,0,0,1-1.4-4.153Zm1.907.226a4.746,4.746,0,0,0,.856,2.963,2.9,2.9,0,0,0,4.589-.015,5.19,5.19,0,0,0,.851-3.174,4.738,4.738,0,0,0-.866-2.958,2.755,2.755,0,0,0-2.3-1.133,2.724,2.724,0,0,0-2.266,1.118A5.152,5.152,0,0,0,35.791,19.576Zm15.935-3.968a5.685,5.685,0,0,0-.933-.072,2.5,2.5,0,0,0-2.533,1.589V25h-1.9V13.905h1.846l.031,1.282A2.954,2.954,0,0,1,50.885,13.7a1.938,1.938,0,0,1,.841.144Z" transform="translate(450.382 16363.925)"/>
    <path id="Trazado_200333" data-name="Trazado 200333" d="M-15.327-6.65A8.8,8.8,0,0,1-16.03-3,5.326,5.326,0,0,1-18.022-.625,5.481,5.481,0,0,1-21.03.2,5.434,5.434,0,0,1-24.009-.63a5.453,5.453,0,0,1-2.017-2.354,8.439,8.439,0,0,1-.737-3.54V-7.549a8.691,8.691,0,0,1,.713-3.623,5.434,5.434,0,0,1,2.017-2.407,5.411,5.411,0,0,1,2.983-.835,5.512,5.512,0,0,1,3.013.825A5.316,5.316,0,0,1-16.03-11.2a8.838,8.838,0,0,1,.7,3.647Zm-1.865-.918a6.375,6.375,0,0,0-1.016-3.882A3.35,3.35,0,0,0-21.05-12.8a3.314,3.314,0,0,0-2.8,1.353A6.245,6.245,0,0,0-24.9-7.7V-6.65A6.384,6.384,0,0,0-23.867-2.8,3.328,3.328,0,0,0-21.03-1.4,3.314,3.314,0,0,0-18.218-2.72a6.348,6.348,0,0,0,1.025-3.794ZM-10.835,0h-1.807V-15h1.807Zm6.377-2.451,2.617-8.115H0L-3.784,0H-5.161L-8.989-10.566h1.846ZM3.706,0H1.9V-10.566H3.706ZM1.753-13.369a1.078,1.078,0,0,1,.269-.742,1.008,1.008,0,0,1,.8-.3,1.024,1.024,0,0,1,.8.3,1.067,1.067,0,0,1,.273.742,1.032,1.032,0,0,1-.273.732,1.043,1.043,0,0,1-.8.293,1.026,1.026,0,0,1-.8-.293A1.043,1.043,0,0,1,1.753-13.369Zm4.4,8A6.19,6.19,0,0,1,7.31-9.282a3.644,3.644,0,0,1,3.018-1.479,3.665,3.665,0,0,1,2.939,1.27V-15h1.807V0h-1.66l-.088-1.133A3.679,3.679,0,0,1,10.308.2a3.609,3.609,0,0,1-2.993-1.5A6.26,6.26,0,0,1,6.157-5.234Zm1.807.205a4.687,4.687,0,0,0,.742,2.813,2.4,2.4,0,0,0,2.051,1.016,2.636,2.636,0,0,0,2.51-1.543V-7.734a2.656,2.656,0,0,0-2.49-1.494A2.411,2.411,0,0,0,8.706-8.2,5.16,5.16,0,0,0,7.964-5.166ZM17.4-5.381a6.241,6.241,0,0,1,.61-2.793,4.553,4.553,0,0,1,1.7-1.914,4.626,4.626,0,0,1,2.485-.674,4.456,4.456,0,0,1,3.491,1.494,5.748,5.748,0,0,1,1.333,3.975v.127A6.3,6.3,0,0,1,26.426-2.4,4.486,4.486,0,0,1,24.736-.488,4.679,4.679,0,0,1,22.212.2,4.445,4.445,0,0,1,18.73-1.3,5.719,5.719,0,0,1,17.4-5.254Zm1.816.215a4.52,4.52,0,0,0,.815,2.822,2.61,2.61,0,0,0,2.183,1.064A2.594,2.594,0,0,0,24.4-2.358a4.943,4.943,0,0,0,.811-3.022A4.513,4.513,0,0,0,24.385-8.2a2.623,2.623,0,0,0-2.192-1.079,2.594,2.594,0,0,0-2.158,1.064A4.906,4.906,0,0,0,19.214-5.166Z" transform="translate(604.471 16720.582)"/>
    <path id="Trazado_200334" data-name="Trazado 200334" d="M-17.036,0h-1.816V-12.041L-22.5-10.7v-1.641l5.176-1.943h.283ZM-.454-2.8A1.33,1.33,0,0,0-1.006-3.94a5.311,5.311,0,0,0-1.924-.7,9.1,9.1,0,0,1-2.178-.7A3.1,3.1,0,0,1-6.3-6.318a2.336,2.336,0,0,1-.386-1.348,2.741,2.741,0,0,1,1.1-2.2,4.291,4.291,0,0,1,2.808-.9,4.415,4.415,0,0,1,2.915.928A2.947,2.947,0,0,1,1.255-7.461H-.562a1.631,1.631,0,0,0-.63-1.279,2.36,2.36,0,0,0-1.587-.537,2.47,2.47,0,0,0-1.543.43,1.353,1.353,0,0,0-.557,1.123,1.1,1.1,0,0,0,.518.986A6.368,6.368,0,0,0-2.49-6.1,9.744,9.744,0,0,1-.3-5.381,3.2,3.2,0,0,1,.947-4.37a2.485,2.485,0,0,1,.405,1.44A2.7,2.7,0,0,1,.22-.659,4.752,4.752,0,0,1-2.72.2,5.321,5.321,0,0,1-4.966-.254,3.653,3.653,0,0,1-6.494-1.509a3.025,3.025,0,0,1-.552-1.743h1.807a1.87,1.87,0,0,0,.728,1.44,2.822,2.822,0,0,0,1.792.532,2.913,2.913,0,0,0,1.646-.415A1.275,1.275,0,0,0-.454-2.8ZM8.091.2a4.617,4.617,0,0,1-3.5-1.411A5.237,5.237,0,0,1,3.247-4.99v-.332a6.341,6.341,0,0,1,.6-2.808,4.685,4.685,0,0,1,1.68-1.934,4.223,4.223,0,0,1,2.339-.7,3.957,3.957,0,0,1,3.2,1.357,5.877,5.877,0,0,1,1.143,3.887v.752H5.054a3.756,3.756,0,0,0,.913,2.524,2.87,2.87,0,0,0,2.222.962A3.147,3.147,0,0,0,9.81-1.67a4.073,4.073,0,0,0,1.162-1.035l1.1.859A4.437,4.437,0,0,1,8.091.2ZM7.866-9.277a2.41,2.41,0,0,0-1.836.8A3.868,3.868,0,0,0,5.112-6.25h5.293v-.137a3.441,3.441,0,0,0-.742-2.134A2.269,2.269,0,0,0,7.866-9.277Zm6.006,3.906A6.21,6.21,0,0,1,15.015-9.3a3.654,3.654,0,0,1,3.027-1.46A3.635,3.635,0,0,1,21.06-9.395l.088-1.172H22.8V-.254a4.3,4.3,0,0,1-1.216,3.232A4.487,4.487,0,0,1,18.315,4.16a5.435,5.435,0,0,1-2.236-.488,3.85,3.85,0,0,1-1.67-1.338l.938-1.084a3.533,3.533,0,0,0,2.842,1.436,2.768,2.768,0,0,0,2.056-.742,2.837,2.837,0,0,0,.737-2.09v-.908A3.713,3.713,0,0,1,18.022.2a3.609,3.609,0,0,1-3-1.494A6.529,6.529,0,0,1,13.872-5.371Zm1.816.205a4.738,4.738,0,0,0,.732,2.808,2.38,2.38,0,0,0,2.051,1.021,2.646,2.646,0,0,0,2.51-1.553V-7.715a2.677,2.677,0,0,0-2.49-1.514A2.4,2.4,0,0,0,16.431-8.2,5.16,5.16,0,0,0,15.688-5.166Z" transform="translate(605.369 16594.275)"/>
    <path id="Trazado_200188" data-name="Trazado 200188" d="M124.749,132.237,106.03,150.956,87.311,132.237" transform="translate(346.128 16330.39)" fill="none" stroke="#d100c9" stroke-linecap="round" stroke-linejoin="round" stroke-width="3"/>
    <path id="Trazado_200335" data-name="Trazado 200335" d="M0,78.589V0" transform="translate(608.308 16615.75)" fill="none" stroke="#d100c9" stroke-linecap="round" stroke-width="3"/>
    <path id="Trazado_200189" data-name="Trazado 200189" d="M188.51,219.209l-18.719,18.719-18.719-18.719" transform="translate(438.517 16456.41)" fill="none" stroke="#d100c9" stroke-linecap="round" stroke-linejoin="round" stroke-width="3"/>
    <path id="Trazado_200336" data-name="Trazado 200336" d="M-15.327-6.65A8.8,8.8,0,0,1-16.03-3,5.326,5.326,0,0,1-18.022-.625,5.481,5.481,0,0,1-21.03.2,5.434,5.434,0,0,1-24.009-.63a5.453,5.453,0,0,1-2.017-2.354,8.439,8.439,0,0,1-.737-3.54V-7.549a8.691,8.691,0,0,1,.713-3.623,5.434,5.434,0,0,1,2.017-2.407,5.411,5.411,0,0,1,2.983-.835,5.512,5.512,0,0,1,3.013.825A5.316,5.316,0,0,1-16.03-11.2a8.838,8.838,0,0,1,.7,3.647Zm-1.865-.918a6.375,6.375,0,0,0-1.016-3.882A3.35,3.35,0,0,0-21.05-12.8a3.314,3.314,0,0,0-2.8,1.353A6.245,6.245,0,0,0-24.9-7.7V-6.65A6.384,6.384,0,0,0-23.867-2.8,3.328,3.328,0,0,0-21.03-1.4,3.314,3.314,0,0,0-18.218-2.72a6.348,6.348,0,0,0,1.025-3.794ZM-10.835,0h-1.807V-15h1.807Zm6.377-2.451,2.617-8.115H0L-3.784,0H-5.161L-8.989-10.566h1.846ZM3.706,0H1.9V-10.566H3.706ZM1.753-13.369a1.078,1.078,0,0,1,.269-.742,1.008,1.008,0,0,1,.8-.3,1.024,1.024,0,0,1,.8.3,1.067,1.067,0,0,1,.273.742,1.032,1.032,0,0,1-.273.732,1.043,1.043,0,0,1-.8.293,1.026,1.026,0,0,1-.8-.293A1.043,1.043,0,0,1,1.753-13.369Zm4.4,8A6.19,6.19,0,0,1,7.31-9.282a3.644,3.644,0,0,1,3.018-1.479,3.665,3.665,0,0,1,2.939,1.27V-15h1.807V0h-1.66l-.088-1.133A3.679,3.679,0,0,1,10.308.2a3.609,3.609,0,0,1-2.993-1.5A6.26,6.26,0,0,1,6.157-5.234Zm1.807.205a4.687,4.687,0,0,0,.742,2.813,2.4,2.4,0,0,0,2.051,1.016,2.636,2.636,0,0,0,2.51-1.543V-7.734a2.656,2.656,0,0,0-2.49-1.494A2.411,2.411,0,0,0,8.706-8.2,5.16,5.16,0,0,0,7.964-5.166ZM17.4-5.381a6.241,6.241,0,0,1,.61-2.793,4.553,4.553,0,0,1,1.7-1.914,4.626,4.626,0,0,1,2.485-.674,4.456,4.456,0,0,1,3.491,1.494,5.748,5.748,0,0,1,1.333,3.975v.127A6.3,6.3,0,0,1,26.426-2.4,4.486,4.486,0,0,1,24.736-.488,4.679,4.679,0,0,1,22.212.2,4.445,4.445,0,0,1,18.73-1.3,5.719,5.719,0,0,1,17.4-5.254Zm1.816.215a4.52,4.52,0,0,0,.815,2.822,2.61,2.61,0,0,0,2.183,1.064A2.594,2.594,0,0,0,24.4-2.358a4.943,4.943,0,0,0,.811-3.022A4.513,4.513,0,0,0,24.385-8.2a2.623,2.623,0,0,0-2.192-1.079,2.594,2.594,0,0,0-2.158,1.064A4.906,4.906,0,0,0,19.214-5.166Z" transform="translate(930.108 16720.582)"/>
    <path id="Trazado_200337" data-name="Trazado 200337" d="M-25.962-7.988H-24.6a2.984,2.984,0,0,0,2.012-.674,2.251,2.251,0,0,0,.732-1.768,2.205,2.205,0,0,0-2.49-2.5,2.59,2.59,0,0,0-1.87.669,2.341,2.341,0,0,0-.7,1.772h-1.807A3.627,3.627,0,0,1-27.49-13.3a4.5,4.5,0,0,1,3.14-1.118A4.447,4.447,0,0,1-21.2-13.35a3.845,3.845,0,0,1,1.143,2.959,3.121,3.121,0,0,1-.6,1.8,3.626,3.626,0,0,1-1.636,1.3,3.494,3.494,0,0,1,1.812,1.23,3.417,3.417,0,0,1,.64,2.1,3.879,3.879,0,0,1-1.25,3.037A4.681,4.681,0,0,1-24.341.2,4.8,4.8,0,0,1-27.6-.889,3.6,3.6,0,0,1-28.853-3.75h1.816a2.324,2.324,0,0,0,.732,1.8,2.786,2.786,0,0,0,1.963.674,2.734,2.734,0,0,0,2-.684,2.634,2.634,0,0,0,.693-1.963,2.391,2.391,0,0,0-.762-1.9,3.319,3.319,0,0,0-2.2-.684h-1.357Zm17.52,1.924A8.263,8.263,0,0,1-9.526-1.348,3.855,3.855,0,0,1-12.915.2a3.883,3.883,0,0,1-3.369-1.509A7.843,7.843,0,0,1-17.417-5.82V-8.232a8.079,8.079,0,0,1,1.084-4.658,3.885,3.885,0,0,1,3.4-1.523,3.92,3.92,0,0,1,3.379,1.47A7.8,7.8,0,0,1-8.442-8.408Zm-1.807-2.471a6.62,6.62,0,0,0-.645-3.345,2.218,2.218,0,0,0-2.041-1.05,2.189,2.189,0,0,0-2.021,1.045,6.464,6.464,0,0,0-.654,3.213v2.891a6.726,6.726,0,0,0,.669,3.4,2.214,2.214,0,0,0,2.026,1.1,2.184,2.184,0,0,0,1.987-1.035,6.483,6.483,0,0,0,.679-3.262ZM5.161-2.8A1.33,1.33,0,0,0,4.609-3.94a5.311,5.311,0,0,0-1.924-.7,9.1,9.1,0,0,1-2.178-.7A3.1,3.1,0,0,1-.684-6.318a2.336,2.336,0,0,1-.386-1.348,2.741,2.741,0,0,1,1.1-2.2,4.291,4.291,0,0,1,2.808-.9,4.415,4.415,0,0,1,2.915.928A2.947,2.947,0,0,1,6.87-7.461H5.054a1.631,1.631,0,0,0-.63-1.279,2.36,2.36,0,0,0-1.587-.537,2.47,2.47,0,0,0-1.543.43A1.353,1.353,0,0,0,.737-7.725a1.1,1.1,0,0,0,.518.986,6.368,6.368,0,0,0,1.87.635,9.744,9.744,0,0,1,2.192.723A3.2,3.2,0,0,1,6.563-4.37a2.485,2.485,0,0,1,.405,1.44A2.7,2.7,0,0,1,5.835-.659,4.752,4.752,0,0,1,2.9.2,5.321,5.321,0,0,1,.649-.254,3.653,3.653,0,0,1-.879-1.509a3.025,3.025,0,0,1-.552-1.743H.376A1.87,1.87,0,0,0,1.1-1.812,2.822,2.822,0,0,0,2.9-1.279a2.913,2.913,0,0,0,1.646-.415A1.275,1.275,0,0,0,5.161-2.8Zm8.545,3a4.617,4.617,0,0,1-3.5-1.411A5.237,5.237,0,0,1,8.862-4.99v-.332a6.341,6.341,0,0,1,.6-2.808,4.685,4.685,0,0,1,1.68-1.934,4.223,4.223,0,0,1,2.339-.7,3.957,3.957,0,0,1,3.2,1.357,5.877,5.877,0,0,1,1.143,3.887v.752H10.669a3.756,3.756,0,0,0,.913,2.524,2.87,2.87,0,0,0,2.222.962,3.147,3.147,0,0,0,1.621-.391,4.073,4.073,0,0,0,1.162-1.035l1.1.859A4.437,4.437,0,0,1,13.706.2Zm-.225-9.473a2.41,2.41,0,0,0-1.836.8,3.868,3.868,0,0,0-.918,2.231h5.293v-.137a3.441,3.441,0,0,0-.742-2.134A2.269,2.269,0,0,0,13.481-9.277Zm6.006,3.906A6.21,6.21,0,0,1,20.63-9.3a3.654,3.654,0,0,1,3.027-1.46,3.635,3.635,0,0,1,3.018,1.367l.088-1.172h1.65V-.254A4.3,4.3,0,0,1,27.2,2.979,4.487,4.487,0,0,1,23.931,4.16a5.435,5.435,0,0,1-2.236-.488,3.85,3.85,0,0,1-1.67-1.338l.938-1.084A3.533,3.533,0,0,0,23.8,2.686a2.768,2.768,0,0,0,2.056-.742A2.837,2.837,0,0,0,26.6-.146v-.908A3.713,3.713,0,0,1,23.638.2a3.609,3.609,0,0,1-3-1.494A6.529,6.529,0,0,1,19.487-5.371Zm1.816.205a4.738,4.738,0,0,0,.732,2.808,2.38,2.38,0,0,0,2.051,1.021A2.646,2.646,0,0,0,26.6-2.891V-7.715a2.677,2.677,0,0,0-2.49-1.514A2.4,2.4,0,0,0,22.046-8.2,5.16,5.16,0,0,0,21.3-5.166Z" transform="translate(931.66 16594.275)"/>
    <path id="Trazado_200338" data-name="Trazado 200338" d="M0,78.589V0" transform="translate(933.945 16615.75)" fill="none" stroke="#d100c9" stroke-linecap="round" stroke-width="3"/>
    <path id="Trazado_200190" data-name="Trazado 200190" d="M321.478,219.209l-18.719,18.719L284.04,219.209" transform="translate(631.186 16456.41)" fill="none" stroke="#d100c9" stroke-linecap="round" stroke-linejoin="round" stroke-width="3"/>
    <path id="Trazado_200339" data-name="Trazado 200339" d="M0,43.442V0" transform="translate(764.455 16437.904)" fill="none" stroke="#d100c9" stroke-linecap="round" stroke-width="2"/>
    <path id="Trazado_200191" data-name="Trazado 200191" d="M252.27,132.237l-18.719,18.719-18.719-18.719" transform="translate(530.904 16330.39)" fill="none" stroke="#d100c9" stroke-linecap="round" stroke-linejoin="round" stroke-width="3"/>
    <path id="Trazado_200340" data-name="Trazado 200340" d="M0,43.442V0" transform="translate(1076.749 16437.904)" fill="none" stroke="#d100c9" stroke-linecap="round" stroke-width="2"/>
    <path id="Trazado_200192" data-name="Trazado 200192" d="M379.789,132.237l-18.719,18.719-18.719-18.719" transform="translate(715.678 16330.39)" fill="none" stroke="#d100c9" stroke-linecap="round" stroke-linejoin="round" stroke-width="3"/>
    <path id="Trazado_200193" data-name="Trazado 200193" d="M421.163,154.463V127.99h26.472" transform="translate(829.874 16324.236)" fill="none" stroke="#d100c9" stroke-linecap="round" stroke-linejoin="round" stroke-width="3"/>
    <path id="Trazado_200194" data-name="Trazado 200194" d="M196.153,143.124l-18.719,18.719-18.719-18.719" transform="translate(449.592 16346.166)" fill="none" stroke="#d100c9" stroke-linecap="round" stroke-linejoin="round" stroke-width="3"/>
    <path id="Trazado_200195" data-name="Trazado 200195" d="M306.191,143.124l-18.719,18.719-18.719-18.719" transform="translate(609.035 16346.166)" fill="none" stroke="#d100c9" stroke-linecap="round" stroke-linejoin="round" stroke-width="3"/>
    <path id="Trazado_200196" data-name="Trazado 200196" d="M166.359,229.373a134.741,134.741,0,0,1,269.482,0" transform="translate(460.667 16275.9)" fill="none" stroke="#d100c9" stroke-miterlimit="10" stroke-width="3"/>
    <path id="Trazado_200197" data-name="Trazado 200197" d="M276.4,165.781" transform="translate(620.11 16378.995)" fill="none" stroke="#d100c9" stroke-miterlimit="10" stroke-width="2"/>
    <path id="Trazado_200341" data-name="Trazado 200341" d="M0,0H312.293" transform="translate(764.455 16437.912)" fill="none" stroke="#d100c9" stroke-linecap="round" stroke-width="3"/>
    <path id="Trazado_200198" data-name="Trazado 200198" d="M422.48,129.649" transform="translate(831.783 16326.64)" fill="none" stroke="#d100c9" stroke-linecap="round" stroke-linejoin="round" stroke-width="2"/>
    <path id="Trazado_200199" data-name="Trazado 200199" d="M474.561,129.649a82.083,82.083,0,0,1-88.024,137.062" transform="translate(779.702 16326.64)" fill="none" stroke="#d100c9" stroke-linecap="round" stroke-linejoin="round" stroke-width="3"/>
  </g>
</svg>
