<svg xmlns="http://www.w3.org/2000/svg" xmlns:xlink="http://www.w3.org/1999/xlink" width="490" height="343.466" viewBox="0 0 490 343.466">
  <defs>
    <linearGradient id="linear-gradient" x1="0.451" y1="0.384" x2="0.049" y2="-0.558" gradientUnits="objectBoundingBox">
      <stop offset="0" stop-color="#b6d3fd"/>
      <stop offset="1" stop-color="#fa8c91"/>
    </linearGradient>
    <linearGradient id="linear-gradient-2" x1="0.743" y1="0.909" x2="-0.145" y2="-0.171" xlink:href="#linear-gradient"/>
    <linearGradient id="linear-gradient-3" x1="0.938" y1="0.724" x2="0.349" y2="0.433" xlink:href="#linear-gradient"/>
    <linearGradient id="linear-gradient-4" x1="0.799" y1="1.555" x2="-0.02" y2="-1.219" xlink:href="#linear-gradient"/>
    <linearGradient id="linear-gradient-5" x1="0.5" y1="1.112" x2="0.5" y2="0.415" gradientUnits="objectBoundingBox">
      <stop offset="0" stop-color="#5ec8fd"/>
      <stop offset="1"/>
    </linearGradient>
    <linearGradient id="linear-gradient-6" x1="0.5" y1="-0.048" x2="0.5" y2="1.164" xlink:href="#linear-gradient-5"/>
    <radialGradient id="radial-gradient" cx="0.5" cy="0.5" r="0.48" gradientTransform="translate(0)" gradientUnits="objectBoundingBox">
      <stop offset="0.312" stop-color="#fff"/>
      <stop offset="0.342" stop-color="#f4fbfe"/>
      <stop offset="0.394" stop-color="#d8f1fe"/>
      <stop offset="0.462" stop-color="#aae2fe"/>
      <stop offset="0.543" stop-color="#6cccfe"/>
      <stop offset="0.553" stop-color="#64cafe"/>
      <stop offset="0.608" stop-color="#5ab6e5"/>
      <stop offset="0.724" stop-color="#4184a7"/>
      <stop offset="0.891" stop-color="#1a3644"/>
      <stop offset="1"/>
    </radialGradient>
  </defs>
  <g id="Grupo_137310" data-name="Grupo 137310" transform="translate(-840 -2728)">
    <path id="Trazado_200204" data-name="Trazado 200204" d="M0,0H476V330H0Z" transform="translate(854 2741.466)" fill="#4747ff"/>
    <path id="Trazado_200205" data-name="Trazado 200205" d="M0,0H482V335H0Z" transform="translate(840 2728)" fill="#dbf6ff"/>
    <g id="Grupo_136380" data-name="Grupo 136380" transform="translate(357.094 2515.107)" opacity="0.41" style="mix-blend-mode: multiply;isolation: isolate">
      <g id="Grupo_136377" data-name="Grupo 136377">
        <path id="Trazado_198356" data-name="Trazado 198356" d="M570.225,324.662H557.533l-6.346-10.992,6.346-10.992h12.692l6.346,10.992Zm-11.915-1.346h11.138l5.569-9.646-5.569-9.645H558.31l-5.569,9.645Z" fill="#2d3a54"/>
      </g>
      <g id="Grupo_136378" data-name="Grupo 136378">
        <path id="Trazado_198357" data-name="Trazado 198357" d="M598.393,344.652H580.551L571.63,329.2l8.921-15.452h17.842l8.922,15.452ZM581.328,343.3h16.288L605.76,329.2l-8.144-14.105H581.328L573.184,329.2Z" fill="#2d3a54"/>
      </g>
      <g id="Grupo_136379" data-name="Grupo 136379" opacity="0.4">
        <path id="Trazado_198358" data-name="Trazado 198358" d="M558.86,314.634,547.806,333.78l11.054,19.146h22.108l11.054-19.146-11.054-19.146Z" fill="#2d3a54"/>
      </g>
    </g>
    <g id="Grupo_136399" data-name="Grupo 136399" transform="translate(357.094 2515.107)">
      <g id="Grupo_136398" data-name="Grupo 136398">
        <g id="Grupo_136382" data-name="Grupo 136382">
          <g id="Grupo_136381" data-name="Grupo 136381">
            <path id="Trazado_198359" data-name="Trazado 198359" d="M725.082,458.531c.963-.158,2.071-.322,3.356-.489v-1.373c-1.261.161-2.37.322-3.356.482Z" fill="#505ca9"/>
            <path id="Trazado_198360" data-name="Trazado 198360" d="M719,460.184c.258-.223,1.212-.755,4.677-1.406v-1.384c-6.091,1.125-6.1,2.17-6.1,2.79,0,.984,0,3.035,24.321,4.784.679.048,1.37.1,2.069.143v-1.356l-.778-.052C722.782,462.3,719.514,460.624,719,460.184Z" fill="#505ca9"/>
            <path id="Trazado_198361" data-name="Trazado 198361" d="M745.374,465.2c13.932.893,31.464,1.4,50.134,1.464v-1.351c-18.631-.06-36.215-.574-50.134-1.468Z" fill="#505ca9"/>
            <path id="Trazado_198362" data-name="Trazado 198362" d="M796.914,466.671l2.156,0v-1.351q-1.08,0-2.156,0Z" fill="#505ca9"/>
            <path id="Trazado_198363" data-name="Trazado 198363" d="M800.476,466.671c18.11-.021,35.255-.465,49.217-1.272v-1.355c-13.961.808-31.153,1.255-49.217,1.276Z" fill="#505ca9"/>
            <path id="Trazado_198364" data-name="Trazado 198364" d="M851.1,465.316q1.287-.076,2.534-.159V463.8c-.833.055-1.675.108-2.534.16Z" fill="#505ca9"/>
            <path id="Trazado_198365" data-name="Trazado 198365" d="M855.038,463.707v1.356l1.352-.1c2.9-.209,5.46-.422,7.712-.638v-1.361c-2.551.247-5.526.494-9,.734Z" fill="#505ca9"/>
            <path id="Trazado_198366" data-name="Trazado 198366" d="M872.2,456.991v1.381c5.468.831,6.786,1.542,7.094,1.812-.409.351-2.572,1.485-13.786,2.644v1.364c15.2-1.545,15.2-3.167,15.2-4.008C880.711,459.491,880.709,458.266,872.2,456.991Z" fill="#505ca9"/>
            <path id="Trazado_198367" data-name="Trazado 198367" d="M862.72,457.27c3.3.3,5.949.605,8.074.9v-1.377c-2.178-.3-4.833-.593-8.074-.886Z" fill="#505ca9"/>
          </g>
          <path id="Trazado_198368" data-name="Trazado 198368" d="M728.438,458.042c3.029-.394,7.028-.8,12.293-1.2v-1.356c-5.164.383-9.175.782-12.293,1.183Z" fill="#505ca9" opacity="0.39"/>
          <path id="Trazado_198369" data-name="Trazado 198369" d="M742.136,456.739l1.055-.074c2.145-.148,4.388-.287,6.714-.416v-1.354c-2.708.149-5.3.312-7.769.489Z" fill="#505ca9" opacity="0.39"/>
          <path id="Trazado_198370" data-name="Trazado 198370" d="M785.452,453.778c-12.373.151-24.015.5-34.141,1.04v1.355c10.141-.537,21.821-.893,34.205-1.044a.712.712,0,0,1-.064-.3Z" fill="#505ca9" opacity="0.39"/>
          <path id="Trazado_198371" data-name="Trazado 198371" d="M786.858,454.826a.719.719,0,0,1-.057.288q3.537-.039,7.142-.055v-1.351q-3.573.016-7.085.054Z" fill="#505ca9" opacity="0.39"/>
          <path id="Trazado_198372" data-name="Trazado 198372" d="M795.349,453.7v1.351q1.891-.006,3.8-.007c8.8,0,17.413.1,25.56.3v-1.354c-8.136-.194-16.74-.294-25.56-.294Q797.239,453.7,795.349,453.7Z" fill="#505ca9" opacity="0.39"/>
          <path id="Trazado_198373" data-name="Trazado 198373" d="M826.111,454.024v1.353c10.713.272,20.588.707,28.993,1.288,2.862.2,5.388.4,7.616.6V455.9c-1.9-.168-4-.337-6.33-.505C847.7,454.774,837.373,454.309,826.111,454.024Z" fill="#505ca9" opacity="0.39"/>
        </g>
        <g id="Grupo_136384" data-name="Grupo 136384" opacity="0.7">
          <g id="Grupo_136383" data-name="Grupo 136383">
            <path id="Trazado_198374" data-name="Trazado 198374" d="M725.082,467.171c.963-.158,2.071-.322,3.356-.488V465.31c-1.261.161-2.37.321-3.356.481Z" fill="#505ca9"/>
            <path id="Trazado_198375" data-name="Trazado 198375" d="M719,468.824c.258-.223,1.212-.755,4.677-1.406v-1.384c-6.091,1.125-6.1,2.17-6.1,2.79,0,.984,0,3.035,24.321,4.784.679.049,1.37.1,2.069.143v-1.356l-.778-.052C722.782,470.935,719.514,469.264,719,468.824Z" fill="#505ca9"/>
            <path id="Trazado_198376" data-name="Trazado 198376" d="M745.374,473.843c13.932.894,31.464,1.4,50.134,1.464v-1.351c-18.631-.06-36.215-.574-50.134-1.468Z" fill="#505ca9"/>
            <path id="Trazado_198377" data-name="Trazado 198377" d="M796.914,475.311l2.156,0v-1.351l-2.156,0Z" fill="#505ca9"/>
            <path id="Trazado_198378" data-name="Trazado 198378" d="M800.476,475.311c18.11-.021,35.255-.465,49.217-1.272v-1.354c-13.961.807-31.153,1.254-49.217,1.275Z" fill="#505ca9"/>
            <path id="Trazado_198379" data-name="Trazado 198379" d="M851.1,473.956q1.287-.076,2.534-.159v-1.356c-.833.055-1.675.108-2.534.16Z" fill="#505ca9"/>
            <path id="Trazado_198380" data-name="Trazado 198380" d="M855.038,472.347V473.7l1.352-.1c2.9-.209,5.46-.422,7.712-.637v-1.362c-2.551.247-5.526.494-9,.734Z" fill="#505ca9"/>
            <path id="Trazado_198381" data-name="Trazado 198381" d="M872.2,465.631v1.381c5.468.831,6.786,1.542,7.094,1.812-.409.351-2.572,1.485-13.786,2.644v1.364c15.2-1.545,15.2-3.166,15.2-4.008C880.711,468.131,880.709,466.906,872.2,465.631Z" fill="#505ca9"/>
            <path id="Trazado_198382" data-name="Trazado 198382" d="M862.72,465.91c3.3.3,5.949.605,8.074.9v-1.377c-2.178-.3-4.833-.593-8.074-.886Z" fill="#505ca9"/>
          </g>
          <path id="Trazado_198383" data-name="Trazado 198383" d="M728.438,466.683c3.029-.4,7.028-.805,12.293-1.2v-1.357c-5.164.384-9.175.782-12.293,1.184Z" fill="#505ca9" opacity="0.39"/>
          <path id="Trazado_198384" data-name="Trazado 198384" d="M742.136,465.38l1.055-.075c2.145-.148,4.388-.286,6.714-.415v-1.355c-2.708.15-5.3.313-7.769.489Z" fill="#505ca9" opacity="0.39"/>
          <path id="Trazado_198385" data-name="Trazado 198385" d="M785.452,462.418c-12.373.151-24.015.5-34.141,1.04v1.355c10.141-.537,21.821-.893,34.205-1.044a.712.712,0,0,1-.064-.3Z" fill="#505ca9" opacity="0.39"/>
          <path id="Trazado_198386" data-name="Trazado 198386" d="M786.858,463.466a.715.715,0,0,1-.057.288q3.537-.039,7.142-.055v-1.351q-3.573.017-7.085.054Z" fill="#505ca9" opacity="0.39"/>
          <path id="Trazado_198387" data-name="Trazado 198387" d="M795.349,462.342v1.351q1.891-.006,3.8-.007c8.8,0,17.413.1,25.56.3v-1.354c-8.136-.193-16.74-.294-25.56-.294Q797.239,462.335,795.349,462.342Z" fill="#505ca9" opacity="0.39"/>
          <path id="Trazado_198388" data-name="Trazado 198388" d="M826.111,462.664v1.353c10.713.272,20.588.707,28.993,1.288,2.862.2,5.388.4,7.616.605v-1.365c-1.9-.168-4-.336-6.33-.505C847.7,463.414,837.373,462.949,826.111,462.664Z" fill="#505ca9" opacity="0.39"/>
        </g>
        <g id="Grupo_136397" data-name="Grupo 136397" opacity="0.5">
          <g id="Grupo_136385" data-name="Grupo 136385">
            <rect id="Rectángulo_41609" data-name="Rectángulo 41609" width="1.187" height="20.707" transform="translate(753.811 464.676)" fill="#505ca9"/>
          </g>
          <g id="Grupo_136386" data-name="Grupo 136386">
            <rect id="Rectángulo_41610" data-name="Rectángulo 41610" width="1.187" height="22.765" transform="translate(756.2 450.255)" fill="#505ca9"/>
          </g>
          <g id="Grupo_136387" data-name="Grupo 136387">
            <rect id="Rectángulo_41611" data-name="Rectángulo 41611" width="1.187" height="37.614" transform="translate(817.316 447.768)" fill="#505ca9"/>
          </g>
          <g id="Grupo_136388" data-name="Grupo 136388">
            <rect id="Rectángulo_41612" data-name="Rectángulo 41612" width="1.187" height="18.011" transform="translate(819.706 436.36)" fill="#505ca9"/>
          </g>
          <g id="Grupo_136389" data-name="Grupo 136389">
            <rect id="Rectángulo_41613" data-name="Rectángulo 41613" width="0.992" height="6.633" transform="translate(780.021 420.594)" fill="#505ca9"/>
          </g>
          <g id="Grupo_136390" data-name="Grupo 136390">
            <rect id="Rectángulo_41614" data-name="Rectángulo 41614" width="0.992" height="6.633" transform="translate(782.05 416.286)" fill="#505ca9"/>
          </g>
          <g id="Grupo_136391" data-name="Grupo 136391">
            <rect id="Rectángulo_41615" data-name="Rectángulo 41615" width="0.992" height="6.633" transform="translate(838.614 456.211)" fill="#505ca9"/>
          </g>
          <g id="Grupo_136392" data-name="Grupo 136392">
            <rect id="Rectángulo_41616" data-name="Rectángulo 41616" width="0.992" height="33.48" transform="translate(841.508 451.903)" fill="#505ca9"/>
          </g>
          <g id="Grupo_136393" data-name="Grupo 136393">
            <rect id="Rectángulo_41617" data-name="Rectángulo 41617" width="0.992" height="6.633" transform="translate(808.814 410.236)" fill="#505ca9"/>
          </g>
          <g id="Grupo_136394" data-name="Grupo 136394">
            <rect id="Rectángulo_41618" data-name="Rectángulo 41618" width="0.992" height="6.633" transform="translate(806.785 405.928)" fill="#505ca9"/>
          </g>
          <g id="Grupo_136395" data-name="Grupo 136395">
            <rect id="Rectángulo_41619" data-name="Rectángulo 41619" width="1.187" height="9.518" transform="translate(787.123 456.517)" fill="#505ca9"/>
          </g>
          <g id="Grupo_136396" data-name="Grupo 136396">
            <rect id="Rectángulo_41620" data-name="Rectángulo 41620" width="1.187" height="9.518" transform="translate(789.666 468.932)" fill="#505ca9"/>
          </g>
        </g>
        <path id="Trazado_198389" data-name="Trazado 198389" d="M787.716,468.075a.888.888,0,1,0,.889.889A.889.889,0,0,0,787.716,468.075Z" fill="#505ca9" opacity="0.5"/>
        <path id="Trazado_198390" data-name="Trazado 198390" d="M839.111,464.055a.889.889,0,1,0,.888.888A.889.889,0,0,0,839.111,464.055Z" fill="#505ca9" opacity="0.5"/>
      </g>
    </g>
    <path id="Trazado_198391" data-name="Trazado 198391" d="M856.475,514.831V334.067H731.767V511.326c-90.519.144-163.252,5.183-163.252,11.379,0,6.285,74.864,11.381,167.213,11.381s167.214-5.1,167.214-11.381C902.942,519.649,885.256,516.876,856.475,514.831Z" transform="translate(357.094 2515.107)" fill="#b1e2f7"/>
    <g id="Grupo_136407" data-name="Grupo 136407" transform="translate(357.094 2515.107)">
      <g id="Grupo_136406" data-name="Grupo 136406">
        <g id="Grupo_136405" data-name="Grupo 136405">
          <g id="Grupo_136404" data-name="Grupo 136404">
            <circle id="Elipse_4914" data-name="Elipse 4914" cx="27.375" cy="27.375" r="27.375" transform="matrix(0.107, -0.994, 0.994, 0.107, 756.138, 333.029)" fill="url(#linear-gradient)"/>
            <path id="Trazado_198392" data-name="Trazado 198392" d="M770.818,261.575l7.526,42.851,16.492-4.765L782.83,258.1Z" fill="url(#linear-gradient-2)"/>
            <g id="Grupo_136400" data-name="Grupo 136400">
              <circle id="Elipse_4915" data-name="Elipse 4915" cx="29.518" cy="29.518" r="29.518" transform="matrix(0.599, -0.801, 0.801, 0.599, 778.02, 327.262)" fill="#fa8c91"/>
              <path id="Trazado_198393" data-name="Trazado 198393" d="M828.515,283.59h0a3.688,3.688,0,0,0-4.672,2.318l-3,8.912,6.989,2.353,3-8.911A3.688,3.688,0,0,0,828.515,283.59Z" fill="#fa8c91"/>
              <path id="Trazado_198394" data-name="Trazado 198394" d="M843.5,291.476a3.688,3.688,0,0,0-5.171.678l-5.727,7.459,5.85,4.491,5.727-7.458A3.687,3.687,0,0,0,843.5,291.476Z" fill="#fa8c91"/>
              <path id="Trazado_198395" data-name="Trazado 198395" d="M809.633,283.224a3.686,3.686,0,0,0-2.914,4.324l1.8,9.23,7.239-1.409-1.8-9.23A3.688,3.688,0,0,0,809.633,283.224Z" fill="#fa8c91"/>
            </g>
            <path id="Trazado_198396" data-name="Trazado 198396" d="M833.037,315.333l8.792,17.719L878.2,305.8l-7.462-9.174Z" fill="#e3565b"/>
            <g id="Grupo_136401" data-name="Grupo 136401">
              <path id="Trazado_198397" data-name="Trazado 198397" d="M852.434,323.432l-.977,6.217c2.947.673,11.479,2.909,15.5,5.155a110.978,110.978,0,0,1,11.29,7.6l5.073-4.285a120.408,120.408,0,0,0-12.6-8.463C864.658,326.273,853.667,323.713,852.434,323.432Z" fill="#e3565b"/>
            </g>
            <g id="Grupo_136402" data-name="Grupo 136402">
              <path id="Trazado_198398" data-name="Trazado 198398" d="M852.554,334.648l-3.686,5.1c2.323,1.934,8.917,7.791,11.488,11.616a111,111,0,0,1,6.624,11.888l6.464-1.523a120.225,120.225,0,0,0-7.4-13.251C862.167,342.717,853.527,335.457,852.554,334.648Z" fill="#e3565b"/>
            </g>
            <circle id="Elipse_4916" data-name="Elipse 4916" cx="27.375" cy="27.375" r="27.375" transform="translate(795.399 343.246) rotate(-51.344)" fill="#e3565b"/>
            <path id="Trazado_198399" data-name="Trazado 198399" d="M842.811,332.317a20.722,20.722,0,0,0-4.007-5.359,19.2,19.2,0,0,0-5.221-3.607c-4.679-2.188-10.012-4.5-15.666-6.608-1.635-.6-3.307-1.2-4.978-1.76a112.7,112.7,0,0,0-20.834-5.058c-12.546-1.643-24.206-.07-31.593,8-.466.492-.892,1.009-1.315,1.551-7.015,9.068-10.714,22.051-11.523,35.9-.094,1.493-.146,3-.161,4.508-.252,17.937,4.178,36.767,12.414,50.07.795,1.276,1.626,2.517,2.5,3.689a40.349,40.349,0,0,0,8.757,8.9,29.7,29.7,0,0,0,4.062,2.52,28.213,28.213,0,0,0,4.266,1.737c5.544,1.722,11.005.907,16.281-1.747a32.224,32.224,0,0,0,4.11-2.434,49.635,49.635,0,0,0,6.59-5.453l0-.011c1.3-1.266,2.6-2.619,3.863-4.055,11.07-12.517,20.756-31.013,27.919-47.115,1.953-4.41,3.725-8.64,5.284-12.521a25.884,25.884,0,0,0,.965-16.809A22.716,22.716,0,0,0,842.811,332.317Z" fill="url(#linear-gradient-3)"/>
            <g id="Grupo_136403" data-name="Grupo 136403">
              <path id="Trazado_198400" data-name="Trazado 198400" d="M750.612,270.238,748.275,280.5c2.947.672,11.478,2.908,15.5,5.154a110.852,110.852,0,0,1,11.29,7.6l6.434-8.325a120.057,120.057,0,0,0-12.6-8.463C762.836,273.08,751.845,270.519,750.612,270.238Z" fill="url(#linear-gradient-4)"/>
            </g>
          </g>
          <path id="Trazado_198401" data-name="Trazado 198401" d="M788.378,360.72a26.218,26.218,0,0,1-15.053,4.945c3.083-5.769,8.265-10.568,13.207-14.476,2.308-1.828-.7-5.241-2.987-3.431-9.746,7.693-18.1,17.883-17.615,30.918.294,7.543,3.247,14.109.964,21.709a18.136,18.136,0,0,1-6.967,9.565c.795,1.276,1.626,2.517,2.5,3.689a23.042,23.042,0,0,0,9.786-15.9c1.149-8.655-2.979-16.936-1.28-25.549.132-.677.31-1.349.507-2a31.3,31.3,0,0,0,19.924-6.043C793.749,362.42,790.729,359.014,788.378,360.72Z" fill="#e3565b"/>
          <path id="Trazado_198402" data-name="Trazado 198402" d="M760.708,350.611a22.779,22.779,0,0,1-6.589,3.557,12.377,12.377,0,0,1,3.617-7.211c2.082-2.049-.9-5.491-3-3.435a17.3,17.3,0,0,0-5.289,11.715c-.587.066-1.181.118-1.775.135-.094,1.493-.146,3-.161,4.508a27.332,27.332,0,0,0,16.193-5.834C766.032,352.235,763.016,348.819,760.708,350.611Z" fill="#e3565b"/>
          <path id="Trazado_198403" data-name="Trazado 198403" d="M815.676,386.625a61.493,61.493,0,0,1-6.8,6.752c-2.334,1.9-5.212,2.855-7.7,4.5-.613-.6-1.23-1.2-1.862-1.78.785-4.79,4.9-8.819,6.676-13.337,1.766-4.46,1.886-9.667,2.141-14.383.157-2.925-4.387-3.2-4.547-.259-.339,6.25-.815,12.3-4.178,17.757a42.908,42.908,0,0,0-3.795,6.778c-3.857-3.628-7.405-7.464-8.886-12.549-.823-2.8-5.288-1.913-4.465.922,2.426,8.273,8.97,13.3,14.959,19.048a31.088,31.088,0,0,1,9.282,17.078c1.3-1.266,2.6-2.619,3.863-4.055a31.4,31.4,0,0,0-4.5-9.823c-.484-.7-1.011-1.384-1.567-2.052,2.427-1.608,5.2-2.632,7.563-4.417a49.921,49.921,0,0,0,6.811-6.748C820.613,387.9,817.633,384.45,815.676,386.625Z" fill="#e3565b"/>
          <path id="Trazado_198404" data-name="Trazado 198404" d="M792.78,413.544c2.14-2.005-.847-5.436-2.987-3.431-4.583,4.3-9.773,7.275-15.2,10.346a38.767,38.767,0,0,0-3.4,2.084,29.7,29.7,0,0,0,4.062,2.52c2.509-1.6,5.514-2.826,7.554-4,.163-.09.307-.2.469-.287a22.058,22.058,0,0,1,12.524,4.277,32.224,32.224,0,0,0,4.11-2.434,25.775,25.775,0,0,0-11.066-5.683C790.2,415.857,791.514,414.738,792.78,413.544Z" fill="#e3565b"/>
        </g>
        <path id="Trazado_198405" data-name="Trazado 198405" d="M857.2,324.643q-.651-1.061-1.4-2.06L878.2,305.8l-7.462-9.174-24.642,12.227a29.608,29.608,0,0,0-5.287-7.816l3.372-4.392a3.688,3.688,0,0,0-5.85-4.492l-3.219,4.193a29.561,29.561,0,0,0-6.021-2.9l1.744-5.181a3.688,3.688,0,0,0-2.318-4.672h0a3.688,3.688,0,0,0-4.672,2.318l-2.011,5.975a29.328,29.328,0,0,0-6.716.2l-1.158-5.944a3.687,3.687,0,1,0-7.239,1.409l.752,3.863a27.428,27.428,0,0,0-17.864-9.848l-6.777-23.458-12.012,3.47,3.162,18c-1.635-1.077-3.38-2.168-5.078-3.115-6.066-3.382-17.057-5.943-18.29-6.224L748.275,280.5c2.947.672,11.478,2.908,15.5,5.154,1.417.79,2.9,1.715,4.31,2.643a27.348,27.348,0,0,0-7.582,29.636c-.463.489-.887,1-1.308,1.543-7.015,9.068-10.714,22.051-11.523,35.9-.094,1.493-.146,3-.161,4.508-.252,17.937,4.178,36.767,12.414,50.07.795,1.276,1.626,2.517,2.5,3.689a40.349,40.349,0,0,0,8.757,8.9,29.7,29.7,0,0,0,4.062,2.52,28.213,28.213,0,0,0,4.266,1.737c5.544,1.722,11.005.907,16.281-1.747a32.224,32.224,0,0,0,4.11-2.434,49.635,49.635,0,0,0,6.59-5.453l0-.011c1.3-1.266,2.6-2.619,3.863-4.055,11.07-12.517,20.755-31.011,27.918-47.114a27.369,27.369,0,0,0,20.784-16.321c.491.594.932,1.168,1.29,1.7a111,111,0,0,1,6.624,11.888l6.464-1.523a120.225,120.225,0,0,0-7.4-13.251,46.725,46.725,0,0,0-5.021-5.98,27.217,27.217,0,0,0-.642-10.361,40.416,40.416,0,0,1,6.579,2.666,110.978,110.978,0,0,1,11.29,7.6l5.073-4.285a120.408,120.408,0,0,0-12.6-8.463C866.944,327.548,861.252,325.759,857.2,324.643Z" fill="url(#linear-gradient-5)" style="mix-blend-mode: color-dodge;isolation: isolate"/>
      </g>
      <path id="Trazado_198406" data-name="Trazado 198406" d="M750.611,270.24,748.277,280.5a100.815,100.815,0,0,1,11.945,3.543l-3.533-12.221C753.6,270.936,751.151,270.368,750.611,270.24Z" fill="#6397cf" opacity="0.2" style="mix-blend-mode: multiply;isolation: isolate"/>
      <path id="Trazado_198407" data-name="Trazado 198407" d="M841.415,332.4c-.458-.256-.943-.5-1.447-.741a.512.512,0,0,0-.128-.064c-.494-.238-1.016-.476-1.556-.7a.009.009,0,0,1-.009-.009c-.54-.229-1.1-.449-1.666-.669l-.137-.055q-.852-.328-1.7-.631c-.009,0-.018,0-.018-.009-.577-.2-1.163-.394-1.739-.586-.046-.018-.083-.028-.128-.046-.577-.183-1.136-.366-1.694-.54h-.009c-.568-.174-1.117-.339-1.657-.494-.036-.009-.064-.019-.1-.028-.53-.155-1.043-.3-1.528-.43v-.009h-.009c-.431-.7-.9-1.391-1.392-2.06l11.662-8.741,10.737-8.037-.631-.778-2.17,1.08a29.342,29.342,0,0,0-3.68-5.95l-.109-.137c-.476-.6-.971-1.172-1.492-1.721l.952-1.245-.339-.421-7.707,3.826-16.935,8.4a29.2,29.2,0,0,0-3.679-5.959l-.11-.137c-.476-.586-.971-1.172-1.492-1.721l3.368-4.394a3.688,3.688,0,1,0-5.849-4.494l-3.222,4.192c-.449-.284-.906-.549-1.373-.815l-.11-.055c-.439-.247-.879-.475-1.336-.695-.046-.028-.1-.046-.147-.073-.457-.22-.915-.421-1.382-.623-.046-.018-.082-.037-.128-.055-.5-.2-1.016-.4-1.538-.586l1.739-5.181a3.681,3.681,0,0,0-2.316-4.668,3.794,3.794,0,0,0-1.18-.192,3.7,3.7,0,0,0-3.5,2.508l-2.005,5.977q-1.25-.109-2.5-.11a30.735,30.735,0,0,0-4.22.3l-1.153-5.941a3.688,3.688,0,0,0-7.24,1.409l.75,3.863a27.789,27.789,0,0,0-2.517-2.682.462.462,0,0,0-.1-.091,24.856,24.856,0,0,0-2.81-2.279c-.073-.055-.146-.1-.21-.147-.431-.3-.87-.586-1.328-.86-.073-.046-.146-.092-.228-.138-.5-.3-1.026-.586-1.557-.86-.082-.037-.164-.083-.256-.119-.439-.22-.888-.43-1.345-.623-.147-.064-.284-.128-.431-.183-.549-.229-1.1-.439-1.666-.631a26.984,26.984,0,0,0-2.7-.76.413.413,0,0,1-.046-.009c-.576-.128-1.153-.247-1.739-.33a24.813,24.813,0,0,1,2.545,1.209c.705.384,1.419.814,2.133,1.254a.208.208,0,0,1,.073.045c.714.431,1.419.888,2.105,1.337a27.783,27.783,0,0,0-3.5,3.753c-.036.046-.073.1-.109.146q-.468.618-.907,1.263c-.027.046-.055.083-.082.129-.32.476-.622.961-.915,1.464,0,.009,0,.009-.009.019-.266.457-.513.924-.751,1.409-.064.128-.128.266-.192.4-.183.366-.348.751-.513,1.126-.064.146-.128.293-.183.439-.211.513-.412,1.035-.586,1.565-.137.412-.265.833-.384,1.245-.046.147-.074.284-.119.431-.074.274-.147.549-.211.823-.036.174-.073.348-.11.513-.055.247-.1.5-.146.751-.037.183-.073.366-.1.549-.036.229-.073.467-.1.7-.027.192-.054.375-.082.567-.027.22-.046.449-.064.668l-.055.6a.8.8,0,0,1-.009.147c-.037.6-.055,1.217-.046,1.822v.375c0,.284.019.558.028.842.009.119.009.229.018.348.018.293.037.586.064.869a2.437,2.437,0,0,0,.037.284c.027.311.064.623.109.934a.663.663,0,0,0,.019.119,27.157,27.157,0,0,0,1.318,5.327,19.393,19.393,0,0,0-1.309,1.547c-7.012,9.062-10.71,22.051-11.524,35.892-.092,1.492-.147,3-.156,4.512-.256,17.932,4.174,36.77,12.412,50.07.8,1.273,1.62,2.518,2.5,3.689a40.509,40.509,0,0,0,8.76,8.907c.549.4,1.117.787,1.684,1.144.779.5,1.575.952,2.38,1.373a28.6,28.6,0,0,0,4.266,1.739c5.538,1.721,11,.906,16.275-1.748a32.647,32.647,0,0,0,4.11-2.435,49.309,49.309,0,0,0,6.591-5.455l.009-.01c1.3-1.263,2.6-2.618,3.863-4.055,1.73-1.959,3.423-4.082,5.089-6.3a157.3,157.3,0,0,0,10.334-15.918l.01-.01c2.645-4.622,5.126-9.373,7.441-14.087.586-1.2,1.163-2.4,1.731-3.588.164-.357.338-.723.512-1.08.97-2.069,1.9-4.119,2.8-6.133a26.594,26.594,0,0,0,3.277-.751c.046-.009.083-.027.128-.037.495-.146,1-.311,1.483-.494l.092-.027c.274-.1.54-.2.814-.312-.155-.329-.65-1.345-1.363-2.746-.275-.549-.6-1.153-.934-1.794-.851-1.611-1.877-3.478-2.984-5.336-.668-1.108-1.364-2.215-2.06-3.259a.009.009,0,0,0-.009-.009c-.293-.439-.622-.879-.961-1.337-.092-.119-.192-.237-.293-.366-.284-.366-.577-.723-.888-1.1-.073-.092-.155-.183-.229-.275-.833-.979-1.73-1.949-2.645-2.9.055-.431.1-.852.137-1.282a.087.087,0,0,1,.009-.046c.028-.421.055-.842.064-1.263a.108.108,0,0,0,.01-.055c.009-.421.018-.842.009-1.254v-.064q-.013-.632-.055-1.263v-.037c-.028-.421-.064-.851-.11-1.272v-.018a27.731,27.731,0,0,0-.705-3.808c1.135.375,2.243.769,3.286,1.171.147.055.284.11.43.165s.293.128.449.192.33.138.485.2c.128.055.256.11.375.164.184.083.357.165.531.248.092.045.193.091.284.137.256.128.5.256.732.384a.01.01,0,0,1,.01.01c.97.54,1.968,1.135,2.947,1.766.659.412,1.309.833,1.941,1.254.952.641,1.858,1.263,2.663,1.84,1.364.952,2.472,1.776,3.113,2.261.265.192.448.339.54.412.054.037.082.055.082.064l5.071-4.284c-.238-.183-5.217-4.027-10.38-7.176C842.888,333.244,842.147,332.814,841.415,332.4Z" fill="#6397cf" opacity="0.2" style="mix-blend-mode: multiply;isolation: isolate"/>
      <path id="Trazado_198408" data-name="Trazado 198408" d="M750.611,270.24,748.277,280.5a100.815,100.815,0,0,1,11.945,3.543l-3.533-12.221C753.6,270.936,751.151,270.368,750.611,270.24Z" fill="#6397cf" opacity="0.2" style="mix-blend-mode: multiply;isolation: isolate"/>
      <path id="Trazado_198409" data-name="Trazado 198409" d="M841.415,332.4c-.458-.256-.943-.5-1.447-.741a.512.512,0,0,0-.128-.064c-.494-.238-1.016-.476-1.556-.7a.009.009,0,0,1-.009-.009c-.54-.229-1.1-.449-1.666-.669l-.137-.055q-.852-.328-1.7-.631c-.009,0-.018,0-.018-.009-.577-.2-1.163-.394-1.739-.586-.046-.018-.083-.028-.128-.046-.577-.183-1.136-.366-1.694-.54h-.009c-.568-.174-1.117-.339-1.657-.494-.036-.009-.064-.019-.1-.028-.53-.155-1.043-.3-1.528-.43v-.009h-.009c-.431-.7-.9-1.391-1.392-2.06l11.662-8.741,10.737-8.037-.631-.778-2.17,1.08a29.342,29.342,0,0,0-3.68-5.95l-.109-.137c-.476-.6-.971-1.172-1.492-1.721l.952-1.245-.339-.421-7.707,3.826-16.935,8.4a29.2,29.2,0,0,0-3.679-5.959l-.11-.137c-.476-.586-.971-1.172-1.492-1.721l3.368-4.394a3.688,3.688,0,1,0-5.849-4.494l-3.222,4.192c-.449-.284-.906-.549-1.373-.815l-.11-.055c-.439-.247-.879-.475-1.336-.695-.046-.028-.1-.046-.147-.073-.457-.22-.915-.421-1.382-.623-.046-.018-.082-.037-.128-.055-.5-.2-1.016-.4-1.538-.586l1.739-5.181a3.681,3.681,0,0,0-2.316-4.668,3.794,3.794,0,0,0-1.18-.192,3.7,3.7,0,0,0-3.5,2.508l-2.005,5.977q-1.25-.109-2.5-.11a30.735,30.735,0,0,0-4.22.3l-1.153-5.941a3.688,3.688,0,0,0-7.24,1.409l.75,3.863a27.789,27.789,0,0,0-2.517-2.682.462.462,0,0,0-.1-.091,24.856,24.856,0,0,0-2.81-2.279c-.073-.055-.146-.1-.21-.147-.431-.3-.87-.586-1.328-.86-.073-.046-.146-.092-.228-.138-.5-.3-1.026-.586-1.557-.86-.082-.037-.164-.083-.256-.119-.439-.22-.888-.43-1.345-.623-.147-.064-.284-.128-.431-.183-.549-.229-1.1-.439-1.666-.631a26.984,26.984,0,0,0-2.7-.76.413.413,0,0,1-.046-.009c-.576-.128-1.153-.247-1.739-.33a24.813,24.813,0,0,1,2.545,1.209c.705.384,1.419.814,2.133,1.254a.208.208,0,0,1,.073.045c.714.431,1.419.888,2.105,1.337a27.783,27.783,0,0,0-3.5,3.753c-.036.046-.073.1-.109.146q-.468.618-.907,1.263c-.027.046-.055.083-.082.129-.32.476-.622.961-.915,1.464,0,.009,0,.009-.009.019-.266.457-.513.924-.751,1.409-.064.128-.128.266-.192.4-.183.366-.348.751-.513,1.126-.064.146-.128.293-.183.439-.211.513-.412,1.035-.586,1.565-.137.412-.265.833-.384,1.245-.046.147-.074.284-.119.431-.074.274-.147.549-.211.823-.036.174-.073.348-.11.513-.055.247-.1.5-.146.751-.037.183-.073.366-.1.549-.036.229-.073.467-.1.7-.027.192-.054.375-.082.567-.027.22-.046.449-.064.668l-.055.6a.8.8,0,0,1-.009.147c-.037.6-.055,1.217-.046,1.822v.375c0,.284.019.558.028.842.009.119.009.229.018.348.018.293.037.586.064.869a2.437,2.437,0,0,0,.037.284c.027.311.064.623.109.934a.663.663,0,0,0,.019.119,27.157,27.157,0,0,0,1.318,5.327,19.393,19.393,0,0,0-1.309,1.547c-7.012,9.062-10.71,22.051-11.524,35.892-.092,1.492-.147,3-.156,4.512-.256,17.932,4.174,36.77,12.412,50.07.8,1.273,1.62,2.518,2.5,3.689a40.509,40.509,0,0,0,8.76,8.907c.549.4,1.117.787,1.684,1.144a52.191,52.191,0,0,0,4.312-3.78l.009-.009c1.3-1.264,2.6-2.618,3.863-4.056,1.73-1.958,3.423-4.073,5.089-6.3a157.473,157.473,0,0,0,10.335-15.918l.009-.01c2.645-4.622,5.126-9.373,7.442-14.087.585-1.2,1.162-2.4,1.73-3.588.164-.357.338-.723.512-1.08.971-2.069,1.9-4.119,2.8-6.133a26.415,26.415,0,0,0,3.277-.751.664.664,0,0,0,.128-.036c.5-.147,1-.312,1.483-.486a.634.634,0,0,1,.092-.036,27,27,0,0,0,3.076-1.346c.009,0,.018,0,.018-.009.485-.247.961-.5,1.428-.787.027-.018.064-.037.091-.055a26.231,26.231,0,0,0,4.074-2.957c.018-.009.027-.027.036-.036a27.145,27.145,0,0,0,7.076-9.822q.357.426.659.824a.265.265,0,0,1,.046.064c.21.274.412.549.586.814,1.235,1.84,2.48,3.964,3.542,5.895,1.767,3.232,3.067,5.95,3.085,6l5.5-1.3.092-.027.869-.2-.055-.11c-.155-.329-.65-1.345-1.363-2.746-.275-.549-.6-1.153-.934-1.794-.851-1.611-1.877-3.478-2.984-5.336-.668-1.108-1.364-2.215-2.06-3.259a.009.009,0,0,0-.009-.009c-.293-.439-.622-.879-.961-1.337-.092-.119-.192-.237-.293-.366-.284-.366-.577-.723-.888-1.1-.073-.092-.155-.183-.229-.275-.833-.979-1.73-1.949-2.645-2.9.055-.431.1-.852.137-1.282a.087.087,0,0,1,.009-.046c.028-.421.055-.842.064-1.263a.108.108,0,0,0,.01-.055c.009-.421.018-.842.009-1.254v-.064q-.013-.632-.055-1.263v-.037c-.028-.421-.064-.851-.11-1.272v-.018a27.731,27.731,0,0,0-.705-3.808c1.135.375,2.243.769,3.286,1.171.147.055.284.11.43.165s.293.128.449.192.33.138.485.2c.128.055.256.11.375.164.184.083.357.165.531.248.092.045.193.091.284.137.256.128.5.256.732.384a.01.01,0,0,1,.01.01c.97.54,1.968,1.135,2.947,1.766.659.412,1.309.833,1.941,1.254.952.641,1.858,1.263,2.663,1.84,1.364.952,2.472,1.776,3.113,2.261.265.192.448.339.54.412.054.037.082.055.082.064l5.071-4.284c-.238-.183-5.217-4.027-10.38-7.176C842.888,333.244,842.147,332.814,841.415,332.4Z" fill="#6397cf" opacity="0.2" style="mix-blend-mode: multiply;isolation: isolate"/>
    </g>
    <g id="Grupo_136408" data-name="Grupo 136408" transform="translate(357.094 2515.107)">
      <path id="Trazado_198410" data-name="Trazado 198410" d="M785.41,429.21a21.354,21.354,0,0,1-6.338-.972c-.71-.222-1.448-.488-2.2-.791-.777-.315-1.552-.665-2.3-1.042-.434-.224-.847-.451-1.258-.686l-.046-.027c-.716-.411-1.412-.848-2.068-1.3-.3-.2-.6-.417-.9-.637a42.013,42.013,0,0,1-9.083-9.228c-.454-.606-.929-1.283-1.485-2.119-.365-.547-.728-1.1-1.08-1.667-8.179-13.21-12.9-32.232-12.641-50.885.007-.728.024-1.462.049-2.2q.04-1.2.113-2.388c.089-1.516.224-3.109.4-4.733,1.411-13.081,5.366-24.143,11.436-31.99.2-.25.388-.488.584-.723l.136-.163.072-.084a28.906,28.906,0,0,1-1.1-4.77l-.018-.125c-.045-.325-.084-.653-.118-.982l-.024-.222s-.006-.039-.01-.082-.006-.075-.009-.121c-.022-.252-.039-.48-.053-.706l-.026-.483c-.014-.3-.025-.578-.03-.857,0-.091,0-.18,0-.27v-.134c0-.342,0-.683.012-1.024.009-.294.022-.593.039-.888l.013-.2c.008-.107.019-.216.029-.326l.053-.561c.01-.115.021-.231.034-.347,0-.023.005-.06.01-.1.021-.169.04-.308.06-.446l.02-.137c.034-.245.07-.493.11-.741.032-.193.067-.386.1-.579.045-.246.1-.492.147-.738l.046-.216c.018-.089.037-.179.058-.268l.049-.21c.032-.132.061-.244.09-.357l.229-.86c.125-.438.259-.878.407-1.317l.041-.113c.115-.341.236-.67.363-.995.067-.175.138-.358.212-.54.045-.111.092-.221.139-.331l.072-.168c.169-.4.342-.779.524-1.156l.042-.088c.053-.111.106-.222.16-.331l.021-.041c.189-.378.384-.747.581-1.1v-.02l.293-.5c.261-.444.546-.9.871-1.389l.167-.245q.412-.606.854-1.189l.2-.264c.242-.313.495-.624.753-.93l.082-.1c.267-.314.546-.628.832-.935l.049-.052c.165-.177.328-.347.492-.514q-.23-.144-.462-.284l-.163-.1c-.606-.373-1.308-.8-1.987-1.167q-.708-.395-1.629-.806a82.554,82.554,0,0,0-10.817-3.546c-.929-.242-1.816-.461-2.519-.622h-1.7l.083-.364-.029-.006.364-1.466,2.4-10.523.724-1.1,1.014.23c1.255.285,12.442,2.893,18.689,6.376.425.237.853.484,1.282.736l.077.045q.45.266.918.551L769.1,260.506l14.751-4.262,6.925,23.969.347.058.1.015c.913.16,1.849.372,2.776.63l.082.021c.466.131.944.279,1.412.436.42.141.832.3,1.241.453l.352.14q.477.192.947.4l.286.126q.568.261,1.119.542c.087.045.173.09.258.136l.111.059c.255.135.5.272.752.412.153.087.293.167.431.249q.417.246.82.5c.2.127.4.259.594.391s.371.251.554.38.359.258.536.389c.125.093.246.186.368.279l.041.032c.406.313.8.632,1.169.95l.07.059a5.19,5.19,0,0,1,10.284-1.023l.891,4.571a30.806,30.806,0,0,1,4.454-.115l1.643-4.879a5.19,5.19,0,1,1,9.837,3.312l-1.283,3.809.231.094.094.04c.527.22,1.017.44,1.491.668l.159.077c.472.23.944.475,1.4.727l.116.063c.091.05.18.1.269.151l2.4-3.131a5.19,5.19,0,1,1,8.232,6.322l-2.608,3.4.021.025c.227.264.428.507.627.752l.234.293q.306.386.6.78l.152.209a31.323,31.323,0,0,1,2.235,3.548l.141.264,1.876-.934.006.007,22.491-11.159,9.206,11.318-22.479,16.843c.1.147.2.294.291.443l1.944.563c.269.079.544.163.822.248l.049.016c.239.073.5.156.769.24l1.956.642c.29.1.574.2.859.3.3.107.57.2.836.3l.257.1.587.222.282.109c.2.076.394.154.589.232l.246.1q.413.166.813.337l.058.025c.231.1.482.21.729.321l.244.111c.18.082.359.166.535.249l.259.125c.18.087.352.173.522.26l.227.115c.244.127.482.253.711.381a120.94,120.94,0,0,1,12.784,8.585l1.475,1.137-7.423,6.269-.961-.743a109.215,109.215,0,0,0-11.1-7.475c-.172-.1-.355-.192-.544-.287l-.1-.052c-.191-.1-.392-.191-.6-.287l-.082-.038c-.722-.33-1.561-.672-2.508-1.024q.108.67.184,1.349c.052.464.091.913.12,1.363.03.483.048.928.055,1.375v.059c.006.438,0,.881-.011,1.325l0,.057c-.015.448-.04.893-.076,1.338l-.006.056c-.016.2-.036.41-.057.619,1.382,1.458,2.567,2.825,3.529,4.07l.085.11c.171.224.311.412.448.6l.14.192c.17.236.335.47.49.7a120.625,120.625,0,0,1,7.511,13.444l.8,1.681-9.457,2.227-.52-1.1a111.585,111.585,0,0,0-6.274-11.332,28.485,28.485,0,0,1-6.365,8.051l-.042.037a29.031,29.031,0,0,1-4.3,3.122l-.1.058c-.5.3-1,.569-1.482.818l-.049.025c-.287.147-.582.291-.881.432l.2.4-2.657.615q-.747.27-1.5.5l-.2.06c-.877.258-1.767.474-2.654.646l-.013.029q-.36.8-.727,1.612-.308.678-.622,1.361-.367.8-.742,1.607l-.382.824q-.269.551-.508,1.071l-.026.054c-.239.5-.464.975-.692,1.448-2.118,4.41-4.282,8.635-6.43,12.558l-.2.373q-.8,1.463-1.627,2.906l-.369.647q-.514.894-1.036,1.78l-.213.36q-.539.912-1.086,1.816l-.273.452c-.252.413-.5.817-.753,1.221l-.178.287q-.45.723-.9,1.435l-.041.065c-.291.455-.59.918-.89,1.378l-.056.086c-.579.884-1.187,1.793-1.807,2.7l-.28.407c-.409.593-.824,1.18-1.239,1.762q-.68.948-1.366,1.874l-.363.487q-.555.74-1.115,1.458-.606.778-1.217,1.535-.636.787-1.278,1.549l-.113.137c-.353.416-.7.819-1.048,1.216l-.24.279c-1.155,1.314-2.4,2.625-3.7,3.9v0l-.249.246a51.343,51.343,0,0,1-6.792,5.618,33.826,33.826,0,0,1-4.294,2.542c-.3.153-.624.3-.943.452A24.088,24.088,0,0,1,785.41,429.21ZM760.461,310.355c.015.229.03.432.048.633l.04.4c.031.3.065.591.106.883l.017.111a25.963,25.963,0,0,0,1.248,5.037l.31.868-.633.669c-.191.2-.372.41-.552.62l-.137.164c-.18.217-.354.431-.527.652-5.726,7.4-9.469,17.94-10.821,30.469-.171,1.576-.3,3.12-.387,4.591q-.072,1.152-.11,2.309-.036,1.064-.048,2.129c-.254,18.11,4.3,36.524,12.189,49.264.333.535.679,1.063,1.028,1.585.526.791.969,1.424,1.4,2a39.04,39.04,0,0,0,8.44,8.591c.275.2.549.394.824.581.6.41,1.227.8,1.875,1.176l.048.028c.366.209.742.417,1.123.614.661.332,1.361.648,2.066.933.672.273,1.331.511,1.96.707a19.486,19.486,0,0,0,14.292-1.243q.434-.2.865-.415a31.036,31.036,0,0,0,3.931-2.329,48.207,48.207,0,0,0,6.3-5.2l.088-.089c1.348-1.311,2.621-2.647,3.8-3.987l.233-.271q.507-.578,1.008-1.171l.117-.139q.621-.738,1.238-1.5.593-.735,1.181-1.49.546-.7,1.086-1.42l.353-.473q.672-.9,1.333-1.831.61-.854,1.213-1.723l.272-.4c.608-.887,1.205-1.777,1.774-2.647l.049-.077c.3-.456.591-.909.883-1.366l1.3.754-1.266-.807q.445-.7.888-1.409l.174-.282q.372-.6.739-1.2l.274-.454q.534-.882,1.067-1.784l.209-.353q.567-.963,1.125-1.935l.258-.455q.813-1.427,1.6-2.866l.2-.368c2.123-3.878,4.262-8.056,6.358-12.419q.337-.7.67-1.4l.027-.057c.17-.367.348-.743.526-1.109l.369-.8q.372-.8.736-1.591.31-.678.616-1.35.364-.8.72-1.6l.675-1.506.808-.12a25.824,25.824,0,0,0,3.084-.706l.176-.053q.693-.209,1.344-.445l.857-.327c.734-.3,1.454-.623,2.142-.975q.678-.348,1.362-.751l.055-.032a26.135,26.135,0,0,0,3.884-2.818l1.031,1.094L851,358.36a25.547,25.547,0,0,0,6.685-9.281l.966-2.282,1.576,1.912c.107.13.21.257.312.384.149.187.295.372.431.552l.146.2c.172.232.339.464.489.686a105.784,105.784,0,0,1,6.2,10.988l3.461-.815a112.035,112.035,0,0,0-6.469-11.382c-.138-.206-.285-.414-.436-.624l-.127-.173c-.122-.167-.25-.339-.382-.511l-.1-.133a53.372,53.372,0,0,0-3.808-4.337l-.5-.521.095-.718q.079-.607.128-1.215l.005-.053c.032-.382.053-.78.067-1.177l0-.062c.013-.391.015-.787.01-1.183v-.054c-.006-.4-.023-.8-.048-1.192-.027-.437-.063-.838-.107-1.237l-.006-.061c-.041-.361-.1-.764-.161-1.165-.127-.8-.295-1.6-.5-2.387l-.688-2.659,2.61.855a51.83,51.83,0,0,1,5.3,2.01l-.576,1.388.66-1.35c.241.111.469.22.689.33l.083.042c.26.132.479.246.685.361A105.589,105.589,0,0,1,878.2,340.48l2.718-2.3a110.456,110.456,0,0,0-10.924-7.218c-.2-.113-.414-.226-.63-.337l-.208-.106c-.154-.079-.31-.156-.468-.233l-.242-.116q-.24-.115-.491-.229l-.225-.1q-.347-.156-.7-.308c-.284-.122-.54-.228-.8-.332l-.235-.094c-.186-.075-.371-.148-.558-.221l-.238-.091c-.216-.083-.4-.154-.593-.224l-.248-.093c-.251-.092-.508-.184-.765-.275-.308-.11-.582-.2-.856-.3l-1.9-.624c-.259-.081-.515-.162-.769-.24l-.059-.019c-.236-.072-.5-.153-.768-.232l-3.008-.857-.316-.507q-.3-.486-.619-.958l-.07-.1c-.2-.3-.416-.6-.633-.886l-.9-1.2,22.346-16.744-5.718-7.03-22.447,11.139-.005,0-2.495,1.242-.651-1.4c-.236-.508-.485-1-.739-1.476l-.027-.052a28.2,28.2,0,0,0-2-3.164l-.139-.191c-.175-.237-.356-.471-.539-.7l-.213-.266c-.179-.22-.359-.439-.545-.653l-.256-.29c-.182-.206-.366-.413-.557-.616l-.875-.929.986-1.29v0l3.16-4.12a2.185,2.185,0,0,0-3.466-2.662l-3.871,5.041-1.214-.4-.151-.1c-.4-.252-.832-.507-1.282-.758l-.106-.058c-.411-.227-.837-.448-1.266-.657l-.139-.067c-.431-.207-.873-.406-1.317-.591l-.119-.051c-.473-.2-.945-.376-1.4-.538l-1.5-.386,2.26-6.714a2.185,2.185,0,1,0-4.142-1.394l-2.388,7.093-1.176-.1a27.916,27.916,0,0,0-6.372.19l-1.416.206-1.432-7.35a2.185,2.185,0,0,0-4.29.835l1.9,9.744-3.785-4.645q-.269-.328-.548-.649l-.034-.038c-.572-.65-1.148-1.246-1.743-1.8l-.192-.179c-.183-.169-.367-.336-.555-.5l-.111-.094c-.333-.285-.685-.571-1.047-.85l-.04-.031c-.109-.084-.218-.167-.328-.249q-.235-.176-.479-.348c-.163-.115-.329-.228-.5-.34s-.352-.236-.532-.35c-.242-.155-.486-.306-.734-.452-.122-.072-.247-.143-.372-.214-.235-.134-.46-.257-.686-.376l-.332-.176q-.494-.252-1-.485l-.259-.114q-.417-.186-.848-.359l-.316-.126c-.364-.142-.734-.279-1.111-.406-.421-.142-.85-.274-1.275-.394l-.064-.016c-.835-.232-1.674-.422-2.5-.566l-.085-.013c-.4-.068-.8-.129-1.2-.178l-.984-.121L781.8,259.965l-9.273,2.679,3.531,20.1-2.909-1.917c-1.3-.857-2.543-1.636-3.694-2.315l-.053-.031c-.422-.249-.83-.484-1.235-.71-4.842-2.7-13.017-4.882-16.432-5.722l-1.67,7.332c.415.1.853.214,1.3.33a83.6,83.6,0,0,1,11.279,3.708c.7.312,1.321.621,1.858.92.731.4,1.478.85,2.119,1.244a1.733,1.733,0,0,1,.21.129c.278.169.553.343.828.517q.632.4,1.247.8l1.632,1.074L769,289.493c-.258.231-.5.461-.745.695l-.1.1q-.395.387-.774.793l-.056.059c-.253.273-.5.553-.747.841l-.037.043c-.262.311-.488.589-.708.873l-.183.24c-.257.341-.513.7-.753,1.05l-.069.1h0l-.09.137c-.311.468-.584.9-.829,1.327-.016.031-.033.062-.051.092s-.036.07-.056.1c-.215.378-.43.782-.638,1.2l-.017.035c-.042.084-.083.17-.123.255l-.045.092q-.243.507-.466,1.029l-.075.174c-.039.093-.079.185-.117.279q-.1.248-.194.5c-.114.291-.218.574-.315.861l-.039.108c-.138.408-.258.8-.371,1.2l-.075.277c-.014.052-.026.1-.04.143l-.095.373c-.025.094-.049.187-.072.281l-.131.6c-.053.246-.1.473-.141.7-.032.174-.063.348-.092.522-.037.221-.069.442-.1.663l-.021.15c-.017.114-.033.228-.047.343l-.014.119c-.009.085-.017.178-.026.271l-.054.584c-.008.08-.016.16-.022.241a2.149,2.149,0,0,1-.015.229c-.014.245-.024.492-.032.739-.01.31-.011.616-.01.921v.362c0,.249.015.5.027.747Z" fill="#fff"/>
    </g>
    <g id="Grupo_136432" data-name="Grupo 136432" transform="translate(357.094 2515.107)">
      <g id="Grupo_136431" data-name="Grupo 136431">
        <rect id="Rectángulo_41621" data-name="Rectángulo 41621" width="38.758" height="38.758" transform="translate(681.449 406.403)" fill="#119ccc" opacity="0.69" style="mix-blend-mode: overlay;isolation: isolate"/>
        <g id="Grupo_136415" data-name="Grupo 136415" opacity="0.55" style="mix-blend-mode: overlay;isolation: isolate">
          <g id="Grupo_136411" data-name="Grupo 136411">
            <g id="Grupo_136410" data-name="Grupo 136410">
              <g id="Grupo_136409" data-name="Grupo 136409">
                <circle id="Elipse_4917" data-name="Elipse 4917" cx="5.278" cy="5.278" r="5.278" transform="translate(693.364 419.685) rotate(-45)" fill="#119ccc"/>
              </g>
            </g>
          </g>
          <g id="Grupo_136414" data-name="Grupo 136414">
            <g id="Grupo_136413" data-name="Grupo 136413">
              <g id="Grupo_136412" data-name="Grupo 136412">
                <path id="Trazado_198411" data-name="Trazado 198411" d="M702.567,424.847h-3.48a7.021,7.021,0,0,0-7.018,7.018V436.2h17.516v-4.335A7.021,7.021,0,0,0,702.567,424.847Z" fill="#119ccc"/>
              </g>
            </g>
          </g>
        </g>
        <rect id="Rectángulo_41622" data-name="Rectángulo 41622" width="11.561" height="11.561" transform="translate(597.587 444.288)" fill="#119ccc" opacity="0.69" style="mix-blend-mode: overlay;isolation: isolate"/>
        <g id="Grupo_136422" data-name="Grupo 136422" opacity="0.55" style="mix-blend-mode: overlay;isolation: isolate">
          <g id="Grupo_136418" data-name="Grupo 136418">
            <g id="Grupo_136417" data-name="Grupo 136417">
              <g id="Grupo_136416" data-name="Grupo 136416">
                <path id="Trazado_198412" data-name="Trazado 198412" d="M603.367,446.676a1.575,1.575,0,1,0,1.575,1.575A1.575,1.575,0,0,0,603.367,446.676Z" fill="#119ccc"/>
              </g>
            </g>
          </g>
          <g id="Grupo_136421" data-name="Grupo 136421">
            <g id="Grupo_136420" data-name="Grupo 136420">
              <g id="Grupo_136419" data-name="Grupo 136419">
                <path id="Trazado_198413" data-name="Trazado 198413" d="M603.886,449.79h-1.038a2.094,2.094,0,0,0-2.093,2.094v1.293h5.225v-1.293A2.1,2.1,0,0,0,603.886,449.79Z" fill="#119ccc"/>
              </g>
            </g>
          </g>
        </g>
        <rect id="Rectángulo_41623" data-name="Rectángulo 41623" width="34.109" height="34.109" transform="translate(783.742 412.578)" fill="#119ccc" opacity="0.69" style="mix-blend-mode: overlay;isolation: isolate"/>
        <g id="Grupo_136429" data-name="Grupo 136429" opacity="0.55" style="mix-blend-mode: overlay;isolation: isolate">
          <g id="Grupo_136425" data-name="Grupo 136425">
            <g id="Grupo_136424" data-name="Grupo 136424">
              <g id="Grupo_136423" data-name="Grupo 136423">
                <circle id="Elipse_4918" data-name="Elipse 4918" cx="4.645" cy="4.645" r="4.645" transform="translate(794.228 424.268) rotate(-45)" fill="#119ccc"/>
              </g>
            </g>
          </g>
          <g id="Grupo_136428" data-name="Grupo 136428">
            <g id="Grupo_136427" data-name="Grupo 136427">
              <g id="Grupo_136426" data-name="Grupo 136426">
                <path id="Trazado_198414" data-name="Trazado 198414" d="M802.327,428.81h-3.062a6.179,6.179,0,0,0-6.177,6.176V438.8H808.5v-3.816A6.178,6.178,0,0,0,802.327,428.81Z" fill="#119ccc"/>
              </g>
            </g>
          </g>
        </g>
        <rect id="Rectángulo_41624" data-name="Rectángulo 41624" width="46.84" height="12.058" transform="translate(641.118 418.602)" fill="#119ccc" opacity="0.69" style="mix-blend-mode: overlay;isolation: isolate"/>
        <rect id="Rectángulo_41625" data-name="Rectángulo 41625" width="46.84" height="9.957" transform="translate(641.118 432.914)" fill="#119ccc" opacity="0.69" style="mix-blend-mode: overlay;isolation: isolate"/>
        <rect id="Rectángulo_41626" data-name="Rectángulo 41626" width="25.59" height="25.951" transform="translate(650.987 411.941)" fill="#119ccc" opacity="0.69" style="mix-blend-mode: overlay;isolation: isolate"/>
        <rect id="Rectángulo_41627" data-name="Rectángulo 41627" width="60.996" height="60.996" transform="translate(710.065 378.018)" fill="#119ccc" opacity="0.69" style="mix-blend-mode: overlay;isolation: isolate"/>
        <g id="Grupo_136430" data-name="Grupo 136430">
          <rect id="Rectángulo_41628" data-name="Rectángulo 41628" width="31.626" height="3.288" transform="translate(723.016 392.622)" fill="#119ccc" style="mix-blend-mode: overlay;isolation: isolate"/>
          <rect id="Rectángulo_41629" data-name="Rectángulo 41629" width="31.626" height="3.289" transform="translate(723.016 398.582)" fill="#119ccc" style="mix-blend-mode: overlay;isolation: isolate"/>
          <rect id="Rectángulo_41630" data-name="Rectángulo 41630" width="31.626" height="3.288" transform="translate(723.016 404.542)" fill="#119ccc" style="mix-blend-mode: overlay;isolation: isolate"/>
          <rect id="Rectángulo_41631" data-name="Rectángulo 41631" width="31.626" height="3.288" transform="translate(723.016 410.503)" fill="#119ccc" style="mix-blend-mode: overlay;isolation: isolate"/>
          <rect id="Rectángulo_41632" data-name="Rectángulo 41632" width="31.626" height="3.289" transform="translate(723.016 416.463)" fill="#119ccc" style="mix-blend-mode: overlay;isolation: isolate"/>
          <rect id="Rectángulo_41633" data-name="Rectángulo 41633" width="31.626" height="3.288" transform="translate(723.016 422.423)" fill="#119ccc" style="mix-blend-mode: overlay;isolation: isolate"/>
        </g>
        <rect id="Rectángulo_41634" data-name="Rectángulo 41634" width="17.356" height="2.863" transform="translate(632.946 463.419)" fill="#119ccc" opacity="0.69" style="mix-blend-mode: overlay;isolation: isolate"/>
        <rect id="Rectángulo_41635" data-name="Rectángulo 41635" width="17.796" height="3.012" transform="translate(584.183 464.396)" fill="#119ccc" opacity="0.69" style="mix-blend-mode: overlay;isolation: isolate"/>
        <rect id="Rectángulo_41636" data-name="Rectángulo 41636" width="17.796" height="3.012" transform="translate(584.183 460.114)" fill="#119ccc" opacity="0.69" style="mix-blend-mode: overlay;isolation: isolate"/>
        <rect id="Rectángulo_41637" data-name="Rectángulo 41637" width="38.899" height="6.584" transform="translate(805.441 462.773)" fill="#119ccc" opacity="0.69" style="mix-blend-mode: overlay;isolation: isolate"/>
        <rect id="Rectángulo_41638" data-name="Rectángulo 41638" width="38.899" height="6.584" transform="translate(805.441 453.414)" fill="#119ccc" opacity="0.69" style="mix-blend-mode: overlay;isolation: isolate"/>
        <rect id="Rectángulo_41639" data-name="Rectángulo 41639" width="5.191" height="3.012" transform="translate(577.544 464.396)" fill="#119ccc" opacity="0.69" style="mix-blend-mode: overlay;isolation: isolate"/>
        <rect id="Rectángulo_41640" data-name="Rectángulo 41640" width="5.191" height="3.012" transform="translate(570.419 464.396)" fill="#119ccc" opacity="0.69" style="mix-blend-mode: overlay;isolation: isolate"/>
        <rect id="Rectángulo_41641" data-name="Rectángulo 41641" width="11.315" height="3.012" transform="translate(556.211 464.396)" fill="#119ccc" opacity="0.69" style="mix-blend-mode: overlay;isolation: isolate"/>
        <rect id="Rectángulo_41642" data-name="Rectángulo 41642" width="11.111" height="11.111" transform="translate(633.367 439.286)" fill="#119ccc" opacity="0.69" style="mix-blend-mode: overlay;isolation: isolate"/>
        <rect id="Rectángulo_41643" data-name="Rectángulo 41643" width="11.784" height="2.65" transform="translate(618.371 449.427)" fill="#119ccc" opacity="0.69" style="mix-blend-mode: overlay;isolation: isolate"/>
        <rect id="Rectángulo_41644" data-name="Rectángulo 41644" width="8.289" height="8.289" transform="translate(677.544 452.997)" fill="#119ccc" opacity="0.69" style="mix-blend-mode: overlay;isolation: isolate"/>
        <rect id="Rectángulo_41645" data-name="Rectángulo 41645" width="23.498" height="8.289" transform="translate(681.689 459.655)" fill="#119ccc" opacity="0.69" style="mix-blend-mode: overlay;isolation: isolate"/>
        <rect id="Rectángulo_41646" data-name="Rectángulo 41646" width="10.91" height="5.835" transform="translate(821.465 431.396)" fill="#119ccc" opacity="0.69" style="mix-blend-mode: overlay;isolation: isolate"/>
        <rect id="Rectángulo_41647" data-name="Rectángulo 41647" width="10.91" height="1.907" transform="translate(821.465 427.995)" fill="#119ccc" opacity="0.69" style="mix-blend-mode: overlay;isolation: isolate"/>
        <rect id="Rectángulo_41648" data-name="Rectángulo 41648" width="10.91" height="1.907" transform="translate(835.44 432.129)" fill="#119ccc" opacity="0.69" style="mix-blend-mode: overlay;isolation: isolate"/>
        <rect id="Rectángulo_41649" data-name="Rectángulo 41649" width="31.92" height="1.907" transform="translate(850.009 432.129)" fill="#119ccc" opacity="0.69" style="mix-blend-mode: overlay;isolation: isolate"/>
      </g>
    </g>
    <path id="Trazado_200206" data-name="Trazado 200206" d="M58.27,0c32.182,0,58.27,2.026,58.27,4.526S90.451,9.052,58.27,9.052,0,7.025,0,4.526,26.088,0,58.27,0Z" transform="translate(956.877 3033.599)" fill="#2c3852"/>
    <g id="Grupo_136625" data-name="Grupo 136625" transform="translate(357.094 2515.107)">
      <g id="Grupo_136622" data-name="Grupo 136622">
        <g id="Grupo_136597" data-name="Grupo 136597">
          <g id="Grupo_136591" data-name="Grupo 136591">
            <g id="Grupo_136433" data-name="Grupo 136433">
              <path id="Trazado_198415" data-name="Trazado 198415" d="M672.691,311.826l7.363,97.138H647.627l-2.678-104.821,21.158-.485Z" fill="#9ac6f0"/>
            </g>
            <g id="Grupo_136441" data-name="Grupo 136441">
              <g id="Grupo_136438" data-name="Grupo 136438">
                <g id="Grupo_136437" data-name="Grupo 136437">
                  <g id="Grupo_136436" data-name="Grupo 136436">
                    <g id="Grupo_136435" data-name="Grupo 136435">
                      <g id="Grupo_136434" data-name="Grupo 136434">
                        <path id="Trazado_198416" data-name="Trazado 198416" d="M667.045,313.606l-5.15,5.761-6.773-5.5,5.341-7.179Z" fill="#5a9ad6"/>
                      </g>
                    </g>
                  </g>
                </g>
              </g>
              <g id="Grupo_136440" data-name="Grupo 136440">
                <g id="Grupo_136439" data-name="Grupo 136439">
                  <path id="Trazado_198417" data-name="Trazado 198417" d="M662.769,309.842l1.273,7.118,7.378,70.374L665.168,395l-6.067-7.209.159-70.3-.343-7.218Z" fill="#5a9ad6"/>
                </g>
              </g>
            </g>
            <g id="Grupo_136446" data-name="Grupo 136446">
              <g id="Grupo_136445" data-name="Grupo 136445">
                <g id="Grupo_136444" data-name="Grupo 136444">
                  <g id="Grupo_136443" data-name="Grupo 136443">
                    <g id="Grupo_136442" data-name="Grupo 136442">
                      <path id="Trazado_198418" data-name="Trazado 198418" d="M694.259,372.895l-14.146-1.307,4.114-57.294Z" fill="#fff"/>
                    </g>
                  </g>
                </g>
              </g>
            </g>
            <g id="Grupo_136451" data-name="Grupo 136451">
              <g id="Grupo_136450" data-name="Grupo 136450">
                <g id="Grupo_136449" data-name="Grupo 136449">
                  <g id="Grupo_136448" data-name="Grupo 136448">
                    <g id="Grupo_136447" data-name="Grupo 136447">
                      <rect id="Rectángulo_41650" data-name="Rectángulo 41650" width="16.411" height="17.389" transform="translate(678.175 362.025)" fill="#fff"/>
                    </g>
                  </g>
                </g>
              </g>
            </g>
            <g id="Grupo_136452" data-name="Grupo 136452">
              <rect id="Rectángulo_41651" data-name="Rectángulo 41651" width="41.619" height="29.832" transform="translate(681.528 346.043)" fill="#3c3d4d"/>
            </g>
            <g id="Grupo_136457" data-name="Grupo 136457">
              <g id="Grupo_136456" data-name="Grupo 136456">
                <g id="Grupo_136455" data-name="Grupo 136455">
                  <g id="Grupo_136454" data-name="Grupo 136454">
                    <g id="Grupo_136453" data-name="Grupo 136453">
                      <path id="Trazado_198419" data-name="Trazado 198419" d="M660.434,397.614,639.26,519.177l-9.74,0,.375-121.566Z" fill="#6f8cad"/>
                    </g>
                  </g>
                </g>
              </g>
            </g>
            <g id="Grupo_136462" data-name="Grupo 136462">
              <g id="Grupo_136461" data-name="Grupo 136461">
                <g id="Grupo_136460" data-name="Grupo 136460">
                  <g id="Grupo_136459" data-name="Grupo 136459">
                    <g id="Grupo_136458" data-name="Grupo 136458">
                      <path id="Trazado_198420" data-name="Trazado 198420" d="M678.633,515l-11.857,0L652.555,397.613l27.554,0Z" fill="#6f8cad"/>
                    </g>
                  </g>
                </g>
              </g>
            </g>
            <g id="Grupo_136467" data-name="Grupo 136467">
              <g id="Grupo_136466" data-name="Grupo 136466">
                <g id="Grupo_136465" data-name="Grupo 136465">
                  <g id="Grupo_136464" data-name="Grupo 136464">
                    <g id="Grupo_136463" data-name="Grupo 136463">
                      <path id="Trazado_198421" data-name="Trazado 198421" d="M634.536,515.244a5.014,5.014,0,0,1,5.014,5.015v3.759H629.52v-3.76A5.015,5.015,0,0,1,634.536,515.244Z" fill="#fff"/>
                    </g>
                  </g>
                </g>
              </g>
            </g>
            <g id="Grupo_136472" data-name="Grupo 136472">
              <g id="Grupo_136471" data-name="Grupo 136471">
                <g id="Grupo_136470" data-name="Grupo 136470">
                  <g id="Grupo_136469" data-name="Grupo 136469">
                    <g id="Grupo_136468" data-name="Grupo 136468">
                      <rect id="Rectángulo_41652" data-name="Rectángulo 41652" width="1.311" height="96.217" transform="translate(672.894 419.054) rotate(-0.869)" fill="#53535b"/>
                    </g>
                  </g>
                </g>
              </g>
            </g>
            <g id="Grupo_136477" data-name="Grupo 136477">
              <g id="Grupo_136476" data-name="Grupo 136476">
                <g id="Grupo_136475" data-name="Grupo 136475">
                  <g id="Grupo_136474" data-name="Grupo 136474">
                    <g id="Grupo_136473" data-name="Grupo 136473">
                      <rect id="Rectángulo_41653" data-name="Rectángulo 41653" width="88.194" height="1.311" transform="translate(633.884 515.178) rotate(-84.23)" fill="#53535b"/>
                    </g>
                  </g>
                </g>
              </g>
            </g>
            <g id="Grupo_136482" data-name="Grupo 136482">
              <g id="Grupo_136481" data-name="Grupo 136481">
                <g id="Grupo_136480" data-name="Grupo 136480">
                  <g id="Grupo_136479" data-name="Grupo 136479">
                    <g id="Grupo_136478" data-name="Grupo 136478">
                      <path id="Trazado_198422" data-name="Trazado 198422" d="M661.711,410.865l.79,1.047-4.638,3.5-1.391,7.5-1.289-.239,1.484-8.005Z" fill="#53535b"/>
                    </g>
                  </g>
                </g>
              </g>
            </g>
            <g id="Grupo_136489" data-name="Grupo 136489">
              <g id="Grupo_136488" data-name="Grupo 136488">
                <g id="Grupo_136487" data-name="Grupo 136487">
                  <g id="Grupo_136486" data-name="Grupo 136486">
                    <g id="Grupo_136483" data-name="Grupo 136483">
                      <path id="Trazado_198423" data-name="Trazado 198423" d="M649.523,327.143c2.1,22.3,3.792,121.377,3.792,121.377l-23.439-.009-3.258-100.423-2.6-32.936,20.991-10.97C645.345,304.8,647.9,309.989,649.523,327.143Z" fill="#fff"/>
                    </g>
                    <g id="Grupo_136484" data-name="Grupo 136484">
                      <path id="Trazado_198424" data-name="Trazado 198424" d="M666.106,303.658l-8.5.451h-.414l-12.065.009.883-.46Z" fill="#fff"/>
                    </g>
                    <g id="Grupo_136485" data-name="Grupo 136485">
                      <path id="Trazado_198425" data-name="Trazado 198425" d="M684.226,314.3l1.151,134.224h-10.8s3.423-127.709-8.476-144.862Z" fill="#fff"/>
                    </g>
                  </g>
                </g>
              </g>
            </g>
            <g id="Grupo_136494" data-name="Grupo 136494">
              <g id="Grupo_136493" data-name="Grupo 136493">
                <g id="Grupo_136492" data-name="Grupo 136492">
                  <g id="Grupo_136491" data-name="Grupo 136491">
                    <g id="Grupo_136490" data-name="Grupo 136490">
                      <path id="Trazado_198426" data-name="Trazado 198426" d="M645.005,304.182c-.019-.046-.028-.064-.028-.064h.147Z" fill="#754949"/>
                    </g>
                  </g>
                </g>
              </g>
            </g>
            <g id="Grupo_136499" data-name="Grupo 136499">
              <g id="Grupo_136498" data-name="Grupo 136498">
                <g id="Grupo_136497" data-name="Grupo 136497">
                  <g id="Grupo_136496" data-name="Grupo 136496">
                    <g id="Grupo_136495" data-name="Grupo 136495">
                      <path id="Trazado_198427" data-name="Trazado 198427" d="M666.121,277.143l.436,29.835s-1.385,1.342-9.189,1.34a19.556,19.556,0,0,1-12.42-4.175l3.688-24.071Z" fill="#faa2a1"/>
                    </g>
                  </g>
                </g>
              </g>
            </g>
            <g id="Grupo_136504" data-name="Grupo 136504">
              <g id="Grupo_136503" data-name="Grupo 136503">
                <g id="Grupo_136502" data-name="Grupo 136502">
                  <g id="Grupo_136501" data-name="Grupo 136501">
                    <g id="Grupo_136500" data-name="Grupo 136500">
                      <path id="Trazado_198428" data-name="Trazado 198428" d="M666.116,303.363c-17.484,0-17.482-13.008-17.482-13.008l17.485,0Z" fill="#db7170"/>
                    </g>
                  </g>
                </g>
              </g>
            </g>
            <g id="Grupo_136509" data-name="Grupo 136509">
              <g id="Grupo_136508" data-name="Grupo 136508">
                <g id="Grupo_136507" data-name="Grupo 136507">
                  <g id="Grupo_136506" data-name="Grupo 136506">
                    <g id="Grupo_136505" data-name="Grupo 136505">
                      <rect id="Rectángulo_41654" data-name="Rectángulo 41654" width="5.383" height="1.311" transform="translate(678.091 338.453)" fill="#d5e1f2"/>
                    </g>
                  </g>
                </g>
              </g>
            </g>
            <g id="Grupo_136550" data-name="Grupo 136550">
              <g id="Grupo_136514" data-name="Grupo 136514">
                <g id="Grupo_136513" data-name="Grupo 136513">
                  <g id="Grupo_136512" data-name="Grupo 136512">
                    <g id="Grupo_136511" data-name="Grupo 136511">
                      <g id="Grupo_136510" data-name="Grupo 136510">
                        <path id="Trazado_198429" data-name="Trazado 198429" d="M652.647,260.921l7.841,0a13.191,13.191,0,0,1,13.189,13.193l0,13.355-27.5-.005a5.109,5.109,0,0,1-5.107-5.108l0-9.865A11.574,11.574,0,0,1,652.647,260.921Z" fill="#fff"/>
                      </g>
                    </g>
                  </g>
                </g>
              </g>
              <g id="Grupo_136519" data-name="Grupo 136519">
                <g id="Grupo_136518" data-name="Grupo 136518">
                  <g id="Grupo_136517" data-name="Grupo 136517">
                    <g id="Grupo_136516" data-name="Grupo 136516">
                      <g id="Grupo_136515" data-name="Grupo 136515">
                        <path id="Trazado_198430" data-name="Trazado 198430" d="M658.556,265.753h4.156c8.864,0,10.606,8.205,10.586,13.811l0,24.363c-14.852,5.719-23.677-6.253-23.677-6.253l0-21.07S648.492,265.751,658.556,265.753Z" fill="#faa2a1"/>
                      </g>
                    </g>
                  </g>
                </g>
              </g>
              <g id="Grupo_136524" data-name="Grupo 136524">
                <g id="Grupo_136523" data-name="Grupo 136523">
                  <g id="Grupo_136522" data-name="Grupo 136522">
                    <g id="Grupo_136521" data-name="Grupo 136521">
                      <g id="Grupo_136520" data-name="Grupo 136520">
                        <path id="Trazado_198431" data-name="Trazado 198431" d="M648.219,265.751A4.252,4.252,0,0,1,652.47,270v7.776a9.677,9.677,0,0,1-9.678,9.675l0-16.281A5.424,5.424,0,0,1,648.219,265.751Z" fill="#fff"/>
                      </g>
                    </g>
                  </g>
                </g>
              </g>
              <g id="Grupo_136529" data-name="Grupo 136529">
                <g id="Grupo_136528" data-name="Grupo 136528">
                  <g id="Grupo_136527" data-name="Grupo 136527">
                    <g id="Grupo_136526" data-name="Grupo 136526">
                      <g id="Grupo_136525" data-name="Grupo 136525">
                        <path id="Trazado_198432" data-name="Trazado 198432" d="M667.322,291l-.3-2.69,1.231-.136.45,4.063h-2.768V291Z" fill="#db7170"/>
                      </g>
                    </g>
                  </g>
                </g>
              </g>
              <g id="Grupo_136534" data-name="Grupo 136534">
                <g id="Grupo_136533" data-name="Grupo 136533">
                  <g id="Grupo_136532" data-name="Grupo 136532">
                    <g id="Grupo_136531" data-name="Grupo 136531">
                      <g id="Grupo_136530" data-name="Grupo 136530">
                        <path id="Trazado_198433" data-name="Trazado 198433" d="M667.887,260.924c4.412,4.234.493,10.2-3.963,8.895S650.4,261.51,650.4,261.51,663.474,256.69,667.887,260.924Z" fill="#fff"/>
                      </g>
                    </g>
                  </g>
                </g>
              </g>
              <g id="Grupo_136539" data-name="Grupo 136539">
                <g id="Grupo_136538" data-name="Grupo 136538">
                  <g id="Grupo_136537" data-name="Grupo 136537">
                    <g id="Grupo_136536" data-name="Grupo 136536">
                      <g id="Grupo_136535" data-name="Grupo 136535">
                        <path id="Trazado_198434" data-name="Trazado 198434" d="M665.015,292.161h3.8a4.946,4.946,0,0,1-4.946,4.945h-3.76v-.036A4.908,4.908,0,0,1,665.015,292.161Z" fill="#fff"/>
                      </g>
                    </g>
                  </g>
                </g>
              </g>
              <g id="Grupo_136544" data-name="Grupo 136544">
                <g id="Grupo_136543" data-name="Grupo 136543">
                  <g id="Grupo_136542" data-name="Grupo 136542">
                    <g id="Grupo_136541" data-name="Grupo 136541">
                      <g id="Grupo_136540" data-name="Grupo 136540">
                        <path id="Trazado_198435" data-name="Trazado 198435" d="M669.276,292.161a4.216,4.216,0,0,1,4.215,4.217v.729h-1.832a4.589,4.589,0,0,1-4.588-4.59v-.356Z" fill="#fff"/>
                      </g>
                    </g>
                  </g>
                </g>
              </g>
              <g id="Grupo_136549" data-name="Grupo 136549">
                <g id="Grupo_136548" data-name="Grupo 136548">
                  <g id="Grupo_136547" data-name="Grupo 136547">
                    <g id="Grupo_136546" data-name="Grupo 136546">
                      <g id="Grupo_136545" data-name="Grupo 136545">
                        <path id="Trazado_198436" data-name="Trazado 198436" d="M651.37,278.138a38.64,38.64,0,0,0,2.577,11.788c2.42,6.11,9.3,5.241,9.3,5.241s1.628,3.768,4.762,3.769,3.443-3.584,3.643-3.84c1.57-2.014,1.643-10.419,1.643-10.419l3.065,17.533s-5.363,6.363-13.586,5.556c-12.744-1.249-15.15-9.142-15.15-9.142l1.029-15.432Z" fill="#fff"/>
                      </g>
                    </g>
                  </g>
                </g>
              </g>
            </g>
            <g id="Grupo_136555" data-name="Grupo 136555">
              <g id="Grupo_136554" data-name="Grupo 136554">
                <g id="Grupo_136553" data-name="Grupo 136553">
                  <g id="Grupo_136552" data-name="Grupo 136552">
                    <g id="Grupo_136551" data-name="Grupo 136551">
                      <rect id="Rectángulo_41655" data-name="Rectángulo 41655" width="53.664" height="1.311" transform="matrix(0.002, -1, 1, 0.002, 627.96, 387.144)" fill="#d5e1f2"/>
                    </g>
                  </g>
                </g>
              </g>
            </g>
            <g id="Grupo_136560" data-name="Grupo 136560">
              <g id="Grupo_136559" data-name="Grupo 136559">
                <g id="Grupo_136558" data-name="Grupo 136558">
                  <g id="Grupo_136557" data-name="Grupo 136557">
                    <g id="Grupo_136556" data-name="Grupo 136556">
                      <rect id="Rectángulo_41656" data-name="Rectángulo 41656" width="12.78" height="1.311" transform="translate(628.009 347.294) rotate(-69.317)" fill="#d5e1f2"/>
                    </g>
                  </g>
                </g>
              </g>
            </g>
            <g id="Grupo_136565" data-name="Grupo 136565">
              <g id="Grupo_136564" data-name="Grupo 136564">
                <g id="Grupo_136563" data-name="Grupo 136563">
                  <g id="Grupo_136562" data-name="Grupo 136562">
                    <g id="Grupo_136561" data-name="Grupo 136561">
                      <path id="Trazado_198437" data-name="Trazado 198437" d="M643.391,387.228v-4.344H644.7v5.655l-13.419,0v-1.311Z" fill="#d5e1f2"/>
                    </g>
                  </g>
                </g>
              </g>
            </g>
            <g id="Grupo_136570" data-name="Grupo 136570">
              <g id="Grupo_136569" data-name="Grupo 136569">
                <g id="Grupo_136568" data-name="Grupo 136568">
                  <g id="Grupo_136567" data-name="Grupo 136567">
                    <g id="Grupo_136566" data-name="Grupo 136566">
                      <rect id="Rectángulo_41657" data-name="Rectángulo 41657" width="14.129" height="11.122" rx="5.439" transform="translate(688.209 369.489)" fill="#faa2a1"/>
                    </g>
                  </g>
                </g>
              </g>
            </g>
            <g id="Grupo_136575" data-name="Grupo 136575">
              <g id="Grupo_136574" data-name="Grupo 136574">
                <g id="Grupo_136573" data-name="Grupo 136573">
                  <g id="Grupo_136572" data-name="Grupo 136572">
                    <g id="Grupo_136571" data-name="Grupo 136571">
                      <rect id="Rectángulo_41658" data-name="Rectángulo 41658" width="1.311" height="50.134" transform="matrix(1, -0.031, 0.031, 1, 682.815, 329.274)" fill="#d5e1f2"/>
                    </g>
                  </g>
                </g>
              </g>
            </g>
            <g id="Grupo_136580" data-name="Grupo 136580">
              <g id="Grupo_136579" data-name="Grupo 136579">
                <g id="Grupo_136578" data-name="Grupo 136578">
                  <g id="Grupo_136577" data-name="Grupo 136577">
                    <g id="Grupo_136576" data-name="Grupo 136576">
                      <path id="Trazado_198438" data-name="Trazado 198438" d="M635.513,320.947l8.5-15.787,1.155.622-7.986,14.826,9.306,7.469-9.268,5.822,12.565,22.5-1.145.639L635.471,333.45l8.763-5.5Z" fill="#d5e1f2"/>
                    </g>
                  </g>
                </g>
              </g>
            </g>
            <g id="Grupo_136585" data-name="Grupo 136585">
              <g id="Grupo_136584" data-name="Grupo 136584">
                <g id="Grupo_136583" data-name="Grupo 136583">
                  <g id="Grupo_136582" data-name="Grupo 136582">
                    <g id="Grupo_136581" data-name="Grupo 136581">
                      <path id="Trazado_198439" data-name="Trazado 198439" d="M670.375,307.982l8.6,14.272-2.955,3.853,4.838,2.817L676.2,353.573l-1.284-.264,4.471-23.725-5.309-3.094,3.317-4.323-8.139-13.507Z" fill="#d5e1f2"/>
                    </g>
                  </g>
                </g>
              </g>
            </g>
            <g id="Grupo_136590" data-name="Grupo 136590">
              <g id="Grupo_136589" data-name="Grupo 136589">
                <g id="Grupo_136588" data-name="Grupo 136588">
                  <g id="Grupo_136587" data-name="Grupo 136587">
                    <g id="Grupo_136586" data-name="Grupo 136586">
                      <path id="Trazado_198440" data-name="Trazado 198440" d="M681.425,382.891v4.344h3.359v1.311h-4.67v-5.655Z" fill="#d5e1f2"/>
                    </g>
                  </g>
                </g>
              </g>
            </g>
          </g>
          <g id="Grupo_136596" data-name="Grupo 136596">
            <g id="Grupo_136595" data-name="Grupo 136595">
              <g id="Grupo_136594" data-name="Grupo 136594">
                <g id="Grupo_136593" data-name="Grupo 136593">
                  <g id="Grupo_136592" data-name="Grupo 136592">
                    <path id="Trazado_198441" data-name="Trazado 198441" d="M687.983,524.018H667.7L666.809,515l11.877,0A9.307,9.307,0,0,1,687.983,524.018Z" fill="#fff"/>
                  </g>
                </g>
              </g>
            </g>
          </g>
        </g>
        <g id="Grupo_136611" data-name="Grupo 136611">
          <g id="Grupo_136610" data-name="Grupo 136610">
            <g id="Grupo_136599" data-name="Grupo 136599">
              <g id="Grupo_136598" data-name="Grupo 136598">
                <rect id="Rectángulo_41659" data-name="Rectángulo 41659" width="17.352" height="14.98" rx="7.49" transform="translate(649.859 275.307)" fill="#485c80"/>
              </g>
            </g>
            <g id="Grupo_136601" data-name="Grupo 136601">
              <g id="Grupo_136600" data-name="Grupo 136600">
                <path id="Trazado_198442" data-name="Trazado 198442" d="M672.708,290.839h0c-.5-1.759-1.242-2.23-2.274-2.274V278.134a2.274,2.274,0,0,1,2.274-2.275h0a2.274,2.274,0,0,1,2.274,2.275v10.431A2.274,2.274,0,0,1,672.708,290.839Z" fill="#485c80"/>
              </g>
            </g>
            <g id="Grupo_136603" data-name="Grupo 136603">
              <g id="Grupo_136602" data-name="Grupo 136602">
                <rect id="Rectángulo_41660" data-name="Rectángulo 41660" width="24.824" height="13.828" rx="6.569" transform="translate(653.451 275.307)" fill="#2c3852"/>
              </g>
            </g>
            <g id="Grupo_136605" data-name="Grupo 136605">
              <g id="Grupo_136604" data-name="Grupo 136604">
                <path id="Rectángulo_41661" data-name="Rectángulo 41661" d="M0,0H10.182a1.879,1.879,0,0,1,1.879,1.879V2.7a1.879,1.879,0,0,1-1.879,1.879H0a0,0,0,0,1,0,0V0A0,0,0,0,1,0,0Z" transform="translate(645.56 280.703)" fill="#485c80"/>
              </g>
            </g>
            <g id="Grupo_136607" data-name="Grupo 136607">
              <g id="Grupo_136606" data-name="Grupo 136606">
                <path id="Rectángulo_41662" data-name="Rectángulo 41662" d="M2.216,0H14.279a2.288,2.288,0,0,1,2.288,2.288v0a2.288,2.288,0,0,1-2.288,2.288H2.216A2.216,2.216,0,0,1,0,2.361V2.216A2.216,2.216,0,0,1,2.216,0Z" transform="translate(639.734 280.703)" fill="#2c3852"/>
              </g>
            </g>
            <g id="Grupo_136609" data-name="Grupo 136609">
              <g id="Grupo_136608" data-name="Grupo 136608">
                <path id="Trazado_198443" data-name="Trazado 198443" d="M678.319,277.965v6.747a2.648,2.648,0,0,1-2.647,2.656H662.143a2.66,2.66,0,0,1-2.525-1.829c-.026-.1-.052-.182-.07-.278a2.283,2.283,0,0,1-.061-.549v-6.747a1.074,1.074,0,0,1,.009-.174,2.651,2.651,0,0,1,2.647-2.481h13.529A2.647,2.647,0,0,1,678.319,277.965Z" fill="#354361"/>
              </g>
            </g>
          </g>
          <path id="Trazado_198444" data-name="Trazado 198444" d="M678.319,277.965v5.024a8.734,8.734,0,0,1-8.471-1.646,10.6,10.6,0,0,0-10.361-1.941v-1.437a1.074,1.074,0,0,1,.009-.174,2.651,2.651,0,0,1,2.647-2.481h13.529A2.647,2.647,0,0,1,678.319,277.965Z" fill="#4c6187"/>
          <path id="Rectángulo_41663" data-name="Rectángulo 41663" d="M2.469,0H13.922a2.47,2.47,0,0,1,2.47,2.47V6.922a2.47,2.47,0,0,1-2.47,2.47H2.469A2.469,2.469,0,0,1,0,6.922V2.469A2.469,2.469,0,0,1,2.469,0Z" transform="translate(660.958 276.663)" fill="url(#linear-gradient-6)" style="mix-blend-mode: screen;isolation: isolate"/>
          <path id="Trazado_198445" data-name="Trazado 198445" d="M674.276,278.541a.485.485,0,1,1-.485-.485A.485.485,0,0,1,674.276,278.541Z" fill="#fff"/>
          <path id="Trazado_198446" data-name="Trazado 198446" d="M676.339,278.541a.485.485,0,1,1-.485-.485A.485.485,0,0,1,676.339,278.541Z" fill="#fff"/>
        </g>
        <g id="Grupo_136616" data-name="Grupo 136616">
          <g id="Grupo_136615" data-name="Grupo 136615">
            <g id="Grupo_136614" data-name="Grupo 136614">
              <g id="Grupo_136613" data-name="Grupo 136613">
                <g id="Grupo_136612" data-name="Grupo 136612">
                  <path id="Trazado_198447" data-name="Trazado 198447" d="M646.107,281.7a3.02,3.02,0,0,1,2.549,3.028v6.86a1.943,1.943,0,0,1-1.944,1.943h-1.006a2.916,2.916,0,0,1-2.915-2.916v-6.026A2.918,2.918,0,0,1,646.107,281.7Z" fill="#faa2a1"/>
                </g>
              </g>
            </g>
          </g>
        </g>
        <g id="Grupo_136621" data-name="Grupo 136621">
          <g id="Grupo_136620" data-name="Grupo 136620">
            <g id="Grupo_136619" data-name="Grupo 136619">
              <g id="Grupo_136618" data-name="Grupo 136618">
                <g id="Grupo_136617" data-name="Grupo 136617">
                  <path id="Trazado_198448" data-name="Trazado 198448" d="M614.91,360.444c-.107-2.364,0-3.016,0-5.261a93.96,93.96,0,0,1,9.1-40.032h4.478l-.9,49.093Z" fill="#fff"/>
                </g>
              </g>
            </g>
          </g>
        </g>
        <path id="Rectángulo_41664" data-name="Rectángulo 41664" d="M11,0h6.076a0,0,0,0,1,0,0V0a11,11,0,0,1-11,11H0a0,0,0,0,1,0,0v0A11,11,0,0,1,11,0Z" transform="translate(659.937 342.576) rotate(168.404)" fill="#faa2a1"/>
        <path id="Trazado_198449" data-name="Trazado 198449" d="M644.172,352.278l5.205-3.822-7.411-9.1-5.206,3.822Z" fill="#9ac6f0"/>
        <path id="Trazado_198450" data-name="Trazado 198450" d="M627.542,368.225l19.488-13.451-8.606-13.093-20.478,13.736c-4.121,3.293-4.152,6.484-2.454,9.962h0A8,8,0,0,0,627.542,368.225Z" fill="#fff"/>
      </g>
      <path id="Trazado_198451" data-name="Trazado 198451" d="M682.975,524.02H667.7L666.81,515h6.865A9.31,9.31,0,0,1,682.975,524.02Z" fill="#73a3cc" opacity="0.5" style="mix-blend-mode: multiply;isolation: isolate"/>
      <path id="Trazado_198452" data-name="Trazado 198452" d="M684.652,346.041l-5.433-31.749-.005.005-13.521-7.942a17.967,17.967,0,0,0,5.659-4.146l-2.1-11.994a2.283,2.283,0,0,0,.635-1.081h.086a3.289,3.289,0,0,0,3.29-3.285v-.7a2.6,2.6,0,0,0,.045-.441v-6.745a2.653,2.653,0,0,0-2.649-2.66h-1.993v-1.191a13.147,13.147,0,0,0-3.871-9.335,5.82,5.82,0,0,0-1.923-3.856,6.54,6.54,0,0,0-3.551-1.572,42.656,42.656,0,0,0-7.176,1.582,11.573,11.573,0,0,0-11.077,11.558V280.7H640.9a1.163,1.163,0,0,0-1.162,1.162v2.253a1.16,1.16,0,0,0,1.162,1.162h1.1a5.02,5.02,0,0,0,.8.9l-.005,4.437a2.915,2.915,0,0,0,2.919,2.914l.867.005-1.628,10.612.005.07-20.937,10.942h-.005a93.947,93.947,0,0,0-9.1,40.031c0,1.8-.07,2.574-.04,4.032-.806,2-.421,4.031.621,6.164a7.92,7.92,0,0,0,4.682,4.076,7.544,7.544,0,0,0,2.138.391,7.922,7.922,0,0,0,4.968-1.442l2.469,76.237-.226,74.535h.121a4.72,4.72,0,0,0-.121,1.081l0,3.761h5.023v-3.761a5.128,5.128,0,0,0-.22-1.477l12.239-70.263h1.747s-.06-3.4-.17-9.079l2.639-15.148,2.474,20.4c-.03-1.412-.06-3.18-.1-5.253l2.639-15.148L666.775,515h6.845l.837-66.477h5.909l-.591-69.106h10.476a5.356,5.356,0,0,0,2.509,1.126,5.44,5.44,0,0,0,4.517-4.662h20.862V346.041Zm-59.707,12.59-3.27-5.844,16.751-11.107,2.92,4.511Z" fill="#fff" opacity="0.5" style="mix-blend-mode: multiply;isolation: isolate"/>
      <g id="Grupo_136624" data-name="Grupo 136624">
        <g id="Grupo_136623" data-name="Grupo 136623" style="mix-blend-mode: screen;isolation: isolate">
          <path id="Trazado_198453" data-name="Trazado 198453" d="M646.4,322.706l2.068,2.124a8.713,8.713,0,0,1,.765-.663l-1.807-2.35A11.668,11.668,0,0,0,646.4,322.706Z" fill="#1cb3ff"/>
          <path id="Trazado_198454" data-name="Trazado 198454" d="M648.54,321.053l1.526,2.542a8.675,8.675,0,0,1,.9-.469l-1.221-2.7A11.816,11.816,0,0,0,648.54,321.053Z" fill="#1cb3ff"/>
          <path id="Trazado_198455" data-name="Trazado 198455" d="M643.5,327.243l2.8.976a8.468,8.468,0,0,1,.389-.936l-2.669-1.293A11.982,11.982,0,0,0,643.5,327.243Z" fill="#1cb3ff"/>
          <path id="Trazado_198456" data-name="Trazado 198456" d="M642.913,329.89l2.949.3a8.875,8.875,0,0,1,.162-1l-2.895-.64A11.814,11.814,0,0,0,642.913,329.89Z" fill="#1cb3ff"/>
          <path id="Trazado_198457" data-name="Trazado 198457" d="M642.852,331.242a12.152,12.152,0,0,0,.094,1.352l2.941-.376a8.92,8.92,0,0,1-.07-1.011Z" fill="#1cb3ff"/>
          <path id="Trazado_198458" data-name="Trazado 198458" d="M651.009,319.937l.9,2.826a8.739,8.739,0,0,1,.983-.251l-.568-2.91A12.077,12.077,0,0,0,651.009,319.937Z" fill="#1cb3ff"/>
          <path id="Trazado_198459" data-name="Trazado 198459" d="M644.684,324.8l2.5,1.594a8.862,8.862,0,0,1,.593-.821l-2.3-1.873A11.783,11.783,0,0,0,644.684,324.8Z" fill="#1cb3ff"/>
          <path id="Trazado_198460" data-name="Trazado 198460" d="M661.137,325.332a8.8,8.8,0,0,1,.624.8l2.438-1.687a11.682,11.682,0,0,0-.834-1.069Z" fill="#1cb3ff"/>
          <path id="Trazado_198461" data-name="Trazado 198461" d="M662.288,327a8.7,8.7,0,0,1,.423.92l2.761-1.079a11.774,11.774,0,0,0-.567-1.234Z" fill="#1cb3ff"/>
          <path id="Trazado_198462" data-name="Trazado 198462" d="M663.023,328.878a8.775,8.775,0,0,1,.2.993l2.936-.412a11.83,11.83,0,0,0-.266-1.33Z" fill="#1cb3ff"/>
          <path id="Trazado_198463" data-name="Trazado 198463" d="M655.916,322.456a9.051,9.051,0,0,1,.992.215l.789-2.858a11.756,11.756,0,0,0-1.325-.285Z" fill="#1cb3ff"/>
          <path id="Trazado_198464" data-name="Trazado 198464" d="M653.667,319.422l.226,2.956a8.8,8.8,0,0,1,1.015-.018l.115-2.963A12.013,12.013,0,0,0,653.667,319.422Z" fill="#1cb3ff"/>
          <path id="Trazado_198465" data-name="Trazado 198465" d="M657.864,323a8.793,8.793,0,0,1,.914.437l1.431-2.6a11.624,11.624,0,0,0-1.225-.584Z" fill="#1cb3ff"/>
          <path id="Trazado_198466" data-name="Trazado 198466" d="M659.636,323.975a8.943,8.943,0,0,1,.791.636l1.985-2.2a12.155,12.155,0,0,0-1.055-.848Z" fill="#1cb3ff"/>
          <path id="Trazado_198467" data-name="Trazado 198467" d="M658.964,338.657l1.5,2.559a12.012,12.012,0,0,0,1.129-.75l-1.781-2.37A8.769,8.769,0,0,1,658.964,338.657Z" fill="#1cb3ff"/>
          <path id="Trazado_198468" data-name="Trazado 198468" d="M660.583,337.442l2.041,2.149a11.546,11.546,0,0,0,.927-.988l-2.274-1.9A8.824,8.824,0,0,1,660.583,337.442Z" fill="#1cb3ff"/>
          <path id="Trazado_198469" data-name="Trazado 198469" d="M655.122,339.826l.19,2.959a11.87,11.87,0,0,0,1.345-.164l-.527-2.917A9.127,9.127,0,0,1,655.122,339.826Z" fill="#1cb3ff"/>
          <path id="Trazado_198470" data-name="Trazado 198470" d="M643.2,333.928a11.8,11.8,0,0,0,.4,1.3l2.774-1.045a8.845,8.845,0,0,1-.3-.966Z" fill="#1cb3ff"/>
          <path id="Trazado_198471" data-name="Trazado 198471" d="M661.88,335.887l2.48,1.625a11.7,11.7,0,0,0,.676-1.174l-2.649-1.33A8.82,8.82,0,0,1,661.88,335.887Z" fill="#1cb3ff"/>
          <path id="Trazado_198472" data-name="Trazado 198472" d="M663.3,330.882l0,.216a8.718,8.718,0,0,1-.058,1.013l2.945.34a11.664,11.664,0,0,0,.078-1.348c0-.1,0-.2,0-.293Z" fill="#1cb3ff"/>
          <path id="Trazado_198473" data-name="Trazado 198473" d="M662.787,334.079l2.786,1.011a11.546,11.546,0,0,0,.388-1.3l-2.885-.678A9.008,9.008,0,0,1,662.787,334.079Z" fill="#1cb3ff"/>
          <path id="Trazado_198474" data-name="Trazado 198474" d="M657.111,339.467l.867,2.835a11.653,11.653,0,0,0,1.272-.47l-1.188-2.717A8.65,8.65,0,0,1,657.111,339.467Z" fill="#1cb3ff"/>
          <path id="Trazado_198475" data-name="Trazado 198475" d="M644.152,336.466a11.64,11.64,0,0,0,.691,1.166l2.458-1.656a8.966,8.966,0,0,1-.516-.872Z" fill="#1cb3ff"/>
          <path id="Trazado_198476" data-name="Trazado 198476" d="M647.648,340.551a12.234,12.234,0,0,0,1.139.737l1.465-2.578a8.708,8.708,0,0,1-.851-.551Z" fill="#1cb3ff"/>
          <path id="Trazado_198477" data-name="Trazado 198477" d="M645.664,338.711a11.709,11.709,0,0,0,.939.976l2.015-2.173a9.02,9.02,0,0,1-.7-.732Z" fill="#1cb3ff"/>
          <path id="Trazado_198478" data-name="Trazado 198478" d="M650,341.888a11.457,11.457,0,0,0,1.282.455l.828-2.846a8.542,8.542,0,0,1-.953-.339Z" fill="#1cb3ff"/>
          <path id="Trazado_198479" data-name="Trazado 198479" d="M652.611,342.647a11.985,11.985,0,0,0,1.346.146l.15-2.961a9.086,9.086,0,0,1-1.009-.109Z" fill="#1cb3ff"/>
          <path id="Trazado_198480" data-name="Trazado 198480" d="M654.562,323.687a7.411,7.411,0,1,0,7.411,7.411A7.419,7.419,0,0,0,654.562,323.687Zm0,14.23a6.818,6.818,0,1,1,6.818-6.819A6.827,6.827,0,0,1,654.562,337.917Z" fill="#1cb3ff"/>
        </g>
        <rect id="Rectángulo_41665" data-name="Rectángulo 41665" width="26.811" height="26.811" transform="translate(641.717 317.693)" fill="url(#radial-gradient)" style="mix-blend-mode: screen;isolation: isolate"/>
      </g>
    </g>
    <g id="Grupo_136629" data-name="Grupo 136629" transform="translate(357.094 2515.107)">
      <g id="Grupo_136626" data-name="Grupo 136626">
        <path id="Trazado_198481" data-name="Trazado 198481" d="M566.325,300.5H553.633l-6.346-10.992,6.346-10.992h12.692l6.346,10.992Zm-11.915-1.347h11.138l5.569-9.645-5.569-9.646H554.41l-5.569,9.646Z" fill="#fff"/>
      </g>
      <g id="Grupo_136627" data-name="Grupo 136627">
        <path id="Trazado_198482" data-name="Trazado 198482" d="M594.493,320.488H576.651l-8.921-15.452,8.921-15.452h17.842l8.922,15.452Zm-17.065-1.347h16.288l8.144-14.1-8.144-14.106H577.428l-8.144,14.106Z" fill="#fff"/>
      </g>
      <g id="Grupo_136628" data-name="Grupo 136628" opacity="0.4">
        <path id="Trazado_198483" data-name="Trazado 198483" d="M554.96,290.47l-11.054,19.146,11.054,19.146h22.108l11.054-19.146L577.067,290.47Z" fill="#00c1dc"/>
      </g>
    </g>
    <g id="Grupo_136633" data-name="Grupo 136633" transform="translate(357.094 2515.107)">
      <g id="Grupo_136632" data-name="Grupo 136632">
        <g id="Grupo_136630" data-name="Grupo 136630">
          <path id="Trazado_198484" data-name="Trazado 198484" d="M712.922,410.877,706.157,422.6l6.765,11.719h13.532L733.22,422.6l-6.766-11.719Zm12.7,22H713.751L707.814,422.6l5.937-10.283h11.874l5.937,10.283Z" fill="#3f419a"/>
        </g>
        <g id="Grupo_136631" data-name="Grupo 136631">
          <path id="Trazado_198485" data-name="Trazado 198485" d="M695.58,426.506l-3.973,6.881,3.973,6.881h7.946l3.973-6.881-3.973-6.881Zm7.117,12.326h-6.288l-3.144-5.445,3.144-5.446H702.7l3.144,5.446Z" fill="#3f419a"/>
        </g>
        <path id="Trazado_198486" data-name="Trazado 198486" d="M691,396.215l-10.231,17.72L691,431.655h20.462l10.231-17.72-10.231-17.72Z" fill="#3f419a" opacity="0.4"/>
      </g>
    </g>
    <path id="Trazado_198487" data-name="Trazado 198487" d="M873.109,423.91a1.926,1.926,0,1,0,1.926,1.926A1.925,1.925,0,0,0,873.109,423.91Z" transform="translate(357.094 2515.107)" fill="#fff"/>
    <path id="Trazado_198488" data-name="Trazado 198488" d="M740.358,378.5a1.407,1.407,0,1,0,1.408,1.407A1.408,1.408,0,0,0,740.358,378.5Z" transform="translate(357.094 2515.107)" fill="#fff"/>
    <path id="Trazado_198489" data-name="Trazado 198489" d="M683.7,457.9a1.529,1.529,0,1,0,1.528,1.528A1.529,1.529,0,0,0,683.7,457.9Z" transform="translate(357.094 2515.107)" fill="#fff"/>
    <path id="Trazado_198490" data-name="Trazado 198490" d="M715.335,477.869a1.6,1.6,0,1,0,1.6,1.6A1.6,1.6,0,0,0,715.335,477.869Z" transform="translate(357.094 2515.107)" fill="#fff"/>
    <g id="Grupo_136634" data-name="Grupo 136634" transform="translate(357.094 2515.107)">
      <path id="Trazado_198491" data-name="Trazado 198491" d="M822.475,428.526a.846.846,0,1,0,.845.845A.845.845,0,0,0,822.475,428.526Z" fill="#fff"/>
      <path id="Trazado_198492" data-name="Trazado 198492" d="M845.47,438.052a.649.649,0,1,0,.648.649A.648.648,0,0,0,845.47,438.052Z" fill="#fff"/>
      <path id="Trazado_198493" data-name="Trazado 198493" d="M847.1,425.017a1.633,1.633,0,1,0,1.633,1.634A1.633,1.633,0,0,0,847.1,425.017Z" fill="#fff"/>
    </g>
    <path id="Trazado_200207" data-name="Trazado 200207" d="M1.741,0A1.741,1.741,0,1,1,0,1.741,1.741,1.741,0,0,1,1.741,0Z" transform="translate(1081.77 2878.197)" fill="#fff"/>
    <path id="Trazado_200208" data-name="Trazado 200208" d="M1.221,0A1.221,1.221,0,1,1,0,1.221,1.221,1.221,0,0,1,1.221,0Z" transform="translate(1242.643 3003.297)" fill="#fff"/>
    <g id="Grupo_136637" data-name="Grupo 136637" transform="translate(357.094 2515.107)">
      <g id="Grupo_136636" data-name="Grupo 136636">
        <rect id="Rectángulo_41666" data-name="Rectángulo 41666" width="21.226" height="2.359" transform="translate(876.157 428.09)" fill="#505ca9"/>
        <rect id="Rectángulo_41667" data-name="Rectángulo 41667" width="12.114" height="2.359" transform="translate(876.157 432.183)" fill="#505ca9"/>
        <rect id="Rectángulo_41668" data-name="Rectángulo 41668" width="12.114" height="2.359" transform="translate(876.157 436.276)" fill="#505ca9"/>
        <g id="Grupo_136635" data-name="Grupo 136635">
          <path id="Trazado_198494" data-name="Trazado 198494" d="M866.464,452.9l-.956-.939L875.876,441.4h21.506v1.34H876.438Z" fill="#505ca9"/>
        </g>
      </g>
    </g>
    <g id="Grupo_136640" data-name="Grupo 136640" transform="translate(357.094 2515.107)">
      <g id="Grupo_136639" data-name="Grupo 136639">
        <rect id="Rectángulo_41669" data-name="Rectángulo 41669" width="19.842" height="2.205" transform="translate(706.705 244.657)" fill="#dca8cd"/>
        <rect id="Rectángulo_41670" data-name="Rectángulo 41670" width="12.097" height="2.205" transform="translate(706.705 248.513)" fill="#dca8cd"/>
        <rect id="Rectángulo_41671" data-name="Rectángulo 41671" width="12.097" height="2.205" transform="translate(706.705 252.368)" fill="#dca8cd"/>
        <g id="Grupo_136638" data-name="Grupo 136638">
          <path id="Trazado_198495" data-name="Trazado 198495" d="M735.421,268.572l-9.247-9.419H706.7v-1.775h20.214l9.768,9.951Z" fill="#dca8cd"/>
        </g>
      </g>
    </g>
    <g id="Grupo_136645" data-name="Grupo 136645" transform="translate(357.094 2515.107)" opacity="0.3">
      <circle id="Elipse_4922" data-name="Elipse 4922" cx="23.01" cy="23.01" r="23.01" transform="matrix(0.973, -0.23, 0.23, 0.973, 576.31, 237.466)" fill="#fff" opacity="0.4"/>
      <g id="Grupo_136641" data-name="Grupo 136641">
        <path id="Trazado_198496" data-name="Trazado 198496" d="M603.991,230.742a23.831,23.831,0,1,0,23.831,23.832A23.859,23.859,0,0,0,603.991,230.742Zm0,46.019a22.187,22.187,0,1,1,22.187-22.187A22.213,22.213,0,0,1,603.991,276.761Z" fill="#fff"/>
      </g>
      <circle id="Elipse_4923" data-name="Elipse 4923" cx="10.135" cy="10.135" r="10.135" transform="translate(590.748 260.059) rotate(-67.5)" fill="#fff" opacity="0.43"/>
      <g id="Grupo_136642" data-name="Grupo 136642">
        <path id="Trazado_198497" data-name="Trazado 198497" d="M603.991,243.616a10.958,10.958,0,1,0,10.957,10.958A10.97,10.97,0,0,0,603.991,243.616Zm0,20.271a9.313,9.313,0,1,1,9.313-9.313A9.324,9.324,0,0,1,603.991,263.887Z" fill="#fff"/>
      </g>
      <g id="Grupo_136643" data-name="Grupo 136643">
        <rect id="Rectángulo_41672" data-name="Rectángulo 41672" width="1.415" height="6.403" transform="translate(603.283 234.755)" fill="#fff"/>
        <rect id="Rectángulo_41673" data-name="Rectángulo 41673" width="1.415" height="6.403" transform="translate(598.178 235.614) rotate(-15)" fill="#fff"/>
        <rect id="Rectángulo_41674" data-name="Rectángulo 41674" width="1.415" height="6.403" transform="matrix(0.866, -0.5, 0.5, 0.866, 593.469, 237.764)" fill="#fff"/>
        <rect id="Rectángulo_41675" data-name="Rectángulo 41675" width="1.415" height="6.403" transform="matrix(0.707, -0.707, 0.707, 0.707, 589.477, 241.06)" fill="#fff"/>
        <rect id="Rectángulo_41676" data-name="Rectángulo 41676" width="1.415" height="6.403" transform="translate(586.474 245.277) rotate(-60)" fill="#fff"/>
        <rect id="Rectángulo_41677" data-name="Rectángulo 41677" width="1.415" height="6.403" transform="translate(584.664 250.128) rotate(-75)" fill="#fff"/>
        <rect id="Rectángulo_41678" data-name="Rectángulo 41678" width="6.403" height="1.415" transform="translate(584.172 253.866)" fill="#fff"/>
      </g>
      <g id="Grupo_136644" data-name="Grupo 136644">
        <rect id="Rectángulo_41679" data-name="Rectángulo 41679" width="6.403" height="1.415" transform="matrix(0.259, -0.966, 0.966, 0.259, 606.779, 241.432)" fill="#fff"/>
        <rect id="Rectángulo_41680" data-name="Rectángulo 41680" width="6.403" height="1.415" transform="matrix(0.5, -0.866, 0.866, 0.5, 610.085, 242.602)" fill="#fff"/>
        <rect id="Rectángulo_41681" data-name="Rectángulo 41681" width="6.403" height="1.415" transform="matrix(0.707, -0.707, 0.707, 0.707, 612.976, 244.587)" fill="#fff"/>
        <rect id="Rectángulo_41682" data-name="Rectángulo 41682" width="6.403" height="1.415" transform="matrix(0.866, -0.5, 0.5, 0.866, 615.255, 247.253)" fill="#fff"/>
        <rect id="Rectángulo_41683" data-name="Rectángulo 41683" width="6.403" height="1.415" transform="matrix(0.966, -0.259, 0.259, 0.966, 616.766, 250.418)" fill="#fff"/>
        <rect id="Rectángulo_41684" data-name="Rectángulo 41684" width="6.403" height="1.415" transform="translate(617.406 253.866)" fill="#fff"/>
      </g>
    </g>
    <path id="Trazado_198498" data-name="Trazado 198498" d="M712.671,478.848c-17.559,1.446-42.279,2.347-69.666,2.347-53.284,0-96.481-3.411-96.481-7.619,0-3.391,28.056-6.264,66.84-7.252-33,1.171-55.858,3.714-55.858,6.663,0,4.06,43.317,7.35,96.757,7.35C676.2,480.337,696.441,479.782,712.671,478.848Z" transform="translate(357.094 2515.107)" fill="#b5a7d1"/>
    <path id="Trazado_198499" data-name="Trazado 198499" d="M892.5,409.382c0,2.287-12.155,4.318-30.977,5.6,13.415-1.308,21.657-3.084,21.657-5.038,0-4.021-34.889-7.281-77.93-7.281-8.349,0-16.391.123-23.933.35,10.032-.421,21.224-.656,33.027-.656C857.514,402.359,892.5,405.5,892.5,409.382Z" transform="translate(357.094 2515.107)" fill="#b5a7d1"/>
    <g id="Grupo_136646" data-name="Grupo 136646" transform="translate(357.094 2515.107)" style="mix-blend-mode: screen;isolation: isolate">
      <path id="Trazado_198500" data-name="Trazado 198500" d="M755.125,283.377l2.068,2.124a8.9,8.9,0,0,1,.765-.663l-1.807-2.349A11.646,11.646,0,0,0,755.125,283.377Z" fill="#1cb3ff"/>
      <path id="Trazado_198501" data-name="Trazado 198501" d="M757.27,281.725l1.525,2.542a8.894,8.894,0,0,1,.9-.47l-1.221-2.7A11.517,11.517,0,0,0,757.27,281.725Z" fill="#1cb3ff"/>
      <path id="Trazado_198502" data-name="Trazado 198502" d="M752.231,287.915l2.8.976a8.965,8.965,0,0,1,.389-.937l-2.668-1.292A11.9,11.9,0,0,0,752.231,287.915Z" fill="#1cb3ff"/>
      <path id="Trazado_198503" data-name="Trazado 198503" d="M751.643,290.561l2.949.3a8.848,8.848,0,0,1,.161-1l-2.894-.641A11.879,11.879,0,0,0,751.643,290.561Z" fill="#1cb3ff"/>
      <path id="Trazado_198504" data-name="Trazado 198504" d="M751.582,291.914a11.937,11.937,0,0,0,.094,1.352l2.941-.376a8.731,8.731,0,0,1-.07-1.012Z" fill="#1cb3ff"/>
      <path id="Trazado_198505" data-name="Trazado 198505" d="M759.739,280.609l.9,2.825a9.028,9.028,0,0,1,.984-.251l-.568-2.91A11.845,11.845,0,0,0,759.739,280.609Z" fill="#1cb3ff"/>
      <path id="Trazado_198506" data-name="Trazado 198506" d="M753.414,285.476l2.5,1.6a8.848,8.848,0,0,1,.593-.821l-2.3-1.874A11.907,11.907,0,0,0,753.414,285.476Z" fill="#1cb3ff"/>
      <path id="Trazado_198507" data-name="Trazado 198507" d="M769.867,286a8.538,8.538,0,0,1,.624.8l2.438-1.688a12,12,0,0,0-.834-1.068Z" fill="#1cb3ff"/>
      <path id="Trazado_198508" data-name="Trazado 198508" d="M771.018,287.668a8.677,8.677,0,0,1,.423.919l2.761-1.079a11.867,11.867,0,0,0-.567-1.233Z" fill="#1cb3ff"/>
      <path id="Trazado_198509" data-name="Trazado 198509" d="M771.753,289.55a8.763,8.763,0,0,1,.2.993l2.935-.412a11.769,11.769,0,0,0-.265-1.33Z" fill="#1cb3ff"/>
      <path id="Trazado_198510" data-name="Trazado 198510" d="M764.646,283.128a9.03,9.03,0,0,1,.991.214l.789-2.858a11.924,11.924,0,0,0-1.324-.285Z" fill="#1cb3ff"/>
      <path id="Trazado_198511" data-name="Trazado 198511" d="M762.4,280.093l.226,2.957a8.787,8.787,0,0,1,1.014-.019l.116-2.962A12.014,12.014,0,0,0,762.4,280.093Z" fill="#1cb3ff"/>
      <path id="Trazado_198512" data-name="Trazado 198512" d="M766.594,283.669a8.983,8.983,0,0,1,.914.436l1.43-2.6a11.813,11.813,0,0,0-1.224-.585Z" fill="#1cb3ff"/>
      <path id="Trazado_198513" data-name="Trazado 198513" d="M768.365,284.646a9.179,9.179,0,0,1,.792.636l1.985-2.2a11.975,11.975,0,0,0-1.055-.848Z" fill="#1cb3ff"/>
      <path id="Trazado_198514" data-name="Trazado 198514" d="M767.694,299.328l1.5,2.559a11.808,11.808,0,0,0,1.129-.749l-1.781-2.371A8.756,8.756,0,0,1,767.694,299.328Z" fill="#1cb3ff"/>
      <path id="Trazado_198515" data-name="Trazado 198515" d="M769.312,298.113l2.041,2.15a11.714,11.714,0,0,0,.928-.988l-2.274-1.9A8.847,8.847,0,0,1,769.312,298.113Z" fill="#1cb3ff"/>
      <path id="Trazado_198516" data-name="Trazado 198516" d="M763.852,300.5l.19,2.959a11.819,11.819,0,0,0,1.344-.164l-.526-2.917A8.694,8.694,0,0,1,763.852,300.5Z" fill="#1cb3ff"/>
      <path id="Trazado_198517" data-name="Trazado 198517" d="M751.926,294.6a11.99,11.99,0,0,0,.4,1.3l2.775-1.044a8.647,8.647,0,0,1-.3-.967Z" fill="#1cb3ff"/>
      <path id="Trazado_198518" data-name="Trazado 198518" d="M770.61,296.559l2.48,1.625a11.718,11.718,0,0,0,.676-1.175l-2.649-1.329A9.05,9.05,0,0,1,770.61,296.559Z" fill="#1cb3ff"/>
      <path id="Trazado_198519" data-name="Trazado 198519" d="M772.034,291.553l0,.217a8.922,8.922,0,0,1-.058,1.012l2.945.341a11.912,11.912,0,0,0,.077-1.348q0-.147,0-.294Z" fill="#1cb3ff"/>
      <path id="Trazado_198520" data-name="Trazado 198520" d="M771.516,294.751l2.787,1.011a11.533,11.533,0,0,0,.388-1.3l-2.886-.679A8.652,8.652,0,0,1,771.516,294.751Z" fill="#1cb3ff"/>
      <path id="Trazado_198521" data-name="Trazado 198521" d="M765.841,300.139l.867,2.835a12.079,12.079,0,0,0,1.272-.47l-1.188-2.717A8.86,8.86,0,0,1,765.841,300.139Z" fill="#1cb3ff"/>
      <path id="Trazado_198522" data-name="Trazado 198522" d="M752.882,297.138a11.434,11.434,0,0,0,.691,1.165l2.458-1.656a8.934,8.934,0,0,1-.516-.871Z" fill="#1cb3ff"/>
      <path id="Trazado_198523" data-name="Trazado 198523" d="M756.378,301.222a11.723,11.723,0,0,0,1.139.737l1.464-2.577a9.023,9.023,0,0,1-.851-.551Z" fill="#1cb3ff"/>
      <path id="Trazado_198524" data-name="Trazado 198524" d="M754.394,299.383a12.035,12.035,0,0,0,.939.976l2.015-2.174a8.838,8.838,0,0,1-.7-.732Z" fill="#1cb3ff"/>
      <path id="Trazado_198525" data-name="Trazado 198525" d="M758.734,302.559a11.523,11.523,0,0,0,1.281.456l.828-2.847a8.591,8.591,0,0,1-.952-.338Z" fill="#1cb3ff"/>
      <path id="Trazado_198526" data-name="Trazado 198526" d="M761.34,303.318a12.03,12.03,0,0,0,1.347.147l.15-2.961a8.865,8.865,0,0,1-1.009-.11Z" fill="#1cb3ff"/>
      <path id="Trazado_198527" data-name="Trazado 198527" d="M763.291,284.358a7.411,7.411,0,1,0,7.412,7.412A7.42,7.42,0,0,0,763.291,284.358Zm0,14.23a6.819,6.819,0,1,1,6.819-6.818A6.826,6.826,0,0,1,763.291,298.588Z" fill="#1cb3ff"/>
    </g>
  </g>
</svg>
