<svg xmlns="http://www.w3.org/2000/svg" width="652" height="384.697" viewBox="0 0 652 384.697">
  <g id="Grupo_137336" data-name="Grupo 137336" transform="translate(-683.333 -10408)">
    <g id="Grupo_137335" data-name="Grupo 137335">
      <g id="Grupo_136755" data-name="Grupo 136755" transform="translate(1025.3 10387.022)">
        <rect id="Rectángulo_31191" data-name="Rectángulo 31191" width="226.674" height="226.675" transform="translate(83.359 21)" fill="#f2eefc"/>
        <rect id="Rectángulo_31193" data-name="Rectángulo 31193" width="226.674" height="226.675" transform="translate(-341.967 179)" fill="#4747ff" opacity="0.3"/>
      </g>
      <rect id="Rectángulo_41759" data-name="Rectángulo 41759" width="610" height="340" transform="translate(725 10408)" fill="#fff"/>
    </g>
    <path id="Trazado_200175" data-name="Trazado 200175" d="M357.258,259.339l-31.641-54.805a11.975,11.975,0,0,0-10.37-5.986H251.962a11.973,11.973,0,0,0-10.369,5.986l-31.641,54.805a11.968,11.968,0,0,0,0,11.973l31.641,54.805a11.973,11.973,0,0,0,10.369,5.986h63.284a11.976,11.976,0,0,0,10.37-5.986l31.641-54.805A11.976,11.976,0,0,0,357.258,259.339Zm-6.549,8.232L319.1,322.317a4.5,4.5,0,0,1-3.888,2.246H252a4.5,4.5,0,0,1-3.888-2.244L216.5,267.571a4.5,4.5,0,0,1,0-4.492l31.609-54.746A4.5,4.5,0,0,1,252,206.088h63.217a4.5,4.5,0,0,1,3.886,2.244l31.61,54.747A4.5,4.5,0,0,1,350.708,267.571Z" transform="translate(743.331 10334.688)" fill="#d100c9"/>
    <path id="Trazado_200380" data-name="Trazado 200380" d="M-27.088-8.531-24.3-1.57l2.789-6.961h1.459V0h-1.125V-3.322l.105-3.586L-23.871,0h-.861l-2.795-6.891.111,3.568V0h-1.125V-8.531Zm8.566,5.3A3.745,3.745,0,0,1-18.155-4.9a2.732,2.732,0,0,1,1.02-1.148,2.775,2.775,0,0,1,1.491-.4,2.674,2.674,0,0,1,2.095.9,3.449,3.449,0,0,1,.8,2.385V-3.1A3.777,3.777,0,0,1-13.1-1.438,2.692,2.692,0,0,1-14.118-.293a2.807,2.807,0,0,1-1.515.41,2.667,2.667,0,0,1-2.089-.9,3.432,3.432,0,0,1-.8-2.373Zm1.09.129a2.712,2.712,0,0,0,.489,1.693,1.566,1.566,0,0,0,1.31.639,1.556,1.556,0,0,0,1.313-.647,2.966,2.966,0,0,0,.486-1.813,2.708,2.708,0,0,0-.5-1.69,1.574,1.574,0,0,0-1.315-.647,1.557,1.557,0,0,0-1.295.639A2.944,2.944,0,0,0-17.432-3.1ZM-9.92-7.875V-6.34h1.184V-5.5H-9.92v3.937a.88.88,0,0,0,.158.572A.666.666,0,0,0-9.223-.8a2.624,2.624,0,0,0,.516-.07V0a3.161,3.161,0,0,1-.832.116,1.35,1.35,0,0,1-1.1-.439A1.888,1.888,0,0,1-11-1.57V-5.5h-1.154V-6.34H-11V-7.875ZM-6.293,0H-7.377V-6.34h1.084ZM-7.465-8.021A.647.647,0,0,1-7.3-8.467a.6.6,0,0,1,.478-.182.614.614,0,0,1,.48.182.64.64,0,0,1,.164.445.619.619,0,0,1-.164.439.626.626,0,0,1-.48.176A.616.616,0,0,1-7.3-7.582.626.626,0,0,1-7.465-8.021Zm5,6.551L-.9-6.34H.211L-2.062,0h-.826l-2.3-6.34h1.107ZM5.08,0a2.277,2.277,0,0,1-.152-.668,2.419,2.419,0,0,1-1.8.785,2.238,2.238,0,0,1-1.538-.53,1.716,1.716,0,0,1-.6-1.345A1.792,1.792,0,0,1,1.737-3.3a3.55,3.55,0,0,1,2.118-.548H4.91v-.5a1.217,1.217,0,0,0-.34-.905,1.366,1.366,0,0,0-1-.337,1.581,1.581,0,0,0-.973.293.863.863,0,0,0-.393.709H1.113A1.5,1.5,0,0,1,1.45-5.5a2.3,2.3,0,0,1,.914-.7,3.075,3.075,0,0,1,1.269-.258,2.506,2.506,0,0,1,1.717.548A1.976,1.976,0,0,1,5.994-4.4v2.918A3.567,3.567,0,0,0,6.217-.094V0Zm-1.8-.826a1.905,1.905,0,0,0,.967-.264,1.6,1.6,0,0,0,.662-.686v-1.3h-.85q-1.992,0-1.992,1.166a.987.987,0,0,0,.34.8A1.306,1.306,0,0,0,3.281-.826Zm6.955.059a1.561,1.561,0,0,0,1.014-.352A1.237,1.237,0,0,0,11.73-2h1.025a1.966,1.966,0,0,1-.375,1.037,2.47,2.47,0,0,1-.923.785,2.663,2.663,0,0,1-1.222.293,2.612,2.612,0,0,1-2.06-.864,3.442,3.442,0,0,1-.765-2.364v-.182a3.817,3.817,0,0,1,.34-1.646,2.588,2.588,0,0,1,.976-1.119,2.771,2.771,0,0,1,1.5-.4A2.543,2.543,0,0,1,12-5.818a2.283,2.283,0,0,1,.753,1.658H11.73a1.494,1.494,0,0,0-.466-1.011,1.449,1.449,0,0,0-1.034-.4,1.517,1.517,0,0,0-1.28.595A2.793,2.793,0,0,0,8.5-3.252v.205a2.737,2.737,0,0,0,.451,1.688A1.524,1.524,0,0,0,10.236-.768ZM15.152,0H14.068V-6.34h1.084ZM13.98-8.021a.647.647,0,0,1,.161-.445.6.6,0,0,1,.478-.182.614.614,0,0,1,.48.182.64.64,0,0,1,.164.445.619.619,0,0,1-.164.439.626.626,0,0,1-.48.176.616.616,0,0,1-.478-.176A.626.626,0,0,1,13.98-8.021ZM16.6-3.229A3.745,3.745,0,0,1,16.966-4.9a2.732,2.732,0,0,1,1.02-1.148,2.775,2.775,0,0,1,1.491-.4,2.674,2.674,0,0,1,2.095.9,3.449,3.449,0,0,1,.8,2.385V-3.1a3.777,3.777,0,0,1-.354,1.661A2.692,2.692,0,0,1,21-.293a2.807,2.807,0,0,1-1.515.41,2.667,2.667,0,0,1-2.089-.9,3.432,3.432,0,0,1-.8-2.373Zm1.09.129a2.712,2.712,0,0,0,.489,1.693,1.566,1.566,0,0,0,1.31.639A1.556,1.556,0,0,0,20.8-1.415a2.966,2.966,0,0,0,.486-1.813,2.708,2.708,0,0,0-.5-1.69,1.574,1.574,0,0,0-1.315-.647,1.557,1.557,0,0,0-1.295.639A2.944,2.944,0,0,0,17.689-3.1ZM19.969-9h1.313l-1.57,1.723-.873,0Zm4.787,2.66.035.8a2.31,2.31,0,0,1,1.9-.914q2.01,0,2.027,2.268V0H27.633V-4.2a1.459,1.459,0,0,0-.313-1.014,1.256,1.256,0,0,0-.958-.328,1.564,1.564,0,0,0-.926.281,1.91,1.91,0,0,0-.621.738V0H23.73V-6.34Z" transform="translate(1022.726 10604.258)" fill="#231f20"/>
    <path id="Trazado_200176" data-name="Trazado 200176" d="M357.258,194.89l-31.641-54.805a11.975,11.975,0,0,0-10.37-5.986H251.962a11.973,11.973,0,0,0-10.369,5.986L209.953,194.89a11.968,11.968,0,0,0,0,11.973l31.641,54.805a11.973,11.973,0,0,0,10.369,5.986h63.284a11.975,11.975,0,0,0,10.37-5.986l31.641-54.805A11.976,11.976,0,0,0,357.258,194.89Zm-6.549,8.232L319.1,257.869a4.5,4.5,0,0,1-3.888,2.244H252a4.5,4.5,0,0,1-3.888-2.244L216.5,203.122a4.5,4.5,0,0,1,0-4.492l31.609-54.746A4.5,4.5,0,0,1,252,141.639h63.217a4.5,4.5,0,0,1,3.886,2.244l31.61,54.747A4.5,4.5,0,0,1,350.708,203.122Z" transform="translate(743.331 10288.902)" fill="#d3f988"/>
    <path id="Trazado_200381" data-name="Trazado 200381" d="M-17.344-3.99A5.277,5.277,0,0,1-17.766-1.8a3.2,3.2,0,0,1-1.2,1.427,3.289,3.289,0,0,1-1.8.492,3.261,3.261,0,0,1-1.787-.5,3.272,3.272,0,0,1-1.21-1.412,5.064,5.064,0,0,1-.442-2.124v-.615A5.215,5.215,0,0,1-23.777-6.7a3.26,3.26,0,0,1,1.21-1.444,3.247,3.247,0,0,1,1.79-.5,3.307,3.307,0,0,1,1.808.5,3.19,3.19,0,0,1,1.2,1.436,5.3,5.3,0,0,1,.422,2.188Zm-1.119-.551a3.825,3.825,0,0,0-.609-2.329,2.01,2.01,0,0,0-1.705-.812,1.988,1.988,0,0,0-1.679.812,3.747,3.747,0,0,0-.63,2.253v.627a3.831,3.831,0,0,0,.618,2.312,2,2,0,0,0,1.7.841,1.989,1.989,0,0,0,1.688-.794,3.809,3.809,0,0,0,.615-2.276Zm8,1.441a3.77,3.77,0,0,1-.668,2.335A2.134,2.134,0,0,1-12.92.117a2.21,2.21,0,0,1-1.857-.85L-14.83,0h-1V-9h1.084v3.357a2.2,2.2,0,0,1,1.811-.814,2.147,2.147,0,0,1,1.813.873,3.883,3.883,0,0,1,.659,2.391Zm-1.084-.123a2.929,2.929,0,0,0-.428-1.711,1.416,1.416,0,0,0-1.23-.6,1.591,1.591,0,0,0-1.541,1V-1.8a1.636,1.636,0,0,0,1.553,1,1.408,1.408,0,0,0,1.213-.6A3.115,3.115,0,0,0-11.543-3.223ZM-7.975-6.34V.732q0,1.828-1.658,1.828a2.023,2.023,0,0,1-.662-.1V1.594a2.1,2.1,0,0,0,.492.047.736.736,0,0,0,.554-.2.971.971,0,0,0,.19-.683v-7.1Zm-1.2-1.682a.65.65,0,0,1,.161-.442.592.592,0,0,1,.472-.185.614.614,0,0,1,.48.182.64.64,0,0,1,.164.445.619.619,0,0,1-.164.439.626.626,0,0,1-.48.176.606.606,0,0,1-.475-.176A.632.632,0,0,1-9.17-8.021ZM-3.6.117A2.77,2.77,0,0,1-5.7-.729,3.142,3.142,0,0,1-6.5-2.994v-.2a3.8,3.8,0,0,1,.36-1.685,2.811,2.811,0,0,1,1.008-1.16,2.534,2.534,0,0,1,1.4-.419,2.374,2.374,0,0,1,1.922.814,3.526,3.526,0,0,1,.686,2.332v.451H-5.42a2.254,2.254,0,0,0,.548,1.515,1.722,1.722,0,0,0,1.333.577A1.888,1.888,0,0,0-2.566-1a2.444,2.444,0,0,0,.7-.621l.662.516A2.662,2.662,0,0,1-3.6.117Zm-.135-5.684a1.446,1.446,0,0,0-1.1.478A2.321,2.321,0,0,0-5.385-3.75h3.176v-.082a2.065,2.065,0,0,0-.445-1.28A1.361,1.361,0,0,0-3.732-5.566ZM1.6-7.875V-6.34H2.783V-5.5H1.6v3.937a.88.88,0,0,0,.158.572A.666.666,0,0,0,2.3-.8a2.624,2.624,0,0,0,.516-.07V0A3.161,3.161,0,0,1,1.98.117a1.35,1.35,0,0,1-1.1-.439A1.888,1.888,0,0,1,.516-1.57V-5.5H-.639V-6.34H.516V-7.875ZM5.227,0H4.143V-6.34H5.227ZM4.055-8.021a.647.647,0,0,1,.161-.445.6.6,0,0,1,.478-.182.614.614,0,0,1,.48.182.64.64,0,0,1,.164.445.619.619,0,0,1-.164.439.626.626,0,0,1-.48.176.616.616,0,0,1-.478-.176A.626.626,0,0,1,4.055-8.021Zm5,6.551,1.57-4.869H11.73L9.457,0H8.631l-2.3-6.34H7.441ZM12.4-3.229A3.745,3.745,0,0,1,12.765-4.9a2.732,2.732,0,0,1,1.02-1.148,2.775,2.775,0,0,1,1.491-.4,2.674,2.674,0,0,1,2.095.9,3.449,3.449,0,0,1,.8,2.385V-3.1a3.777,3.777,0,0,1-.354,1.661A2.692,2.692,0,0,1,16.8-.293a2.807,2.807,0,0,1-1.515.41,2.667,2.667,0,0,1-2.089-.9,3.432,3.432,0,0,1-.8-2.373Zm1.09.129a2.712,2.712,0,0,0,.489,1.693,1.566,1.566,0,0,0,1.31.639A1.556,1.556,0,0,0,16.6-1.415a2.966,2.966,0,0,0,.486-1.813,2.708,2.708,0,0,0-.5-1.69,1.574,1.574,0,0,0-1.315-.647,1.557,1.557,0,0,0-1.295.639A2.944,2.944,0,0,0,13.488-3.1Zm9.732,1.418a.8.8,0,0,0-.331-.683,3.187,3.187,0,0,0-1.154-.419,5.457,5.457,0,0,1-1.307-.422,1.859,1.859,0,0,1-.715-.586,1.4,1.4,0,0,1-.231-.809,1.645,1.645,0,0,1,.659-1.318,2.574,2.574,0,0,1,1.685-.539,2.649,2.649,0,0,1,1.749.557,1.768,1.768,0,0,1,.671,1.424h-1.09a.979.979,0,0,0-.378-.768,1.416,1.416,0,0,0-.952-.322,1.482,1.482,0,0,0-.926.258.812.812,0,0,0-.334.674.658.658,0,0,0,.311.592A3.821,3.821,0,0,0,22-3.662a5.847,5.847,0,0,1,1.315.434,1.919,1.919,0,0,1,.747.606,1.491,1.491,0,0,1,.243.864A1.623,1.623,0,0,1,23.625-.4a2.851,2.851,0,0,1-1.764.513,3.193,3.193,0,0,1-1.348-.27A2.192,2.192,0,0,1,19.6-.905a1.815,1.815,0,0,1-.331-1.046H20.35a1.122,1.122,0,0,0,.437.864,1.693,1.693,0,0,0,1.075.319,1.748,1.748,0,0,0,.987-.249A.765.765,0,0,0,23.221-1.682Z" transform="translate(1022.859 10493.574)"/>
    <path id="Trazado_200177" data-name="Trazado 200177" d="M413.2,292.782l-31.641-54.805a11.973,11.973,0,0,0-10.369-5.987H307.911a11.976,11.976,0,0,0-10.37,5.987L265.9,292.782a11.968,11.968,0,0,0,0,11.973l31.641,54.805a11.976,11.976,0,0,0,10.37,5.986h63.284a11.973,11.973,0,0,0,10.369-5.986L413.2,304.755A11.968,11.968,0,0,0,413.2,292.782Zm-6.547,8.232L375.05,355.76a4.5,4.5,0,0,1-3.889,2.246H307.943a4.5,4.5,0,0,1-3.886-2.244l-31.61-54.749a4.51,4.51,0,0,1,0-4.49l31.609-54.747a4.5,4.5,0,0,1,3.888-2.244h63.217a4.5,4.5,0,0,1,3.888,2.244l31.61,54.747A4.509,4.509,0,0,1,406.657,301.014Z" transform="translate(783.077 10358.447)" fill="#aceaff"/>
    <path id="Trazado_200382" data-name="Trazado 200382" d="M-24.044-3.451h-2V0h-1.131V-8.531h2.824a3.343,3.343,0,0,1,2.218.656,2.361,2.361,0,0,1,.776,1.91,2.3,2.3,0,0,1-.431,1.389,2.571,2.571,0,0,1-1.2.885l2,3.621V0h-1.207Zm-2-.92h1.729a1.95,1.95,0,0,0,1.333-.434,1.469,1.469,0,0,0,.5-1.162,1.547,1.547,0,0,0-.472-1.215,2,2,0,0,0-1.362-.429h-1.723ZM-17.323.117a2.77,2.77,0,0,1-2.1-.847,3.142,3.142,0,0,1-.809-2.265v-.2a3.8,3.8,0,0,1,.36-1.685,2.811,2.811,0,0,1,1.008-1.16,2.534,2.534,0,0,1,1.4-.419,2.374,2.374,0,0,1,1.922.814,3.526,3.526,0,0,1,.686,2.332v.451h-4.295A2.254,2.254,0,0,0-18.6-1.345a1.722,1.722,0,0,0,1.333.577A1.888,1.888,0,0,0-16.292-1a2.444,2.444,0,0,0,.7-.621l.662.516A2.662,2.662,0,0,1-17.323.117Zm-.135-5.684a1.446,1.446,0,0,0-1.1.478A2.321,2.321,0,0,0-19.11-3.75h3.176v-.082a2.065,2.065,0,0,0-.445-1.28A1.361,1.361,0,0,0-17.458-5.566ZM-8.241-3.1A3.8,3.8,0,0,1-8.9-.768,2.122,2.122,0,0,1-10.7.117a2.325,2.325,0,0,1-1.816-.732V2.438H-13.6V-6.34h.99l.053.7a2.233,2.233,0,0,1,1.84-.82A2.162,2.162,0,0,1-8.906-5.6a3.838,3.838,0,0,1,.665,2.4Zm-1.084-.123a2.8,2.8,0,0,0-.457-1.693,1.472,1.472,0,0,0-1.254-.621,1.593,1.593,0,0,0-1.477.873v3.029a1.6,1.6,0,0,0,1.488.867,1.465,1.465,0,0,0,1.239-.618A3.058,3.058,0,0,0-9.325-3.223ZM-4.233.117a2.77,2.77,0,0,1-2.1-.847A3.142,3.142,0,0,1-7.14-2.994v-.2a3.8,3.8,0,0,1,.36-1.685,2.811,2.811,0,0,1,1.008-1.16,2.534,2.534,0,0,1,1.4-.419,2.374,2.374,0,0,1,1.922.814,3.526,3.526,0,0,1,.686,2.332v.451H-6.056a2.254,2.254,0,0,0,.548,1.515,1.722,1.722,0,0,0,1.333.577A1.888,1.888,0,0,0-3.2-1a2.444,2.444,0,0,0,.7-.621l.662.516A2.662,2.662,0,0,1-4.233.117Zm-.135-5.684a1.446,1.446,0,0,0-1.1.478A2.321,2.321,0,0,0-6.021-3.75h3.176v-.082a2.065,2.065,0,0,0-.445-1.28A1.361,1.361,0,0,0-4.368-5.566ZM.964-7.875V-6.34H2.147V-5.5H.964v3.937a.88.88,0,0,0,.158.572A.666.666,0,0,0,1.661-.8a2.624,2.624,0,0,0,.516-.07V0a3.161,3.161,0,0,1-.832.116,1.35,1.35,0,0,1-1.1-.439A1.888,1.888,0,0,1-.12-1.57V-5.5H-1.274V-6.34H-.12V-7.875ZM4.591,0H3.507V-6.34H4.591ZM3.419-8.021a.647.647,0,0,1,.161-.445.6.6,0,0,1,.478-.182.614.614,0,0,1,.48.182.64.64,0,0,1,.164.445.619.619,0,0,1-.164.439.626.626,0,0,1-.48.176.616.616,0,0,1-.478-.176A.626.626,0,0,1,3.419-8.021ZM8.868-.768a1.561,1.561,0,0,0,1.014-.352A1.237,1.237,0,0,0,10.362-2h1.025a1.966,1.966,0,0,1-.375,1.037,2.47,2.47,0,0,1-.923.785A2.663,2.663,0,0,1,8.868.117a2.612,2.612,0,0,1-2.06-.864,3.442,3.442,0,0,1-.765-2.364v-.182a3.817,3.817,0,0,1,.34-1.646,2.588,2.588,0,0,1,.976-1.119,2.771,2.771,0,0,1,1.5-.4,2.543,2.543,0,0,1,1.772.639,2.283,2.283,0,0,1,.753,1.658H10.362A1.494,1.494,0,0,0,9.9-5.171a1.449,1.449,0,0,0-1.034-.4,1.517,1.517,0,0,0-1.28.595,2.793,2.793,0,0,0-.454,1.72v.205a2.737,2.737,0,0,0,.451,1.688A1.524,1.524,0,0,0,8.868-.768ZM13.784,0H12.7V-6.34h1.084ZM12.612-8.021a.647.647,0,0,1,.161-.445.6.6,0,0,1,.478-.182.614.614,0,0,1,.48.182.64.64,0,0,1,.164.445.619.619,0,0,1-.164.439.626.626,0,0,1-.48.176.616.616,0,0,1-.478-.176A.626.626,0,0,1,12.612-8.021Zm2.619,4.793A3.745,3.745,0,0,1,15.6-4.9a2.732,2.732,0,0,1,1.02-1.148,2.775,2.775,0,0,1,1.491-.4,2.674,2.674,0,0,1,2.095.9A3.449,3.449,0,0,1,21-3.176V-3.1a3.777,3.777,0,0,1-.354,1.661A2.692,2.692,0,0,1,19.635-.293a2.807,2.807,0,0,1-1.515.41,2.667,2.667,0,0,1-2.089-.9,3.432,3.432,0,0,1-.8-2.373Zm1.09.129a2.712,2.712,0,0,0,.489,1.693,1.566,1.566,0,0,0,1.31.639,1.556,1.556,0,0,0,1.313-.647,2.966,2.966,0,0,0,.486-1.813,2.708,2.708,0,0,0-.5-1.69,1.574,1.574,0,0,0-1.315-.647,1.557,1.557,0,0,0-1.295.639A2.944,2.944,0,0,0,16.321-3.1ZM18.6-9h1.313l-1.57,1.723-.873,0Zm4.787,2.66.035.8a2.31,2.31,0,0,1,1.9-.914q2.01,0,2.027,2.268V0H26.265V-4.2a1.459,1.459,0,0,0-.313-1.014,1.256,1.256,0,0,0-.958-.328,1.564,1.564,0,0,0-.926.281,1.91,1.91,0,0,0-.621.738V0H22.362V-6.34Z" transform="translate(1118.132 10661.011)"/>
    <path id="Trazado_200178" data-name="Trazado 200178" d="M305.412,292.782l-31.641-54.805A11.975,11.975,0,0,0,263.4,231.99H200.118a11.975,11.975,0,0,0-10.37,5.987l-31.641,54.805a11.968,11.968,0,0,0,0,11.973l31.641,54.805a11.976,11.976,0,0,0,10.37,5.986H263.4a11.975,11.975,0,0,0,10.369-5.986l31.641-54.805A11.968,11.968,0,0,0,305.412,292.782Zm-6.549,8.232L267.256,355.76a4.5,4.5,0,0,1-3.888,2.246H200.15a4.5,4.5,0,0,1-3.886-2.244l-31.61-54.749a4.5,4.5,0,0,1,0-4.49l31.609-54.747a4.5,4.5,0,0,1,3.888-2.244h63.217a4.5,4.5,0,0,1,3.886,2.244l31.61,54.747A4.5,4.5,0,0,1,298.862,301.014Z" transform="translate(706.498 10358.447)" fill="#bebeff"/>
    <path id="Trazado_200379" data-name="Trazado 200379" d="M-37.23-3.451h-2V0h-1.131V-8.531h2.824a3.343,3.343,0,0,1,2.218.656,2.361,2.361,0,0,1,.776,1.91,2.3,2.3,0,0,1-.431,1.389,2.571,2.571,0,0,1-1.2.885l2,3.621V0h-1.207Zm-2-.92h1.729a1.95,1.95,0,0,0,1.333-.434,1.469,1.469,0,0,0,.5-1.162,1.547,1.547,0,0,0-.472-1.215,2,2,0,0,0-1.362-.429h-1.723ZM-30.51.117a2.77,2.77,0,0,1-2.1-.847,3.142,3.142,0,0,1-.809-2.265v-.2a3.8,3.8,0,0,1,.36-1.685,2.811,2.811,0,0,1,1.008-1.16,2.534,2.534,0,0,1,1.4-.419,2.374,2.374,0,0,1,1.922.814,3.526,3.526,0,0,1,.686,2.332v.451h-4.295a2.254,2.254,0,0,0,.548,1.515,1.722,1.722,0,0,0,1.333.577A1.888,1.888,0,0,0-29.479-1a2.444,2.444,0,0,0,.7-.621l.662.516A2.662,2.662,0,0,1-30.51.117Zm-.135-5.684a1.446,1.446,0,0,0-1.1.478A2.321,2.321,0,0,0-32.3-3.75h3.176v-.082a2.065,2.065,0,0,0-.445-1.28A1.361,1.361,0,0,0-30.645-5.566ZM-22.869,0a2.277,2.277,0,0,1-.152-.668,2.419,2.419,0,0,1-1.8.785,2.238,2.238,0,0,1-1.538-.53,1.716,1.716,0,0,1-.6-1.345A1.792,1.792,0,0,1-26.212-3.3a3.55,3.55,0,0,1,2.118-.548h1.055v-.5a1.217,1.217,0,0,0-.34-.905,1.366,1.366,0,0,0-1-.337,1.581,1.581,0,0,0-.973.293.863.863,0,0,0-.393.709h-1.09A1.5,1.5,0,0,1-26.5-5.5a2.3,2.3,0,0,1,.914-.7,3.075,3.075,0,0,1,1.269-.258,2.506,2.506,0,0,1,1.717.548A1.976,1.976,0,0,1-21.955-4.4v2.918a3.567,3.567,0,0,0,.223,1.389V0Zm-1.8-.826A1.905,1.905,0,0,0-23.7-1.09a1.6,1.6,0,0,0,.662-.686v-1.3h-.85q-1.992,0-1.992,1.166a.987.987,0,0,0,.34.8A1.306,1.306,0,0,0-24.668-.826Zm5.59.826h-1.084V-9h1.084Zm2.912,0H-17.25V-6.34h1.084Zm-1.172-8.021a.647.647,0,0,1,.161-.445.6.6,0,0,1,.478-.182.614.614,0,0,1,.48.182.64.64,0,0,1,.164.445.619.619,0,0,1-.164.439.626.626,0,0,1-.48.176.616.616,0,0,1-.478-.176A.626.626,0,0,1-17.338-8.021Zm3.926,1.682.029.7a2.341,2.341,0,0,1,1.881-.82,1.813,1.813,0,0,1,1.811,1.02,2.4,2.4,0,0,1,.823-.738,2.431,2.431,0,0,1,1.2-.281q2.086,0,2.121,2.209V0H-6.633V-4.184A1.456,1.456,0,0,0-6.943-5.2a1.368,1.368,0,0,0-1.043-.337,1.437,1.437,0,0,0-1,.36,1.462,1.462,0,0,0-.463.97V0h-1.09V-4.154a1.209,1.209,0,0,0-1.354-1.383,1.45,1.45,0,0,0-1.459.908V0h-1.084V-6.34ZM-1.283.117a2.77,2.77,0,0,1-2.1-.847,3.142,3.142,0,0,1-.809-2.265v-.2a3.8,3.8,0,0,1,.36-1.685,2.811,2.811,0,0,1,1.008-1.16,2.534,2.534,0,0,1,1.4-.419A2.374,2.374,0,0,1,.5-5.643a3.526,3.526,0,0,1,.686,2.332v.451H-3.105a2.254,2.254,0,0,0,.548,1.515,1.722,1.722,0,0,0,1.333.577A1.888,1.888,0,0,0-.252-1a2.444,2.444,0,0,0,.7-.621l.662.516A2.662,2.662,0,0,1-1.283.117Zm-.135-5.684a1.446,1.446,0,0,0-1.1.478A2.321,2.321,0,0,0-3.07-3.75H.105v-.082A2.065,2.065,0,0,0-.34-5.112,1.361,1.361,0,0,0-1.418-5.566ZM3.469-6.34l.035.8a2.31,2.31,0,0,1,1.9-.914q2.01,0,2.027,2.268V0H6.346V-4.2a1.459,1.459,0,0,0-.313-1.014,1.256,1.256,0,0,0-.958-.328,1.564,1.564,0,0,0-.926.281,1.91,1.91,0,0,0-.621.738V0H2.443V-6.34Zm7.066-1.535V-6.34h1.184V-5.5H10.535v3.937a.88.88,0,0,0,.158.572.666.666,0,0,0,.539.191,2.624,2.624,0,0,0,.516-.07V0a3.161,3.161,0,0,1-.832.116,1.35,1.35,0,0,1-1.1-.439A1.888,1.888,0,0,1,9.451-1.57V-5.5H8.3V-6.34H9.451V-7.875ZM16.9,0a2.277,2.277,0,0,1-.152-.668,2.419,2.419,0,0,1-1.8.785A2.238,2.238,0,0,1,13.4-.413a1.716,1.716,0,0,1-.6-1.345A1.792,1.792,0,0,1,13.556-3.3a3.55,3.55,0,0,1,2.118-.548h1.055v-.5a1.217,1.217,0,0,0-.34-.905,1.366,1.366,0,0,0-1-.337,1.581,1.581,0,0,0-.973.293.863.863,0,0,0-.393.709h-1.09a1.5,1.5,0,0,1,.337-.917,2.3,2.3,0,0,1,.914-.7,3.075,3.075,0,0,1,1.269-.258,2.506,2.506,0,0,1,1.717.548A1.976,1.976,0,0,1,17.813-4.4v2.918a3.567,3.567,0,0,0,.223,1.389V0ZM15.1-.826a1.905,1.905,0,0,0,.967-.264,1.6,1.6,0,0,0,.662-.686v-1.3h-.85q-1.992,0-1.992,1.166a.987.987,0,0,0,.34.8A1.306,1.306,0,0,0,15.1-.826Zm6.955.059a1.561,1.561,0,0,0,1.014-.352A1.237,1.237,0,0,0,23.549-2h1.025A1.966,1.966,0,0,1,24.2-.961a2.47,2.47,0,0,1-.923.785,2.663,2.663,0,0,1-1.222.293A2.612,2.612,0,0,1,20-.747a3.442,3.442,0,0,1-.765-2.364v-.182a3.817,3.817,0,0,1,.34-1.646,2.588,2.588,0,0,1,.976-1.119,2.771,2.771,0,0,1,1.5-.4,2.543,2.543,0,0,1,1.772.639,2.283,2.283,0,0,1,.753,1.658H23.549a1.494,1.494,0,0,0-.466-1.011,1.449,1.449,0,0,0-1.034-.4,1.517,1.517,0,0,0-1.28.595,2.793,2.793,0,0,0-.454,1.72v.205a2.737,2.737,0,0,0,.451,1.688A1.524,1.524,0,0,0,22.055-.768ZM26.971,0H25.887V-6.34h1.084ZM25.8-8.021a.647.647,0,0,1,.161-.445.6.6,0,0,1,.478-.182.614.614,0,0,1,.48.182.64.64,0,0,1,.164.445.619.619,0,0,1-.164.439.626.626,0,0,1-.48.176.616.616,0,0,1-.478-.176A.626.626,0,0,1,25.8-8.021Zm2.619,4.793A3.745,3.745,0,0,1,28.784-4.9,2.732,2.732,0,0,1,29.8-6.053a2.775,2.775,0,0,1,1.491-.4,2.674,2.674,0,0,1,2.095.9,3.449,3.449,0,0,1,.8,2.385V-3.1a3.777,3.777,0,0,1-.354,1.661A2.692,2.692,0,0,1,32.821-.293a2.807,2.807,0,0,1-1.515.41,2.667,2.667,0,0,1-2.089-.9,3.432,3.432,0,0,1-.8-2.373Zm1.09.129A2.712,2.712,0,0,0,30-1.406a1.566,1.566,0,0,0,1.31.639,1.556,1.556,0,0,0,1.313-.647,2.966,2.966,0,0,0,.486-1.813,2.708,2.708,0,0,0-.5-1.69,1.574,1.574,0,0,0-1.315-.647A1.557,1.557,0,0,0,30-4.928,2.944,2.944,0,0,0,29.508-3.1ZM31.787-9H33.1l-1.57,1.723-.873,0Zm4.787,2.66.035.8a2.31,2.31,0,0,1,1.9-.914q2.01,0,2.027,2.268V0H39.451V-4.2a1.459,1.459,0,0,0-.313-1.014,1.256,1.256,0,0,0-.958-.328,1.564,1.564,0,0,0-.926.281,1.91,1.91,0,0,0-.621.738V0H35.549V-6.34Z" transform="translate(921.484 10661.011)"/>
    <path id="Trazado_200179" data-name="Trazado 200179" d="M328.894,204.812V223.3H310.405" transform="translate(815.835 10339.139)" fill="none" stroke="#63f2e4" stroke-linecap="round" stroke-linejoin="round" stroke-width="4"/>
    <path id="Trazado_200180" data-name="Trazado 200180" d="M298.4,190.29A184.183,184.183,0,0,1,336.5,233.617" transform="translate(807.303 10328.822)" fill="none" stroke="#63f2e4" stroke-miterlimit="10" stroke-width="4"/>
    <path id="Trazado_200181" data-name="Trazado 200181" d="M196.58,193.686h18.489v18.489" transform="translate(734.97 10331.234)" fill="none" stroke="#63f2e4" stroke-linecap="round" stroke-linejoin="round" stroke-width="4"/>
    <path id="Trazado_200182" data-name="Trazado 200182" d="M182.059,232.334a184.189,184.189,0,0,1,43.325-38.11" transform="translate(724.654 10331.617)" fill="none" stroke="#63f2e4" stroke-miterlimit="10" stroke-width="4"/>
    <path id="Trazado_200183" data-name="Trazado 200183" d="M248.121,325.591,234.19,313.435,246.345,299.5" transform="translate(761.689 10406.411)" fill="none" stroke="#63f2e4" stroke-linecap="round" stroke-linejoin="round" stroke-width="4"/>
    <path id="Trazado_200184" data-name="Trazado 200184" d="M292.245,307.109a184.15,184.15,0,0,1-57.7.229" transform="translate(761.941 10411.813)" fill="none" stroke="#63f2e4" stroke-miterlimit="10" stroke-width="4"/>
  </g>
</svg>
