<svg xmlns="http://www.w3.org/2000/svg" width="652" height="384.697" viewBox="0 0 652 384.697">
  <g id="Grupo_137306" data-name="Grupo 137306" transform="translate(-683.333 -5150)">
    <g id="Grupo_73858" data-name="Grupo 73858" transform="translate(1025.3 5129.022)">
      <rect id="Rect치ngulo_31191" data-name="Rect치ngulo 31191" width="226.674" height="226.675" transform="translate(83.359 21)" fill="#f2eefc"/>
      <rect id="Rect치ngulo_31193" data-name="Rect치ngulo 31193" width="226.674" height="226.675" transform="translate(-341.967 179)" fill="#4747ff" opacity="0.3"/>
    </g>
    <path id="Trazado_200185" data-name="Trazado 200185" d="M0,0H610V340H0Z" transform="translate(725 5150)" fill="#fff"/>
    <g id="Grupo_137292" data-name="Grupo 137292" transform="translate(-5.894 -13.787)">
      <g id="Grupo_137291" data-name="Grupo 137291" transform="translate(874.081 5178.722)">
        <path id="Trazado_199853" data-name="Trazado 199853" d="M306.354,237.867l-5.561-5.777c-8.478,5.215-17.087,5.959-25.842,1-1.555-.88-2.38.343-3.354.932a107.614,107.614,0,0,1-43.758,14.841A103.58,103.58,0,0,1,188.4,245.9c-2.358-.642-3.569-.2-4.569,1.922a57.567,57.567,0,0,1-3.082,5.4c-2.661,4.351-7.123,5.586-11.628,3.113-3.733-2.049-7.436-4.167-11.039-6.435-1.7-1.07-2.876-.637-4.644.023-5.382,2.007-6.679,5.744-5.954,10.977a45.918,45.918,0,0,1,.045,7.616c-.165,5.658-3.5,8.862-9.242,8.912-4.159.036-8.319.046-12.477,0-5.493-.065-8.85-3.241-9.033-8.712-.142-4.27-.128-8.551.012-12.822.06-1.866-.445-2.9-2.231-3.684a58.544,58.544,0,0,1-6.085-3.53c-4.111,2.375-8.282,4.811-12.479,7.2-5.417,3.088-9.738,1.97-12.853-3.329-2.155-3.666-4.311-7.334-6.367-11.056C74.18,236.8,75.377,232.456,80,229.68c3.456-2.076,6.9-4.186,10.487-6.023,2-1.027,2.361-2.3,2.689-4.486.831-5.526-1.533-8.443-6.331-10.4a49.024,49.024,0,0,1-7.2-4.091c-4.2-2.619-5.385-6.994-3-11.371q3.3-6.067,6.9-11.972c2.807-4.627,7.027-5.655,11.838-3,2.216,1.224,4.386,2.529,6.581,3.792s4.391,2.518,6.568,3.765l6.861-4.176C103.478,148.132,105.37,115.729,124,85.14c15.2-24.964,37.419-41.13,65.763-48.155,57.208-14.179,115.816,20.463,130.143,76.54,1.166.7,2.468.375,3.71.378,14.442.024,28.884.008,43.324.027a9.667,9.667,0,0,1,3.755.35,3.5,3.5,0,0,1,2.47,4.04,3.329,3.329,0,0,1-3.235,3.058,38.477,38.477,0,0,1-4.155.054c-14.547,0-29.093,0-43.813,0,.618,5.546,1.212,10.878,1.809,16.247,1.177.7,2.468.338,3.692.34q32.926.039,65.853.022a17.12,17.12,0,0,1,3.111.1,3.3,3.3,0,0,1,2.852,3.414,3.184,3.184,0,0,1-2.7,3.5,22.373,22.373,0,0,1-3.793.2c-22.87.011-45.741.008-68.972.008-.841,5.363-.725,10.815-2.042,16.027,1.308.87,2.606.482,3.823.485q20.623.048,41.245.022a23.056,23.056,0,0,1,2.77.045c2.237.271,3.686,1.451,3.6,3.836-.09,2.36-1.6,3.55-3.838,3.6-4.5.092-9.011.032-13.516.032H320.066a108.927,108.927,0,0,1-12.372,28.872,2.561,2.561,0,0,0-.3,2.863c4.784,8.712,4.094,17.219-1.18,25.6l6.072,5.45c9.868-4.454,16.084-3.4,24.132,4.6q18.924,18.812,37.735,37.735c5.11,5.131,5.089,9.19.039,14.277-3.988,4.018-7.973,8.039-12.022,11.995-4.32,4.22-8.681,4.182-12.98-.106q-19.75-19.7-39.455-39.449C302.992,254.388,302.019,247.379,306.354,237.867Zm9.871-96.2a100.454,100.454,0,0,0-200.908-.381c-.125,55.568,44.735,100.741,100.126,100.825A100.284,100.284,0,0,0,316.226,141.664ZM154.083,230.173c-7.1,10.013-16.461,14.51-28.463,11.372-10.317-2.7-16.618-9.714-18.3-20.234-1.958-12.283,3.557-21.086,14.172-27.2-1.018-1.9-1.973-3.69-3.054-5.713a56,56,0,0,0-5.917,4.014c-2.29,2.013-4.314,1.983-6.846.423-4.874-3-9.9-5.753-15.146-8.768-2.705,4.667-5.264,9.084-7.964,13.743,5.346,3.094,10.369,6.078,15.473,8.919a4.843,4.843,0,0,1,2.775,5.332,48.976,48.976,0,0,0-.016,10.015c.34,3.019-.727,4.693-3.266,6.071-5.015,2.724-9.913,5.663-14.984,8.586l8,13.74c5.317-3.07,10.32-5.9,15.256-8.836,2.358-1.4,4.423-1.476,6.585.413a23.3,23.3,0,0,0,8,4.664c2.89.952,3.941,2.705,3.866,5.677-.146,5.731-.043,11.47-.043,17.282h15.9c0-5.886.122-11.53-.05-17.165-.089-2.949.826-4.743,3.74-5.723a22.9,22.9,0,0,0,8.013-4.639c2.261-2.029,4.414-1.88,6.876-.409,4.921,2.942,9.918,5.755,15.1,8.744L178.2,242.8A113.861,113.861,0,0,1,154.083,230.173Zm-28.608-29.4c-8.106,3.544-12.019,10.55-10.951,19.314.882,7.236,7.357,13.747,14.835,14.918a17.475,17.475,0,0,0,18.39-9.505,161.9,161.9,0,0,1-11.908-11.462A134.76,134.76,0,0,1,125.475,200.776Zm213.48,78.474,14.116-14.084-14.829-15.214-14.421,14.136Zm6.079,5.591,10.748,11.04,14.188-14.191-10.777-10.8Zm-27.5-26.482,15.214-14.727c-6.65-7.454-13.363-8.733-18.527-3.5C309.1,245.31,310.417,251.989,317.532,258.358ZM302.04,206.471a113.833,113.833,0,0,1-21.273,21.381c7.043,2.152,12.765,1.162,17.557-3.532C303.261,219.483,304.11,213.591,302.04,206.471Z" transform="translate(-75.427 -33.807)" fill="#adbcfb"/>
        <path id="Trazado_199854" data-name="Trazado 199854" d="M218.771,386.539c-10.361.6-12.654-1.906-12.025-12.01.065-1.036.012-2.079.008-3.118-.016-4.447-4.189-6.793-8.1-4.557-2.294,1.311-4.549,2.7-6.891,3.919-3.818,1.99-7.348,1.157-9.61-2.4-1.976-3.1-3.817-6.309-5.519-9.572-1.877-3.6-.9-7.073,2.545-9.331a51.351,51.351,0,0,1,6.57-3.8c2.381-1.1,3.368-2.513,3.206-5.285-.124-2.123-.668-3.352-2.551-4.273a78.838,78.838,0,0,1-6.916-3.89c-3.746-2.329-4.748-5.935-2.7-9.83,1.61-3.054,3.321-6.063,5.134-9,2.4-3.9,5.949-4.766,10.088-2.565a57.841,57.841,0,0,1,6.564,3.789c1.994,1.425,3.5,1.211,5.556-.01,1.916-1.14,2.886-2.2,2.681-4.53a70,70,0,0,1-.034-8.312,6.673,6.673,0,0,1,6.782-6.8c3.462-.112,6.931-.067,10.4-.015,4.374.066,7.158,2.6,7.484,6.947a70.269,70.269,0,0,1,.042,7.274c-.066,2.32-.013,4.09,2.576,5.608,2.633,1.544,4.236.542,6.2-.59,2.1-1.209,4.129-2.539,6.284-3.629,3.647-1.843,7.108-.97,9.316,2.464,1.991,3.1,3.837,6.3,5.541,9.559,1.923,3.68.842,7.306-2.73,9.569-2.138,1.355-4.39,2.529-6.583,3.8-4.334,2.511-4.33,7.076,0,9.575,2.294,1.325,4.645,2.562,6.851,4.02,3.383,2.236,4.338,5.781,2.462,9.347-1.714,3.257-3.547,6.465-5.539,9.559-2.247,3.49-5.629,4.338-9.32,2.462a40.785,40.785,0,0,1-6.248-3.668c-2.492-1.891-4.618-1.807-7.085.025-1.118.83-1.8,1.481-1.733,2.945.113,2.421.04,4.851.027,7.276-.036,6.6-2.442,9.039-8.915,9.048ZM183.3,325.9c2.823,1.638,5.4,3.425,8.214,4.694,3.839,1.733,5.844,4.119,4.915,8.573a17.264,17.264,0,0,0,.086,5.519,4.359,4.359,0,0,1-2.528,4.793c-3.571,1.992-7.09,4.077-10.7,6.165l5,8.655c3.108-1.8,6.159-3.386,9.019-5.264,3.037-1.994,5.709-2.621,8.612.322a11.271,11.271,0,0,0,4.523,2.446c2.817.907,3.653,2.772,3.578,5.514-.107,3.867-.028,7.738-.028,11.581h10.13c0-3.688.228-7.159-.062-10.585-.312-3.678.894-5.886,4.539-6.938a11.812,11.812,0,0,0,4.091-2.5c2.383-2.027,4.57-2.023,7.183-.307,3.12,2.049,6.48,3.734,9.944,5.693l4.978-8.626c-3.117-1.8-5.889-3.7-8.9-5.078-3.893-1.783-5.359-4.414-4.13-8.544.445-1.5-.054-2.988-.3-4.454a4.873,4.873,0,0,1,2.842-5.65c3.514-1.882,6.919-3.967,10.51-6.046l-5.077-8.6c-3.74,2.158-7.228,4.125-10.668,6.174a4.5,4.5,0,0,1-5.73-.344,17.6,17.6,0,0,0-5.925-3.482c-2.682-.874-3.432-2.624-3.337-5.257.144-3.968.038-7.946.038-11.82h-10.13c0,4.063-.062,7.967.021,11.867.055,2.6-.773,4.3-3.415,5.269a19.557,19.557,0,0,0-5.639,3.268c-2.162,1.787-4.1,1.621-6.307.316-3.4-2.015-6.84-3.962-10.38-6Z" transform="translate(-91.486 -75.624)" fill="#adbcfb"/>
        <path id="Trazado_199855" data-name="Trazado 199855" d="M323.833,143.054A100.284,100.284,0,0,1,223.051,243.5c-55.39-.085-100.251-45.258-100.126-100.825a100.454,100.454,0,0,1,200.908.381Zm-186.927-.072c-.145,47.618,38.563,86.649,86.253,86.588,48.366-.061,86.049-38.186,86.671-84.731.658-49.208-37.611-88.3-86.174-88.311A86.254,86.254,0,0,0,136.907,142.982Z" transform="translate(-83.034 -35.197)" fill="#fdfdfd"/>
        <path id="Trazado_199856" data-name="Trazado 199856" d="M155.442,258.83a113.861,113.861,0,0,0,24.114,12.629l-4.408,7.682c-5.178-2.989-10.175-5.8-15.1-8.744-2.462-1.471-4.615-1.62-6.876.409a22.9,22.9,0,0,1-8.013,4.639c-2.914.98-3.829,2.775-3.74,5.723.171,5.634.05,11.278.05,17.165h-15.9c0-5.812-.1-11.551.043-17.282.076-2.972-.976-4.725-3.866-5.677a23.306,23.306,0,0,1-8-4.664c-2.162-1.889-4.227-1.817-6.585-.413-4.937,2.938-9.939,5.765-15.256,8.836l-8-13.74c5.072-2.923,9.969-5.862,14.984-8.586,2.539-1.378,3.606-3.052,3.266-6.071a48.976,48.976,0,0,1,.016-10.015,4.843,4.843,0,0,0-2.775-5.332c-5.1-2.841-10.128-5.825-15.473-8.919,2.7-4.659,5.259-9.076,7.964-13.743,5.243,3.015,10.271,5.765,15.146,8.768,2.532,1.56,4.556,1.59,6.846-.423a56,56,0,0,1,5.917-4.014c1.082,2.022,2.037,3.808,3.054,5.713-10.616,6.111-16.131,14.914-14.172,27.2,1.678,10.521,7.979,17.538,18.3,20.234C138.981,273.339,148.342,268.843,155.442,258.83Z" transform="translate(-76.785 -62.464)" fill="#fdfdfd"/>
        <path id="Trazado_199857" data-name="Trazado 199857" d="M132.9,232.619a134.761,134.761,0,0,0,10.366,13.265,161.893,161.893,0,0,0,11.908,11.462,17.475,17.475,0,0,1-18.39,9.505c-7.478-1.171-13.953-7.682-14.835-14.918C120.88,243.169,124.793,236.163,132.9,232.619Z" transform="translate(-82.85 -65.65)" fill="#fdfdfd"/>
        <path id="Trazado_199858" data-name="Trazado 199858" d="M386.327,320.472,371.193,305.31l14.421-14.136,14.829,15.214Z" transform="translate(-122.799 -75.029)" fill="#fdfdfd"/>
        <path id="Trazado_199859" data-name="Trazado 199859" d="M396.451,330.056l14.16-13.95,10.777,10.8L407.2,341.1Z" transform="translate(-126.844 -79.022)" fill="#fdfdfd"/>
        <path id="Trazado_199860" data-name="Trazado 199860" d="M362.482,297.1c-7.115-6.369-8.427-13.048-3.312-18.229,5.164-5.23,11.877-3.951,18.527,3.5Z" transform="translate(-120.378 -72.55)" fill="#fdfdfd"/>
        <path id="Trazado_199861" data-name="Trazado 199861" d="M341.2,239.4c2.069,7.12,1.221,13.012-3.716,17.849-4.792,4.695-10.514,5.684-17.557,3.532A113.832,113.832,0,0,0,341.2,239.4Z" transform="translate(-114.588 -66.736)" fill="#fdfdfd"/>
        <path id="Trazado_199862" data-name="Trazado 199862" d="M184.742,327.356l4.974-8.661c3.539,2.043,6.979,3.99,10.38,6,2.2,1.305,4.145,1.471,6.307-.316a19.557,19.557,0,0,1,5.639-3.268c2.642-.964,3.47-2.673,3.415-5.269-.083-3.9-.021-7.8-.021-11.867h10.13c0,3.874.107,7.852-.038,11.82-.1,2.634.655,4.383,3.337,5.257a17.6,17.6,0,0,1,5.925,3.482,4.5,4.5,0,0,0,5.73.344c3.44-2.048,6.929-4.015,10.668-6.174l5.077,8.6c-3.591,2.079-7,4.164-10.51,6.046a4.873,4.873,0,0,0-2.842,5.65c.244,1.466.742,2.959.3,4.455-1.229,4.129.237,6.761,4.13,8.544,3.009,1.378,5.781,3.274,8.9,5.078l-4.978,8.626c-3.464-1.959-6.824-3.644-9.944-5.693-2.614-1.716-4.8-1.72-7.183.307a11.814,11.814,0,0,1-4.091,2.5c-3.646,1.052-4.851,3.26-4.539,6.938.291,3.427.062,6.9.062,10.585h-10.13c0-3.843-.079-7.715.028-11.581.076-2.741-.761-4.607-3.578-5.513a11.272,11.272,0,0,1-4.523-2.446c-2.9-2.943-5.575-2.315-8.612-.322-2.86,1.878-5.911,3.467-9.019,5.264l-5-8.654c3.611-2.088,7.13-4.173,10.7-6.165a4.359,4.359,0,0,0,2.528-4.793,17.264,17.264,0,0,1-.086-5.519c.929-4.454-1.076-6.84-4.915-8.573C190.144,330.781,187.565,328.994,184.742,327.356Zm35.8-1.8a16.659,16.659,0,1,0,16.718,16.614A16.675,16.675,0,0,0,220.539,325.56Z" transform="translate(-92.933 -77.08)" fill="#fdfdfd"/>
        <path id="Trazado_199863" data-name="Trazado 199863" d="M139.573,145.66a86.254,86.254,0,0,1,86.749-86.454c48.563.012,86.832,39.1,86.174,88.311-.621,46.545-38.3,84.67-86.671,84.731C178.136,232.309,139.428,193.278,139.573,145.66Zm134.506,62.43c20.873-14.2,37.219-46.578,28.836-81.571C294.726,92.34,262.86,66.909,227.11,66.6a78.979,78.979,0,0,0-77.926,60.241c-8.463,34.26,7.72,66.975,28.949,81.341,0-6.917.044-13.713-.013-20.508a45.381,45.381,0,0,1,4.7-19.98,49.745,49.745,0,0,1,15.611-18.534c-17.347-20.357-10.438-43.066,1.254-54.1a38.135,38.135,0,0,1,49.664-2.65A37.045,37.045,0,0,1,263.783,117.1c1.759,12.213-2.019,22.857-10.182,31.951,14.488,11.371,20.478,23.751,20.478,41.955C274.078,196.625,274.079,202.241,274.079,208.09Zm-69.651-54.029c-10.935,7.471-17.789,17.455-18.668,30.763-.585,8.854-.22,17.771-.36,26.658a3.163,3.163,0,0,0,1.868,3.285q38.831,20.32,77.616-.041c1.023-.539,1.979-1.035,1.927-2.525-.359-10.254.96-20.584-.758-30.762-1.995-11.827-8.413-20.874-18.359-27.327C233.181,162.813,218.982,162.863,204.428,154.061Zm-8.994-31.574a30.714,30.714,0,0,0,61.426.275c.176-16.778-13.845-31.211-30.648-31.037C207.085,91.923,194.945,107.735,195.434,122.487Z" transform="translate(-85.701 -37.875)" fill="#adbcfb"/>
        <path id="Trazado_199864" data-name="Trazado 199864" d="M224.16,329.675A16.66,16.66,0,1,1,207.336,346.2,16.7,16.7,0,0,1,224.16,329.675Zm9.192,16.736a9.088,9.088,0,0,0-9.251-9.4,9.315,9.315,0,1,0-.188,18.629A9.159,9.159,0,0,0,233.352,346.411Z" transform="translate(-96.554 -81.195)" fill="#adbcfb"/>
        <path id="Trazado_199865" data-name="Trazado 199865" d="M275.475,209.5c0-5.849,0-11.465,0-17.081,0-18.2-5.99-30.583-20.478-41.955,8.163-9.094,11.942-19.738,10.182-31.951A37.045,37.045,0,0,0,250.749,93.82a38.135,38.135,0,0,0-49.664,2.65c-11.692,11.03-18.6,33.739-1.254,54.1A49.745,49.745,0,0,0,184.22,169.1a45.382,45.382,0,0,0-4.7,19.98c.056,6.8.013,13.591.013,20.508-21.229-14.366-37.412-47.081-28.949-81.341A78.979,78.979,0,0,1,228.506,68c35.75.313,67.617,25.744,75.805,59.923C312.694,162.921,296.348,195.3,275.475,209.5Zm3.95-62.453c0,8.317.023,16.634-.013,24.951-.012,2.582.582,4.79,3.6,4.863,3.188.076,3.946-2.147,3.942-4.9q-.032-24.778.008-49.555c.006-2.747-.707-5.069-3.815-5.068-3.154,0-3.762,2.377-3.742,5.1C279.462,130.643,279.425,138.844,279.425,147.045Zm-103.982.139c0-8.311-.046-16.623.027-24.934.024-2.612-.566-4.8-3.513-4.916-3.257-.128-3.825,2.235-3.821,4.947q.042,24.934.005,49.868c0,2.585.574,4.756,3.676,4.719,3.038-.037,3.663-2.132,3.646-4.751C175.41,163.808,175.442,155.5,175.442,147.185Z" transform="translate(-87.097 -39.284)" fill="#fff"/>
        <path id="Trazado_199866" data-name="Trazado 199866" d="M213.168,172.151c14.553,8.8,28.753,8.752,43.266.05,9.946,6.453,16.364,15.5,18.359,27.327,1.717,10.178.4,20.508.758,30.762.053,1.49-.9,1.985-1.927,2.525q-38.8,20.437-77.616.041a3.163,3.163,0,0,1-1.868-3.285c.14-8.887-.225-17.8.36-26.658C195.379,189.606,202.232,179.622,213.168,172.151Z" transform="translate(-94.441 -55.965)" fill="#fdfdfd"/>
        <path id="Trazado_199867" data-name="Trazado 199867" d="M206.085,128.689c-.49-14.753,11.65-30.564,30.778-30.761,16.8-.174,30.824,14.259,30.648,31.037a30.714,30.714,0,0,1-61.426-.275Z" transform="translate(-96.352 -44.077)" fill="#fdfdfd"/>
        <path id="Trazado_199868" data-name="Trazado 199868" d="M234.747,347.811a9.159,9.159,0,0,1-9.439,9.232,9.315,9.315,0,1,1,.188-18.629A9.088,9.088,0,0,1,234.747,347.811Z" transform="translate(-97.949 -82.595)" fill="#fdfdfd"/>
        <path id="Trazado_199869" data-name="Trazado 199869" d="M304.43,156.454c0-8.2.037-16.4-.021-24.6-.019-2.728.588-5.1,3.742-5.1,3.107,0,3.82,2.321,3.815,5.068q-.054,24.778-.008,49.555c0,2.751-.754,4.973-3.942,4.9-3.018-.072-3.611-2.281-3.6-4.863C304.453,173.088,304.43,164.771,304.43,156.454Z" transform="translate(-112.102 -48.693)" fill="#adbcfb"/>
        <path id="Trazado_199870" data-name="Trazado 199870" d="M179.227,156.592c0,8.312-.033,16.623.019,24.934.017,2.619-.608,4.714-3.646,4.751-3.1.037-3.678-2.134-3.676-4.719q.029-24.933-.005-49.868c0-2.713.564-5.076,3.821-4.947,2.947.116,3.537,2.3,3.513,4.916C179.181,139.97,179.227,148.281,179.227,156.592Z" transform="translate(-90.882 -48.691)" fill="#adbcfb"/>
      </g>
    </g>
  </g>
</svg>
