<svg xmlns="http://www.w3.org/2000/svg" xmlns:xlink="http://www.w3.org/1999/xlink" width="652" height="384.697" viewBox="0 0 652 384.697">
  <defs>
    <clipPath id="clip-path">
      <rect id="Rectángulo_41925" data-name="Rectángulo 41925" width="610" height="340" transform="translate(725 9224)" fill="#fff"/>
    </clipPath>
  </defs>
  <g id="Grupo_137313" data-name="Grupo 137313" transform="translate(-683.333 -9224)">
    <g id="Grupo_136746" data-name="Grupo 136746" transform="translate(1025.3 9203.022)">
      <rect id="Rectángulo_31191" data-name="Rectángulo 31191" width="226.674" height="226.675" transform="translate(83.359 21)" fill="#f2eefc"/>
      <rect id="Rectángulo_31193" data-name="Rectángulo 31193" width="226.674" height="226.675" transform="translate(-341.967 179)" fill="#4747ff" opacity="0.3"/>
    </g>
    <rect id="Rectángulo_41753" data-name="Rectángulo 41753" width="610" height="340" transform="translate(725 9224)" fill="#fff"/>
    <g id="Enmascarar_grupo_151" data-name="Enmascarar grupo 151" clip-path="url(#clip-path)">
      <g id="Grupo_137303" data-name="Grupo 137303" transform="translate(18.617 49)">
        <g id="Grupo_137296" data-name="Grupo 137296" transform="translate(1094.054 9309.582)">
          <path id="Trazado_200130" data-name="Trazado 200130" d="M340.267,281.186l-.473-14.8s17.535-6.27,33.32,2.279l-1.395,13.625S339.609,281.172,340.267,281.186Z" transform="translate(-339.794 -264.165)" fill="#e2ca56"/>
          <path id="Trazado_200131" data-name="Trazado 200131" d="M355.223,281.71c-7.763-.268-15.277-.533-14.957-.524l-.473-14.8a47.656,47.656,0,0,1,14.783-2.216" transform="translate(-339.794 -264.165)" fill="#ea404a"/>
        </g>
        <g id="Grupo_137297" data-name="Grupo 137297" transform="translate(1055.269 9312.553)">
          <path id="Trazado_200132" data-name="Trazado 200132" d="M298.035,286.237l-1.151-15.569s12.892-6.857,29.293-.546l.326,13.347S297.471,286.237,298.035,286.237Z" transform="translate(-296.884 -267.452)" fill="#e2ca56"/>
          <path id="Trazado_200133" data-name="Trazado 200133" d="M311.122,284.947c-6.855.66-13.356,1.293-13.087,1.293l-1.151-15.569a34.356,34.356,0,0,1,13.742-3.191" transform="translate(-296.884 -267.455)" fill="#ea404a"/>
        </g>
        <path id="Trazado_200134" data-name="Trazado 200134" d="M195.282,453l-48.81,5.423,93.619,9.228,178.451-7.42Z" transform="translate(772.841 9027.268)" fill="#b2a975"/>
        <path id="Trazado_200135" data-name="Trazado 200135" d="M238.308,390.418l-.852-18.622s15.792-8.588,36.137-.281L272.011,391.7S237.6,390.4,238.308,390.418Z" transform="translate(764.096 9035.447)" fill="#e2ca56"/>
        <path id="Trazado_200136" data-name="Trazado 200136" d="M255.548,391.08c-8.728-.332-17.6-.671-17.24-.662l-.852-18.622a41.437,41.437,0,0,1,19.52-3.879" transform="translate(764.096 9035.447)" fill="#ea404a"/>
        <path id="Trazado_200137" data-name="Trazado 200137" d="M383.944,298.519l-.336-16.058s14.955-7.327,27.79,3.693L409.75,299.6S380.881,298.507,383.944,298.519Z" transform="translate(750.049 9043.888)" fill="#e2ca56"/>
        <path id="Trazado_200138" data-name="Trazado 200138" d="M259.941,352.876" transform="translate(761.935 9036.891)" fill="#ea404a"/>
        <path id="Trazado_200139" data-name="Trazado 200139" d="M285.777,372.393l-.305-89.335L339.7,269.5,338.5,325.089l.909,56.945Z" transform="translate(759.482 9044.904)" fill="#ea404a"/>
        <path id="Trazado_200140" data-name="Trazado 200140" d="M192.739,398.145l-1.322-17.854s14.407-8.729,33.214-1.491l.75,16.171S192.091,398.145,192.739,398.145Z" transform="translate(768.521 9034.675)" fill="#e2ca56"/>
        <path id="Trazado_200141" data-name="Trazado 200141" d="M291.929,390.316l-.155-14.27s15.506-6.9,29.259,1.719l-1.6,15.013S291.353,390.316,291.929,390.316Z" transform="translate(758.876 9034.915)" fill="#e2ca56"/>
        <path id="Trazado_200142" data-name="Trazado 200142" d="M185.057,452.123l-4.8-62.244,68.893-10.546.9,80.144Z" transform="translate(769.594 9034.348)" fill="#ea404a"/>
        <path id="Trazado_200143" data-name="Trazado 200143" d="M209.421,396.5c-8.442.814-17.013,1.647-16.681,1.647l-1.322-17.854a37.384,37.384,0,0,1,17.177-4.352" transform="translate(768.521 9034.674)" fill="#ea404a"/>
        <path id="Trazado_200144" data-name="Trazado 200144" d="M300.411,394.219c-7.15-.633-12.723-.86-12.425-.86l-.212-16.226s7.775-1.6,13.172-.891" transform="translate(759.26 9034.662)" fill="#ea404a"/>
        <path id="Trazado_200145" data-name="Trazado 200145" d="M254.472,380l144.02,19.282-3.2,54.877-138.113,5.383Z" transform="translate(762.461 9034.283)" fill="#e2ca56"/>
        <path id="Trazado_200146" data-name="Trazado 200146" d="M394.939,299.024c-6.543-.261-12.471-.51-10.995-.505l-.336-16.058a28.538,28.538,0,0,1,12-2.38" transform="translate(750.049 9043.888)" fill="#ea404a"/>
        <path id="Trazado_200147" data-name="Trazado 200147" d="M345.307,269.5l62.82,28.924-1.7,44.29.118,49.714-62.142-12.2-.644-52.883Z" transform="translate(753.879 9044.904)" fill="#e2ca56"/>
        <g id="Grupo_137298" data-name="Grupo 137298" transform="translate(836.18 9090.305)">
          <path id="Trazado_200148" data-name="Trazado 200148" d="M254.643,153.365,243.78,208.707a108.775,108.775,0,0,1-23.972,31.15l-11.021-7.312s15.772-35.1,20.051-52.211c0,0-17.719,23.73-29.828,36.246l-8.9-8.169s13.622-16.35,16.648-31.89c4.056-20.825-4.212-34.291-4.212-34.291Z" transform="translate(-67.533 -33.168)" fill="#5fc1c6"/>
          <path id="Trazado_200149" data-name="Trazado 200149" d="M155.528,144.778c51.512,13.65,81.307,5.522,81.307,5.522l18.077,41.58s-1.289,7.306.595,30.907c1.813,22.726,16.878,24.533,16.878,24.533,3.618-18.078,11.036-61.424,11.036-61.424l-36.033-76.657s-39.855-12.359-73.161-17.119" transform="translate(-64.209 -28.352)" fill="#7bcbd4"/>
          <path id="Trazado_200150" data-name="Trazado 200150" d="M183.718,222.709l-1.426-17.8s13.327-8.8,31.214-1.6l-.625,19.39S183.109,222.721,183.718,222.709Z" transform="translate(-66.782 -38.766)" fill="#e2ca56"/>
          <path id="Trazado_200151" data-name="Trazado 200151" d="M198.36,222.732c-7.934,0-16-.01-15.668-.016l-1.455-18.106a35.634,35.634,0,0,1,17.575-4.491" transform="translate(-66.68 -38.732)" fill="#ea404a"/>
          <path id="Trazado_200152" data-name="Trazado 200152" d="M153.1,237.749l-3-14.553s10.925-8.728,27.182-4.784l2.346,13.23S152.565,237.819,153.1,237.749Z" transform="translate(-63.687 -40.392)" fill="#ea404a"/>
          <path id="Trazado_200153" data-name="Trazado 200153" d="M166.653,234.65c-6.862,1.573-13.829,3.176-13.555,3.14l-3-14.553a31.042,31.042,0,0,1,13.673-5.422" transform="translate(-63.687 -40.433)" fill="#ea404a"/>
          <path id="Trazado_200154" data-name="Trazado 200154" d="M228.4,227.072l-1.225-15.531s14.826-7.92,28.506,2.039l-.937,13.109S225.28,227.229,228.4,227.072Z" transform="translate(-71.096 -39.543)" fill="#e2ca56"/>
          <path id="Trazado_200155" data-name="Trazado 200155" d="M239.628,226.954c-6.678.109-12.73.2-11.228.12l-1.225-15.531a30.355,30.355,0,0,1,12.095-2.969" transform="translate(-71.096 -39.545)" fill="#ea404a"/>
          <path id="Trazado_200156" data-name="Trazado 200156" d="M184.551,207.582,145.581,235.7l9.448,54,98.171.548Z" transform="translate(-63.253 -39.449)" fill="#ea404a"/>
          <path id="Trazado_200157" data-name="Trazado 200157" d="M188.534,207.945l4.149,76.219,63.57,5.337,3.21-67.578Z" transform="translate(-67.382 -39.484)" fill="#e2ca56"/>
          <path id="Trazado_200158" data-name="Trazado 200158" d="M150.528,127.046s-8.065,23.618-.556,39.616,28.831,36.663,23.214,59.575a43.342,43.342,0,0,1-9.039,13.859s-6.475-20.722-18.682-34.348-72.311-36.757-62.618-110.2L54.5,55.465S76.19,35.128,103.305,21.571c0,0,32.9,54.68,87.2,69.746" transform="translate(-54.499 -21.571)" fill="#7bcbd4"/>
        </g>
        <path id="Trazado_200159" data-name="Trazado 200159" d="M362.071,372.162" transform="translate(752.119 9035.037)" fill="#7bcbd4"/>
        <g id="Grupo_137302" data-name="Grupo 137302" transform="translate(800 9425.938)">
          <g id="Grupo_137299" data-name="Grupo 137299" transform="translate(100.549 1.594)">
            <path id="Trazado_200160" data-name="Trazado 200160" d="M126.379,412.236l-.667-14.534s12.328-6.7,28.208-.219l-1.234,15.758S125.83,412.224,126.379,412.236Z" transform="translate(-125.712 -394.656)" fill="#ea404a"/>
            <path id="Trazado_200161" data-name="Trazado 200161" d="M139.835,412.754c-6.813-.259-13.738-.523-13.456-.518l-.667-14.534a32.348,32.348,0,0,1,15.237-3.027" transform="translate(-125.712 -394.656)" fill="#e2ca56"/>
          </g>
          <g id="Grupo_137300" data-name="Grupo 137300" transform="translate(67.797 0)">
            <path id="Trazado_200162" data-name="Trazado 200162" d="M91.128,411.976l-1.65-14.932s12.255-7.725,29.049-2.1l-.228,16.32S90.56,412,91.128,411.976Z" transform="translate(-89.478 -392.893)" fill="#ea404a"/>
            <path id="Trazado_200163" data-name="Trazado 200163" d="M105.028,411.617c-7.037.187-14.191.373-13.9.361l-1.65-14.932a33.376,33.376,0,0,1,15.5-4.131" transform="translate(-89.478 -392.895)" fill="#e2ca56"/>
          </g>
          <g id="Grupo_137301" data-name="Grupo 137301" transform="translate(38.302 3.162)">
            <path id="Trazado_200164" data-name="Trazado 200164" d="M58.318,413.374l-1.471-13.289s10.908-6.876,25.854-1.867l-.2,14.523S57.812,413.395,58.318,413.374Z" transform="translate(-56.847 -396.391)" fill="#ea404a"/>
            <path id="Trazado_200165" data-name="Trazado 200165" d="M70.687,413.054c-6.263.166-12.63.332-12.37.322l-1.471-13.289a29.712,29.712,0,0,1,13.794-3.676" transform="translate(-56.847 -396.393)" fill="#e2ca56"/>
          </g>
          <path id="Trazado_200166" data-name="Trazado 200166" d="M56.05,468l-41.579,9.039,74.541,6.327,66.466-8.135Z" transform="translate(-14.472 -400.112)" fill="#b2a975"/>
          <path id="Trazado_200167" data-name="Trazado 200167" d="M53.619,469.154,49.8,406.7l40.7-2.226,1.908,72.788Z" transform="translate(-17.868 -394.006)" fill="#e2ca56"/>
          <path id="Trazado_200168" data-name="Trazado 200168" d="M94.827,404.473l62.951.953-3.815,66.112L96.736,477.26Z" transform="translate(-22.195 -394.006)" fill="#ea404a"/>
        </g>
        <path id="Trazado_200169" data-name="Trazado 200169" d="M345.957,329.334l60.562,16.872L341.138,330.54Z" transform="translate(754.131 9039.153)" fill="#ea404a"/>
        <path id="Trazado_200170" data-name="Trazado 200170" d="M349.722,391.417l57.925,8.963-.152,1.056Z" transform="translate(753.306 9033.187)" fill="#ea404a"/>
        <path id="Trazado_200171" data-name="Trazado 200171" d="M287.772,334.283l35.553-3.616-35.854,5.724Z" transform="translate(759.289 9039.025)" fill="#f07d86"/>
      </g>
    </g>
  </g>
</svg>
