<svg xmlns="http://www.w3.org/2000/svg" width="652" height="384.697" viewBox="0 0 652 384.697">
  <g id="Grupo_137314" data-name="Grupo 137314" transform="translate(-683.333 -9826)">
    <g id="Grupo_136752" data-name="Grupo 136752" transform="translate(1025.3 9805.022)">
      <rect id="Rectángulo_31191" data-name="Rectángulo 31191" width="226.674" height="226.675" transform="translate(83.359 21)" fill="#f2eefc"/>
      <rect id="Rectángulo_31193" data-name="Rectángulo 31193" width="226.674" height="226.675" transform="translate(-341.967 179)" fill="#4747ff" opacity="0.3"/>
    </g>
    <rect id="Rectángulo_41757" data-name="Rectángulo 41757" width="610" height="340" transform="translate(725 9826)" fill="#fff"/>
    <g id="Grupo_137305" data-name="Grupo 137305" transform="translate(-22.034 -549)">
      <g id="Grupo_137304" data-name="Grupo 137304" transform="translate(653.856 10225.802)">
        <path id="Trazado_200172" data-name="Trazado 200172" d="M365.048,424.339a4.78,4.78,0,0,0,2.7.351c10.22.014,20.441-.052,30.659.023a19.865,19.865,0,0,1,20.01,17.693c.567,4.735-1.163,6.717-5.881,6.717q-59.834,0-119.666,0c-4.459,0-6.214-1.976-5.72-6.429,1.168-10.539,9.395-17.92,20.186-17.986,10.143-.061,20.287-.014,30.43-.016h2.771c0-2.272.047-4.383-.016-6.488-.044-1.52-1.444-1.157-2.272-1.336a79.592,79.592,0,0,1-36.186-18.138c-12.517-10.935-19.976-24.823-24.667-40.639-11.292-38.06-22.91-76.025-34.583-113.971-1.707-5.547-2.338-11.073-.623-16.422a23.361,23.361,0,0,1,10.761-13.331,24.044,24.044,0,0,1,35.563,14.35c5.845,20.6,11.526,41.248,17.255,61.883a10.078,10.078,0,0,0,5.585,6.958c.747-1.181.191-2.028-.039-2.862-3.338-12.122-6.78-24.216-10.032-36.362A35.216,35.216,0,0,1,356.552,221.3a32.6,32.6,0,0,1,10.563,13.555,3.945,3.945,0,0,0,2.9,2.515q12.539,3.551,25.029,7.271a8.812,8.812,0,0,0,3.385.2c13.674-1.188,27.343-2.43,41.023-3.532,10.3-.83,18.938,5.2,21.423,14.742a19.794,19.794,0,0,1-17.536,24.731c-10.844.985-21.706,1.8-32.56,2.7-.449.038-.9.083-1.555.144a16.959,16.959,0,0,1-.351,7.992,12.042,12.042,0,0,1-8.255,7.982c-4.531,1.475-9.125,2.756-13.691,4.121.274,1.116,1,.75,1.5.579,8.131-2.776,16.533-4.6,24.764-7.019,9.468-2.787,18.969-5.46,28.467-8.147,4.209-1.19,8.419-2.386,12.67-3.412a29.1,29.1,0,0,1,15.568.639,21.813,21.813,0,0,0,10.462.886c1.9-.349,3.939.047,5.915.049,14.032.011,28.068-.125,42.1.049,11.367.141,19.977,5.345,24.966,15.579,8.878,18.208-4.325,39.2-24.714,39.371-7.093.06-14.186.009-21.279.009h-2.4c.224,1.956,1.2,3.432,1.887,4.985,4.635,10.448,9.449,20.817,13.976,31.312,8.457,19.608-6.465,40.273-27.726,38.541a24.133,24.133,0,0,1-7.1-1.652,3,3,0,0,0-2.948.276C469.8,423.253,454.2,415.136,453,400.03a18.579,18.579,0,0,1,7.376-16.649c1.348-1.08,1.5-1.868.775-3.388-2.325-4.871-4.475-9.827-6.806-15.006-5.992,2.7-11.972,3.21-17.937.4s-9.551-7.621-11.227-14.2c-4.8,1.318-9.47,2.6-14.14,3.878-13.229,3.615-26.359,7.658-39.711,10.743-21.371,4.94-42.305-7.9-48.283-29.009-1.069-3.777-2.12-7.561-3.293-11.745-2.15,2.832-2.842,5.563-2.129,8.641,5.562,24.047,29.875,40.462,54.3,36.5,9.571-1.553,18.717-4.891,28.094-7.267,2.289-.581,4.549-1.281,6.849-1.807a21.886,21.886,0,0,1,11.576,42.185c-12.163,3.73-24.441,7.077-36.657,10.636a103.681,103.681,0,0,1-15.1,3.639c-1.217.163-1.73.629-1.66,1.9C365.117,421.131,365.048,422.8,365.048,424.339Zm-10.592-14.961a61.818,61.818,0,0,0,18.085-2.35q21.109-6,42.181-12.144c7.5-2.183,11.4-8.991,9.333-16.074-2.012-6.894-8.944-10.484-16.383-8.461-9.265,2.519-18.512,5.107-27.791,7.581a57.717,57.717,0,0,1-70.91-40.924,19.31,19.31,0,0,1,13.566-24.156q28.186-8.251,56.359-16.534c6.119-1.8,12.194-3.748,18.327-5.491,2.505-.712,3.7-1.873,3.213-3.767-.5-1.96-2.156-2.737-4.547-2.042q-12.239,3.556-24.467,7.16c-8.281,2.46-16.533,5.017-24.82,7.451-8.1,2.38-16.234,4.619-24.332,7-11.983,3.521-22.083-1.995-25.483-14.071-3.883-13.791-7.7-27.6-11.535-41.4-1.9-6.827-3.648-13.7-5.717-20.474a14.877,14.877,0,0,0-28.48,8.615c.625,2.2,1.3,4.383,1.965,6.568,11.432,37.625,23,75.211,34.259,112.888C296.316,388.975,323.13,409.382,354.456,409.379Zm23.463-103.2c-16.653,4.89-33.135,9.73-49.868,14.641,2.173,6.371,3.052,12.846,5.821,18.747a31.805,31.805,0,0,0,36.917,17.064c17.637-4.83,35.255-9.736,52.9-14.554a3.834,3.834,0,0,0,2.876-2.482,19.818,19.818,0,0,1,28.791-9.012c1.824,1.138,2.922,3.864,5.194,3.55,2.073-.29,3.961-1.854,5.95-2.815a11.607,11.607,0,0,1,15.542,4.92c.882,1.6,1.608,3.287,2.389,4.94q8.352,17.669,16.7,35.342c3.44,7.267,1.033,13.783-6.352,17.142-.554.252-1.1.525-1.655.777a.939.939,0,0,0-.669,1.051,21.685,21.685,0,0,1-1.672,11.939,19.106,19.106,0,0,0,5.483.662,18.26,18.26,0,0,0,16.071-25.956c-5.753-13.035-11.63-26.015-17.452-39.02-5.665-12.659-11.356-25.306-16.981-37.982-3.431-7.732-12.986-13.206-21.474-10.376a62.431,62.431,0,0,1-6.26,1.768c-7.646,1.683-15.033,4.265-22.583,6.285-14.057,3.759-28.027,7.844-42.044,11.753-3.163.883-5.263-.409-6.214-3.626C378.875,309.416,378.426,307.894,377.919,306.181Zm17.194-30.711c.457,0,.917.033,1.372,0q19.036-1.552,38.071-3.119c2.81-.232,5.63-.412,8.424-.773a10.533,10.533,0,0,0,9.263-11.6,10.4,10.4,0,0,0-11.131-9.526c-11.785.863-23.546,2.053-35.331,2.923-4.73.349-9.4,1.364-14.259-.108-17.353-5.255-34.785-10.256-52.212-15.265-6.122-1.758-11.93,1.44-13.559,7.215-1.638,5.8,1.613,11.461,7.736,13.262q23.139,6.8,46.307,13.5C384.828,273.426,389.742,275.478,395.112,275.471Zm88.709,21.066c1.029,2.131,1.953,3.947,2.792,5.8Q493.2,316.9,499.73,331.484c.474,1.062.943,1.719,2.3,1.708,8.989-.067,17.983.117,26.969-.081a18.289,18.289,0,0,0-.612-36.573q-15.656-.026-31.312,0ZM371.278,282.609c-.172-2.515-.935-3.914-3.539-4.632-12.335-3.4-24.595-7.077-36.881-10.653a19.638,19.638,0,0,1-11.025-7.7,19.845,19.845,0,0,1,21.593-30.6c3.9,1.049,7.755,2.245,11.634,3.37.539.155,1.1.478,1.768-.136a21.206,21.206,0,0,0-8.652-6.573c-9.958-4.14-19.4-3.023-27.628,3.939-8.328,7.047-11,16.287-8.242,26.829,3,11.477,6.307,22.874,9.5,34.3.584,2.089,1.281,4.146,1.965,6.349ZM493.5,382.348a10.514,10.514,0,0,0-.41-1.218q-9.437-20.06-18.9-40.108a2.543,2.543,0,0,0-3.772-1.373c-1.721.811-3.39,1.733-5.115,2.535a1.522,1.522,0,0,0-.98,1.971,18.552,18.552,0,0,1-2.142,12.8,2.9,2.9,0,0,0-.05,2.955q4.011,8.72,7.868,17.51a2.129,2.129,0,0,0,2.356,1.547,19,19,0,0,1,14.886,6.3c.758.8,1.348,1.354,2.474.628C491.178,384.956,493.376,384.85,493.5,382.348Zm-85.227,57.516c-2.562-4.217-5.868-5.987-10.3-5.983q-45.188.047-90.377.02a13.645,13.645,0,0,0-1.827.063,10.531,10.531,0,0,0-8.374,5.9Zm42.676-100.739c-3.175-3.08-8.715-3.144-12.51-.3a10.681,10.681,0,0,0,9.869,18.675c4.361-1.486,7.5-6.047,6.833-10.166-2.547,1.282-5.032,2.571-7.549,3.789-3.014,1.461-5.613.814-6.858-1.641-1.271-2.505-.266-4.968,2.7-6.514C445.905,341.675,448.4,340.424,450.947,339.125Zm32.3,59.9c-2.92,1.34-5.583,2.629-8.3,3.791-3.258,1.392-6.54-.492-6.694-3.813-.1-2.256,1.107-3.7,3.089-4.611,2.643-1.218,5.269-2.472,8.012-3.764a10.167,10.167,0,0,0-13.044-.321,10.691,10.691,0,0,0,8.937,18.885A10.341,10.341,0,0,0,483.249,399.024ZM355.663,424.6a26.964,26.964,0,0,0-.009-5.987h-5.792a24.617,24.617,0,0,0,.077,5.987ZM311.708,297.8c-.053-.052-.11-.139-.149-.133a1.367,1.367,0,0,0-.293.119c.047.047.1.138.138.132A1.447,1.447,0,0,0,311.708,297.8Z" transform="translate(0 27.596)" fill="#adbcfb"/>
        <path id="Trazado_200173" data-name="Trazado 200173" d="M290.53,244.824c-8.914.182-17.109-4.7-21.742-14.934-4.725-10.436-8.167-21.241-6.656-32.95,1.641-12.733,7.087-23.325,18.305-30.174,12.426-7.585,27.481-5.391,39.563,4.113,9.667,7.6,15.045,17.782,17.609,29.633a79.126,79.126,0,0,1,1.843,10.572c.827,10.58-3.512,18.446-12.448,23.926C318.217,240.4,303.239,244.682,290.53,244.824ZM271,203.554c.177,7.337,2.789,15.266,6.327,22.918,2.973,6.429,8.186,9.438,15.235,9.147a64.546,64.546,0,0,0,29.208-8.2c7.146-4,9.463-9.227,8.35-17.416a72.491,72.491,0,0,0-3.784-15.279A36.266,36.266,0,0,0,308.544,174.4c-11.336-5.876-23.521-2.98-31.036,7.343C273.053,187.867,271.145,194.831,271,203.554Z" transform="translate(11.651)" fill="#adbcfb"/>
        <path id="Trazado_200174" data-name="Trazado 200174" d="M286.383,266.475a1.443,1.443,0,0,1-.3.117c-.038.006-.091-.085-.138-.132a1.367,1.367,0,0,1,.293-.119C286.273,266.336,286.329,266.424,286.383,266.475Z" transform="translate(25.325 58.92)" fill="#adbcfb"/>
      </g>
    </g>
  </g>
</svg>
