<svg id="Grupo_136925" data-name="Grupo 136925" xmlns="http://www.w3.org/2000/svg" width="397.388" height="297.444" viewBox="0 0 397.388 297.444">
  <g id="Grupo_136896" data-name="Grupo 136896" transform="translate(13.385 147.518)">
    <rect id="Rectángulo_41773" data-name="Rectángulo 41773" width="27.759" height="133.957" fill="#aceaff"/>
    <rect id="Rectángulo_41774" data-name="Rectángulo 41774" width="76.646" height="133.957" transform="translate(27.759)" fill="#13c4ff"/>
    <path id="Trazado_198869" data-name="Trazado 198869" d="M229.085,234.607c0,6.855-4.636,12.412-10.348,12.412s-10.353-5.557-10.353-12.412,4.631-12.417,10.353-12.417S229.085,227.744,229.085,234.607Z" transform="translate(-205.084 -215.038)" fill="#13c4ff"/>
    <rect id="Rectángulo_41775" data-name="Rectángulo 41775" width="20.703" height="91.436" transform="translate(3.299 38.006)" fill="#dbf6ff"/>
  </g>
  <g id="Grupo_136897" data-name="Grupo 136897" transform="translate(46.966 147.518)">
    <rect id="Rectángulo_41776" data-name="Rectángulo 41776" width="27.761" height="133.957" fill="#efa6ec"/>
    <rect id="Rectángulo_41777" data-name="Rectángulo 41777" width="76.646" height="133.957" transform="translate(27.761)" fill="#d100c9"/>
    <path id="Trazado_198870" data-name="Trazado 198870" d="M242.256,234.607c0,6.855-4.636,12.412-10.359,12.412s-10.353-5.557-10.353-12.412,4.641-12.417,10.353-12.417S242.256,227.744,242.256,234.607Z" transform="translate(-218.249 -215.038)" fill="#d100c9"/>
    <rect id="Rectángulo_41778" data-name="Rectángulo 41778" width="20.712" height="91.436" transform="translate(3.296 38.006)" fill="#f8d9f7"/>
  </g>
  <g id="Grupo_136898" data-name="Grupo 136898" transform="translate(82.232 186.571)">
    <rect id="Rectángulo_41779" data-name="Rectángulo 41779" width="19.883" height="95.95" fill="#252956"/>
    <rect id="Rectángulo_41780" data-name="Rectángulo 41780" width="54.902" height="95.95" transform="translate(19.883)" fill="#191d3a"/>
    <path id="Trazado_198871" data-name="Trazado 198871" d="M249.831,245.6c0,4.914-3.322,8.894-7.414,8.894S235,250.51,235,245.6s3.317-8.9,7.417-8.9S249.831,240.687,249.831,245.6Z" transform="translate(-232.639 -231.582)" fill="#191d3a"/>
    <rect id="Rectángulo_41781" data-name="Rectángulo 41781" width="14.83" height="65.498" transform="translate(2.362 27.218)" fill="#3b4172"/>
  </g>
  <g id="Grupo_136899" data-name="Grupo 136899" transform="translate(106.714 164.685)">
    <rect id="Rectángulo_41782" data-name="Rectángulo 41782" width="56.566" height="17.326" transform="translate(9.697 21.697)" fill="#f2f2fc"/>
    <rect id="Rectángulo_41783" data-name="Rectángulo 41783" width="11.977" height="17.326" transform="translate(66.263 21.697)" fill="#b5a7e9"/>
    <rect id="Rectángulo_41784" data-name="Rectángulo 41784" width="56.564" height="14.521" transform="translate(13.711 38.261)" fill="#e6e4f7"/>
    <rect id="Rectángulo_41785" data-name="Rectángulo 41785" width="11.979" height="14.521" transform="translate(70.275 38.261)" fill="#b5a7e9"/>
    <path id="Trazado_198872" data-name="Trazado 198872" d="M258.556,241.874l32.3,3.633v-4.395Z" transform="translate(-220.577 -202.851)" fill="#b5a7e9"/>
    <path id="Trazado_198873" data-name="Trazado 198873" d="M306.884,268.327H250.318v-16.18l56.566,4.171Z" transform="translate(-233.358 -185.732)" fill="#e6e4f7"/>
    <rect id="Rectángulo_41786" data-name="Rectángulo 41786" width="11.974" height="12.009" transform="translate(73.526 70.586)" fill="#b5a7e9"/>
    <path id="Trazado_198874" data-name="Trazado 198874" d="M259.83,254.888l32.3,3.633v-4.4Z" transform="translate(-218.6 -182.662)" fill="#b5a7e9"/>
    <path id="Trazado_198875" data-name="Trazado 198875" d="M336.135,269.88l-91.535-9.7V246.8h91.535Z" transform="translate(-242.228 -194.022)" fill="#f2f2fc"/>
    <path id="Trazado_198876" data-name="Trazado 198876" d="M288.376,269.88l-12.939-.02-.052-23.057h12.991Z" transform="translate(-194.469 -194.022)" fill="#b5a7e9"/>
    <path id="Trazado_198877" data-name="Trazado 198877" d="M323.144,246.8H244.6l78.544,5.157Z" transform="translate(-242.228 -194.022)" fill="#b5a7e9"/>
    <path id="Trazado_198878" data-name="Trazado 198878" d="M295.485,258.928l-32.236-4.584,34.785.2Z" transform="translate(-213.296 -182.323)" fill="#b5a7e9"/>
    <rect id="Rectángulo_41787" data-name="Rectángulo 41787" width="82.939" height="21.976" transform="translate(7.532 82.595)" fill="#e6e4f7"/>
    <rect id="Rectángulo_41788" data-name="Rectángulo 41788" width="13.183" height="22.932" transform="translate(77.288 82.595)" fill="#b5a7e9"/>
    <path id="Trazado_198879" data-name="Trazado 198879" d="M285.062,258.488H266.809l19.2,4.779Z" transform="translate(-207.774 -175.893)" fill="#b5a7e9"/>
    <rect id="Rectángulo_41789" data-name="Rectángulo 41789" width="82.364" height="14.027" transform="translate(15.368 104.571)" fill="#f2f2fc"/>
    <rect id="Rectángulo_41790" data-name="Rectángulo 41790" width="26.371" height="14.027" transform="translate(71.361 104.571)" fill="#b5a7e9"/>
    <path id="Trazado_198880" data-name="Trazado 198880" d="M288.838,267.1H260.554l28.284,3.443Z" transform="translate(-217.477 -162.531)" fill="#b5a7e9"/>
    <path id="Trazado_198881" data-name="Trazado 198881" d="M249.694,269.3l40.323,1.405H249.694Z" transform="translate(-234.326 -159.119)" fill="#b5a7e9"/>
    <path id="Trazado_198882" data-name="Trazado 198882" d="M246.622,258.488h35.545l-35.545,2.387Z" transform="translate(-239.09 -175.893)" fill="#b5a7e9"/>
    <path id="Trazado_198883" data-name="Trazado 198883" d="M247.471,238.016h28.282l-28.282,2.93Z" transform="translate(-237.774 -207.654)" fill="#b5a7e9"/>
    <path id="Trazado_198884" data-name="Trazado 198884" d="M250.318,257.4l9.044-1.037-9.044-1.051Z" transform="translate(-233.358 -180.814)" fill="#b5a7e9"/>
    <rect id="Rectángulo_41791" data-name="Rectángulo 41791" width="76.264" height="11.018" transform="translate(0 10.679)" fill="#e6e4f7"/>
    <rect id="Rectángulo_41792" data-name="Rectángulo 41792" width="16.701" height="11.018" transform="translate(59.563 10.679)" fill="#b5a7e9"/>
    <path id="Trazado_198885" data-name="Trazado 198885" d="M277.907,230.3H260l17.912,2.7Z" transform="translate(-218.344 -219.622)" fill="#b5a7e9"/>
    <path id="Trazado_198886" data-name="Trazado 198886" d="M243.67,232.027l37.336,1.1H243.67Z" transform="translate(-243.67 -216.944)" fill="#b5a7e9"/>
    <rect id="Rectángulo_41793" data-name="Rectángulo 41793" width="34.852" height="10.679" transform="translate(28.539)" fill="#f2f2fc"/>
    <rect id="Rectángulo_41794" data-name="Rectángulo 41794" width="7.38" height="10.679" transform="translate(63.39)" fill="#b5a7e9"/>
    <path id="Trazado_198887" data-name="Trazado 198887" d="M254.856,228.209h17.426l-17.426,1.8Z" transform="translate(-226.317 -222.867)" fill="#b5a7e9"/>
  </g>
  <g id="Grupo_136900" data-name="Grupo 136900" transform="translate(110.658 84.641)">
    <rect id="Rectángulo_41795" data-name="Rectángulo 41795" width="56.566" height="17.326" transform="translate(9.697 21.697)" fill="#f2f2fc"/>
    <rect id="Rectángulo_41796" data-name="Rectángulo 41796" width="11.977" height="17.326" transform="translate(66.263 21.697)" fill="#b5a7e9"/>
    <rect id="Rectángulo_41797" data-name="Rectángulo 41797" width="56.564" height="14.521" transform="translate(13.711 38.261)" fill="#e6e4f7"/>
    <rect id="Rectángulo_41798" data-name="Rectángulo 41798" width="11.979" height="14.521" transform="translate(70.275 38.261)" fill="#b5a7e9"/>
    <path id="Trazado_198888" data-name="Trazado 198888" d="M260.1,210.5l32.3,3.633v-4.4Z" transform="translate(-222.123 -171.478)" fill="#b5a7e9"/>
    <path id="Trazado_198889" data-name="Trazado 198889" d="M308.43,236.954H251.864v-16.18l56.566,4.171Z" transform="translate(-234.903 -154.358)" fill="#e6e4f7"/>
    <rect id="Rectángulo_41799" data-name="Rectángulo 41799" width="11.974" height="12.01" transform="translate(73.526 70.586)" fill="#b5a7e9"/>
    <path id="Trazado_198890" data-name="Trazado 198890" d="M261.376,223.514l32.3,3.633v-4.395Z" transform="translate(-220.146 -151.289)" fill="#b5a7e9"/>
    <path id="Trazado_198891" data-name="Trazado 198891" d="M337.681,238.507l-91.535-9.7V215.43h91.535Z" transform="translate(-243.774 -162.648)" fill="#f2f2fc"/>
    <path id="Trazado_198892" data-name="Trazado 198892" d="M289.922,238.507l-12.939-.02-.052-23.057h12.991Z" transform="translate(-196.015 -162.648)" fill="#b5a7e9"/>
    <path id="Trazado_198893" data-name="Trazado 198893" d="M324.69,215.43H246.146l78.544,5.158Z" transform="translate(-243.774 -162.648)" fill="#b5a7e9"/>
    <path id="Trazado_198894" data-name="Trazado 198894" d="M297.031,227.555,264.8,222.971l34.785.2Z" transform="translate(-214.842 -150.95)" fill="#b5a7e9"/>
    <rect id="Rectángulo_41800" data-name="Rectángulo 41800" width="82.939" height="21.975" transform="translate(7.532 82.596)" fill="#e6e4f7"/>
    <rect id="Rectángulo_41801" data-name="Rectángulo 41801" width="13.183" height="22.932" transform="translate(77.289 82.596)" fill="#b5a7e9"/>
    <path id="Trazado_198895" data-name="Trazado 198895" d="M286.608,227.115H268.355l19.2,4.779Z" transform="translate(-209.32 -144.52)" fill="#b5a7e9"/>
    <rect id="Rectángulo_41802" data-name="Rectángulo 41802" width="82.364" height="14.028" transform="translate(15.368 104.571)" fill="#f2f2fc"/>
    <rect id="Rectángulo_41803" data-name="Rectángulo 41803" width="26.371" height="14.028" transform="translate(71.361 104.571)" fill="#b5a7e9"/>
    <path id="Trazado_198896" data-name="Trazado 198896" d="M290.384,235.729H262.1l28.284,3.443Z" transform="translate(-219.023 -131.158)" fill="#b5a7e9"/>
    <path id="Trazado_198897" data-name="Trazado 198897" d="M251.24,237.928l40.323,1.4H251.24Z" transform="translate(-235.872 -127.746)" fill="#b5a7e9"/>
    <path id="Trazado_198898" data-name="Trazado 198898" d="M248.168,227.115h35.545L248.168,229.5Z" transform="translate(-240.636 -144.52)" fill="#b5a7e9"/>
    <path id="Trazado_198899" data-name="Trazado 198899" d="M249.017,206.643H277.3l-28.282,2.93Z" transform="translate(-239.32 -176.28)" fill="#b5a7e9"/>
    <path id="Trazado_198900" data-name="Trazado 198900" d="M251.864,226.031l9.044-1.036-9.044-1.051Z" transform="translate(-234.903 -149.441)" fill="#b5a7e9"/>
    <rect id="Rectángulo_41804" data-name="Rectángulo 41804" width="76.264" height="11.018" transform="translate(0 10.679)" fill="#e6e4f7"/>
    <rect id="Rectángulo_41805" data-name="Rectángulo 41805" width="16.701" height="11.018" transform="translate(59.563 10.679)" fill="#b5a7e9"/>
    <path id="Trazado_198901" data-name="Trazado 198901" d="M279.453,198.928H261.541l17.912,2.7Z" transform="translate(-219.89 -188.249)" fill="#b5a7e9"/>
    <path id="Trazado_198902" data-name="Trazado 198902" d="M245.216,200.654l37.336,1.1H245.216Z" transform="translate(-245.216 -185.57)" fill="#b5a7e9"/>
    <rect id="Rectángulo_41806" data-name="Rectángulo 41806" width="34.852" height="10.679" transform="translate(28.539)" fill="#f2f2fc"/>
    <rect id="Rectángulo_41807" data-name="Rectángulo 41807" width="7.38" height="10.679" transform="translate(63.39)" fill="#b5a7e9"/>
    <path id="Trazado_198903" data-name="Trazado 198903" d="M256.4,196.836h17.426l-17.426,1.8Z" transform="translate(-227.863 -191.494)" fill="#b5a7e9"/>
  </g>
  <g id="Grupo_136901" data-name="Grupo 136901" transform="translate(0 260.674)">
    <rect id="Rectángulo_41808" data-name="Rectángulo 41808" width="44.973" height="13.778" transform="translate(80.822 10.765)" fill="#f2f2fc"/>
    <path id="Trazado_198904" data-name="Trazado 198904" d="M243.55,263.738s8.366,6.8,25.144,10.6c0,0-11.172,10.639-10.718,21.342,0,0-30.042-12.787-37.01-9.223C220.965,286.453,238.5,276.791,243.55,263.738Z" transform="translate(-172.18 -263.738)" fill="#f4f3ff"/>
    <path id="Trazado_198905" data-name="Trazado 198905" d="M214.208,265.9s6.5,3.531,18.3,3.97c0,0-6.195,8.588-4.539,15.752,0,0-21.88-4.827-26.123-1.544C201.844,284.075,212.447,275.34,214.208,265.9Z" transform="translate(-201.844 -260.389)" fill="#f4f3ff"/>
    <path id="Trazado_198906" data-name="Trazado 198906" d="M220.885,266.293s6.692,3.153,18.495,2.916c0,0-5.687,8.93-3.625,15.979,0,0-22.12-3.557-26.172-.038C209.582,285.15,219.67,275.822,220.885,266.293Z" transform="translate(-189.84 -259.774)" fill="#e6e4f7"/>
    <path id="Trazado_198907" data-name="Trazado 198907" d="M231.12,264.283,215.508,272.4l9.276,16.145,18.57-2.98Z" transform="translate(-180.646 -262.892)" fill="#b5a7e9"/>
  </g>
  <g id="Grupo_136902" data-name="Grupo 136902" transform="translate(170.805 182.699)">
    <rect id="Rectángulo_41809" data-name="Rectángulo 41809" width="21.124" height="101.955" fill="#bebeff"/>
    <rect id="Rectángulo_41810" data-name="Rectángulo 41810" width="58.338" height="101.955" transform="translate(21.124)" fill="#4747ff"/>
    <path id="Trazado_198908" data-name="Trazado 198908" d="M285.532,244.757c0,5.223-3.529,9.448-7.881,9.448s-7.876-4.225-7.876-9.448,3.526-9.448,7.876-9.448S285.532,239.539,285.532,244.757Z" transform="translate(-267.263 -229.867)" fill="#4747ff"/>
    <rect id="Rectángulo_41811" data-name="Rectángulo 41811" width="15.757" height="69.59" transform="translate(2.512 28.922)" fill="#c7befc"/>
  </g>
  <g id="Grupo_136903" data-name="Grupo 136903" transform="translate(219.988)">
    <path id="Trazado_198909" data-name="Trazado 198909" d="M352.59,183.866h-58.6V167.1l58.6,4.32Z" transform="translate(-278.879 -152.98)" fill="#e6e4f7"/>
    <rect id="Rectángulo_41812" data-name="Rectángulo 41812" width="12.408" height="12.443" transform="translate(73.71 18.443)" fill="#b5a7e9"/>
    <path id="Trazado_198910" data-name="Trazado 198910" d="M303.845,169.944l33.457,3.762v-4.554Z" transform="translate(-263.591 -149.802)" fill="#b5a7e9"/>
    <path id="Trazado_198911" data-name="Trazado 198911" d="M382.9,185.471l-94.829-10.046V161.568H382.9Z" transform="translate(-288.068 -161.568)" fill="#f2f2fc"/>
    <path id="Trazado_198912" data-name="Trazado 198912" d="M333.423,185.471l-13.4-.02-.06-23.884h13.465Z" transform="translate(-238.594 -161.568)" fill="#b5a7e9"/>
    <path id="Trazado_198913" data-name="Trazado 198913" d="M369.432,161.568H288.068l81.364,5.342Z" transform="translate(-288.068 -161.568)" fill="#b5a7e9"/>
    <path id="Trazado_198914" data-name="Trazado 198914" d="M340.785,174.132l-33.4-4.754,36.033.214Z" transform="translate(-258.095 -149.45)" fill="#b5a7e9"/>
    <rect id="Rectángulo_41813" data-name="Rectángulo 41813" width="85.919" height="22.763" transform="translate(5.347 30.886)" fill="#f2f2fc"/>
    <rect id="Rectángulo_41814" data-name="Rectángulo 41814" width="13.659" height="23.754" transform="translate(77.607 30.886)" fill="#b5a7e9"/>
    <path id="Trazado_198915" data-name="Trazado 198915" d="M329.982,173.673H311.076l19.9,4.948Z" transform="translate(-252.374 -142.787)" fill="#b5a7e9"/>
    <rect id="Rectángulo_41815" data-name="Rectángulo 41815" width="85.321" height="14.536" transform="translate(13.464 53.649)" fill="#f2f2fc"/>
    <rect id="Rectángulo_41816" data-name="Rectángulo 41816" width="27.317" height="14.536" transform="translate(71.468 53.649)" fill="#b5a7e9"/>
    <path id="Trazado_198916" data-name="Trazado 198916" d="M333.9,182.595H304.6l29.3,3.568Z" transform="translate(-262.428 -128.946)" fill="#b5a7e9"/>
    <path id="Trazado_198917" data-name="Trazado 198917" d="M293.345,184.874l41.771,1.455H293.345Z" transform="translate(-279.881 -125.41)" fill="#b5a7e9"/>
    <path id="Trazado_198918" data-name="Trazado 198918" d="M290.163,173.673h36.82l-36.82,2.472Z" transform="translate(-284.816 -142.787)" fill="#b5a7e9"/>
    <path id="Trazado_198919" data-name="Trazado 198919" d="M293.991,172.548l9.371-1.071-9.371-1.091Z" transform="translate(-278.879 -147.887)" fill="#b5a7e9"/>
  </g>
  <g id="Grupo_136908" data-name="Grupo 136908" transform="translate(106.577 177.839)">
    <path id="Trazado_198920" data-name="Trazado 198920" d="M264.6,241.157c1.538-.791,6.69-1.464,9.621,2.493,3.909,5.315,5.835,18.612,14.191,22.23,8.376,3.62,13.293-.071,16.91-2.1s4.1-4.562,6.338-5.506,3.256,1.755-1.748,6.424c-2.414,2.227-12.953,14.67-23.7,12.218C272.112,273.677,255.456,245.893,264.6,241.157Z" transform="translate(-215.123 -216.871)" fill="#e28c71"/>
    <g id="Grupo_136905" data-name="Grupo 136905" transform="translate(18.148 58.898)">
      <g id="Grupo_136904" data-name="Grupo 136904" transform="translate(0 33.843)">
        <path id="Trazado_198921" data-name="Trazado 198921" d="M293.255,269.122c-13.793-1.929-42.85-2.993-42.225,3.194s3.044,9.458,3.664,5.786,1-3.832,2.09-3.819c6.835.11,20.174,5.169,30.249,6.955C298.707,283.317,305.305,270.805,293.255,269.122Z" transform="translate(-250.278 -267.621)" fill="#f9b5a0"/>
        <path id="Trazado_198922" data-name="Trazado 198922" d="M254.045,268.325s-1.587,5.6,1.1,8.685c0,0-.115,6.131-2.159,2.475S248.71,268.608,254.045,268.325Z" transform="translate(-250.729 -266.528)" fill="#7585f8"/>
      </g>
      <path id="Trazado_198923" data-name="Trazado 198923" d="M301.712,275.581c4.45,5.748,15.691,22.335,5.585,28.54-9.091,5.585-48.563-4.345-48.563-4.345s-3.743-6.264-1.243-12.91l27.948-1.174-11.624-31.336h9.843S297.451,270.072,301.712,275.581Z" transform="translate(-241.574 -254.356)" fill="#f28f19"/>
    </g>
    <g id="Grupo_136907" data-name="Grupo 136907" transform="translate(0 66.257)">
      <g id="Grupo_136906" data-name="Grupo 136906" transform="translate(0 33.414)">
        <path id="Trazado_198924" data-name="Trazado 198924" d="M285.3,270.337c-13.925-.018-42.85,2.934-41.383,8.966s4.33,8.958,4.424,5.228c.112-3.712.469-3.932,1.546-4.059,6.787-.855,20.686,2.342,30.907,2.72C292.658,283.645,297.474,270.342,285.3,270.337Z" transform="translate(-243.239 -270.337)" fill="#f9b5a0"/>
        <path id="Trazado_198925" data-name="Trazado 198925" d="M246.44,272.589s-.814,5.758,2.276,8.448c0,0,.732,6.093-1.8,2.753S241.2,273.6,246.44,272.589Z" transform="translate(-243.616 -266.843)" fill="#7585f8"/>
      </g>
      <path id="Trazado_198926" data-name="Trazado 198926" d="M301.348,301.806c-8.226,6.782-48.706,2.378-48.706,2.378s-4.564-5.692-2.993-12.614l29.871-6.386s-19.865-6.531-16.2-17.064c7.228-20.748,28.894-5.445,28.894-5.445S310.5,294.265,301.348,301.806Z" transform="translate(-234.768 -257.241)" fill="#f9b640"/>
    </g>
    <path id="Trazado_198927" data-name="Trazado 198927" d="M296,282.832c-3.118-10.721-1.727-23.383-5.327-32.3-4.99-12.364-17.158-10.841-24.3-8.532s-18.952,5.84-11.9,20.9c4.914,10.5,3.475,17.712,1.949,29.037h0c-.051.3-.092.556-.148.844l-.041,0,.041,0C252.7,305.414,299.164,293.744,296,282.832Z" transform="translate(-230.148 -217.074)" fill="#fcdcda"/>
    <path id="Trazado_198928" data-name="Trazado 198928" d="M259.114,237.216s3.592,5.45-.069,9.152c-3.758,3.8,13.89,10.134,12.989,6.771-1.156-4.325-3.784-6.608-2.375-11.984Z" transform="translate(-220.497 -222.048)" fill="#e67052"/>
    <path id="Trazado_198929" data-name="Trazado 198929" d="M268.49,233.114c4.266,2.983,10.535,17.939,7.106,21.939-1.51,1.722-8.823,1.064-14.262-5.11-2.25-2.534-5.279-7.45-3.2-13.157C259.067,234.2,263.535,229.637,268.49,233.114Z" transform="translate(-222.173 -230.364)" fill="#f3b294"/>
    <path id="Trazado_198930" data-name="Trazado 198930" d="M273.95,235.338c1.112,1.834.941,2.322-4.8,4.057-5.723,1.743-6.789,1.5-5.993,2.809,2.345,3.86-1.939,3.648.893,8.238s-2.482,2.324-5.235-1.368c-.546-.748-3.567-4.332-1.595-10.836C259.509,230.646,269.852,228.635,273.95,235.338Z" transform="translate(-223.544 -231.271)" fill="#963734"/>
    <path id="Trazado_198931" data-name="Trazado 198931" d="M257.268,238.212a11.056,11.056,0,0,0,1.595,10.836c2.039,2.748,5.544,4.768,5.988,3.636.536-1.385-3.291-1.332-2.735-4.924s-1.834-4-1.73-7.083,2.437-2.84,8.894-4.812c2.63-.794,2.993-1.916,2.526-2.952C267,229.361,259.539,231.857,257.268,238.212Z" transform="translate(-223.596 -231.245)" fill="#aa3c3c"/>
    <path id="Trazado_198932" data-name="Trazado 198932" d="M256.3,288.365c-.051.3-.092.556-.148.844l-.041,0,.041,0c-2.755,9.777,21.447,8.713,34.469-2.085.689-3.766-12.611-1.847-17.314-3.151-10.91-3.054,17.6-16.056,11.619-16.3-6.458-.286-13.976,4.189-13.872-5.164s-.416-13.012-5.437-16.995c-10.236-8.157-14.89,3.554-12.726,9.887a26.844,26.844,0,0,0,1.459,3.927C259.264,269.827,257.825,277.039,256.3,288.365Z" transform="translate(-230.036 -213.501)" fill="#efbebd"/>
    <path id="Trazado_198933" data-name="Trazado 198933" d="M261.1,243.217c2.1-.015,7.754,1.656,8.141,6.34.515,6.289-6.21,18.589-.092,25.361s13.515,5.743,18.505,5.557c5.006-.2,7.139-2.133,10.032-1.977s2.158,2.921-5.968,4.758c-3.888.873-22.692,7-31.984.2C247.562,274.52,248.769,243.309,261.1,243.217Z" transform="translate(-231.844 -212.739)" fill="#e28c71"/>
  </g>
  <g id="Grupo_136915" data-name="Grupo 136915" transform="translate(215.227 175.456)">
    <g id="Grupo_136911" data-name="Grupo 136911" transform="translate(28.947)">
      <rect id="Rectángulo_41817" data-name="Rectángulo 41817" width="106.28" height="66.781" transform="translate(20.785 2.083)" fill="#d100c9"/>
      <rect id="Rectángulo_41818" data-name="Rectángulo 41818" width="115.795" height="8.372" transform="translate(16.203)" fill="#d100c9"/>
      <rect id="Rectángulo_41819" data-name="Rectángulo 41819" width="106.285" height="66.781" transform="translate(4.572 2.083)" fill="#efa6ec"/>
      <rect id="Rectángulo_41820" data-name="Rectángulo 41820" width="115.798" height="8.372" fill="#efa6ec"/>
      <g id="Grupo_136910" data-name="Grupo 136910" transform="translate(20.535 15.905)">
        <path id="Trazado_198934" data-name="Trazado 198934" d="M305.6,238.4a2.168,2.168,0,0,0,2.4,1.832h63.478a2.167,2.167,0,0,0,2.388-1.832h0a2.174,2.174,0,0,0-2.388-1.829H307.994a2.175,2.175,0,0,0-2.4,1.829Z" transform="translate(-305.596 -236.571)" fill="#a700a0"/>
        <g id="Grupo_136909" data-name="Grupo 136909" transform="translate(2.255)">
          <path id="Trazado_198935" data-name="Trazado 198935" d="M306.48,238.4a2.17,2.17,0,0,1,2.391-1.829H370.1a1.9,1.9,0,1,1,0,3.661h-61.23A2.163,2.163,0,0,1,306.48,238.4Z" transform="translate(-306.48 -236.571)" fill="#d100c9"/>
        </g>
      </g>
      <rect id="Rectángulo_41821" data-name="Rectángulo 41821" width="106.28" height="3.105" transform="translate(20.785 8.372)" fill="#a700a0"/>
      <rect id="Rectángulo_41822" data-name="Rectángulo 41822" width="106.285" height="3.105" transform="translate(4.572 8.372)" fill="#d100c9"/>
    </g>
    <g id="Grupo_136914" data-name="Grupo 136914" transform="translate(0 25.152)">
      <rect id="Rectángulo_41823" data-name="Rectángulo 41823" width="96.137" height="62.078" transform="translate(19.459 21.898)" fill="#bebeff"/>
      <rect id="Rectángulo_41824" data-name="Rectángulo 41824" width="75.781" height="62.078" transform="translate(95.639 21.898)" fill="#4747ff"/>
      <path id="Trazado_198936" data-name="Trazado 198936" d="M398.814,262.094l11.018-21.9H334.746l-10.816,21.9Z" transform="translate(-227.671 -240.195)" fill="#e3e3ff"/>
      <path id="Trazado_198937" data-name="Trazado 198937" d="M370.008,248.778l-5.459,20.384H293.828V248.778Z" transform="translate(-274.369 -226.88)" fill="#4747ff"/>
      <path id="Trazado_198938" data-name="Trazado 198938" d="M305.661,248.778,286.2,264.189h79.688l15.951-15.41Z" transform="translate(-286.202 -226.88)" fill="#e3e3ff"/>
      <path id="Trazado_198939" data-name="Trazado 198939" d="M384.2,260.758a1.855,1.855,0,0,1-1.959,1.73H330.11a1.858,1.858,0,0,1-1.965-1.73h0a1.858,1.858,0,0,1,1.965-1.725h52.135a1.854,1.854,0,0,1,1.959,1.725Z" transform="translate(-221.132 -210.971)" fill="#2c04bf"/>
      <g id="Grupo_136912" data-name="Grupo 136912" transform="translate(107.013 48.062)">
        <path id="Trazado_198940" data-name="Trazado 198940" d="M382.359,260.758a1.87,1.87,0,0,0-1.977-1.725H330.11a1.742,1.742,0,1,0,0,3.455h50.272A1.87,1.87,0,0,0,382.359,260.758Z" transform="translate(-328.145 -259.033)" fill="#bebeff"/>
      </g>
      <path id="Trazado_198941" data-name="Trazado 198941" d="M384.2,263.3a1.849,1.849,0,0,1-1.959,1.727H330.11a1.853,1.853,0,0,1-1.965-1.727h0a1.85,1.85,0,0,1,1.965-1.72h52.135a1.847,1.847,0,0,1,1.959,1.72Z" transform="translate(-221.132 -207.02)" fill="#2c04bf"/>
      <g id="Grupo_136913" data-name="Grupo 136913" transform="translate(107.013 54.56)">
        <path id="Trazado_198942" data-name="Trazado 198942" d="M382.359,263.3a1.862,1.862,0,0,0-1.977-1.72H330.11a1.738,1.738,0,1,0,0,3.447h50.272A1.865,1.865,0,0,0,382.359,263.3Z" transform="translate(-328.145 -261.58)" fill="#bebeff"/>
      </g>
    </g>
  </g>
  <g id="Grupo_136922" data-name="Grupo 136922" transform="translate(189.2 66.5)">
    <g id="Grupo_136918" data-name="Grupo 136918" transform="translate(28.947)">
      <rect id="Rectángulo_41825" data-name="Rectángulo 41825" width="106.28" height="66.781" transform="translate(20.785 2.083)" fill="#d100c9"/>
      <rect id="Rectángulo_41826" data-name="Rectángulo 41826" width="115.795" height="8.372" transform="translate(16.203)" fill="#d100c9"/>
      <rect id="Rectángulo_41827" data-name="Rectángulo 41827" width="106.285" height="66.781" transform="translate(4.572 2.083)" fill="#efa6ec"/>
      <rect id="Rectángulo_41828" data-name="Rectángulo 41828" width="115.798" height="8.372" fill="#efa6ec"/>
      <g id="Grupo_136917" data-name="Grupo 136917" transform="translate(20.536 15.905)">
        <path id="Trazado_198943" data-name="Trazado 198943" d="M295.395,195.7a2.168,2.168,0,0,0,2.4,1.832h63.478a2.167,2.167,0,0,0,2.388-1.832h0a2.174,2.174,0,0,0-2.388-1.829H297.793a2.175,2.175,0,0,0-2.4,1.829Z" transform="translate(-295.395 -193.866)" fill="#a700a0"/>
        <g id="Grupo_136916" data-name="Grupo 136916" transform="translate(2.255)">
          <path id="Trazado_198944" data-name="Trazado 198944" d="M296.279,195.7a2.17,2.17,0,0,1,2.391-1.829H359.9a1.9,1.9,0,1,1,0,3.661H298.67A2.163,2.163,0,0,1,296.279,195.7Z" transform="translate(-296.279 -193.866)" fill="#d100c9"/>
        </g>
      </g>
      <rect id="Rectángulo_41829" data-name="Rectángulo 41829" width="106.28" height="3.105" transform="translate(20.785 8.372)" fill="#a700a0"/>
      <rect id="Rectángulo_41830" data-name="Rectángulo 41830" width="106.285" height="3.105" transform="translate(4.572 8.372)" fill="#d100c9"/>
    </g>
    <g id="Grupo_136921" data-name="Grupo 136921" transform="translate(0 25.152)">
      <rect id="Rectángulo_41831" data-name="Rectángulo 41831" width="96.137" height="62.077" transform="translate(19.459 21.898)" fill="#bebeff"/>
      <rect id="Rectángulo_41832" data-name="Rectángulo 41832" width="75.781" height="62.077" transform="translate(95.639 21.898)" fill="#4747ff"/>
      <path id="Trazado_198945" data-name="Trazado 198945" d="M388.613,219.389l11.018-21.9H324.545l-10.816,21.9Z" transform="translate(-217.47 -197.49)" fill="#e3e3ff"/>
      <path id="Trazado_198946" data-name="Trazado 198946" d="M359.807,206.073l-5.459,20.383h-70.72V206.073Z" transform="translate(-264.168 -184.175)" fill="#4747ff"/>
      <path id="Trazado_198947" data-name="Trazado 198947" d="M295.46,206.073,276,221.484h79.688l15.951-15.41Z" transform="translate(-276 -184.175)" fill="#e3e3ff"/>
      <path id="Trazado_198948" data-name="Trazado 198948" d="M374,218.053a1.852,1.852,0,0,1-1.957,1.73H319.908a1.856,1.856,0,0,1-1.965-1.73h0a1.856,1.856,0,0,1,1.965-1.725h52.135A1.852,1.852,0,0,1,374,218.053Z" transform="translate(-210.93 -168.266)" fill="#2c04bf"/>
      <g id="Grupo_136919" data-name="Grupo 136919" transform="translate(107.014 48.062)">
        <path id="Trazado_198949" data-name="Trazado 198949" d="M372.158,218.053a1.87,1.87,0,0,0-1.98-1.725h-50.27a1.742,1.742,0,1,0,0,3.455h50.27A1.871,1.871,0,0,0,372.158,218.053Z" transform="translate(-317.944 -216.328)" fill="#bebeff"/>
      </g>
      <path id="Trazado_198950" data-name="Trazado 198950" d="M374,220.595a1.847,1.847,0,0,1-1.957,1.727H319.908a1.851,1.851,0,0,1-1.965-1.727h0a1.849,1.849,0,0,1,1.965-1.72h52.135a1.845,1.845,0,0,1,1.957,1.72Z" transform="translate(-210.93 -164.315)" fill="#2c04bf"/>
      <g id="Grupo_136920" data-name="Grupo 136920" transform="translate(107.014 54.56)">
        <path id="Trazado_198951" data-name="Trazado 198951" d="M372.158,220.595a1.863,1.863,0,0,0-1.98-1.72h-50.27a1.738,1.738,0,1,0,0,3.447h50.27A1.865,1.865,0,0,0,372.158,220.595Z" transform="translate(-317.944 -218.875)" fill="#bebeff"/>
      </g>
    </g>
  </g>
  <g id="Grupo_136923" data-name="Grupo 136923" transform="translate(201.217 156.059)">
    <rect id="Rectángulo_41833" data-name="Rectángulo 41833" width="60.827" height="18.632" transform="translate(10.427 23.326)" fill="#f2f2fc"/>
    <rect id="Rectángulo_41834" data-name="Rectángulo 41834" width="12.879" height="18.632" transform="translate(71.254 23.326)" fill="#b5a7e9"/>
    <rect id="Rectángulo_41835" data-name="Rectángulo 41835" width="60.824" height="15.617" transform="translate(14.745 41.138)" fill="#e6e4f7"/>
    <rect id="Rectángulo_41836" data-name="Rectángulo 41836" width="12.881" height="15.617" transform="translate(75.569 41.138)" fill="#b5a7e9"/>
    <path id="Trazado_198952" data-name="Trazado 198952" d="M296.719,239.678l34.725,3.907v-4.727Z" transform="translate(-255.875 -197.72)" fill="#b5a7e9"/>
    <path id="Trazado_198953" data-name="Trazado 198953" d="M348.683,268.126H287.859v-17.4l60.824,4.487Z" transform="translate(-269.621 -179.311)" fill="#f2f2fc"/>
    <rect id="Rectángulo_41837" data-name="Rectángulo 41837" width="12.879" height="12.914" transform="translate(79.062 75.901)" fill="#b5a7e9"/>
    <path id="Trazado_198954" data-name="Trazado 198954" d="M298.087,253.675l34.727,3.9v-4.724Z" transform="translate(-253.752 -176.01)" fill="#b5a7e9"/>
    <path id="Trazado_198955" data-name="Trazado 198955" d="M380.144,269.791l-98.434-10.427V244.98h98.434Z" transform="translate(-279.161 -188.224)" fill="#e6e4f7"/>
    <path id="Trazado_198956" data-name="Trazado 198956" d="M328.788,269.791l-13.913-.015-.062-24.8h13.975Z" transform="translate(-227.805 -188.224)" fill="#b5a7e9"/>
    <path id="Trazado_198957" data-name="Trazado 198957" d="M366.168,244.98H281.709l84.459,5.551Z" transform="translate(-279.161 -188.224)" fill="#b5a7e9"/>
    <path id="Trazado_198958" data-name="Trazado 198958" d="M336.428,258.019l-34.663-4.931,37.4.222Z" transform="translate(-248.047 -175.645)" fill="#b5a7e9"/>
    <rect id="Rectángulo_41838" data-name="Rectángulo 41838" width="89.183" height="23.633" transform="translate(8.1 88.814)" fill="#e6e4f7"/>
    <rect id="Rectángulo_41839" data-name="Rectángulo 41839" width="14.177" height="24.657" transform="translate(83.106 88.814)" fill="#b5a7e9"/>
    <path id="Trazado_198959" data-name="Trazado 198959" d="M325.217,257.545H305.591l20.652,5.135Z" transform="translate(-242.111 -168.731)" fill="#b5a7e9"/>
    <rect id="Rectángulo_41840" data-name="Rectángulo 41840" width="88.565" height="15.082" transform="translate(16.526 112.447)" fill="#f2f2fc"/>
    <rect id="Rectángulo_41841" data-name="Rectángulo 41841" width="28.359" height="15.082" transform="translate(76.733 112.447)" fill="#b5a7e9"/>
    <path id="Trazado_198960" data-name="Trazado 198960" d="M329.276,266.808h-30.41l30.41,3.7Z" transform="translate(-252.543 -154.361)" fill="#b5a7e9"/>
    <path id="Trazado_198961" data-name="Trazado 198961" d="M287.188,269.172l43.361,1.5H287.188Z" transform="translate(-270.661 -150.693)" fill="#b5a7e9"/>
    <path id="Trazado_198962" data-name="Trazado 198962" d="M283.885,257.545h38.223l-38.223,2.566Z" transform="translate(-275.785 -168.731)" fill="#b5a7e9"/>
    <path id="Trazado_198963" data-name="Trazado 198963" d="M284.8,235.529h30.417L284.8,238.679Z" transform="translate(-274.37 -202.885)" fill="#b5a7e9"/>
    <path id="Trazado_198964" data-name="Trazado 198964" d="M287.859,256.379l9.727-1.114-9.727-1.131Z" transform="translate(-269.621 -174.023)" fill="#b5a7e9"/>
    <rect id="Rectángulo_41842" data-name="Rectángulo 41842" width="82.01" height="11.848" transform="translate(0 11.479)" fill="#e6e4f7"/>
    <rect id="Rectángulo_41843" data-name="Rectángulo 41843" width="17.962" height="11.848" transform="translate(64.048 11.479)" fill="#b5a7e9"/>
    <path id="Trazado_198965" data-name="Trazado 198965" d="M317.525,227.234h-19.26l19.26,2.908Z" transform="translate(-253.477 -215.755)" fill="#b5a7e9"/>
    <path id="Trazado_198966" data-name="Trazado 198966" d="M280.71,229.091l40.149,1.184H280.71Z" transform="translate(-280.71 -212.873)" fill="#b5a7e9"/>
    <rect id="Rectángulo_41844" data-name="Rectángulo 41844" width="37.476" height="11.479" transform="translate(30.689)" fill="#f2f2fc"/>
    <rect id="Rectángulo_41845" data-name="Rectángulo 41845" width="7.938" height="11.479" transform="translate(68.164)" fill="#b5a7e9"/>
    <path id="Trazado_198967" data-name="Trazado 198967" d="M292.739,224.983H311.48l-18.742,1.943Z" transform="translate(-262.05 -219.245)" fill="#b5a7e9"/>
  </g>
  <g id="Grupo_136924" data-name="Grupo 136924" transform="translate(162.555 265.506)">
    <path id="Trazado_198968" data-name="Trazado 198968" d="M307.263,265.632s8.366,6.8,25.144,10.593c0,0-11.172,10.639-10.718,21.345,0,0-30.042-12.787-37.01-9.226C284.678,288.344,302.216,278.682,307.263,265.632Z" transform="translate(-235.893 -265.632)" fill="#f4f3ff"/>
    <path id="Trazado_198969" data-name="Trazado 198969" d="M277.921,267.79s6.5,3.534,18.3,3.972c0,0-6.195,8.585-4.539,15.752,0,0-21.88-4.83-26.123-1.546C265.557,285.968,276.16,277.233,277.921,267.79Z" transform="translate(-265.557 -262.284)" fill="#f4f3ff"/>
    <path id="Trazado_198970" data-name="Trazado 198970" d="M284.6,268.187s6.692,3.153,18.495,2.914c0,0-5.69,8.93-3.625,15.982,0,0-22.12-3.559-26.172-.041C273.3,287.042,283.383,277.714,284.6,268.187Z" transform="translate(-253.553 -261.668)" fill="#e6e4f7"/>
    <path id="Trazado_198971" data-name="Trazado 198971" d="M294.833,266.177l-15.612,8.117L288.5,290.44l18.57-2.98Z" transform="translate(-244.359 -264.787)" fill="#b5a7e9"/>
  </g>
</svg>
