<svg xmlns="http://www.w3.org/2000/svg" width="945.001" height="401.994" viewBox="0 0 945.001 401.994">
  <g id="Grupo_137357" data-name="Grupo 137357" transform="translate(-328 -1492.917)">
    <path id="Trazado_200301" data-name="Trazado 200301" d="M0,0V259.212" transform="translate(1075.927 1566.935)" fill="none" stroke="#b5a7e9" stroke-linecap="round" stroke-width="3"/>
    <path id="Trazado_200302" data-name="Trazado 200302" d="M0,0V353.369" transform="translate(961.152 1519.673)" fill="none" stroke="#b5a7e9" stroke-linecap="round" stroke-width="3"/>
    <path id="Trazado_200303" data-name="Trazado 200303" d="M0,0V382.338" transform="translate(864.726 1505.073)" fill="none" stroke="#b5a7e9" stroke-linecap="round" stroke-width="3"/>
    <path id="Trazado_200304" data-name="Trazado 200304" d="M0,0V382.338" transform="translate(780.682 1505.073)" fill="none" stroke="#b5a7e9" stroke-linecap="round" stroke-width="3"/>
    <path id="Trazado_200305" data-name="Trazado 200305" d="M0,0V353.369" transform="translate(700.494 1519.673)" fill="none" stroke="#b5a7e9" stroke-linecap="round" stroke-width="3"/>
    <path id="Trazado_200306" data-name="Trazado 200306" d="M0,0V265.786" transform="translate(601.507 1560.36)" fill="none" stroke="#b5a7e9" stroke-linecap="round" stroke-width="3"/>
    <path id="Trazado_200307" data-name="Trazado 200307" d="M321.921,0C499.713,0,643.841,87.323,643.841,195.042S499.713,390.084,321.921,390.084,0,302.761,0,195.042,144.129,0,321.921,0Z" transform="translate(579.602 1503.327)" fill="none" stroke="#d100c9" stroke-width="3"/>
    <path id="Trazado_200308" data-name="Trazado 200308" d="M7.194,0A7.194,7.194,0,1,1,0,7.194,7.194,7.194,0,0,1,7.194,0Z" transform="translate(670.535 1603.869)" fill="none" stroke="#d100c9" stroke-linecap="round" stroke-width="3"/>
    <path id="Trazado_200309" data-name="Trazado 200309" d="M-94.395-3.3a1.545,1.545,0,0,0-.593-1.3,7.138,7.138,0,0,0-2.14-.923,10.335,10.335,0,0,1-2.461-1.037,3.284,3.284,0,0,1-1.749-2.865,3.118,3.118,0,0,1,1.261-2.549,5.1,5.1,0,0,1,3.274-1,5.53,5.53,0,0,1,2.382.492,3.909,3.909,0,0,1,1.644,1.4,3.6,3.6,0,0,1,.6,2.017h-2.215a2.005,2.005,0,0,0-.628-1.569,2.594,2.594,0,0,0-1.8-.567,2.709,2.709,0,0,0-1.692.466,1.551,1.551,0,0,0-.6,1.3,1.4,1.4,0,0,0,.65,1.173,7.493,7.493,0,0,0,2.145.914,9.865,9.865,0,0,1,2.4,1.011,3.816,3.816,0,0,1,1.327,1.3,3.388,3.388,0,0,1,.422,1.718A3.045,3.045,0,0,1-93.4-.769a5.318,5.318,0,0,1-3.327.945,6.251,6.251,0,0,1-2.553-.514,4.289,4.289,0,0,1-1.811-1.419,3.537,3.537,0,0,1-.646-2.109h2.224a2.07,2.07,0,0,0,.721,1.688,3.156,3.156,0,0,0,2.065.6,2.742,2.742,0,0,0,1.745-.47A1.517,1.517,0,0,0-94.395-3.3ZM-86.238.176A4.419,4.419,0,0,1-89.53-1.1a4.639,4.639,0,0,1-1.261-3.406v-.264a5.706,5.706,0,0,1,.549-2.544A4.181,4.181,0,0,1-88.7-9.062a4.078,4.078,0,0,1,2.215-.624,3.733,3.733,0,0,1,3,1.239,5.24,5.24,0,0,1,1.059,3.507v.861h-6.214a2.856,2.856,0,0,0,.787,1.863,2.362,2.362,0,0,0,1.736.686,2.892,2.892,0,0,0,2.391-1.187l1.151,1.1A3.845,3.845,0,0,1-84.1-.294,4.774,4.774,0,0,1-86.238.176Zm-.255-8.147a1.8,1.8,0,0,0-1.419.615,3.189,3.189,0,0,0-.69,1.714h4.069V-5.8A2.6,2.6,0,0,0-85.1-7.422,1.785,1.785,0,0,0-86.493-7.972Zm11.057,5.388a.968.968,0,0,0-.47-.87,5,5,0,0,0-1.56-.527,8.02,8.02,0,0,1-1.819-.58,2.428,2.428,0,0,1-1.6-2.241,2.531,2.531,0,0,1,1.037-2.057,4.1,4.1,0,0,1,2.637-.826,4.266,4.266,0,0,1,2.755.844,2.677,2.677,0,0,1,1.05,2.188h-2.136A1.316,1.316,0,0,0-76-7.677a1.752,1.752,0,0,0-1.213-.409,1.893,1.893,0,0,0-1.147.325,1.025,1.025,0,0,0-.444.87.866.866,0,0,0,.413.765,5.68,5.68,0,0,0,1.67.549,7.9,7.9,0,0,1,1.973.659A2.794,2.794,0,0,1-73.683-4a2.342,2.342,0,0,1,.347,1.3A2.478,2.478,0,0,1-74.4-.62a4.535,4.535,0,0,1-2.786.8,4.917,4.917,0,0,1-2.083-.422,3.428,3.428,0,0,1-1.424-1.16A2.746,2.746,0,0,1-81.2-3h2.074a1.5,1.5,0,0,0,.571,1.165,2.22,2.22,0,0,0,1.4.409,2.16,2.16,0,0,0,1.283-.321A.993.993,0,0,0-75.437-2.584ZM-69.205,0h-2.136V-9.51h2.136Zm-2.268-11.979a1.133,1.133,0,0,1,.312-.817,1.179,1.179,0,0,1,.892-.325,1.193,1.193,0,0,1,.9.325,1.125,1.125,0,0,1,.316.817,1.1,1.1,0,0,1-.316.8,1.2,1.2,0,0,1-.9.321,1.188,1.188,0,0,1-.892-.321A1.107,1.107,0,0,1-71.473-11.979Zm4.192,7.137a5.607,5.607,0,0,1,.554-2.518,4.044,4.044,0,0,1,1.556-1.723,4.383,4.383,0,0,1,2.3-.6,4.154,4.154,0,0,1,3.125,1.239,4.874,4.874,0,0,1,1.3,3.287l.009.5a5.658,5.658,0,0,1-.541,2.514A4,4,0,0,1-60.526-.431a4.415,4.415,0,0,1-2.325.606,4.125,4.125,0,0,1-3.221-1.34A5.133,5.133,0,0,1-67.28-4.737Zm2.136.185a3.832,3.832,0,0,0,.606,2.3,1.971,1.971,0,0,0,1.688.831,1.95,1.95,0,0,0,1.683-.844,4.232,4.232,0,0,0,.6-2.47,3.782,3.782,0,0,0-.62-2.285,1.979,1.979,0,0,0-1.683-.844,1.96,1.96,0,0,0-1.661.831A4.152,4.152,0,0,0-65.145-4.658Zm2.865-8.842h2.435l-2.435,2.663-1.714,0Zm7.629,3.99.062,1.1A3.419,3.419,0,0,1-51.82-9.686q2.971,0,3.023,3.4V0h-2.136V-6.161a1.958,1.958,0,0,0-.391-1.34A1.645,1.645,0,0,0-52.6-7.937a2.058,2.058,0,0,0-1.925,1.169V0h-2.136V-9.51ZM-39.867,0H-42V-9.51h2.136Zm-2.268-11.979a1.133,1.133,0,0,1,.312-.817,1.179,1.179,0,0,1,.892-.325,1.193,1.193,0,0,1,.9.325,1.125,1.125,0,0,1,.316.817,1.1,1.1,0,0,1-.316.8,1.2,1.2,0,0,1-.9.321,1.188,1.188,0,0,1-.892-.321A1.107,1.107,0,0,1-42.135-11.979Zm6.574,2.47.062,1.1A3.419,3.419,0,0,1-32.73-9.686q2.971,0,3.023,3.4V0h-2.136V-6.161a1.958,1.958,0,0,0-.391-1.34,1.645,1.645,0,0,0-1.279-.435,2.058,2.058,0,0,0-1.925,1.169V0h-2.136V-9.51ZM-26.78,0V-7.928h-1.45V-9.51h1.45v-.87a3.266,3.266,0,0,1,.879-2.443,3.367,3.367,0,0,1,2.461-.861,4.936,4.936,0,0,1,1.2.158l-.053,1.67a4.207,4.207,0,0,0-.817-.07,1.371,1.371,0,0,0-1.529,1.573v.844h1.934v1.582h-1.934V0Zm5.229-4.843A5.607,5.607,0,0,1-21-7.361a4.044,4.044,0,0,1,1.556-1.723,4.383,4.383,0,0,1,2.3-.6,4.154,4.154,0,0,1,3.125,1.239,4.874,4.874,0,0,1,1.3,3.287l.009.5a5.658,5.658,0,0,1-.541,2.514A4,4,0,0,1-14.8-.431a4.415,4.415,0,0,1-2.325.606,4.125,4.125,0,0,1-3.221-1.34,5.133,5.133,0,0,1-1.208-3.573Zm2.136.185a3.832,3.832,0,0,0,.606,2.3,1.971,1.971,0,0,0,1.688.831,1.95,1.95,0,0,0,1.683-.844,4.232,4.232,0,0,0,.6-2.47,3.782,3.782,0,0,0-.62-2.285,1.979,1.979,0,0,0-1.683-.844,1.96,1.96,0,0,0-1.661.831A4.152,4.152,0,0,0-19.415-4.658Zm13.491-2.9a5.285,5.285,0,0,0-.87-.07A1.959,1.959,0,0,0-8.771-6.5V0h-2.136V-9.51h2.039l.053,1.063A2.406,2.406,0,0,1-6.671-9.686a2,2,0,0,1,.756.123ZM-2.566-9.51l.062.993A3.422,3.422,0,0,1,.237-9.686a2.629,2.629,0,0,1,2.61,1.459A3.373,3.373,0,0,1,5.766-9.686a2.965,2.965,0,0,1,2.342.87,3.831,3.831,0,0,1,.787,2.566V0H6.759V-6.187a1.891,1.891,0,0,0-.4-1.327,1.731,1.731,0,0,0-1.31-.422,1.778,1.778,0,0,0-1.191.391,2.063,2.063,0,0,0-.646,1.024L3.226,0H1.09V-6.258A1.523,1.523,0,0,0-.624-7.937,1.88,1.88,0,0,0-2.443-6.891V0H-4.579V-9.51ZM16.77,0a3.3,3.3,0,0,1-.246-.888,3.325,3.325,0,0,1-2.5,1.063,3.355,3.355,0,0,1-2.338-.817,2.615,2.615,0,0,1-.905-2.021A2.7,2.7,0,0,1,11.914-5a5.473,5.473,0,0,1,3.23-.813h1.31v-.624a1.666,1.666,0,0,0-.413-1.182,1.638,1.638,0,0,0-1.257-.444,1.881,1.881,0,0,0-1.2.365,1.129,1.129,0,0,0-.466.927H10.986A2.37,2.37,0,0,1,11.5-8.231,3.455,3.455,0,0,1,12.916-9.3a4.955,4.955,0,0,1,1.991-.387,3.99,3.99,0,0,1,2.663.839,2.993,2.993,0,0,1,1.02,2.36V-2.2a4.861,4.861,0,0,0,.36,2.048V0ZM14.423-1.538a2.429,2.429,0,0,0,1.191-.308,2.055,2.055,0,0,0,.839-.826V-4.465H15.3a3.148,3.148,0,0,0-1.784.413,1.338,1.338,0,0,0-.6,1.169,1.248,1.248,0,0,0,.409.98A1.583,1.583,0,0,0,14.423-1.538ZM23.5-11.821V-9.51h1.679v1.582H23.5v5.309a1.169,1.169,0,0,0,.215.787,1,1,0,0,0,.769.242,3.29,3.29,0,0,0,.747-.088V-.026a5.26,5.26,0,0,1-1.406.2q-2.461,0-2.461-2.716V-7.928H19.8V-9.51h1.564v-2.312ZM29.083,0H26.947V-9.51h2.136ZM26.815-11.979a1.133,1.133,0,0,1,.312-.817,1.179,1.179,0,0,1,.892-.325,1.193,1.193,0,0,1,.9.325,1.125,1.125,0,0,1,.316.817,1.1,1.1,0,0,1-.316.8,1.2,1.2,0,0,1-.9.321,1.188,1.188,0,0,1-.892-.321A1.107,1.107,0,0,1,26.815-11.979Zm7.945,9.272,2.013-6.8h2.206L35.684,0H33.829L30.507-9.51h2.215ZM45.861,0a3.3,3.3,0,0,1-.246-.888,3.325,3.325,0,0,1-2.5,1.063,3.355,3.355,0,0,1-2.338-.817,2.615,2.615,0,0,1-.905-2.021A2.7,2.7,0,0,1,41.005-5a5.473,5.473,0,0,1,3.23-.813h1.31v-.624a1.666,1.666,0,0,0-.413-1.182,1.638,1.638,0,0,0-1.257-.444,1.881,1.881,0,0,0-1.2.365,1.129,1.129,0,0,0-.466.927H40.078A2.37,2.37,0,0,1,40.6-8.231,3.455,3.455,0,0,1,42.007-9.3,4.955,4.955,0,0,1,44-9.686a3.99,3.99,0,0,1,2.663.839,2.993,2.993,0,0,1,1.02,2.36V-2.2a4.861,4.861,0,0,0,.36,2.048V0ZM43.515-1.538a2.429,2.429,0,0,0,1.191-.308,2.055,2.055,0,0,0,.839-.826V-4.465H44.394a3.148,3.148,0,0,0-1.784.413,1.338,1.338,0,0,0-.6,1.169,1.248,1.248,0,0,0,.409.98A1.583,1.583,0,0,0,43.515-1.538Zm19.213-3.12a5.662,5.662,0,0,1-1,3.52A3.209,3.209,0,0,1,59.036.176a3.23,3.23,0,0,1-2.5-1.028V3.656H54.4V-9.51h1.969l.088.967A3.137,3.137,0,0,1,59.01-9.686a3.242,3.242,0,0,1,2.729,1.3,5.813,5.813,0,0,1,.989,3.6ZM60.6-4.843A3.966,3.966,0,0,0,60.034-7.1a1.843,1.843,0,0,0-1.622-.835,1.965,1.965,0,0,0-1.881,1.081v4.219a1.983,1.983,0,0,0,1.9,1.107,1.841,1.841,0,0,0,1.6-.822A4.366,4.366,0,0,0,60.6-4.843Zm8.912-2.716a5.285,5.285,0,0,0-.87-.07A1.959,1.959,0,0,0,66.665-6.5V0H64.529V-9.51h2.039l.053,1.063a2.406,2.406,0,0,1,2.145-1.239,2,2,0,0,1,.756.123ZM74.883.176A4.419,4.419,0,0,1,71.591-1.1,4.639,4.639,0,0,1,70.33-4.509v-.264a5.706,5.706,0,0,1,.549-2.544,4.181,4.181,0,0,1,1.542-1.745,4.078,4.078,0,0,1,2.215-.624,3.733,3.733,0,0,1,3,1.239A5.24,5.24,0,0,1,78.7-4.939v.861H72.483a2.856,2.856,0,0,0,.787,1.863,2.362,2.362,0,0,0,1.736.686A2.892,2.892,0,0,0,77.4-2.716l1.151,1.1A3.845,3.845,0,0,1,77.023-.294,4.774,4.774,0,0,1,74.883.176Zm-.255-8.147a1.8,1.8,0,0,0-1.419.615,3.189,3.189,0,0,0-.69,1.714h4.069V-5.8a2.6,2.6,0,0,0-.571-1.622A1.785,1.785,0,0,0,74.628-7.972Zm8.965,5.265,2.013-6.8h2.206L84.516,0H82.661L79.339-9.51h2.215ZM91.415,0H89.279V-9.51h2.136ZM89.147-11.979a1.133,1.133,0,0,1,.312-.817,1.179,1.179,0,0,1,.892-.325,1.193,1.193,0,0,1,.9.325,1.125,1.125,0,0,1,.316.817,1.1,1.1,0,0,1-.316.8,1.2,1.2,0,0,1-.9.321,1.188,1.188,0,0,1-.892-.321A1.107,1.107,0,0,1,89.147-11.979ZM99.422,0a3.3,3.3,0,0,1-.246-.888A3.325,3.325,0,0,1,96.68.176a3.355,3.355,0,0,1-2.338-.817,2.615,2.615,0,0,1-.905-2.021A2.7,2.7,0,0,1,94.566-5,5.473,5.473,0,0,1,97.8-5.81h1.31v-.624a1.666,1.666,0,0,0-.413-1.182,1.638,1.638,0,0,0-1.257-.444,1.881,1.881,0,0,0-1.2.365,1.129,1.129,0,0,0-.466.927H93.639a2.37,2.37,0,0,1,.519-1.463A3.455,3.455,0,0,1,95.568-9.3a4.955,4.955,0,0,1,1.991-.387,3.99,3.99,0,0,1,2.663.839,2.993,2.993,0,0,1,1.02,2.36V-2.2a4.861,4.861,0,0,0,.36,2.048V0ZM97.075-1.538a2.429,2.429,0,0,0,1.191-.308,2.055,2.055,0,0,0,.839-.826V-4.465H97.954a3.148,3.148,0,0,0-1.784.413,1.338,1.338,0,0,0-.6,1.169,1.248,1.248,0,0,0,.409.98A1.583,1.583,0,0,0,97.075-1.538Z" transform="translate(435.426 1583.032) rotate(-53.853)"/>
    <path id="Trazado_200310" data-name="Trazado 200310" d="M-33.7-2.979h-4.957L-39.691,0H-42l4.834-12.8h2L-30.331,0h-2.32ZM-38.03-4.772h3.709l-1.854-5.309Zm16.849.114a5.662,5.662,0,0,1-1,3.52A3.209,3.209,0,0,1-24.873.176a3.23,3.23,0,0,1-2.5-1.028V3.656h-2.136V-9.51h1.969l.088.967A3.137,3.137,0,0,1-24.9-9.686a3.242,3.242,0,0,1,2.729,1.3,5.813,5.813,0,0,1,.989,3.6Zm-2.127-.185A3.966,3.966,0,0,0-23.875-7.1,1.843,1.843,0,0,0-25.5-7.937a1.965,1.965,0,0,0-1.881,1.081v4.219a1.983,1.983,0,0,0,1.9,1.107,1.841,1.841,0,0,0,1.6-.822A4.366,4.366,0,0,0-23.309-4.843ZM-17.1,0h-2.136V-13.5H-17.1Zm4.6,0h-2.136V-9.51h2.136Zm-2.268-11.979a1.133,1.133,0,0,1,.312-.817,1.179,1.179,0,0,1,.892-.325,1.193,1.193,0,0,1,.9.325,1.125,1.125,0,0,1,.316.817,1.1,1.1,0,0,1-.316.8,1.2,1.2,0,0,1-.9.321,1.188,1.188,0,0,1-.892-.321A1.107,1.107,0,0,1-14.774-11.979Zm8.5,10.45A1.931,1.931,0,0,0-4.948-2a1.591,1.591,0,0,0,.563-1.151h2.013A3.137,3.137,0,0,1-2.927-1.49,3.632,3.632,0,0,1-4.333-.272,4.191,4.191,0,0,1-6.249.176,4.055,4.055,0,0,1-9.413-1.116a5.124,5.124,0,0,1-1.169-3.568V-4.9A5.039,5.039,0,0,1-9.422-8.38,4.018,4.018,0,0,1-6.258-9.686,3.907,3.907,0,0,1-3.494-8.7,3.542,3.542,0,0,1-2.373-6.1H-4.386a1.956,1.956,0,0,0-.558-1.345,1.8,1.8,0,0,0-1.332-.527,1.879,1.879,0,0,0-1.6.751,3.834,3.834,0,0,0-.571,2.281V-4.6A3.9,3.9,0,0,0-7.888-2.29,1.878,1.878,0,0,0-6.275-1.529ZM4.922,0a3.3,3.3,0,0,1-.246-.888A3.325,3.325,0,0,1,2.18.176,3.355,3.355,0,0,1-.158-.642a2.615,2.615,0,0,1-.905-2.021A2.7,2.7,0,0,1,.066-5,5.473,5.473,0,0,1,3.3-5.81h1.31v-.624a1.666,1.666,0,0,0-.413-1.182A1.638,1.638,0,0,0,2.936-8.06a1.881,1.881,0,0,0-1.2.365,1.129,1.129,0,0,0-.466.927H-.861A2.37,2.37,0,0,1-.343-8.231,3.455,3.455,0,0,1,1.068-9.3a4.955,4.955,0,0,1,1.991-.387,3.99,3.99,0,0,1,2.663.839,2.993,2.993,0,0,1,1.02,2.36V-2.2A4.861,4.861,0,0,0,7.1-.149V0ZM2.575-1.538a2.429,2.429,0,0,0,1.191-.308,2.055,2.055,0,0,0,.839-.826V-4.465H3.454a3.148,3.148,0,0,0-1.784.413,1.338,1.338,0,0,0-.6,1.169,1.248,1.248,0,0,0,.409.98A1.583,1.583,0,0,0,2.575-1.538Zm10.31.009A1.931,1.931,0,0,0,14.212-2a1.591,1.591,0,0,0,.563-1.151h2.013a3.137,3.137,0,0,1-.554,1.657A3.632,3.632,0,0,1,14.827-.272a4.191,4.191,0,0,1-1.916.448A4.055,4.055,0,0,1,9.747-1.116,5.124,5.124,0,0,1,8.578-4.685V-4.9A5.039,5.039,0,0,1,9.738-8.38,4.018,4.018,0,0,1,12.9-9.686a3.907,3.907,0,0,1,2.764.989,3.542,3.542,0,0,1,1.121,2.6H14.774a1.956,1.956,0,0,0-.558-1.345,1.8,1.8,0,0,0-1.332-.527,1.879,1.879,0,0,0-1.6.751,3.834,3.834,0,0,0-.571,2.281V-4.6a3.9,3.9,0,0,0,.558,2.307A1.878,1.878,0,0,0,12.885-1.529ZM20.672,0H18.536V-9.51h2.136ZM18.4-11.979a1.133,1.133,0,0,1,.312-.817,1.179,1.179,0,0,1,.892-.325,1.193,1.193,0,0,1,.9.325,1.125,1.125,0,0,1,.316.817,1.1,1.1,0,0,1-.316.8,1.2,1.2,0,0,1-.9.321,1.188,1.188,0,0,1-.892-.321A1.107,1.107,0,0,1,18.4-11.979ZM22.6-4.843a5.607,5.607,0,0,1,.554-2.518,4.044,4.044,0,0,1,1.556-1.723,4.383,4.383,0,0,1,2.3-.6,4.154,4.154,0,0,1,3.125,1.239,4.874,4.874,0,0,1,1.3,3.287l.009.5A5.658,5.658,0,0,1,30.9-2.145,4,4,0,0,1,29.351-.431a4.415,4.415,0,0,1-2.325.606,4.125,4.125,0,0,1-3.221-1.34A5.133,5.133,0,0,1,22.6-4.737Zm2.136.185a3.832,3.832,0,0,0,.606,2.3,1.971,1.971,0,0,0,1.688.831,1.95,1.95,0,0,0,1.683-.844,4.232,4.232,0,0,0,.6-2.47,3.782,3.782,0,0,0-.62-2.285,1.979,1.979,0,0,0-1.683-.844,1.96,1.96,0,0,0-1.661.831A4.152,4.152,0,0,0,24.732-4.658ZM27.6-13.5h2.435L27.6-10.837l-1.714,0Zm7.629,3.99.062,1.1a3.419,3.419,0,0,1,2.769-1.274q2.971,0,3.023,3.4V0H38.944V-6.161a1.958,1.958,0,0,0-.391-1.34,1.645,1.645,0,0,0-1.279-.435A2.058,2.058,0,0,0,35.35-6.768V0H33.214V-9.51Z" transform="translate(1229.756 1559.684) rotate(-53.853)"/>
    <path id="Trazado_200311" data-name="Trazado 200311" d="M-44.678-5.273-45.6,0h-2.412l2.471-14.219,4.922.01a4.843,4.843,0,0,1,3.5,1.217,3.79,3.79,0,0,1,1.1,3.221,4.521,4.521,0,0,1-1.689,3.29A6.134,6.134,0,0,1-41.67-5.264Zm.342-1.992,2.764.02a3.338,3.338,0,0,0,2.144-.664,2.75,2.75,0,0,0,1-1.855,2.2,2.2,0,0,0-.405-1.743,2.126,2.126,0,0,0-1.636-.708l-3.008-.01ZM-28.818-8.4a4.263,4.263,0,0,0-.908-.1,2.71,2.71,0,0,0-2.422,1.26L-33.418,0h-2.314l1.826-10.566,2.2-.01-.234,1.2a3.024,3.024,0,0,1,2.5-1.406,3.8,3.8,0,0,1,.889.146ZM-24.033.2A4.427,4.427,0,0,1-26.421-.5a3.945,3.945,0,0,1-1.494-1.816,5.4,5.4,0,0,1-.366-2.568l.029-.4a7.072,7.072,0,0,1,.942-2.9A5.378,5.378,0,0,1-25.4-10.127a4.642,4.642,0,0,1,2.48-.635,3.462,3.462,0,0,1,2.974,1.477A5.421,5.421,0,0,1-19.2-5.539l-.137,1.017h-6.65A2.87,2.87,0,0,0-25.479-2.5a2.012,2.012,0,0,0,1.641.788,3.559,3.559,0,0,0,2.754-1.3l1.172,1.23A4.454,4.454,0,0,1-21.66-.308,5.207,5.207,0,0,1-24.033.2Zm.986-9.062q-1.836-.059-2.754,2.6l4.385.01.039-.205a3.064,3.064,0,0,0,.01-.879,1.8,1.8,0,0,0-.547-1.094A1.731,1.731,0,0,0-23.047-8.867ZM-8.4-5.234a8.6,8.6,0,0,1-.864,2.915,4.783,4.783,0,0,1-1.66,1.929,3.916,3.916,0,0,1-2.231.6A3.106,3.106,0,0,1-15.82-1.152L-16.191,0h-2.119l2.6-15h2.324l-1.055,5.459a3.59,3.59,0,0,1,2.8-1.221,3,3,0,0,1,2.4,1.123A4.848,4.848,0,0,1-8.33-6.67,13.615,13.615,0,0,1-8.4-5.234Zm-2.227-1.309a2.772,2.772,0,0,0-.439-1.665,1.524,1.524,0,0,0-1.27-.62A2.723,2.723,0,0,0-14.7-7.48l-.762,4.375a1.843,1.843,0,0,0,1.846,1.377,2.3,2.3,0,0,0,1.929-.9,5.094,5.094,0,0,0,.972-2.617Q-10.635-6.074-10.625-6.543ZM-.381-8.4a4.263,4.263,0,0,0-.908-.1,2.71,2.71,0,0,0-2.422,1.26L-4.98,0H-7.295l1.826-10.566,2.2-.01-.234,1.2a3.024,3.024,0,0,1,2.5-1.406,3.8,3.8,0,0,1,.889.146ZM2.08,0H-.234L1.6-10.566H3.916ZM1.934-13.271a1.305,1.305,0,0,1,.352-.918,1.288,1.288,0,0,1,.947-.4,1.231,1.231,0,0,1,.942.347,1.2,1.2,0,0,1,.376.894,1.235,1.235,0,0,1-.366.918,1.342,1.342,0,0,1-.933.381,1.252,1.252,0,0,1-.937-.337A1.162,1.162,0,0,1,1.934-13.271ZM9.453.2A4.427,4.427,0,0,1,7.065-.5,3.945,3.945,0,0,1,5.571-2.314a5.4,5.4,0,0,1-.366-2.568l.029-.4a7.072,7.072,0,0,1,.942-2.9,5.378,5.378,0,0,1,1.909-1.948,4.642,4.642,0,0,1,2.48-.635A3.462,3.462,0,0,1,13.54-9.285a5.421,5.421,0,0,1,.747,3.746L14.15-4.521H7.5A2.87,2.87,0,0,0,8.008-2.5a2.012,2.012,0,0,0,1.641.788,3.559,3.559,0,0,0,2.754-1.3l1.172,1.23a4.454,4.454,0,0,1-1.748,1.47A5.207,5.207,0,0,1,9.453.2Zm.986-9.062Q8.6-8.926,7.686-6.27l4.385.01.039-.205a3.064,3.064,0,0,0,.01-.879,1.8,1.8,0,0,0-.547-1.094A1.731,1.731,0,0,0,10.439-8.867ZM15.791,0l1.523-8.809H15.752l.313-1.758,1.484.01.137-.791a4.711,4.711,0,0,1,1.572-2.881,4.577,4.577,0,0,1,3.135-.986,6.333,6.333,0,0,1,1.489.2q.728.186,1.45.41l-.557,1.953a6.206,6.206,0,0,0-2.324-.5A2.22,2.22,0,0,0,19.99-11.2l-.127.645,2.1-.01L21.65-8.809H19.639L18.105,0Zm8.145,0H21.611l1.836-10.566h2.314Zm6.6-10.576L30.3-9.336a4.032,4.032,0,0,1,3.135-1.426,2.554,2.554,0,0,1,2.2,1.06,4.229,4.229,0,0,1,.527,2.876L35.02,0H32.705l1.152-6.855a3.508,3.508,0,0,0,.01-.781A1.245,1.245,0,0,0,32.48-8.828a2.813,2.813,0,0,0-2.314,1.3L28.848,0H26.533l1.826-10.566Zm7.441,5.283a8.173,8.173,0,0,1,.854-2.861,5.169,5.169,0,0,1,1.685-1.958,3.975,3.975,0,0,1,2.324-.659,3.117,3.117,0,0,1,2.627,1.279l.361-1.084,2.109.01L46.191-.293A5.076,5.076,0,0,1,44.448,3a5.052,5.052,0,0,1-3.53,1.167,4.932,4.932,0,0,1-2.109-.508,4.385,4.385,0,0,1-1.6-1.289l1.23-1.4a2.964,2.964,0,0,0,2.422,1.318,2.838,2.838,0,0,0,1.948-.62A3.231,3.231,0,0,0,43.9-.205l.166-.742A3.739,3.739,0,0,1,41.289.2,2.959,2.959,0,0,1,38.911-.928,4.968,4.968,0,0,1,37.93-3.9,9.758,9.758,0,0,1,37.979-5.293Zm2.295.205a7.142,7.142,0,0,0-.039,1.074A2.787,2.787,0,0,0,40.7-2.373a1.572,1.572,0,0,0,1.279.635,2.732,2.732,0,0,0,2.3-1.221l.83-4.668a1.885,1.885,0,0,0-1.807-1.2,2.411,2.411,0,0,0-1.973.908,5.089,5.089,0,0,0-1.045,2.627Z" transform="translate(511.678 1795.763)"/>
    <path id="Trazado_200312" data-name="Trazado 200312" d="M-44.285,0h-1.594V-12.086h1.594Zm4.125-8.981.05,1.129A3.273,3.273,0,0,1-37.42-9.147q2.847,0,2.872,3.212V0h-1.536V-5.943a2.068,2.068,0,0,0-.444-1.436,1.78,1.78,0,0,0-1.357-.465,2.216,2.216,0,0,0-1.312.4,2.706,2.706,0,0,0-.88,1.046V0h-1.536V-8.981Zm10.011-2.175v2.175h1.677v1.187h-1.677v5.577a1.247,1.247,0,0,0,.224.81.943.943,0,0,0,.764.27,3.718,3.718,0,0,0,.73-.1V0a4.478,4.478,0,0,1-1.179.165,1.912,1.912,0,0,1-1.552-.623,2.675,2.675,0,0,1-.523-1.768v-5.57h-1.635V-8.981h1.635v-2.175ZM-22.337-7.6a4.6,4.6,0,0,0-.755-.058,2.024,2.024,0,0,0-2.05,1.287V0h-1.536V-8.981h1.494l.025,1.038a2.391,2.391,0,0,1,2.142-1.2,1.569,1.569,0,0,1,.681.116Zm.838,3.03a5.3,5.3,0,0,1,.519-2.374,3.87,3.87,0,0,1,1.444-1.627,3.932,3.932,0,0,1,2.113-.573,3.788,3.788,0,0,1,2.968,1.27A4.886,4.886,0,0,1-13.323-4.5v.108a5.351,5.351,0,0,1-.5,2.353A3.813,3.813,0,0,1-15.261-.415a3.977,3.977,0,0,1-2.146.581A3.778,3.778,0,0,1-20.366-1.1,4.861,4.861,0,0,1-21.5-4.466Zm1.544.183a3.842,3.842,0,0,0,.693,2.4,2.218,2.218,0,0,0,1.855.9A2.2,2.2,0,0,0-15.547-2a4.2,4.2,0,0,0,.689-2.569,3.836,3.836,0,0,0-.7-2.395,2.23,2.23,0,0,0-1.864-.917,2.205,2.205,0,0,0-1.834.9A4.17,4.17,0,0,0-19.955-4.391Zm8.185-.174a5.261,5.261,0,0,1,.979-3.324A3.1,3.1,0,0,1-8.226-9.147a3.115,3.115,0,0,1,2.5,1.079V-12.75h1.536V0H-5.6l-.075-.963A3.127,3.127,0,0,1-8.243.166a3.068,3.068,0,0,1-2.544-1.278,5.321,5.321,0,0,1-.984-3.337Zm1.536.174A3.984,3.984,0,0,0-9.6-2a2.039,2.039,0,0,0,1.743.863A2.24,2.24,0,0,0-5.728-2.449V-6.574a2.257,2.257,0,0,0-2.117-1.27,2.049,2.049,0,0,0-1.76.872A4.386,4.386,0,0,0-10.235-4.391Zm13.97,3.5A3.262,3.262,0,0,1,1.1.166,2.792,2.792,0,0,1-1.083-.668a3.611,3.611,0,0,1-.76-2.469V-8.981H-.307v5.8q0,2.042,1.66,2.042A2.3,2.3,0,0,0,3.694-2.449V-8.981H5.229V0H3.769Zm7.429-.2a2.212,2.212,0,0,0,1.436-.5,1.752,1.752,0,0,0,.681-1.245h1.453A2.785,2.785,0,0,1,14.2-1.361,3.5,3.5,0,0,1,12.9-.249a3.772,3.772,0,0,1-1.731.415A3.7,3.7,0,0,1,8.247-1.058,4.877,4.877,0,0,1,7.164-4.408v-.257A5.407,5.407,0,0,1,7.645-7,3.667,3.667,0,0,1,9.027-8.583a3.926,3.926,0,0,1,2.129-.564,3.6,3.6,0,0,1,2.511.9,3.234,3.234,0,0,1,1.067,2.349H13.281a2.116,2.116,0,0,0-.66-1.432,2.053,2.053,0,0,0-1.465-.56,2.149,2.149,0,0,0-1.814.843A3.957,3.957,0,0,0,8.7-4.607v.291a3.878,3.878,0,0,0,.639,2.391A2.16,2.16,0,0,0,11.165-1.087Zm8.9,0a2.212,2.212,0,0,0,1.436-.5,1.752,1.752,0,0,0,.681-1.245h1.453A2.785,2.785,0,0,1,23.1-1.361,3.5,3.5,0,0,1,21.794-.249a3.772,3.772,0,0,1-1.731.415,3.7,3.7,0,0,1-2.918-1.224,4.877,4.877,0,0,1-1.083-3.349v-.257A5.407,5.407,0,0,1,16.543-7a3.667,3.667,0,0,1,1.382-1.585,3.926,3.926,0,0,1,2.129-.564,3.6,3.6,0,0,1,2.511.9,3.234,3.234,0,0,1,1.067,2.349H22.18a2.116,2.116,0,0,0-.66-1.432,2.053,2.053,0,0,0-1.465-.56,2.149,2.149,0,0,0-1.814.843A3.957,3.957,0,0,0,17.6-4.607v.291a3.878,3.878,0,0,0,.639,2.391A2.16,2.16,0,0,0,20.063-1.087ZM27.027,0H25.492V-8.981h1.536Zm-1.66-11.364a.917.917,0,0,1,.228-.631.857.857,0,0,1,.677-.257.87.87,0,0,1,.681.257.907.907,0,0,1,.232.631.877.877,0,0,1-.232.623.886.886,0,0,1-.681.249.872.872,0,0,1-.677-.249A.886.886,0,0,1,25.367-11.364Zm3.71,6.79A5.3,5.3,0,0,1,29.6-6.948a3.87,3.87,0,0,1,1.444-1.627,3.932,3.932,0,0,1,2.113-.573,3.788,3.788,0,0,1,2.968,1.27A4.886,4.886,0,0,1,37.254-4.5v.108a5.351,5.351,0,0,1-.5,2.353A3.813,3.813,0,0,1,35.316-.415,3.977,3.977,0,0,1,33.17.166,3.778,3.778,0,0,1,30.211-1.1a4.861,4.861,0,0,1-1.133-3.362Zm1.544.183a3.842,3.842,0,0,0,.693,2.4,2.218,2.218,0,0,0,1.855.9A2.2,2.2,0,0,0,35.029-2a4.2,4.2,0,0,0,.689-2.569,3.836,3.836,0,0,0-.7-2.395,2.23,2.23,0,0,0-1.864-.917,2.205,2.205,0,0,0-1.834.9A4.17,4.17,0,0,0,30.622-4.391Zm3.229-8.359H35.71l-2.225,2.44-1.237,0Zm6.782,3.769.05,1.129a3.273,3.273,0,0,1,2.689-1.295q2.847,0,2.872,3.212V0H44.708V-5.943a2.068,2.068,0,0,0-.444-1.436,1.78,1.78,0,0,0-1.357-.465,2.216,2.216,0,0,0-1.312.4,2.706,2.706,0,0,0-.88,1.046V0H39.18V-8.981ZM-37.461,20a3.226,3.226,0,0,1-.216-.946,3.426,3.426,0,0,1-2.557,1.112,3.17,3.17,0,0,1-2.179-.751,2.43,2.43,0,0,1-.851-1.905A2.539,2.539,0,0,1-42.2,15.331a5.029,5.029,0,0,1,3-.776H-37.7v-.706a1.725,1.725,0,0,0-.481-1.282,1.935,1.935,0,0,0-1.419-.477,2.239,2.239,0,0,0-1.378.415,1.223,1.223,0,0,0-.556,1h-1.544a2.119,2.119,0,0,1,.477-1.3,3.258,3.258,0,0,1,1.295-.992,4.356,4.356,0,0,1,1.8-.365,3.551,3.551,0,0,1,2.432.776,2.8,2.8,0,0,1,.913,2.137V17.9a5.054,5.054,0,0,0,.315,1.967V20Zm-2.548-1.17a2.7,2.7,0,0,0,1.37-.374,2.259,2.259,0,0,0,.938-.971V15.642h-1.2q-2.822,0-2.822,1.652a1.4,1.4,0,0,0,.481,1.129A1.85,1.85,0,0,0-40.01,18.83ZM-32.091,20h-1.536V7.25h1.536Zm12.21,0a3.226,3.226,0,0,1-.216-.946,3.426,3.426,0,0,1-2.557,1.112,3.17,3.17,0,0,1-2.179-.751,2.43,2.43,0,0,1-.851-1.905,2.539,2.539,0,0,1,1.067-2.179,5.029,5.029,0,0,1,3-.776h1.494v-.706a1.725,1.725,0,0,0-.481-1.282,1.935,1.935,0,0,0-1.419-.477A2.239,2.239,0,0,0-23.4,12.5a1.223,1.223,0,0,0-.556,1H-25.5a2.119,2.119,0,0,1,.477-1.3,3.258,3.258,0,0,1,1.295-.992,4.356,4.356,0,0,1,1.8-.365,3.551,3.551,0,0,1,2.432.776,2.8,2.8,0,0,1,.913,2.137V17.9a5.054,5.054,0,0,0,.315,1.967V20Zm-2.548-1.17a2.7,2.7,0,0,0,1.37-.374,2.259,2.259,0,0,0,.938-.971V15.642h-1.2q-2.822,0-2.822,1.652a1.4,1.4,0,0,0,.481,1.129A1.85,1.85,0,0,0-22.429,18.83Zm7.695-7.811.042,1a3.317,3.317,0,0,1,2.665-1.162A2.568,2.568,0,0,1-9.463,12.3,3.4,3.4,0,0,1-8.3,11.251a3.445,3.445,0,0,1,1.7-.4q2.955,0,3,3.129V20H-5.13V14.073a2.062,2.062,0,0,0-.44-1.44,1.937,1.937,0,0,0-1.478-.477,2.036,2.036,0,0,0-1.419.51,2.071,2.071,0,0,0-.656,1.374V20h-1.544V14.115a1.713,1.713,0,0,0-1.917-1.959,2.055,2.055,0,0,0-2.067,1.287V20h-1.536V11.019Zm21.059,4.59a5.34,5.34,0,0,1-.946,3.308,3.024,3.024,0,0,1-2.54,1.249,3.131,3.131,0,0,1-2.631-1.2L.133,20H-1.278V7.25H.257v4.756a3.113,3.113,0,0,1,2.565-1.154,3.042,3.042,0,0,1,2.569,1.237,5.5,5.5,0,0,1,.934,3.387ZM4.79,15.435a4.15,4.15,0,0,0-.606-2.424,2.006,2.006,0,0,0-1.743-.855A2.255,2.255,0,0,0,.257,13.567v3.885a2.318,2.318,0,0,0,2.2,1.411,2,2,0,0,0,1.718-.855A4.413,4.413,0,0,0,4.79,15.435ZM9.928,20H8.392V11.019H9.928ZM8.268,8.636A.917.917,0,0,1,8.5,8.005a.857.857,0,0,1,.677-.257.87.87,0,0,1,.681.257.907.907,0,0,1,.232.631.877.877,0,0,1-.232.623.886.886,0,0,1-.681.249A.872.872,0,0,1,8.5,9.259.886.886,0,0,1,8.268,8.636Zm7.844,11.53a3.924,3.924,0,0,1-2.972-1.2,4.452,4.452,0,0,1-1.146-3.208v-.282a5.39,5.39,0,0,1,.51-2.386,3.982,3.982,0,0,1,1.428-1.644,3.59,3.59,0,0,1,1.988-.594,3.364,3.364,0,0,1,2.723,1.154,5,5,0,0,1,.971,3.3v.639H13.53a3.193,3.193,0,0,0,.776,2.146,2.44,2.44,0,0,0,1.888.818,2.675,2.675,0,0,0,1.378-.332,3.462,3.462,0,0,0,.988-.88l.938.73A3.772,3.772,0,0,1,16.112,20.166Zm-.191-8.052a2.048,2.048,0,0,0-1.561.677,3.288,3.288,0,0,0-.78,1.9h4.5v-.116a2.925,2.925,0,0,0-.631-1.814A1.928,1.928,0,0,0,15.921,12.114Zm6.923-1.1.05,1.129a3.273,3.273,0,0,1,2.689-1.295q2.847,0,2.872,3.212V20H26.919V14.057a2.068,2.068,0,0,0-.444-1.436,1.78,1.78,0,0,0-1.357-.465,2.216,2.216,0,0,0-1.312.4,2.706,2.706,0,0,0-.88,1.046V20H21.391V11.019ZM32.854,8.844v2.175h1.677v1.187H32.854v5.577a1.247,1.247,0,0,0,.224.81.943.943,0,0,0,.764.27,3.718,3.718,0,0,0,.73-.1V20a4.478,4.478,0,0,1-1.179.165,1.912,1.912,0,0,1-1.552-.623,2.675,2.675,0,0,1-.523-1.768v-5.57H29.684V11.019h1.635V8.844Zm7.2,11.322a3.924,3.924,0,0,1-2.972-1.2,4.452,4.452,0,0,1-1.146-3.208v-.282a5.39,5.39,0,0,1,.51-2.386,3.982,3.982,0,0,1,1.428-1.644,3.59,3.59,0,0,1,1.988-.594,3.364,3.364,0,0,1,2.723,1.154,5,5,0,0,1,.971,3.3v.639H37.47a3.193,3.193,0,0,0,.776,2.146,2.44,2.44,0,0,0,1.888.818,2.675,2.675,0,0,0,1.378-.332,3.462,3.462,0,0,0,.988-.88l.938.73A3.772,3.772,0,0,1,40.051,20.166Zm-.191-8.052a2.048,2.048,0,0,0-1.561.677,3.288,3.288,0,0,0-.78,1.9h4.5v-.116a2.925,2.925,0,0,0-.631-1.814A1.928,1.928,0,0,0,39.86,12.114Z" transform="translate(509.558 1680.302)"/>
    <path id="Trazado_200313" data-name="Trazado 200313" d="M-27.8-5.464h-3.173V0h-1.791V-13.508H-28.3a5.293,5.293,0,0,1,3.511,1.039,3.738,3.738,0,0,1,1.229,3.024,3.636,3.636,0,0,1-.682,2.2,4.07,4.07,0,0,1-1.9,1.4l3.173,5.733V0h-1.911Zm-3.173-1.457h2.737a3.087,3.087,0,0,0,2.111-.688,2.326,2.326,0,0,0,.784-1.84,2.449,2.449,0,0,0-.747-1.924,3.162,3.162,0,0,0-2.157-.678h-2.728ZM-17.163.186a4.386,4.386,0,0,1-3.321-1.341,4.976,4.976,0,0,1-1.28-3.586v-.315a6.024,6.024,0,0,1,.571-2.667A4.451,4.451,0,0,1-19.6-9.56a4.012,4.012,0,0,1,2.222-.663,3.759,3.759,0,0,1,3.043,1.29,5.583,5.583,0,0,1,1.085,3.692v.714h-6.8a3.568,3.568,0,0,0,.867,2.4,2.727,2.727,0,0,0,2.111.914,2.989,2.989,0,0,0,1.54-.371,3.869,3.869,0,0,0,1.1-.983l1.048.816A4.215,4.215,0,0,1-17.163.186Zm-.213-9a2.289,2.289,0,0,0-1.744.756,3.675,3.675,0,0,0-.872,2.12h5.028v-.13a3.269,3.269,0,0,0-.705-2.027A2.155,2.155,0,0,0-17.376-8.813ZM-5.065-.993A3.646,3.646,0,0,1-8.006.186a3.12,3.12,0,0,1-2.445-.932,4.036,4.036,0,0,1-.849-2.76v-6.531h1.716v6.485q0,2.282,1.855,2.282A2.569,2.569,0,0,0-5.112-2.737v-7.3H-3.4V0H-5.028Zm5.9-9.045L.891-8.776A3.658,3.658,0,0,1,3.9-10.224q3.182,0,3.21,3.59V0H5.39V-6.643a2.311,2.311,0,0,0-.5-1.6,1.989,1.989,0,0,0-1.517-.52,2.477,2.477,0,0,0-1.466.445A3.024,3.024,0,0,0,.928-7.153V0H-.789V-10.038ZM11.56,0H9.843V-10.038H11.56ZM9.7-12.7a1.024,1.024,0,0,1,.255-.705.958.958,0,0,1,.756-.288.973.973,0,0,1,.761.288,1.014,1.014,0,0,1,.26.705.98.98,0,0,1-.26.7.99.99,0,0,1-.761.278A.975.975,0,0,1,9.959-12,.991.991,0,0,1,9.7-12.7Zm4.147,7.589a5.929,5.929,0,0,1,.58-2.653,4.325,4.325,0,0,1,1.614-1.818,4.394,4.394,0,0,1,2.361-.64A4.233,4.233,0,0,1,21.723-8.8a5.461,5.461,0,0,1,1.266,3.776v.121a5.981,5.981,0,0,1-.561,2.63,4.262,4.262,0,0,1-1.6,1.814,4.445,4.445,0,0,1-2.4.649,4.223,4.223,0,0,1-3.307-1.419,5.433,5.433,0,0,1-1.266-3.757Zm1.726.2a4.294,4.294,0,0,0,.775,2.681,2.479,2.479,0,0,0,2.073,1.011A2.464,2.464,0,0,0,20.5-2.24a4.7,4.7,0,0,0,.77-2.871,4.287,4.287,0,0,0-.784-2.677,2.492,2.492,0,0,0-2.083-1.025A2.465,2.465,0,0,0,16.356-7.8,4.661,4.661,0,0,0,15.577-4.908Zm3.609-9.342h2.078l-2.486,2.728-1.382,0Zm7.58,4.212.056,1.262a3.658,3.658,0,0,1,3.006-1.447q3.182,0,3.21,3.59V0H31.32V-6.643a2.311,2.311,0,0,0-.5-1.6,1.989,1.989,0,0,0-1.517-.52,2.477,2.477,0,0,0-1.466.445,3.024,3.024,0,0,0-.983,1.169V0H25.142V-10.038ZM-26.352,19.337a1.264,1.264,0,0,0-.524-1.081,5.045,5.045,0,0,0-1.828-.663,8.641,8.641,0,0,1-2.069-.668A2.943,2.943,0,0,1-31.9,16a2.219,2.219,0,0,1-.366-1.28,2.6,2.6,0,0,1,1.044-2.087,4.076,4.076,0,0,1,2.667-.854,4.194,4.194,0,0,1,2.769.881,2.8,2.8,0,0,1,1.062,2.254h-1.726a1.549,1.549,0,0,0-.6-1.215,2.242,2.242,0,0,0-1.508-.51,2.346,2.346,0,0,0-1.466.408,1.285,1.285,0,0,0-.529,1.067,1.041,1.041,0,0,0,.492.937,6.05,6.05,0,0,0,1.777.6,9.257,9.257,0,0,1,2.083.687,3.038,3.038,0,0,1,1.183.96,2.361,2.361,0,0,1,.385,1.368,2.569,2.569,0,0,1-1.076,2.157,4.514,4.514,0,0,1-2.792.812,5.055,5.055,0,0,1-2.134-.427,3.47,3.47,0,0,1-1.452-1.192,2.873,2.873,0,0,1-.524-1.656H-30.9a1.777,1.777,0,0,0,.691,1.368,2.681,2.681,0,0,0,1.7.506,2.768,2.768,0,0,0,1.563-.394A1.212,1.212,0,0,0-26.352,19.337Zm3.5-2.449a5.929,5.929,0,0,1,.58-2.653,4.326,4.326,0,0,1,1.614-1.818,4.394,4.394,0,0,1,2.361-.64A4.233,4.233,0,0,1-14.983,13.2a5.461,5.461,0,0,1,1.266,3.776v.121a5.981,5.981,0,0,1-.561,2.63,4.262,4.262,0,0,1-1.6,1.814,4.445,4.445,0,0,1-2.4.649,4.223,4.223,0,0,1-3.307-1.419,5.433,5.433,0,0,1-1.266-3.757Zm1.726.2a4.294,4.294,0,0,0,.775,2.681,2.479,2.479,0,0,0,2.073,1.011A2.464,2.464,0,0,0-16.2,19.76a4.7,4.7,0,0,0,.77-2.871,4.287,4.287,0,0,0-.784-2.677A2.492,2.492,0,0,0-18.3,13.187,2.465,2.465,0,0,0-20.35,14.2,4.661,4.661,0,0,0-21.129,17.092Zm18.063,0a5.969,5.969,0,0,1-1.058,3.7,3.379,3.379,0,0,1-2.839,1.4A3.5,3.5,0,0,1-9.9,20.84L-9.987,22h-1.577V7.75h1.716v5.316a3.479,3.479,0,0,1,2.867-1.29A3.4,3.4,0,0,1-4.11,13.159a6.148,6.148,0,0,1,1.044,3.785ZM-4.782,16.9a4.638,4.638,0,0,0-.677-2.709,2.242,2.242,0,0,0-1.948-.956,2.52,2.52,0,0,0-2.44,1.577v4.342a2.59,2.59,0,0,0,2.458,1.577,2.23,2.23,0,0,0,1.92-.956A4.932,4.932,0,0,0-4.782,16.9Zm8.73-3.4a5.143,5.143,0,0,0-.844-.065A2.262,2.262,0,0,0,.812,14.875V22H-.9V11.962H.765l.028,1.16a2.672,2.672,0,0,1,2.394-1.345,1.753,1.753,0,0,1,.761.13Zm5.566,8.684a4.386,4.386,0,0,1-3.321-1.341,4.976,4.976,0,0,1-1.28-3.586v-.315a6.024,6.024,0,0,1,.571-2.667,4.451,4.451,0,0,1,1.6-1.837A4.012,4.012,0,0,1,9.3,11.776a3.759,3.759,0,0,1,3.043,1.29,5.583,5.583,0,0,1,1.085,3.692v.714h-6.8a3.568,3.568,0,0,0,.867,2.4,2.727,2.727,0,0,0,2.111.914,2.989,2.989,0,0,0,1.54-.371,3.87,3.87,0,0,0,1.1-.983l1.048.816A4.215,4.215,0,0,1,9.514,22.186Zm-.213-9a2.289,2.289,0,0,0-1.744.756,3.675,3.675,0,0,0-.872,2.12h5.028v-.13a3.269,3.269,0,0,0-.705-2.027A2.155,2.155,0,0,0,9.3,13.187Zm14.983,9a4.386,4.386,0,0,1-3.321-1.341,4.976,4.976,0,0,1-1.28-3.586v-.315a6.024,6.024,0,0,1,.571-2.667,4.451,4.451,0,0,1,1.6-1.837,4.012,4.012,0,0,1,2.222-.663,3.759,3.759,0,0,1,3.043,1.29A5.583,5.583,0,0,1,28.2,16.758v.714H21.4a3.568,3.568,0,0,0,.867,2.4,2.727,2.727,0,0,0,2.111.914,2.989,2.989,0,0,0,1.54-.371,3.87,3.87,0,0,0,1.1-.983l1.048.816A4.215,4.215,0,0,1,24.283,22.186Zm-.213-9a2.289,2.289,0,0,0-1.744.756,3.675,3.675,0,0,0-.872,2.12h5.028v-.13a3.269,3.269,0,0,0-.705-2.027A2.155,2.155,0,0,0,24.07,13.187ZM32.049,22H30.332V7.75h1.716ZM-35.087,41.337a1.264,1.264,0,0,0-.524-1.081,5.045,5.045,0,0,0-1.828-.663,8.641,8.641,0,0,1-2.069-.668A2.943,2.943,0,0,1-40.639,38a2.219,2.219,0,0,1-.366-1.28,2.6,2.6,0,0,1,1.044-2.087,4.076,4.076,0,0,1,2.667-.854,4.194,4.194,0,0,1,2.769.881,2.8,2.8,0,0,1,1.062,2.254h-1.726a1.549,1.549,0,0,0-.6-1.215,2.242,2.242,0,0,0-1.508-.51,2.346,2.346,0,0,0-1.466.408,1.285,1.285,0,0,0-.529,1.067,1.041,1.041,0,0,0,.492.937,6.05,6.05,0,0,0,1.777.6,9.257,9.257,0,0,1,2.083.687,3.038,3.038,0,0,1,1.183.96,2.361,2.361,0,0,1,.385,1.368,2.569,2.569,0,0,1-1.076,2.157,4.514,4.514,0,0,1-2.792.812,5.055,5.055,0,0,1-2.134-.427,3.47,3.47,0,0,1-1.452-1.192,2.873,2.873,0,0,1-.524-1.656h1.716a1.777,1.777,0,0,0,.691,1.368,2.681,2.681,0,0,0,1.7.506,2.768,2.768,0,0,0,1.563-.394A1.212,1.212,0,0,0-35.087,41.337ZM-29.27,44h-1.716V33.962h1.716Zm-1.855-12.7a1.024,1.024,0,0,1,.255-.705.958.958,0,0,1,.756-.288.973.973,0,0,1,.761.288,1.014,1.014,0,0,1,.26.705.98.98,0,0,1-.26.7.99.99,0,0,1-.761.278A.975.975,0,0,1-30.87,32,.991.991,0,0,1-31.125,31.3Zm6.216,2.663.046,1.113a3.707,3.707,0,0,1,2.978-1.3,2.87,2.87,0,0,1,2.867,1.614,3.8,3.8,0,0,1,1.3-1.169,3.85,3.85,0,0,1,1.9-.445q3.3,0,3.358,3.5V44h-1.716V37.376a2.3,2.3,0,0,0-.492-1.61,2.165,2.165,0,0,0-1.651-.533,2.276,2.276,0,0,0-1.586.571,2.315,2.315,0,0,0-.733,1.535V44h-1.726V37.422a1.915,1.915,0,0,0-2.143-2.189,2.3,2.3,0,0,0-2.31,1.438V44h-1.716V33.962Zm21.236,9.045a3.646,3.646,0,0,1-2.941,1.178,3.12,3.12,0,0,1-2.445-.932,4.036,4.036,0,0,1-.849-2.76V33.962h1.716v6.485q0,2.282,1.855,2.282A2.569,2.569,0,0,0-3.72,41.263v-7.3H-2V44H-3.637ZM2.468,44H.751V29.75H2.468Zm8.943,0a3.605,3.605,0,0,1-.241-1.058,3.829,3.829,0,0,1-2.857,1.243,3.543,3.543,0,0,1-2.435-.84,2.716,2.716,0,0,1-.951-2.129,2.838,2.838,0,0,1,1.192-2.435,5.621,5.621,0,0,1,3.354-.867h1.67v-.789a1.928,1.928,0,0,0-.538-1.433,2.163,2.163,0,0,0-1.586-.533,2.5,2.5,0,0,0-1.54.464,1.367,1.367,0,0,0-.622,1.123H5.13a2.369,2.369,0,0,1,.533-1.452,3.641,3.641,0,0,1,1.447-1.109,4.869,4.869,0,0,1,2.009-.408,3.968,3.968,0,0,1,2.718.867,3.129,3.129,0,0,1,1.021,2.389v4.62a5.649,5.649,0,0,0,.353,2.2V44ZM8.563,42.692a3.016,3.016,0,0,0,1.531-.417,2.525,2.525,0,0,0,1.048-1.085v-2.06H9.8q-3.154,0-3.154,1.846a1.562,1.562,0,0,0,.538,1.262A2.068,2.068,0,0,0,8.563,42.692ZM15.131,38.9a5.88,5.88,0,0,1,1.095-3.716,3.462,3.462,0,0,1,2.867-1.406,3.481,3.481,0,0,1,2.792,1.206V29.75H23.6V44H22.024l-.083-1.076a3.5,3.5,0,0,1-2.867,1.262,3.429,3.429,0,0,1-2.844-1.429,5.947,5.947,0,0,1-1.1-3.729Zm1.716.195a4.452,4.452,0,0,0,.705,2.672,2.279,2.279,0,0,0,1.948.965,2.5,2.5,0,0,0,2.384-1.466V36.652a2.523,2.523,0,0,0-2.366-1.419,2.29,2.29,0,0,0-1.967.974A4.9,4.9,0,0,0,16.848,39.092Zm8.962-.2a5.929,5.929,0,0,1,.58-2.653A4.326,4.326,0,0,1,28,34.417a4.394,4.394,0,0,1,2.361-.64A4.233,4.233,0,0,1,33.681,35.2a5.461,5.461,0,0,1,1.266,3.776v.121a5.981,5.981,0,0,1-.561,2.63,4.262,4.262,0,0,1-1.6,1.814,4.445,4.445,0,0,1-2.4.649,4.223,4.223,0,0,1-3.307-1.419,5.433,5.433,0,0,1-1.266-3.757Zm1.726.2a4.294,4.294,0,0,0,.775,2.681,2.625,2.625,0,0,0,4.152-.014,4.7,4.7,0,0,0,.77-2.871,4.287,4.287,0,0,0-.784-2.677,2.492,2.492,0,0,0-2.083-1.025,2.465,2.465,0,0,0-2.05,1.011A4.661,4.661,0,0,0,27.535,39.092ZM41.952,35.5a5.143,5.143,0,0,0-.844-.065,2.262,2.262,0,0,0-2.292,1.438V44H37.1V33.962h1.67l.028,1.16a2.672,2.672,0,0,1,2.394-1.345,1.753,1.753,0,0,1,.761.13Z" transform="translate(650.842 1677.715)"/>
    <path id="Trazado_200314" data-name="Trazado 200314" d="M-14.673-11.417h-4.113V0h-1.679V-11.417h-4.1V-12.8h9.9ZM-9.954.176A4.155,4.155,0,0,1-13.1-1.094a4.714,4.714,0,0,1-1.213-3.4v-.3a5.707,5.707,0,0,1,.541-2.527,4.217,4.217,0,0,1,1.512-1.74,3.8,3.8,0,0,1,2.1-.628A3.562,3.562,0,0,1-7.273-8.464a5.289,5.289,0,0,1,1.028,3.5v.677h-6.442a3.38,3.38,0,0,0,.822,2.272,2.583,2.583,0,0,0,2,.866A2.832,2.832,0,0,0-8.407-1.5a3.666,3.666,0,0,0,1.046-.932l.993.773A3.993,3.993,0,0,1-9.954.176Zm-.2-8.525a2.169,2.169,0,0,0-1.652.716,3.482,3.482,0,0,0-.826,2.008h4.764v-.123a3.1,3.1,0,0,0-.668-1.92A2.042,2.042,0,0,0-10.156-8.35Zm5.361,3.507a5.617,5.617,0,0,1,.549-2.514A4.1,4.1,0,0,1-2.716-9.079,4.163,4.163,0,0,1-.479-9.686,4.01,4.01,0,0,1,2.663-8.341a5.174,5.174,0,0,1,1.2,3.577v.114a5.666,5.666,0,0,1-.532,2.492A4.038,4.038,0,0,1,1.811-.439,4.211,4.211,0,0,1-.461.176,4,4,0,0,1-3.595-1.169a5.147,5.147,0,0,1-1.2-3.56Zm1.635.193a4.068,4.068,0,0,0,.734,2.54,2.349,2.349,0,0,0,1.964.958,2.335,2.335,0,0,0,1.969-.971,4.449,4.449,0,0,0,.729-2.72,4.061,4.061,0,0,0-.743-2.536A2.361,2.361,0,0,0-.479-8.35a2.335,2.335,0,0,0-1.942.958A4.416,4.416,0,0,0-3.16-4.649ZM10.5-8.051a4.873,4.873,0,0,0-.8-.062A2.143,2.143,0,0,0,7.528-6.75V0H5.9V-9.51H7.484l.026,1.1A2.532,2.532,0,0,1,9.778-9.686a1.661,1.661,0,0,1,.721.123ZM13.759,0H12.125V-9.51h1.635Zm.018-13.491h1.969L13.39-10.907l-1.31,0ZM22.311,0a3.416,3.416,0,0,1-.229-1A3.628,3.628,0,0,1,19.375.176a3.357,3.357,0,0,1-2.307-.8,2.573,2.573,0,0,1-.9-2.017A2.688,2.688,0,0,1,17.3-4.944a5.325,5.325,0,0,1,3.177-.822h1.582v-.747a1.826,1.826,0,0,0-.51-1.358,2.049,2.049,0,0,0-1.5-.505,2.371,2.371,0,0,0-1.459.439A1.3,1.3,0,0,0,18-6.873H16.361a2.244,2.244,0,0,1,.505-1.375A3.449,3.449,0,0,1,18.237-9.3a4.613,4.613,0,0,1,1.9-.387,3.759,3.759,0,0,1,2.575.822A2.964,2.964,0,0,1,23.682-6.6v4.377a5.351,5.351,0,0,0,.334,2.083V0Zm-2.7-1.239a2.858,2.858,0,0,0,1.45-.4,2.392,2.392,0,0,0,.993-1.028V-4.614H20.782q-2.988,0-2.988,1.749a1.48,1.48,0,0,0,.51,1.2A1.959,1.959,0,0,0,19.613-1.239Z" transform="translate(736.895 1674.715)"/>
    <path id="Trazado_200315" data-name="Trazado 200315" d="M-27.8-5.464h-3.173V0h-1.791V-13.508H-28.3a5.293,5.293,0,0,1,3.511,1.039,3.738,3.738,0,0,1,1.229,3.024,3.636,3.636,0,0,1-.682,2.2,4.07,4.07,0,0,1-1.9,1.4l3.173,5.733V0h-1.911Zm-3.173-1.457h2.737a3.087,3.087,0,0,0,2.111-.688,2.326,2.326,0,0,0,.784-1.84,2.449,2.449,0,0,0-.747-1.924,3.162,3.162,0,0,0-2.157-.678h-2.728ZM-17.163.186a4.386,4.386,0,0,1-3.321-1.341,4.976,4.976,0,0,1-1.28-3.586v-.315a6.024,6.024,0,0,1,.571-2.667A4.451,4.451,0,0,1-19.6-9.56a4.012,4.012,0,0,1,2.222-.663,3.759,3.759,0,0,1,3.043,1.29,5.583,5.583,0,0,1,1.085,3.692v.714h-6.8a3.568,3.568,0,0,0,.867,2.4,2.727,2.727,0,0,0,2.111.914,2.989,2.989,0,0,0,1.54-.371,3.869,3.869,0,0,0,1.1-.983l1.048.816A4.215,4.215,0,0,1-17.163.186Zm-.213-9a2.289,2.289,0,0,0-1.744.756,3.675,3.675,0,0,0-.872,2.12h5.028v-.13a3.269,3.269,0,0,0-.705-2.027A2.155,2.155,0,0,0-17.376-8.813ZM-5.065-.993A3.646,3.646,0,0,1-8.006.186a3.12,3.12,0,0,1-2.445-.932,4.036,4.036,0,0,1-.849-2.76v-6.531h1.716v6.485q0,2.282,1.855,2.282A2.569,2.569,0,0,0-5.112-2.737v-7.3H-3.4V0H-5.028Zm5.9-9.045L.891-8.776A3.658,3.658,0,0,1,3.9-10.224q3.182,0,3.21,3.59V0H5.39V-6.643a2.311,2.311,0,0,0-.5-1.6,1.989,1.989,0,0,0-1.517-.52,2.477,2.477,0,0,0-1.466.445A3.024,3.024,0,0,0,.928-7.153V0H-.789V-10.038ZM11.56,0H9.843V-10.038H11.56ZM9.7-12.7a1.024,1.024,0,0,1,.255-.705.958.958,0,0,1,.756-.288.973.973,0,0,1,.761.288,1.014,1.014,0,0,1,.26.705.98.98,0,0,1-.26.7.99.99,0,0,1-.761.278A.975.975,0,0,1,9.959-12,.991.991,0,0,1,9.7-12.7Zm4.147,7.589a5.929,5.929,0,0,1,.58-2.653,4.325,4.325,0,0,1,1.614-1.818,4.394,4.394,0,0,1,2.361-.64A4.233,4.233,0,0,1,21.723-8.8a5.461,5.461,0,0,1,1.266,3.776v.121a5.981,5.981,0,0,1-.561,2.63,4.262,4.262,0,0,1-1.6,1.814,4.445,4.445,0,0,1-2.4.649,4.223,4.223,0,0,1-3.307-1.419,5.433,5.433,0,0,1-1.266-3.757Zm1.726.2a4.294,4.294,0,0,0,.775,2.681,2.479,2.479,0,0,0,2.073,1.011A2.464,2.464,0,0,0,20.5-2.24a4.7,4.7,0,0,0,.77-2.871,4.287,4.287,0,0,0-.784-2.677,2.492,2.492,0,0,0-2.083-1.025A2.465,2.465,0,0,0,16.356-7.8,4.661,4.661,0,0,0,15.577-4.908Zm3.609-9.342h2.078l-2.486,2.728-1.382,0Zm7.58,4.212.056,1.262a3.658,3.658,0,0,1,3.006-1.447q3.182,0,3.21,3.59V0H31.32V-6.643a2.311,2.311,0,0,0-.5-1.6,1.989,1.989,0,0,0-1.517-.52,2.477,2.477,0,0,0-1.466.445,3.024,3.024,0,0,0-.983,1.169V0H25.142V-10.038ZM-26.352,19.337a1.264,1.264,0,0,0-.524-1.081,5.045,5.045,0,0,0-1.828-.663,8.641,8.641,0,0,1-2.069-.668A2.943,2.943,0,0,1-31.9,16a2.219,2.219,0,0,1-.366-1.28,2.6,2.6,0,0,1,1.044-2.087,4.076,4.076,0,0,1,2.667-.854,4.194,4.194,0,0,1,2.769.881,2.8,2.8,0,0,1,1.062,2.254h-1.726a1.549,1.549,0,0,0-.6-1.215,2.242,2.242,0,0,0-1.508-.51,2.346,2.346,0,0,0-1.466.408,1.285,1.285,0,0,0-.529,1.067,1.041,1.041,0,0,0,.492.937,6.05,6.05,0,0,0,1.777.6,9.257,9.257,0,0,1,2.083.687,3.038,3.038,0,0,1,1.183.96,2.361,2.361,0,0,1,.385,1.368,2.569,2.569,0,0,1-1.076,2.157,4.514,4.514,0,0,1-2.792.812,5.055,5.055,0,0,1-2.134-.427,3.47,3.47,0,0,1-1.452-1.192,2.873,2.873,0,0,1-.524-1.656H-30.9a1.777,1.777,0,0,0,.691,1.368,2.681,2.681,0,0,0,1.7.506,2.768,2.768,0,0,0,1.563-.394A1.212,1.212,0,0,0-26.352,19.337Zm3.5-2.449a5.929,5.929,0,0,1,.58-2.653,4.326,4.326,0,0,1,1.614-1.818,4.394,4.394,0,0,1,2.361-.64A4.233,4.233,0,0,1-14.983,13.2a5.461,5.461,0,0,1,1.266,3.776v.121a5.981,5.981,0,0,1-.561,2.63,4.262,4.262,0,0,1-1.6,1.814,4.445,4.445,0,0,1-2.4.649,4.223,4.223,0,0,1-3.307-1.419,5.433,5.433,0,0,1-1.266-3.757Zm1.726.2a4.294,4.294,0,0,0,.775,2.681,2.479,2.479,0,0,0,2.073,1.011A2.464,2.464,0,0,0-16.2,19.76a4.7,4.7,0,0,0,.77-2.871,4.287,4.287,0,0,0-.784-2.677A2.492,2.492,0,0,0-18.3,13.187,2.465,2.465,0,0,0-20.35,14.2,4.661,4.661,0,0,0-21.129,17.092Zm18.063,0a5.969,5.969,0,0,1-1.058,3.7,3.379,3.379,0,0,1-2.839,1.4A3.5,3.5,0,0,1-9.9,20.84L-9.987,22h-1.577V7.75h1.716v5.316a3.479,3.479,0,0,1,2.867-1.29A3.4,3.4,0,0,1-4.11,13.159a6.148,6.148,0,0,1,1.044,3.785ZM-4.782,16.9a4.638,4.638,0,0,0-.677-2.709,2.242,2.242,0,0,0-1.948-.956,2.52,2.52,0,0,0-2.44,1.577v4.342a2.59,2.59,0,0,0,2.458,1.577,2.23,2.23,0,0,0,1.92-.956A4.932,4.932,0,0,0-4.782,16.9Zm8.73-3.4a5.143,5.143,0,0,0-.844-.065A2.262,2.262,0,0,0,.812,14.875V22H-.9V11.962H.765l.028,1.16a2.672,2.672,0,0,1,2.394-1.345,1.753,1.753,0,0,1,.761.13Zm5.566,8.684a4.386,4.386,0,0,1-3.321-1.341,4.976,4.976,0,0,1-1.28-3.586v-.315a6.024,6.024,0,0,1,.571-2.667,4.451,4.451,0,0,1,1.6-1.837A4.012,4.012,0,0,1,9.3,11.776a3.759,3.759,0,0,1,3.043,1.29,5.583,5.583,0,0,1,1.085,3.692v.714h-6.8a3.568,3.568,0,0,0,.867,2.4,2.727,2.727,0,0,0,2.111.914,2.989,2.989,0,0,0,1.54-.371,3.87,3.87,0,0,0,1.1-.983l1.048.816A4.215,4.215,0,0,1,9.514,22.186Zm-.213-9a2.289,2.289,0,0,0-1.744.756,3.675,3.675,0,0,0-.872,2.12h5.028v-.13a3.269,3.269,0,0,0-.705-2.027A2.155,2.155,0,0,0,9.3,13.187Zm14.983,9a4.386,4.386,0,0,1-3.321-1.341,4.976,4.976,0,0,1-1.28-3.586v-.315a6.024,6.024,0,0,1,.571-2.667,4.451,4.451,0,0,1,1.6-1.837,4.012,4.012,0,0,1,2.222-.663,3.759,3.759,0,0,1,3.043,1.29A5.583,5.583,0,0,1,28.2,16.758v.714H21.4a3.568,3.568,0,0,0,.867,2.4,2.727,2.727,0,0,0,2.111.914,2.989,2.989,0,0,0,1.54-.371,3.87,3.87,0,0,0,1.1-.983l1.048.816A4.215,4.215,0,0,1,24.283,22.186Zm-.213-9a2.289,2.289,0,0,0-1.744.756,3.675,3.675,0,0,0-.872,2.12h5.028v-.13a3.269,3.269,0,0,0-.705-2.027A2.155,2.155,0,0,0,24.07,13.187ZM32.049,22H30.332V7.75h1.716Zm-47.18,20.785a2.472,2.472,0,0,0,1.6-.557,1.958,1.958,0,0,0,.761-1.392h1.624a3.112,3.112,0,0,1-.594,1.642A3.911,3.911,0,0,1-13.2,43.722a4.216,4.216,0,0,1-1.934.464,4.135,4.135,0,0,1-3.261-1.368A5.45,5.45,0,0,1-19.6,39.074v-.288a6.043,6.043,0,0,1,.538-2.607,4.1,4.1,0,0,1,1.545-1.772,4.388,4.388,0,0,1,2.38-.631,4.026,4.026,0,0,1,2.806,1.011,3.614,3.614,0,0,1,1.192,2.625h-1.624a2.365,2.365,0,0,0-.738-1.6,2.294,2.294,0,0,0-1.637-.626,2.4,2.4,0,0,0-2.027.942,4.422,4.422,0,0,0-.719,2.723v.325a4.334,4.334,0,0,0,.714,2.672A2.414,2.414,0,0,0-15.131,42.785ZM-3.015,44a3.605,3.605,0,0,1-.241-1.058,3.829,3.829,0,0,1-2.857,1.243,3.543,3.543,0,0,1-2.435-.84A2.716,2.716,0,0,1-9.5,41.217a2.838,2.838,0,0,1,1.192-2.435,5.621,5.621,0,0,1,3.354-.867h1.67v-.789a1.928,1.928,0,0,0-.538-1.433,2.163,2.163,0,0,0-1.586-.533,2.5,2.5,0,0,0-1.54.464,1.367,1.367,0,0,0-.622,1.123H-9.3a2.369,2.369,0,0,1,.533-1.452,3.641,3.641,0,0,1,1.447-1.109,4.869,4.869,0,0,1,2.009-.408,3.968,3.968,0,0,1,2.718.867,3.129,3.129,0,0,1,1.021,2.389v4.62a5.649,5.649,0,0,0,.353,2.2V44Zm-2.848-1.308a3.016,3.016,0,0,0,1.531-.417,2.525,2.525,0,0,0,1.048-1.085v-2.06H-4.629q-3.154,0-3.154,1.846a1.562,1.562,0,0,0,.538,1.262A2.068,2.068,0,0,0-5.863,42.692ZM6.967,41.337a1.263,1.263,0,0,0-.524-1.081,5.045,5.045,0,0,0-1.828-.663,8.641,8.641,0,0,1-2.069-.668A2.943,2.943,0,0,1,1.415,38a2.219,2.219,0,0,1-.366-1.28A2.6,2.6,0,0,1,2.092,34.63a4.076,4.076,0,0,1,2.667-.854,4.194,4.194,0,0,1,2.769.881,2.8,2.8,0,0,1,1.062,2.254H6.865a1.549,1.549,0,0,0-.6-1.215,2.242,2.242,0,0,0-1.508-.51,2.346,2.346,0,0,0-1.466.408,1.285,1.285,0,0,0-.529,1.067,1.041,1.041,0,0,0,.492.937,6.05,6.05,0,0,0,1.777.6,9.257,9.257,0,0,1,2.083.687,3.038,3.038,0,0,1,1.183.96,2.361,2.361,0,0,1,.385,1.368,2.569,2.569,0,0,1-1.076,2.157,4.514,4.514,0,0,1-2.792.812,5.055,5.055,0,0,1-2.134-.427,3.47,3.47,0,0,1-1.452-1.192,2.873,2.873,0,0,1-.524-1.656H2.421a1.777,1.777,0,0,0,.691,1.368,2.681,2.681,0,0,0,1.7.506,2.768,2.768,0,0,0,1.563-.394A1.212,1.212,0,0,0,6.967,41.337Zm3.5-2.449a5.929,5.929,0,0,1,.58-2.653,4.325,4.325,0,0,1,1.614-1.818,4.394,4.394,0,0,1,2.361-.64A4.233,4.233,0,0,1,18.337,35.2,5.461,5.461,0,0,1,19.6,38.972v.121a5.981,5.981,0,0,1-.561,2.63,4.262,4.262,0,0,1-1.6,1.814,4.445,4.445,0,0,1-2.4.649,4.223,4.223,0,0,1-3.307-1.419,5.433,5.433,0,0,1-1.266-3.757Zm1.726.2a4.294,4.294,0,0,0,.775,2.681,2.479,2.479,0,0,0,2.073,1.011,2.464,2.464,0,0,0,2.078-1.025,4.7,4.7,0,0,0,.77-2.871,4.287,4.287,0,0,0-.784-2.677,2.492,2.492,0,0,0-2.083-1.025A2.465,2.465,0,0,0,12.97,36.2,4.661,4.661,0,0,0,12.19,39.092Z" transform="translate(821.928 1677.715)"/>
    <path id="Trazado_200316" data-name="Trazado 200316" d="M-30.74-5.915h-5.546V-1.38h6.442V0h-8.13V-12.8h8.042v1.38h-6.354v4.122h5.546Zm8.279,3.393a1.2,1.2,0,0,0-.5-1.024,4.78,4.78,0,0,0-1.731-.628,8.186,8.186,0,0,1-1.96-.633,2.788,2.788,0,0,1-1.072-.879A2.1,2.1,0,0,1-28.068-6.9a2.467,2.467,0,0,1,.989-1.978,3.861,3.861,0,0,1,2.527-.809,3.974,3.974,0,0,1,2.624.835,2.652,2.652,0,0,1,1.006,2.136h-1.635a1.468,1.468,0,0,0-.567-1.151,2.124,2.124,0,0,0-1.428-.483,2.223,2.223,0,0,0-1.389.387,1.217,1.217,0,0,0-.5,1.011.986.986,0,0,0,.466.888,5.731,5.731,0,0,0,1.683.571,8.77,8.77,0,0,1,1.973.65,2.878,2.878,0,0,1,1.121.91,2.237,2.237,0,0,1,.365,1.3,2.434,2.434,0,0,1-1.02,2.043A4.277,4.277,0,0,1-24.5.176a4.789,4.789,0,0,1-2.021-.4A3.288,3.288,0,0,1-27.9-1.358a2.722,2.722,0,0,1-.5-1.569h1.626a1.683,1.683,0,0,0,.655,1.3,2.54,2.54,0,0,0,1.613.479,2.622,2.622,0,0,0,1.481-.374A1.148,1.148,0,0,0-22.46-2.522ZM-14.9-1.151a2.342,2.342,0,0,0,1.521-.527A1.855,1.855,0,0,0-12.661-3h1.538a2.949,2.949,0,0,1-.562,1.556A3.7,3.7,0,0,1-13.069-.264,3.994,3.994,0,0,1-14.9.176a3.918,3.918,0,0,1-3.089-1.3,5.163,5.163,0,0,1-1.147-3.546v-.272a5.725,5.725,0,0,1,.51-2.47,3.883,3.883,0,0,1,1.463-1.679,4.157,4.157,0,0,1,2.254-.6,3.814,3.814,0,0,1,2.659.958A3.424,3.424,0,0,1-11.123-6.24h-1.538a2.241,2.241,0,0,0-.7-1.516,2.174,2.174,0,0,0-1.551-.593,2.276,2.276,0,0,0-1.92.892,4.19,4.19,0,0,0-.681,2.58v.308a4.106,4.106,0,0,0,.677,2.531A2.287,2.287,0,0,0-14.9-1.151ZM-5.348.176a4.155,4.155,0,0,1-3.146-1.27,4.714,4.714,0,0,1-1.213-3.4v-.3a5.707,5.707,0,0,1,.541-2.527,4.217,4.217,0,0,1,1.512-1.74,3.8,3.8,0,0,1,2.1-.628A3.562,3.562,0,0,1-2.667-8.464a5.289,5.289,0,0,1,1.028,3.5v.677H-8.082A3.38,3.38,0,0,0-7.26-2.017a2.583,2.583,0,0,0,2,.866A2.832,2.832,0,0,0-3.8-1.5a3.666,3.666,0,0,0,1.046-.932l.993.773A3.993,3.993,0,0,1-5.348.176Zm-.2-8.525A2.169,2.169,0,0,0-7.2-7.633a3.482,3.482,0,0,0-.826,2.008h4.764v-.123a3.1,3.1,0,0,0-.668-1.92A2.042,2.042,0,0,0-5.55-8.35ZM1.78-9.51l.053,1.2A3.465,3.465,0,0,1,4.68-9.686q3.015,0,3.041,3.4V0H6.1V-6.293a2.189,2.189,0,0,0-.47-1.521,1.884,1.884,0,0,0-1.437-.492A2.347,2.347,0,0,0,2.8-7.884a2.865,2.865,0,0,0-.932,1.107V0H.242V-9.51ZM16.044,0a3.416,3.416,0,0,1-.229-1A3.628,3.628,0,0,1,13.109.176,3.357,3.357,0,0,1,10.8-.62a2.573,2.573,0,0,1-.9-2.017A2.688,2.688,0,0,1,11.03-4.944a5.325,5.325,0,0,1,3.177-.822H15.79v-.747a1.826,1.826,0,0,0-.51-1.358,2.049,2.049,0,0,0-1.5-.505,2.371,2.371,0,0,0-1.459.439,1.3,1.3,0,0,0-.589,1.063H10.094A2.244,2.244,0,0,1,10.6-8.249,3.449,3.449,0,0,1,11.971-9.3a4.613,4.613,0,0,1,1.9-.387,3.759,3.759,0,0,1,2.575.822A2.964,2.964,0,0,1,17.416-6.6v4.377A5.351,5.351,0,0,0,17.75-.141V0Zm-2.7-1.239a2.858,2.858,0,0,0,1.45-.4,2.392,2.392,0,0,0,.993-1.028V-4.614H14.515q-2.988,0-2.988,1.749a1.48,1.48,0,0,0,.51,1.2A1.959,1.959,0,0,0,13.346-1.239ZM24.561-8.051a4.873,4.873,0,0,0-.8-.062A2.143,2.143,0,0,0,21.59-6.75V0H19.964V-9.51h1.582l.026,1.1A2.532,2.532,0,0,1,23.84-9.686a1.661,1.661,0,0,1,.721.123ZM27.822,0H26.2V-9.51h1.626ZM26.064-12.032a.971.971,0,0,1,.242-.668.907.907,0,0,1,.716-.272.922.922,0,0,1,.721.272.96.96,0,0,1,.246.668.929.929,0,0,1-.246.659.938.938,0,0,1-.721.264.924.924,0,0,1-.716-.264A.938.938,0,0,1,26.064-12.032Zm3.929,7.189a5.617,5.617,0,0,1,.549-2.514,4.1,4.1,0,0,1,1.529-1.723,4.163,4.163,0,0,1,2.237-.606A4.01,4.01,0,0,1,37.45-8.341a5.174,5.174,0,0,1,1.2,3.577v.114a5.666,5.666,0,0,1-.532,2.492A4.038,4.038,0,0,1,36.6-.439a4.211,4.211,0,0,1-2.272.615,4,4,0,0,1-3.133-1.345,5.147,5.147,0,0,1-1.2-3.56Zm1.635.193a4.068,4.068,0,0,0,.734,2.54,2.349,2.349,0,0,0,1.964.958,2.335,2.335,0,0,0,1.969-.971,4.449,4.449,0,0,0,.729-2.72,4.061,4.061,0,0,0-.743-2.536,2.361,2.361,0,0,0-1.973-.971,2.335,2.335,0,0,0-1.942.958A4.416,4.416,0,0,0,31.627-4.649Z" transform="translate(915.888 1674.715)"/>
    <path id="Trazado_200317" data-name="Trazado 200317" d="M-39.371,0l2.224-12.8,3.322.009a4.613,4.613,0,0,1,2.694.782,4.314,4.314,0,0,1,1.622,2.158,6.707,6.707,0,0,1,.29,3.081l-.088.642a7.236,7.236,0,0,1-2.171,4.46A6.313,6.313,0,0,1-35.96,0Zm3.63-11.417-1.74,10.028,1.626.009A4.569,4.569,0,0,0-32.7-2.54a5.507,5.507,0,0,0,1.683-3.182A10.352,10.352,0,0,0-30.8-8.473a3.35,3.35,0,0,0-.905-2.131,2.931,2.931,0,0,0-2.074-.8ZM-23.963.176a3.429,3.429,0,0,1-2.777-1.31,4.507,4.507,0,0,1-.844-3.261l.044-.378A6.327,6.327,0,0,1-26.7-7.356a4.882,4.882,0,0,1,1.683-1.762,3.927,3.927,0,0,1,2.145-.567,3.024,3.024,0,0,1,2.3.976,4.012,4.012,0,0,1,.914,2.549,7.448,7.448,0,0,1-.035,1.143l-.1.729H-26a3.212,3.212,0,0,0,.426,2.2,2.019,2.019,0,0,0,1.745.94,3.383,3.383,0,0,0,2.6-1.266l.914.773A4.183,4.183,0,0,1-21.858-.294,4.371,4.371,0,0,1-23.963.176Zm1.011-8.534a2.324,2.324,0,0,0-1.718.668,4.748,4.748,0,0,0-1.165,2.065l4.623.009.035-.141A2.6,2.6,0,0,0-21.533-7.6,1.674,1.674,0,0,0-22.953-8.358Zm12.841,3.647a7.41,7.41,0,0,1-.8,2.628A4.48,4.48,0,0,1-12.423-.352a3.44,3.44,0,0,1-1.969.536A2.936,2.936,0,0,1-16.95-1.107L-17.275,0h-1.468L-16.4-13.5h1.591l-.958,5.045a3.5,3.5,0,0,1,2.777-1.23A2.653,2.653,0,0,1-10.85-8.675a4.448,4.448,0,0,1,.809,2.689,8.283,8.283,0,0,1-.053,1.09Zm-1.512-.917a3.385,3.385,0,0,0-.431-1.962,1.648,1.648,0,0,0-1.4-.715,2.9,2.9,0,0,0-2.514,1.492l-.712,4.134A2.024,2.024,0,0,0-14.7-1.2a2.311,2.311,0,0,0,1.63-.553A3.613,3.613,0,0,0-12.01-3.394,7.4,7.4,0,0,0-11.624-5.628ZM-2.94-8.06l-.747-.079A2.722,2.722,0,0,0-6.1-6.759L-7.264,0H-8.855L-7.2-9.51l1.538-.009L-5.9-8.411A2.843,2.843,0,0,1-3.52-9.7a2.918,2.918,0,0,1,.756.132ZM-1.138,0H-2.72l1.652-9.51H.514ZM.171-12.981a.87.87,0,0,1,.672.242.9.9,0,0,1,.268.681.955.955,0,0,1-.268.677.962.962,0,0,1-.672.281.876.876,0,0,1-.677-.237.86.86,0,0,1-.255-.668A1,1,0,0,1-.5-12.691.93.93,0,0,1,.171-12.981ZM5.577.176A3.429,3.429,0,0,1,2.8-1.134a4.507,4.507,0,0,1-.844-3.261L2-4.772a6.327,6.327,0,0,1,.839-2.584A4.882,4.882,0,0,1,4.522-9.119a3.927,3.927,0,0,1,2.145-.567,3.024,3.024,0,0,1,2.3.976,4.012,4.012,0,0,1,.914,2.549,7.448,7.448,0,0,1-.035,1.143l-.1.729H3.538a3.212,3.212,0,0,0,.426,2.2,2.019,2.019,0,0,0,1.745.94,3.383,3.383,0,0,0,2.6-1.266l.914.773A4.183,4.183,0,0,1,7.682-.294,4.371,4.371,0,0,1,5.577.176ZM6.587-8.358a2.324,2.324,0,0,0-1.718.668A4.748,4.748,0,0,0,3.7-5.625l4.623.009.035-.141A2.6,2.6,0,0,0,8.007-7.6,1.674,1.674,0,0,0,6.587-8.358ZM11.325,0l1.433-8.253H11.3l.22-1.257,1.459-.009L13.1-10.4a3.825,3.825,0,0,1,1.292-2.487,3.8,3.8,0,0,1,2.549-.817,5.322,5.322,0,0,1,1.208.171q.584.154,1.2.365l-.387,1.389a4.979,4.979,0,0,0-1.969-.466,2.064,2.064,0,0,0-2.312,1.969l-.114.765h1.89l-.22,1.257H14.357L12.924,0Zm6.592,0h-1.6l1.652-9.51h1.6Zm5.792-9.519-.229,1.2A3.749,3.749,0,0,1,26.4-9.686a2.359,2.359,0,0,1,1.986.932,3.619,3.619,0,0,1,.475,2.522L27.822,0H26.231l1.046-6.251a3.332,3.332,0,0,0,.009-.8,1.314,1.314,0,0,0-1.45-1.255,2.994,2.994,0,0,0-2.514,1.528L22.144,0H20.553l1.652-9.51ZM30.74-4.772a7.75,7.75,0,0,1,.839-2.7,4.39,4.39,0,0,1,1.529-1.7,3.545,3.545,0,0,1,1.973-.523,2.926,2.926,0,0,1,2.5,1.248l.316-1.063h1.459L37.771-.2a4.627,4.627,0,0,1-1.477,2.914A4.159,4.159,0,0,1,33.28,3.753,4.281,4.281,0,0,1,31.43,3.3a3.518,3.518,0,0,1-1.393-1.2l.905-.976a2.721,2.721,0,0,0,2.276,1.31,2.728,2.728,0,0,0,1.92-.633,3.265,3.265,0,0,0,1.042-1.9l.176-.844A3.6,3.6,0,0,1,33.64.176,2.8,2.8,0,0,1,32.1-.3a2.913,2.913,0,0,1-1.015-1.31,5.354,5.354,0,0,1-.4-1.912A9.825,9.825,0,0,1,30.74-4.772Zm1.538.9a3.345,3.345,0,0,0,.435,1.944,1.644,1.644,0,0,0,1.393.724,2.881,2.881,0,0,0,2.452-1.4l.747-4.363A2,2,0,0,0,35.4-8.314a2.468,2.468,0,0,0-2.123,1.053A5.488,5.488,0,0,0,32.3-4.32Z" transform="translate(1017.313 1674.715)"/>
    <path id="Trazado_200318" data-name="Trazado 200318" d="M-39.195-5.651h-5.37V0h-1.687V-12.8h7.928v1.38h-6.24v4.386h5.37ZM-34.792,0h-1.626V-9.51h1.626Zm-1.758-12.032a.971.971,0,0,1,.242-.668.907.907,0,0,1,.716-.272.922.922,0,0,1,.721.272.96.96,0,0,1,.246.668.929.929,0,0,1-.246.659.938.938,0,0,1-.721.264.924.924,0,0,1-.716-.264A.938.938,0,0,1-36.549-12.032Zm5.9,2.522.053,1.2a3.465,3.465,0,0,1,2.848-1.371q3.015,0,3.041,3.4V0h-1.626V-6.293a2.189,2.189,0,0,0-.47-1.521,1.884,1.884,0,0,0-1.437-.492,2.347,2.347,0,0,0-1.389.422,2.865,2.865,0,0,0-.932,1.107V0H-32.19V-9.51ZM-16.387,0a3.416,3.416,0,0,1-.229-1A3.628,3.628,0,0,1-19.323.176a3.357,3.357,0,0,1-2.307-.8,2.573,2.573,0,0,1-.9-2.017A2.688,2.688,0,0,1-21.4-4.944a5.325,5.325,0,0,1,3.177-.822h1.582v-.747a1.826,1.826,0,0,0-.51-1.358,2.049,2.049,0,0,0-1.5-.505,2.371,2.371,0,0,0-1.459.439A1.3,1.3,0,0,0-20.7-6.873h-1.635a2.244,2.244,0,0,1,.505-1.375A3.449,3.449,0,0,1-20.461-9.3a4.613,4.613,0,0,1,1.9-.387,3.759,3.759,0,0,1,2.575.822A2.964,2.964,0,0,1-15.016-6.6v4.377a5.351,5.351,0,0,0,.334,2.083V0Zm-2.7-1.239a2.858,2.858,0,0,0,1.45-.4,2.392,2.392,0,0,0,.993-1.028V-4.614h-1.274q-2.988,0-2.988,1.749a1.48,1.48,0,0,0,.51,1.2A1.959,1.959,0,0,0-19.085-1.239ZM-10.7,0h-1.626V-13.5H-10.7Zm4.368,0H-7.958V-9.51h1.626ZM-8.09-12.032a.971.971,0,0,1,.242-.668.907.907,0,0,1,.716-.272.922.922,0,0,1,.721.272.96.96,0,0,1,.246.668.929.929,0,0,1-.246.659.938.938,0,0,1-.721.264.924.924,0,0,1-.716-.264A.938.938,0,0,1-8.09-12.032ZM-2.2-1.327H3.362V0h-7.55V-1.2l5.247-6.97H-4.109V-9.51H3.1v1.151ZM11.061,0a3.416,3.416,0,0,1-.229-1A3.628,3.628,0,0,1,8.125.176a3.357,3.357,0,0,1-2.307-.8,2.573,2.573,0,0,1-.9-2.017A2.688,2.688,0,0,1,6.047-4.944a5.325,5.325,0,0,1,3.177-.822h1.582v-.747a1.826,1.826,0,0,0-.51-1.358,2.049,2.049,0,0,0-1.5-.505,2.371,2.371,0,0,0-1.459.439,1.3,1.3,0,0,0-.589,1.063H5.111a2.244,2.244,0,0,1,.505-1.375A3.449,3.449,0,0,1,6.987-9.3a4.613,4.613,0,0,1,1.9-.387,3.759,3.759,0,0,1,2.575.822A2.964,2.964,0,0,1,12.432-6.6v4.377a5.351,5.351,0,0,0,.334,2.083V0Zm-2.7-1.239a2.858,2.858,0,0,0,1.45-.4,2.392,2.392,0,0,0,.993-1.028V-4.614H9.532q-2.988,0-2.988,1.749a1.48,1.48,0,0,0,.51,1.2A1.959,1.959,0,0,0,8.363-1.239ZM18.8-1.151a2.342,2.342,0,0,0,1.521-.527A1.855,1.855,0,0,0,21.037-3h1.538a2.949,2.949,0,0,1-.562,1.556A3.7,3.7,0,0,1,20.628-.264,3.994,3.994,0,0,1,18.8.176a3.918,3.918,0,0,1-3.089-1.3,5.163,5.163,0,0,1-1.147-3.546v-.272a5.725,5.725,0,0,1,.51-2.47,3.883,3.883,0,0,1,1.463-1.679,4.157,4.157,0,0,1,2.254-.6,3.814,3.814,0,0,1,2.659.958A3.424,3.424,0,0,1,22.575-6.24H21.037a2.241,2.241,0,0,0-.7-1.516,2.174,2.174,0,0,0-1.551-.593,2.276,2.276,0,0,0-1.92.892,4.19,4.19,0,0,0-.681,2.58v.308a4.106,4.106,0,0,0,.677,2.531A2.287,2.287,0,0,0,18.8-1.151ZM26.169,0H24.543V-9.51h1.626ZM24.412-12.032a.971.971,0,0,1,.242-.668.907.907,0,0,1,.716-.272.922.922,0,0,1,.721.272.96.96,0,0,1,.246.668.929.929,0,0,1-.246.659.938.938,0,0,1-.721.264.924.924,0,0,1-.716-.264A.938.938,0,0,1,24.412-12.032ZM28.34-4.843a5.617,5.617,0,0,1,.549-2.514,4.1,4.1,0,0,1,1.529-1.723,4.163,4.163,0,0,1,2.237-.606A4.01,4.01,0,0,1,35.8-8.341,5.174,5.174,0,0,1,37-4.764v.114a5.666,5.666,0,0,1-.532,2.492A4.038,4.038,0,0,1,34.945-.439a4.211,4.211,0,0,1-2.272.615A4,4,0,0,1,29.54-1.169a5.147,5.147,0,0,1-1.2-3.56Zm1.635.193a4.068,4.068,0,0,0,.734,2.54,2.349,2.349,0,0,0,1.964.958,2.335,2.335,0,0,0,1.969-.971,4.449,4.449,0,0,0,.729-2.72,4.061,4.061,0,0,0-.743-2.536,2.361,2.361,0,0,0-1.973-.971,2.335,2.335,0,0,0-1.942.958A4.416,4.416,0,0,0,29.975-4.649ZM33.394-13.5h1.969l-2.355,2.584-1.31,0Zm7.181,3.99.053,1.2a3.465,3.465,0,0,1,2.848-1.371q3.015,0,3.041,3.4V0H44.89V-6.293a2.189,2.189,0,0,0-.47-1.521,1.884,1.884,0,0,0-1.437-.492,2.347,2.347,0,0,0-1.389.422,2.865,2.865,0,0,0-.932,1.107V0H39.037V-9.51Z" transform="translate(1141.851 1674.715)"/>
    <path id="Trazado_200319" data-name="Trazado 200319" d="M212.294,0H0" transform="translate(684.923 1611.058)" fill="none" stroke="#d100c9" stroke-linecap="round" stroke-width="3"/>
    <path id="Trazado_198972" data-name="Trazado 198972" d="M249.4,181.055l19.995,19.994L249.4,221.044" transform="translate(632.108 1410.014)" fill="none" stroke="#d100c9" stroke-linecap="round" stroke-linejoin="round" stroke-width="3"/>
    <path id="Trazado_200320" data-name="Trazado 200320" d="M7.194,0A7.194,7.194,0,1,1,0,7.194,7.194,7.194,0,0,1,7.194,0Z" transform="translate(589.99 1783.919)" fill="none" stroke="#d100c9" stroke-linecap="round" stroke-width="3"/>
    <path id="Trazado_200321" data-name="Trazado 200321" d="M392.612,0H0" transform="translate(604.377 1791.104)" fill="none" stroke="#d100c9" stroke-linecap="round" stroke-width="3"/>
    <path id="Trazado_198973" data-name="Trazado 198973" d="M285.9,249.884,305.9,269.879,285.9,289.873" transform="translate(691.093 1521.234)" fill="none" stroke="#d100c9" stroke-linecap="round" stroke-linejoin="round" stroke-width="3"/>
    <path id="Trazado_200322" data-name="Trazado 200322" d="M7.194,0A7.194,7.194,0,1,1,0,7.194,7.194,7.194,0,0,1,7.194,0Z" transform="translate(901.501 1631.058)" fill="none" stroke="#d100c9" stroke-linecap="round" stroke-width="3"/>
    <path id="Trazado_200323" data-name="Trazado 200323" d="M96.205,0H0" transform="translate(915.889 1638.248)" fill="none" stroke="#d100c9" stroke-linecap="round" stroke-width="3"/>
    <path id="Trazado_198974" data-name="Trazado 198974" d="M293.545,191.448l19.995,19.994-19.995,19.994" transform="translate(703.444 1426.809)" fill="none" stroke="#d100c9" stroke-linecap="round" stroke-linejoin="round" stroke-width="3"/>
    <path id="Trazado_198975" data-name="Trazado 198975" d="M37.8,221.682v37.248h91.5v14.026l30.723-31.391L129.972,206.3v15.378Z" transform="translate(290.196 1450.813)" fill="#4747ff"/>
    <path id="Trazado_200324" data-name="Trazado 200324" d="M0,0H452.381V12.175H0Z" transform="translate(416.34 1758.943)" fill="#4747ff"/>
    <path id="Trazado_198976" data-name="Trazado 198976" d="M382.4,224.712v37.248h12.86v14.026l30.723-31.391-30.055-35.26v15.378Z" transform="translate(847.02 1455.71)" fill="#4747ff"/>
  </g>
</svg>
