<svg xmlns="http://www.w3.org/2000/svg" xmlns:xlink="http://www.w3.org/1999/xlink" width="490" height="343.466" viewBox="0 0 490 343.466">
  <defs>
    <linearGradient id="linear-gradient" y1="0.5" x2="1" y2="0.5" gradientUnits="objectBoundingBox">
      <stop offset="0" stop-color="#ba7eb5"/>
      <stop offset="0.249" stop-color="#b79dca"/>
      <stop offset="0.566" stop-color="#b5c0e2"/>
      <stop offset="0.828" stop-color="#b4d5f0"/>
      <stop offset="1" stop-color="#b4ddf6"/>
    </linearGradient>
    <linearGradient id="linear-gradient-3" y1="0.5" x2="1" y2="0.5" gradientUnits="objectBoundingBox">
      <stop offset="0" stop-color="#ba7eb5"/>
      <stop offset="0.054" stop-color="#b98abd"/>
      <stop offset="0.211" stop-color="#b7a8d1"/>
      <stop offset="0.377" stop-color="#b5bfe1"/>
      <stop offset="0.554" stop-color="#b4d0ed"/>
      <stop offset="0.75" stop-color="#b4d9f3"/>
      <stop offset="1" stop-color="#b4ddf6"/>
    </linearGradient>
    <linearGradient id="linear-gradient-7" y1="0.5" x2="1" y2="0.5" gradientUnits="objectBoundingBox">
      <stop offset="0" stop-color="#ba7eb5"/>
      <stop offset="0.171" stop-color="#b985b9"/>
      <stop offset="0.426" stop-color="#b899c7"/>
      <stop offset="0.731" stop-color="#b6bade"/>
      <stop offset="1" stop-color="#b4ddf6"/>
    </linearGradient>
    <linearGradient id="linear-gradient-11" x1="0" y1="0.5" y2="0.5" xlink:href="#linear-gradient"/>
  </defs>
  <g id="Grupo_137307" data-name="Grupo 137307" transform="translate(-840 -1117)">
    <path id="Trazado_200187" data-name="Trazado 200187" d="M0,0H476V330H0Z" transform="translate(854 1130.466)" fill="#4747ff"/>
    <path id="Trazado_200188" data-name="Trazado 200188" d="M0,0H482V335H0Z" transform="translate(840 1117)" fill="#dbf6ff"/>
    <g id="Grupo_136192" data-name="Grupo 136192" transform="translate(784.498 746.247)">
      <g id="Grupo_136191" data-name="Grupo 136191" transform="translate(74.503 386.753)">
        <path id="Trazado_197978" data-name="Trazado 197978" d="M1229.726,860.249a101.364,101.364,0,0,0-3.481-19.782,75.525,75.525,0,0,0-2.493-7.144,197.113,197.113,0,0,1,4.782,28.491q.582-.584,1.221-1.134C1229.744,860.536,1229.739,860.393,1229.726,860.249Z" transform="translate(-965.287 -732.889)" fill="none"/>
        <path id="Trazado_197979" data-name="Trazado 197979" d="M1199.182,1074.956l-.038.012h0l-.008,0c-1.21.375-2.558.761-4.027,1.137a5.069,5.069,0,0,1,2.638,1.736l1.575.508C1199.258,1077.214,1199.2,1076.081,1199.182,1074.956Z" transform="translate(-943.086 -920.18)" fill="none"/>
        <path id="Trazado_197980" data-name="Trazado 197980" d="M910.03,1036.548v-13.821a105.288,105.288,0,0,1-2.2,11.056c.044,1.038.055,2.088.056,3.146C908.638,1036.78,909.363,1036.648,910.03,1036.548Z" transform="translate(-720.413 -879.697)" fill="none"/>
        <path id="Trazado_197981" data-name="Trazado 197981" d="M1667.1,1311.481a24.448,24.448,0,0,1,14.313,22.249v10.654a24.385,24.385,0,0,1-8.209,18.271l5.9,2.1a36.8,36.8,0,0,0-23.1-65.468h-.652c-5.989,1.857-12.128,3.186-18.174,4.79h10.284A29.655,29.655,0,0,1,1667.1,1311.481Z" transform="translate(-1285.726 -1094.056)" fill="none"/>
        <path id="Trazado_197982" data-name="Trazado 197982" d="M1220.528,1608.541a11.056,11.056,0,0,1-1.131,4.093h112.782c.18,0,.358-.011.538-.014l-1.451-4.08Z" transform="translate(-961.911 -1333.762)" fill="none"/>
        <path id="Trazado_197983" data-name="Trazado 197983" d="M297.049,546.584c13.427,6.523,17.789,22.615,32.929,25.693a21.875,21.875,0,0,1,14.154,8.863c15.786-5.1,29.8-12.939,49.144-20a89.167,89.167,0,0,1,13.052-3.826c0-1.057-.012-2.108-.056-3.146a6.612,6.612,0,0,1-1.027,2.359s-4.72-.5-6.707-2.484c0,0,1.271-6.335,3.565-17.433-2.454-4.057-6.142-6.986-11.579-9.415-21.132-9.44-14.3-34.566-29.813-48.528-5.87-5.282-9.311-1.6-16.024-2.868-8.387-1.59-13.845-11.074-18.334-17.7-9.1-13.444-17.448-27.417-29.168-38.895-5.7-5.587-17.456-17.46-27.077-14.892-9.587,2.56-9.861,14.492-7.677,21.54,2.065,6.664,5.657,12.766,7.734,19.424,3.438,11.019.279,16.687-4.5,26.531-3.554,7.322-6.9,16.255-3.526,24.3,3,7.161,14.475,11.7,15.407,19.144.5,3.96-3.479,10.476-4.126,14.594a22.853,22.853,0,0,0,1.044,11.323c4.008,2.891,8.523,5.747,12.513,5.683C291.221,546.782,291.97,544.117,297.049,546.584Z" transform="translate(-218.858 -400.086)" fill="url(#linear-gradient)"/>
        <path id="Trazado_197984" data-name="Trazado 197984" d="M1222.176,534.567c-.045.244-.416.175-.42-.057-.091-6.677.372-13.291-.165-19.967q-.64.549-1.221,1.134a114.268,114.268,0,0,1-.1,23.24,59.152,59.152,0,0,1-7.054,2.612c.019,1.125.075,2.258.14,3.4l.847.273c18.821-1.753,28.6,5.95,28.6,5.95s19.123,4.641,35.919,9.171a21.616,21.616,0,0,1,10.851-5.243c15.14-3.078,19.5-19.169,32.929-25.693,5.079-2.468,5.829.2,10.071.267,3.991.065,8.505-2.792,12.513-5.683a22.854,22.854,0,0,0,1.044-11.323c-.647-4.118-4.622-10.634-4.126-14.594.932-7.448,12.407-11.983,15.407-19.144,3.369-8.044.028-16.976-3.526-24.3-4.779-9.844-7.937-15.512-4.5-26.531,2.077-6.658,5.669-12.76,7.734-19.424,2.184-7.048,1.911-18.981-7.677-21.54-9.621-2.569-21.373,9.3-27.077,14.892-11.72,11.478-20.064,25.451-29.168,38.895-4.489,6.628-9.946,16.113-18.334,17.7-6.713,1.273-10.154-2.413-16.024,2.869-15.516,13.962-8.681,39.088-29.812,48.528a32.442,32.442,0,0,0-6.153,3.52c.107,1.7.186,3.41.208,5.123A82.182,82.182,0,0,1,1222.176,534.567Z" transform="translate(-957.122 -386.753)" fill="url(#linear-gradient)"/>
        <path id="Trazado_197985" data-name="Trazado 197985" d="M388.337,1295.678H367.822a35.755,35.755,0,0,0-8.152.943,83.338,83.338,0,0,0,12.938,4.657h13.755A37.058,37.058,0,0,1,388.337,1295.678Z" transform="translate(-295.536 -1091.261)" fill="#7baede"/>
        <path id="Trazado_197986" data-name="Trazado 197986" d="M168.077,975.554a37.329,37.329,0,0,1,11.886-14.417h-.011a19.885,19.885,0,0,1,7.9-3.915c.815-.264,1.647-.51,2.517-.712,3.239-.753,6.352-1.647,9.406-2.633a21.874,21.874,0,0,0-14.154-8.863c-15.14-3.078-19.5-19.17-32.929-25.693-5.079-2.468-5.829.2-10.071.267-3.991.065-8.505-2.792-12.513-5.682-1.316-.949-2.578-1.9-3.748-2.756-9.6-7.012-18.948-14.44-29.4-19.933-5.086-2.673-15.682-8.4-20.319-5.64-4.621,2.752-.856,10.022,2.7,14.022,3.366,3.782,7.418,7.033,10.788,10.81,5.579,6.251,5.642,10.083,6.154,16.651.381,4.885,1.413,10.719,5.975,15.175,4.062,3.966,12.089,5.28,15.067,9.679,1.583,2.339,1.46,6.788,2.445,9.366,1.741,4.559,5.027,7.864,9.247,11.106a50.431,50.431,0,0,0,7.315,4.656,37.354,37.354,0,0,1,10.447-1.485Z" transform="translate(-74.503 -772.821)" fill="#7baede"/>
        <path id="Trazado_197987" data-name="Trazado 197987" d="M1624.307,868.373c-4.637-2.762-15.233,2.966-20.319,5.64-10.448,5.492-19.793,12.92-29.4,19.933-1.17.854-2.432,1.807-3.748,2.756-4.008,2.891-8.522,5.747-12.513,5.683-4.242-.069-4.992-2.735-10.071-.267-13.427,6.523-17.789,22.614-32.929,25.693a21.617,21.617,0,0,0-10.851,5.243c10.661,2.876,20.385,5.706,23.684,7.277,8.5,4.045,8.953,8.056,5.295,14.5-.947,1.668-6.621,7.28-14.5,14.676h15.365c6.046-1.6,12.185-2.933,18.174-4.79h-7.378v-1.729h8.03q1.964,0,3.88.2a55.692,55.692,0,0,0,14.9-8c4.219-3.242,7.506-6.546,9.247-11.106.984-2.578.861-7.027,2.444-9.366,2.978-4.4,11.005-5.713,15.067-9.679,4.563-4.456,5.594-10.29,5.975-15.175.512-6.568.575-10.4,6.154-16.651,3.371-3.777,7.422-7.027,10.788-10.81C1625.163,878.4,1628.928,871.126,1624.307,868.373Z" transform="translate(-1182.879 -759.488)" fill="#7baede"/>
        <path id="Trazado_197988" data-name="Trazado 197988" d="M556.514,819.717v1.729h8.03a36.8,36.8,0,0,1,23.1,65.468l-5.9-2.1a24.386,24.386,0,0,0,8.209-18.271V855.894a24.448,24.448,0,0,0-14.313-22.249A29.655,29.655,0,0,0,556,826.236H530.352c7.881-7.4,13.555-13.008,14.5-14.676,3.659-6.443,3.2-10.453-5.295-14.5-3.3-1.571-13.022-4.4-23.684-7.277-16.8-4.53-35.919-9.171-35.919-9.171s-9.777-7.7-28.6-5.95l-.847-.273-1.575-.508a5.068,5.068,0,0,0-2.638-1.736c1.469-.377,2.817-.762,4.027-1.137l.007,0h0l.038-.012a59.139,59.139,0,0,0,7.054-2.612,114.263,114.263,0,0,0,.1-23.24,197.127,197.127,0,0,0-4.783-28.491,75.527,75.527,0,0,1,2.493,7.144,101.36,101.36,0,0,1,3.481,19.782c.013.144.018.287.029.431.537,6.675.074,13.289.166,19.967,0,.232.374.3.419.057a82.172,82.172,0,0,0,.907-15.926c-.023-1.713-.1-3.42-.208-5.123a93.666,93.666,0,0,0-1.342-11.15,80.917,80.917,0,0,0-8.376-24.11c-1.886-5.64-10.906-27.119-38.346-24.742-13.866,1.2-21.2,5.617-25.075,10.19a17.311,17.311,0,0,0-1.594,1.988,27.105,27.105,0,0,0-5.78,9.645,28.882,28.882,0,0,0-1.383,10.806c.157,3.16.667,7.236,2.7,9.784.118.148.368.022.365-.151a34.456,34.456,0,0,0-.723-4.5,34.837,34.837,0,0,1-.373-5.131,29.221,29.221,0,0,1,1.134-8,50.315,50.315,0,0,0,.674,13.655c.54.092,1.1.174,1.676.251-.022.187-.046.378-.07.569a1.552,1.552,0,0,0-.64,1.291.851.851,0,0,0,.378.648c-.376,2.611-.891,5.552-1.592,8.888-1.611,7.659-3,14.328-4.136,19.831-2.294,11.1-3.565,17.433-3.565,17.433,1.987,1.987,6.707,2.484,6.707,2.484a6.611,6.611,0,0,0,1.027-2.359,105.279,105.279,0,0,0,2.2-11.056v13.821c-.667.1-1.392.232-2.147.381a89.162,89.162,0,0,0-13.052,3.826c-19.347,7.057-33.358,14.9-49.144,20-3.054.986-6.167,1.88-9.406,2.633-.87.2-1.7.448-2.517.712a19.887,19.887,0,0,0-7.9,3.915h.011a37.329,37.329,0,0,0-11.886,14.417H266.561a37.7,37.7,0,0,0-14.129,2.76c-.725.3-1.442.6-2.145.942a37.854,37.854,0,0,0-17.558,17.559c-.339.7-.647,1.419-.943,2.145a37.605,37.605,0,0,0,.191,28.738c.238.561.488,1.117.752,1.662a37.319,37.319,0,0,0,2.649,4.592h2.039a35.749,35.749,0,0,1-3.171-5.323q-.379-.783-.718-1.588a35.916,35.916,0,0,1-.181-27.447c.281-.693.576-1.379.9-2.049a36.176,36.176,0,0,1,16.772-16.773c.671-.323,1.357-.618,2.049-.9a36.077,36.077,0,0,1,13.494-2.636h20.515a37.053,37.053,0,0,0-1.974,5.6H266.367a29.683,29.683,0,0,0-11.209,2.189c-.575.234-1.145.479-1.7.747A30.044,30.044,0,0,0,239.526,843.1c-.268.557-.513,1.126-.747,1.7a29.676,29.676,0,0,0-2.189,11.209h0a29.684,29.684,0,0,0,2.34,11.591q.282.668.6,1.319a29.684,29.684,0,0,0,1.937,3.406A24.456,24.456,0,0,0,265.219,891H432.4l.175.09c.308.161.611.314.9.451l.087.039c.278.128.545.24.806.343l.168.066q.4.152.773.254c.05.014.1.025.148.038a5.3,5.3,0,0,0,.717.141h0c.274.03.541.047.805.054.172.005.341,0,.51-.005.08,0,.161,0,.24-.006.216-.011.43-.033.642-.059l.07-.008a9.652,9.652,0,0,0,2.762-.81l3.959,3.507H328.754v1.729H448.275a3.3,3.3,0,0,0,1.418,0H564.543c.385,0,.765-.018,1.147-.029l7.934,22.313,10.639-10.639,10.875,10.875,3.073-3.073,3.074-3.073L590.41,902.319l10.639-10.639-11.513-4.093a38.527,38.527,0,0,0-21.112-67.675q-1.915-.192-3.88-.2Zm8.03,75.375H451.761A11.057,11.057,0,0,0,452.892,891H563.631l1.451,4.08C564.9,895.081,564.724,895.092,564.543,895.092Z" transform="translate(-194.275 -616.219)" fill="#c4e5f1"/>
      </g>
      <path id="Trazado_197989" data-name="Trazado 197989" d="M1229.725,860.249a101.365,101.365,0,0,0-3.481-19.782,75.525,75.525,0,0,0-2.493-7.144,196.708,196.708,0,0,1,4.791,28.483q.578-.58,1.213-1.126C1229.743,860.536,1229.738,860.393,1229.725,860.249Z" transform="translate(-890.783 -346.136)" fill="none"/>
      <path id="Trazado_197990" data-name="Trazado 197990" d="M1647.451,1304.073a29.655,29.655,0,0,1,19.644,7.408,24.449,24.449,0,0,1,14.313,22.249v10.654a24.385,24.385,0,0,1-8.21,18.271l5.9,2.1a36.8,36.8,0,0,0-23.1-65.468h-.651c-5.989,1.857-12.129,3.186-18.175,4.79Z" transform="translate(-1211.223 -707.303)" fill="none"/>
      <path id="Trazado_197991" data-name="Trazado 197991" d="M910.03,1022.727a105.288,105.288,0,0,1-2.2,11.056c.044,1.037.055,2.086.056,3.143.759-.15,1.477-.277,2.147-.378Z" transform="translate(-645.91 -492.944)" fill="none"/>
      <path id="Trazado_197992" data-name="Trazado 197992" d="M1219.4,1612.634h112.782c.18,0,.358-.011.538-.014l-1.451-4.08H1220.528A11.052,11.052,0,0,1,1219.4,1612.634Z" transform="translate(-887.409 -947.009)" fill="none"/>
      <path id="Trazado_197993" data-name="Trazado 197993" d="M1197.748,1077.844l1.575.508c-.065-1.137-.121-2.27-.14-3.4l-.038.012h0c-1.211.375-2.56.761-4.03,1.138A5.069,5.069,0,0,1,1197.748,1077.844Z" transform="translate(-868.584 -533.427)" fill="none"/>
      <path id="Trazado_197994" data-name="Trazado 197994" d="M511.1,474.986c6.713,1.273,10.154-2.413,16.024,2.868,15.516,13.962,8.681,39.088,29.813,48.528,5.437,2.429,9.125,5.358,11.579,9.415,1.137-5.5,2.525-12.172,4.136-19.831.7-3.336,1.217-6.277,1.593-8.888a.851.851,0,0,1-.378-.648,1.552,1.552,0,0,1,.64-1.291c.024-.191.048-.382.07-.569-.574-.076-1.136-.158-1.676-.251a50.312,50.312,0,0,1-.675-13.655,29.222,29.222,0,0,0-1.134,8,34.83,34.83,0,0,0,.373,5.131,34.467,34.467,0,0,1,.723,4.5c0,.173-.247.3-.365.151-2.028-2.547-2.538-6.623-2.7-9.784a28.881,28.881,0,0,1,1.383-10.806,27.108,27.108,0,0,1,5.78-9.645,17.3,17.3,0,0,1,1.594-1.988c3.872-4.573,11.209-8.989,25.075-10.19,1.173-.1,2.3-.146,3.409-.164a73.229,73.229,0,0,0-35.943-53.186,12,12,0,1,1-21.742-8.284,73.317,73.317,0,0,0-73.241,27.621c6.161,8.128,11.593,16.8,17.324,25.264C497.258,463.912,502.716,473.4,511.1,474.986Z" transform="translate(-310.772 -12.517)" opacity="0.25" fill="url(#linear-gradient-3)"/>
      <path id="Trazado_197995" data-name="Trazado 197995" d="M1307.532,386.753a38.891,38.891,0,0,0-7.94,76.962,27.931,27.931,0,0,1,2.209-2.245c5.87-5.282,9.311-1.6,16.024-2.869,8.388-1.59,13.846-11.074,18.334-17.7,3.453-5.1,6.8-10.274,10.258-15.361A38.886,38.886,0,0,0,1307.532,386.753Z" transform="translate(-925.58 0)" opacity="0.25" fill="url(#linear-gradient-3)"/>
      <path id="Trazado_197996" data-name="Trazado 197996" d="M803.457,410.755a11.992,11.992,0,1,0-12-12A12,12,0,0,0,803.457,410.755Z" transform="translate(-555.711 0)" fill="#9fdcf6"/>
      <path id="Trazado_197997" data-name="Trazado 197997" d="M1349.168,613.027a6,6,0,1,0,6,6A6,6,0,0,0,1349.168,613.027Z" transform="translate(-983.343 -175.385)" fill="#9fdcf6"/>
      <path id="Trazado_197998" data-name="Trazado 197998" d="M297.049,546.584a27.786,27.786,0,0,1,3.226,1.856.9.9,0,0,1,.667-.3,23.036,23.036,0,0,1,3.579.665c1.2.211,2.4.322,3.614.428a62.633,62.633,0,0,0,7.3.255,82.042,82.042,0,0,0,14.368-1.911c4.446-.931,8.9-1.943,13.281-3.163,3.786-1.056,7.5-2.555,10.328-5.369-4.293-5.9-8.832-11.637-13.383-17.321-8.356-10.437-16.457-21.042-24.2-31.946q-3.413-4.807-6.735-9.677a.961.961,0,0,1-.677.711,40.055,40.055,0,0,1-15.436.36,52.284,52.284,0,0,1-7.286-1.59c-1.294-.383-2.584-.8-3.839-1.3a7.844,7.844,0,0,1-3.147-1.77,1.084,1.084,0,0,1,.91-1.754,11.227,11.227,0,0,1,3.669,1.12c1.111.406,2.233.78,3.368,1.112a52.751,52.751,0,0,0,7.06,1.559,83.262,83.262,0,0,0,14.613.44c.006,0,.009,0,.015,0q-7.819-11.467-15.2-23.226c-7.365-11.764-14.434-23.643-20.095-36.331-.11-.246.252-.5.41-.263,8.512,12.939,16.19,26.383,24.495,39.456,13.436,21.15,28.191,41.31,43.42,61.176A31.312,31.312,0,0,0,342.9,515.9q.745-2.053,1.35-4.154a66.876,66.876,0,0,0,1.861-8.5,106.741,106.741,0,0,0,.791-17.37c-.007-.57.84-.548.954-.046a48.357,48.357,0,0,1,.274,18.106,64.68,64.68,0,0,1-1.969,8.8c-.44,1.477-.93,2.941-1.479,4.381s-1.329,2.806-1.764,4.274a1.088,1.088,0,0,1-.124.271c.857,1.114,1.709,2.232,2.568,3.345,10.424,13.5,21.2,28.162,27.231,44.412a62.438,62.438,0,0,0,6.128-10.446,47.063,47.063,0,0,0,3.572-13.379.684.684,0,0,1,1.362.117,37.481,37.481,0,0,1-2.727,14.32,38.313,38.313,0,0,1-4.226,7.773c5.156-2.222,10.606-4.473,16.569-6.648a89.452,89.452,0,0,1,13.052-3.829c0-1.057-.012-2.106-.056-3.143a6.612,6.612,0,0,1-1.027,2.359s-4.72-.5-6.707-2.484c0,0,1.271-6.335,3.565-17.433-2.454-4.057-6.142-6.986-11.579-9.415-21.132-9.44-14.3-34.566-29.813-48.528-5.87-5.282-9.311-1.6-16.024-2.868-8.387-1.59-13.845-11.074-18.334-17.7-5.731-8.463-11.163-17.136-17.324-25.264a122.435,122.435,0,0,0-11.844-13.631c-5.7-5.587-17.456-17.46-27.077-14.892-9.587,2.56-9.861,14.492-7.677,21.54,2.065,6.664,5.657,12.766,7.734,19.424,3.438,11.019.279,16.687-4.5,26.531-3.554,7.322-6.9,16.255-3.526,24.3,3,7.161,14.475,11.7,15.407,19.144.5,3.96-3.479,10.476-4.126,14.594a22.853,22.853,0,0,0,1.044,11.323c4.008,2.891,8.523,5.747,12.513,5.683C291.221,546.783,291.97,544.117,297.049,546.584Z" transform="translate(-144.355 -13.333)" fill="url(#linear-gradient)"/>
      <path id="Trazado_197999" data-name="Trazado 197999" d="M509.555,1022.236c-2.28-3.685-4.713-7.273-7.238-10.8-2.357,3.211-5.979,4.913-9.717,6.089-4.649,1.461-9.464,2.582-14.232,3.574A86.038,86.038,0,0,1,463,1023.051a38.048,38.048,0,0,1-7.806-.46c-1.158-.214-2.49-.421-3.771-.743,8.8,7.573,13.98,18.773,26.35,21.288A21.874,21.874,0,0,1,491.93,1052c9.123-2.945,17.666-6.8,26.973-10.9A106.53,106.53,0,0,0,509.555,1022.236Z" transform="translate(-292.154 -484.193)" fill="url(#linear-gradient)"/>
      <path id="Trazado_198000" data-name="Trazado 198000" d="M357.569,604.311a86.038,86.038,0,0,0,15.366-1.953c4.768-.992,9.583-2.113,14.232-3.574,3.738-1.175,7.36-2.877,9.717-6.088,2.524,3.527,4.958,7.115,7.238,10.8a106.524,106.524,0,0,1,9.348,18.86c1.835-.808,3.7-1.624,5.6-2.445a38.31,38.31,0,0,0,4.226-7.773,37.481,37.481,0,0,0,2.727-14.32.684.684,0,0,0-1.362-.117,47.062,47.062,0,0,1-3.572,13.379,62.437,62.437,0,0,1-6.128,10.446c-6.033-16.25-16.807-30.914-27.231-44.412-.86-1.113-1.711-2.23-2.568-3.345a1.092,1.092,0,0,0,.124-.271c.435-1.468,1.218-2.842,1.764-4.274s1.039-2.9,1.479-4.381a64.683,64.683,0,0,0,1.969-8.8,48.357,48.357,0,0,0-.274-18.106c-.114-.5-.962-.524-.954.046a106.749,106.749,0,0,1-.791,17.371,66.875,66.875,0,0,1-1.861,8.5q-.605,2.1-1.35,4.154a31.3,31.3,0,0,1-1.522,3.909c-15.229-19.866-29.984-40.026-43.42-61.176-8.3-13.072-15.982-26.517-24.495-39.456-.157-.239-.519.018-.41.263,5.661,12.688,12.73,24.568,20.095,36.331q7.365,11.764,15.2,23.226c-.006,0-.009,0-.015,0a83.268,83.268,0,0,1-14.613-.44,52.761,52.761,0,0,1-7.06-1.559c-1.135-.332-2.257-.706-3.368-1.112a11.227,11.227,0,0,0-3.669-1.12,1.084,1.084,0,0,0-.91,1.754,7.844,7.844,0,0,0,3.147,1.77c1.255.5,2.545.918,3.839,1.3a52.257,52.257,0,0,0,7.286,1.59,40.055,40.055,0,0,0,15.436-.36.961.961,0,0,0,.677-.711q3.331,4.864,6.735,9.677c7.741,10.9,15.841,21.509,24.2,31.946,4.551,5.685,9.09,11.418,13.383,17.321-2.829,2.814-6.542,4.313-10.328,5.369-4.377,1.22-8.835,2.232-13.281,3.163a82.043,82.043,0,0,1-14.368,1.911,62.633,62.633,0,0,1-7.3-.255c-1.213-.106-2.412-.217-3.614-.428a23.043,23.043,0,0,0-3.579-.665.9.9,0,0,0-.667.3,33.777,33.777,0,0,1,3.353,2.549c1.28.322,2.612.529,3.771.743A38.045,38.045,0,0,0,357.569,604.311Z" transform="translate(-186.72 -65.452)" fill="#d4effb"/>
      <path id="Trazado_198001" data-name="Trazado 198001" d="M388.043,1296.369c-1.045.555-2.109,1.075-3.2,1.529a20.123,20.123,0,0,1-3.942,1.26,10.482,10.482,0,0,1-3.857.326.454.454,0,0,1-.015-.869,12.171,12.171,0,0,1,1.894-.354c.634-.125,1.247-.3,1.866-.477a33.192,33.192,0,0,0,3.654-1.265c.618-.26,1.227-.543,1.828-.841H367.822a35.755,35.755,0,0,0-8.152.943,83.338,83.338,0,0,0,12.938,4.657h13.755A35.68,35.68,0,0,1,388.043,1296.369Z" transform="translate(-221.034 -704.509)" fill="#7baede"/>
      <path id="Trazado_198002" data-name="Trazado 198002" d="M168.077,975.554a38.914,38.914,0,0,1,9.059-12.2c-5.589-3.812-11.435-7.263-17.27-10.661q-3.036-1.769-6.049-3.572a.455.455,0,0,1,.009.443,9.441,9.441,0,0,1-4.975,3.91c-2.38.994-4.864,1.817-7.329,2.57a45.537,45.537,0,0,1-8.005,1.77,20.141,20.141,0,0,1-4.137.134,10.491,10.491,0,0,1-3.8-.741.454.454,0,0,1,.223-.84,12.172,12.172,0,0,1,1.918.178c.644.053,1.281.054,1.926.051a33.148,33.148,0,0,0,3.861-.218,43.406,43.406,0,0,0,7.481-1.7c2.3-.7,4.6-1.453,6.848-2.307a12.069,12.069,0,0,0,5.235-3.382.394.394,0,0,1,.272-.15c-6.241-3.741-12.405-7.6-18.477-11.621q-3.6-2.389-7.165-4.844a.706.706,0,0,1-.276.666,29.393,29.393,0,0,1-10.47,4.322,38.4,38.4,0,0,1-5.407.836c-.987.08-1.981.133-2.971.124a5.76,5.76,0,0,1-2.622-.381.8.8,0,0,1,.16-1.441,8.243,8.243,0,0,1,2.807-.2c.867-.015,1.734-.056,2.6-.128a38.725,38.725,0,0,0,5.244-.8,61.115,61.115,0,0,0,10.118-3.558l.011,0q-8.38-5.783-16.535-11.884A217.713,217.713,0,0,1,87.014,900.37c-.14-.139.04-.41.211-.288,9.243,6.608,18.048,13.782,27.184,20.536q2.793,2.065,5.618,4.079c.042-.849-.026-1.725-.042-2.547q-.032-1.6-.173-3.2a49.093,49.093,0,0,0-.972-6.311c-.308-1.39-.69-2.765-1.117-4.128.618.255,1.23.524,1.835.813.318,1.071.6,2.154.847,3.253a47.438,47.438,0,0,1,.975,6.54c.089,1.127.14,2.258.145,3.389,0,1.058-.141,2.136-.084,3.193,12.615,8.95,25.639,17.255,38.841,25.323a22.957,22.957,0,0,0,.01-3.077q-.032-1.6-.173-3.2a49.051,49.051,0,0,0-.972-6.311,78.334,78.334,0,0,0-4.046-12.1c-.156-.388.43-.6.641-.284a35.474,35.474,0,0,1,4.969,12.32,47.4,47.4,0,0,1,.975,6.54c.089,1.127.14,2.258.145,3.389s-.168,2.271-.078,3.391a.7.7,0,0,1-.03.208c.886.54,1.77,1.083,2.657,1.621,4.607,2.793,9.316,5.717,13.858,8.9.551-.444,1.129-.871,1.724-1.286h-.011a19.883,19.883,0,0,1,7.9-3.915c.815-.264,1.647-.51,2.517-.712,3.239-.753,6.352-1.647,9.406-2.633a21.874,21.874,0,0,0-14.154-8.863c-12.37-2.515-17.547-13.716-26.35-21.288a33.8,33.8,0,0,0-3.353-2.549,27.793,27.793,0,0,0-3.226-1.856c-5.079-2.468-5.829.2-10.071.267-3.991.065-8.505-2.792-12.513-5.682-1.316-.949-2.578-1.9-3.748-2.757-9.6-7.012-18.948-14.44-29.4-19.932-5.086-2.674-15.682-8.4-20.319-5.64-4.621,2.752-.856,10.022,2.7,14.022,3.366,3.782,7.418,7.033,10.788,10.81,5.579,6.251,5.642,10.083,6.154,16.651.381,4.885,1.413,10.719,5.975,15.175,4.062,3.966,12.089,5.28,15.067,9.679,1.583,2.339,1.46,6.788,2.445,9.366,1.741,4.559,5.027,7.864,9.247,11.106a50.453,50.453,0,0,0,7.315,4.656,37.345,37.345,0,0,1,10.447-1.486Z" transform="translate(0 -386.068)" fill="url(#linear-gradient-7)"/>
      <path id="Trazado_198003" data-name="Trazado 198003" d="M1222.176,534.567c-.045.244-.416.175-.42-.057-.091-6.677.372-13.291-.165-19.967q-.635.545-1.213,1.126a114.346,114.346,0,0,1-.106,23.248,59.109,59.109,0,0,1-7.054,2.612c.019,1.125.075,2.259.14,3.4l.847.273c18.821-1.753,28.6,5.95,28.6,5.95l.573.14a37.063,37.063,0,0,1-4.757-8.47,37.481,37.481,0,0,1-2.727-14.32.684.684,0,0,1,1.362-.117,47.074,47.074,0,0,0,3.572,13.379,62.126,62.126,0,0,0,6.1,10.4l.046.011c6.036-16.236,16.8-30.888,27.218-44.376.859-1.113,1.712-2.23,2.568-3.344a1.08,1.08,0,0,1-.124-.271c-.435-1.468-1.218-2.842-1.764-4.274s-1.039-2.9-1.479-4.381a64.678,64.678,0,0,1-1.97-8.8,48.358,48.358,0,0,1,.274-18.106c.114-.5.962-.524.954.046a106.763,106.763,0,0,0,.791,17.371,66.881,66.881,0,0,0,1.861,8.5q.606,2.1,1.35,4.154a31.281,31.281,0,0,0,1.522,3.909c15.229-19.866,29.984-40.026,43.42-61.176,8.3-13.073,15.983-26.517,24.495-39.456.157-.239.519.018.41.263-5.661,12.688-12.73,24.568-20.1,36.331q-7.365,11.764-15.2,23.227c.006,0,.009,0,.015,0a83.261,83.261,0,0,0,14.613-.44,52.735,52.735,0,0,0,7.06-1.559c1.135-.332,2.258-.706,3.369-1.112a11.228,11.228,0,0,1,3.669-1.12,1.084,1.084,0,0,1,.91,1.754,7.845,7.845,0,0,1-3.147,1.77c-1.255.5-2.546.918-3.839,1.3a52.258,52.258,0,0,1-7.286,1.59,40.054,40.054,0,0,1-15.436-.36.961.961,0,0,1-.678-.711q-3.33,4.864-6.735,9.677c-7.741,10.9-15.841,21.509-24.2,31.946-4.551,5.685-9.09,11.418-13.383,17.322,2.829,2.813,6.542,4.313,10.328,5.369,4.377,1.22,8.835,2.232,13.281,3.163a82.033,82.033,0,0,0,14.368,1.911,62.652,62.652,0,0,0,7.3-.255c1.213-.106,2.412-.217,3.614-.428a23.034,23.034,0,0,1,3.579-.665.9.9,0,0,1,.668.3,27.782,27.782,0,0,1,3.226-1.855c5.079-2.468,5.829.2,10.071.267,3.99.065,8.505-2.792,12.513-5.683a22.854,22.854,0,0,0,1.044-11.323c-.647-4.118-4.622-10.634-4.126-14.594.932-7.448,12.407-11.983,15.407-19.144,3.369-8.043.028-16.977-3.526-24.3-4.779-9.845-7.937-15.512-4.5-26.531,2.077-6.658,5.669-12.76,7.734-19.424,2.184-7.048,1.911-18.981-7.677-21.54-9.621-2.569-21.373,9.3-27.077,14.892-7.275,7.124-13.248,15.21-18.91,23.534-3.46,5.086-6.8,10.261-10.258,15.361-4.489,6.628-9.946,16.113-18.334,17.7-6.713,1.273-10.154-2.413-16.024,2.869a27.927,27.927,0,0,0-2.209,2.245c-12.665,14.265-7.558,37.328-27.6,46.283a32.455,32.455,0,0,0-6.153,3.52c.107,1.7.186,3.411.208,5.123A82.182,82.182,0,0,1,1222.176,534.567Z" transform="translate(-882.619)" fill="url(#linear-gradient)"/>
      <path id="Trazado_198004" data-name="Trazado 198004" d="M1426.347,1005.849a86.024,86.024,0,0,1-15.366-1.953c-4.768-.992-9.583-2.112-14.232-3.574-3.738-1.175-7.361-2.877-9.718-6.088-2.524,3.527-4.957,7.115-7.237,10.8a106.947,106.947,0,0,0-9.178,18.4c6.949,1.721,19.031,4.755,30.106,7.742a21.617,21.617,0,0,1,10.851-5.243c12.37-2.515,17.547-13.715,26.35-21.288-1.28.322-2.612.529-3.77.743A38.054,38.054,0,0,1,1426.347,1005.849Z" transform="translate(-1004.619 -470.859)" fill="url(#linear-gradient)"/>
      <path id="Trazado_198005" data-name="Trazado 198005" d="M1431.347,583.724c-1.2.211-2.4.321-3.614.428a62.649,62.649,0,0,1-7.3.255,82.03,82.03,0,0,1-14.368-1.911c-4.446-.931-8.9-1.943-13.281-3.163-3.786-1.056-7.5-2.555-10.328-5.369,4.293-5.9,8.832-11.637,13.383-17.322,8.356-10.437,16.457-21.042,24.2-31.946q3.413-4.807,6.735-9.677a.962.962,0,0,0,.678.711,40.055,40.055,0,0,0,15.436.36,52.264,52.264,0,0,0,7.286-1.59c1.294-.383,2.585-.8,3.839-1.3a7.845,7.845,0,0,0,3.148-1.77,1.084,1.084,0,0,0-.91-1.754,11.224,11.224,0,0,0-3.669,1.12c-1.111.406-2.233.78-3.369,1.112a52.734,52.734,0,0,1-7.059,1.559,83.268,83.268,0,0,1-14.613.44c-.006,0-.009,0-.015,0q7.819-11.467,15.2-23.226c7.365-11.764,14.434-23.643,20.1-36.331.109-.246-.253-.5-.41-.263-8.512,12.939-16.191,26.383-24.495,39.456-13.436,21.15-28.191,41.31-43.42,61.176a31.254,31.254,0,0,1-1.522-3.908q-.745-2.053-1.35-4.154a66.881,66.881,0,0,1-1.861-8.5,106.776,106.776,0,0,1-.791-17.371c.007-.57-.84-.548-.954-.046a48.355,48.355,0,0,0-.274,18.106,64.681,64.681,0,0,0,1.97,8.8c.44,1.477.93,2.941,1.479,4.381s1.329,2.806,1.764,4.274a1.081,1.081,0,0,0,.124.271c-.857,1.114-1.709,2.232-2.568,3.344-10.417,13.488-21.182,28.14-27.218,44.376l1.649.408a106.932,106.932,0,0,1,9.178-18.4c2.28-3.685,4.713-7.273,7.237-10.8,2.357,3.211,5.979,4.913,9.718,6.088,4.649,1.462,9.464,2.582,14.232,3.574a86.032,86.032,0,0,0,15.366,1.953,38.058,38.058,0,0,0,7.806-.46c1.159-.214,2.49-.421,3.771-.743a33.747,33.747,0,0,1,3.353-2.549.9.9,0,0,0-.668-.3A23.024,23.024,0,0,0,1431.347,583.724Z" transform="translate(-998.936 -52.119)" fill="#d4effb"/>
      <path id="Trazado_198006" data-name="Trazado 198006" d="M1318.972,1027.788a47.069,47.069,0,0,1-3.572-13.379.684.684,0,0,0-1.362.117,37.479,37.479,0,0,0,2.727,14.32,37.068,37.068,0,0,0,4.757,8.47c.667.163,1.892.463,3.546.871A62.111,62.111,0,0,1,1318.972,1027.788Z" transform="translate(-960.764 -486.029)" fill="#008cc2"/>
      <path id="Trazado_198007" data-name="Trazado 198007" d="M1590.982,1276.858a20.135,20.135,0,0,1-3.942-1.26,44.787,44.787,0,0,1-6.907-3.7c-2.593,2.687-6.535,6.491-11.285,10.949h15.365c6.046-1.6,12.186-2.933,18.175-4.79h-7.378v-.98a.381.381,0,0,1-.17.106A10.486,10.486,0,0,1,1590.982,1276.858Z" transform="translate(-1158.268 -686.077)" fill="#7baede"/>
      <path id="Trazado_198008" data-name="Trazado 198008" d="M1624.307,868.373c-4.637-2.762-15.233,2.966-20.319,5.64-10.448,5.492-19.793,12.92-29.4,19.933-1.17.854-2.432,1.807-3.748,2.756-4.008,2.891-8.523,5.747-12.513,5.682-4.242-.069-4.992-2.734-10.071-.267a27.8,27.8,0,0,0-3.226,1.855,33.761,33.761,0,0,0-3.353,2.549c-8.8,7.573-13.98,18.773-26.35,21.288a21.617,21.617,0,0,0-10.851,5.243c10.661,2.876,20.385,5.706,23.684,7.277.38.181.725.362,1.073.543,2.448-1.565,4.906-3.08,7.336-4.553.888-.538,1.772-1.081,2.658-1.621a.7.7,0,0,1-.03-.208c.09-1.12-.083-2.267-.078-3.391s.056-2.262.145-3.389a47.464,47.464,0,0,1,.975-6.54,35.482,35.482,0,0,1,4.969-12.32c.211-.313.8-.1.641.284a78.336,78.336,0,0,0-4.046,12.1,49.09,49.09,0,0,0-.971,6.311q-.14,1.6-.173,3.2a23,23,0,0,0,.01,3.077c13.2-8.067,26.226-16.372,38.841-25.323.057-1.057-.089-2.134-.084-3.192.005-1.131.056-2.262.145-3.389a47.439,47.439,0,0,1,.974-6.54c.243-1.1.529-2.183.847-3.253.6-.289,1.217-.557,1.835-.813-.427,1.363-.809,2.737-1.117,4.128a49.042,49.042,0,0,0-.972,6.311q-.14,1.6-.173,3.2c-.017.822-.084,1.7-.042,2.547q2.823-2.019,5.619-4.079c9.136-6.754,17.941-13.928,27.184-20.536.171-.122.351.149.211.288a217.7,217.7,0,0,1-23.348,19.559q-8.148,6.107-16.535,11.883l.011,0a61.068,61.068,0,0,0,10.118,3.557,38.629,38.629,0,0,0,5.243.8c.865.072,1.732.113,2.6.128a8.232,8.232,0,0,1,2.807.2.8.8,0,0,1,.16,1.441,5.752,5.752,0,0,1-2.621.38c-.99.009-1.985-.044-2.971-.124a38.313,38.313,0,0,1-5.407-.836,29.387,29.387,0,0,1-10.469-4.322.7.7,0,0,1-.276-.666q-3.564,2.449-7.165,4.844c-6.072,4.023-12.236,7.88-18.477,11.621a.4.4,0,0,1,.273.15,12.065,12.065,0,0,0,5.235,3.382c2.248.854,4.55,1.6,6.848,2.307a43.419,43.419,0,0,0,7.481,1.7,33.144,33.144,0,0,0,3.861.217c.645,0,1.282,0,1.926-.051a12.173,12.173,0,0,1,1.918-.178.454.454,0,0,1,.223.84,10.482,10.482,0,0,1-3.8.742,20.153,20.153,0,0,1-4.137-.134,45.527,45.527,0,0,1-8.005-1.77c-2.466-.753-4.95-1.575-7.329-2.57a9.441,9.441,0,0,1-4.975-3.91.456.456,0,0,1,.009-.444q-3.013,1.8-6.049,3.572c-3.477,2.025-6.955,4.074-10.383,6.2,5.99,3.613,6,7.416,2.754,13.137a18.519,18.519,0,0,1-2.192,2.649,42,42,0,0,0,6.282,3.4,33.14,33.14,0,0,0,3.654,1.265c.619.179,1.233.352,1.866.478a12.207,12.207,0,0,1,1.894.353.445.445,0,0,1,.155.124v-.111h8.03a38.827,38.827,0,0,1,3.88.2,55.689,55.689,0,0,0,14.9-8c4.219-3.242,7.506-6.546,9.247-11.106.984-2.578.861-7.027,2.444-9.366,2.978-4.4,11.005-5.713,15.067-9.679,4.563-4.456,5.594-10.29,5.975-15.175.512-6.568.575-10.4,6.154-16.651,3.371-3.777,7.422-7.027,10.788-10.81C1625.163,878.4,1628.928,871.126,1624.307,868.373Z" transform="translate(-1108.377 -372.736)" fill="url(#linear-gradient-7)"/>
      <path id="Trazado_198009" data-name="Trazado 198009" d="M266.829,1355.564h0v-5.327a24.451,24.451,0,0,1,24.451-24.451H504.538l6.714-5.18h-200.1l.007-.026H292.427a29.681,29.681,0,0,0-11.209,2.189c-.575.234-1.145.479-1.7.747a30.044,30.044,0,0,0-13.931,13.932c-.268.557-.513,1.126-.747,1.7a29.678,29.678,0,0,0-2.189,11.209h0a29.684,29.684,0,0,0,2.34,11.591q.282.668.6,1.319a29.676,29.676,0,0,0,1.937,3.406,24.487,24.487,0,0,1-.694-5.783Z" transform="translate(-145.832 -723.81)" fill="#008cc2"/>
      <path id="Trazado_198010" data-name="Trazado 198010" d="M1584.731,1325.787a24.351,24.351,0,0,1,10.138,2.2,29.656,29.656,0,0,0-19.644-7.408h-25.649c-1.764,1.655-3.635,3.4-5.592,5.207Z" transform="translate(-1138.996 -723.81)" fill="#008cc2"/>
      <path id="Trazado_198011" data-name="Trazado 198011" d="M285.006,1289.875h2.07c.234-.538.49-1.1.773-1.684H266.561a37.721,37.721,0,0,0-14.129,2.76c-.725.3-1.442.6-2.145.942a37.853,37.853,0,0,0-17.558,17.558c-.339.7-.647,1.419-.943,2.145a37.606,37.606,0,0,0,.191,28.738c.238.561.488,1.117.752,1.662a37.328,37.328,0,0,0,2.649,4.592h2.039a35.75,35.75,0,0,1-3.171-5.323q-.379-.784-.718-1.588a35.916,35.916,0,0,1-.181-27.447c.281-.693.576-1.379.9-2.049a36.173,36.173,0,0,1,16.772-16.773c.671-.323,1.357-.618,2.049-.9a36.078,36.078,0,0,1,13.494-2.636Z" transform="translate(-119.773 -698.706)" fill="#008cc2"/>
      <path id="Trazado_198012" data-name="Trazado 198012" d="M788.865,1626.742H672.452v1.729H791.973a6.7,6.7,0,0,1-2.608-1.286Z" transform="translate(-463.471 -961.117)" fill="#008cc2"/>
      <path id="Trazado_198013" data-name="Trazado 198013" d="M1325.051,1626.695H1212.268a3.241,3.241,0,0,1-2.068,1.729h114.851c.385,0,.766-.018,1.148-.029l-.609-1.714C1325.409,1626.684,1325.231,1626.695,1325.051,1626.695Z" transform="translate(-880.28 -961.07)" fill="#008cc2"/>
      <path id="Trazado_198014" data-name="Trazado 198014" d="M1685.173,1291.594v1.729h8.03a36.8,36.8,0,0,1,23.1,65.468l-5.9-2.1-23.256-8.269,39.718,39.718,3.073-3.073-10.875-10.875,10.639-10.639-11.513-4.093a38.534,38.534,0,0,0-24.993-67.87Z" transform="translate(-1248.432 -701.343)" fill="#008cc2"/>
      <path id="Trazado_198015" data-name="Trazado 198015" d="M736.191,1402.745l-.241-.142q-.409-.24-.824-.5l-.209-.129c-.312-.195-.626-.4-.942-.6l-.318-.209q-.461-.3-.921-.619l-.286-.2q-.384-.266-.764-.535l-.273-.193q-.455-.325-.9-.65l-.3-.22c-.3-.218-.59-.436-.875-.65l-.192-.145q-.386-.292-.753-.573l-.2-.151q-.423-.326-.814-.633l-.153-.12c-1.9-1.495-3.195-2.593-3.195-2.593-2.237-.656-1.913-5.409-.8-6.048a30.4,30.4,0,0,0,2.861-2.5l-.677-.6a19.305,19.305,0,1,1-9.956-35.522,18.724,18.724,0,0,1,17.353,15.455,30.362,30.362,0,0,1-3.2,14.87l1.445,1.037c1.057-1.03,1.794-1.755,1.794-1.755a18.861,18.861,0,0,1,6.341-2.477c2.873-.319,6.7,2.714,9.457,1.915a9.619,9.619,0,0,0,2.029-.944c-2.621-5.78-.373-8.175-.373-8.175l32.931-25.409H622.223v59.556H737.166l-.061-.034Q736.655,1403.012,736.191,1402.745Z" transform="translate(-424.539 -741.755)" fill="#f5fbfe"/>
      <path id="Trazado_198016" data-name="Trazado 198016" d="M1345.564,1378.836v-10.654a24.454,24.454,0,0,0-24.451-24.451h-40.748c-23.085,21.348-57.677,51.8-57.677,51.8-1.744.669-4.7.612-10.049-4.211l-.218.2-.246.224c-1.54,1.4-3.313,2.964-5.294,4.633-1.09.918-2.079,1.754-3,2.525l4.719,3.388s-.055.268-.142.639a3.046,3.046,0,0,0,.138-.6c-.025.335-.056.653-.092.958h110.738l-5.137-14.448,23.256,8.269A24.386,24.386,0,0,0,1345.564,1378.836Z" transform="translate(-875.378 -741.755)" fill="#f5fbfe"/>
      <path id="Trazado_198017" data-name="Trazado 198017" d="M281.233,1476.136v5.327a24.453,24.453,0,0,0,24.451,24.451h5.327A29.778,29.778,0,0,1,281.233,1476.136Z" transform="translate(-160.237 -844.382)" fill="#f5fbfe"/>
      <path id="Trazado_198018" data-name="Trazado 198018" d="M281.233,1368.182v5.327a29.778,29.778,0,0,1,29.778-29.778h-5.327A24.451,24.451,0,0,0,281.233,1368.182Z" transform="translate(-160.237 -741.755)" fill="#f5fbfe"/>
      <circle id="Elipse_4906" data-name="Elipse 4906" cx="11.54" cy="11.54" r="11.54" transform="translate(153.324 617.146) rotate(-9.827)" fill="#20b5ed"/>
      <path id="Trazado_198019" data-name="Trazado 198019" d="M357.921,1343.731H311.011a29.778,29.778,0,0,0-29.778,29.778h0a29.777,29.777,0,0,0,29.778,29.778h46.911Zm-42.209,33.405a14.258,14.258,0,1,1,2,2.069l-11.023,14.105-3.556-3.084Z" transform="translate(-160.237 -741.755)" fill="#20b5ed"/>
      <path id="Trazado_198020" data-name="Trazado 198020" d="M393.18,1414.7a14.364,14.364,0,1,0-2-2.069l-12.581,13.09,3.556,3.084Zm-2.349-10.9a11.54,11.54,0,1,1,11.54,11.541A11.554,11.554,0,0,1,390.831,1403.792Z" transform="translate(-235.707 -777.245)" fill="#f5fbfe"/>
      <path id="Trazado_198021" data-name="Trazado 198021" d="M1693.976,1544.3l5.137,14.448,1.451,4.08.609,1.714,7.934,22.313,10.639-10.639,10.875,10.875,3.073-3.073Z" transform="translate(-1255.255 -897.213)" fill="#006389"/>
      <path id="Trazado_198022" data-name="Trazado 198022" d="M994.077,1408.256a12.431,12.431,0,1,0-.309,7.436A15.1,15.1,0,0,0,994.077,1408.256Zm-22.837,6.978a1.383,1.383,0,1,1,1.2-1.547A1.383,1.383,0,0,1,971.24,1415.234Zm15.8-1.268a3.064,3.064,0,0,1-3.176-4.332,5.407,5.407,0,1,1,3.542-1.695,3.072,3.072,0,0,1-.365,6.027Z" transform="translate(-690.573 -782.545)" fill="#c4e5f1"/>
      <path id="Trazado_198023" data-name="Trazado 198023" d="M1030.96,1416.67a5.381,5.381,0,1,0-3.542,1.695,3.072,3.072,0,1,0,3.542-1.695Z" transform="translate(-734.132 -791.276)" fill="#e9f5f5"/>
      <path id="Trazado_198024" data-name="Trazado 198024" d="M985.481,1468.057a1.383,1.383,0,1,0,1.546,1.2A1.383,1.383,0,0,0,985.481,1468.057Z" transform="translate(-705.164 -838.112)" fill="#e9f5f5"/>
      <path id="Trazado_198025" data-name="Trazado 198025" d="M1098.18,1491.638a18.551,18.551,0,0,0,1.412-3.282,18.791,18.791,0,0,1-1.87,2.953Z" transform="translate(-793.097 -853.854)" fill="url(#linear-gradient-11)"/>
      <path id="Trazado_198026" data-name="Trazado 198026" d="M962.336,1450.1a18.6,18.6,0,0,1-15.854-24.1A18.6,18.6,0,0,0,975.2,1448.5l.677.6c.662-.619,1.377-1.3,2.088-1.979l-1.617-1.432A18.534,18.534,0,0,1,962.336,1450.1Z" transform="translate(-674.317 -805.516)" fill="#006389"/>
      <path id="Trazado_198027" data-name="Trazado 198027" d="M997.4,1395.752a15.049,15.049,0,0,0-29.144-1.128A15.04,15.04,0,0,1,995.945,1406,15.051,15.051,0,0,0,997.4,1395.752Z" transform="translate(-692.75 -772.853)" fill="url(#linear-gradient)"/>
      <path id="Trazado_198028" data-name="Trazado 198028" d="M982.9,1398.021a18.793,18.793,0,0,0,1.87-2.953,18.525,18.525,0,0,0,1.787-11.588,18.625,18.625,0,1,0-20.262,21.664,18.534,18.534,0,0,0,14.013-4.409l1.617,1.432c1.037-.993,2.053-1.977,2.877-2.781l-1.444-1.037Zm-15.85,3.611a15.078,15.078,0,1,1,14.421-7.919A15.1,15.1,0,0,1,967.05,1401.632Z" transform="translate(-678.276 -760.566)" fill="#008cc2"/>
      <path id="Trazado_198029" data-name="Trazado 198029" d="M1188.54,1589.033c-1.678,1.4-3.127,2.557-4.449,3.46l3.6,3.193a3.54,3.54,0,0,0,2.664.88,7.482,7.482,0,0,0,2.758-3.505c.087-.371.142-.639.142-.639Z" transform="translate(-860.043 -931.888)" fill="#008cc2"/>
      <path id="Trazado_198030" data-name="Trazado 198030" d="M1183.024,1609.333a11.054,11.054,0,0,0,1.131-4.093c.036-.3.067-.623.092-.958a3.046,3.046,0,0,1-.138.6,7.481,7.481,0,0,1-2.758,3.505,3.539,3.539,0,0,1-2.664-.88l-3.6-3.193a17.689,17.689,0,0,1-2.614,1.514l3.959,3.507.5.443a6.705,6.705,0,0,0,2.608,1.286,3.3,3.3,0,0,0,1.418,0A3.241,3.241,0,0,0,1183.024,1609.333Z" transform="translate(-851.035 -943.707)" fill="#006389"/>
      <path id="Trazado_198031" data-name="Trazado 198031" d="M883.374,910.273c9.049-1.353,10.259,1.594,10.259,1.594l6.45-1.272a6.756,6.756,0,0,1,8.245-1.629V900h-3.489A18.84,18.84,0,0,1,886,881.164V865.087c.115-.048.23-.1.341-.155a14.061,14.061,0,0,1,1.8-.877,4.723,4.723,0,0,1,1.916-.2,8.75,8.75,0,0,1,1.918.5.245.245,0,0,0,.236-.406,4.354,4.354,0,0,0-3.9-.826,5.93,5.93,0,0,0-1.858.834c-.148.092-.3.166-.454.248v-4.4c-.173.093-.349.183-.516.286-.554.341-.994.769-1.555,1.1a1.158,1.158,0,0,1-1.2.033c-.376,2.61-.891,5.552-1.592,8.888-1.611,7.659-3,14.328-4.136,19.831-2.294,11.1-3.565,17.433-3.565,17.433,1.987,1.987,6.707,2.484,6.707,2.484a6.61,6.61,0,0,0,1.027-2.359,105.282,105.282,0,0,0,2.2-11.056Z" transform="translate(-619.255 -366.669)" fill="#15363e"/>
      <path id="Trazado_198032" data-name="Trazado 198032" d="M925.695,683.028c-13.866,1.2-21.2,5.617-25.075,10.19a17.305,17.305,0,0,0-1.594,1.988,27.106,27.106,0,0,0-5.78,9.645,28.883,28.883,0,0,0-1.383,10.806c.157,3.16.667,7.237,2.7,9.784.118.148.368.022.365-.151a34.458,34.458,0,0,0-.723-4.5,34.83,34.83,0,0,1-.373-5.131,29.225,29.225,0,0,1,1.134-8,50.315,50.315,0,0,0,.674,13.655c.54.092,1.1.175,1.676.251-.022.187-.046.378-.07.569a7.49,7.49,0,0,1,.82-.615,10.064,10.064,0,0,1,3.677-1.575,6.615,6.615,0,0,1,2.086-.129,17.366,17.366,0,0,1,1.957.463.44.44,0,0,1-.117.86,3.36,3.36,0,0,0-1.132.134c-.324.1-.661.2-.992.277-.577.143-1.147.279-1.712.451a174.781,174.781,0,0,0,20.746-.189c-.2-.284-.4-.6-.607-.953-.152.012-.306.007-.457.022-.979.095-2.517.624-3.5.162a2.053,2.053,0,0,0-.3.078.3.3,0,0,1-.338-.439c.387-.634.528-1.15,1.254-1.536a6.412,6.412,0,0,1,2.209-.551c-.829-1.852-1.612-4.006-2.276-5.981a61.716,61.716,0,0,0,3.288,5.874,19.548,19.548,0,0,1,4.046.055,20.682,20.682,0,0,1,4.671,1.175c-4.473-4.776-6.856-12.068-6.856-12.068,4.969,11.676,18.88,17.886,22.11,14.16,2.7-3.114,8.336-3.082,9.322,2.885v4.21c-.537,3.943-1.548,6.105-2.581,7.283.7.181.894.762,1.507,1.18a4.354,4.354,0,0,1,1.288,1.645,9.794,9.794,0,0,1,1,4.382c0,2.847-1.2,5.657-3.9,6.919a5.736,5.736,0,0,1-4.545.143c-1.694,11.334-4.326,24.019-4.326,24.019a21.645,21.645,0,0,0,2.305.145,15.726,15.726,0,0,0,2.249-.065c.145-.01.288-.021.432-.032l.029-.014a86.441,86.441,0,0,0,11.4-2.331l.034.011c1.471-.377,2.82-.763,4.03-1.138h0l.038-.012a59.1,59.1,0,0,0,7.054-2.612,114.35,114.35,0,0,0,.106-23.248,196.7,196.7,0,0,0-4.791-28.483,75.525,75.525,0,0,1,2.493,7.144,101.37,101.37,0,0,1,3.481,19.782c.013.144.018.287.029.431.537,6.675.074,13.289.166,19.967,0,.232.374.3.419.057a82.173,82.173,0,0,0,.907-15.926c-.023-1.713-.1-3.42-.208-5.123a93.656,93.656,0,0,0-1.342-11.15,80.92,80.92,0,0,0-8.376-24.11c-1.805-5.4-10.159-25.3-34.936-24.906C928,682.882,926.868,682.927,925.695,683.028Z" transform="translate(-633.504 -229.512)" fill="#15363e"/>
      <path id="Trazado_198033" data-name="Trazado 198033" d="M929.29,808.1v4.4c.151-.082.306-.155.454-.248a5.929,5.929,0,0,1,1.858-.834,4.354,4.354,0,0,1,3.9.826.245.245,0,0,1-.236.406,8.747,8.747,0,0,0-1.918-.5,4.721,4.721,0,0,0-1.916.2,14.056,14.056,0,0,0-1.8.877c-.111.055-.226.106-.341.155v16.076a18.84,18.84,0,0,0,18.84,18.84h3.489c14.816-2,17.566-11.581,18.045-14.21.032-.226.071-.445.1-.676,0,0-.02.25-.1.676-2.231,15.715-18.045,19.792-18.045,19.792v3.38l0,0c3.02,5.2,11.7,8.851,11.7,8.851,2.687-.668,9.277-3.719,14.285-6.137-.144.011-.287.022-.432.032a15.724,15.724,0,0,1-2.249.064,21.662,21.662,0,0,1-2.305-.145s2.632-12.686,4.326-24.019a6.4,6.4,0,0,1-2.585-1.844,8.756,8.756,0,0,1-1.271-8.458,10.571,10.571,0,0,1,2.014-3.761,4,4,0,0,1,2.1-1.313,1.834,1.834,0,0,1-.8-1.07,2.546,2.546,0,0,1,.3-1.6,7.035,7.035,0,0,0,.389-1.653,4.7,4.7,0,0,0-.042-1.24.42.42,0,0,0-.07-.139c-.137-.022-.308.028-.492-.007-1.181-.222-1.122-1.985-1.2-2.9a5.833,5.833,0,0,1,.581-3.4,2.2,2.2,0,0,1,3.868-.74l-.015.015c-.613-.582-1.207-.247-1.758.212a2.261,2.261,0,0,0-.846,1.431,7.3,7.3,0,0,0-.045,2.024c.028.38.073.757.132,1.134q.037.236.078.471a2.158,2.158,0,0,1,1.694,2.228,5.9,5.9,0,0,1-.405,2.019c-.075.227-.716,1.579-.577,1.708.355.332,1.021-.508,1.174-.713a5.12,5.12,0,0,0,.822-1.92,6.219,6.219,0,0,0,.12-2.1,6.235,6.235,0,0,1-.087-1.984.237.237,0,0,1,.345-.141c1,.609,1.143,2.075,1.147,3.123a8.42,8.42,0,0,1-.775,3.475,3.154,3.154,0,0,1-2.067,2.05,1.789,1.789,0,0,1-.387.039.276.276,0,0,1-.041.306c-.39.413-.937.6-1.368.98a5.67,5.67,0,0,0-1.112,1.283,10.6,10.6,0,0,0-1.37,3.723,6.631,6.631,0,0,0,1.8,6.278,4.547,4.547,0,0,0,1.023.677,104.635,104.635,0,0,0,1.125-11.189,2.918,2.918,0,0,0,2.509-.575l-.021-.014c-.164-.089.585-.735.756-.693.007,0,.011.006.018.008,1.033-1.177,2.044-3.34,2.581-7.282v-4.21c-.986-5.966-6.623-6-9.322-2.885-3.23,3.726-17.141-2.484-22.11-14.16,0,0,2.383,7.292,6.856,12.068.093.034.186.063.279.1.742.28,1.47.6,2.182.947a3.922,3.922,0,0,1,1.891,1.4.745.745,0,0,1-.636,1.109,4.6,4.6,0,0,1-1.977-.719c-.047-.023-.1-.04-.144-.062a19.765,19.765,0,0,1-8.451-1.182s-.139-.2-.359-.523c-.461.007-.92.031-1.379.066.2.349.4.67.607.953a174.765,174.765,0,0,1-20.746.189c-.148.045-.3.08-.445.133A8.377,8.377,0,0,0,929.29,808.1Zm2.381,5.468a2.069,2.069,0,0,1,1.84-1.238,2,2,0,0,1,1.016.275l.407.315a2.014,2.014,0,0,1,.518.888l.072.535a2.069,2.069,0,0,1-2.013,2.013,2,2,0,0,1-1.016-.275l-.407-.315a2.014,2.014,0,0,1-.518-.889q-.036-.268-.072-.535A1.518,1.518,0,0,1,931.671,813.57Zm21.936,18.547a13.589,13.589,0,0,1-2.2,1.21,10.876,10.876,0,0,1-2.44.729,10.525,10.525,0,0,1-1.176.144,6.939,6.939,0,0,1-1.294-.088.23.23,0,0,1,0-.459c.382-.043.763-.147,1.15-.2s.785-.121,1.174-.2a16.848,16.848,0,0,0,2.28-.657,12,12,0,0,0,2.243-1.081,22.929,22.929,0,0,0,2-1.236l.055.071A9.39,9.39,0,0,1,953.607,832.117Zm3.854-17.642-.089.133a2.074,2.074,0,0,1-.739.739l-.492.208a1.56,1.56,0,0,1-.822.037,1.026,1.026,0,0,1-.52-.141,1.543,1.543,0,0,1-.663-.426l-.322-.417a1.535,1.535,0,0,1-.245-.766,1.562,1.562,0,0,1,.037-.822l.052-.148a2.082,2.082,0,0,1,.535-.919,2.141,2.141,0,0,1,2.943,0,2.08,2.08,0,0,1,.535.919l.074.553A2.07,2.07,0,0,1,957.46,814.475Zm-10.821-2.611a11.529,11.529,0,0,1,6.948-1.792,11.007,11.007,0,0,1,3.479.609,7.976,7.976,0,0,0,3.969.86l.04.149a4.339,4.339,0,0,1-3.094-.119,22.572,22.572,0,0,0-3.781-.675,18.845,18.845,0,0,0-7.477,1.168C946.6,812.107,946.542,811.929,946.639,811.864Zm-9.478,16.093c.181-1.19.479-2.364.662-3.557a58.131,58.131,0,0,0,.246-15.159c-.014-.126.2-.153.22-.03a46.828,46.828,0,0,1,.531,12.2,57.985,57.985,0,0,1-.9,6.019c-.143.728-.261,1.505.639,1.734a7.554,7.554,0,0,0,1.6.173,14.729,14.729,0,0,0,3.118-.293.329.329,0,0,1,.174.633,10.207,10.207,0,0,1-3.292.395,4.723,4.723,0,0,1-2.494-.517A1.536,1.536,0,0,1,937.161,827.957Z" transform="translate(-662.547 -314.959)" fill="#e2ac93"/>
      <path id="Trazado_198034" data-name="Trazado 198034" d="M1014,821.041a61.742,61.742,0,0,1-3.288-5.874c.663,1.975,1.446,4.129,2.276,5.981l.117-.016C1013.4,821.093,1013.7,821.068,1014,821.041Z" transform="translate(-725.653 -332.064)" fill="#e2ac93"/>
      <path id="Trazado_198035" data-name="Trazado 198035" d="M1046.618,975.336c-.479,2.63-3.229,12.208-18.045,14.21v5.582S1044.387,991.051,1046.618,975.336Z" transform="translate(-739.501 -456.212)" fill="#c58d7e"/>
      <path id="Trazado_198036" data-name="Trazado 198036" d="M1108.807,973.008c.078-.426.1-.676.1-.676C1108.878,972.562,1108.839,972.782,1108.807,973.008Z" transform="translate(-801.69 -453.883)" fill="#c58d7e"/>
      <path id="Trazado_198037" data-name="Trazado 198037" d="M1034.55,851.608a21.806,21.806,0,0,0-2.544-.094c.221.325.359.523.359.523a19.766,19.766,0,0,0,8.451,1.182,17.183,17.183,0,0,0-1.986-.781A20.5,20.5,0,0,0,1034.55,851.608Z" transform="translate(-742.162 -360.234)" fill="#15363e"/>
      <path id="Trazado_198038" data-name="Trazado 198038" d="M1146.792,934.435a6.87,6.87,0,0,0,2.314-6.153,7.455,7.455,0,0,0-.911-2.972,6.373,6.373,0,0,0-2.182-2.215,2.917,2.917,0,0,1-2.509.575,104.67,104.67,0,0,1-1.125,11.189A4.16,4.16,0,0,0,1146.792,934.435Z" transform="translate(-827.711 -415.719)" fill="#15363e"/>
      <path id="Trazado_198039" data-name="Trazado 198039" d="M1006.348,870.523a18.846,18.846,0,0,1,7.477-1.168,22.569,22.569,0,0,1,3.781.675,4.338,4.338,0,0,0,3.094.119l-.04-.149a7.976,7.976,0,0,1-3.969-.86,11.01,11.01,0,0,0-3.479-.609,11.529,11.529,0,0,0-6.948,1.792C1006.166,870.388,1006.225,870.565,1006.348,870.523Z" transform="translate(-722.171 -373.417)" fill="#15363e"/>
      <path id="Trazado_198040" data-name="Trazado 198040" d="M1011.872,959.677a12,12,0,0,1-2.243,1.081,16.849,16.849,0,0,1-2.28.657c-.389.077-.78.148-1.174.2s-.768.154-1.15.2a.23.23,0,0,0,0,.459,6.94,6.94,0,0,0,1.294.088,10.541,10.541,0,0,0,1.176-.144,10.879,10.879,0,0,0,2.44-.729,13.59,13.59,0,0,0,2.2-1.21,9.384,9.384,0,0,0,1.786-1.763l-.055-.071A22.9,22.9,0,0,1,1011.872,959.677Z" transform="translate(-721.078 -443.116)" fill="#15363e"/>
      <path id="Trazado_198041" data-name="Trazado 198041" d="M967.173,885.33a10.208,10.208,0,0,0,3.292-.395.329.329,0,0,0-.174-.633,14.732,14.732,0,0,1-3.118.293,7.554,7.554,0,0,1-1.6-.173c-.9-.228-.783-1.006-.639-1.734a57.988,57.988,0,0,0,.9-6.019,46.833,46.833,0,0,0-.531-12.2c-.021-.123-.234-.1-.22.03a58.128,58.128,0,0,1-.246,15.159c-.183,1.193-.481,2.366-.662,3.557a1.536,1.536,0,0,0,.509,1.6A4.722,4.722,0,0,0,967.173,885.33Z" transform="translate(-689.555 -370.219)" fill="#15363e"/>
      <path id="Trazado_198042" data-name="Trazado 198042" d="M1040.676,874.831a2.141,2.141,0,0,0-2.943,0,2.082,2.082,0,0,0-.535.919l-.052.148a1.562,1.562,0,0,0-.037.822,1.535,1.535,0,0,0,.245.766l.322.417a1.543,1.543,0,0,0,.663.426,1.026,1.026,0,0,0,.52.141,1.559,1.559,0,0,0,.822-.037l.493-.208a2.076,2.076,0,0,0,.739-.739l.089-.133a2.068,2.068,0,0,0,.284-1.05l-.074-.553A2.08,2.08,0,0,0,1040.676,874.831Z" transform="translate(-746.087 -377.837)" fill="#15363e"/>
      <path id="Trazado_198043" data-name="Trazado 198043" d="M939.692,882.057l.407.315a2,2,0,0,0,1.016.275,2.069,2.069,0,0,0,2.013-2.013l-.072-.535a2.014,2.014,0,0,0-.518-.888l-.407-.315a2,2,0,0,0-1.016-.275,2.069,2.069,0,0,0-2.013,2.013l.072.535A2.014,2.014,0,0,0,939.692,882.057Z" transform="translate(-670.151 -381.246)" fill="#15363e"/>
      <path id="Trazado_198044" data-name="Trazado 198044" d="M1136.581,868.32a.279.279,0,0,1,.1.155,1.789,1.789,0,0,0,.387-.039,3.153,3.153,0,0,0,2.067-2.05,8.42,8.42,0,0,0,.775-3.475c0-1.048-.152-2.514-1.147-3.123a.237.237,0,0,0-.345.141,6.235,6.235,0,0,0,.087,1.984,6.223,6.223,0,0,1-.12,2.1,5.118,5.118,0,0,1-.823,1.919c-.153.2-.818,1.045-1.174.713-.138-.13.5-1.481.577-1.708a5.9,5.9,0,0,0,.405-2.019,2.158,2.158,0,0,0-1.694-2.228q-.041-.235-.078-.471c-.058-.377-.1-.754-.132-1.134a7.305,7.305,0,0,1,.045-2.024,2.262,2.262,0,0,1,.846-1.432c.551-.459,1.145-.795,1.758-.212l.015-.015a2.2,2.2,0,0,0-3.868.74,5.835,5.835,0,0,0-.581,3.4c.082.912.023,2.675,1.2,2.9.183.035.355-.015.492.007a.419.419,0,0,1,.07.139,4.69,4.69,0,0,1,.042,1.24,7.036,7.036,0,0,1-.389,1.653,2.547,2.547,0,0,0-.3,1.6,1.834,1.834,0,0,0,.8,1.07A1.388,1.388,0,0,1,1136.581,868.32Z" transform="translate(-820.945 -362.583)" fill="#c58d7e"/>
      <path id="Trazado_198045" data-name="Trazado 198045" d="M1013.812,843.412a20.49,20.49,0,0,1,4.28.83,17.141,17.141,0,0,1,1.986.781c.047.022.1.04.144.062a4.6,4.6,0,0,0,1.977.719.745.745,0,0,0,.636-1.109,3.921,3.921,0,0,0-1.891-1.4c-.712-.349-1.44-.667-2.182-.947-.093-.035-.186-.064-.279-.1a20.676,20.676,0,0,0-4.671-1.175,19.552,19.552,0,0,0-4.046-.055c-.3.026-.6.051-.9.091l-.116.016a6.413,6.413,0,0,0-2.209.551c-.727.385-.868.9-1.254,1.536a.3.3,0,0,0,.338.439,2.045,2.045,0,0,1,.3-.078c.983.462,2.521-.067,3.5-.162.152-.015.305-.01.457-.022.458-.035.918-.059,1.379-.066A21.806,21.806,0,0,1,1013.812,843.412Z" transform="translate(-721.424 -352.038)" fill="#0d2c32"/>
      <path id="Trazado_198046" data-name="Trazado 198046" d="M914.633,851.283c.56-.331,1-.758,1.555-1.1.168-.1.343-.193.516-.286a8.4,8.4,0,0,1,1.138-.522c.147-.053.3-.088.445-.133.565-.171,1.135-.308,1.712-.451.331-.082.668-.173.992-.277a3.363,3.363,0,0,1,1.132-.134.44.44,0,0,0,.117-.86,17.354,17.354,0,0,0-1.957-.463,6.619,6.619,0,0,0-2.086.129,10.066,10.066,0,0,0-3.677,1.575,7.5,7.5,0,0,0-.82.615,1.552,1.552,0,0,0-.64,1.291.851.851,0,0,0,.378.648A1.158,1.158,0,0,0,914.633,851.283Z" transform="translate(-649.961 -356.754)" fill="#0d2c32"/>
      <path id="Trazado_198047" data-name="Trazado 198047" d="M1129.951,916.778l.021.014a6.374,6.374,0,0,1,2.182,2.215,7.459,7.459,0,0,1,.911,2.972,6.87,6.87,0,0,1-2.314,6.154,4.16,4.16,0,0,1-4.413.423,4.544,4.544,0,0,1-1.023-.677,6.631,6.631,0,0,1-1.8-6.278,10.608,10.608,0,0,1,1.37-3.723,5.674,5.674,0,0,1,1.112-1.283c.431-.377.978-.567,1.368-.98a.276.276,0,0,0,.041-.306.279.279,0,0,0-.1-.155,1.387,1.387,0,0,0-.972-.169,4,4,0,0,0-2.1,1.313,10.569,10.569,0,0,0-2.014,3.761,8.756,8.756,0,0,0,1.27,8.458,6.406,6.406,0,0,0,2.585,1.844,5.736,5.736,0,0,0,4.545-.143c2.7-1.262,3.906-4.072,3.9-6.919a9.794,9.794,0,0,0-1-4.382,4.355,4.355,0,0,0-1.288-1.645c-.614-.418-.812-1-1.507-1.18-.007,0-.011-.006-.018-.008C1130.536,916.043,1129.787,916.688,1129.951,916.778Z" transform="translate(-811.671 -409.416)" fill="#f9b873"/>
      <path id="Trazado_198048" data-name="Trazado 198048" d="M320.811,1018.956l-80.727-3.144-17.172-2.254c-.6.415-1.173.842-1.724,1.286-4.542-3.185-9.251-6.108-13.858-8.9-.887-.538-1.771-1.081-2.657-1.621a.7.7,0,0,0,.03-.208c-.09-1.12.083-2.267.078-3.391s-.056-2.262-.145-3.389a47.392,47.392,0,0,0-.975-6.54,35.474,35.474,0,0,0-4.969-12.32c-.211-.313-.8-.1-.641.284a78.336,78.336,0,0,1,4.046,12.1,49.054,49.054,0,0,1,.972,6.311q.14,1.6.173,3.2a22.96,22.96,0,0,1-.01,3.077c-13.2-8.068-26.226-16.372-38.841-25.323-.057-1.057.089-2.135.084-3.193,0-1.13-.056-2.262-.145-3.389a47.433,47.433,0,0,0-.975-6.54c-.243-1.1-.529-2.182-.847-3.253-.6-.289-1.217-.557-1.835-.813.427,1.363.809,2.737,1.117,4.128a49.091,49.091,0,0,1,.972,6.311q.14,1.6.173,3.2c.016.822.084,1.7.042,2.547q-2.823-2.019-5.618-4.079c-9.136-6.754-17.941-13.928-27.184-20.536-.171-.122-.351.149-.211.288a217.715,217.715,0,0,0,23.348,19.559q8.148,6.107,16.535,11.884l-.011,0a61.115,61.115,0,0,1-10.118,3.558,38.726,38.726,0,0,1-5.244.8c-.865.072-1.732.113-2.6.128a8.243,8.243,0,0,0-2.807.2.8.8,0,0,0-.16,1.441,5.758,5.758,0,0,0,2.622.38c.99.009,1.985-.044,2.971-.124a38.4,38.4,0,0,0,5.407-.836,29.393,29.393,0,0,0,10.469-4.322.706.706,0,0,0,.276-.666q3.564,2.449,7.165,4.844c6.072,4.023,12.236,7.88,18.477,11.621a.394.394,0,0,0-.272.15,12.069,12.069,0,0,1-5.235,3.382c-2.248.854-4.549,1.6-6.848,2.307a43.406,43.406,0,0,1-7.481,1.7,33.148,33.148,0,0,1-3.861.218c-.644,0-1.282,0-1.926-.051a12.171,12.171,0,0,0-1.918-.178.454.454,0,0,0-.223.84,10.491,10.491,0,0,0,3.8.741,20.141,20.141,0,0,0,4.137-.134,45.537,45.537,0,0,0,8.005-1.77c2.466-.753,4.95-1.575,7.329-2.57a9.441,9.441,0,0,0,4.975-3.91.455.455,0,0,0-.009-.443q3.013,1.8,6.049,3.572c5.835,3.4,11.681,6.85,17.27,10.661a38.913,38.913,0,0,0-9.059,12.2c-.283.584-.539,1.145-.773,1.684h-2.07c-.6.3-1.209.581-1.828.841a33.166,33.166,0,0,1-3.654,1.265c-.619.179-1.232.353-1.866.478a12.171,12.171,0,0,0-1.894.354.454.454,0,0,0,.015.869,10.479,10.479,0,0,0,3.857-.326,20.116,20.116,0,0,0,3.942-1.26c1.1-.454,2.158-.975,3.2-1.529a35.688,35.688,0,0,0-1.68,4.91l-.007.026H316.723Z" transform="translate(-42.948 -438.491)" fill="#d4effb"/>
      <path id="Trazado_198049" data-name="Trazado 198049" d="M755,977.326l-.045-.011c-1.654-.408-2.88-.708-3.546-.871l-.573-.139s-9.777-7.7-28.6-5.95l-.847-.273-1.575-.508h0s-16.935,13.786-28.874,13.585-19.463-14.076-19.463-14.076h0l-6.45,1.272s-1.209-2.947-10.259-1.594c-.67.1-1.388.227-2.147.378a89.456,89.456,0,0,0-13.052,3.829c-5.963,2.175-11.413,4.425-16.569,6.648-1.906.821-3.767,1.637-5.6,2.445-9.307,4.1-17.851,7.958-26.973,10.9-3.054.986-6.167,1.88-9.406,2.633-.87.2-1.7.448-2.517.712,15.058-4.252,42.554-1.177,63.451,2.262h0a123.558,123.558,0,0,1,9.953-12.481s-4.578,7.7-5.7,13.2c13.659,2.374,23.581,4.689,23.581,4.689l-.634,5.58c16,.5,25.766,5.784,30.535,9.289q.48.246.933.506l20.061.082c.107-2.28.887-8.163,5.778-15.15,0,0-1.242,10.03,2.86,15.186l22.378.092c4.119-6.066,20.854-15.277,20.854-15.277a36.366,36.366,0,0,0-10.145,3.91,42.565,42.565,0,0,1,8.495-5.033,99.6,99.6,0,0,1,18.138-6.066c-12.908,4.269-32.974,24.855-32.974,24.855l-6.714,5.18-32.931,25.409a24.266,24.266,0,0,1,6.068,3.958l0,0h0a38.868,38.868,0,0,1,5.948,5.628c.039.044.074.08.113.124q.754.86,1.38,1.609c.627.75,1.164,1.417,1.619,2q.227.293.428.558c.268.354.5.672.7.954a19.5,19.5,0,0,1,1.115,1.685l-.006.006c3.872,6,4.162,9.869,4.162,9.869s34.592-30.451,57.677-51.8c1.957-1.81,3.829-3.552,5.592-5.207,4.75-4.457,8.692-8.261,11.285-10.949a44.784,44.784,0,0,0,6.907,3.7,20.138,20.138,0,0,0,3.942,1.26,10.489,10.489,0,0,0,3.857.326.382.382,0,0,0,.17-.106v-.639a.444.444,0,0,0-.155-.124,12.208,12.208,0,0,0-1.894-.354c-.634-.125-1.247-.3-1.866-.478a33.157,33.157,0,0,1-3.654-1.265,42,42,0,0,1-6.282-3.4,18.508,18.508,0,0,0,2.192-2.649c3.249-5.721,3.237-9.524-2.753-13.138,3.428-2.127,6.906-4.176,10.383-6.2q3.037-1.769,6.049-3.572a.456.456,0,0,0-.009.444,9.441,9.441,0,0,0,4.975,3.91c2.38.994,4.864,1.817,7.329,2.569a45.521,45.521,0,0,0,8.005,1.77,20.154,20.154,0,0,0,4.137.134,10.482,10.482,0,0,0,3.8-.742.454.454,0,0,0-.223-.84,12.182,12.182,0,0,0-1.919.178c-.644.053-1.281.054-1.926.051a33.158,33.158,0,0,1-3.861-.217,43.422,43.422,0,0,1-7.482-1.7c-2.3-.7-4.6-1.453-6.848-2.307a12.064,12.064,0,0,1-5.235-3.382.394.394,0,0,0-.273-.15c6.241-3.741,12.405-7.6,18.477-11.621q3.605-2.389,7.165-4.844a.7.7,0,0,0,.276.665,29.385,29.385,0,0,0,10.469,4.322,38.322,38.322,0,0,0,5.407.836c.987.08,1.981.133,2.971.124a5.753,5.753,0,0,0,2.621-.38.8.8,0,0,0-.16-1.441,8.231,8.231,0,0,0-2.807-.2c-.868-.015-1.734-.056-2.6-.128a38.647,38.647,0,0,1-5.244-.8,61.084,61.084,0,0,1-10.118-3.557l-.011,0q8.38-5.783,16.535-11.883a217.684,217.684,0,0,0,23.348-19.56c.14-.139-.04-.41-.211-.288-9.243,6.608-18.048,13.782-27.184,20.536q-2.794,2.065-5.619,4.079c-.041-.849.026-1.725.043-2.547q.032-1.6.173-3.2a49.033,49.033,0,0,1,.972-6.311c.308-1.391.69-2.765,1.117-4.128-.618.255-1.23.524-1.835.813-.318,1.071-.6,2.154-.847,3.253a47.426,47.426,0,0,0-.974,6.54c-.089,1.127-.14,2.258-.145,3.389,0,1.058.141,2.136.084,3.192-12.615,8.951-25.639,17.255-38.841,25.323a23,23,0,0,1-.01-3.077q.033-1.6.173-3.2a49.092,49.092,0,0,1,.972-6.311,78.32,78.32,0,0,1,4.046-12.1c.156-.388-.43-.6-.641-.284a35.481,35.481,0,0,0-4.969,12.32,47.461,47.461,0,0,0-.975,6.54c-.089,1.127-.14,2.258-.145,3.389s.168,2.271.078,3.391a.7.7,0,0,0,.03.208c-.886.54-1.77,1.083-2.658,1.621-2.431,1.473-4.889,2.988-7.336,4.553-.348-.181-.693-.362-1.073-.543-3.3-1.571-13.022-4.4-23.684-7.277-11.075-2.987-23.157-6.021-30.106-7.742Zm-17.3,10.112s-.9-9.661,11.009-11.009C748.711,976.43,740.4,980.474,737.7,987.438Z" transform="translate(-390.655 -425.158)" fill="#d4effb"/>
      <path id="Trazado_198050" data-name="Trazado 198050" d="M1000.163,1075.765l0,0a6.756,6.756,0,0,0-8.245,1.629h0s7.525,13.875,19.463,14.076,28.874-13.585,28.874-13.585h0a5.068,5.068,0,0,0-2.638-1.736l-.034-.011a86.427,86.427,0,0,1-11.4,2.331l-.029.014c-5.008,2.417-11.6,5.468-14.285,6.136C1011.865,1084.616,1003.183,1080.969,1000.163,1075.765Z" transform="translate(-711.086 -533.466)" fill="#9fdcf6"/>
      <path id="Trazado_198051" data-name="Trazado 198051" d="M640.007,1189.082c.17-.5.328-.954.467-1.318a6.23,6.23,0,0,1,.35-.8h0l.037.015a12.187,12.187,0,0,0,2.165.587,18.482,18.482,0,0,0,2.437.293c2.485.136,17.981,1.5,27.006,6.13-4.77-3.505-14.538-8.789-30.535-9.289l.634-5.58s-9.921-2.316-23.581-4.689c1.118-5.5,5.7-13.2,5.7-13.2a123.584,123.584,0,0,0-9.953,12.481h0c-20.9-3.439-48.393-6.514-63.451-2.262a19.885,19.885,0,0,0-7.9,3.915h.011l17.172,2.253,80.727,3.144L637.2,1197.1h.367S638.988,1192.108,640.007,1189.082Z" transform="translate(-363.427 -600.3)" fill="#9fdcf6"/>
      <path id="Trazado_198052" data-name="Trazado 198052" d="M1286.3,1129.286c2.7-6.965,11.009-11.009,11.009-11.009C1285.4,1119.625,1286.3,1129.286,1286.3,1129.286Z" transform="translate(-939.255 -567.005)" fill="#9fdcf6"/>
      <path id="Trazado_198053" data-name="Trazado 198053" d="M1209.936,1210.181a99.6,99.6,0,0,0-18.138,6.066,42.565,42.565,0,0,0-8.495,5.033,36.37,36.37,0,0,1,10.146-3.91s-16.735,9.211-20.854,15.277l-22.378-.092c-4.1-5.156-2.86-15.186-2.86-15.186-4.891,6.987-5.671,12.87-5.778,15.15l-20.061-.082a16.625,16.625,0,0,1,2.851,2c.219.194.428.392.622.595h51.97S1197.028,1214.45,1209.936,1210.181Zm-68.365,23.365h0Z" transform="translate(-811.543 -638.24)" fill="#9fdcf6"/>
      <line id="Lnea_425" data-name="Lnea 425" x1="0.864" transform="translate(329.164 595.306)" fill="none" stroke="#a1d9ef" stroke-linecap="round" stroke-linejoin="round" stroke-width="0"/>
      <path id="Trazado_198054" data-name="Trazado 198054" d="M1248.647,1530.257l-.059.061-.111.114-.06.061c-.111.113-.248.251-.417.42l-.008.008-.281.28-.06.06-.342.339-.027.026c-.386.38-.846.828-1.373,1.334l-.056.053q-.26.25-.541.516l-.045.042q-.839.8-1.857,1.736l-.17.157-.4.365c5.353,4.823,8.3,4.881,10.049,4.211,0,0-.291-3.866-4.162-9.869l-.029.03Z" transform="translate(-905.582 -886.265)" fill="#67b3d0"/>
      <path id="Trazado_198055" data-name="Trazado 198055" d="M1194.445,1460.924l.009-.008.2-.171.025-.021.043-.038.02-.017a24.266,24.266,0,0,0-6.068-3.958s-2.248,2.394.373,8.175c.675-.394,1.373-.858,2.045-1.337C1192.557,1462.5,1193.874,1461.409,1194.445,1460.924Z" transform="translate(-862.9 -829.326)" fill="#67b3d0"/>
      <path id="Trazado_198056" data-name="Trazado 198056" d="M1146.917,1614.235a5.261,5.261,0,0,0,.717.141h0A5.269,5.269,0,0,1,1146.917,1614.235Z" transform="translate(-831.229 -951.423)" fill="#e2ac93"/>
      <path id="Trazado_198057" data-name="Trazado 198057" d="M1157.669,1614.786q-.32.041-.644.06C1157.242,1614.835,1157.456,1614.813,1157.669,1614.786Z" transform="translate(-839.064 -951.85)" fill="#e2ac93"/>
      <path id="Trazado_198058" data-name="Trazado 198058" d="M1139.3,1611.462c-.26-.1-.528-.215-.806-.343C1138.771,1611.247,1139.038,1611.36,1139.3,1611.462Z" transform="translate(-824.7 -949.007)" fill="#e2ac93"/>
      <path id="Trazado_198059" data-name="Trazado 198059" d="M1154.2,1615.077c-.169.005-.338.01-.51.005C1153.862,1615.087,1154.031,1615.081,1154.2,1615.077Z" transform="translate(-836.479 -952.075)" fill="#e2ac93"/>
      <path id="Trazado_198060" data-name="Trazado 198060" d="M1134.989,1609.393c-.293-.137-.6-.29-.9-.451C1134.393,1609.1,1134.7,1609.256,1134.989,1609.393Z" transform="translate(-821.283 -947.32)" fill="#e2ac93"/>
      <path id="Trazado_198061" data-name="Trazado 198061" d="M1143.594,1613.19q-.369-.1-.773-.254Q1143.225,1613.087,1143.594,1613.19Z" transform="translate(-828.055 -950.416)" fill="#e2ac93"/>
      <path id="Trazado_198062" data-name="Trazado 198062" d="M1119.12,1600.04c.315.206.629.408.941.6C1119.75,1600.448,1119.435,1600.246,1119.12,1600.04Z" transform="translate(-809.684 -940.42)" fill="#e2ac93"/>
      <path id="Trazado_198063" data-name="Trazado 198063" d="M1103.73,1589.349q.444.324.9.65Q1104.174,1589.674,1103.73,1589.349Z" transform="translate(-797.755 -932.133)" fill="#e2ac93"/>
      <path id="Trazado_198064" data-name="Trazado 198064" d="M1098.51,1585.481c.285.214.578.432.875.65C1099.089,1585.913,1098.8,1585.7,1098.51,1585.481Z" transform="translate(-793.709 -929.135)" fill="#e2ac93"/>
      <path id="Trazado_198065" data-name="Trazado 198065" d="M1124.238,1603.293q.416.257.824.5Q1124.654,1603.55,1124.238,1603.293Z" transform="translate(-813.651 -942.941)" fill="#e2ac93"/>
      <path id="Trazado_198066" data-name="Trazado 198066" d="M1108.943,1593.1q.38.269.764.535Q1109.323,1593.368,1108.943,1593.1Z" transform="translate(-801.796 -935.04)" fill="#e2ac93"/>
      <path id="Trazado_198067" data-name="Trazado 198067" d="M1128.974,1606.131q.465.268.913.508Q1129.438,1606.4,1128.974,1606.131Z" transform="translate(-817.322 -945.141)" fill="#e2ac93"/>
      <path id="Trazado_198068" data-name="Trazado 198068" d="M1113.611,1596.357q.459.315.921.619Q1114.071,1596.672,1113.611,1596.357Z" transform="translate(-805.414 -937.565)" fill="#e2ac93"/>
      <path id="Trazado_198069" data-name="Trazado 198069" d="M1089.807,1578.8q.393.308.814.633Q1090.2,1579.1,1089.807,1578.8Z" transform="translate(-786.963 -923.955)" fill="#e2ac93"/>
      <path id="Trazado_198070" data-name="Trazado 198070" d="M1094.307,1582.284q.367.282.753.573Q1094.675,1582.566,1094.307,1582.284Z" transform="translate(-790.451 -926.657)" fill="#e2ac93"/>
      <path id="Trazado_198071" data-name="Trazado 198071" d="M1093.744,1513.5c1.323-.9,2.771-2.062,4.449-3.46.926-.771,1.915-1.607,3.005-2.525,1.981-1.669,3.754-3.234,5.294-4.633-.209.19-.419.381-.637.577-.149-7.083-4.468-12.83-7.969-16.338h0c-.671.479-1.37.943-2.045,1.337a9.622,9.622,0,0,1-2.029.945c-2.752.8-6.583-2.235-9.456-1.916a18.859,18.859,0,0,0-6.341,2.478s-.738.726-1.794,1.755c-.825.8-1.84,1.787-2.877,2.781-.712.682-1.426,1.36-2.088,1.979a30.409,30.409,0,0,1-2.861,2.5c-1.117.638-1.441,5.391.8,6.048,0,0,1.292,1.1,3.195,2.593-.868-.682-1.612-1.284-2.159-1.732a27.106,27.106,0,0,1,5.594.817c3.07.843,7.936,7.152,13.241,9q-.345.074-.7.122a9.658,9.658,0,0,0,2.763-.811A17.7,17.7,0,0,0,1093.744,1513.5Z" transform="translate(-769.696 -852.893)" fill="#e2ac93"/>
      <path id="Trazado_198072" data-name="Trazado 198072" d="M1246.706,1501.052q-.628-.75-1.38-1.609c-.039-.044-.074-.08-.113-.124.039.044.074.08.113.124Q1246.08,1500.3,1246.706,1501.052Z" transform="translate(-907.419 -862.351)" fill="#e2ac93"/>
      <path id="Trazado_198073" data-name="Trazado 198073" d="M1241.873,1554.266l.218-.2.4-.365Z" transform="translate(-904.83 -904.504)" fill="#e2ac93"/>
      <path id="Trazado_198074" data-name="Trazado 198074" d="M1245.369,1547.019q1.016-.937,1.857-1.736C1246.667,1545.813,1246.046,1546.4,1245.369,1547.019Z" transform="translate(-907.539 -897.978)" fill="#e2ac93"/>
      <path id="Trazado_198075" data-name="Trazado 198075" d="M1253.825,1543.314c.188-.178.368-.35.541-.516Q1254.106,1543.047,1253.825,1543.314Z" transform="translate(-914.094 -896.052)" fill="#e2ac93"/>
      <path id="Trazado_198076" data-name="Trazado 198076" d="M1256.479,1537.965c.527-.506.987-.953,1.373-1.334C1257.465,1537.011,1257.006,1537.459,1256.479,1537.965Z" transform="translate(-916.151 -891.272)" fill="#e2ac93"/>
      <path id="Trazado_198077" data-name="Trazado 198077" d="M1262.7,1535.349l.342-.339Z" transform="translate(-920.974 -890.015)" fill="#e2ac93"/>
      <path id="Trazado_198078" data-name="Trazado 198078" d="M1264.771,1533.5l-.281.28Z" transform="translate(-922.36 -888.843)" fill="#e2ac93"/>
      <path id="Trazado_198079" data-name="Trazado 198079" d="M1268.651,1530.361l.053-.054Z" transform="translate(-925.585 -886.369)" fill="#e2ac93"/>
      <path id="Trazado_198080" data-name="Trazado 198080" d="M1266.189,1531.595c-.112.113-.248.251-.417.421C1265.941,1531.846,1266.078,1531.708,1266.189,1531.595Z" transform="translate(-923.354 -887.368)" fill="#e2ac93"/>
      <path id="Trazado_198081" data-name="Trazado 198081" d="M1218.684,1474.295h0l0,0-.02.017Z" transform="translate(-886.837 -842.955)" fill="#e2ac93"/>
      <path id="Trazado_198082" data-name="Trazado 198082" d="M1217.438,1475.409l-.01.008Z" transform="translate(-885.883 -843.819)" fill="#e2ac93"/>
      <path id="Trazado_198083" data-name="Trazado 198083" d="M1267.894,1530.932l.111-.114Z" transform="translate(-924.999 -886.766)" fill="#e2ac93"/>
      <path id="Trazado_198084" data-name="Trazado 198084" d="M1218.381,1474.556l-.025.021Z" transform="translate(-886.602 -843.157)" fill="#e2ac93"/>
      <path id="Trazado_198085" data-name="Trazado 198085" d="M1211.977,1492.154l.17-.157c.677-.624,1.3-1.206,1.857-1.736l.045-.042q.281-.267.541-.516l.056-.053c.527-.506.986-.953,1.373-1.334l.026-.026.342-.339.06-.06.281-.28.008-.007.417-.421.06-.061.111-.114.059-.06.053-.055.029-.03.006-.006a19.5,19.5,0,0,0-1.115-1.685c-.2-.282-.436-.6-.7-.954q-.2-.266-.428-.559c-.455-.586-.991-1.253-1.619-2q-.627-.75-1.38-1.609c-.039-.044-.074-.08-.113-.124a38.856,38.856,0,0,0-5.948-5.628h0l-.024.021-.043.038-.025.021-.2.171-.01.008c-.571.485-1.889,1.58-3.354,2.625h0c3.5,3.509,7.821,9.255,7.969,16.338.218-.2.428-.387.637-.577l.247-.224Z" transform="translate(-874.318 -842.955)" fill="#c58d7e"/>
      <path id="Trazado_198086" data-name="Trazado 198086" d="M1085.121,1571.377a27.1,27.1,0,0,0-5.594-.817c.547.448,1.291,1.05,2.159,1.732l.153.12q.392.307.814.633l.2.151q.367.282.753.573l.192.146c.285.214.579.432.875.65l.3.219q.444.324.9.65l.274.194q.379.269.764.535l.286.2q.46.315.921.619l.318.209c.315.206.629.408.941.6.07.044.139.085.21.129q.415.257.824.5c.08.047.161.1.241.142q.464.268.913.508l.061.034.175.09c.308.161.612.314.9.451l.087.039c.277.128.545.241.806.343l.168.066q.4.151.773.254c.05.014.1.025.148.038a5.279,5.279,0,0,0,.717.14h0c.274.03.541.047.805.054.172,0,.341,0,.51-.005.08,0,.161,0,.24-.006q.325-.018.644-.06l.066-.008c.233-.032.465-.072.7-.122C1093.057,1578.529,1088.191,1572.22,1085.121,1571.377Z" transform="translate(-778.995 -917.57)" fill="#c58d7e"/>
      <path id="Trazado_198087" data-name="Trazado 198087" d="M964.625,1285.063c-1.019,3.026-2.438,8.014-2.438,8.014h0S963.606,1288.089,964.625,1285.063Z" transform="translate(-688.045 -696.281)" fill="#e2ac93"/>
      <path id="Trazado_198088" data-name="Trazado 198088" d="M976.661,1275.66l.037.015-.037-.015Z" transform="translate(-699.264 -688.993)" fill="#e2ac93"/>
      <path id="Trazado_198089" data-name="Trazado 198089" d="M986.451,1278.337h0c.044,2.045.568,5.631,3.523,7.228,4.254,2.3,19.478,1.455,19.478,1.455a40.6,40.6,0,0,1,9.551-.312q.352.275.675.56a16.62,16.62,0,0,0-2.851-2q-.454-.259-.933-.506c-9.026-4.635-24.521-5.994-27.006-6.13A18.5,18.5,0,0,1,986.451,1278.337Z" transform="translate(-706.852 -691.068)" fill="#e2ac93"/>
      <path id="Trazado_198090" data-name="Trazado 198090" d="M1000.872,1285.194q-.323-.286-.675-.56a40.594,40.594,0,0,0-9.551.311s-15.224.843-19.478-1.455c-2.955-1.6-3.478-5.183-3.523-7.228h0a12.2,12.2,0,0,1-2.165-.587l-.037-.015h0a6.222,6.222,0,0,0-.35.8c-.139.363-.3.813-.467,1.318-1.019,3.026-2.438,8.014-2.438,8.014h39.307C1001.3,1285.586,1001.091,1285.388,1000.872,1285.194Z" transform="translate(-688.045 -688.993)" fill="#c58d7e"/>
    </g>
  </g>
</svg>
