<svg xmlns="http://www.w3.org/2000/svg" xmlns:xlink="http://www.w3.org/1999/xlink" width="101" height="101" viewBox="0 0 101 101">
  <defs>
    <linearGradient id="linear-gradient" x1="0.5" y1="1" x2="0.5" gradientUnits="objectBoundingBox">
      <stop offset="0" stop-color="#9f2fff"/>
      <stop offset="1" stop-color="#0bb1d3"/>
    </linearGradient>
  </defs>
  <g id="Grupo_136136" data-name="Grupo 136136" transform="translate(-750 -1779)">
    <circle id="Elipse_1147" data-name="Elipse 1147" cx="50.5" cy="50.5" r="50.5" transform="translate(750 1779)" fill="#63f2e4"/>
    <path id="simulator" d="M59,8a6.978,6.978,0,0,0-5.027,2.136A10.913,10.913,0,0,0,43.1,0H40a7.007,7.007,0,0,0-7,7V8h2.172A2.986,2.986,0,0,0,35,9v4a5.991,5.991,0,0,0,2.295,4.714A10.014,10.014,0,0,0,31,27H24.409A3.826,3.826,0,0,0,20,26.466V23H18v7.171A1.831,1.831,0,0,1,16.172,32H16V28H8v6.922l-.354,2.24L5.6,36.479l.386-2.315-1.973-.329-.334,2L2,35.279V24H8V0H0V62H16V51.133L11.565,50.5,13.855,36H16V34h.172A3.819,3.819,0,0,0,19,32.749,3.819,3.819,0,0,0,21.828,34H31v4.034a8.968,8.968,0,0,0-8.1,7.487L21.137,56.094A4.007,4.007,0,0,0,18,60a2,2,0,0,0,2,2h6a2,2,0,0,0,2-2V57.917a2.987,2.987,0,0,0,2.265-2.424l.713-4.279A3,3,0,0,0,32,51.825V62H62V11a3,3,0,0,0-3-3ZM2,2H6V22H2ZM7.33,39.164,5.673,49.657,2,49.133V37.387ZM14,60H2V51.153l12,1.714ZM9.585,50.216,7.653,49.94,9.855,36H11.83ZM14,34H10V30h4ZM52.446,44.372A2.982,2.982,0,0,0,51,44H45.97c.032-.027.064-.052.095-.079A8.5,8.5,0,0,0,48.91,38.7l1.712-11.985A2.01,2.01,0,0,1,52.6,25a2,2,0,0,1,1.984,2.248ZM51,50H33a1,1,0,0,1-1-1V46H51a1,1,0,0,1,1,1v2A1,1,0,0,1,51,50ZM37,33.811a8.951,8.951,0,0,0,5.183-3.188l1.6-2-1.562-1.249-1.6,2-.015.018a5.729,5.729,0,0,1-2.376-3.228l-.357-1.248.136-.163a4.867,4.867,0,0,1,7.867.536L48.261,29.1,46.99,38H37Zm12.984-9.826a4,4,0,0,0-1.269,2.073l-1.144-1.83A6.933,6.933,0,0,0,46.592,23H49a5.039,5.039,0,0,0,.981.984ZM53,23a3,3,0,1,1,3-3A3,3,0,0,1,53,23ZM40,2h3.1a8.9,8.9,0,0,1,8.132,12.514l-.446,1A5.033,5.033,0,0,0,49,17H46V13.829a3,3,0,0,0-.129-5.7A3.005,3.005,0,0,0,43,6H35.1A5.007,5.007,0,0,1,40,2ZM37,13V9a1,1,0,0,1,1-1h5a1,1,0,0,1,1,1v1h1a1,1,0,0,1,0,2H44v5H41A4,4,0,0,1,37,13Zm4,6h7.1a5.019,5.019,0,0,0,0,2H42v.008c-.084,0-.167-.008-.252-.008a6.849,6.849,0,0,0-5.276,2.471L33.532,27H33A8.009,8.009,0,0,1,41,19ZM20,30.172v-.343a1.828,1.828,0,0,1,3.121-1.293l.465.465h9.8l.724,1.447,1.789-.894-.707-1.415,1.138-1.366a7.718,7.718,0,0,0,2.78,4.008A6.967,6.967,0,0,1,35.155,32H21.828A1.831,1.831,0,0,1,20,30.172ZM35,34v4H33V34ZM20,60a2,2,0,0,1,2-2h4v2Zm9.707-17.707-1.414,1.414,1.636,1.636-1.637,9.821a1,1,0,0,1-.986.836H23.181l1.692-10.151A6.978,6.978,0,0,1,31.777,40H46.491a6.539,6.539,0,0,1-6,4H31.414ZM34,52H50v8H34Zm26,8H52V51.828A3,3,0,0,0,54,49v-.938L56.571,27.5a4,4,0,0,0-.97-3.143l-.05-.054A5,5,0,0,0,54,15.1V15a5.006,5.006,0,0,1,5-5,1,1,0,0,1,1,1Z" transform="translate(770 1799)" fill="url(#linear-gradient)"/>
  </g>
</svg>
