<svg id="Grupo_4400" data-name="Grupo 4400" xmlns="http://www.w3.org/2000/svg" width="64.098" height="74.976" viewBox="0 0 64.098 74.976">
  <g id="Grupo_1192" data-name="Grupo 1192">
    <path id="Trazado_722" data-name="Trazado 722" d="M1507.3,662.327h-31.539a6.176,6.176,0,0,0-6.124,6.213V731.09a6.177,6.177,0,0,0,6.124,6.213H1519.8a6.177,6.177,0,0,0,6.124-6.213V681.221Zm15.183,68.763a2.707,2.707,0,0,1-2.684,2.723h-44.038a2.707,2.707,0,0,1-2.684-2.723V668.54a2.707,2.707,0,0,1,2.684-2.723h30.114l.016.017v16.821h16.581l.011.011Z" transform="translate(-1461.823 -662.327)" fill="#2c04bf"/>
    <path id="Trazado_723" data-name="Trazado 723" d="M1474.748,958.263a2.411,2.411,0,0,1-2.3,2.494h-50.613a2.411,2.411,0,0,1-2.3-2.494V933.321a2.411,2.411,0,0,1,2.3-2.494h50.613a2.411,2.411,0,0,1,2.3,2.494Z" transform="translate(-1419.534 -896.931)" fill="#2c04bf"/>
    <path id="Trazado_198717" data-name="Trazado 198717" d="M-10.465-9.8h-4.48V0h2.772V-2.562h1.708c2.674,0,4.354-1.386,4.354-3.612S-7.791-9.8-10.465-9.8Zm-.168,5.054h-1.54v-2.87h1.54c1.148,0,1.722.532,1.722,1.442S-9.485-4.746-10.633-4.746ZM-4.207,0H.427C3.675,0,5.9-1.89,5.9-4.9S3.675-9.8.427-9.8H-4.207Zm2.772-2.212V-7.588H.315A2.548,2.548,0,0,1,3.1-4.9,2.548,2.548,0,0,1,.315-2.212ZM15.6-7.658V-9.8H7.917V0h2.772V-3.36h4.326V-5.5H10.689V-7.658Z" transform="translate(20.567 51.324)" fill="#13c4ff"/>
  </g>
</svg>
