<svg xmlns="http://www.w3.org/2000/svg" xmlns:xlink="http://www.w3.org/1999/xlink" width="570.165" height="617.121" viewBox="0 0 570.165 617.121">
  <defs>
    <linearGradient id="linear-gradient" x1="0.452" y1="0.075" x2="0.723" y2="2.489" gradientUnits="objectBoundingBox">
      <stop offset="0" stop-color="#d09def"/>
      <stop offset="0.423" stop-color="#28c7c3"/>
      <stop offset="0.612" stop-color="#4bf1d1"/>
      <stop offset="0.736" stop-color="#00c1b2"/>
      <stop offset="1" stop-color="#18b3ff"/>
    </linearGradient>
    <filter id="Trazado_197815" x="0" y="203.977" width="177.709" height="206.35" filterUnits="userSpaceOnUse">
      <feOffset dy="3" input="SourceAlpha"/>
      <feGaussianBlur stdDeviation="3" result="blur"/>
      <feFlood flood-opacity="0.161"/>
      <feComposite operator="in" in2="blur"/>
      <feComposite in="SourceGraphic"/>
    </filter>
    <filter id="Trazado_197822" x="78.868" y="410.77" width="177.709" height="206.352" filterUnits="userSpaceOnUse">
      <feOffset dy="3" input="SourceAlpha"/>
      <feGaussianBlur stdDeviation="3" result="blur-2"/>
      <feFlood flood-opacity="0.161"/>
      <feComposite operator="in" in2="blur-2"/>
      <feComposite in="SourceGraphic"/>
    </filter>
    <filter id="Trazado_197823" x="310.065" y="410.77" width="177.709" height="206.352" filterUnits="userSpaceOnUse">
      <feOffset dy="3" input="SourceAlpha"/>
      <feGaussianBlur stdDeviation="3" result="blur-3"/>
      <feFlood flood-opacity="0.161"/>
      <feComposite operator="in" in2="blur-3"/>
      <feComposite in="SourceGraphic"/>
    </filter>
    <filter id="Trazado_197824" x="78.868" y="0" width="177.709" height="206.352" filterUnits="userSpaceOnUse">
      <feOffset dy="3" input="SourceAlpha"/>
      <feGaussianBlur stdDeviation="3" result="blur-4"/>
      <feFlood flood-opacity="0.161"/>
      <feComposite operator="in" in2="blur-4"/>
      <feComposite in="SourceGraphic"/>
    </filter>
    <filter id="Trazado_197825" x="310.065" y="0" width="177.709" height="206.352" filterUnits="userSpaceOnUse">
      <feOffset dy="3" input="SourceAlpha"/>
      <feGaussianBlur stdDeviation="3" result="blur-5"/>
      <feFlood flood-opacity="0.161"/>
      <feComposite operator="in" in2="blur-5"/>
      <feComposite in="SourceGraphic"/>
    </filter>
    <linearGradient id="linear-gradient-6" x1="0.566" y1="1.134" x2="0.173" y2="-2.651" xlink:href="#linear-gradient"/>
    <filter id="Trazado_197826" x="392.455" y="203.977" width="177.709" height="206.35" filterUnits="userSpaceOnUse">
      <feOffset dy="3" input="SourceAlpha"/>
      <feGaussianBlur stdDeviation="3" result="blur-6"/>
      <feFlood flood-opacity="0.161"/>
      <feComposite operator="in" in2="blur-6"/>
      <feComposite in="SourceGraphic"/>
    </filter>
  </defs>
  <g id="Grupo_136769" data-name="Grupo 136769" transform="translate(-505.013 -19823.551)">
    <g transform="matrix(1, 0, 0, 1, 505.01, 19823.55)" filter="url(#Trazado_197815)">
      <path id="Trazado_197815-2" data-name="Trazado 197815" d="M38.767,230.213v93.03l78.868,46.515L196.5,323.243v-93.03L117.635,183.7Z" transform="translate(-28.78 27.42)" stroke="#fff" stroke-miterlimit="10" stroke-width="1.973" fill="url(#linear-gradient)"/>
    </g>
    <path id="Trazado_197816" data-name="Trazado 197816" d="M384.552,340.833v-30.9l-17.991,13.153L347.97,309.93v30.9l18.59,13.152Z" transform="translate(559.485 19884.963)" fill="#bebeff"/>
    <path id="Trazado_197817" data-name="Trazado 197817" d="M249.408,421.268h30.9l-13.153-17.991,13.153-18.591h-30.9l-13.152,18.591Z" transform="translate(529.406 19905.09)" fill="#bebeff"/>
    <path id="Trazado_197818" data-name="Trazado 197818" d="M267.16,100.965h-30.9l13.153,17.991-13.153,18.591h30.9l13.152-18.591Z" transform="translate(529.406 19828.699)" fill="#bebeff"/>
    <path id="Trazado_197819" data-name="Trazado 197819" d="M134.22,323.082v30.9l17.991-13.153L170.8,353.985v-30.9L152.212,309.93Z" transform="translate(501.934 19884.963)" fill="#bebeff"/>
    <path id="Trazado_197820" data-name="Trazado 197820" d="M384.552,202.987v-30.9l-17.991,13.153L347.97,172.083v30.9l18.591,13.152Z" transform="translate(559.485 19847.848)" fill="#bebeff"/>
    <path id="Trazado_197821" data-name="Trazado 197821" d="M134.22,181.26v30.9l17.991-13.153L170.8,212.163v-30.9l-18.591-13.152Z" transform="translate(501.934 19846.777)" fill="#bebeff"/>
    <g transform="matrix(1, 0, 0, 1, 505.01, 19823.55)" filter="url(#Trazado_197822)">
      <path id="Trazado_197822-2" data-name="Trazado 197822" d="M100.9,393.14v93.03l78.868,46.515L258.64,486.17V393.14l-78.868-46.515Z" transform="translate(-12.05 71.29)" stroke="#fff" stroke-miterlimit="10" stroke-width="1.973" fill="url(#linear-gradient)"/>
    </g>
    <g transform="matrix(1, 0, 0, 1, 505.01, 19823.55)" filter="url(#Trazado_197823)">
      <path id="Trazado_197823-2" data-name="Trazado 197823" d="M283.057,393.14v93.03l78.868,46.515,78.868-46.515V393.14l-78.868-46.515Z" transform="translate(36.99 71.29)" stroke="#fff" stroke-miterlimit="10" stroke-width="1.973" fill="url(#linear-gradient)"/>
    </g>
    <g transform="matrix(1, 0, 0, 1, 505.01, 19823.55)" filter="url(#Trazado_197824)">
      <path id="Trazado_197824-2" data-name="Trazado 197824" d="M100.9,69.507v93.03l78.868,46.515,78.868-46.515V69.507L179.772,22.992Z" transform="translate(-12.05 -15.85)" stroke="#fff" stroke-miterlimit="10" stroke-width="1.973" fill="url(#linear-gradient)"/>
    </g>
    <g transform="matrix(1, 0, 0, 1, 505.01, 19823.55)" filter="url(#Trazado_197825)">
      <path id="Trazado_197825-2" data-name="Trazado 197825" d="M283.057,69.507v93.03l78.868,46.515,78.868-46.515V69.507L361.925,22.992Z" transform="translate(36.99 -15.85)" stroke="#fff" stroke-miterlimit="10" stroke-width="1.973" fill="url(#linear-gradient)"/>
    </g>
    <g transform="matrix(1, 0, 0, 1, 505.01, 19823.55)" filter="url(#Trazado_197826)">
      <path id="Trazado_197826-2" data-name="Trazado 197826" d="M347.97,230.213v93.03l78.868,46.515,78.868-46.515v-93.03L426.838,183.7Z" transform="translate(54.47 27.42)" stroke="#fff" stroke-miterlimit="10" stroke-width="1.973" fill="url(#linear-gradient-6)"/>
    </g>
    <path id="Trazado_198718" data-name="Trazado 198718" d="M-40.977-3.662a1.717,1.717,0,0,0-.659-1.445,7.931,7.931,0,0,0-2.378-1.025,11.483,11.483,0,0,1-2.734-1.152,3.649,3.649,0,0,1-1.943-3.184,3.465,3.465,0,0,1,1.4-2.832,5.672,5.672,0,0,1,3.638-1.113,6.145,6.145,0,0,1,2.646.547A4.344,4.344,0,0,1-39.18-12.31a4,4,0,0,1,.664,2.241h-2.461a2.228,2.228,0,0,0-.7-1.743,2.882,2.882,0,0,0-2-.63,3.01,3.01,0,0,0-1.88.518,1.723,1.723,0,0,0-.669,1.445,1.559,1.559,0,0,0,.723,1.3,8.325,8.325,0,0,0,2.383,1.016,10.961,10.961,0,0,1,2.666,1.123,4.241,4.241,0,0,1,1.475,1.445,3.764,3.764,0,0,1,.469,1.909A3.384,3.384,0,0,1-39.868-.854,5.909,5.909,0,0,1-43.564.2,6.946,6.946,0,0,1-46.4-.376a4.766,4.766,0,0,1-2.012-1.577A3.93,3.93,0,0,1-49.131-4.3h2.471a2.3,2.3,0,0,0,.8,1.875,3.507,3.507,0,0,0,2.295.664,3.047,3.047,0,0,0,1.938-.522A1.686,1.686,0,0,0-40.977-3.662ZM-34.043,0h-2.373V-10.566h2.373Zm-2.52-13.311a1.259,1.259,0,0,1,.347-.908,1.309,1.309,0,0,1,.991-.361,1.326,1.326,0,0,1,1,.361,1.25,1.25,0,0,1,.352.908,1.221,1.221,0,0,1-.352.894,1.336,1.336,0,0,1-1,.356,1.32,1.32,0,0,1-.991-.356A1.23,1.23,0,0,1-36.562-13.311Zm7.334,2.744.068,1.1a3.8,3.8,0,0,1,3.047-1.3,2.921,2.921,0,0,1,2.9,1.621,3.748,3.748,0,0,1,3.242-1.621,3.294,3.294,0,0,1,2.6.967,4.257,4.257,0,0,1,.874,2.852V0h-2.373V-6.875a2.1,2.1,0,0,0-.439-1.475,1.924,1.924,0,0,0-1.455-.469,1.976,1.976,0,0,0-1.323.435A2.292,2.292,0,0,0-22.8-7.246L-22.793,0h-2.373V-6.953a1.693,1.693,0,0,0-1.9-1.865,2.089,2.089,0,0,0-2.021,1.162V0h-2.373V-10.566ZM-7.656-1.035A3.68,3.68,0,0,1-10.625.2a3.28,3.28,0,0,1-2.6-1.006,4.279,4.279,0,0,1-.884-2.91v-6.846h2.373V-3.75q0,2.012,1.67,2.012a2.345,2.345,0,0,0,2.334-1.24v-7.588h2.373V0H-7.6ZM-.42,0H-2.793V-15H-.42Zm8.9,0A3.662,3.662,0,0,1,8.2-.986,3.694,3.694,0,0,1,5.43.2a3.728,3.728,0,0,1-2.6-.908A2.906,2.906,0,0,1,1.826-2.959,3,3,0,0,1,3.081-5.552a6.081,6.081,0,0,1,3.589-.9H8.125v-.693a1.851,1.851,0,0,0-.459-1.313,1.819,1.819,0,0,0-1.4-.493,2.09,2.09,0,0,0-1.328.405,1.254,1.254,0,0,0-.518,1.03H2.051a2.634,2.634,0,0,1,.576-1.626,3.839,3.839,0,0,1,1.567-1.187,5.506,5.506,0,0,1,2.212-.43,4.434,4.434,0,0,1,2.959.933A3.326,3.326,0,0,1,10.5-7.207v4.766a5.4,5.4,0,0,0,.4,2.275V0ZM5.869-1.709a2.7,2.7,0,0,0,1.323-.342,2.284,2.284,0,0,0,.933-.918V-4.961H6.846A3.5,3.5,0,0,0,4.863-4.5,1.487,1.487,0,0,0,4.2-3.2a1.387,1.387,0,0,0,.454,1.089A1.758,1.758,0,0,0,5.869-1.709Zm11.455.01A2.146,2.146,0,0,0,18.8-2.217,1.768,1.768,0,0,0,19.424-3.5H21.66a3.486,3.486,0,0,1-.615,1.841A4.035,4.035,0,0,1,19.482-.3a4.656,4.656,0,0,1-2.129.5A4.505,4.505,0,0,1,13.838-1.24a5.694,5.694,0,0,1-1.3-3.965v-.244a5.6,5.6,0,0,1,1.289-3.862,4.464,4.464,0,0,1,3.516-1.45,4.341,4.341,0,0,1,3.071,1.1A3.935,3.935,0,0,1,21.66-6.777H19.424a2.173,2.173,0,0,0-.62-1.494,2,2,0,0,0-1.479-.586,2.088,2.088,0,0,0-1.777.835,4.261,4.261,0,0,0-.635,2.534v.381a4.331,4.331,0,0,0,.62,2.563A2.086,2.086,0,0,0,17.324-1.7ZM25.977,0H23.6V-10.566h2.373Zm-2.52-13.311a1.259,1.259,0,0,1,.347-.908,1.309,1.309,0,0,1,.991-.361,1.326,1.326,0,0,1,1,.361,1.25,1.25,0,0,1,.352.908,1.221,1.221,0,0,1-.352.894,1.336,1.336,0,0,1-1,.356,1.32,1.32,0,0,1-.991-.356A1.23,1.23,0,0,1,23.457-13.311Zm4.658,7.93a6.231,6.231,0,0,1,.615-2.8,4.493,4.493,0,0,1,1.729-1.914,4.87,4.87,0,0,1,2.559-.669,4.615,4.615,0,0,1,3.472,1.377,5.416,5.416,0,0,1,1.44,3.652l.01.557a6.286,6.286,0,0,1-.6,2.793,4.439,4.439,0,0,1-1.719,1.9A4.906,4.906,0,0,1,33.037.2a4.584,4.584,0,0,1-3.579-1.489,5.7,5.7,0,0,1-1.343-3.97Zm2.373.205a4.258,4.258,0,0,0,.674,2.554,2.191,2.191,0,0,0,1.875.923,2.167,2.167,0,0,0,1.87-.937,4.7,4.7,0,0,0,.669-2.744,4.2,4.2,0,0,0-.688-2.539,2.2,2.2,0,0,0-1.87-.937,2.178,2.178,0,0,0-1.846.923A4.614,4.614,0,0,0,30.488-5.176ZM33.672-15h2.705l-2.705,2.959-1.9,0Zm8.477,4.434.068,1.221a3.8,3.8,0,0,1,3.076-1.416q3.3,0,3.359,3.779V0H46.279V-6.846a2.176,2.176,0,0,0-.435-1.489,1.828,1.828,0,0,0-1.421-.483,2.287,2.287,0,0,0-2.139,1.3V0H39.912V-10.566ZM-23.618,22.3a2.146,2.146,0,0,0,1.475-.518,1.768,1.768,0,0,0,.625-1.279h2.236a3.486,3.486,0,0,1-.615,1.841A4.035,4.035,0,0,1-21.46,23.7a4.656,4.656,0,0,1-2.129.5A4.505,4.505,0,0,1-27.1,22.76a5.694,5.694,0,0,1-1.3-3.965v-.244a5.6,5.6,0,0,1,1.289-3.862,4.464,4.464,0,0,1,3.516-1.45,4.341,4.341,0,0,1,3.071,1.1,3.935,3.935,0,0,1,1.245,2.886h-2.236a2.173,2.173,0,0,0-.62-1.494,2,2,0,0,0-1.479-.586,2.088,2.088,0,0,0-1.777.835,4.261,4.261,0,0,0-.635,2.534v.381a4.331,4.331,0,0,0,.62,2.563A2.086,2.086,0,0,0-23.618,22.3Zm8.652,1.7h-2.373V9h2.373Zm5.137,0H-12.2V13.434h2.373Zm-.449-14.932h2.705l-2.705,2.959-1.9,0Zm5.352,4.365.068,1.221a3.8,3.8,0,0,1,3.076-1.416q3.3,0,3.359,3.779V24H-.8V17.154a2.176,2.176,0,0,0-.435-1.489,1.828,1.828,0,0,0-1.421-.483,2.287,2.287,0,0,0-2.139,1.3V24H-7.163V13.434ZM6.519,24H4.146V13.434H6.519ZM4,10.689a1.259,1.259,0,0,1,.347-.908,1.309,1.309,0,0,1,.991-.361,1.326,1.326,0,0,1,1,.361,1.25,1.25,0,0,1,.352.908,1.221,1.221,0,0,1-.352.894,1.336,1.336,0,0,1-1,.356,1.32,1.32,0,0,1-.991-.356A1.23,1.23,0,0,1,4,10.689ZM13.442,22.3a2.146,2.146,0,0,0,1.475-.518,1.768,1.768,0,0,0,.625-1.279h2.236a3.486,3.486,0,0,1-.615,1.841A4.035,4.035,0,0,1,15.6,23.7a4.656,4.656,0,0,1-2.129.5A4.505,4.505,0,0,1,9.956,22.76a5.694,5.694,0,0,1-1.3-3.965v-.244a5.6,5.6,0,0,1,1.289-3.862,4.464,4.464,0,0,1,3.516-1.45,4.341,4.341,0,0,1,3.071,1.1,3.935,3.935,0,0,1,1.245,2.886H15.542a2.173,2.173,0,0,0-.62-1.494,2,2,0,0,0-1.479-.586,2.088,2.088,0,0,0-1.777.835,4.261,4.261,0,0,0-.635,2.534v.381a4.331,4.331,0,0,0,.62,2.563A2.086,2.086,0,0,0,13.442,22.3ZM25.884,24a3.662,3.662,0,0,1-.273-.986,3.992,3.992,0,0,1-5.371.273,2.906,2.906,0,0,1-1.006-2.246,3,3,0,0,1,1.255-2.593,6.081,6.081,0,0,1,3.589-.9h1.455v-.693a1.851,1.851,0,0,0-.459-1.313,1.819,1.819,0,0,0-1.4-.493,2.09,2.09,0,0,0-1.328.405,1.254,1.254,0,0,0-.518,1.03H19.458a2.634,2.634,0,0,1,.576-1.626A3.839,3.839,0,0,1,21.6,13.668a5.506,5.506,0,0,1,2.212-.43,4.434,4.434,0,0,1,2.959.933,3.326,3.326,0,0,1,1.133,2.622v4.766a5.4,5.4,0,0,0,.4,2.275V24Zm-2.607-1.709a2.7,2.7,0,0,0,1.323-.342,2.284,2.284,0,0,0,.933-.918V19.039H24.253a3.5,3.5,0,0,0-1.982.459,1.487,1.487,0,0,0-.664,1.3,1.387,1.387,0,0,0,.454,1.089A1.758,1.758,0,0,0,23.276,22.291Z" transform="translate(902.805 19916.9)" fill="#fff"/>
    <path id="Trazado_198719" data-name="Trazado 198719" d="M-38.535-5.273V0h-2.471V-14.219h5.439a5.5,5.5,0,0,1,3.784,1.242,4.175,4.175,0,0,1,1.4,3.285,4.036,4.036,0,0,1-1.372,3.256A5.766,5.766,0,0,1-35.6-5.273Zm0-1.992h2.969a2.924,2.924,0,0,0,2.012-.62,2.279,2.279,0,0,0,.693-1.792,2.459,2.459,0,0,0-.7-1.841,2.71,2.71,0,0,0-1.934-.708h-3.037ZM-25.928,0H-28.3V-15h2.373Zm8.9,0A3.662,3.662,0,0,1-17.3-.986,3.694,3.694,0,0,1-20.078.2a3.728,3.728,0,0,1-2.6-.908,2.906,2.906,0,0,1-1.006-2.246,3,3,0,0,1,1.255-2.593,6.081,6.081,0,0,1,3.589-.9h1.455v-.693a1.851,1.851,0,0,0-.459-1.313,1.819,1.819,0,0,0-1.4-.493,2.09,2.09,0,0,0-1.328.405,1.254,1.254,0,0,0-.518,1.03h-2.373a2.634,2.634,0,0,1,.576-1.626,3.839,3.839,0,0,1,1.567-1.187,5.506,5.506,0,0,1,2.212-.43,4.434,4.434,0,0,1,2.959.933A3.326,3.326,0,0,1-15.01-7.207v4.766a5.4,5.4,0,0,0,.4,2.275V0Zm-2.607-1.709a2.7,2.7,0,0,0,1.323-.342,2.284,2.284,0,0,0,.933-.918V-4.961h-1.279a3.5,3.5,0,0,0-1.982.459,1.487,1.487,0,0,0-.664,1.3,1.387,1.387,0,0,0,.454,1.089A1.758,1.758,0,0,0-19.639-1.709Zm9.316-8.857.068,1.221a3.8,3.8,0,0,1,3.076-1.416q3.3,0,3.359,3.779V0H-6.191V-6.846a2.176,2.176,0,0,0-.435-1.489,1.828,1.828,0,0,0-1.421-.483,2.287,2.287,0,0,0-2.139,1.3V0h-2.373V-10.566ZM1.123,0H-1.25V-10.566H1.123ZM-1.4-13.311a1.259,1.259,0,0,1,.347-.908,1.309,1.309,0,0,1,.991-.361,1.326,1.326,0,0,1,1,.361,1.25,1.25,0,0,1,.352.908,1.221,1.221,0,0,1-.352.894,1.336,1.336,0,0,1-1,.356,1.32,1.32,0,0,1-.991-.356A1.23,1.23,0,0,1-1.4-13.311ZM4.336,0V-8.809H2.725v-1.758H4.336v-.723a4.227,4.227,0,0,1,.527-2.129,3.28,3.28,0,0,1,1.465-1.338A5.273,5.273,0,0,1,8.6-15.205a6.633,6.633,0,0,1,1.5.166q.718.166,1.489.42l-.361,1.963a7.554,7.554,0,0,0-2.461-.469,2.2,2.2,0,0,0-1.572.474,1.9,1.9,0,0,0-.488,1.421v.664h2.08v1.758H6.709V0Zm8.379,0H10.342V-10.566h2.373Zm6.973-1.7a2.146,2.146,0,0,0,1.475-.518A1.768,1.768,0,0,0,21.787-3.5h2.236a3.486,3.486,0,0,1-.615,1.841A4.035,4.035,0,0,1,21.846-.3a4.656,4.656,0,0,1-2.129.5A4.505,4.505,0,0,1,16.2-1.24a5.694,5.694,0,0,1-1.3-3.965v-.244a5.6,5.6,0,0,1,1.289-3.862,4.464,4.464,0,0,1,3.516-1.45,4.341,4.341,0,0,1,3.071,1.1,3.935,3.935,0,0,1,1.245,2.886H21.787a2.173,2.173,0,0,0-.62-1.494,2,2,0,0,0-1.479-.586,2.088,2.088,0,0,0-1.777.835,4.261,4.261,0,0,0-.635,2.534v.381a4.331,4.331,0,0,0,.62,2.563A2.086,2.086,0,0,0,19.688-1.7ZM32.129,0a3.662,3.662,0,0,1-.273-.986A3.694,3.694,0,0,1,29.082.2a3.728,3.728,0,0,1-2.6-.908,2.906,2.906,0,0,1-1.006-2.246,3,3,0,0,1,1.255-2.593,6.081,6.081,0,0,1,3.589-.9h1.455v-.693a1.851,1.851,0,0,0-.459-1.313,1.819,1.819,0,0,0-1.4-.493,2.09,2.09,0,0,0-1.328.405,1.254,1.254,0,0,0-.518,1.03H25.7a2.634,2.634,0,0,1,.576-1.626,3.839,3.839,0,0,1,1.567-1.187,5.506,5.506,0,0,1,2.212-.43,4.434,4.434,0,0,1,2.959.933A3.326,3.326,0,0,1,34.15-7.207v4.766a5.4,5.4,0,0,0,.4,2.275V0ZM29.521-1.709a2.7,2.7,0,0,0,1.323-.342,2.284,2.284,0,0,0,.933-.918V-4.961H30.5a3.5,3.5,0,0,0-1.982.459,1.487,1.487,0,0,0-.664,1.3,1.387,1.387,0,0,0,.454,1.089A1.758,1.758,0,0,0,29.521-1.709ZM42.168-8.4a5.872,5.872,0,0,0-.967-.078A2.177,2.177,0,0,0,39-7.227V0H36.631V-10.566H38.9l.059,1.182a2.674,2.674,0,0,1,2.383-1.377,2.222,2.222,0,0,1,.84.137Z" transform="translate(984.812 20133.061)" fill="#fff"/>
    <path id="Trazado_198720" data-name="Trazado 198720" d="M-30.776-6.738A8.724,8.724,0,0,1-31.5-3.071,5.464,5.464,0,0,1-33.564-.649,5.681,5.681,0,0,1-36.655.2a5.7,5.7,0,0,1-3.081-.845,5.548,5.548,0,0,1-2.09-2.407,8.451,8.451,0,0,1-.747-3.6v-.8a8.649,8.649,0,0,1,.737-3.672,5.542,5.542,0,0,1,2.08-2.437,5.663,5.663,0,0,1,3.081-.845,5.713,5.713,0,0,1,3.081.835,5.471,5.471,0,0,1,2.075,2.4,8.63,8.63,0,0,1,.742,3.647Zm-2.471-.742a6.216,6.216,0,0,0-.894-3.623,2.923,2.923,0,0,0-2.534-1.26,2.914,2.914,0,0,0-2.5,1.255,6.1,6.1,0,0,0-.923,3.55v.82a6.168,6.168,0,0,0,.913,3.623,2.94,2.94,0,0,0,2.534,1.279,2.906,2.906,0,0,0,2.524-1.25,6.3,6.3,0,0,0,.884-3.652ZM-23.013-8.4a5.872,5.872,0,0,0-.967-.078,2.177,2.177,0,0,0-2.2,1.25V0H-28.55V-10.566h2.266l.059,1.182a2.674,2.674,0,0,1,2.383-1.377,2.222,2.222,0,0,1,.84.137Zm1.084,3.037a6.18,6.18,0,0,1,1.157-3.931,3.714,3.714,0,0,1,3.071-1.47A3.48,3.48,0,0,1-14.858-9.5l.107-1.064h2.139V-.322a4.258,4.258,0,0,1-1.294,3.281A4.928,4.928,0,0,1-17.4,4.16a5.627,5.627,0,0,1-2.271-.483,4.034,4.034,0,0,1-1.685-1.265L-20.229.986a3.392,3.392,0,0,0,2.7,1.3,2.621,2.621,0,0,0,1.865-.64,2.451,2.451,0,0,0,.684-1.88V-.947A3.494,3.494,0,0,1-17.72.2a3.705,3.705,0,0,1-3.032-1.475A6.38,6.38,0,0,1-21.929-5.361Zm2.363.205a4.254,4.254,0,0,0,.649,2.5,2.088,2.088,0,0,0,1.8.913,2.284,2.284,0,0,0,2.129-1.23V-7.617a2.251,2.251,0,0,0-2.109-1.2,2.1,2.1,0,0,0-1.821.928A4.763,4.763,0,0,0-19.565-5.156ZM-3.862,0a3.662,3.662,0,0,1-.273-.986A3.694,3.694,0,0,1-6.909.2a3.728,3.728,0,0,1-2.6-.908,2.906,2.906,0,0,1-1.006-2.246A3,3,0,0,1-9.258-5.552a6.081,6.081,0,0,1,3.589-.9h1.455v-.693a1.851,1.851,0,0,0-.459-1.313,1.819,1.819,0,0,0-1.4-.493A2.09,2.09,0,0,0-7.4-8.55a1.254,1.254,0,0,0-.518,1.03h-2.373a2.634,2.634,0,0,1,.576-1.626,3.839,3.839,0,0,1,1.567-1.187,5.506,5.506,0,0,1,2.212-.43,4.434,4.434,0,0,1,2.959.933A3.326,3.326,0,0,1-1.841-7.207v4.766a5.4,5.4,0,0,0,.4,2.275V0ZM-6.47-1.709a2.7,2.7,0,0,0,1.323-.342,2.284,2.284,0,0,0,.933-.918V-4.961H-5.493A3.5,3.5,0,0,0-7.476-4.5,1.487,1.487,0,0,0-8.14-3.2a1.387,1.387,0,0,0,.454,1.089A1.758,1.758,0,0,0-6.47-1.709Zm9.316-8.857.068,1.221a3.8,3.8,0,0,1,3.076-1.416q3.3,0,3.359,3.779V0H6.978V-6.846a2.176,2.176,0,0,0-.435-1.489,1.828,1.828,0,0,0-1.421-.483,2.287,2.287,0,0,0-2.139,1.3V0H.61V-10.566ZM14.292,0H11.919V-10.566h2.373Zm-2.52-13.311a1.259,1.259,0,0,1,.347-.908,1.309,1.309,0,0,1,.991-.361,1.326,1.326,0,0,1,1,.361,1.25,1.25,0,0,1,.352.908,1.221,1.221,0,0,1-.352.894,1.336,1.336,0,0,1-1,.356,1.32,1.32,0,0,1-.991-.356A1.23,1.23,0,0,1,11.772-13.311ZM19.409-1.895h5.625V0H16.46V-1.553l5.361-7.1H16.558v-1.914h8.271v1.5ZM33.247,0a3.662,3.662,0,0,1-.273-.986A3.694,3.694,0,0,1,30.2.2a3.728,3.728,0,0,1-2.6-.908A2.906,2.906,0,0,1,26.6-2.959a3,3,0,0,1,1.255-2.593,6.081,6.081,0,0,1,3.589-.9H32.9v-.693a1.851,1.851,0,0,0-.459-1.313,1.819,1.819,0,0,0-1.4-.493,2.09,2.09,0,0,0-1.328.405,1.254,1.254,0,0,0-.518,1.03H26.821A2.634,2.634,0,0,1,27.4-9.146a3.839,3.839,0,0,1,1.567-1.187,5.506,5.506,0,0,1,2.212-.43,4.434,4.434,0,0,1,2.959.933,3.326,3.326,0,0,1,1.133,2.622v4.766a5.4,5.4,0,0,0,.4,2.275V0ZM30.64-1.709a2.7,2.7,0,0,0,1.323-.342,2.284,2.284,0,0,0,.933-.918V-4.961H31.616a3.5,3.5,0,0,0-1.982.459,1.487,1.487,0,0,0-.664,1.3,1.387,1.387,0,0,0,.454,1.089A1.758,1.758,0,0,0,30.64-1.709ZM43.286-8.4a5.872,5.872,0,0,0-.967-.078,2.177,2.177,0,0,0-2.2,1.25V0H37.749V-10.566h2.266l.059,1.182a2.674,2.674,0,0,1,2.383-1.377,2.222,2.222,0,0,1,.84.137Z" transform="translate(903.152 20339.855)" fill="#fff"/>
    <path id="Trazado_198721" data-name="Trazado 198721" d="M-51.636-14.219l4.1,10.9,4.092-10.9h3.193V0H-42.71V-4.687l.244-6.27L-46.665,0h-1.768l-4.189-10.947.244,6.26V0h-2.461V-14.219ZM-32.905.2a4.91,4.91,0,0,1-3.657-1.421,5.154,5.154,0,0,1-1.4-3.784V-5.3a6.34,6.34,0,0,1,.61-2.827,4.646,4.646,0,0,1,1.714-1.938,4.531,4.531,0,0,1,2.461-.693,4.147,4.147,0,0,1,3.335,1.377,5.823,5.823,0,0,1,1.177,3.9v.957h-6.9a3.173,3.173,0,0,0,.874,2.07,2.624,2.624,0,0,0,1.929.762,3.213,3.213,0,0,0,2.656-1.318L-28.833-1.8a4.272,4.272,0,0,1-1.694,1.47A5.3,5.3,0,0,1-32.905.2Zm-.283-9.053a2,2,0,0,0-1.577.684,3.543,3.543,0,0,0-.767,1.9h4.521v-.176a2.884,2.884,0,0,0-.635-1.8A1.983,1.983,0,0,0-33.188-8.857Zm9.336-4.277v2.568h1.865v1.758h-1.865v5.9a1.3,1.3,0,0,0,.239.874,1.109,1.109,0,0,0,.854.269,3.656,3.656,0,0,0,.83-.1V-.029A5.845,5.845,0,0,1-23.491.2q-2.734,0-2.734-3.018V-8.809h-1.738v-1.758h1.738v-2.568Zm2.939,7.754a6.231,6.231,0,0,1,.615-2.8,4.493,4.493,0,0,1,1.729-1.914,4.87,4.87,0,0,1,2.559-.669,4.615,4.615,0,0,1,3.472,1.377A5.416,5.416,0,0,1-11.1-5.732l.01.557a6.286,6.286,0,0,1-.6,2.793,4.439,4.439,0,0,1-1.719,1.9A4.906,4.906,0,0,1-15.991.2,4.584,4.584,0,0,1-19.57-1.294a5.7,5.7,0,0,1-1.343-3.97Zm2.373.205a4.258,4.258,0,0,0,.674,2.554,2.191,2.191,0,0,0,1.875.923,2.167,2.167,0,0,0,1.87-.937,4.7,4.7,0,0,0,.669-2.744,4.2,4.2,0,0,0-.688-2.539,2.2,2.2,0,0,0-1.87-.937,2.178,2.178,0,0,0-1.846.923A4.614,4.614,0,0,0-18.54-5.176Zm9.014-.186A6.282,6.282,0,0,1-8.394-9.282a3.63,3.63,0,0,1,3.037-1.479A3.449,3.449,0,0,1-2.642-9.59V-15H-.269V0H-2.417l-.117-1.094A3.5,3.5,0,0,1-5.376.2a3.609,3.609,0,0,1-3-1.494A6.512,6.512,0,0,1-9.526-5.361Zm2.373.205a4.4,4.4,0,0,0,.62,2.515,2.012,2.012,0,0,0,1.763.9,2.241,2.241,0,0,0,2.129-1.3V-7.549a2.207,2.207,0,0,0-2.109-1.27,2.027,2.027,0,0,0-1.777.913A4.9,4.9,0,0,0-7.153-5.156Zm8.916-.225a6.231,6.231,0,0,1,.615-2.8,4.493,4.493,0,0,1,1.729-1.914,4.87,4.87,0,0,1,2.559-.669,4.615,4.615,0,0,1,3.472,1.377,5.416,5.416,0,0,1,1.44,3.652l.01.557a6.286,6.286,0,0,1-.6,2.793,4.439,4.439,0,0,1-1.719,1.9A4.906,4.906,0,0,1,6.685.2,4.584,4.584,0,0,1,3.105-1.294a5.7,5.7,0,0,1-1.343-3.97Zm2.373.205A4.258,4.258,0,0,0,4.81-2.622,2.191,2.191,0,0,0,6.685-1.7a2.167,2.167,0,0,0,1.87-.937,4.7,4.7,0,0,0,.669-2.744A4.2,4.2,0,0,0,8.535-7.92a2.2,2.2,0,0,0-1.87-.937,2.178,2.178,0,0,0-1.846.923A4.614,4.614,0,0,0,4.136-5.176ZM16.118,0H13.745V-15h2.373Zm2.139-5.381a6.231,6.231,0,0,1,.615-2.8A4.493,4.493,0,0,1,20.6-10.093a4.87,4.87,0,0,1,2.559-.669,4.615,4.615,0,0,1,3.472,1.377,5.416,5.416,0,0,1,1.44,3.652l.01.557a6.286,6.286,0,0,1-.6,2.793,4.439,4.439,0,0,1-1.719,1.9A4.906,4.906,0,0,1,23.179.2,4.584,4.584,0,0,1,19.6-1.294a5.7,5.7,0,0,1-1.343-3.97Zm2.373.205A4.258,4.258,0,0,0,21.3-2.622a2.191,2.191,0,0,0,1.875.923,2.167,2.167,0,0,0,1.87-.937,4.7,4.7,0,0,0,.669-2.744,4.2,4.2,0,0,0-.688-2.539,2.2,2.2,0,0,0-1.87-.937,2.178,2.178,0,0,0-1.846.923A4.614,4.614,0,0,0,20.63-5.176Zm9.043-.186A6.18,6.18,0,0,1,30.83-9.292a3.714,3.714,0,0,1,3.071-1.47A3.48,3.48,0,0,1,36.743-9.5l.107-1.064h2.139V-.322A4.258,4.258,0,0,1,37.7,2.959,4.928,4.928,0,0,1,34.2,4.16a5.627,5.627,0,0,1-2.271-.483,4.034,4.034,0,0,1-1.685-1.265L31.372.986a3.392,3.392,0,0,0,2.7,1.3,2.621,2.621,0,0,0,1.865-.64,2.451,2.451,0,0,0,.684-1.88V-.947A3.494,3.494,0,0,1,33.882.2,3.705,3.705,0,0,1,30.85-1.279,6.38,6.38,0,0,1,29.673-5.361Zm2.363.205a4.254,4.254,0,0,0,.649,2.5,2.088,2.088,0,0,0,1.8.913,2.284,2.284,0,0,0,2.129-1.23V-7.617a2.251,2.251,0,0,0-2.109-1.2,2.1,2.1,0,0,0-1.821.928A4.763,4.763,0,0,0,32.036-5.156ZM43.979,0H41.606V-10.566h2.373ZM43.53-14.932h2.705L43.53-11.973l-1.9,0ZM52.993,0a3.662,3.662,0,0,1-.273-.986A3.694,3.694,0,0,1,49.946.2a3.728,3.728,0,0,1-2.6-.908,2.906,2.906,0,0,1-1.006-2.246A3,3,0,0,1,47.6-5.552a6.081,6.081,0,0,1,3.589-.9h1.455v-.693a1.851,1.851,0,0,0-.459-1.313,1.819,1.819,0,0,0-1.4-.493,2.09,2.09,0,0,0-1.328.405,1.254,1.254,0,0,0-.518,1.03H46.567a2.634,2.634,0,0,1,.576-1.626,3.838,3.838,0,0,1,1.567-1.187,5.506,5.506,0,0,1,2.212-.43,4.434,4.434,0,0,1,2.959.933,3.326,3.326,0,0,1,1.133,2.622v4.766a5.4,5.4,0,0,0,.4,2.275V0ZM50.386-1.709a2.7,2.7,0,0,0,1.323-.342,2.284,2.284,0,0,0,.933-.918V-4.961H51.362A3.5,3.5,0,0,0,49.38-4.5a1.487,1.487,0,0,0-.664,1.3,1.387,1.387,0,0,0,.454,1.089A1.758,1.758,0,0,0,50.386-1.709Z" transform="translate(671.263 20339.855)" fill="#fff"/>
    <path id="Trazado_198722" data-name="Trazado 198722" d="M-29.5-5.273V0h-2.471V-14.219h5.439a5.5,5.5,0,0,1,3.784,1.242,4.175,4.175,0,0,1,1.4,3.285A4.036,4.036,0,0,1-22.72-6.437a5.766,5.766,0,0,1-3.843,1.163Zm0-1.992h2.969a2.924,2.924,0,0,0,2.012-.62,2.279,2.279,0,0,0,.693-1.792,2.459,2.459,0,0,0-.7-1.841,2.71,2.71,0,0,0-1.934-.708H-29.5ZM-16.895,0h-2.373V-15h2.373ZM-8,0a3.662,3.662,0,0,1-.273-.986A3.694,3.694,0,0,1-11.045.2a3.728,3.728,0,0,1-2.6-.908,2.906,2.906,0,0,1-1.006-2.246,3,3,0,0,1,1.255-2.593,6.081,6.081,0,0,1,3.589-.9H-8.35v-.693a1.851,1.851,0,0,0-.459-1.313,1.819,1.819,0,0,0-1.4-.493,2.09,2.09,0,0,0-1.328.405,1.254,1.254,0,0,0-.518,1.03h-2.373a2.634,2.634,0,0,1,.576-1.626,3.839,3.839,0,0,1,1.567-1.187,5.506,5.506,0,0,1,2.212-.43,4.434,4.434,0,0,1,2.959.933A3.326,3.326,0,0,1-5.977-7.207v4.766a5.4,5.4,0,0,0,.4,2.275V0Zm-2.607-1.709a2.7,2.7,0,0,0,1.323-.342,2.284,2.284,0,0,0,.933-.918V-4.961H-9.629a3.5,3.5,0,0,0-1.982.459,1.487,1.487,0,0,0-.664,1.3,1.387,1.387,0,0,0,.454,1.089A1.758,1.758,0,0,0-10.605-1.709Zm9.316-8.857.068,1.221a3.8,3.8,0,0,1,3.076-1.416q3.3,0,3.359,3.779V0H2.842V-6.846a2.176,2.176,0,0,0-.435-1.489A1.828,1.828,0,0,0,.986-8.818a2.287,2.287,0,0,0-2.139,1.3V0H-3.525V-10.566ZM12.168-5.361A6.282,6.282,0,0,1,13.3-9.282a3.63,3.63,0,0,1,3.037-1.479A3.449,3.449,0,0,1,19.053-9.59V-15h2.373V0H19.277L19.16-1.094A3.5,3.5,0,0,1,16.318.2a3.609,3.609,0,0,1-3-1.494A6.512,6.512,0,0,1,12.168-5.361Zm2.373.205a4.4,4.4,0,0,0,.62,2.515,2.012,2.012,0,0,0,1.763.9,2.241,2.241,0,0,0,2.129-1.3V-7.549a2.207,2.207,0,0,0-2.109-1.27,2.027,2.027,0,0,0-1.777.913A4.9,4.9,0,0,0,14.541-5.156ZM28.555.2A4.91,4.91,0,0,1,24.9-1.226,5.154,5.154,0,0,1,23.5-5.01V-5.3a6.34,6.34,0,0,1,.61-2.827,4.645,4.645,0,0,1,1.714-1.938,4.531,4.531,0,0,1,2.461-.693,4.147,4.147,0,0,1,3.335,1.377,5.823,5.823,0,0,1,1.177,3.9v.957h-6.9a3.173,3.173,0,0,0,.874,2.07,2.624,2.624,0,0,0,1.929.762,3.213,3.213,0,0,0,2.656-1.318L32.627-1.8a4.272,4.272,0,0,1-1.694,1.47A5.3,5.3,0,0,1,28.555.2Zm-.283-9.053a2,2,0,0,0-1.577.684,3.543,3.543,0,0,0-.767,1.9h4.521v-.176a2.884,2.884,0,0,0-.635-1.8A1.983,1.983,0,0,0,28.271-8.857ZM-32.593,24.2a4.91,4.91,0,0,1-3.657-1.421,5.154,5.154,0,0,1-1.4-3.784V18.7a6.34,6.34,0,0,1,.61-2.827,4.646,4.646,0,0,1,1.714-1.938,4.531,4.531,0,0,1,2.461-.693,4.147,4.147,0,0,1,3.335,1.377,5.823,5.823,0,0,1,1.177,3.9v.957h-6.9a3.173,3.173,0,0,0,.874,2.07,2.624,2.624,0,0,0,1.929.762A3.213,3.213,0,0,0-29.8,20.982l1.279,1.221a4.272,4.272,0,0,1-1.694,1.47A5.3,5.3,0,0,1-32.593,24.2Zm-.283-9.053a2,2,0,0,0-1.577.684,3.543,3.543,0,0,0-.767,1.9H-30.7v-.176a2.884,2.884,0,0,0-.635-1.8A1.983,1.983,0,0,0-32.876,15.143Zm12.285,5.986a1.076,1.076,0,0,0-.522-.967,5.557,5.557,0,0,0-1.733-.586,8.911,8.911,0,0,1-2.021-.645,2.7,2.7,0,0,1-1.777-2.49,2.813,2.813,0,0,1,1.152-2.285,4.556,4.556,0,0,1,2.93-.918,4.74,4.74,0,0,1,3.062.938,2.975,2.975,0,0,1,1.167,2.432h-2.373a1.462,1.462,0,0,0-.508-1.138,1.946,1.946,0,0,0-1.348-.454,2.1,2.1,0,0,0-1.274.361,1.139,1.139,0,0,0-.493.967.962.962,0,0,0,.459.85,6.312,6.312,0,0,0,1.855.61,8.783,8.783,0,0,1,2.192.732,3.1,3.1,0,0,1,1.182,1.021A2.6,2.6,0,0,1-18.257,21a2.753,2.753,0,0,1-1.182,2.31,5.039,5.039,0,0,1-3.1.884,5.464,5.464,0,0,1-2.314-.469,3.809,3.809,0,0,1-1.582-1.289A3.051,3.051,0,0,1-27,20.67h2.3a1.672,1.672,0,0,0,.635,1.294,2.467,2.467,0,0,0,1.553.454,2.4,2.4,0,0,0,1.426-.356A1.1,1.1,0,0,0-20.591,21.129Zm7.373-10.264v2.568h1.865v1.758h-1.865v5.9a1.3,1.3,0,0,0,.239.874,1.109,1.109,0,0,0,.854.269,3.656,3.656,0,0,0,.83-.1v1.836a5.844,5.844,0,0,1-1.562.225q-2.734,0-2.734-3.018V15.191h-1.738V13.434h1.738V10.865Zm10.078,12.1A3.68,3.68,0,0,1-6.108,24.2a3.28,3.28,0,0,1-2.6-1.006,4.279,4.279,0,0,1-.884-2.91V13.434h2.373V20.25q0,2.012,1.67,2.012a2.345,2.345,0,0,0,2.334-1.24V13.434H-.845V24H-3.081Zm4.268-4.326a6.282,6.282,0,0,1,1.133-3.921A3.63,3.63,0,0,1,5.3,13.238,3.449,3.449,0,0,1,8.013,14.41V9h2.373V24H8.237L8.12,22.906A3.5,3.5,0,0,1,5.278,24.2a3.609,3.609,0,0,1-3-1.494A6.512,6.512,0,0,1,1.128,18.639Zm2.373.205a4.4,4.4,0,0,0,.62,2.515,2.012,2.012,0,0,0,1.763.9,2.241,2.241,0,0,0,2.129-1.3V16.451A2.207,2.207,0,0,0,5.9,15.182a2.027,2.027,0,0,0-1.777.913A4.9,4.9,0,0,0,3.5,18.844ZM15.386,24H13.013V13.434h2.373Zm-2.52-13.311a1.259,1.259,0,0,1,.347-.908A1.309,1.309,0,0,1,14.2,9.42a1.326,1.326,0,0,1,1,.361,1.25,1.25,0,0,1,.352.908,1.221,1.221,0,0,1-.352.894,1.336,1.336,0,0,1-1,.356,1.32,1.32,0,0,1-.991-.356A1.23,1.23,0,0,1,12.866,10.689Zm4.658,7.93a6.231,6.231,0,0,1,.615-2.8,4.493,4.493,0,0,1,1.729-1.914,4.87,4.87,0,0,1,2.559-.669A4.615,4.615,0,0,1,25.9,14.615a5.416,5.416,0,0,1,1.44,3.652l.01.557a6.286,6.286,0,0,1-.6,2.793,4.439,4.439,0,0,1-1.719,1.9,4.906,4.906,0,0,1-2.583.674,4.584,4.584,0,0,1-3.579-1.489,5.7,5.7,0,0,1-1.343-3.97Zm2.373.205a4.258,4.258,0,0,0,.674,2.554,2.191,2.191,0,0,0,1.875.923,2.167,2.167,0,0,0,1.87-.937,4.7,4.7,0,0,0,.669-2.744A4.2,4.2,0,0,0,24.3,16.08a2.321,2.321,0,0,0-3.716-.015A4.614,4.614,0,0,0,19.9,18.824Zm15.381,2.3a1.076,1.076,0,0,0-.522-.967,5.557,5.557,0,0,0-1.733-.586A8.911,8.911,0,0,1,31,18.932a2.7,2.7,0,0,1-1.777-2.49,2.813,2.813,0,0,1,1.152-2.285,4.556,4.556,0,0,1,2.93-.918,4.74,4.74,0,0,1,3.062.938,2.975,2.975,0,0,1,1.167,2.432H35.161a1.462,1.462,0,0,0-.508-1.138,1.946,1.946,0,0,0-1.348-.454,2.1,2.1,0,0,0-1.274.361,1.139,1.139,0,0,0-.493.967.962.962,0,0,0,.459.85,6.312,6.312,0,0,0,1.855.61,8.783,8.783,0,0,1,2.192.732,3.1,3.1,0,0,1,1.182,1.021A2.6,2.6,0,0,1,37.612,21a2.753,2.753,0,0,1-1.182,2.31,5.039,5.039,0,0,1-3.1.884,5.464,5.464,0,0,1-2.314-.469,3.809,3.809,0,0,1-1.582-1.289,3.051,3.051,0,0,1-.566-1.768h2.3a1.672,1.672,0,0,0,.635,1.294,2.467,2.467,0,0,0,1.553.454,2.4,2.4,0,0,0,1.426-.356A1.1,1.1,0,0,0,35.278,21.129Z" transform="translate(592.164 20121.061)" fill="#fff"/>
    <path id="Trazado_198723" data-name="Trazado 198723" d="M-43.091-3.311H-48.6L-49.751,0h-2.568l5.371-14.219h2.217L-39.351,0h-2.578ZM-47.905-5.3h4.121l-2.061-5.9Zm14.277,3.6a2.146,2.146,0,0,0,1.475-.518A1.768,1.768,0,0,0-31.528-3.5h2.236a3.486,3.486,0,0,1-.615,1.841A4.035,4.035,0,0,1-31.47-.3,4.656,4.656,0,0,1-33.6.2,4.505,4.505,0,0,1-37.114-1.24a5.694,5.694,0,0,1-1.3-3.965v-.244a5.6,5.6,0,0,1,1.289-3.862,4.464,4.464,0,0,1,3.516-1.45,4.341,4.341,0,0,1,3.071,1.1,3.935,3.935,0,0,1,1.245,2.886h-2.236a2.173,2.173,0,0,0-.62-1.494,2,2,0,0,0-1.479-.586,2.088,2.088,0,0,0-1.777.835,4.261,4.261,0,0,0-.635,2.534v.381a4.331,4.331,0,0,0,.62,2.563A2.086,2.086,0,0,0-33.628-1.7Zm9.1-11.436v2.568h1.865v1.758h-1.865v5.9a1.3,1.3,0,0,0,.239.874,1.109,1.109,0,0,0,.854.269,3.656,3.656,0,0,0,.83-.1V-.029A5.845,5.845,0,0,1-24.165.2Q-26.9.2-26.9-2.822V-8.809h-1.738v-1.758H-26.9v-2.568ZM-18.325,0H-20.7V-10.566h2.373Zm-2.52-13.311a1.259,1.259,0,0,1,.347-.908,1.309,1.309,0,0,1,.991-.361,1.326,1.326,0,0,1,1,.361,1.25,1.25,0,0,1,.352.908,1.221,1.221,0,0,1-.352.894,1.336,1.336,0,0,1-1,.356,1.32,1.32,0,0,1-.991-.356A1.23,1.23,0,0,1-20.845-13.311Zm8.828,10.3,2.236-7.559h2.451L-10.991,0h-2.061l-3.691-10.566h2.461ZM-3.325,0H-5.7V-10.566h2.373Zm-2.52-13.311a1.259,1.259,0,0,1,.347-.908,1.309,1.309,0,0,1,.991-.361,1.326,1.326,0,0,1,1,.361,1.25,1.25,0,0,1,.352.908,1.221,1.221,0,0,1-.352.894,1.336,1.336,0,0,1-1,.356,1.32,1.32,0,0,1-.991-.356A1.23,1.23,0,0,1-5.845-13.311Zm4.658,7.949A6.282,6.282,0,0,1-.054-9.282a3.63,3.63,0,0,1,3.037-1.479A3.449,3.449,0,0,1,5.7-9.59V-15H8.071V0H5.923L5.806-1.094A3.5,3.5,0,0,1,2.964.2a3.609,3.609,0,0,1-3-1.494A6.512,6.512,0,0,1-1.187-5.361Zm2.373.205a4.4,4.4,0,0,0,.62,2.515,2.012,2.012,0,0,0,1.763.9A2.241,2.241,0,0,0,5.7-3.037V-7.549a2.207,2.207,0,0,0-2.109-1.27,2.027,2.027,0,0,0-1.777.913A4.9,4.9,0,0,0,1.187-5.156ZM16.86,0a3.662,3.662,0,0,1-.273-.986A3.694,3.694,0,0,1,13.813.2a3.728,3.728,0,0,1-2.6-.908A2.906,2.906,0,0,1,10.21-2.959a3,3,0,0,1,1.255-2.593,6.081,6.081,0,0,1,3.589-.9h1.455v-.693a1.851,1.851,0,0,0-.459-1.313,1.819,1.819,0,0,0-1.4-.493,2.09,2.09,0,0,0-1.328.405,1.254,1.254,0,0,0-.518,1.03H10.435a2.634,2.634,0,0,1,.576-1.626,3.839,3.839,0,0,1,1.567-1.187,5.506,5.506,0,0,1,2.212-.43,4.434,4.434,0,0,1,2.959.933,3.326,3.326,0,0,1,1.133,2.622v4.766a5.4,5.4,0,0,0,.4,2.275V0ZM14.253-1.709a2.7,2.7,0,0,0,1.323-.342,2.284,2.284,0,0,0,.933-.918V-4.961H15.229a3.5,3.5,0,0,0-1.982.459,1.487,1.487,0,0,0-.664,1.3,1.387,1.387,0,0,0,.454,1.089A1.758,1.758,0,0,0,14.253-1.709Zm6.67-3.652a6.282,6.282,0,0,1,1.133-3.921,3.63,3.63,0,0,1,3.037-1.479A3.449,3.449,0,0,1,27.808-9.59V-15h2.373V0H28.032l-.117-1.094A3.5,3.5,0,0,1,25.073.2a3.609,3.609,0,0,1-3-1.494A6.512,6.512,0,0,1,20.923-5.361Zm2.373.205a4.4,4.4,0,0,0,.62,2.515,2.012,2.012,0,0,0,1.763.9,2.241,2.241,0,0,0,2.129-1.3V-7.549A2.207,2.207,0,0,0,25.7-8.818a2.027,2.027,0,0,0-1.777.913A4.9,4.9,0,0,0,23.3-5.156ZM37.31.2a4.91,4.91,0,0,1-3.657-1.421,5.154,5.154,0,0,1-1.4-3.784V-5.3a6.34,6.34,0,0,1,.61-2.827,4.646,4.646,0,0,1,1.714-1.938,4.531,4.531,0,0,1,2.461-.693,4.147,4.147,0,0,1,3.335,1.377,5.823,5.823,0,0,1,1.177,3.9v.957h-6.9a3.173,3.173,0,0,0,.874,2.07,2.624,2.624,0,0,0,1.929.762A3.213,3.213,0,0,0,40.1-3.018L41.382-1.8a4.272,4.272,0,0,1-1.694,1.47A5.3,5.3,0,0,1,37.31.2Zm-.283-9.053a2,2,0,0,0-1.577.684,3.543,3.543,0,0,0-.767,1.9H39.2v-.176a2.884,2.884,0,0,0-.635-1.8A1.983,1.983,0,0,0,37.026-8.857ZM49.312-2.871a1.076,1.076,0,0,0-.522-.967,5.557,5.557,0,0,0-1.733-.586,8.911,8.911,0,0,1-2.021-.645,2.7,2.7,0,0,1-1.777-2.49,2.813,2.813,0,0,1,1.152-2.285,4.556,4.556,0,0,1,2.93-.918,4.74,4.74,0,0,1,3.062.938,2.975,2.975,0,0,1,1.167,2.432H49.194a1.462,1.462,0,0,0-.508-1.138,1.946,1.946,0,0,0-1.348-.454,2.1,2.1,0,0,0-1.274.361,1.139,1.139,0,0,0-.493.967.962.962,0,0,0,.459.85,6.312,6.312,0,0,0,1.855.61,8.783,8.783,0,0,1,2.192.732A3.1,3.1,0,0,1,51.26-4.443,2.6,2.6,0,0,1,51.646-3a2.753,2.753,0,0,1-1.182,2.31,5.039,5.039,0,0,1-3.1.884,5.464,5.464,0,0,1-2.314-.469,3.809,3.809,0,0,1-1.582-1.289,3.051,3.051,0,0,1-.566-1.768h2.3a1.672,1.672,0,0,0,.635,1.294,2.467,2.467,0,0,0,1.553.454,2.4,2.4,0,0,0,1.426-.356A1.1,1.1,0,0,0,49.312-2.871Z" transform="translate(671.07 19929.086)" fill="#fff"/>
  </g>
</svg>
