<svg xmlns="http://www.w3.org/2000/svg" xmlns:xlink="http://www.w3.org/1999/xlink" width="505" height="332.875" viewBox="0 0 505 332.875">
  <defs>
    <linearGradient id="linear-gradient" x1="0.5" y1="-0.011" x2="0.5" y2="0.996" gradientUnits="objectBoundingBox">
      <stop offset="0" stop-color="#fff"/>
      <stop offset="1" stop-color="#fff" stop-opacity="0"/>
    </linearGradient>
  </defs>
  <g id="Grupo_137306" data-name="Grupo 137306" transform="translate(-810 -3636)">
    <path id="Trazado_198528" data-name="Trazado 198528" d="M89.061,366.84s-52.876-61.625,6.688-128.687c48.012-54.056,32.682-74.96,30.469-111.412-1.873-30.855,33.115-76.477,85.477-78.755,85.824-3.733,107.16,23.848,152.727,21.9s66.175-17.9,119.1-11.617c98.211,11.664,84.974,104.745,70.662,174.32s28.693,93.33-2.255,134.309" transform="translate(746.141 3588.361)" fill="#b5d0ff" opacity="0.2"/>
    <g id="Grupo_136652" data-name="Grupo 136652" transform="translate(926.565 3728.842)">
      <g id="Grupo_136648" data-name="Grupo 136648" transform="translate(55.65 157.209)">
        <path id="Trazado_198529" data-name="Trazado 198529" d="M406.573,416.357H323.629l9.009-35.421,2.042-8.033,3.964-15.556h52.913l3.964,15.556,2.042,8.033Z" transform="translate(-285.426 -357.347)" fill="#6f3fba"/>
        <path id="Trazado_198530" data-name="Trazado 198530" d="M399.713,384.647H334.788l2.042-8.033h60.842Z" transform="translate(-287.575 -361.058)" fill="#5730a0"/>
        <path id="Trazado_198531" data-name="Trazado 198531" d="M429.288,439.517H282.68a6.37,6.37,0,0,1-6.369-6.37h0a6.369,6.369,0,0,1,6.369-6.369H429.288a6.37,6.37,0,0,1,6.37,6.369h0A6.371,6.371,0,0,1,429.288,439.517Z" transform="translate(-276.311 -370.72)" fill="#774cc9"/>
      </g>
      <path id="Trazado_198532" data-name="Trazado 198532" d="M478.043,169.351V325.269a6.723,6.723,0,0,1-6.719,6.72H214.1a6.716,6.716,0,0,1-6.72-6.72V169.351a6.716,6.716,0,0,1,6.72-6.72h257.22A6.722,6.722,0,0,1,478.043,169.351Z" transform="translate(-207.384 -162.631)" fill="#854dce"/>
      <rect id="Rectángulo_41685" data-name="Rectángulo 41685" width="260.257" height="137.446" transform="translate(4.951 4.933)" fill="#b8b8f4"/>
      <g id="Grupo_136649" data-name="Grupo 136649" transform="translate(10.337 4.933)" opacity="0.3">
        <rect id="Rectángulo_41686" data-name="Rectángulo 41686" width="7.297" height="116.891" transform="translate(221.817)" fill="#e3e3ff"/>
        <rect id="Rectángulo_41687" data-name="Rectángulo 41687" width="7.297" height="116.891" transform="translate(240.302)" fill="#e3e3ff"/>
        <rect id="Rectángulo_41688" data-name="Rectángulo 41688" width="7.297" height="116.891" fill="#e3e3ff"/>
        <rect id="Rectángulo_41689" data-name="Rectángulo 41689" width="7.297" height="116.891" transform="translate(18.485)" fill="#e3e3ff"/>
        <rect id="Rectángulo_41690" data-name="Rectángulo 41690" width="7.297" height="116.891" transform="translate(36.969)" fill="#e3e3ff"/>
        <rect id="Rectángulo_41691" data-name="Rectángulo 41691" width="7.297" height="116.891" transform="translate(55.454)" fill="#e3e3ff"/>
        <rect id="Rectángulo_41692" data-name="Rectángulo 41692" width="7.297" height="116.891" transform="translate(73.939)" fill="#e3e3ff"/>
        <rect id="Rectángulo_41693" data-name="Rectángulo 41693" width="7.297" height="116.891" transform="translate(92.424)" fill="#e3e3ff"/>
        <rect id="Rectángulo_41694" data-name="Rectángulo 41694" width="7.297" height="116.891" transform="translate(110.908)" fill="#e3e3ff"/>
        <rect id="Rectángulo_41695" data-name="Rectángulo 41695" width="7.297" height="116.891" transform="translate(129.393)" fill="#e3e3ff"/>
        <rect id="Rectángulo_41696" data-name="Rectángulo 41696" width="7.297" height="116.891" transform="translate(147.878)" fill="#e3e3ff"/>
        <rect id="Rectángulo_41697" data-name="Rectángulo 41697" width="7.297" height="116.891" transform="translate(166.363)" fill="#e3e3ff"/>
        <rect id="Rectángulo_41698" data-name="Rectángulo 41698" width="7.297" height="116.891" transform="translate(184.847)" fill="#e3e3ff"/>
        <rect id="Rectángulo_41699" data-name="Rectángulo 41699" width="7.297" height="116.891" transform="translate(203.332)" fill="#e3e3ff"/>
      </g>
      <rect id="Rectángulo_41700" data-name="Rectángulo 41700" width="260.257" height="20.555" transform="translate(4.951 121.824)" fill="#efa6ec"/>
      <path id="Trazado_198533" data-name="Trazado 198533" d="M373.487,359.9h0a6.258,6.258,0,0,1-6.239-6.24h0a6.258,6.258,0,0,1,6.239-6.24h0a6.259,6.259,0,0,1,6.24,6.24h0A6.259,6.259,0,0,1,373.487,359.9Z" transform="translate(-238.177 -198.224)" fill="#5730a0"/>
      <path id="Trazado_198534" data-name="Trazado 198534" d="M394.325,331.865H376.044l48.078-169.233H442.4Z" transform="translate(-239.871 -162.631)" opacity="0.2" fill="url(#linear-gradient)"/>
      <path id="Trazado_198535" data-name="Trazado 198535" d="M446.322,331.865H407.537l48.078-169.233H494.4Z" transform="translate(-245.938 -162.631)" opacity="0.2" fill="url(#linear-gradient)"/>
      <g id="Grupo_136650" data-name="Grupo 136650" transform="translate(39.686 128.468)">
        <path id="Trazado_198536" data-name="Trazado 198536" d="M472.078,327.778H258.556a2.018,2.018,0,1,1,0-4.037H472.078a2.018,2.018,0,0,1,0,4.037Z" transform="translate(-256.538 -322.132)" fill="#9494ed"/>
        <path id="Trazado_198537" data-name="Trazado 198537" d="M365.318,323.746v4.037H258.558a2.018,2.018,0,1,1,0-4.037Z" transform="translate(-256.538 -322.133)" fill="#d100c9"/>
        <circle id="Elipse_4924" data-name="Elipse 4924" cx="3.633" cy="3.633" r="3.633" transform="translate(105.198)" fill="#fff"/>
      </g>
      <g id="Grupo_136651" data-name="Grupo 136651" transform="translate(12.611 122.348)">
        <circle id="Elipse_4925" data-name="Elipse 4925" cx="8.107" cy="8.107" r="8.107" transform="translate(0 15.781) rotate(-76.718)" fill="#fff"/>
        <path id="Trazado_198538" data-name="Trazado 198538" d="M233.466,321.73l4.445,3.425a.268.268,0,0,1,0,.426L233.466,329a.269.269,0,0,1-.433-.212v-6.849A.269.269,0,0,1,233.466,321.73Z" transform="translate(-224.935 -315.614)" fill="#854dce"/>
      </g>
    </g>
    <g id="Grupo_136658" data-name="Grupo 136658" transform="translate(810 3845.834)">
      <g id="Grupo_136653" data-name="Grupo 136653" transform="translate(0 25.589)">
        <path id="Trazado_198539" data-name="Trazado 198539" d="M92.2,405.237S53.13,352.454,65.391,341.18,95.571,369.616,92.2,405.237Z" transform="translate(-63.009 -339.229)" fill="#aceaff"/>
        <path id="Trazado_198540" data-name="Trazado 198540" d="M70.8,349.212c15.093,22.251,21.489,46.666,24.183,65.814" transform="translate(-64.509 -341.152)" fill="none" stroke="#7878c4" stroke-miterlimit="10" stroke-width="2"/>
        <path id="Trazado_198541" data-name="Trazado 198541" d="M69.392,358.081a62.431,62.431,0,0,1,9.764,7.291" transform="translate(-64.239 -342.86)" fill="none" stroke="#7878c4" stroke-miterlimit="10" stroke-width="1.718"/>
        <path id="Trazado_198542" data-name="Trazado 198542" d="M70.891,362a62.427,62.427,0,0,1,9.764,7.291" transform="translate(-64.528 -343.614)" fill="none" stroke="#7878c4" stroke-miterlimit="10" stroke-width="1.718"/>
      </g>
      <g id="Grupo_136654" data-name="Grupo 136654" transform="translate(35.662 18.98)">
        <path id="Trazado_198543" data-name="Trazado 198543" d="M108.887,397.616s37.672-53.793,25.118-64.74S104.584,362.1,108.887,397.616Z" transform="translate(-107.377 -331.043)" fill="#aceaff"/>
        <path id="Trazado_198544" data-name="Trazado 198544" d="M130.065,341.005c-15.607,24.364-21.08,50.969-22.885,70.721" transform="translate(-107.18 -332.962)" fill="none" stroke="#7878c4" stroke-miterlimit="10" stroke-width="2"/>
        <path id="Trazado_198545" data-name="Trazado 198545" d="M110.709,381.593c.145,4.961.465,9.454.84,13.344" transform="translate(-107.86 -340.78)" fill="none" stroke="#0e7c74" stroke-miterlimit="10" stroke-width="1.718"/>
      </g>
      <g id="Grupo_136655" data-name="Grupo 136655" transform="translate(6.287)">
        <path id="Trazado_198546" data-name="Trazado 198546" d="M98.736,374.014s-37.914-53.623-25.41-64.626S102.879,338.475,98.736,374.014Z" transform="translate(-70.797 -307.534)" fill="#a29ee5"/>
        <path id="Trazado_198547" data-name="Trazado 198547" d="M78.6,317.5c19.9,30.764,23.57,65.194,24.052,84.764" transform="translate(-72.3 -309.454)" fill="none" stroke="#7878c4" stroke-miterlimit="10" stroke-width="2"/>
      </g>
      <g id="Grupo_136656" data-name="Grupo 136656" transform="translate(30.28 42.153)">
        <path id="Trazado_198548" data-name="Trazado 198548" d="M102.515,399.713s23.332-32.066,15.873-38.812S100.305,378.22,102.515,399.713Z" transform="translate(-100.842 -359.744)" fill="#8c8cdd"/>
        <path id="Trazado_198549" data-name="Trazado 198549" d="M115.731,365.769c-12.27,18.411-14.766,39.17-15.217,50.983" transform="translate(-100.514 -360.905)" fill="none" stroke="#7878c4" stroke-miterlimit="10" stroke-width="2"/>
      </g>
      <g id="Grupo_136657" data-name="Grupo 136657" transform="translate(14.494 79.248)">
        <path id="Trazado_198550" data-name="Trazado 198550" d="M114.6,407.334l-.184,1.226-.386,2.605-3.727,25.015H88.074l-3.727-25.015-.386-2.605-.184-1.226Z" transform="translate(-81.503 -406.006)" fill="#bfb8f4"/>
        <path id="Trazado_198551" data-name="Trazado 198551" d="M114.463,408.853l-.386,2.605H84.391L84,408.853Z" transform="translate(-81.547 -406.298)" fill="#7878c4"/>
        <path id="Trazado_198552" data-name="Trazado 198552" d="M114.494,409.367H82.8a1.839,1.839,0,0,1-1.839-1.839h0a1.839,1.839,0,0,1,1.839-1.839h31.694a1.839,1.839,0,0,1,1.838,1.839h0A1.839,1.839,0,0,1,114.494,409.367Z" transform="translate(-80.961 -405.689)" fill="#a29ee5"/>
      </g>
    </g>
    <g id="Grupo_136659" data-name="Grupo 136659" transform="translate(839.479 3834.599)">
      <path id="Trazado_198553" data-name="Trazado 198553" d="M132.937,294.641V311.18a1.119,1.119,0,0,1-.217.669,1.143,1.143,0,0,1-.949.5h-24.3a1.192,1.192,0,0,1-.8-.316V296.676a1.019,1.019,0,0,1,1.021-1.013h17.073a1.019,1.019,0,0,0,1.012-1.021,1.019,1.019,0,0,1,1.013-1.022h5.127A1.027,1.027,0,0,1,132.937,294.641Z" transform="translate(-100.898 -293.619)" fill="#383493"/>
      <path id="Trazado_198554" data-name="Trazado 198554" d="M131.343,312.87a1.143,1.143,0,0,1-.949.5H106.1a1.191,1.191,0,0,1-.8-.316,1.132,1.132,0,0,1-.245-.344.362.362,0,0,1-.036-.082L99.6,300.282a.976.976,0,0,1,.9-1.365h24.09a.972.972,0,0,1,.895.579l5.064,11.556Z" transform="translate(-99.521 -294.639)" fill="#5146af"/>
    </g>
    <path id="Trazado_200185" data-name="Trazado 200185" d="M0,0H487.561" transform="translate(818.114 3955.619)" fill="none" stroke="#5730a0" stroke-linecap="round" stroke-width="2"/>
    <g id="Grupo_136663" data-name="Grupo 136663" transform="translate(866.801 3656.859)">
      <path id="Rectángulo_41701" data-name="Rectángulo 41701" d="M4.484,0H114.058a6.647,6.647,0,0,1,6.647,6.647V91.4a1.432,1.432,0,0,1-1.432,1.432H1.432A1.432,1.432,0,0,1,0,91.4V4.484A4.484,4.484,0,0,1,4.484,0Z" transform="translate(0 3.068)" fill="#aceaff"/>
      <rect id="Rectángulo_41702" data-name="Rectángulo 41702" width="111.331" height="19.987" rx="2.827" transform="translate(4.754 71.411)" fill="#fff"/>
      <rect id="Rectángulo_41703" data-name="Rectángulo 41703" width="111.331" height="8.107" rx="1.801" transform="translate(4.754 59.998)" fill="#fff"/>
      <g id="Grupo_136660" data-name="Grupo 136660" transform="translate(4.261 15.163)">
        <path id="Trazado_198555" data-name="Trazado 198555" d="M203.952,95.834H140.428a1.789,1.789,0,0,1-1.789-1.789h0a1.789,1.789,0,0,1,1.789-1.789h63.524a1.789,1.789,0,0,1,1.789,1.789h0A1.789,1.789,0,0,1,203.952,95.834Z" transform="translate(-138.639 -92.256)" fill="#fff" opacity="0.31"/>
        <path id="Trazado_198556" data-name="Trazado 198556" d="M203.952,104.993H140.429a1.789,1.789,0,0,1-1.79-1.788h0a1.789,1.789,0,0,1,1.79-1.79h63.523a1.789,1.789,0,0,1,1.789,1.79h0A1.789,1.789,0,0,1,203.952,104.993Z" transform="translate(-138.639 -94.02)" fill="#fff" opacity="0.31"/>
        <path id="Trazado_198557" data-name="Trazado 198557" d="M203.952,114.153H140.429a1.789,1.789,0,0,1-1.79-1.789h0a1.79,1.79,0,0,1,1.79-1.789h63.523a1.789,1.789,0,0,1,1.789,1.789h0A1.789,1.789,0,0,1,203.952,114.153Z" transform="translate(-138.639 -95.785)" fill="#fff" opacity="0.31"/>
        <path id="Trazado_198558" data-name="Trazado 198558" d="M203.952,123.312H140.429a1.789,1.789,0,0,1-1.79-1.788h0a1.789,1.789,0,0,1,1.79-1.79h63.523a1.789,1.789,0,0,1,1.789,1.79h0A1.789,1.789,0,0,1,203.952,123.312Z" transform="translate(-138.639 -97.549)" fill="#fff" opacity="0.31"/>
        <path id="Trazado_198559" data-name="Trazado 198559" d="M203.952,132.472H140.429a1.789,1.789,0,0,1-1.79-1.789h0a1.789,1.789,0,0,1,1.79-1.789h63.523a1.789,1.789,0,0,1,1.789,1.789h0A1.789,1.789,0,0,1,203.952,132.472Z" transform="translate(-138.639 -99.313)" fill="#fff" opacity="0.31"/>
        <path id="Trazado_198560" data-name="Trazado 198560" d="M189.029,141.634h-48.6a1.789,1.789,0,0,1-1.79-1.789h0a1.789,1.789,0,0,1,1.79-1.789h48.6a1.79,1.79,0,0,1,1.789,1.789h0A1.79,1.79,0,0,1,189.029,141.634Z" transform="translate(-138.639 -101.078)" fill="#fff" opacity="0.31"/>
      </g>
      <path id="Trazado_198561" data-name="Trazado 198561" d="M252.844,73.475H134.585a1.224,1.224,0,0,0-1.223,1.223v9.056H254.068V74.7A1.224,1.224,0,0,0,252.844,73.475Z" transform="translate(-133.362 -73.475)" fill="#854dce"/>
      <g id="Grupo_136661" data-name="Grupo 136661" transform="translate(100.563 4.024)">
        <path id="Trazado_198562" data-name="Trazado 198562" d="M260.148,79.575a1.115,1.115,0,1,1-1.116-1.116A1.115,1.115,0,0,1,260.148,79.575Z" transform="translate(-257.917 -78.459)" fill="#fff"/>
        <path id="Trazado_198563" data-name="Trazado 198563" d="M267.012,79.575a1.115,1.115,0,1,1-1.115-1.116A1.115,1.115,0,0,1,267.012,79.575Z" transform="translate(-259.239 -78.459)" fill="#fff"/>
        <path id="Trazado_198564" data-name="Trazado 198564" d="M273.876,79.575a1.115,1.115,0,1,1-1.115-1.116A1.115,1.115,0,0,1,273.876,79.575Z" transform="translate(-260.561 -78.459)" fill="#fff"/>
      </g>
      <g id="Grupo_136662" data-name="Grupo 136662" transform="translate(75.944 15.167)">
        <path id="Trazado_198565" data-name="Trazado 198565" d="M267.565,93.415v38.229a1.168,1.168,0,0,1-1.169,1.168H228.579a1.165,1.165,0,0,1-1.155-1.168V93.415a1.162,1.162,0,0,1,1.155-1.155H266.4A1.165,1.165,0,0,1,267.565,93.415Z" transform="translate(-227.424 -92.26)" fill="#fff"/>
        <path id="Trazado_198566" data-name="Trazado 198566" d="M272.388,129.838V137a1.168,1.168,0,0,1-1.169,1.168H252.462l.8-8.333,8.829-9.764Z" transform="translate(-232.247 -97.618)" fill="#6c3db7"/>
        <path id="Trazado_198567" data-name="Trazado 198567" d="M262.312,137.195H228.579a1.165,1.165,0,0,1-1.155-1.168v-7.165l13.2-13.855Z" transform="translate(-227.424 -96.642)" fill="#854dce"/>
        <path id="Trazado_198568" data-name="Trazado 198568" d="M268.345,104.737a4.654,4.654,0,1,1-4.654-4.654A4.654,4.654,0,0,1,268.345,104.737Z" transform="translate(-233.513 -93.767)" fill="#854dce"/>
      </g>
    </g>
    <g id="Grupo_136671" data-name="Grupo 136671" transform="translate(916.929 3660.454)">
      <path id="Trazado_198569" data-name="Trazado 198569" d="M323.549,282.652,310.93,261l-20.063,1.58-5.472,4.99c-.7-.816-.548-.63-1.1-1.246-4.233-4.74-14.141-12.622-22-20.733a190.955,190.955,0,0,1-15.6-18.428l-1.587.792c.006-.845.011-1.385.011-1.385l-7.061-9.446-8.557-.556-6.353,7.726.327,4.131s.1,6.366,5.076,7.01c1.494.193,5.267.913,6.457,1.726a24.715,24.715,0,0,1,7.976,9.24c5.607,10.993,13.784,26.677,21.46,40.116a16.045,16.045,0,0,0,.88,1.441c2.671,4.257,10.948,16.563,17.715,17.144C291.233,305.8,323.549,282.652,323.549,282.652Z" transform="translate(-200.786 -104.632)" fill="#f7b59c"/>
      <g id="Grupo_136670" data-name="Grupo 136670" transform="translate(144.361)">
        <path id="Trazado_198570" data-name="Trazado 198570" d="M383.085,155.79s2.7-4.025,6.4-4.984-4.068,8.618-4.068,8.618a9.092,9.092,0,0,1-2.334.773C382.845,160.042,383.085,155.79,383.085,155.79Z" transform="translate(-375.932 -91.952)" fill="#01263a"/>
        <path id="Trazado_198571" data-name="Trazado 198571" d="M466.307,121.383s26.436,9.489-5.036,36.763l-4.737-1.442Z" transform="translate(-390.101 -86.298)" fill="#003051"/>
        <path id="Trazado_198572" data-name="Trazado 198572" d="M385.844,210.646a51.462,51.462,0,0,0,29.467,17.824c29.28-.556,34.273-16.689,34.273-16.689L433.23,208.15s-.494-21.353,8.576-34.526c6.8,1.31,9.981-9.411,8.114-12.29-2.025-3.124-4.3-2.712-4.3-2.712-1.927,2.093-3.68,7.019-4.545,9.45l-40.8,21.1a23.18,23.18,0,0,1,1.1,2.933,47.391,47.391,0,0,1,1.821,8.823,60.029,60.029,0,0,1,.354,8.016Zm52.321-37.92c.865-1.474,1.8-2.965,2.842-4.466-.363,1.038-.635,1.977-.832,2.743C439.021,171.976,438.189,172.7,438.165,172.726Z" transform="translate(-376.485 -93.467)" fill="#f7b59c"/>
        <path id="Trazado_198573" data-name="Trazado 198573" d="M405.078,196.035a47.4,47.4,0,0,1,1.821,8.823c33.974-7.447,34.946-25.835,34.946-25.835L424.4,186.1Z" transform="translate(-380.189 -97.4)" fill="#ed9780"/>
        <path id="Trazado_198574" data-name="Trazado 198574" d="M397.438,107.183s-7.4,13.756-2.3,22.818l11.777-15.266" transform="translate(-377.929 -83.562)" fill="#01263a"/>
        <path id="Trazado_198575" data-name="Trazado 198575" d="M381.461,177.513c7.828,12.363,36.522,12.08,49.982-5.632s15.658-38.032,8.926-50.525c-3.743-6.943-12.693-10.958-21.49-11.607a23.922,23.922,0,0,0-7,.519A25.536,25.536,0,0,0,398,118.71c-.33.389-.637.779-.944,1.18l-2.067,2.728c-.271.354-.519.708-.767,1.086a23.516,23.516,0,0,0-2.987,6.27,22.766,22.766,0,0,0-.839,3.554,23.652,23.652,0,0,1-4.818,11.3C379.678,152.1,373.645,165.162,381.461,177.513Z" transform="translate(-374.924 -84.044)" fill="#f7b59c"/>
        <path id="Trazado_198576" data-name="Trazado 198576" d="M402.833,118.848a34.525,34.525,0,0,0,9.119,2.372c6.846.824,20.645,2.192,25.275,7.225a12.836,12.836,0,0,1,3.089,5.709c1.137,3.955-2.57-13.444-2.57-13.444L416.714,110.4A25.544,25.544,0,0,0,402.833,118.848Z" transform="translate(-379.757 -84.183)" fill="#ed9780"/>
        <path id="Trazado_198577" data-name="Trazado 198577" d="M444.489,146.641s-.066,17.915-9.54,22.652-15.961-1.1-20.287-4.2c-2.488-1.779-3.364,2.781-3.364,2.781s4.944,8.212,7.415,8.212,12.426-.137,13.18-.618,6.453-3.227,6.453-3.227,3.913-6.688,4.188-7.395,4.737-8.326,4.531-9.287-.137-7.277-.137-7.277Z" transform="translate(-381.388 -91.163)" fill="#ed9780"/>
        <path id="Trazado_198578" data-name="Trazado 198578" d="M394.025,78.062c-2.233.434-4.255,5.019-5.166,7.074a17.144,17.144,0,0,0,1.88,17.887c6.453,8.942,20.39,8.959,30.79,11.637,9.244,2.379,13.851,8.338,13.243,15.127a6.894,6.894,0,0,0,1.718,5.107l.2.226a5.578,5.578,0,0,1,1.263,4.772c-1.085,5.369-4.477,16.379-12.817,18.842-7.208,2.128-10.165-.579-11.355-1.485-4.194-3.192-6.563-6.727-14.748-10.719-4.257-2.076-8.838-1.788-14.808-2.66-1.111-.162-2.647-.308-2.819-2.106,0,0-13.031,15.289-3.914,31.183a16.659,16.659,0,0,0,10.552,7.953,43.164,43.164,0,0,0,28.135-3.012c19.359-8.754,25.744-28.731,28.319-35.013s9.268-23.2,4.275-38.788c-3.081-9.618-12.838-17.75-28.784-18.467C408.878,85.122,400.642,76.774,394.025,78.062Z" transform="translate(-374.252 -77.927)" fill="#003051"/>
        <path id="Trazado_198579" data-name="Trazado 198579" d="M409.734,172.9a9.369,9.369,0,0,1-.824,1.235c-1.746,2.282-6.336,6.591-14.161,2.785a7.818,7.818,0,0,1-4.276-4.432,9.7,9.7,0,0,1,.585-6.863,61.51,61.51,0,0,0,6.846,3.757,34.827,34.827,0,0,0,11.385,3.485C409.438,172.884,409.587,172.892,409.734,172.9Z" transform="translate(-377.297 -94.82)" fill="#8d1612"/>
        <path id="Trazado_198580" data-name="Trazado 198580" d="M409.595,173.072l-.207.692-.379,1.268c-1.746,2.282-6.336,6.591-14.161,2.785a7.818,7.818,0,0,1-4.276-4.432,10.236,10.236,0,0,1,6.451-3.106h5.256Z" transform="translate(-377.395 -95.716)" fill="#ff4c2f"/>
        <path id="Trazado_198581" data-name="Trazado 198581" d="M391.257,165.626s-2.19,2.727-2.2,3.506c-.008,1.21,14.417,7.983,15.189,8.034s2.115-2.727,2.115-2.727l-5.844-3.481" transform="translate(-377.104 -94.82)" fill="#fafff7"/>
        <path id="Trazado_198582" data-name="Trazado 198582" d="M392.553,129.179c-.342.767-.066.052-.377,1.137a2.085,2.085,0,0,0,1.489,2.5c2.7.966,10.9,4.209,10.9,4.209.857.5.869-.425.6-.98-1.076-2.255-2.157-5.057-9.919-7.687C394.16,127.994,393.021,128.129,392.553,129.179Z" transform="translate(-377.689 -87.606)" fill="#003051"/>
        <path id="Trazado_198583" data-name="Trazado 198583" d="M436.93,147.393c-.321.776.009.085-.565,1.056a2.086,2.086,0,0,1-2.842.643c-2.561-1.3-10.552-5.015-10.552-5.015-.949-.28-.289-.923.3-1.113,2.377-.769,5.154-1.913,12.4,1.911C436.684,145.412,437.37,146.332,436.93,147.393Z" transform="translate(-383.544 -90.304)" fill="#003051"/>
        <path id="Trazado_198584" data-name="Trazado 198584" d="M387.659,165.739s4.545,5.78,10.856,4.016c0,0,.06,4.726,10.666,6.277l.927-3.7s-6.826-3.639-7.274-3.364-6.936-1.733-8.172-1.964-5.457-3.527-5.457-3.527Z" transform="translate(-376.834 -94.405)" fill="#003051"/>
        <path id="Trazado_198585" data-name="Trazado 198585" d="M460.324,163.181s-3.85,5.486-3.259,7.878c0,0,.147-1.389,3.69-1.368,0,0,2.29-3.191,1.138-5.569A1.432,1.432,0,0,0,460.324,163.181Z" transform="translate(-390.191 -94.345)" fill="#ed9780"/>
        <g id="Grupo_136666" data-name="Grupo 136666" transform="translate(38.718 57.862)">
          <g id="Grupo_136664" data-name="Grupo 136664">
            <path id="Trazado_198586" data-name="Trazado 198586" d="M423.272,150.568c-1.209,1.971-1.715,4.119.263,5.685a1.9,1.9,0,0,0,2.281-.235,7.377,7.377,0,0,0,1.735-2.541c1.352-2.564-2.735-5.425-4.279-2.909Z" transform="translate(-422.206 -149.594)" fill="#452e17"/>
          </g>
          <g id="Grupo_136665" data-name="Grupo 136665" transform="translate(1.117 1.838)">
            <path id="Trazado_198587" data-name="Trazado 198587" d="M423.869,152.154c-.317.518-.451,1.081.069,1.492a.5.5,0,0,0,.6-.062c.264-.253.195-.514.35-.809a.6.6,0,0,0-1.017-.621Z" transform="translate(-423.589 -151.87)" fill="#fff"/>
          </g>
        </g>
        <g id="Grupo_136669" data-name="Grupo 136669" transform="translate(17.771 50.931)">
          <g id="Grupo_136667" data-name="Grupo 136667">
            <path id="Trazado_198588" data-name="Trazado 198588" d="M397.173,141.783c-1,1.528-1.446,3.213.08,4.493a1.5,1.5,0,0,0,1.806-.135,6.55,6.55,0,0,0,1.379-2.2c1.125-1.993-1.99-4.108-3.265-2.157Z" transform="translate(-396.262 -141.008)" fill="#452e17"/>
          </g>
          <g id="Grupo_136668" data-name="Grupo 136668" transform="translate(0.908 1.475)">
            <path id="Trazado_198589" data-name="Trazado 198589" d="M397.625,143.049c-.262.4-.379.842.021,1.178a.392.392,0,0,0,.474-.036c.214-.193.165-.4.295-.63a.471.471,0,0,0-.79-.513Z" transform="translate(-397.386 -142.835)" fill="#fff"/>
          </g>
        </g>
      </g>
      <path id="Trazado_198590" data-name="Trazado 198590" d="M241.642,223.833s-10.125-21.742-17.188-26.863c0,0-2.486.389-2.2,3.41s4.578,6.728,4.771,9.555-1.707,2.435-4.046,1.9-19.635-10.163-21.341-9.32c-1.739.858.048,2.656,1.265,3.631s10.45,6.78,10.45,6.78-16.634-9.128-17.879-5.954c-.807,2.058,14.66,10,14.66,10s-13.287-7.443-13.894-4.682c-.518,2.357,10.738,7.638,10.738,7.638s-6.956-3.641-7.48-2.043c-.664,2.026,9,7.274,11.8,9.1s9.622,4.757,12.327,4.686,4.7-.339,6.189,1.172" transform="translate(-195.449 -100.857)" fill="#f7b59c"/>
      <path id="Trazado_198591" data-name="Trazado 198591" d="M448.36,273.442l5.587,20.677H352.467c.008-5.345-.283-11.723-.7-18.021l-21.832,13.37c-7.137-14.145-22.7-27.6-22.913-27.612,15.155-14.869,33.737-31.708,43.862-38.732,4.844-3.367,28.116-4.721,31.136-5.019a8.008,8.008,0,0,0,6.225-4.142s3.238,7.525,8.518,10.246c1.437.589,1.566,9.123,3.359,9.075.533-.016,4.457-8.93,4.965-9.01,0,0,6.249-1.058,13.152-11.457l1.235,1.687a7.96,7.96,0,0,0,4.61,3.06,115.61,115.61,0,0,1,16.018,5.006c8.7,3.512,18.287,20.217,18.287,20.217l2.156,30.656-12.789-.581Z" transform="translate(-216.94 -103.909)" fill="#fff"/>
      <path id="Trazado_198592" data-name="Trazado 198592" d="M470.512,281.4l2.413,25.931h12.514l-2.22-16.9Z" transform="translate(-248.432 -117.121)" fill="#f4f4f4"/>
      <path id="Trazado_198593" data-name="Trazado 198593" d="M510.072,276.336l11.3,30.021H487.668l-5.584-12.191" transform="translate(-250.661 -116.145)" fill="#f7b59c"/>
      <path id="Trazado_198594" data-name="Trazado 198594" d="M455.607,219.6s25.834,3.737,33.557,11.428c3.85,3.833,7.006,11.18,11.839,22.2,7.906,18.031,11.633,27.852,11.633,27.852s-19.556,13.593-39.151,9.556l-9.6-27.653Z" transform="translate(-245.561 -105.216)" fill="#fff"/>
      <ellipse id="Elipse_4926" data-name="Elipse 4926" cx="8.168" cy="7.353" rx="8.168" ry="7.353" transform="translate(155.094 58.286) rotate(-67.998)" fill="none" stroke="#fff" stroke-miterlimit="10" stroke-width="1"/>
      <ellipse id="Elipse_4927" data-name="Elipse 4927" cx="8.168" cy="7.353" rx="8.168" ry="7.353" transform="translate(175.005 66.369) rotate(-67.999)" fill="none" stroke="#fff" stroke-miterlimit="10" stroke-width="1"/>
      <path id="Trazado_198595" data-name="Trazado 198595" d="M408.473,146.867s4.405-.471,6.074,3.131" transform="translate(-236.482 -91.202)" fill="none" stroke="#fff" stroke-miterlimit="10" stroke-width="1"/>
      <line id="Línea_435" data-name="Línea 435" x2="22.629" y2="1.425" transform="translate(191.975 63.524)" fill="none" stroke="#fff" stroke-linecap="round" stroke-miterlimit="10" stroke-width="1"/>
      <path id="Trazado_198596" data-name="Trazado 198596" d="M368.681,308.618h-5.539c.008-5.345-.283-11.723-.7-18.021l4.489-2.511S368.81,302.918,368.681,308.618Z" transform="translate(-227.615 -118.408)" fill="#f4f4f4"/>
      <path id="Trazado_198597" data-name="Trazado 198597" d="M409.73,149.594s-5.892,4.558-6.532,6.943c-.376,1.406,1.985,2.964,1.985,2.964" transform="translate(-235.458 -91.732)" fill="none" stroke="#ed9780" stroke-linecap="round" stroke-miterlimit="10" stroke-width="1"/>
    </g>
    <g id="Grupo_136680" data-name="Grupo 136680" transform="translate(876.274 3846.183)">
      <path id="Trazado_198598" data-name="Trazado 198598" d="M206.8,345.269s2.419,8.435-6.652,8.431a7.394,7.394,0,0,1-3.295-.788c-3.348-1.612-4.128-7.237-4.128-7.237,2.835-.726,1.84-4.822,1.84-4.822l10.076.231s-.5,2.634.237,3.386C206.166,345.782,206.8,345.269,206.8,345.269Z" transform="translate(-154.27 -314.301)" fill="#f7b59c"/>
      <path id="Trazado_198599" data-name="Trazado 198599" d="M186.994,345.987s-.568,7.48,6.474,7.48c6.37,0,6.448-4.955,5.977-7.685,7.274.648,15.23,3.586,19.294,6.921,4.82,6.235,8.165,15.773,8.165,15.773a38.156,38.156,0,0,1-4.522,1.737,18.752,18.752,0,0,0-4.123,1.8l-2.85,38.5H170.849l-.76-38.526s-2.928-.7-5.3-1.478a15.2,15.2,0,0,1-4.762-2.247,80.545,80.545,0,0,1,6.709-14.383C170.835,350.1,178.493,346.98,186.994,345.987Z" transform="translate(-147.972 -315.251)" fill="#5146af"/>
      <path id="Trazado_198600" data-name="Trazado 198600" d="M160.083,374.175s-4.249,15.03-3.858,22.21,17.363,17.233,17.363,17.233l2.219-7.572s-7.049-3-8.094-8.486,4.874-19.236,4.874-19.236-2.615-.766-6.189-1.746A37.064,37.064,0,0,1,160.083,374.175Z" transform="translate(-147.234 -320.719)" fill="#f7b59c"/>
      <path id="Trazado_198601" data-name="Trazado 198601" d="M238.467,374.175s4.25,15.03,3.858,22.21-17.363,17.233-17.363,17.233l-2.219-7.572s7.05-3,8.094-8.486-5.082-19.567-5.082-19.567,2.823-.635,6.4-1.615A50.789,50.789,0,0,0,238.467,374.175Z" transform="translate(-160.051 -320.719)" fill="#f7b59c"/>
      <path id="Trazado_198602" data-name="Trazado 198602" d="M221.921,418.113H166.86l-1.249-34.5a1.58,1.58,0,0,1,1.578-1.637h54.4a1.58,1.58,0,0,1,1.579,1.637Z" transform="translate(-149.046 -322.222)" fill="#9999ef"/>
      <g id="Grupo_136672" data-name="Grupo 136672" transform="translate(0 86.086)">
        <path id="Trazado_198603" data-name="Trazado 198603" d="M229.786,436.162a5.364,5.364,0,0,1,3.9-1.458c1.767-.048,6.773,1.083,9.161,1.044s4.873-.563,6.242,1.476c2.325,3.458,1.321,6.577-2.595,7.046-2.129.255-3.888-1.151-7.271-.816-3.278.325-8.391-.77-9.88-3.112" transform="translate(-161.322 -418.464)" fill="#4c4051"/>
        <path id="Trazado_198604" data-name="Trazado 198604" d="M223.413,434.515a25.446,25.446,0,0,0,4.392.849c1.752.094,5.683-.342,7.459.774,1.923,1.21,1.211,4.489-.008,5.263-1.968,1.25-3.56.6-7.161-.531a22.5,22.5,0,0,0-7.828-.7" transform="translate(-159.574 -418.428)" fill="#f7b59c"/>
        <path id="Trazado_198605" data-name="Trazado 198605" d="M214.3,438.538s-40.824-.736-51.7-2.168a51.4,51.4,0,0,1-12.448-3.052c-4.892-2.913-6.683-9.852-3.355-16.244,1.553-2.982,6.337-2.448,7-2.448.17,0,.258.01.258.01,13.234.517,25.294,3.9,38.925,9.346a157.4,157.4,0,0,0,22.381,7.168C216.077,436.361,214.3,438.538,214.3,438.538Z" transform="translate(-145.095 -414.59)" fill="#0052a3"/>
        <path id="Trazado_198606" data-name="Trazado 198606" d="M242.538,438.648s-1.082-.6-1.442.047a9.518,9.518,0,0,0-.369,3.83c.338.763,1.924.489,1.924.489l1.294-3.49Z" transform="translate(-163.502 -419.175)" fill="#4c4051"/>
      </g>
      <g id="Grupo_136673" data-name="Grupo 136673" transform="translate(1.7 86.312)">
        <path id="Trazado_198607" data-name="Trazado 198607" d="M168.512,436.216a5.57,5.57,0,0,0-4.043-1.529c-1.837-.057-7.039,1.1-9.519,1.05s-4.919-.588-6.5,1.079c-2.98,3.138-.207,7.077,3.858,7.58,2.211.273,2.864-1,6.377-.641,3.4.35,8.718-.768,10.273-3.195" transform="translate(-147.2 -418.687)" fill="#594a5f"/>
        <path id="Trazado_198608" data-name="Trazado 198608" d="M176.318,434.531a26.476,26.476,0,0,1-4.564.865c-1.821.091-5.9-.377-7.75.776-2,1.249-1.275,4.657-.012,5.466,2.04,1.3,3.7.64,7.44-.525a23.372,23.372,0,0,1,8.132-.7" transform="translate(-150.197 -418.657)" fill="#f7b59c"/>
        <path id="Trazado_198609" data-name="Trazado 198609" d="M236.65,433.233l-.01.01a50.125,50.125,0,0,1-13.154,3.3c-10.887,1.392-51.721,1.979-51.721,1.979s-1.769-2.2-1.033-7.4a156.883,156.883,0,0,0,22.41-7.079c13.343-5.259,25.185-8.59,38.06-9.177,2.52.25,5.434,1.362,7.492,5.677C241.437,426.254,239.314,432.229,236.65,433.233Z" transform="translate(-151.698 -414.87)" fill="#0058c4"/>
        <path id="Trazado_198610" data-name="Trazado 198610" d="M162.408,437.02s1.383-.764,1.839.066a12.14,12.14,0,0,1,.452,4.886c-.434.971-2.455.615-2.455.615l-1.634-4.457Z" transform="translate(-149.783 -419.075)" fill="#594a5f"/>
      </g>
      <path id="Trazado_198611" data-name="Trazado 198611" d="M214.912,316.573s3.782-.384-.506,9.411c-1.616,3.692-2.192,3.448-2.219,3.626a3.535,3.535,0,0,1-1.449-1.848c0-.622.062-5.468.124-5.717S214.912,316.573,214.912,316.573Z" transform="translate(-157.739 -309.624)" fill="#2c1e56"/>
      <path id="Trazado_198612" data-name="Trazado 198612" d="M187.8,319.339s-2.927-.815-1.746,5.026a11.5,11.5,0,0,0,2.907,5.77,3.535,3.535,0,0,0,1.449-1.848c0-.622-.062-5.468-.124-5.717S187.8,319.339,187.8,319.339Z" transform="translate(-152.931 -310.149)" fill="#2c1e56"/>
      <path id="Trazado_198613" data-name="Trazado 198613" d="M188.888,328.3s-1.242-1.2-1.591.4.949,5.75,2.6,4.151" transform="translate(-153.213 -311.799)" fill="#e5a18c"/>
      <path id="Trazado_198614" data-name="Trazado 198614" d="M212.792,328.3s1.241-1.2,1.591.4-.95,5.75-2.6,4.151" transform="translate(-157.94 -311.799)" fill="#e5a18c"/>
      <path id="Trazado_198615" data-name="Trazado 198615" d="M199.171,339.765h-.1c-1.152.069-11.4.168-10.107-18.467H208.5S210.867,338.646,199.171,339.765Z" transform="translate(-153.524 -310.534)" fill="#f7b59c"/>
      <path id="Trazado_198616" data-name="Trazado 198616" d="M204.623,308.286c3.678,1.09,6.054,5.74,4.237,9.419s-7.665,5.821-14.2,4.429c-3.849-.819-5.087-2.367-7.395-2.251a4.064,4.064,0,0,1-4.011-2.659c-.84-2.263-1.335-5.322,1.01-7.145C190.638,311.918,199.1,306.65,204.623,308.286Z" transform="translate(-152.31 -307.966)" fill="#2c1e56"/>
      <path id="Trazado_198617" data-name="Trazado 198617" d="M203.468,402.145a3.543,3.543,0,1,1-3.544-3.543A3.543,3.543,0,0,1,203.468,402.145Z" transform="translate(-154.974 -325.425)" fill="#d1deff"/>
      <path id="Trazado_198618" data-name="Trazado 198618" d="M195.2,342.249a8.182,8.182,0,0,0,1.461.714,8.542,8.542,0,0,0,3.43.566,9.925,9.925,0,0,0,1.859-.259,11.576,11.576,0,0,0,1.578-.483,11.978,11.978,0,0,0,1.485-.673,6.715,6.715,0,0,1-1.369.928,9.122,9.122,0,0,1-1.581.651,8.239,8.239,0,0,1-1.939.332,7.087,7.087,0,0,1-1.975-.194,7.235,7.235,0,0,1-1.6-.614A5.4,5.4,0,0,1,195.2,342.249Z" transform="translate(-154.746 -314.544)" fill="#eaa18b"/>
      <g id="Grupo_136676" data-name="Grupo 136676" transform="translate(39.717 18.081)">
        <g id="Grupo_136674" data-name="Grupo 136674">
          <path id="Trazado_198619" data-name="Trazado 198619" d="M195.718,330.917c.075.666.133,1.454-.593,1.541a.765.765,0,0,1-.745-.422,2.4,2.4,0,0,1-.089-.95c-.04-.84,1.331-1.019,1.427-.168Z" transform="translate(-194.287 -330.361)" fill="#452e17"/>
        </g>
        <g id="Grupo_136675" data-name="Grupo 136675" transform="translate(0.745 0.985)">
          <path id="Trazado_198620" data-name="Trazado 198620" d="M195.557,331.716c.034.172.013.339-.17.4a.144.144,0,0,1-.157-.077c-.046-.1,0-.16-.014-.256a.173.173,0,0,1,.34-.065Z" transform="translate(-195.21 -331.58)" fill="#fff"/>
        </g>
      </g>
      <g id="Grupo_136679" data-name="Grupo 136679" transform="translate(48.679 18.081)">
        <g id="Grupo_136677" data-name="Grupo 136677">
          <path id="Trazado_198621" data-name="Trazado 198621" d="M206.818,330.917c.075.666.133,1.454-.593,1.541a.765.765,0,0,1-.745-.422,2.4,2.4,0,0,1-.089-.95c-.04-.84,1.331-1.019,1.427-.168Z" transform="translate(-205.387 -330.361)" fill="#452e17"/>
        </g>
        <g id="Grupo_136678" data-name="Grupo 136678" transform="translate(0.745 0.985)">
          <path id="Trazado_198622" data-name="Trazado 198622" d="M206.657,331.716c.034.172.013.339-.17.4a.144.144,0,0,1-.157-.077c-.046-.1,0-.16-.014-.256a.173.173,0,0,1,.34-.065Z" transform="translate(-206.31 -331.58)" fill="#fff"/>
        </g>
      </g>
      <path id="Trazado_198623" data-name="Trazado 198623" d="M207.633,327.94c.056.162.015.014.049.232s-.194.366-.493.371c-.741.015-3,.119-3,.119-.243.04-.207-.13-.115-.216.375-.35.774-.8,2.9-.818C207.267,327.626,207.557,327.719,207.633,327.94Z" transform="translate(-156.442 -311.753)" fill="#003051"/>
      <path id="Trazado_198624" data-name="Trazado 198624" d="M192.982,327.94c-.056.162-.015.014-.049.232s.194.366.493.371c.741.015,3,.119,3,.119.243.04.207-.13.115-.216-.375-.35-.775-.8-2.9-.818C193.347,327.626,193.058,327.719,192.982,327.94Z" transform="translate(-154.309 -311.753)" fill="#003051"/>
      <path id="Trazado_198625" data-name="Trazado 198625" d="M200.618,332.584s-.858,1.884-.589,2.253,1.28.387,1.28.387" transform="translate(-155.666 -312.708)" fill="none" stroke="#eaa18b" stroke-linecap="round" stroke-miterlimit="10" stroke-width="0.5"/>
      <path id="Trazado_198626" data-name="Trazado 198626" d="M197.938,339.231a5,5,0,0,0,5.121-.127" transform="translate(-155.273 -313.964)" fill="none" stroke="#c9806f" stroke-linecap="round" stroke-miterlimit="10" stroke-width="0.5"/>
    </g>
    <g id="Grupo_136686" data-name="Grupo 136686" transform="translate(1104.119 3804.487)">
      <g id="Grupo_136682" data-name="Grupo 136682" transform="translate(0 71.645)">
        <g id="Grupo_136681" data-name="Grupo 136681" transform="translate(21.924 3.651)">
          <path id="Trazado_198627" data-name="Trazado 198627" d="M457.614,422.608V349.877a.3.3,0,0,0-.294-.295h-1.765a.3.3,0,0,0-.294.295v72.731a1.029,1.029,0,0,0-.809,1,1.044,1.044,0,0,0,1.044,1.043h1.883a1.044,1.044,0,0,0,1.044-1.043A1.029,1.029,0,0,0,457.614,422.608Z" transform="translate(-454.452 -349.582)" fill="#fff"/>
          <path id="Trazado_198628" data-name="Trazado 198628" d="M636.328,422.56h-.06V349.582h-2.353V422.56h-.06a.75.75,0,0,0-.749.749v.589a.75.75,0,0,0,.749.749h2.472a.75.75,0,0,0,.749-.749v-.589A.75.75,0,0,0,636.328,422.56Z" transform="translate(-488.865 -349.582)" fill="#fff"/>
        </g>
        <path id="Trazado_198629" data-name="Trazado 198629" d="M614.993,349.439H429.488a2.189,2.189,0,0,1-2.19-2.19h0a2.189,2.189,0,0,1,2.19-2.19H614.993a2.189,2.189,0,0,1,2.19,2.19h0A2.189,2.189,0,0,1,614.993,349.439Z" transform="translate(-427.298 -345.06)" fill="#9999f1"/>
      </g>
      <path id="Trazado_198630" data-name="Trazado 198630" d="M537.169,333.3H483.623l-10.6-33.325a2.6,2.6,0,0,1,2.479-3.391h48.084a2.6,2.6,0,0,1,2.48,1.813Z" transform="translate(-436.082 -264.077)" fill="#5146af"/>
      <path id="Trazado_198631" data-name="Trazado 198631" d="M536.515,333.675H485.807l-10.66-33.851a.975.975,0,0,1,.921-1.272h48.582a1.1,1.1,0,0,1,1.048.773Z" transform="translate(-436.506 -264.457)" fill="#fff"/>
      <path id="Trazado_198632" data-name="Trazado 198632" d="M505.868,304.776H482.511a.63.63,0,0,1-.63-.63h0a.63.63,0,0,1,.63-.631h23.357a.631.631,0,0,1,.631.631h0A.63.63,0,0,1,505.868,304.776Z" transform="translate(-437.812 -265.413)" fill="#c2e0f2"/>
      <path id="Trazado_198633" data-name="Trazado 198633" d="M509.708,308.384H483.661a.63.63,0,0,1-.63-.631h0a.63.63,0,0,1,.63-.63h26.047a.63.63,0,0,1,.63.63h0A.63.63,0,0,1,509.708,308.384Z" transform="translate(-438.033 -266.108)" fill="#c2e0f2"/>
      <path id="Trazado_198634" data-name="Trazado 198634" d="M507.521,311.991H484.836a.63.63,0,0,1-.631-.63h0a.631.631,0,0,1,.631-.631h22.685a.63.63,0,0,1,.63.631h0A.63.63,0,0,1,507.521,311.991Z" transform="translate(-438.259 -266.803)" fill="#c2e0f2"/>
      <path id="Trazado_198635" data-name="Trazado 198635" d="M503.96,315.6H485.98a.63.63,0,0,1-.63-.63h0a.63.63,0,0,1,.63-.631h17.98a.631.631,0,0,1,.631.631h0A.63.63,0,0,1,503.96,315.6Z" transform="translate(-438.48 -267.498)" fill="#c2e0f2"/>
      <path id="Trazado_198636" data-name="Trazado 198636" d="M513.206,319.207H487.16a.631.631,0,0,1-.631-.631h0a.63.63,0,0,1,.631-.63h26.046a.63.63,0,0,1,.63.63h0A.63.63,0,0,1,513.206,319.207Z" transform="translate(-438.707 -268.193)" fill="#c2e0f2"/>
      <path id="Trazado_198637" data-name="Trazado 198637" d="M511,322.814H488.314a.63.63,0,0,1-.63-.63h0a.63.63,0,0,1,.63-.631H511a.63.63,0,0,1,.63.631h0A.63.63,0,0,1,511,322.814Z" transform="translate(-438.93 -268.888)" fill="#c2e0f2"/>
      <path id="Trazado_198638" data-name="Trazado 198638" d="M516.663,330.029H490.617a.63.63,0,0,1-.631-.63h0a.631.631,0,0,1,.631-.631h26.046a.63.63,0,0,1,.63.631h0A.629.629,0,0,1,516.663,330.029Z" transform="translate(-439.373 -270.277)" fill="#c2e0f2"/>
      <path id="Trazado_198639" data-name="Trazado 198639" d="M517.837,333.637H491.791a.63.63,0,0,1-.63-.631h0a.63.63,0,0,1,.63-.63h26.046a.63.63,0,0,1,.631.63h0A.631.631,0,0,1,517.837,333.637Z" transform="translate(-439.599 -270.972)" fill="#c2e0f2"/>
      <path id="Trazado_198640" data-name="Trazado 198640" d="M537.245,327.784h-8.414a1.8,1.8,0,0,1-1.713-1.256l-7.014-22.2a1.8,1.8,0,0,1,1.713-2.339h8.414a1.8,1.8,0,0,1,1.713,1.256l7.014,22.2A1.8,1.8,0,0,1,537.245,327.784Z" transform="translate(-445.158 -265.119)" fill="#c2e0f2"/>
      <path id="Trazado_198641" data-name="Trazado 198641" d="M543.757,344.238H485.528a1.723,1.723,0,0,1-1.723-1.723h0a1.722,1.722,0,0,1,1.723-1.722h58.229a1.722,1.722,0,0,1,1.722,1.722h0A1.722,1.722,0,0,1,543.757,344.238Z" transform="translate(-438.182 -272.594)" fill="#5146af"/>
      <g id="Grupo_136683" data-name="Grupo 136683" transform="translate(108.395 19.138)">
        <path id="Trazado_198642" data-name="Trazado 198642" d="M564.517,288.014a1.278,1.278,0,0,1-1.109-.64l-1.688-2.97a1.269,1.269,0,0,1,.511-1.75l4.7-2.481a1.274,1.274,0,0,1,1.708.515l1.6,2.945a1.27,1.27,0,0,1-.509,1.723l-4.614,2.506A1.253,1.253,0,0,1,564.517,288.014Zm3-7.4a.674.674,0,0,0-.316.078l-4.7,2.482a.684.684,0,0,0-.275.943h0l1.688,2.969a.687.687,0,0,0,.921.262l4.615-2.506a.684.684,0,0,0,.273-.928l-1.6-2.945A.685.685,0,0,0,567.52,280.612Z" transform="translate(-561.553 -280.027)" fill="#1a1a47"/>
      </g>
      <path id="Trazado_198643" data-name="Trazado 198643" d="M550.972,320.326a10.121,10.121,0,0,1-.679.794,23.494,23.494,0,0,0-3.61-2.34,11.037,11.037,0,0,0-3.414.477c-1.535.315-.9-.941-.9-.941s-1.034.362-1.941.731c-1.035.42-2.112,1.285-2.424,1.36-.592.141-1.171-.153-.618-.981a28.9,28.9,0,0,1,5.4-5.015c1.176-.558,2.777-1.371,4.06-.894a44.676,44.676,0,0,1,5.464,3.609A5.2,5.2,0,0,1,550.972,320.326Z" transform="translate(-448.461 -267.312)" fill="#f7b59c"/>
      <path id="Trazado_198644" data-name="Trazado 198644" d="M552.893,319.528s13.849,12.112,24.212,13.345,27.838-18.428,27.838-18.428-1.1-10.473-7.562-9.242-15.123,16.8-18.877,17.531-23.266-7.542-23.266-7.542a5.069,5.069,0,0,0-1.207,1.487A13.025,13.025,0,0,0,552.893,319.528Z" transform="translate(-451.49 -265.719)" fill="#9ca2f2"/>
      <path id="Trazado_198645" data-name="Trazado 198645" d="M585.524,263.428c-3.3-3.781-8.184-4.187-11.954-3.77a12.485,12.485,0,0,0-10.677,8.653,11.115,11.115,0,0,0,.224,7.127c3.075,8.494,6.342,13.173,8.855,15.473,1.1,1.011,3.433-.366,5.774-1.188a.659.659,0,0,1,.8.307l1.336,2.468,9.65-1.969a34.046,34.046,0,0,1-2.036-5.6C588.763,283.334,591.567,270.345,585.524,263.428Z" transform="translate(-453.324 -256.94)" fill="#f7b59c"/>
      <path id="Trazado_198646" data-name="Trazado 198646" d="M567.248,274.93a2.489,2.489,0,0,1,2.525,1.482c.715,1.7,1.817,4.078,2.685,4.852a.885.885,0,0,0,.955.009.748.748,0,0,0,.437-.741,20.179,20.179,0,0,0-1-3.385,2.279,2.279,0,0,1,1.712-3.156,3.869,3.869,0,0,1,1.413.087c2.569.779.8,4.807.748,6.911-.037,1.483,1.738,4.921,2.526,5.23a8.069,8.069,0,0,0,8.567-2.466c2.074-2.563,2.526-11.13,1.391-16.256s-5.236-8.018-6.591-8.347a4.79,4.79,0,0,0-1.611-.125,1.494,1.494,0,0,1-1.132-.37c-1.366-1.188-5.446-3.9-11.9-1.116a14.965,14.965,0,0,0-9.263,14.278c.1,2.19,1.815,2.027,3.007,1.646a1.99,1.99,0,0,1,1.892.409A4.826,4.826,0,0,0,567.248,274.93Z" transform="translate(-452.608 -256.323)" fill="#0b0b3a"/>
      <path id="Trazado_198647" data-name="Trazado 198647" d="M581.845,300.665s-.858-.956-.532-1.54c.4-.725,4.779-4.187,9.886-4,.794.028,1.764.028,2.716,2.1a14.956,14.956,0,0,1,1.176,3.445Z" transform="translate(-456.95 -263.795)" fill="#9ca2f2"/>
      <path id="Trazado_198648" data-name="Trazado 198648" d="M600.549,363.144c-.309.074-.645.148-.995.215a86.416,86.416,0,0,1-11.386.9c-13.9-.249-20.071-7.744-22.329-11.608a14.467,14.467,0,0,1-1.109-2.265A12.779,12.779,0,0,0,569.348,344c1.048-3.448-.054-11.669-1.849-14.8-.988-1.721-3.912-5.209-5.747-8.886-1.506-3.024-2.285-6.177-.639-8.583a30.934,30.934,0,0,1,10.533-9.2s11.83-4.739,21.906-3.663c6.392.672,12.085,3.683,13.6,11.729C611.075,331.324,600.549,363.144,600.549,363.144Z" transform="translate(-452.896 -264.488)" fill="#b0b2ff"/>
      <path id="Trazado_198649" data-name="Trazado 198649" d="M572.676,428.742a4.59,4.59,0,0,1-2.5,1.408,4.43,4.43,0,0,1-2.907-.539l-.773-2.23,5.334-1.162Z" transform="translate(-454.111 -289.048)" fill="#f7b59c"/>
      <path id="Trazado_198650" data-name="Trazado 198650" d="M538.128,432.21a4.589,4.589,0,0,1-2.688.994,4.432,4.432,0,0,1-2.784-.994l-.409-2.324h5.472Z" transform="translate(-447.513 -289.755)" fill="#f7b59c"/>
      <path id="Trazado_198651" data-name="Trazado 198651" d="M569.627,416.859c-.35.161-1.415.6-1.8.732a49.76,49.76,0,0,1-4.885,1.26C558.359,408.94,550.878,384,550.878,384c-1.042-4.409,2.1-6.19,4.853-6.358a5.842,5.842,0,0,1,2.541.37c2.634,1.116,6.5,8.57,6.5,8.57a45.853,45.853,0,0,1,2.406,7.9C568.408,399.793,569.627,416.859,569.627,416.859Z" transform="translate(-451.063 -279.688)" fill="#1a1a47"/>
      <path id="Trazado_198652" data-name="Trazado 198652" d="M574.733,375.883c-.034,2.507-.7,6.507-4.457,7.635-5.606,1.68-9.746.726-16.246-.4-5.444-.934-14.041-4.12-16.676-5.122-.343-.128-.279.044-.212.4,1.243,6.076-.769,38.908-.769,38.908a15.6,15.6,0,0,1-1.855.43,7.561,7.561,0,0,1-1.068.094c-1.412,0-4.007-.266-4.007-.266s-4.986-23.125-5.773-36.064,0-14.938,6.134-17.07c6.83-2.375,27.843-1.737,27.843-1.737l.007.006a20.051,20.051,0,0,0,5.915,7.925A24.933,24.933,0,0,0,574.733,375.883Z" transform="translate(-445.813 -276.797)" fill="#3d3d72"/>
      <g id="Grupo_136684" data-name="Grupo 136684" transform="translate(97.988 49.389)">
        <path id="Trazado_198653" data-name="Trazado 198653" d="M593.823,395.34v33.225a2.144,2.144,0,0,1-4.288,0V395.34Z" transform="translate(-556.537 -332.489)" fill="#94c1f7"/>
        <path id="Trazado_198654" data-name="Trazado 198654" d="M594.027,397.13v31.688a2.293,2.293,0,0,1-1.846,2.216,2.145,2.145,0,0,1-1.371-.268l-.217-.4V398.01a.88.88,0,0,1,.88-.88Z" transform="translate(-556.74 -332.834)" fill="#b5d0ff"/>
        <path id="Trazado_198655" data-name="Trazado 198655" d="M595.8,393.517a1.734,1.734,0,0,1-.06.457,1.859,1.859,0,0,1-1.788,1.392H587.57a1.852,1.852,0,0,1-1.848-1.849,1.858,1.858,0,0,1,1.848-1.848h6.386A1.847,1.847,0,0,1,595.8,393.517Z" transform="translate(-555.802 -331.782)" fill="#94c1f7"/>
        <path id="Trazado_198656" data-name="Trazado 198656" d="M596.251,394.524a1.859,1.859,0,0,1-1.788,1.392h-6.11a1.819,1.819,0,0,1,.478-.854,1.871,1.871,0,0,1,1.31-.538Z" transform="translate(-556.309 -332.332)" fill="#b5d0ff"/>
        <path id="Trazado_198657" data-name="Trazado 198657" d="M611.417,321.261c0,.02-.01.031-.01.051a5.9,5.9,0,0,1-.111.631c-.519,2.169-2.352,6.415-2.617,12.778-.174,3.91-.01,14.285-.194,20.557v.01c-.031.937-.061,1.771-.1,2.495-.336,5.549-2.23,13.775-8.023,17.94-5.885,4.418-17.726,3.655-24.914,3.492s-25-3.411-26.421-6.058a2.3,2.3,0,0,1-.336-1.528c0-.01,0-.01.01-.02a1.852,1.852,0,0,1,.549-1.018,2.773,2.773,0,0,1,2.627-.652c2.9.723,11.536,2.392,15.425-2.535,4.7-5.967,4.113-12.859,6.129-27.388,1.9-13.746,6.191-17.96,13.287-20.7,7.585-2.923,19.773-1.67,22.817-.754A2.6,2.6,0,0,1,611.417,321.261Z" transform="translate(-548.664 -317.495)" fill="#cfe3ff"/>
        <path id="Trazado_198658" data-name="Trazado 198658" d="M611.127,440.449a.788.788,0,0,1-.787.786H562.173a.785.785,0,0,1-.128-1.56l24.211-3.925,6.09.987,18.114,2.937A.787.787,0,0,1,611.127,440.449Z" transform="translate(-551.115 -340.273)" fill="#b5d0ff"/>
      </g>
      <path id="Trazado_198659" data-name="Trazado 198659" d="M529.661,432.765a8.874,8.874,0,0,0,2.766.574,6.662,6.662,0,0,0,2.723-.574s2.806,3.573,1.315,7.555a.542.542,0,0,1-.507.343H517.143a.422.422,0,0,1-.427-.409,1.574,1.574,0,0,1,1.323-1.552c1.736-.533,3.528-.827,4.873-1.3s3.275-2.45,4.355-2.815A5.862,5.862,0,0,0,529.661,432.765Z" transform="translate(-444.522 -290.309)" fill="#1a1a47"/>
      <path id="Trazado_198660" data-name="Trazado 198660" d="M564.683,430.212a8.863,8.863,0,0,0,2.822.128,6.662,6.662,0,0,0,2.6-1s3.338,3.083,2.5,7.25a.54.54,0,0,1-.446.419s-9.928,2.225-13.285,2.706a47.661,47.661,0,0,1-5.292.295.45.45,0,0,1-.487-.348,1.573,1.573,0,0,1,1.059-1.743c1.63-.8,3.353-1.376,4.6-2.059s2.844-2.94,3.853-3.471A5.864,5.864,0,0,0,564.683,430.212Z" transform="translate(-451.524 -289.65)" fill="#1a1a47"/>
      <path id="Trazado_198661" data-name="Trazado 198661" d="M516.641,341.051s-1.929-.8-2.937-1.156c-.4-.141-.78-.241-1.089-.316a5.828,5.828,0,0,0-1.324-.141H500.328a.576.576,0,0,1-.572-.578,1.249,1.249,0,0,1,.572-1.055l1.176-.759,3.515-2.272a6.9,6.9,0,0,1,5.076-1.01,19,19,0,0,1,2.156.756c2.054.678,2.5.987,3.866,1.471a9.354,9.354,0,0,0,1.149.349,1.131,1.131,0,0,0,.471.048A6.577,6.577,0,0,1,516.641,341.051Z" transform="translate(-441.255 -271.225)" fill="#f7b59c"/>
      <path id="Trazado_198662" data-name="Trazado 198662" d="M563.469,310.139c-1.436-.877-5.781-3.289-11.382,5.446s-7.319,12.461-8.938,15.176c-1.96,1.176-21.7.673-21.7.673a17.906,17.906,0,0,0-1.428,4.894,71.946,71.946,0,0,0,24.4,6.2c10.775,0,21.877-21.057,22.381-23.689S566.9,312.235,563.469,310.139Z" transform="translate(-445.158 -266.5)" fill="#b0b2ff"/>
      <g id="Grupo_136685" data-name="Grupo 136685" transform="translate(108.936 18.108)">
        <path id="Trazado_198663" data-name="Trazado 198663" d="M562.516,285.761a.292.292,0,0,1-.133-.553l10.915-5.594c1.235-.633,3.764-1.928,5.64.825a.293.293,0,0,1-.484.33c-1.463-2.148-3.208-1.5-4.868-.644l-10.936,5.6A.285.285,0,0,1,562.516,285.761Z" transform="translate(-562.223 -278.751)" fill="#1a1a47"/>
      </g>
      <path id="Trazado_198664" data-name="Trazado 198664" d="M575.908,280.031l1.441,4.6a1.463,1.463,0,0,0,2.2-.16c1.08-1.244,2.022-5.564.04-6.285A2.6,2.6,0,0,0,575.908,280.031Z" transform="translate(-455.923 -260.489)" fill="#f7b59c"/>
      <path id="Trazado_198665" data-name="Trazado 198665" d="M610.979,319.632a.076.076,0,0,1-.01-.03,2.672,2.672,0,0,0-1.436-1.039c-3.044-.916-15.231-2.169-22.817.754-7.1,2.739-11.383,6.953-13.287,20.7C571.414,354.545,572,361.437,567.3,367.4c-3.889,4.927-12.523,3.258-15.425,2.535a2.773,2.773,0,0,0-2.627.652,1.89,1.89,0,0,0-.56,1.038,2.3,2.3,0,0,0,.336,1.528c1.425,2.647,19.232,5.885,26.421,6.058s19.029.926,24.914-3.492c5.793-4.164,7.687-12.391,8.023-17.94.04-.723.071-1.557.1-2.495-.122.509-4.1,11.72-18.112,9.136-13.5-2.488-14.723-17.292-14.24-22.273.064-.541.128-1.067.189-1.555.122-.924.863-4.826,1.781-8.237a16.577,16.577,0,0,1,5.311-8.248,7.946,7.946,0,0,1,1.287-.772c.132-.082.285-.163.438-.245.2-.112.417-.214.662-.326l.7-.305c.174-.071.357-.142.53-.2,10.965-4.337,22.755-1.517,23.529-1.4C611.295,320.987,611.03,319.836,610.979,319.632Z" transform="translate(-450.676 -268.106)" fill="#94c1f7" opacity="0.5"/>
    </g>
    <g id="Grupo_136687" data-name="Grupo 136687" transform="translate(962.296 3959.416)">
      <path id="Trazado_198666" data-name="Trazado 198666" d="M255.764,451.414l1.2-3.2s19.083.9,28.132,6.532l-17.218.323Z" transform="translate(-252.434 -448.214)" fill="#e1efff"/>
      <path id="Trazado_198667" data-name="Trazado 198667" d="M321.43,451.414l-1.2-3.2s-19.083.9-28.132,6.532l17.218.323Z" transform="translate(-259.432 -448.214)" fill="#e1efff"/>
      <path id="Trazado_198668" data-name="Trazado 198668" d="M284.862,455.28c-10.338-4.013-30.32-4.294-30.32-4.294v6.808h60.641v-6.808S295.2,451.268,284.862,455.28Z" transform="translate(-252.199 -448.748)" fill="#cce1ff"/>
      <rect id="Rectángulo_41704" data-name="Rectángulo 41704" width="65.328" height="2.307" transform="translate(0 7.153)" fill="#7878ff"/>
    </g>
    <path id="Trazado_198669" data-name="Trazado 198669" d="M496.918,144.9l5.754-3.772a7.662,7.662,0,0,0,4.14,1.214h27.72a7.7,7.7,0,0,0,7.7-7.7v-8.719a7.7,7.7,0,0,0-7.7-7.7h-27.72a7.7,7.7,0,0,0-7.7,7.7v8.719a7.663,7.663,0,0,0,1.324,4.318Zm9.872-7.519a.693.693,0,0,1,.691-.69h26.655a.691.691,0,1,1,0,1.381H507.481A.693.693,0,0,1,506.79,137.383Zm27.346-2.912H520.053a.691.691,0,1,1,0-1.381h14.082a.691.691,0,1,1,0,1.381Zm-27.346-4.294a.693.693,0,0,1,.691-.691h26.655a.691.691,0,0,1,0,1.382H507.481A.693.693,0,0,1,506.79,130.177Zm27.346-2.912H514.474a.691.691,0,0,1,0-1.382h19.662a.691.691,0,0,1,0,1.382ZM506.79,122.97a.693.693,0,0,1,.691-.691h26.655a.691.691,0,0,1,0,1.382H507.481A.693.693,0,0,1,506.79,122.97Z" transform="translate(663.411 3574.766)" fill="#b5d0ff"/>
    <g id="Grupo_136688" data-name="Grupo 136688" transform="translate(877.974 3672.026)">
      <path id="Trazado_198670" data-name="Trazado 198670" d="M190.452,237.823h-40a3.25,3.25,0,0,0-3.25,3.25v123.31a3.25,3.25,0,0,0,3.25,3.25h2.9" transform="translate(-147.2 -120.298)" fill="none" stroke="#9acee2" stroke-linecap="round" stroke-miterlimit="10" stroke-width="1" stroke-dasharray="12 5"/>
      <path id="Trazado_198671" data-name="Trazado 198671" d="M549.1,186.678h76.561a5.71,5.71,0,0,1,5.71,5.711v99.979a5.71,5.71,0,0,1-5.71,5.71h-8.737" transform="translate(-224.615 -110.447)" fill="none" stroke="#9acee2" stroke-linecap="round" stroke-miterlimit="10" stroke-width="1" stroke-dasharray="12 5"/>
      <path id="Trazado_198672" data-name="Trazado 198672" d="M288.872,92.26h46.121a9.332,9.332,0,0,1,9.333,9.332v44.044" transform="translate(-174.489 -92.26)" fill="none" stroke="#9acee2" stroke-linecap="round" stroke-miterlimit="10" stroke-width="1" stroke-dasharray="12 5"/>
    </g>
    <g id="Grupo_136691" data-name="Grupo 136691" transform="translate(1126.852 3856.056)">
      <g id="Grupo_136689" data-name="Grupo 136689">
        <path id="Trazado_198673" data-name="Trazado 198673" d="M461.97,332.3a14.888,14.888,0,0,1-6.516-9.289s5.044,1.045,7.573,9.289" transform="translate(-455.454 -320.737)" fill="#fff"/>
        <path id="Trazado_198674" data-name="Trazado 198674" d="M465.891,332.3a14.887,14.887,0,0,0,6.516-9.289s-5.044,1.045-7.573,9.289" transform="translate(-457.261 -320.737)" fill="#fff"/>
        <path id="Trazado_198675" data-name="Trazado 198675" d="M463.44,331.263a14.888,14.888,0,0,1-2.722-11.015s4.327,2.8,3.708,11.4" transform="translate(-456.427 -320.205)" fill="#fff"/>
        <path id="Trazado_198676" data-name="Trazado 198676" d="M465.427,331.272a14.888,14.888,0,0,0,2.46-11.077s-4.259,2.9-3.436,11.483" transform="translate(-457.167 -320.195)" fill="#fff"/>
      </g>
      <g id="Grupo_136690" data-name="Grupo 136690" transform="translate(1.613 10.313)">
        <rect id="Rectángulo_41705" data-name="Rectángulo 41705" width="11.669" height="9.759" fill="#cfe3ff"/>
        <rect id="Rectángulo_41706" data-name="Rectángulo 41706" width="3.471" height="9.759" fill="#94c1f7" opacity="0.5"/>
      </g>
    </g>
    <g id="Grupo_136695" data-name="Grupo 136695" transform="translate(1241.721 3787.988)">
      <g id="Grupo_136694" data-name="Grupo 136694" opacity="0.5">
        <g id="Grupo_136693" data-name="Grupo 136693">
          <g id="Grupo_136692" data-name="Grupo 136692" transform="translate(0.656 15.881)">
            <path id="Trazado_198677" data-name="Trazado 198677" d="M603.819,259.6l-5.278,2.815,2.639-6.861" transform="translate(-598.541 -255.558)" fill="#389fe5"/>
          </g>
          <path id="Trazado_198678" data-name="Trazado 198678" d="M620.039,247.043a11.156,11.156,0,1,1-11.156-11.155A11.156,11.156,0,0,1,620.039,247.043Z" transform="translate(-597.728 -235.888)" fill="#389fe5"/>
        </g>
      </g>
      <path id="Trazado_198679" data-name="Trazado 198679" d="M605.729,247.89l3.385,4.212,6.007-6.3" transform="translate(-599.269 -237.798)" fill="none" stroke="#fff" stroke-linecap="round" stroke-linejoin="round" stroke-width="1.38"/>
    </g>
    <g id="Grupo_136699" data-name="Grupo 136699" transform="translate(885.149 3824.65)">
      <g id="Grupo_136698" data-name="Grupo 136698" opacity="0.5">
        <g id="Grupo_136697" data-name="Grupo 136697">
          <g id="Grupo_136696" data-name="Grupo 136696" transform="translate(16.377 15.882)">
            <path id="Trazado_198680" data-name="Trazado 198680" d="M176.371,305.014l5.278,2.815-2.639-6.861" transform="translate(-176.371 -300.968)" fill="#389fe5"/>
          </g>
          <path id="Trazado_198681" data-name="Trazado 198681" d="M156.087,292.453A11.156,11.156,0,1,0,167.243,281.3,11.155,11.155,0,0,0,156.087,292.453Z" transform="translate(-156.087 -281.297)" fill="#389fe5"/>
        </g>
      </g>
      <path id="Trazado_198682" data-name="Trazado 198682" d="M164.088,293.3l3.385,4.212,6.007-6.3" transform="translate(-157.628 -283.207)" fill="none" stroke="#fff" stroke-linecap="round" stroke-linejoin="round" stroke-width="1.38"/>
    </g>
    <g id="Grupo_136702" data-name="Grupo 136702" transform="translate(1212.241 3693.524)">
      <rect id="Rectángulo_41707" data-name="Rectángulo 41707" width="46.187" height="46.748" rx="1.77" fill="#fff"/>
      <g id="Grupo_136701" data-name="Grupo 136701" transform="translate(8.447 4.454)" opacity="0.5">
        <path id="Trazado_198683" data-name="Trazado 198683" d="M598.35,141.626a13.228,13.228,0,0,1-3.758,9.28.035.035,0,0,1-.019.009,12.245,12.245,0,0,1-1.147,1.054,12.472,12.472,0,0,1-1.9,1.3,12.023,12.023,0,0,1-1.641.774,13.037,13.037,0,0,1-4.057.9q-.406.028-.811.028a13.339,13.339,0,0,1-3.069-26.32l.121-.027a11.361,11.361,0,0,1,1.3-.233,13.744,13.744,0,0,1,1.651-.1,13.333,13.333,0,0,1,11.742,7.014q.224.419.42.867A13.187,13.187,0,0,1,598.35,141.626Z" transform="translate(-571.677 -125.15)" fill="#9999f1"/>
        <g id="Grupo_136700" data-name="Grupo 136700" transform="translate(1.115 3.132)">
          <path id="Trazado_198684" data-name="Trazado 198684" d="M588.635,153.518c.1.669-.719,1.065-1.374,1.224-.387.1-.778.191-1.169.273-.269.019-.542.027-.815.027a13.28,13.28,0,0,1-8.4-2.976,2.179,2.179,0,0,1-.036-.35,6.117,6.117,0,0,1,.287-1.507,6.729,6.729,0,0,0,.178-1.274.646.646,0,0,0-.1-.451.966.966,0,0,0-.354-.2,1.73,1.73,0,0,1-1-1.985c.648-1.595,2.927-1.073,1.425-5.047-.322-.853.358-1.072.3-1.309-.128-.527-2.1-.384-2.639-.47a1.857,1.857,0,0,1-1.005-.333,1.448,1.448,0,0,1-.346-.551,7.341,7.341,0,0,1-.532-2.243,13.352,13.352,0,0,1,9.27-7.659l.041.432q-.2,2.273-.287,4.546a2.317,2.317,0,0,1-.119.792,1.4,1.4,0,0,1-1.461.751,1.012,1.012,0,0,0-.637.018c-.305.178-.232.628-.278.979-.086.606-.623,1.024-.992,1.511s-.514,1.32.023,1.616c.136.073.309.11.387.241.1.182-.037.409-.214.528a2.142,2.142,0,0,0-.519.337c-.264.314-.073.815.228,1.092a9.646,9.646,0,0,1,.951.769c.328.4.4.974.76,1.343.874.9,2.672-.041,3.559.851.459.455.459,1.219.865,1.72a4.241,4.241,0,0,0,.983.737,3.171,3.171,0,0,1,1.315,2.38c.059,1-.314,2.175.373,2.9C587.743,152.7,588.544,152.89,588.635,153.518Z" transform="translate(-573.058 -128.361)" fill="#81a8cc" opacity="0.5" style="mix-blend-mode: screen;isolation: isolate"/>
          <path id="Trazado_198685" data-name="Trazado 198685" d="M599.45,135.295a5.07,5.07,0,0,0-.668.055.388.388,0,0,0-.233.1.512.512,0,0,0-.064.387,1.491,1.491,0,0,1-.5,1.17.485.485,0,0,1-.227.123c-.25.045-.419-.245-.51-.487-.245-.637-.487-1.279-.727-1.921a1.185,1.185,0,0,0-.324-.527c-.3-.228-.746-.128-1.06-.328-.382-.241-.573-.9-1.01-.787-.355.086-.359.591-.246.937s.25.791-.027,1.029c-.3.25-.756,0-.983-.314s-.405-.715-.769-.851c-.519-.2-1.051.277-1.338.755s-.542,1.047-1.065,1.234a5,5,0,0,0-.783.2c-.492.274-.473.987-.3,1.525a2.248,2.248,0,0,1,.169,1.633.44.44,0,0,1-.219.233c-.223.082-.437-.124-.582-.305a20.451,20.451,0,0,1-2.094-3.3,1.307,1.307,0,0,1-.2-.728,2.465,2.465,0,0,1,.15-.464,8.558,8.558,0,0,0,.086-1.67c.118-.942.887-1.83.587-2.731a7.769,7.769,0,0,0-.509-.919.839.839,0,0,1,.049-.965,13.13,13.13,0,0,1,1.652-.1A13.327,13.327,0,0,1,599.45,135.295Z" transform="translate(-575.491 -128.282)" fill="#81a8cc" opacity="0.5" style="mix-blend-mode: screen;isolation: isolate"/>
          <path id="Trazado_198686" data-name="Trazado 198686" d="M602.732,143.5a13.344,13.344,0,0,1-2.567,7.873,0,0,0,0,1,0,0,.639.639,0,0,1-.036-.263,2.234,2.234,0,0,1,.178-.947c.1-.178.232-.332.332-.509a2.623,2.623,0,0,0,.15-1.515,1.24,1.24,0,0,0-.259-.773c-.123-.124-.291-.2-.414-.319-.287-.3-.2-.782-.132-1.2s.023-.937-.359-1.092a13.229,13.229,0,0,1-1.566,1.807.7.7,0,0,0-.887-.706.993.993,0,0,0-.628,1.074c-.387.01-.473-.541-.419-.924.091-.651.182-1.3.269-1.952-.423-.182-.733.492-1.184.592-.378.082-.732-.3-.773-.683a2.1,2.1,0,0,1,.305-1.105c.2-.41.4-.815.6-1.224a2.732,2.732,0,0,1,1.079-1.361,3.065,3.065,0,0,1,2.089.073,2.12,2.12,0,0,0,2.025-.26,2.158,2.158,0,0,0,.487-1.142c.073-.354.178-.765.509-.91l.032,0A13.194,13.194,0,0,1,602.732,143.5Z" transform="translate(-577.174 -130.16)" fill="#81a8cc" opacity="0.5" style="mix-blend-mode: screen;isolation: isolate"/>
        </g>
        <path id="Trazado_198687" data-name="Trazado 198687" d="M595.18,150.285q-.28.335-.588.643a.035.035,0,0,1-.019.009,12.245,12.245,0,0,1-1.147,1.054,12.472,12.472,0,0,1-1.9,1.3,12.025,12.025,0,0,1-1.641.774,13.038,13.038,0,0,1-4.057.9q-.406.028-.811.028a13.339,13.339,0,0,1-3.069-26.32l.121-.027a11.367,11.367,0,0,1,1.3-.233c.019,0,.047-.01.065-.01a12.957,12.957,0,0,0-3.106,4.328,12.815,12.815,0,0,0,11.733,17.954c.261,0,.522-.01.783-.028A12.183,12.183,0,0,0,595.18,150.285Z" transform="translate(-571.677 -125.172)" fill="#9999f1" opacity="0.3" style="mix-blend-mode: multiply;isolation: isolate"/>
        <path id="Trazado_198688" data-name="Trazado 198688" d="M601.466,140.819A16.414,16.414,0,0,0,585.05,124.4a.859.859,0,1,0,0,1.718,14.7,14.7,0,1,1-11.376,24.007.859.859,0,0,0-1.208-.119.857.857,0,0,0-.12,1.208,16.357,16.357,0,0,0,11.693,5.987v2.866h-4.962a1.087,1.087,0,0,0,0,2.174H591.13a1.087,1.087,0,1,0,0-2.174h-4.961v-2.89A16.425,16.425,0,0,0,601.466,140.819Z" transform="translate(-571.768 -124.403)" fill="#7878ff"/>
      </g>
    </g>
    <g id="Grupo_136722" data-name="Grupo 136722" transform="translate(856.83 3641.004)">
      <g id="Grupo_136703" data-name="Grupo 136703" transform="translate(135.527 276.311)">
        <path id="Trazado_198689" data-name="Trazado 198689" d="M297.827,399.987a4.5,4.5,0,1,1-5.036-3.88A4.495,4.495,0,0,1,297.827,399.987Z" transform="translate(-288.872 -396.069)" fill="#9999f1"/>
        <path id="Trazado_198690" data-name="Trazado 198690" d="M292.044,401.736l1.977,1.474,1.934-3.469" transform="translate(-289.483 -396.776)" fill="none" stroke="#fff" stroke-linecap="round" stroke-linejoin="round" stroke-width="1.056"/>
      </g>
      <g id="Grupo_136704" data-name="Grupo 136704" transform="translate(147.817 40.592)">
        <path id="Trazado_198691" data-name="Trazado 198691" d="M312.863,107.21a4.5,4.5,0,1,1-5.673-2.873A4.5,4.5,0,0,1,312.863,107.21Z" transform="translate(-304.093 -104.113)" fill="#9999f1"/>
        <path id="Trazado_198692" data-name="Trazado 198692" d="M307.416,110.052l2.217,1.08,1.253-3.769" transform="translate(-304.733 -104.739)" fill="none" stroke="#fff" stroke-linecap="round" stroke-linejoin="round" stroke-width="1.056"/>
      </g>
      <g id="Grupo_136705" data-name="Grupo 136705" transform="translate(384.671 119.634)">
        <path id="Trazado_198693" data-name="Trazado 198693" d="M611.188,209.394a6.875,6.875,0,1,1-6.352-7.362A6.876,6.876,0,0,1,611.188,209.394Z" transform="translate(-597.456 -202.013)" fill="#9999f1"/>
        <path id="Trazado_198694" data-name="Trazado 198694" d="M602.2,210.225l2.508,2.817,3.965-4.6" transform="translate(-598.37 -203.251)" fill="none" stroke="#fff" stroke-linecap="round" stroke-linejoin="round" stroke-width="1.616"/>
      </g>
      <path id="Trazado_198695" data-name="Trazado 198695" d="M587.549,209.832a1.653,1.653,0,1,1-1.654-1.653A1.654,1.654,0,0,1,587.549,209.832Z" transform="translate(-210.239 -83.567)" fill="#9999f1"/>
      <path id="Trazado_198696" data-name="Trazado 198696" d="M518.6,68.992a1.653,1.653,0,1,1-1.653-1.654A1.653,1.653,0,0,1,518.6,68.992Z" transform="translate(-196.958 -56.438)" fill="#9999f1" opacity="0.3"/>
      <path id="Trazado_198697" data-name="Trazado 198697" d="M184.563,255.484a2.639,2.639,0,1,1-2.639-2.639A2.638,2.638,0,0,1,184.563,255.484Z" transform="translate(-132.236 -92.17)" fill="#9999f1"/>
      <path id="Trazado_198698" data-name="Trazado 198698" d="M680.641,288.227a4.059,4.059,0,1,1-4.059-4.059A4.058,4.058,0,0,1,680.641,288.227Z" transform="translate(-227.244 -98.204)" fill="#9999f1" opacity="0.3"/>
      <path id="Trazado_198699" data-name="Trazado 198699" d="M131.054,218.8a4.058,4.058,0,1,1-4.059-4.058A4.059,4.059,0,0,1,131.054,218.8Z" transform="translate(-121.382 -84.831)" fill="#9999f1" opacity="0.3"/>
      <path id="Trazado_198700" data-name="Trazado 198700" d="M640.034,333.886a2.639,2.639,0,1,1-2.638-2.639A2.638,2.638,0,0,1,640.034,333.886Z" transform="translate(-219.969 -107.272)" fill="#9999f1" opacity="0.3"/>
      <path id="Trazado_198701" data-name="Trazado 198701" d="M384.987,80.593a2.639,2.639,0,1,1-2.639-2.639A2.638,2.638,0,0,1,384.987,80.593Z" transform="translate(-170.842 -58.482)" fill="#9999f1" opacity="0.3"/>
      <path id="Trazado_198702" data-name="Trazado 198702" d="M445.82,64.194a2.639,2.639,0,1,1-2.639-2.639A2.638,2.638,0,0,1,445.82,64.194Z" transform="translate(-182.559 -55.324)" fill="#9999f1" opacity="0.2"/>
      <g id="Grupo_136709" data-name="Grupo 136709" transform="translate(0 93.481)">
        <g id="Grupo_136708" data-name="Grupo 136708">
          <g id="Grupo_136706" data-name="Grupo 136706" transform="translate(1.86)">
            <path id="Trazado_198703" data-name="Trazado 198703" d="M123.841,174.393a.527.527,0,0,1-.526-.527v-3.72a.527.527,0,0,1,1.054,0v3.72A.528.528,0,0,1,123.841,174.393Z" transform="translate(-123.315 -169.62)" fill="#9999f1"/>
          </g>
          <g id="Grupo_136707" data-name="Grupo 136707" transform="translate(0 1.859)">
            <path id="Trazado_198704" data-name="Trazado 198704" d="M125.259,172.977h-3.72a.527.527,0,1,1,0-1.054h3.72a.527.527,0,1,1,0,1.054Z" transform="translate(-121.011 -171.923)" fill="#9999f1"/>
          </g>
        </g>
      </g>
      <g id="Grupo_136713" data-name="Grupo 136713" transform="translate(29.187)" opacity="0.3">
        <g id="Grupo_136712" data-name="Grupo 136712">
          <g id="Grupo_136710" data-name="Grupo 136710" transform="translate(1.859)">
            <path id="Trazado_198705" data-name="Trazado 198705" d="M159.991,58.611a.528.528,0,0,1-.527-.527v-3.72a.528.528,0,0,1,1.055,0v3.72A.528.528,0,0,1,159.991,58.611Z" transform="translate(-159.464 -53.837)" fill="#9999f1"/>
          </g>
          <g id="Grupo_136711" data-name="Grupo 136711" transform="translate(0 1.859)">
            <path id="Trazado_198706" data-name="Trazado 198706" d="M161.409,57.194h-3.72a.527.527,0,1,1,0-1.054h3.72a.527.527,0,1,1,0,1.054Z" transform="translate(-157.161 -56.14)" fill="#9999f1"/>
          </g>
        </g>
      </g>
      <g id="Grupo_136717" data-name="Grupo 136717" transform="translate(338.663 44.518)">
        <g id="Grupo_136716" data-name="Grupo 136716">
          <g id="Grupo_136714" data-name="Grupo 136714" transform="translate(1.859)">
            <path id="Trazado_198707" data-name="Trazado 198707" d="M543.3,113.75a.528.528,0,0,1-.527-.527V109.5a.527.527,0,0,1,1.055,0v3.72A.528.528,0,0,1,543.3,113.75Z" transform="translate(-542.774 -108.976)" fill="#9999f1"/>
          </g>
          <g id="Grupo_136715" data-name="Grupo 136715" transform="translate(0 1.859)">
            <path id="Trazado_198708" data-name="Trazado 198708" d="M544.718,112.333H541a.527.527,0,1,1,0-1.054h3.72a.527.527,0,1,1,0,1.054Z" transform="translate(-540.471 -111.279)" fill="#9999f1"/>
          </g>
        </g>
      </g>
      <g id="Grupo_136721" data-name="Grupo 136721" transform="translate(453.397 240.882)">
        <g id="Grupo_136720" data-name="Grupo 136720">
          <g id="Grupo_136718" data-name="Grupo 136718" transform="translate(1.859)">
            <path id="Trazado_198709" data-name="Trazado 198709" d="M685.407,356.962a.528.528,0,0,1-.527-.527v-3.72a.527.527,0,0,1,1.054,0v3.72A.528.528,0,0,1,685.407,356.962Z" transform="translate(-684.88 -352.188)" fill="#9999f1"/>
          </g>
          <g id="Grupo_136719" data-name="Grupo 136719" transform="translate(0 1.859)">
            <path id="Trazado_198710" data-name="Trazado 198710" d="M686.824,355.545H683.1a.527.527,0,0,1,0-1.054h3.72a.527.527,0,1,1,0,1.054Z" transform="translate(-682.577 -354.491)" fill="#9999f1"/>
          </g>
        </g>
      </g>
    </g>
    <g id="Grupo_136724" data-name="Grupo 136724" transform="translate(1158.719 3737.031)">
      <g id="Grupo_136723" data-name="Grupo 136723">
        <path id="Trazado_198711" data-name="Trazado 198711" d="M524.712,173.63V202a.866.866,0,0,1-.867.868H495.781a.865.865,0,0,1-.857-.868V173.63a.863.863,0,0,1,.857-.857h28.064A.865.865,0,0,1,524.712,173.63Z" transform="translate(-494.924 -172.773)" fill="#fff"/>
        <path id="Trazado_198712" data-name="Trazado 198712" d="M528.291,200.658v5.317a.866.866,0,0,1-.867.868H513.5l.592-6.185,6.552-7.245Z" transform="translate(-498.503 -176.749)" fill="#9999f1"/>
        <path id="Trazado_198713" data-name="Trazado 198713" d="M520.814,206.119H495.781a.865.865,0,0,1-.857-.868v-5.317l9.8-10.28Z" transform="translate(-494.924 -176.025)" fill="#8787dd"/>
        <path id="Trazado_198714" data-name="Trazado 198714" d="M525.291,182.032a3.454,3.454,0,1,1-3.453-3.454A3.454,3.454,0,0,1,525.291,182.032Z" transform="translate(-499.443 -173.891)" fill="#9999f1"/>
      </g>
      <rect id="Rectángulo_41708" data-name="Rectángulo 41708" width="29.788" height="2.63" rx="0.791" transform="translate(0 32.33)" fill="#fff"/>
      <rect id="Rectángulo_41709" data-name="Rectángulo 41709" width="29.788" height="2.63" rx="0.791" transform="translate(0 37.02)" fill="#fff"/>
    </g>
  </g>
</svg>
