<svg xmlns="http://www.w3.org/2000/svg" xmlns:xlink="http://www.w3.org/1999/xlink" width="490" height="343.466" viewBox="0 0 490 343.466">
  <defs>
    <linearGradient id="linear-gradient" x1="0.5" y1="0.108" x2="0.5" y2="0.461" gradientUnits="objectBoundingBox">
      <stop offset="0" stop-color="#bb90bd"/>
      <stop offset="0.16" stop-color="#bea1c9"/>
      <stop offset="0.515" stop-color="#c4c4e1"/>
      <stop offset="0.808" stop-color="#c8d9ef"/>
      <stop offset="1" stop-color="#cae1f5"/>
    </linearGradient>
    <linearGradient id="linear-gradient-2" x1="0" y1="0.5" x2="1" y2="0.5" xlink:href="#linear-gradient"/>
  </defs>
  <g id="Grupo_137309" data-name="Grupo 137309" transform="translate(-840 -2191)">
    <path id="Trazado_200202" data-name="Trazado 200202" d="M0,0H476V330H0Z" transform="translate(854 2204.466)" fill="#4747ff"/>
    <path id="Trazado_200203" data-name="Trazado 200203" d="M0,0H482V335H0Z" transform="translate(840 2191)" fill="#dbf6ff"/>
    <g id="Grupo_136289" data-name="Grupo 136289" transform="translate(905 2240.419)">
      <g id="Grupo_136287" data-name="Grupo 136287">
        <g id="Grupo_136286" data-name="Grupo 136286">
          <path id="Trazado_198245" data-name="Trazado 198245" d="M410.2,261.242q-.714-1.177-1.49-2.306c-12.1-17.623-47.464-28.785-44.675-54.133,1.883-17.116,18.956-27.52,29.456-39.34,14.025-15.788,12.605-36-5.521-48.585a43.2,43.2,0,0,0-8.361-4.524c-16.073-6.533-33.332-3.317-49.587.268-15.533,3.426-32.176,6.928-48.014,3.43-17.409-3.846-26.83-18.033-38.749-29.916-29.357-29.27-77.877-8.248-94.38,24.582-9.4,18.707-.549,44.975-18.277,59.679-13.057,10.83-30.863,10.3-45.865,16.694-9.778,4.17-18.027,12.331-19.131,23.2-1.279,12.594,2.8,25.329,9.254,36.029,8.362,13.86,20.771,24.311,31.841,35.88,5.284,5.522,10.1,11.824,12.054,19.214,2.076,7.853.191,17.963-6.9,22.556,22.137-3.326,76.353-5.677,139.731-5.677,67.352,0,124.359,2.654,143.512,6.314,0,0,1.027-6.314,4.317-10.777,5.673-7.695,13.873-13.767,16.278-23.416C418.182,280.431,415.461,269.9,410.2,261.242Z" transform="translate(-65.372 -72.204)" fill="#eceaf4"/>
        </g>
      </g>
      <g id="Grupo_136288" data-name="Grupo 136288" transform="translate(36.276 22.316)">
        <path id="Trazado_198246" data-name="Trazado 198246" d="M392.6,275.711q-.567-1.062-1.183-2.08c-9.6-15.9-37.66-25.965-35.447-48.831,1.494-15.438,15.041-24.824,23.372-35.486,11.128-14.241,10-32.473-4.381-43.825a33.226,33.226,0,0,0-6.634-4.081c-12.753-5.893-26.448-2.991-39.345.242-12.324,3.09-25.53,6.249-38.1,3.093-13.813-3.469-21.288-16.266-30.745-26.985-23.293-26.4-61.792-7.44-74.886,22.173-7.461,16.875-.436,40.569-14.5,53.832-10.36,9.769-24.488,9.287-36.391,15.058-7.759,3.762-14.3,11.124-15.18,20.927-1.015,11.359,2.219,22.847,7.342,32.5,6.635,12.5,16.48,21.929,25.264,32.364,4.193,4.981,8.014,10.666,9.564,17.332,1.648,7.083.152,16.2-5.473,20.346,17.564-3,60.582-5.121,110.869-5.121,53.44,0,98.673,2.395,113.87,5.7a28.12,28.12,0,0,1,3.426-9.721c4.5-6.94,11.007-12.417,12.916-21.122C398.936,293.02,396.776,283.522,392.6,275.711Z" transform="translate(-118.998 -105.193)" fill="#eceaf4"/>
      </g>
    </g>
    <g id="Grupo_136292" data-name="Grupo 136292" transform="translate(986.441 2229.348)">
      <path id="Trazado_198247" data-name="Trazado 198247" d="M349.678,251.139a22.31,22.31,0,0,0-4.744-4.816,105.131,105.131,0,0,0-36.3-17.432q-2.464-.847-4.987-1.548v-3.013c19.093-9.09,32.383-29.286,32.383-52.758v-.937a6.352,6.352,0,0,0,3.708-.642c2.661-1.355,3.241-4.145,3.562-6.818.994-8.271,8.349-18.068,2.342-26.1a5.486,5.486,0,0,0-3.635-2.251,5.259,5.259,0,0,0-2.492.233c1.831-9.89,3.365-19.826,3.365-29.866-.045-.848-.118-1.695-.206-2.539,1.884-2.329,3.892-5.071,3.85-8.2a7.123,7.123,0,0,0-4.34-6.4,63.99,63.99,0,0,0-8.792-3.169,11.7,11.7,0,0,0,1.8-7.226c-.511-9.558-10.284-12.7-18.226-14.456a101.5,101.5,0,0,0-11.156-1.816,4.426,4.426,0,0,0-.568-2.8c-2.171-3.882-8.051-2.679-11.614-2.206C281.507,58,270.224,62.2,259.251,67.463c-.528.2-1.059.392-1.582.6a5.545,5.545,0,0,0-.641-4.483c-1.212-1.958-3.453-1.794-5.4-1.27a50.813,50.813,0,0,0-9.759,3.977,51.908,51.908,0,0,0-16.616,13.835c-3.47,4.251-6.963,8.849-7.8,14.235a44.083,44.083,0,0,0-.707,11.64c.276,9.577,2.239,19.3,4.468,28.807a5.051,5.051,0,0,0-1.293.016,5.483,5.483,0,0,0-3.635,2.251c-6.007,8.033,1.348,17.83,2.341,26.1.321,2.673.9,5.463,3.562,6.818a6.351,6.351,0,0,0,3.713.641v.938c0,23.472,13.29,43.668,32.383,52.758v3.012q-2.526.7-4.992,1.549A105.122,105.122,0,0,0,217,246.324a22.3,22.3,0,0,0-4.745,4.816c-12.91,17.894-22.234,40.785-26.489,66.423h190.4C371.912,291.924,362.588,269.034,349.678,251.139Z" transform="translate(-185.765 -55.837)" fill="url(#linear-gradient)"/>
      <path id="Trazado_198248" data-name="Trazado 198248" d="M349.678,340.378a22.309,22.309,0,0,0-4.744-4.816c-.363-.271-.733-.535-1.1-.8a43.685,43.685,0,0,1,2.179,11.567c.467,11.262-4.613,22.352-12.669,30.085-11.4,10.942-29.549,13.374-44.75,14-25.787,1.061-70.147-6.181-72.635-39.042-.557-7.358,2.377-13.984,6.659-19.715q-2.882,1.869-5.619,3.909a22.3,22.3,0,0,0-4.745,4.816c-12.91,17.894-22.234,40.785-26.489,66.423h190.4C371.912,381.163,362.588,358.272,349.678,340.378Z" transform="translate(-185.765 -145.075)" fill="#8f8fd8" opacity="0.2"/>
      <g id="Grupo_136291" data-name="Grupo 136291" transform="translate(53.44 32.561)">
        <path id="Trazado_198249" data-name="Trazado 198249" d="M345.081,147.019A11.466,11.466,0,0,0,342.042,133a13.7,13.7,0,0,0-4.862-2.412c2.354-4.607,3.069-9.6-1.251-13.487a12.221,12.221,0,0,0-9.152-2.962c.873-9.853-15.2-13.542-21.264-6.558-6.066-6.985-22.137-3.3-21.264,6.558a12.221,12.221,0,0,0-9.153,2.962c-4.316,3.888-3.606,8.877-1.252,13.486A13.616,13.616,0,0,0,268.98,133a11.47,11.47,0,0,0-3.039,14.024c1.7,3.572,4.559,5.533,8.017,7.007-4.826,1.495-7.841,6.519-7.781,11.488.079,6.629,5.518,10.795,11.9,10.325a18.121,18.121,0,0,0-1.439,3.111c-.908,2.731-1.421,5.68-.089,8.356a8.84,8.84,0,0,0,12.612,3.506,7.846,7.846,0,0,0,3.451,3.041c4.532,2.017,10.414.86,12.9-3.109,2.483,3.967,8.364,5.126,12.9,3.109a7.851,7.851,0,0,0,3.451-3.041,8.838,8.838,0,0,0,12.611-3.505c1.329-2.677.816-5.623-.089-8.356a17.9,17.9,0,0,0-1.442-3.112c6.383.471,11.826-3.7,11.9-10.325.06-4.969-2.954-9.991-7.779-11.488C340.525,152.554,343.386,150.593,345.081,147.019Z" transform="translate(-264.764 -103.972)" fill="#8f8fd8"/>
        <g id="Grupo_136290" data-name="Grupo 136290" transform="translate(0)">
          <path id="Trazado_198250" data-name="Trazado 198250" d="M303.479,161.85c-7.251,2.2-16.24-.649-17.074-8.8-.126-1.237-2.157-1.249-2.029,0,.965,9.437,10.978,13.318,19.643,10.683A.978.978,0,0,0,303.479,161.85Z" transform="translate(-271.108 -119.548)" fill="#ccf"/>
          <path id="Trazado_198251" data-name="Trazado 198251" d="M304.32,123.2c2.9-3.243,3.159-7.766,2.207-11.759-.292-1.222-2.249-.7-1.957.518.787,3.3.681,7.135-1.684,9.863a7.66,7.66,0,0,1-8.32,2.273c-1.229-.43-1.759,1.452-.54,1.88A9.693,9.693,0,0,0,304.32,123.2Z" transform="translate(-274.009 -106.161)" fill="#ccf"/>
          <path id="Trazado_198252" data-name="Trazado 198252" d="M345.081,147.019A11.464,11.464,0,0,0,342.042,133a13.7,13.7,0,0,0-4.862-2.412c2.354-4.607,3.069-9.6-1.251-13.487a12.221,12.221,0,0,0-9.152-2.962c.873-9.853-15.2-13.542-21.264-6.558-6.066-6.985-22.137-3.3-21.264,6.558a12.221,12.221,0,0,0-9.153,2.962c-4.316,3.888-3.606,8.877-1.252,13.486A13.607,13.607,0,0,0,268.981,133a11.47,11.47,0,0,0-3.039,14.023c1.7,3.572,4.559,5.533,8.017,7.007-4.826,1.495-7.841,6.519-7.781,11.488.079,6.629,5.518,10.795,11.9,10.325a18.121,18.121,0,0,0-1.439,3.111c-.908,2.731-1.421,5.68-.089,8.356a8.84,8.84,0,0,0,12.612,3.506,7.846,7.846,0,0,0,3.451,3.041c4.533,2.017,10.414.86,12.9-3.109,2.483,3.968,8.364,5.126,12.9,3.109a7.851,7.851,0,0,0,3.451-3.041,8.838,8.838,0,0,0,12.611-3.505c1.329-2.677.816-5.623-.089-8.356a17.9,17.9,0,0,0-1.441-3.112c6.383.471,11.826-3.7,11.9-10.325.06-4.969-2.954-9.991-7.779-11.488C340.525,152.554,343.386,150.593,345.081,147.019Zm-52.825,44.33c-2.334-1.827-3.092-5.485-2.6-8.254.217-1.227-1.738-1.754-1.957-.518a12.468,12.468,0,0,0,.581,6.474,6.738,6.738,0,0,1-8.584-.749c-3.106-3.078-1.865-7.814-.066-11.234,1.241-2.361,2.909-4.394,2.782-7.17-.114-2.493-1.5-4.6-3.143-6.436-.852-.953-2.282.43-1.435,1.378,2.441,2.732,3.235,5.615,1.44,8.89-6.321,1.27-11.494-2.92-11.032-9.208.346-4.712,3.88-9.2,9.138-8.986a1.041,1.041,0,0,0,.419-.064c7.507,2.663,16.136,5.59,18.214,13.852a1.015,1.015,0,0,0,1.957-.518c-1.159-4.61-4.465-8.109-8.578-10.6-5.227-3.16-11.578-3.934-16.842-6.9a11.031,11.031,0,0,1-5.437-12.148c1.885-7.735,11.919-8.293,17.992-5.431,1.168.551,2.2-1.13,1.024-1.682a18.98,18.98,0,0,0-10.224-1.862c-2.139-3.934-3.178-8.307.625-11.713a10.528,10.528,0,0,1,8.552-2.336,1.027,1.027,0,0,0,.241.03,17.225,17.225,0,0,1,4.453,1.278c1.18.515,2.213-1.164,1.025-1.682a20.4,20.4,0,0,0-4.491-1.379c-1.345-8.651,13.871-11.367,18.187-4.847v21.748a1.1,1.1,0,0,0,0,.365v9.093a10.632,10.632,0,0,0-13-2.9c-1.172.555-.144,2.236,1.024,1.682a8.461,8.461,0,0,1,11.977,5.906v12.3c-3.74.143-7.624-.6-9.47-4.109-.589-1.12-2.341-.135-1.753.984,2.161,4.107,6.784,5.234,11.223,5.075v10.81a12.417,12.417,0,0,1-13.347,6.093c-1.27-.285-1.812,1.594-.539,1.879a14.326,14.326,0,0,0,13.886-4.588V188C303.272,192.864,296.214,194.448,292.256,191.349Zm46.218-40.039c-5.117,2.882-11.286,3.694-16.421,6.657-4.3,2.483-7.8,6.07-9,10.838-.306,1.218,1.65,1.738,1.957.518,2.075-8.252,10.7-11.193,18.212-13.853a1.055,1.055,0,0,0,.422.065c5.257-.212,8.791,4.274,9.138,8.986.462,6.288-4.711,10.478-11.032,9.208-1.789-3.3-1.039-6.115,1.44-8.89.846-.947-.583-2.332-1.435-1.378a11.01,11.01,0,0,0-3.113,5.947c-.337,3,1.444,5.12,2.752,7.659,1.685,3.271,2.979,7.626.346,10.745a6.7,6.7,0,0,1-8.995,1.237,12.47,12.47,0,0,0,.58-6.472c-.219-1.234-2.174-.711-1.957.518.492,2.776-.267,6.426-2.6,8.254-3.951,3.093-11.018,1.5-12.24-3.346V173.875a14.329,14.329,0,0,0,13.886,4.588c1.272-.285.733-2.165-.539-1.879a12.412,12.412,0,0,1-13.347-6.093V145.427a8.462,8.462,0,0,1,11.977-5.906c1.167.553,2.2-1.127,1.024-1.682a10.632,10.632,0,0,0-13,2.9v-8.4c3.773-.672,6.727-4.893,5.811-8.491a1.015,1.015,0,0,0-1.957.518c.6,2.368-1.4,5.3-3.854,5.981V109.538c4.319-6.524,19.531-3.8,18.187,4.847a20.381,20.381,0,0,0-4.49,1.379c-1.187.518-.157,2.2,1.024,1.682a17.264,17.264,0,0,1,4.438-1.278,1,1,0,0,0,.267-.034,10.513,10.513,0,0,1,8.541,2.34c3.807,3.409,2.771,7.767.625,11.713a18.946,18.946,0,0,0-10.224,1.862c-1.172.552-.145,2.234,1.024,1.682,6.008-2.832,15.567-2.363,17.883,4.984A10.993,10.993,0,0,1,338.474,151.31Z" transform="translate(-264.765 -103.972)" fill="#e3e3fc"/>
          <path id="Trazado_198253" data-name="Trazado 198253" d="M353.86,153.046c-.835,8.163-9.829,11.007-17.074,8.8a.978.978,0,0,0-.54,1.879c8.666,2.635,18.678-1.247,19.644-10.683C356.017,151.8,353.987,151.807,353.86,153.046Z" transform="translate(-287.664 -119.548)" fill="#ccf"/>
          <path id="Trazado_198254" data-name="Trazado 198254" d="M349.428,125.97c1.217-.427.691-2.311-.539-1.88a7.664,7.664,0,0,1-8.32-2.273c-2.365-2.734-2.472-6.564-1.685-9.863.292-1.221-1.665-1.743-1.957-.518-.952,3.992-.7,8.517,2.207,11.759A9.694,9.694,0,0,0,349.428,125.97Z" transform="translate(-287.952 -106.161)" fill="#ccf"/>
        </g>
      </g>
    </g>
    <g id="Grupo_136357" data-name="Grupo 136357" transform="translate(982.857 2215)">
      <g id="Grupo_136304" data-name="Grupo 136304" transform="translate(64.145 146.606)">
        <g id="Grupo_136293" data-name="Grupo 136293" transform="translate(0 4.735)" opacity="0.1" style="mix-blend-mode: multiply;isolation: isolate">
          <rect id="Rectángulo_41544" data-name="Rectángulo 41544" width="78.048" height="16.291" transform="matrix(0.594, -0.805, 0.805, 0.594, 3.131, 66.974)"/>
          <path id="Trazado_198255" data-name="Trazado 198255" d="M278.423,357.362l13.109,9.673-14.339,7.682a1.354,1.354,0,0,1-1.881-1.388Z" transform="translate(-275.292 -290.388)"/>
          <rect id="Rectángulo_41545" data-name="Rectángulo 41545" width="78.048" height="2.2" transform="translate(12.525 73.906) rotate(-53.577)"/>
          <rect id="Rectángulo_41546" data-name="Rectángulo 41546" width="78.048" height="2.2" transform="matrix(0.594, -0.805, 0.805, 0.594, 8.8, 71.157)"/>
          <rect id="Rectángulo_41547" data-name="Rectángulo 41547" width="78.048" height="2.2" transform="translate(5.074 68.408) rotate(-53.577)"/>
          <path id="Trazado_198256" data-name="Trazado 198256" d="M346.579,260.9l-7.584,10.277,13.109,9.673,7.583-10.277c2.27-3.077,1.176-7.736-2.444-10.407S348.849,257.819,346.579,260.9Z" transform="translate(-295.903 -258.355)"/>
          <path id="Trazado_198257" data-name="Trazado 198257" d="M365.785,265.339a9.152,9.152,0,0,0-9.448-6.945c-.02.012-.043.02-.063.033-1.577,1.023-1.833,3.5-1.3,5.169,1.16,3.671,5.966,5.132,9.208,3.414A3.714,3.714,0,0,0,365.785,265.339Z" transform="translate(-300.991 -258.357)"/>
          <rect id="Rectángulo_41548" data-name="Rectángulo 41548" width="10.744" height="16.291" transform="matrix(0.594, -0.805, 0.805, 0.594, 43.092, 12.818)"/>
          <rect id="Rectángulo_41549" data-name="Rectángulo 41549" width="0.82" height="16.291" transform="translate(43.632 12.087) rotate(-53.578)"/>
          <rect id="Rectángulo_41550" data-name="Rectángulo 41550" width="0.82" height="16.291" transform="matrix(0.594, -0.805, 0.805, 0.594, 44.855, 10.429)"/>
          <rect id="Rectángulo_41551" data-name="Rectángulo 41551" width="0.82" height="16.291" transform="matrix(0.594, -0.805, 0.805, 0.594, 46.078, 8.771)"/>
          <rect id="Rectángulo_41552" data-name="Rectángulo 41552" width="0.82" height="16.291" transform="matrix(0.594, -0.805, 0.805, 0.594, 47.302, 7.113)"/>
          <rect id="Rectángulo_41553" data-name="Rectángulo 41553" width="0.82" height="16.291" transform="matrix(0.594, -0.805, 0.805, 0.594, 48.524, 5.456)"/>
          <path id="Trazado_198258" data-name="Trazado 198258" d="M276.347,373.111l-1.035,5.313a1.354,1.354,0,0,0,1.881,1.387l4.771-2.556Z" transform="translate(-275.292 -295.483)"/>
        </g>
        <g id="Grupo_136303" data-name="Grupo 136303">
          <g id="Grupo_136302" data-name="Grupo 136302">
            <rect id="Rectángulo_41554" data-name="Rectángulo 41554" width="78.048" height="16.291" transform="matrix(0.594, -0.805, 0.805, 0.594, 3.131, 66.974)" fill="#ff8c5f"/>
            <path id="Trazado_198259" data-name="Trazado 198259" d="M278.423,350.362l13.109,9.673-14.339,7.682a1.354,1.354,0,0,1-1.881-1.388Z" transform="translate(-275.292 -283.388)" fill="#fff5f3"/>
            <rect id="Rectángulo_41555" data-name="Rectángulo 41555" width="78.048" height="2.2" transform="translate(12.525 73.906) rotate(-53.577)" fill="#ffb39c"/>
            <rect id="Rectángulo_41556" data-name="Rectángulo 41556" width="78.048" height="2.2" transform="matrix(0.594, -0.805, 0.805, 0.594, 8.8, 71.157)" fill="#ffb39c"/>
            <rect id="Rectángulo_41557" data-name="Rectángulo 41557" width="78.048" height="2.2" transform="translate(5.074 68.408) rotate(-53.577)" fill="#ffb39c"/>
            <g id="Grupo_136294" data-name="Grupo 136294" transform="translate(43.092)">
              <path id="Trazado_198260" data-name="Trazado 198260" d="M346.579,253.9l-7.584,10.277,13.109,9.673,7.583-10.277c2.27-3.077,1.176-7.736-2.444-10.407S348.849,250.819,346.579,253.9Z" transform="translate(-338.995 -251.355)" fill="#76bfee"/>
            </g>
            <g id="Grupo_136295" data-name="Grupo 136295" transform="translate(53.729 0.006)">
              <path id="Trazado_198261" data-name="Trazado 198261" d="M365.785,258.339a9.152,9.152,0,0,0-9.448-6.945c-.02.012-.043.02-.063.033-1.577,1.023-1.833,3.5-1.3,5.169,1.16,3.671,5.966,5.132,9.208,3.414A3.714,3.714,0,0,0,365.785,258.339Z" transform="translate(-354.72 -251.363)" fill="#bfe1f6"/>
            </g>
            <rect id="Rectángulo_41558" data-name="Rectángulo 41558" width="10.744" height="16.291" transform="matrix(0.594, -0.805, 0.805, 0.594, 43.092, 12.818)" fill="#2a2a47"/>
            <g id="Grupo_136296" data-name="Grupo 136296" transform="translate(43.632 11.427)">
              <rect id="Rectángulo_41559" data-name="Rectángulo 41559" width="0.82" height="16.291" transform="translate(0 0.66) rotate(-53.578)" fill="#2b2969"/>
            </g>
            <g id="Grupo_136297" data-name="Grupo 136297" transform="translate(44.855 9.769)">
              <rect id="Rectángulo_41560" data-name="Rectángulo 41560" width="0.82" height="16.291" transform="matrix(0.594, -0.805, 0.805, 0.594, 0, 0.66)" fill="#2b2969"/>
            </g>
            <g id="Grupo_136298" data-name="Grupo 136298" transform="translate(46.078 8.111)">
              <rect id="Rectángulo_41561" data-name="Rectángulo 41561" width="0.82" height="16.291" transform="matrix(0.594, -0.805, 0.805, 0.594, 0, 0.66)" fill="#2b2969"/>
            </g>
            <g id="Grupo_136299" data-name="Grupo 136299" transform="translate(47.302 6.453)">
              <rect id="Rectángulo_41562" data-name="Rectángulo 41562" width="0.82" height="16.291" transform="matrix(0.594, -0.805, 0.805, 0.594, 0, 0.66)" fill="#2b2969"/>
            </g>
            <g id="Grupo_136300" data-name="Grupo 136300" transform="translate(48.525 4.796)">
              <rect id="Rectángulo_41563" data-name="Rectángulo 41563" width="0.82" height="16.291" transform="matrix(0.594, -0.805, 0.805, 0.594, 0, 0.66)" fill="#2b2969"/>
            </g>
            <g id="Grupo_136301" data-name="Grupo 136301" transform="translate(0 77.628)">
              <path id="Trazado_198262" data-name="Trazado 198262" d="M276.347,366.111l-1.035,5.313a1.354,1.354,0,0,0,1.881,1.387l4.771-2.556Z" transform="translate(-275.292 -366.111)" fill="#2b2969"/>
            </g>
          </g>
        </g>
      </g>
      <g id="Grupo_136320" data-name="Grupo 136320" transform="translate(0 124.502)">
        <g id="Grupo_136305" data-name="Grupo 136305" transform="translate(0 4.735)" opacity="0.1" style="mix-blend-mode: multiply;isolation: isolate">
          <path id="Trazado_198263" data-name="Trazado 198263" d="M214.275,225.678H180.467v65.928h47.49V239.36Z" transform="translate(-180.467 -225.678)"/>
          <rect id="Rectángulo_41564" data-name="Rectángulo 41564" width="33.043" height="2.505" transform="translate(3.173 4.862)"/>
          <rect id="Rectángulo_41565" data-name="Rectángulo 41565" width="41.144" height="2.505" transform="translate(3.173 11.728)"/>
          <rect id="Rectángulo_41566" data-name="Rectángulo 41566" width="41.144" height="2.505" transform="translate(3.173 18.594)"/>
          <rect id="Rectángulo_41567" data-name="Rectángulo 41567" width="41.144" height="2.505" transform="translate(3.173 25.46)"/>
          <rect id="Rectángulo_41568" data-name="Rectángulo 41568" width="41.144" height="2.505" transform="translate(3.173 32.327)"/>
          <rect id="Rectángulo_41569" data-name="Rectángulo 41569" width="41.144" height="2.505" transform="translate(3.173 39.193)"/>
          <rect id="Rectángulo_41570" data-name="Rectángulo 41570" width="41.144" height="2.505" transform="translate(3.173 46.059)"/>
          <rect id="Rectángulo_41571" data-name="Rectángulo 41571" width="41.144" height="2.505" transform="translate(3.173 52.925)"/>
          <rect id="Rectángulo_41572" data-name="Rectángulo 41572" width="41.144" height="2.505" transform="translate(3.173 59.792)"/>
          <path id="Trazado_198264" data-name="Trazado 198264" d="M230.445,239.36h13.682l-13.682-13.682Z" transform="translate(-196.638 -225.678)"/>
        </g>
        <g id="Grupo_136319" data-name="Grupo 136319">
          <g id="Grupo_136318" data-name="Grupo 136318">
            <g id="Grupo_136306" data-name="Grupo 136306">
              <path id="Trazado_198265" data-name="Trazado 198265" d="M214.275,218.678H180.467v65.928h47.49V232.36Z" transform="translate(-180.467 -218.678)" fill="#76bfee"/>
            </g>
            <g id="Grupo_136316" data-name="Grupo 136316" transform="translate(3.173 4.862)" opacity="0.3">
              <g id="Grupo_136307" data-name="Grupo 136307">
                <rect id="Rectángulo_41573" data-name="Rectángulo 41573" width="33.043" height="2.505" fill="#bfe1f6"/>
              </g>
              <g id="Grupo_136308" data-name="Grupo 136308" transform="translate(0 6.866)">
                <rect id="Rectángulo_41574" data-name="Rectángulo 41574" width="41.144" height="2.505" fill="#bfe1f6"/>
              </g>
              <g id="Grupo_136309" data-name="Grupo 136309" transform="translate(0 13.732)">
                <rect id="Rectángulo_41575" data-name="Rectángulo 41575" width="41.144" height="2.505" fill="#bfe1f6"/>
              </g>
              <g id="Grupo_136310" data-name="Grupo 136310" transform="translate(0 20.599)">
                <rect id="Rectángulo_41576" data-name="Rectángulo 41576" width="41.144" height="2.505" fill="#bfe1f6"/>
              </g>
              <g id="Grupo_136311" data-name="Grupo 136311" transform="translate(0 27.465)">
                <rect id="Rectángulo_41577" data-name="Rectángulo 41577" width="41.144" height="2.505" fill="#bfe1f6"/>
              </g>
              <g id="Grupo_136312" data-name="Grupo 136312" transform="translate(0 34.331)">
                <rect id="Rectángulo_41578" data-name="Rectángulo 41578" width="41.144" height="2.505" fill="#bfe1f6"/>
              </g>
              <g id="Grupo_136313" data-name="Grupo 136313" transform="translate(0 41.197)">
                <rect id="Rectángulo_41579" data-name="Rectángulo 41579" width="41.144" height="2.505" fill="#bfe1f6"/>
              </g>
              <g id="Grupo_136314" data-name="Grupo 136314" transform="translate(0 48.064)">
                <rect id="Rectángulo_41580" data-name="Rectángulo 41580" width="41.144" height="2.505" fill="#bfe1f6"/>
              </g>
              <g id="Grupo_136315" data-name="Grupo 136315" transform="translate(0 54.93)">
                <rect id="Rectángulo_41581" data-name="Rectángulo 41581" width="41.144" height="2.505" fill="#bfe1f6"/>
              </g>
            </g>
            <g id="Grupo_136317" data-name="Grupo 136317" transform="translate(33.808)">
              <path id="Trazado_198266" data-name="Trazado 198266" d="M230.445,232.36h13.682l-13.682-13.682Z" transform="translate(-230.445 -218.678)" fill="#bfe1f6"/>
            </g>
          </g>
        </g>
      </g>
      <g id="Grupo_136336" data-name="Grupo 136336" transform="translate(135.656 167.291)">
        <g id="Grupo_136321" data-name="Grupo 136321" transform="translate(0 4.735)" opacity="0.1" style="mix-blend-mode: multiply;isolation: isolate">
          <path id="Trazado_198267" data-name="Trazado 198267" d="M407.8,288.933H381.007v52.246h37.634v-41.4Z" transform="translate(-381.007 -288.933)"/>
          <rect id="Rectángulo_41582" data-name="Rectángulo 41582" width="26.186" height="1.985" transform="translate(2.515 3.853)"/>
          <rect id="Rectángulo_41583" data-name="Rectángulo 41583" width="32.605" height="1.985" transform="translate(2.515 9.294)"/>
          <rect id="Rectángulo_41584" data-name="Rectángulo 41584" width="32.605" height="1.985" transform="translate(2.515 14.735)"/>
          <rect id="Rectángulo_41585" data-name="Rectángulo 41585" width="32.605" height="1.985" transform="translate(2.515 20.177)"/>
          <rect id="Rectángulo_41586" data-name="Rectángulo 41586" width="32.605" height="1.985" transform="translate(2.515 25.618)"/>
          <rect id="Rectángulo_41587" data-name="Rectángulo 41587" width="32.605" height="1.985" transform="translate(2.515 31.059)"/>
          <rect id="Rectángulo_41588" data-name="Rectángulo 41588" width="32.605" height="1.985" transform="translate(2.515 36.501)"/>
          <rect id="Rectángulo_41589" data-name="Rectángulo 41589" width="32.605" height="1.985" transform="translate(2.515 41.942)"/>
          <rect id="Rectángulo_41590" data-name="Rectángulo 41590" width="32.605" height="1.985" transform="translate(2.515 47.383)"/>
          <path id="Trazado_198268" data-name="Trazado 198268" d="M420.613,299.775h10.842l-10.842-10.842Z" transform="translate(-393.821 -288.933)"/>
        </g>
        <g id="Grupo_136335" data-name="Grupo 136335">
          <g id="Grupo_136334" data-name="Grupo 136334">
            <g id="Grupo_136322" data-name="Grupo 136322">
              <path id="Trazado_198269" data-name="Trazado 198269" d="M407.8,281.933H381.007v52.246h37.634v-41.4Z" transform="translate(-381.007 -281.933)" fill="#76bfee"/>
            </g>
            <g id="Grupo_136332" data-name="Grupo 136332" transform="translate(2.515 3.853)" opacity="0.3">
              <g id="Grupo_136323" data-name="Grupo 136323">
                <rect id="Rectángulo_41591" data-name="Rectángulo 41591" width="26.186" height="1.985" fill="#bfe1f6"/>
              </g>
              <g id="Grupo_136324" data-name="Grupo 136324" transform="translate(0 5.441)">
                <rect id="Rectángulo_41592" data-name="Rectángulo 41592" width="32.605" height="1.985" fill="#bfe1f6"/>
              </g>
              <g id="Grupo_136325" data-name="Grupo 136325" transform="translate(0 10.883)">
                <rect id="Rectángulo_41593" data-name="Rectángulo 41593" width="32.605" height="1.985" fill="#bfe1f6"/>
              </g>
              <g id="Grupo_136326" data-name="Grupo 136326" transform="translate(0 16.324)">
                <rect id="Rectángulo_41594" data-name="Rectángulo 41594" width="32.605" height="1.985" fill="#bfe1f6"/>
              </g>
              <g id="Grupo_136327" data-name="Grupo 136327" transform="translate(0 21.765)">
                <rect id="Rectángulo_41595" data-name="Rectángulo 41595" width="32.605" height="1.985" fill="#bfe1f6"/>
              </g>
              <g id="Grupo_136328" data-name="Grupo 136328" transform="translate(0 27.207)">
                <rect id="Rectángulo_41596" data-name="Rectángulo 41596" width="32.605" height="1.985" fill="#bfe1f6"/>
              </g>
              <g id="Grupo_136329" data-name="Grupo 136329" transform="translate(0 32.648)">
                <rect id="Rectángulo_41597" data-name="Rectángulo 41597" width="32.605" height="1.985" fill="#bfe1f6"/>
              </g>
              <g id="Grupo_136330" data-name="Grupo 136330" transform="translate(0 38.089)">
                <rect id="Rectángulo_41598" data-name="Rectángulo 41598" width="32.605" height="1.985" fill="#bfe1f6"/>
              </g>
              <g id="Grupo_136331" data-name="Grupo 136331" transform="translate(0 43.531)">
                <rect id="Rectángulo_41599" data-name="Rectángulo 41599" width="32.605" height="1.985" fill="#bfe1f6"/>
              </g>
            </g>
            <g id="Grupo_136333" data-name="Grupo 136333" transform="translate(26.792)">
              <path id="Trazado_198270" data-name="Trazado 198270" d="M420.613,292.775h10.842l-10.842-10.842Z" transform="translate(-420.613 -281.933)" fill="#bfe1f6"/>
            </g>
          </g>
        </g>
      </g>
      <g id="Grupo_136341" data-name="Grupo 136341" transform="translate(139.605 117.125)">
        <g id="Grupo_136337" data-name="Grupo 136337" transform="translate(0 4.735)" opacity="0.1" style="mix-blend-mode: multiply;isolation: isolate">
          <path id="Trazado_198271" data-name="Trazado 198271" d="M410.732,214.773H389.149a2.412,2.412,0,0,0-2.305,2.506v22.214a2.287,2.287,0,0,0,3.935,1.772l2.958-3.215a2.216,2.216,0,0,1,1.63-.734h15.365a2.412,2.412,0,0,0,2.305-2.506v-17.53A2.412,2.412,0,0,0,410.732,214.773Z" transform="translate(-386.844 -214.773)"/>
          <path id="Trazado_198272" data-name="Trazado 198272" d="M410.047,220.642h-15.9a1.194,1.194,0,0,0-1.194,1.193h0a1.194,1.194,0,0,0,1.194,1.194h15.9a1.194,1.194,0,0,0,1.193-1.194h0A1.193,1.193,0,0,0,410.047,220.642Z" transform="translate(-388.822 -216.672)"/>
          <path id="Trazado_198273" data-name="Trazado 198273" d="M410.047,229.319h-15.9a1.194,1.194,0,0,0-1.194,1.193h0a1.194,1.194,0,0,0,1.194,1.193h15.9a1.193,1.193,0,0,0,1.193-1.193h0A1.193,1.193,0,0,0,410.047,229.319Z" transform="translate(-388.822 -219.479)"/>
          <path id="Trazado_198274" data-name="Trazado 198274" d="M410.047,237.995h-15.9a1.194,1.194,0,0,0-1.194,1.194h0a1.194,1.194,0,0,0,1.194,1.193h15.9a1.193,1.193,0,0,0,1.193-1.193h0A1.194,1.194,0,0,0,410.047,237.995Z" transform="translate(-388.822 -222.286)"/>
        </g>
        <g id="Grupo_136340" data-name="Grupo 136340">
          <g id="Grupo_136339" data-name="Grupo 136339">
            <g id="Grupo_136338" data-name="Grupo 136338">
              <path id="Trazado_198275" data-name="Trazado 198275" d="M410.732,207.773H389.149a2.412,2.412,0,0,0-2.305,2.506v22.213a2.287,2.287,0,0,0,3.935,1.772l2.958-3.215a2.216,2.216,0,0,1,1.63-.734h15.365a2.412,2.412,0,0,0,2.305-2.506v-17.53A2.412,2.412,0,0,0,410.732,207.773Z" transform="translate(-386.844 -207.773)" fill="#2b2969"/>
            </g>
            <path id="Trazado_198276" data-name="Trazado 198276" d="M410.047,213.642h-15.9a1.194,1.194,0,0,0-1.194,1.193h0a1.194,1.194,0,0,0,1.194,1.194h15.9a1.194,1.194,0,0,0,1.193-1.194h0A1.193,1.193,0,0,0,410.047,213.642Z" transform="translate(-388.822 -209.672)" fill="#8f8fd8"/>
            <path id="Trazado_198277" data-name="Trazado 198277" d="M410.047,222.319h-15.9a1.194,1.194,0,0,0-1.194,1.193h0a1.194,1.194,0,0,0,1.194,1.193h15.9a1.193,1.193,0,0,0,1.193-1.193h0A1.193,1.193,0,0,0,410.047,222.319Z" transform="translate(-388.822 -212.479)" fill="#8f8fd8"/>
            <path id="Trazado_198278" data-name="Trazado 198278" d="M410.047,230.995h-15.9a1.194,1.194,0,0,0-1.194,1.194h0a1.194,1.194,0,0,0,1.194,1.193h15.9a1.193,1.193,0,0,0,1.193-1.193h0A1.194,1.194,0,0,0,410.047,230.995Z" transform="translate(-388.822 -215.286)" fill="#8f8fd8"/>
          </g>
        </g>
      </g>
      <g id="Grupo_136346" data-name="Grupo 136346" transform="translate(17.696 42.18)">
        <g id="Grupo_136342" data-name="Grupo 136342" transform="translate(0 4.735)" opacity="0.1" style="mix-blend-mode: multiply;isolation: isolate">
          <path id="Trazado_198279" data-name="Trazado 198279" d="M208.933,103.982h21.582a2.412,2.412,0,0,1,2.305,2.506V128.7a2.288,2.288,0,0,1-3.936,1.772l-2.957-3.215a2.217,2.217,0,0,0-1.63-.734H208.933a2.412,2.412,0,0,1-2.305-2.506v-17.53A2.412,2.412,0,0,1,208.933,103.982Z" transform="translate(-206.628 -103.982)"/>
          <path id="Trazado_198280" data-name="Trazado 198280" d="M213.4,109.851h15.9a1.194,1.194,0,0,1,1.194,1.193h0a1.194,1.194,0,0,1-1.194,1.194H213.4a1.194,1.194,0,0,1-1.193-1.194h0A1.193,1.193,0,0,1,213.4,109.851Z" transform="translate(-208.433 -105.881)"/>
          <path id="Trazado_198281" data-name="Trazado 198281" d="M213.4,118.528h15.9a1.194,1.194,0,0,1,1.194,1.193h0a1.194,1.194,0,0,1-1.194,1.193H213.4a1.193,1.193,0,0,1-1.193-1.193h0A1.193,1.193,0,0,1,213.4,118.528Z" transform="translate(-208.433 -108.688)"/>
          <path id="Trazado_198282" data-name="Trazado 198282" d="M213.4,127.2h15.9a1.194,1.194,0,0,1,1.194,1.194h0a1.194,1.194,0,0,1-1.194,1.193H213.4a1.193,1.193,0,0,1-1.193-1.193h0A1.194,1.194,0,0,1,213.4,127.2Z" transform="translate(-208.433 -111.495)"/>
        </g>
        <g id="Grupo_136345" data-name="Grupo 136345">
          <g id="Grupo_136344" data-name="Grupo 136344">
            <g id="Grupo_136343" data-name="Grupo 136343">
              <path id="Trazado_198283" data-name="Trazado 198283" d="M208.933,96.982h21.582a2.412,2.412,0,0,1,2.305,2.506V121.7a2.288,2.288,0,0,1-3.936,1.772l-2.957-3.215a2.217,2.217,0,0,0-1.63-.734H208.933a2.412,2.412,0,0,1-2.305-2.506V99.488A2.412,2.412,0,0,1,208.933,96.982Z" transform="translate(-206.628 -96.982)" fill="#2b2969"/>
            </g>
            <path id="Trazado_198284" data-name="Trazado 198284" d="M213.4,102.851h15.9a1.194,1.194,0,0,1,1.194,1.193h0a1.194,1.194,0,0,1-1.194,1.194H213.4a1.194,1.194,0,0,1-1.193-1.194h0A1.193,1.193,0,0,1,213.4,102.851Z" transform="translate(-208.433 -98.881)" fill="#8f8fd8"/>
            <path id="Trazado_198285" data-name="Trazado 198285" d="M213.4,111.528h15.9a1.194,1.194,0,0,1,1.194,1.193h0a1.194,1.194,0,0,1-1.194,1.193H213.4a1.193,1.193,0,0,1-1.193-1.193h0A1.193,1.193,0,0,1,213.4,111.528Z" transform="translate(-208.433 -101.688)" fill="#8f8fd8"/>
            <path id="Trazado_198286" data-name="Trazado 198286" d="M213.4,120.2h15.9a1.194,1.194,0,0,1,1.194,1.194h0a1.194,1.194,0,0,1-1.194,1.193H213.4a1.193,1.193,0,0,1-1.193-1.193h0A1.194,1.194,0,0,1,213.4,120.2Z" transform="translate(-208.433 -104.495)" fill="#8f8fd8"/>
          </g>
        </g>
      </g>
      <g id="Grupo_136356" data-name="Grupo 136356" transform="translate(75.815)">
        <g id="Grupo_136347" data-name="Grupo 136347" transform="translate(0 4.735)" opacity="0.1" style="mix-blend-mode: multiply;isolation: isolate">
          <path id="Trazado_198287" data-name="Trazado 198287" d="M317.75,90.9a15.175,15.175,0,0,1-15.157-15.157V56.785a15.157,15.157,0,0,1,30.315,0V75.746A15.175,15.175,0,0,1,317.75,90.9Zm0-44.541a10.434,10.434,0,0,0-10.422,10.422V75.746a10.422,10.422,0,0,0,20.844,0V56.785A10.434,10.434,0,0,0,317.75,46.363Z" transform="translate(-295.796 -41.628)"/>
          <path id="Trazado_198288" data-name="Trazado 198288" d="M328.173,74.3V86.317a10.422,10.422,0,0,1-20.844,0V74.3a35.181,35.181,0,0,0-4.735,1.368V86.317a15.157,15.157,0,0,0,30.315,0V75.668A35.026,35.026,0,0,0,328.173,74.3Z" transform="translate(-295.796 -52.199)" opacity="0.2" style="mix-blend-mode: multiply;isolation: isolate"/>
          <path id="Trazado_198289" data-name="Trazado 198289" d="M336.454,88.036c0-15.3-43.909-15.3-43.909,0s9.83,27.7,21.954,27.7S336.454,103.336,336.454,88.036Z" transform="translate(-292.545 -52.93)"/>
          <path id="Trazado_198290" data-name="Trazado 198290" d="M293.079,89.824c0-15.3,42.84-15.3,42.84,0a35.189,35.189,0,0,1-1.009,8.412,34.053,34.053,0,0,0,1.543-10.2c0-15.3-43.909-15.3-43.909,0a34.054,34.054,0,0,0,1.543,10.2A35.19,35.19,0,0,1,293.079,89.824Z" transform="translate(-292.545 -52.93)"/>
          <path id="Trazado_198291" data-name="Trazado 198291" d="M327.167,109.057,324.906,96.1a4.087,4.087,0,1,0-3.784,0l-2.261,12.952Z" transform="translate(-301.059 -56.792)"/>
          <path id="Trazado_198292" data-name="Trazado 198292" d="M327.1,109.244l-2.189-12.706a3.958,3.958,0,1,0-3.665,0l-2.189,12.706Z" transform="translate(-301.122 -56.979)"/>
        </g>
        <g id="Grupo_136355" data-name="Grupo 136355">
          <g id="Grupo_136354" data-name="Grupo 136354">
            <g id="Grupo_136349" data-name="Grupo 136349" transform="translate(6.797)">
              <g id="Grupo_136348" data-name="Grupo 136348">
                <path id="Trazado_198293" data-name="Trazado 198293" d="M317.75,83.9a15.175,15.175,0,0,1-15.157-15.157V49.785a15.157,15.157,0,0,1,30.315,0V68.746A15.175,15.175,0,0,1,317.75,83.9Zm0-44.541a10.434,10.434,0,0,0-10.422,10.422V68.746a10.422,10.422,0,0,0,20.844,0V49.785A10.434,10.434,0,0,0,317.75,39.363Z" transform="translate(-302.593 -34.628)" fill="#bfe1f6"/>
              </g>
            </g>
            <path id="Trazado_198294" data-name="Trazado 198294" d="M328.173,67.3V79.317a10.422,10.422,0,0,1-20.844,0V67.3a35.181,35.181,0,0,0-4.735,1.368V79.317a15.157,15.157,0,0,0,30.315,0V68.668A35.026,35.026,0,0,0,328.173,67.3Z" transform="translate(-295.796 -45.199)" fill="#999" opacity="0.2" style="mix-blend-mode: multiply;isolation: isolate"/>
            <g id="Grupo_136350" data-name="Grupo 136350" transform="translate(0 23.631)">
              <path id="Trazado_198295" data-name="Trazado 198295" d="M336.454,81.036c0-15.3-43.909-15.3-43.909,0s9.83,27.7,21.954,27.7S336.454,96.336,336.454,81.036Z" transform="translate(-292.545 -69.561)" fill="#76bfee"/>
            </g>
            <g id="Grupo_136351" data-name="Grupo 136351" transform="translate(0 23.631)">
              <path id="Trazado_198296" data-name="Trazado 198296" d="M293.079,82.824c0-15.3,42.84-15.3,42.84,0a35.189,35.189,0,0,1-1.009,8.412,34.053,34.053,0,0,0,1.543-10.2c0-15.3-43.909-15.3-43.909,0a34.054,34.054,0,0,0,1.543,10.2A35.19,35.19,0,0,1,293.079,82.824Z" transform="translate(-292.545 -69.561)" fill="#bfe1f6"/>
            </g>
            <g id="Grupo_136352" data-name="Grupo 136352" transform="translate(17.802 31.703)">
              <path id="Trazado_198297" data-name="Trazado 198297" d="M327.167,102.057,324.906,89.1a4.087,4.087,0,1,0-3.784,0l-2.261,12.952Z" transform="translate(-318.861 -81.495)" fill="#bfe1f6"/>
            </g>
            <g id="Grupo_136353" data-name="Grupo 136353" transform="translate(17.933 32.094)">
              <path id="Trazado_198298" data-name="Trazado 198298" d="M327.1,102.244l-2.189-12.706a3.958,3.958,0,1,0-3.665,0l-2.189,12.706Z" transform="translate(-319.055 -82.073)" fill="#2b2969"/>
            </g>
          </g>
        </g>
      </g>
    </g>
    <g id="Grupo_136362" data-name="Grupo 136362" transform="translate(938.55 2415.925)">
      <g id="Grupo_136358" data-name="Grupo 136358" transform="translate(12.826)">
        <path id="Trazado_198299" data-name="Trazado 198299" d="M172.057,359.313a23.026,23.026,0,0,0-4.3-3.067,22.075,22.075,0,0,1-4.482-3.063c-1.558-1.485-2.046-3.1-2.648-5.116a11.466,11.466,0,0,0-5.31-7.171c-2.129-1.272-4.665-1.464-6.852-2.594-3.445-1.778-5.729-6.535-9.939-6.648-5.181-.137-5.1,6.466-3.978,9.909.793,2.431,2.238,4.909,2.067,7.534-.194,2.984-1.661,5.725-1.682,8.73-.053,7.6,9.175,10.706,10.306,17.835a56.906,56.906,0,0,1,.306,6.773c.191,5.057,2.418,9.358,6.965,11.8a38.391,38.391,0,0,0,9.6,3.307c2.025.467,4.058.919,6.116,1.22,1.591.232,4.2.906,5.675-.008,1.061-.658,1.516-2.322,1.931-3.431,2.1-5.614,2.562-11.7,2.558-17.647a31.976,31.976,0,0,0-2.1-12.347A17.017,17.017,0,0,0,172.057,359.313Z" transform="translate(-133.929 -331.653)" fill="url(#linear-gradient-2)"/>
        <path id="Trazado_198300" data-name="Trazado 198300" d="M135.981,332.658c-2.555,1.752-2.325,6.491-1.431,9.231.793,2.431,2.238,4.909,2.067,7.534-.193,2.984-1.661,5.725-1.682,8.73-.053,7.6,9.175,10.706,10.306,17.835a56.906,56.906,0,0,1,.306,6.773c.191,5.057,2.418,9.358,6.965,11.8a38.392,38.392,0,0,0,9.6,3.307c2.025.467,4.058.919,6.116,1.22,1.546.226,4.053.864,5.545.061C171.3,389.8,161.106,356.55,135.981,332.658Z" transform="translate(-133.93 -331.978)" fill="url(#linear-gradient-2)"/>
        <path id="Trazado_198301" data-name="Trazado 198301" d="M176.618,402.052a146.2,146.2,0,0,0-5.32-16.275,166.174,166.174,0,0,0-7.027-15.661c-1.267-2.569-2.7-5.048-4.094-7.549-.721-1.237-1.489-2.445-2.232-3.669l-1.122-1.831-1.2-1.78-2.409-3.556-2.575-3.438-1.292-1.716-1.377-1.648-2.755-3.3-.012-.015a.338.338,0,0,1,.516-.436l2.815,3.279,1.408,1.64,1.323,1.709,2.638,3.426,2.472,3.546,1.232,1.777,1.155,1.827c.764,1.222,1.554,2.428,2.3,3.664,1.437,2.5,2.913,4.976,4.224,7.545a167.335,167.335,0,0,1,7.291,15.681,147.483,147.483,0,0,1,5.6,16.4.8.8,0,0,1-1.548.421v-.007Z" transform="translate(-137.551 -334.697)" fill="#8f8fd8"/>
      </g>
      <g id="Grupo_136359" data-name="Grupo 136359" transform="translate(0 37.549)">
        <path id="Trazado_198302" data-name="Trazado 198302" d="M149.352,394.711a17.613,17.613,0,0,0-4-.586,16.911,16.911,0,0,1-4.126-.52,7.918,7.918,0,0,1-3.595-2.56,8.783,8.783,0,0,0-6.128-3.03c-1.9-.122-3.691.635-5.577.63-2.97-.007-6.192-2.449-9.1-1.053-3.58,1.72-1.215,6.192.755,8.145,1.391,1.38,3.243,2.564,4.045,4.413.912,2.1.871,4.483,1.908,6.539,2.622,5.2,10,4.087,13.265,8.55a43.55,43.55,0,0,1,2.577,4.509,10.162,10.162,0,0,0,8.875,5.6,29.379,29.379,0,0,0,7.7-1.107c1.544-.39,3.087-.793,4.6-1.308,1.166-.4,3.181-.853,3.865-1.991.493-.82.221-2.113.116-3.014a38.4,38.4,0,0,0-4.431-12.922,24.478,24.478,0,0,0-5.753-7.68A13.018,13.018,0,0,0,149.352,394.711Z" transform="translate(-114.969 -387.161)" fill="url(#linear-gradient-2)"/>
        <path id="Trazado_198303" data-name="Trazado 198303" d="M115.324,389.8c-1.128,2.088.687,5.237,2.255,6.792,1.391,1.38,3.243,2.564,4.045,4.413.912,2.1.871,4.483,1.908,6.539,2.622,5.2,10,4.087,13.265,8.55a43.553,43.553,0,0,1,2.577,4.509,10.162,10.162,0,0,0,8.875,5.6,29.379,29.379,0,0,0,7.7-1.107c1.544-.39,3.087-.793,4.6-1.308,1.133-.388,3.065-.829,3.8-1.9C159.39,416.383,140.808,397.291,115.324,389.8Z" transform="translate(-114.97 -388.015)" fill="url(#linear-gradient-2)"/>
        <path id="Trazado_198304" data-name="Trazado 198304" d="M166.845,423.149a112.2,112.2,0,0,0-9.32-9.231,127.407,127.407,0,0,0-10.269-8.216c-1.762-1.308-3.606-2.5-5.432-3.712-.924-.591-1.87-1.145-2.8-1.72l-1.406-.855-1.441-.793-2.886-1.582-2.957-1.442-1.481-.718-1.515-.641-3.032-1.283-.014-.006a.259.259,0,0,1,.2-.478l3.066,1.249,1.534.625,1.5.7,3,1.412,2.926,1.552,1.461.779,1.427.841c.948.566,1.908,1.111,2.847,1.694,1.854,1.2,3.727,2.372,5.519,3.664a128.29,128.29,0,0,1,10.455,8.136,113.088,113.088,0,0,1,9.558,9.218.615.615,0,0,1-.908.829l0,0Z" transform="translate(-117.933 -388.873)" fill="#8f8fd8"/>
      </g>
      <g id="Grupo_136360" data-name="Grupo 136360" transform="translate(228.673 3.58)">
        <path id="Trazado_198305" data-name="Trazado 198305" d="M455.116,370.618a31.974,31.974,0,0,0-2.1,12.347c0,5.947.457,12.032,2.557,17.647.415,1.109.87,2.773,1.931,3.431,1.473.914,4.084.24,5.675.007,2.058-.3,4.091-.752,6.116-1.22a38.364,38.364,0,0,0,9.6-3.306c4.547-2.438,6.774-6.74,6.965-11.8a56.905,56.905,0,0,1,.306-6.773c1.131-7.128,10.359-10.237,10.306-17.835-.021-3-1.488-5.746-1.682-8.73-.17-2.625,1.274-5.1,2.067-7.534,1.123-3.442,1.2-10.045-3.978-9.908-4.21.112-6.495,4.869-9.939,6.648-2.188,1.129-4.723,1.321-6.853,2.594a11.465,11.465,0,0,0-5.309,7.17c-.6,2.013-1.09,3.631-2.648,5.116a22.075,22.075,0,0,1-4.482,3.063,23.024,23.024,0,0,0-4.3,3.067A17.025,17.025,0,0,0,455.116,370.618Z" transform="translate(-453.015 -336.945)" fill="url(#linear-gradient-2)"/>
        <path id="Trazado_198306" data-name="Trazado 198306" d="M497.637,337.949c2.555,1.752,2.325,6.491,1.431,9.231-.794,2.431-2.238,4.91-2.067,7.534.194,2.984,1.661,5.726,1.682,8.73.053,7.6-9.175,10.707-10.306,17.835a56.912,56.912,0,0,0-.306,6.773c-.191,5.056-2.418,9.358-6.965,11.8a38.362,38.362,0,0,1-9.6,3.306c-2.025.467-4.058.919-6.116,1.22-1.546.226-4.053.865-5.545.062C462.316,395.087,472.512,361.841,497.637,337.949Z" transform="translate(-455.224 -337.27)" fill="url(#linear-gradient-2)"/>
        <path id="Trazado_198307" data-name="Trazado 198307" d="M460.235,407.344a146.209,146.209,0,0,1,5.32-16.275,166.028,166.028,0,0,1,7.027-15.661c1.266-2.569,2.7-5.048,4.094-7.549.72-1.237,1.489-2.445,2.231-3.669l1.123-1.831,1.2-1.78,2.409-3.557,2.575-3.438,1.292-1.716,1.377-1.648,2.755-3.3.012-.015a.338.338,0,0,0-.516-.437l-2.815,3.279-1.408,1.64-1.323,1.708-2.638,3.426-2.472,3.546-1.232,1.776-1.155,1.828c-.764,1.222-1.553,2.428-2.3,3.664-1.437,2.5-2.913,4.976-4.224,7.545a167.342,167.342,0,0,0-7.291,15.682,147.521,147.521,0,0,0-5.6,16.4.8.8,0,1,0,1.548.421v-.006Z" transform="translate(-454.838 -339.989)" fill="#8f8fd8"/>
      </g>
      <g id="Grupo_136361" data-name="Grupo 136361" transform="translate(236.943 37.128)">
        <path id="Trazado_198308" data-name="Trazado 198308" d="M476,396.706a24.5,24.5,0,0,0-5.752,7.68,38.405,38.405,0,0,0-4.432,12.922c-.1.9-.377,2.194.116,3.014.685,1.138,2.7,1.592,3.865,1.991,1.508.515,3.051.918,4.6,1.308a29.383,29.383,0,0,0,7.7,1.107,10.161,10.161,0,0,0,8.875-5.6,43.424,43.424,0,0,1,2.578-4.509c3.265-4.463,10.642-3.353,13.265-8.55,1.037-2.056,1-4.437,1.908-6.539.8-1.849,2.653-3.033,4.045-4.412,1.97-1.954,4.335-6.426.756-8.145-2.909-1.4-6.13,1.046-9.1,1.053-1.887,0-3.682-.752-5.578-.63a8.783,8.783,0,0,0-6.128,3.03,7.918,7.918,0,0,1-3.595,2.56,16.911,16.911,0,0,1-4.126.519,17.6,17.6,0,0,0-4,.586A13.027,13.027,0,0,0,476,396.706Z" transform="translate(-465.372 -386.539)" fill="url(#linear-gradient-2)"/>
        <path id="Trazado_198309" data-name="Trazado 198309" d="M515.187,389.177c1.128,2.088-.687,5.238-2.255,6.792-1.391,1.379-3.243,2.563-4.045,4.412-.913,2.1-.871,4.483-1.908,6.539-2.623,5.2-10,4.087-13.265,8.55a43.425,43.425,0,0,0-2.578,4.509,10.161,10.161,0,0,1-8.875,5.6,29.383,29.383,0,0,1-7.7-1.107c-1.544-.39-3.087-.793-4.6-1.308-1.133-.387-3.064-.829-3.8-1.9C471.122,415.761,489.7,396.669,515.187,389.177Z" transform="translate(-465.539 -387.393)" fill="url(#linear-gradient-2)"/>
        <path id="Trazado_198310" data-name="Trazado 198310" d="M466.33,422.527a112.209,112.209,0,0,1,9.321-9.231,127.02,127.02,0,0,1,10.269-8.215c1.762-1.308,3.605-2.5,5.431-3.713.924-.591,1.87-1.145,2.8-1.72l1.406-.855L497,398l2.886-1.582,2.957-1.442,1.481-.717,1.515-.641,3.031-1.283.013-.006a.259.259,0,0,0-.2-.478l-3.066,1.249-1.534.625-1.5.7-3,1.412-2.926,1.552-1.461.779-1.427.842c-.948.566-1.908,1.111-2.846,1.694-1.854,1.2-3.727,2.372-5.519,3.664a128.185,128.185,0,0,0-10.456,8.136,112.986,112.986,0,0,0-9.557,9.218.614.614,0,0,0,.907.829l0,0Z" transform="translate(-465.24 -388.251)" fill="#8f8fd8"/>
      </g>
    </g>
    <g id="Grupo_136365" data-name="Grupo 136365" transform="translate(947.672 2460.521)">
      <g id="Grupo_136363" data-name="Grupo 136363" transform="translate(38.769)">
        <path id="Trazado_198311" data-name="Trazado 198311" d="M189.868,408.432a16,16,0,0,0-2.771,5.622,25.08,25.08,0,0,0-1.293,8.828,3.367,3.367,0,0,0,.436,1.922c.576.648,1.924.7,2.72.814,1.03.149,2.069.223,3.108.288a19.2,19.2,0,0,0,5.078-.214,6.637,6.637,0,0,0,5.025-4.663,28.569,28.569,0,0,1,1.113-3.205c1.561-3.257,6.431-3.43,7.49-7.082.419-1.445.107-2.969.44-4.428.293-1.283,1.339-2.265,2.067-3.318,1.03-1.491,2.012-4.647-.493-5.32-2.035-.547-3.81,1.408-5.716,1.769-1.211.229-2.454-.041-3.657.265a5.737,5.737,0,0,0-3.57,2.681,5.173,5.173,0,0,1-2,2.076,11.078,11.078,0,0,1-2.587.829,11.512,11.512,0,0,0-2.5.856A8.52,8.52,0,0,0,189.868,408.432Z" transform="translate(-185.765 -397.58)" fill="url(#linear-gradient-2)"/>
        <path id="Trazado_198312" data-name="Trazado 198312" d="M214.166,398.74c.975,1.205.188,3.445-.632,4.632-.728,1.053-1.774,2.035-2.067,3.318-.333,1.459-.021,2.983-.44,4.428-1.059,3.651-5.93,3.825-7.49,7.082a28.569,28.569,0,0,0-1.113,3.205,6.637,6.637,0,0,1-5.025,4.663,19.2,19.2,0,0,1-5.078.214c-1.038-.065-2.077-.139-3.108-.288-.774-.112-2.067-.164-2.668-.762C189.066,421.1,198.7,406.611,214.166,398.74Z" transform="translate(-186.017 -397.955)" fill="url(#linear-gradient-2)"/>
        <path id="Trazado_198313" data-name="Trazado 198313" d="M186.7,426.333a73.293,73.293,0,0,1,4.876-7.047,83,83,0,0,1,5.607-6.508c.974-1.051,2.015-2.035,3.041-3.036.522-.49,1.063-.96,1.594-1.442l.8-.718.83-.683,1.663-1.362,1.726-1.281.865-.639.9-.594,1.793-1.188.008-.005a.169.169,0,0,0-.185-.283l-1.819,1.17-.909.585-.879.63-1.754,1.266-1.692,1.348-.845.676-.814.712c-.54.477-1.092.943-1.624,1.429-1.046.993-2.109,1.971-3.1,3.016a83.713,83.713,0,0,0-5.736,6.48A73.724,73.724,0,0,0,186,425.929a.4.4,0,0,0,.682.423v0Z" transform="translate(-185.823 -398.856)" fill="#8f8fd8"/>
      </g>
      <path id="Trazado_198314" data-name="Trazado 198314" d="M450.273,427.529a2.332,2.332,0,0,0-2.907-1.655,3.17,3.17,0,0,0,.965-1.088,2.883,2.883,0,0,0-.874-3.371,3.175,3.175,0,0,0-3.034.164,4.122,4.122,0,0,0-1.6,1.609,6.525,6.525,0,0,0-.754,2.054c-.789-.842-1.608-1.556-2.891-1a2.415,2.415,0,0,0-1.346,1.574c-.227-.866-.555-1.667-1.582-1.373a3.389,3.389,0,0,0-1.866,1.607,11,11,0,0,0-.107-3.674c-.223-.963-.727-2.69-1.979-2.656s-2.01,1.527-2.23,2.566a5.858,5.858,0,0,0,.48,3.81,1.653,1.653,0,0,0-1.761.147,1.251,1.251,0,0,0-.459,1.089c-.969-.661-2.4-1.475-2.648.271-.248,1.726,1.371,3.587,2.939,3.984a.145.145,0,0,0,.183-.134,6.494,6.494,0,0,0,2.353.388q2.289.11,4.58.188l8.772.3a.252.252,0,0,0,.308.067,18.51,18.51,0,0,0,3.9-2.454C449.433,429.351,450.453,428.594,450.273,427.529Z" transform="translate(-224.611 -404.744)" fill="#76bfee"/>
      <g id="Grupo_136364" data-name="Grupo 136364" transform="translate(183.746)">
        <path id="Trazado_198315" data-name="Trazado 198315" d="M421.693,406.153a11.5,11.5,0,0,0-2.5-.856,11.1,11.1,0,0,1-2.587-.829,5.171,5.171,0,0,1-2-2.076,5.739,5.739,0,0,0-3.57-2.681c-1.2-.306-2.447-.036-3.657-.265-1.906-.361-3.681-2.316-5.717-1.769-2.5.674-1.523,3.829-.493,5.32.728,1.053,1.774,2.035,2.067,3.318.333,1.459.021,2.983.44,4.428,1.059,3.652,5.929,3.825,7.49,7.082a28.438,28.438,0,0,1,1.113,3.205,6.639,6.639,0,0,0,5.025,4.663,19.2,19.2,0,0,0,5.078.214c1.038-.065,2.078-.139,3.108-.288.8-.116,2.144-.166,2.721-.814a3.367,3.367,0,0,0,.436-1.922,25.081,25.081,0,0,0-1.293-8.828,15.993,15.993,0,0,0-2.771-5.622A8.517,8.517,0,0,0,421.693,406.153Z" transform="translate(-400.083 -397.58)" fill="#ffb39c"/>
        <path id="Trazado_198316" data-name="Trazado 198316" d="M400.537,398.74c-.975,1.205-.188,3.445.632,4.632.728,1.053,1.774,2.035,2.067,3.318.333,1.459.021,2.983.44,4.428,1.059,3.651,5.929,3.825,7.49,7.082a28.426,28.426,0,0,1,1.113,3.205,6.639,6.639,0,0,0,5.025,4.663,19.2,19.2,0,0,0,5.078.214c1.038-.065,2.078-.139,3.108-.288.774-.112,2.067-.164,2.669-.762C425.638,421.1,416,406.611,400.537,398.74Z" transform="translate(-400.084 -397.955)" fill="#ff8c5f"/>
        <path id="Trazado_198317" data-name="Trazado 198317" d="M429.7,426.333a73.179,73.179,0,0,0-4.875-7.047,83.154,83.154,0,0,0-5.607-6.508c-.974-1.051-2.015-2.035-3.041-3.036-.522-.49-1.063-.96-1.594-1.442l-.8-.718-.829-.683-1.663-1.362-1.726-1.281-.865-.639-.9-.594-1.792-1.188-.008-.005a.169.169,0,0,1,.185-.283l1.819,1.17.91.585.879.63,1.754,1.266,1.692,1.348.845.676.815.712c.54.477,1.092.943,1.624,1.429,1.047.993,2.108,1.971,3.1,3.016a83.557,83.557,0,0,1,5.736,6.48,73.846,73.846,0,0,1,5.029,7.066.4.4,0,0,1-.682.423l0,0Z" transform="translate(-401.975 -398.856)" fill="#8f8fd8"/>
      </g>
      <path id="Trazado_198318" data-name="Trazado 198318" d="M245.341,424.232c-.37-2.249-2.7-3.06-4.718-2.718a5.142,5.142,0,0,0,1.58-1.762c.692-1.77.353-4.442-1.394-5.495a5.169,5.169,0,0,0-4.939.244,6.71,6.71,0,0,0-2.608,2.606,10.59,10.59,0,0,0-1.245,3.336c-1.277-1.377-2.6-2.545-4.7-1.649a3.931,3.931,0,0,0-2.2,2.55c-.363-1.41-.89-2.717-2.564-2.246a5.514,5.514,0,0,0-3.049,2.6,17.917,17.917,0,0,0-.144-5.98c-.354-1.569-1.161-4.385-3.2-4.338s-3.284,2.469-3.651,4.158a9.534,9.534,0,0,0,.75,6.2,2.686,2.686,0,0,0-2.867.225,2.035,2.035,0,0,0-.757,1.769c-1.572-1.083-3.89-2.421-4.312.419-.418,2.808,2.2,5.849,4.751,6.508a.236.236,0,0,0,.3-.216,10.579,10.579,0,0,0,3.826.65q3.725.2,7.453.344l14.275.566a.414.414,0,0,0,.5.112,30.1,30.1,0,0,0,6.361-3.962C243.961,427.19,245.626,425.967,245.341,424.232Z" transform="translate(-153.309 -402.045)" fill="#76bfee"/>
      <path id="Trazado_198319" data-name="Trazado 198319" d="M513.254,429.425c-.248-1.879-2.161-2.614-3.847-2.383a4.275,4.275,0,0,0,1.358-1.422c.622-1.452.411-3.681-1.013-4.6a4.3,4.3,0,0,0-4.109.071,5.579,5.579,0,0,0-2.236,2.1,8.785,8.785,0,0,0-1.123,2.738c-1.024-1.178-2.1-2.184-3.858-1.494a3.264,3.264,0,0,0-1.9,2.06c-.264-1.181-.667-2.281-2.071-1.935a4.584,4.584,0,0,0-2.6,2.08,14.869,14.869,0,0,0,.039-4.971c-.253-1.313-.848-3.673-2.542-3.688s-2.793,1.964-3.143,3.357a7.923,7.923,0,0,0,.459,5.174,2.232,2.232,0,0,0-2.388.112,1.691,1.691,0,0,0-.676,1.45c-1.277-.942-3.167-2.115-3.593.233-.421,2.322,1.675,4.917,3.774,5.532a.2.2,0,0,0,.254-.172,8.792,8.792,0,0,0,3.161.642q3.089.262,6.181.482l11.843.849a.342.342,0,0,0,.413.106,25.022,25.022,0,0,0,5.39-3.122C512.029,431.846,513.445,430.874,513.254,429.425Z" transform="translate(-242.18 -404.179)" fill="#76bfee"/>
      <path id="Trazado_198320" data-name="Trazado 198320" d="M152.874,435.236a2.333,2.333,0,0,0-3.078-1.313,3.156,3.156,0,0,0,.835-1.191,2.884,2.884,0,0,0-1.253-3.25,3.176,3.176,0,0,0-3,.511,4.121,4.121,0,0,0-1.4,1.781,6.493,6.493,0,0,0-.515,2.127c-.881-.746-1.776-1.362-2.987-.661a2.414,2.414,0,0,0-1.157,1.717c-.325-.833-.742-1.592-1.729-1.182a3.386,3.386,0,0,0-1.669,1.81,11.01,11.01,0,0,0-.527-3.637c-.331-.931-1.03-2.589-2.27-2.412s-1.822,1.747-1.922,2.8a5.863,5.863,0,0,0,.913,3.73,1.649,1.649,0,0,0-1.732.348,1.248,1.248,0,0,0-.332,1.134c-1.039-.546-2.551-1.192-2.6.572-.049,1.743,1.773,3.406,3.376,3.622a.146.146,0,0,0,.167-.154,6.493,6.493,0,0,0,2.382.116q2.286-.153,4.571-.337l8.75-.7a.252.252,0,0,0,.313.031,18.485,18.485,0,0,0,3.591-2.883C152.248,437.141,153.175,436.274,152.874,435.236Z" transform="translate(-128.453 -407.839)" fill="#76bfee"/>
    </g>
    <g id="Grupo_136372" data-name="Grupo 136372" transform="translate(937.969 2390.273)">
      <ellipse id="Elipse_4910" data-name="Elipse 4910" cx="150.391" cy="9.017" rx="150.391" ry="9.017" transform="translate(0 94.365)" fill="#2b2969"/>
      <g id="Grupo_136371" data-name="Grupo 136371" transform="translate(42.867)">
        <g id="Grupo_136366" data-name="Grupo 136366" transform="translate(9.243 5.317)">
          <path id="Trazado_198321" data-name="Trazado 198321" d="M237.006,314.094c-16.943,0-33.231-3.359-45.863-9.457l1.471-3.045c12.183,5.88,27.948,9.12,44.392,9.12s32.209-3.24,44.392-9.12l1.471,3.045C270.236,310.736,253.949,314.094,237.006,314.094Z" transform="translate(-191.143 -301.592)" fill="#2a2a47"/>
        </g>
        <g id="Grupo_136367" data-name="Grupo 136367" transform="translate(99.056 5.317)">
          <path id="Trazado_198322" data-name="Trazado 198322" d="M369.776,314.094c-16.943,0-33.231-3.359-45.863-9.457l1.471-3.045c12.183,5.88,27.948,9.12,44.392,9.12s32.209-3.24,44.392-9.12l1.471,3.045C403.006,310.736,386.719,314.094,369.776,314.094Z" transform="translate(-323.913 -301.592)" fill="#2a2a47"/>
        </g>
        <g id="Grupo_136368" data-name="Grupo 136368" transform="translate(0 0)">
          <path id="Trazado_198323" data-name="Trazado 198323" d="M197.022,442.239h-18.16a1.383,1.383,0,0,0-1.383,1.383h0A1.383,1.383,0,0,0,178.862,445h18.16a1.383,1.383,0,0,0,1.383-1.383h0A1.383,1.383,0,0,0,197.022,442.239Z" transform="translate(-177.479 -341.781)" fill="#2b2969"/>
          <path id="Trazado_198324" data-name="Trazado 198324" d="M195.4,438.15H183.457a1.383,1.383,0,0,0-1.383,1.383h0a1.384,1.384,0,0,0,1.383,1.383H195.4a1.383,1.383,0,0,0,1.383-1.383h0A1.383,1.383,0,0,0,195.4,438.15Z" transform="translate(-178.966 -340.458)" fill="#2b2969"/>
          <rect id="Rectángulo_41600" data-name="Rectángulo 41600" width="4.013" height="87.116" transform="translate(8.457 10.577)" fill="#2b2969"/>
          <rect id="Rectángulo_41601" data-name="Rectángulo 41601" width="4.013" height="5.97" transform="translate(8.457 10.577)" fill="#999" opacity="0.2" style="mix-blend-mode: multiply;isolation: isolate"/>
          <circle id="Elipse_4911" data-name="Elipse 4911" cx="5.796" cy="5.796" r="5.796" transform="translate(4.667)" fill="#2a2a47"/>
          <path id="Trazado_198325" data-name="Trazado 198325" d="M194.626,296.817a5.034,5.034,0,1,1-8.9,0,5.8,5.8,0,1,0,8.9,0Z" transform="translate(-179.711 -294.73)" fill="#2b2969"/>
        </g>
        <g id="Grupo_136369" data-name="Grupo 136369" transform="translate(89.329)">
          <path id="Trazado_198326" data-name="Trazado 198326" d="M329.076,442.239h-18.16a1.383,1.383,0,0,0-1.383,1.383h0A1.383,1.383,0,0,0,310.916,445h18.16a1.383,1.383,0,0,0,1.383-1.383h0A1.383,1.383,0,0,0,329.076,442.239Z" transform="translate(-309.533 -341.781)" fill="#2b2969"/>
          <path id="Trazado_198327" data-name="Trazado 198327" d="M327.453,438.15H315.511a1.383,1.383,0,0,0-1.383,1.383h0a1.383,1.383,0,0,0,1.383,1.383h11.943a1.384,1.384,0,0,0,1.383-1.383h0A1.383,1.383,0,0,0,327.453,438.15Z" transform="translate(-311.02 -340.458)" fill="#2b2969"/>
          <rect id="Rectángulo_41602" data-name="Rectángulo 41602" width="4.013" height="87.116" transform="translate(8.456 10.577)" fill="#2b2969"/>
          <rect id="Rectángulo_41603" data-name="Rectángulo 41603" width="4.013" height="5.97" transform="translate(8.456 10.577)" fill="#999" opacity="0.2" style="mix-blend-mode: multiply;isolation: isolate"/>
          <circle id="Elipse_4912" data-name="Elipse 4912" cx="5.796" cy="5.796" r="5.796" transform="translate(4.667)" fill="#2a2a47"/>
          <path id="Trazado_198328" data-name="Trazado 198328" d="M326.68,296.817a5.034,5.034,0,1,1-8.9,0,5.8,5.8,0,1,0,8.9,0Z" transform="translate(-311.765 -294.73)" fill="#2b2969"/>
        </g>
        <g id="Grupo_136370" data-name="Grupo 136370" transform="translate(178.657 0)">
          <path id="Trazado_198329" data-name="Trazado 198329" d="M461.129,442.239H442.97a1.383,1.383,0,0,0-1.383,1.383h0A1.383,1.383,0,0,0,442.97,445h18.159a1.383,1.383,0,0,0,1.383-1.383h0A1.383,1.383,0,0,0,461.129,442.239Z" transform="translate(-441.587 -341.781)" fill="#2b2969"/>
          <path id="Trazado_198330" data-name="Trazado 198330" d="M459.508,438.15H447.565a1.383,1.383,0,0,0-1.383,1.383h0a1.383,1.383,0,0,0,1.383,1.383h11.943a1.384,1.384,0,0,0,1.383-1.383h0A1.383,1.383,0,0,0,459.508,438.15Z" transform="translate(-443.074 -340.458)" fill="#2b2969"/>
          <rect id="Rectángulo_41604" data-name="Rectángulo 41604" width="4.013" height="87.116" transform="translate(8.456 10.577)" fill="#2b2969"/>
          <rect id="Rectángulo_41605" data-name="Rectángulo 41605" width="4.013" height="5.97" transform="translate(8.456 10.577)" fill="#999" opacity="0.2" style="mix-blend-mode: multiply;isolation: isolate"/>
          <circle id="Elipse_4913" data-name="Elipse 4913" cx="5.796" cy="5.796" r="5.796" transform="translate(4.667)" fill="#2a2a47"/>
          <path id="Trazado_198331" data-name="Trazado 198331" d="M458.734,296.817a5.034,5.034,0,1,1-8.9,0,5.8,5.8,0,1,0,8.9,0Z" transform="translate(-443.819 -294.73)" fill="#2b2969"/>
        </g>
      </g>
    </g>
    <g id="Grupo_136373" data-name="Grupo 136373" transform="translate(936.244 2237.934)">
      <path id="Trazado_198332" data-name="Trazado 198332" d="M176.449,190.342l3.916,1.054-3.916,1.054-1.054,3.916-1.054-3.916-3.916-1.054,3.916-1.054,1.054-3.916Z" transform="translate(-130.605 -106.675)" fill="#2b2969"/>
      <path id="Trazado_198333" data-name="Trazado 198333" d="M117.584,358.83l3.916,1.054-3.916,1.054-1.054,3.916-1.054-3.916-3.916-1.054,3.916-1.054,1.054-3.916Z" transform="translate(-111.559 -161.188)" fill="#2b2969"/>
      <path id="Trazado_198334" data-name="Trazado 198334" d="M440.264,259.919l3.916,1.054-3.916,1.054-1.054,3.916-1.054-3.916-3.916-1.054,3.916-1.054L439.21,256Z" transform="translate(-215.961 -129.186)" fill="#2b2969"/>
      <path id="Trazado_198335" data-name="Trazado 198335" d="M429.277,157.834l2.4.647-2.4.647-.647,2.4-.647-2.4-2.4-.647,2.4-.647.647-2.4Z" transform="translate(-213.158 -96.646)" fill="#2b2969"/>
      <path id="Trazado_198336" data-name="Trazado 198336" d="M368.5,276.958l2.4.647-2.4.647-.647,2.4-.647-2.4-2.4-.647,2.4-.647.647-2.4Z" transform="translate(-193.495 -135.188)" fill="#2b2969"/>
      <path id="Trazado_198337" data-name="Trazado 198337" d="M506.738,357.061l2.4.647-2.4.647-.647,2.4-.647-2.4-2.4-.647,2.4-.647.647-2.4Z" transform="translate(-238.22 -161.105)" fill="#2b2969"/>
      <path id="Trazado_198338" data-name="Trazado 198338" d="M255.587,79.966l2.4.647-2.4.647-.647,2.4-.647-2.4-2.4-.647,2.4-.647.647-2.4Z" transform="translate(-156.962 -71.452)" fill="#2b2969"/>
      <path id="Trazado_198339" data-name="Trazado 198339" d="M205.437,214.6l1.958.527-1.958.527-.527,1.958-.527-1.958-1.958-.527,1.958-.527.527-1.958Z" transform="translate(-140.958 -115.156)" fill="#fff"/>
      <path id="Trazado_198340" data-name="Trazado 198340" d="M195.251,293.947l1.958.527-1.958.527-.527,1.958L194.2,295l-1.958-.527,1.958-.527.527-1.958Z" transform="translate(-137.663 -140.829)" fill="#fff"/>
      <path id="Trazado_198341" data-name="Trazado 198341" d="M360.467,70.488l1.958.527-1.958.527L359.94,73.5l-.527-1.958-1.958-.527,1.958-.527.527-1.958Z" transform="translate(-191.117 -68.53)" fill="#fff"/>
      <path id="Trazado_198342" data-name="Trazado 198342" d="M267.129,89.343l1.958.527-1.958.527-.527,1.958-.527-1.958-1.958-.527,1.958-.527.527-1.958Z" transform="translate(-160.919 -74.631)" fill="#fff"/>
      <path id="Trazado_198343" data-name="Trazado 198343" d="M133.268,335.229l1.958.527-1.958.527-.527,1.958-.527-1.958-1.958-.527,1.958-.527.527-1.958Z" transform="translate(-117.609 -154.186)" fill="#fff"/>
      <path id="Trazado_198344" data-name="Trazado 198344" d="M452.354,296.245l1.958.527-1.958.527-.527,1.958L451.3,297.3l-1.958-.527,1.958-.527.527-1.958Z" transform="translate(-220.847 -141.573)" fill="#fff"/>
      <path id="Trazado_198345" data-name="Trazado 198345" d="M416.42,102.9l1.958.527-1.958.527-.527,1.958-.527-1.958-1.958-.527,1.958-.527.527-1.958Z" transform="translate(-209.221 -79.017)" fill="#fff"/>
      <path id="Trazado_198346" data-name="Trazado 198346" d="M267.129,199.4l1.958.527-1.958.527-.527,1.958-.527-1.958-1.958-.527,1.958-.527.527-1.958Z" transform="translate(-160.919 -110.241)" fill="#fff"/>
      <path id="Trazado_198347" data-name="Trazado 198347" d="M186.421,224.277l4.135,1.114-4.135,1.113-1.113,4.135-1.114-4.135-4.135-1.113,4.135-1.114,1.114-4.135Z" transform="translate(-133.722 -117.583)" fill="#fff"/>
      <path id="Trazado_198348" data-name="Trazado 198348" d="M342.793,73.7l4.135,1.113-4.135,1.113-1.113,4.136-1.113-4.136L336.43,74.81l4.136-1.113,1.113-4.136Z" transform="translate(-184.315 -68.864)" fill="#fff"/>
      <path id="Trazado_198349" data-name="Trazado 198349" d="M282.972,210.256l4.135,1.113-4.135,1.113-1.114,4.135-1.113-4.135-4.135-1.113,4.135-1.113,1.113-4.136Z" transform="translate(-164.96 -113.047)" fill="#fff"/>
      <path id="Trazado_198350" data-name="Trazado 198350" d="M383.327,293.193l4.135,1.114-4.135,1.113-1.113,4.136L381.1,295.42l-4.135-1.113,4.135-1.114,1.113-4.135Z" transform="translate(-197.43 -139.881)" fill="#fff"/>
      <path id="Trazado_198351" data-name="Trazado 198351" d="M148.368,346.313l2.862.77-2.862.771-.771,2.862-.77-2.862-2.862-.771,2.862-.77.77-2.862Z" transform="translate(-122.044 -157.479)" fill="#fff"/>
      <path id="Trazado_198352" data-name="Trazado 198352" d="M480.081,383.951l1.958.527-1.958.527-.527,1.958-.527-1.958-1.958-.527,1.958-.527.527-1.958Z" transform="translate(-229.818 -169.949)" fill="#fff"/>
      <path id="Trazado_198353" data-name="Trazado 198353" d="M495.181,395.035l2.862.771-2.862.77-.771,2.862-.771-2.862-2.862-.77,2.862-.771.771-2.862Z" transform="translate(-234.253 -173.243)" fill="#fff"/>
      <path id="Trazado_198354" data-name="Trazado 198354" d="M452.048,246.782l2.862.77-2.862.771-.771,2.862-.77-2.862-2.862-.771,2.862-.77.77-2.862Z" transform="translate(-220.298 -125.277)" fill="#fff"/>
      <path id="Trazado_198355" data-name="Trazado 198355" d="M397.048,123.853l4.135,1.114-4.135,1.113-1.113,4.136-1.114-4.136-4.135-1.113,4.135-1.114,1.114-4.135Z" transform="translate(-201.869 -85.092)" fill="#fff"/>
    </g>
  </g>
</svg>
