<svg xmlns="http://www.w3.org/2000/svg" width="652" height="384.697" viewBox="0 0 652 384.697">
  <g id="Grupo_137310" data-name="Grupo 137310" transform="translate(-683.333 -7478)">
    <g id="Grupo_136739" data-name="Grupo 136739" transform="translate(1025.3 7457.022)">
      <rect id="Rectángulo_31191" data-name="Rectángulo 31191" width="226.674" height="226.675" transform="translate(83.359 21)" fill="#f2eefc"/>
      <rect id="Rectángulo_31193" data-name="Rectángulo 31193" width="226.674" height="226.675" transform="translate(-341.967 179)" fill="#4747ff" opacity="0.3"/>
    </g>
    <rect id="Rectángulo_41747" data-name="Rectángulo 41747" width="610" height="340" transform="translate(725 7478)" fill="#fff"/>
    <g id="Grupo_137295" data-name="Grupo 137295" transform="translate(0 -13.706)">
      <g id="Grupo_137294" data-name="Grupo 137294" transform="translate(810 7511.579)">
        <ellipse id="Elipse_4970" data-name="Elipse 4970" cx="156.569" cy="130.93" rx="156.569" ry="130.93" transform="translate(65.191 20.067)" fill="none" stroke="#d100c9" stroke-miterlimit="10" stroke-width="2"/>
        <path id="Trazado_200117" data-name="Trazado 200117" d="M139.73,281.3V265.516h15.783" transform="translate(-78.786 -44.349)" fill="none" stroke="#d100c9" stroke-linecap="round" stroke-linejoin="round" stroke-width="2"/>
        <path id="Trazado_200118" data-name="Trazado 200118" d="M355.938,294.443H340.156V278.661" transform="translate(13.425 -38.301)" fill="none" stroke="#d100c9" stroke-linecap="round" stroke-linejoin="round" stroke-width="2"/>
        <path id="Trazado_200119" data-name="Trazado 200119" d="M149.416,145.482H165.2v15.783" transform="translate(-74.329 -99.573)" fill="none" stroke="#d100c9" stroke-linecap="round" stroke-linejoin="round" stroke-width="2"/>
        <path id="Trazado_200120" data-name="Trazado 200120" d="M365.526,158.5v15.783H349.744" transform="translate(17.836 -93.582)" fill="none" stroke="#d100c9" stroke-linecap="round" stroke-linejoin="round" stroke-width="2"/>
        <path id="Trazado_200121" data-name="Trazado 200121" d="M166.559,297.366a155.891,155.891,0,0,1-26.071-30.575" transform="translate(-78.437 -43.762)" fill="none" stroke="#d100c9" stroke-miterlimit="10" stroke-width="2"/>
        <path id="Trazado_200122" data-name="Trazado 200122" d="M370.117,264.529a155.5,155.5,0,0,1-29.961,35.508" transform="translate(13.425 -44.802)" fill="none" stroke="#d100c9" stroke-miterlimit="10" stroke-width="2"/>
        <path id="Trazado_200123" data-name="Trazado 200123" d="M337.734,143.983a157.23,157.23,0,0,1,32.532,36.984" transform="translate(12.311 -100.263)" fill="none" stroke="#d100c9" stroke-miterlimit="10" stroke-width="2"/>
        <path id="Trazado_200124" data-name="Trazado 200124" d="M139.73,180.278a156.285,156.285,0,0,1,29.967-34.8" transform="translate(-78.786 -99.573)" fill="none" stroke="#d100c9" stroke-miterlimit="10" stroke-width="2"/>
        <path id="Trazado_200125" data-name="Trazado 200125" d="M140.488,266.791" transform="translate(-78.437 -43.762)" fill="none" stroke="#d100c9" stroke-miterlimit="10" stroke-width="2"/>
        <path id="Trazado_200126" data-name="Trazado 200126" d="M232.038,181.591a2.568,2.568,0,0,1-2.216-1.279L211.8,149.1a2.574,2.574,0,0,1,0-2.561l18.023-31.216a2.568,2.568,0,0,1,2.216-1.279h82.944a2.566,2.566,0,0,1,2.216,1.279l18.023,31.216a2.567,2.567,0,0,1,0,2.561L317.2,180.31a2.568,2.568,0,0,1-2.218,1.28Z" transform="translate(-45.786 -114.039)" fill="#bebeff"/>
        <text id="Fase_de_Experiencia_1_" data-name="Fase de
Experiencia (1)" transform="translate(224.923 29.609)" font-size="12" font-family="Roboto-Black, Roboto" font-weight="800"><tspan x="-20.842" y="0">Fase de</tspan><tspan x="-40.813" y="15">Experiencia (1)</tspan></text>
        <path id="Trazado_200127" data-name="Trazado 200127" d="M335.189,256.366a2.561,2.561,0,0,1-2.216-1.279L314.948,223.87a2.574,2.574,0,0,1,0-2.561l18.023-31.215a2.567,2.567,0,0,1,2.218-1.28h82.942a2.564,2.564,0,0,1,2.216,1.279l18.023,31.216a2.567,2.567,0,0,1,0,2.561l-18.022,31.215a2.564,2.564,0,0,1-2.218,1.28Z" transform="translate(1.67 -79.637)" fill="#bebeff"/>
        <text id="Observación_y_reflexión_2_" data-name="Observación
y reflexión (2)" transform="translate(375.448 138.787)" font-size="12" font-family="Roboto-Black, Roboto" font-weight="800"><tspan x="-33.946" y="0">Observación</tspan><tspan x="-37.901" y="15">y reflexión (2)</tspan></text>
        <path id="Trazado_200128" data-name="Trazado 200128" d="M118.571,256.366a2.561,2.561,0,0,1-2.216-1.279L98.33,223.87a2.574,2.574,0,0,1,0-2.561l18.023-31.215a2.567,2.567,0,0,1,2.218-1.28h82.942a2.564,2.564,0,0,1,2.216,1.279l18.023,31.216a2.567,2.567,0,0,1,0,2.561l-18.022,31.215a2.564,2.564,0,0,1-2.218,1.28Z" transform="translate(-97.989 -79.637)" fill="#bebeff"/>
        <text id="Pruebas_en_nuevas_situaciones_4_" data-name="Pruebas en
nuevas 
situaciones (4)" transform="translate(58.25 130.937)" font-size="12" font-family="Roboto-Black, Roboto" font-weight="800"><tspan x="-30.609" y="0">Pruebas en</tspan><tspan x="-20.804" y="15">nuevas </tspan><tspan x="-40.409" y="30">situaciones (4)</tspan></text>
        <path id="Trazado_200129" data-name="Trazado 200129" d="M232.038,342.022a2.565,2.565,0,0,1-2.216-1.279L211.8,309.526a2.574,2.574,0,0,1,0-2.561l18.023-31.215a2.566,2.566,0,0,1,2.216-1.28h82.944a2.566,2.566,0,0,1,2.216,1.279l18.023,31.216a2.567,2.567,0,0,1,0,2.561L317.2,340.741a2.565,2.565,0,0,1-2.218,1.28Z" transform="translate(-45.786 -40.229)" fill="#bebeff"/>
        <text id="Formando_conceptos_abstractos_3_" data-name="Formando
conceptos
abstractos (3)" transform="translate(224.842 256.002)" font-size="12" font-family="Roboto-Black, Roboto" font-weight="800"><tspan x="-27.343" y="0">Formando</tspan><tspan x="-28.046" y="15">conceptos</tspan><tspan x="-37.796" y="30">abstractos (3)</tspan></text>
      </g>
    </g>
  </g>
</svg>
